<svg width="550" height="493" viewBox="0 0 550 493" fill="none" xmlns="http://www.w3.org/2000/svg">
<g clip-path="url(#clip0_1586_3595)">
<path d="M551 448.531C550.018 449.904 548.765 450.644 548.096 451.74C543.561 459.166 537.077 463.006 528.322 463.005C362.51 462.997 196.698 462.92 30.8864 463.154C17.9565 463.172 5.48713 451.42 6.85619 438.888C7.64779 431.642 7.1972 424.233 6.95858 416.908C6.48183 402.274 18.6842 392.96 30.7509 392.997C36.0616 393.013 41.3724 393 47.264 393C43.3125 381.917 45.4637 370.949 45.0407 360.119C44.4953 346.158 56.6694 334.944 70.2667 334.992C81.0779 335.03 91.8894 335 102.677 335C100.111 322.039 99.9613 309.326 102.19 296.805C103.709 288.269 112.054 279.484 123.166 279.016C125.662 278.911 128.165 278.999 130.665 278.999C231.485 278.999 332.306 279.066 433.126 278.914C445.585 278.895 457.229 289.179 457.016 302.896C456.918 309.227 457.108 315.563 456.961 321.892C456.862 326.14 456.401 330.379 456.074 335C466.476 335 477.409 334.981 488.341 335.005C499.192 335.029 509.072 342.33 512.25 352.76C512.764 354.445 512.941 356.285 512.967 358.058C513.054 363.889 513.132 369.726 512.962 375.554C512.797 381.247 512.323 386.931 511.951 393.171C526.464 392.212 541.821 391.276 550.756 407.337C551 420.687 551 434.375 551 448.531ZM464.5 405.999C321.553 405.999 178.607 405.999 35.6607 405.999C34.3278 405.999 32.9913 405.937 31.6628 406.013C25.5852 406.365 21.9641 408.599 20.9686 414.693C19.8862 421.317 20.4889 428.198 19.9482 434.934C19.0682 445.898 25.2401 450.078 35.012 450.072C197.951 449.97 360.89 449.999 523.829 449.999C524.828 449.999 525.829 450.028 526.827 449.994C534.002 449.744 537.971 445.712 537.995 438.612C538.018 432.115 538 425.617 538 419.12C538 409.815 534.232 406.006 524.978 406.002C505.152 405.993 485.326 405.999 464.5 405.999ZM313.5 334.999C353.494 334.999 393.488 335 433.483 334.999C440.422 334.999 443.89 331.568 443.983 324.445C444.062 318.447 444.003 312.447 443.999 306.448C443.992 295.858 440.08 292 429.337 292C329.518 291.999 229.699 291.999 129.88 291.999C128.88 291.999 127.878 291.961 126.881 292.007C118.485 292.397 114.317 297.882 114.876 304.431C115.44 311.048 114.998 317.751 115 324.417C115.003 332.661 117.325 334.998 125.527 334.999C187.851 335 250.175 334.999 313.5 334.999Z" fill="white"/>
<path d="M89.0002 481.165C90.6617 481.11 92.3232 481.006 93.9847 481.006C185.56 480.998 277.134 480.997 368.709 481.007C371.962 481.007 375.225 480.572 377.178 484.444C379.055 488.166 377.33 490.725 375.675 493.718C279.979 493.999 183.958 493.999 87.4294 493.615C85.6594 488.872 84.6649 484.559 89.0002 481.165Z" fill="#0ACF83"/>
<path d="M88.6257 481.098C84.665 484.56 85.6595 488.872 86.9608 493.615C86.2501 493.999 85.5001 493.999 84.3751 493.999C83.6659 492.099 83.5481 490.128 82.9561 488.313C81.3294 483.322 84.0383 481.674 88.6257 481.098Z" fill="white"/>
<path d="M252.954 5.89011C253.631 4.48974 254.309 3.08937 254.993 1.3445C256.714 1 258.429 1 260.572 1C261.613 2.117 262.225 3.234 262.561 4.66363C259.175 5.28088 256.064 5.5855 252.954 5.89011Z" fill="white"/>
<path d="M18.1783 240.664C17.4259 236.59 15.9677 232.621 16.6598 229.071C18.0838 221.768 20.5726 214.662 22.7837 207.525C24.7266 201.254 20.1313 197.717 17.0538 193.676C13.4734 188.975 9.59623 184.473 5.55425 180.16C2.53324 176.936 2.15538 173.053 3.39332 169.554C4.71476 165.819 8.05731 163.267 12.3674 163.034C20.4595 162.597 28.5589 162.18 36.6596 162.068C40.4772 162.016 43.0055 160.934 45.0311 157.406C49.164 150.206 53.5177 143.076 58.4847 136.445C60.1888 134.169 64.0182 132.253 66.834 132.31C72.0762 132.415 75.0272 136.825 76.8886 141.258C79.8446 148.296 82.1099 155.624 85.0327 162.679C85.7653 164.447 87.6478 166.406 89.4162 166.963C97.6193 169.551 106.102 171.298 114.195 174.166C117.17 175.22 120.323 178.087 121.623 180.936C123.046 184.054 122.51 187.918 118.944 190.656C112.566 195.551 106.659 201.07 100.191 205.833C97.1483 208.075 95.8468 210.509 95.9933 214.065C96.3474 222.663 96.6026 231.265 97.0269 239.858C97.2394 244.164 95.479 247.334 91.6794 249.024C88.3232 250.517 84.9998 250.816 81.5408 248.266C76.1705 244.307 70.0148 241.361 64.8815 237.147C59.2186 232.497 53.8612 232.898 47.7593 235.597C41.6619 238.293 35.3462 240.491 29.1879 243.056C25.0593 244.775 21.516 244.275 18.1783 240.664Z" fill="white"/>
<path d="M538.833 165.596C541.149 168.817 538.424 170.995 537.098 173.345C533.056 180.509 528.862 187.588 524.084 194.974C519.723 199.013 522.175 206.204 528.115 208.958C528.413 209.423 528.711 209.888 528.896 210.948C529.573 212.693 530.362 213.843 531.152 214.993C531.152 214.993 530.999 214.994 530.84 215.348C529.733 218.936 530.761 221.085 534.115 221.958C534.413 222.426 534.712 222.894 534.72 223.682C533.62 225.002 532.81 226.001 532.082 227.27C532.443 228.026 532.722 228.513 532.774 229.261C532.032 231.014 531.516 232.507 530.711 234.145C529.281 235.472 528.14 236.652 527 237.833C518.543 236.175 509.961 234.973 501.676 232.691C496.566 231.284 493.02 232.887 489.62 235.947C484.329 240.71 479.339 245.815 473.943 250.45C471.013 252.966 467.829 255.242 463.289 253.166C458.579 251.013 456.202 247.879 455.935 242.642C455.515 234.431 455.327 226.103 453.661 218.113C453.012 215.003 448.957 212.164 445.854 210.103C440.429 206.499 434.574 203.534 428.836 200.418C425.428 198.566 422.835 196.144 423.053 192.017C423.283 187.676 425.1 184.123 429.356 182.273C434.585 179.999 439.642 177.09 445.087 175.605C454.066 173.156 458.063 167.466 459.045 158.613C459.673 152.955 461.115 147.39 462.107 141.769C462.956 136.961 466.521 134.97 470.617 134.108C475.842 133.009 479.451 135.668 481.797 140.889C481.304 145.048 482.337 146.637 486.044 144.888C486.671 145.552 487.297 146.217 487.619 147.518C487.162 149.524 486.349 151.481 486.961 152.168C492.103 157.942 497.123 163.984 506.469 161.332C509.519 160.466 512.967 161.02 516.23 160.881C521.526 160.657 526.826 160.476 532.107 160.058C532.826 160.002 533.445 158.686 534.11 157.954C534.452 157.983 534.716 158.142 534.892 159.018C533.834 163.161 534.572 165.541 538.833 165.596Z" fill="white"/>
<path d="M181.167 191C181.543 189.758 181.92 188.516 182.944 187.061C186.771 185.176 188.158 183.092 185.167 180.001C185.404 179.203 185.642 178.405 186.417 177.298C188.54 176.11 191.474 175.192 191.45 174.361C191.388 172.221 190.016 170.119 189.167 168.001C189.541 166.76 189.915 165.519 190.941 164.045C193.766 161.757 196.43 160.013 197.985 157.565C199.831 154.661 199.049 152.1 194.882 151.961C195.205 150.856 195.528 149.75 196.387 148.302C198.241 146.819 200.627 145.681 200.63 144.537C200.636 142.694 199.069 140.846 198.167 139C197.776 137.937 197.385 136.874 197.117 135.09C199.007 126.443 193.67 119.761 184.167 118C183.181 116.88 182.195 115.76 181.499 114.2C182.284 112.251 183.67 110.093 183.125 109.346C180.586 105.871 178.354 101.569 172.903 102.059C172.903 102.059 172.968 102.028 173.037 101.705C174.691 96.6227 171.885 95.8928 168.167 95.9997C166.128 90.42 162.462 85.1585 165.32 78.2981C169.968 76.1307 169.874 72.4677 169.958 68.8861C170.107 68.3243 170.255 67.7625 170.823 67.4947C172.461 68.3927 174.223 69.844 174.813 69.466C179.337 66.5667 183.633 63.3117 188 60.1672C189.717 60.1212 191.434 60.0752 193.674 60.4342C196.433 64.0457 208.449 64.4133 210.874 61.3438C210.97 61.2224 210.986 61.0378 211.04 60.8827C213.072 60.9315 215.105 60.9803 217.629 61.4672C219.76 62.9302 221.308 64.6151 223.057 64.8587C228.723 65.6477 234.292 62.3883 240.26 64.5148C241.542 64.9716 244.344 61.9423 246.079 60.1618C248.563 57.6136 250.709 54.7369 253.25 52.125C254 52.4998 254.5 52.7502 254.919 53.3537C252.811 56.818 251.096 60.2028 248.673 62.9676C245.937 66.0896 245.555 67.9741 249.983 69.3385C248.912 70.1304 247.978 70.6217 246.737 70.9399C243.822 70.7413 241.193 70.9149 238.612 70.6404C235.311 70.2894 234.032 71.7813 233.587 74.9028C231.783 74.9258 230.392 74.8798 228.857 74.496C227.481 73.4613 226.286 72.2458 225.012 72.1563C219.052 71.7375 213.057 71.3205 207.104 71.5774C205.026 71.667 203.032 73.6924 200.608 74.9024C199.128 74.5704 198.062 74.0808 196.945 73.7915C195.507 73.4191 194.021 72.9648 192.566 72.9964C191.199 73.0262 189.829 73.5908 188.489 74.0108C185.354 74.9936 182.236 76.0307 178.836 76.8824C177.227 76.7762 175.893 76.8334 174.559 76.8907C175.651 77.927 176.742 78.9633 177.902 80.3437C177.686 81.7789 177.402 82.8698 176.901 84.0575C177.067 84.7698 177.45 85.3854 177.903 86.311C177.997 87.044 178.022 87.467 177.858 88.2017C175.556 92.9267 178.26 98.5694 182.681 102.346C186.796 105.861 189.932 110.529 193.448 114.731C194.17 115.594 194.588 116.707 195.289 117.593C197.357 120.206 199.807 122.575 201.516 125.398C203.087 127.993 204.355 127.622 206.392 126.091C207.154 127.138 207.633 128.047 207.927 129.254C206.623 132.049 207.329 133.564 210.449 134.127C211.134 135.153 211.484 136.01 211.448 137.033C207.672 140.545 208.824 144.287 210.067 148.388C209.694 149.527 209.37 150.319 208.779 150.976C207.258 151.837 205.33 152.584 204.856 153.868C200.334 166.118 195.98 178.432 191.852 190.82C191.5 191.876 193.126 193.592 193.902 195.373C193.925 196.497 193.879 197.249 193.523 198.122C192.715 199.748 191.373 201.669 191.873 202.684C193.64 206.273 196.85 208.529 200.959 208.231C202.373 208.128 203.657 206.24 205.383 205.097C207.496 204.647 209.227 204.267 211.169 204.146C216.994 206.436 220.017 205.104 221.323 200.097C222.083 199.98 222.52 199.933 223.188 200.166C229.434 203.297 239.264 199.644 243.304 193.024C244.405 192.642 245.203 192.405 246.047 192.505C247.066 193.71 248.039 194.578 249.011 195.447C250.008 193.687 251.004 191.927 252.323 190.097C253.083 189.98 253.52 189.933 254.194 190.169C262.437 192.238 267.947 198.256 274.683 202.184C277.901 204.06 282.221 204.044 286.36 204.939C287.468 205.625 288.257 206.257 288.934 207.201C289.487 209.435 289.604 211.955 290.922 213.166C294.488 216.439 298.66 219.04 302.413 222.125C306.105 225.16 309.071 229.651 314.983 227.266C315.381 227.105 316.123 227.734 316.679 228.042C320.628 230.224 324.051 228.905 327.534 223.846C329.553 220.913 328.546 216.727 325.098 213.546C325.075 209.729 325.121 206.365 325.453 202.796C327.494 199.915 327.834 197.344 325.098 194.604C325.075 193.139 325.121 192.07 325.473 190.901C329.523 187.796 329.439 186.866 325.098 183.628C325.075 182.505 325.121 181.753 325.479 180.883C326.679 179.286 328.651 177.406 328.277 176.394C325.961 170.13 331.179 165.987 332.302 160.742C333.085 157.084 335.169 154.053 339.255 152.399C342.469 151.098 342.824 148.531 339.022 146.657C340.091 145.867 341.024 145.378 342.252 145.073C348.283 145.76 350.552 143.805 349.4 139.336C351.404 138.047 353.147 137.001 355.154 136.116C356.28 136.852 357.14 137.426 358.034 138.32C358.379 139.427 358.689 140.214 358.864 141.307C357.908 142.381 356.975 143.061 356.286 143.933C352.837 148.299 349.451 152.716 346.042 157.115C344.91 158.026 343.777 158.936 342.055 159.794C336.924 159.58 335.098 161.296 335.076 166.739C335.019 181.091 335.098 195.445 335.435 209.791C335.469 211.22 337.649 212.599 338.833 214.001C338.878 214.446 338.922 214.892 338.551 215.714C336.217 217.949 334.323 219.833 332.376 221.66C328.909 224.911 329.767 227.264 333.833 229C333.438 229.614 333.042 230.227 332.023 230.805C329.568 230.613 327.738 230.457 324.808 230.207C325.89 232.58 326.468 233.846 327.045 235.112C325.613 235.748 324.181 236.383 322.23 236.77C319.162 234.152 317.331 234.906 316 237.834C315.554 237.878 315.108 237.923 314.228 237.585C310.954 233.338 307.614 230.516 303.047 228.319C297.831 225.81 293.655 221.161 288.968 217.518C286.976 215.97 284.301 215.013 282.866 213.093C279.756 208.932 276.214 207.445 270.956 209.113C269.359 207.959 267.762 206.805 266.347 205.24C269.05 203.673 269.309 201.804 267.308 200.234C265.843 199.085 263.619 197.951 261.939 198.2C256.193 199.05 250.394 200.082 244.897 201.897C241.311 203.082 236.197 203.338 236.042 209.115C235.286 209.413 234.529 209.71 233.12 209.836C229.053 208.018 213.579 210.682 211.414 213.563C210.52 214.752 210.474 216.579 210.042 218.115C208.938 218.401 207.833 218.686 206.303 218.591C205.646 217.781 205.472 217.022 205.175 216.97C196.698 215.495 190.789 210.395 185.834 203.73C185.097 202.737 183.23 202.584 181.885 202.043C181.6 200.938 181.314 199.833 181.415 198.239C184.936 195.185 184.805 192.928 181.167 191Z" fill="white"/>
<path d="M359 141.001C358.689 140.215 358.378 139.428 358.427 138.306C361.334 136.69 364.026 135.627 366.391 134.069C369.113 132.276 371.279 129.481 374.159 128.117C381.39 124.69 384.629 118.75 383.368 111.026C382.683 106.831 380.466 105.055 376.588 104.37C374.53 104.007 372.497 103.28 370.568 102.45C367.985 101.338 365.591 99.7596 362.969 98.7675C360.673 97.8988 358.126 97.7176 355.778 96.9607C350.462 95.2476 345.256 93.1657 339.879 91.6906C338.475 91.3053 336.611 92.5962 334.717 93.055C334.475 92.9926 334 92.8347 333.983 92.4683C333.865 87.7031 329.815 87.4019 327.194 85.735C321.603 82.1811 316.235 78.6708 314.528 71.5017C314.182 70.0453 311.461 69.154 309.53 67.8127C309.206 67.1537 309.186 66.6842 309.416 65.992C309.072 64.5274 308.479 63.2854 307.571 61.8551C307.132 60.4582 307.007 59.2495 307.196 57.8551C307.847 55.8377 308.844 53.8226 308.394 52.2104C307.237 48.0562 305.25 44.2773 306.01 39.5647C306.267 37.9673 303.425 35.8701 302 33.5847C302 31.7791 302 30.3902 302.114 28.7323C301.485 25.976 300.742 23.4887 300.393 21.0078C302.378 21.6928 304.896 21.97 305.395 23.1219C307.191 27.2658 308.324 31.699 309.67 36.0345C310.561 38.905 311.201 41.8689 312.3 44.6545C313.254 47.0725 314.572 49.3757 315.966 51.5802C316.774 52.8589 318.05 53.8427 319.115 54.9592C319.749 56.7134 320.384 58.4675 320.724 60.7148C319.836 63.3335 318.062 66.2291 318.858 67.4478C321.841 72.0175 325.305 76.42 329.276 80.155C332.933 83.5954 339.5 83.9586 342.039 81.8837C344.932 82.69 347.824 83.4963 350.789 84.8812C355.02 90.4799 360.1 93.9318 366.829 93.8159C368.234 93.7917 369.61 92.0943 371 91.168C371.592 91.2223 372.183 91.2766 372.994 91.9459C374.396 93.8853 375.374 95.5127 376.802 96.4719C379.929 98.5734 382.734 100.554 383.511 104.751C384.202 108.487 387.349 109.361 390.833 109.002C390.639 110.425 390.445 111.849 390.163 114.07C390.11 115.524 390.146 116.178 390.183 116.833C389.819 117.041 389.454 117.25 389.062 118.076C389.036 119.501 389.039 120.309 389.042 121.116C389.562 125.259 387.723 128.335 384.305 130.651C383.585 129.521 383.201 128.587 383.005 128.11C380.139 129.594 377.745 130.817 375.369 132.071C373.771 132.914 371.299 133.435 370.769 134.734C368.499 140.301 363.789 140.575 359 141.001Z" fill="white"/>
<path d="M362.754 235.565C356.722 248.703 348.487 259.012 334.331 263.258C325.119 266.021 316.368 265.425 308.184 260.041C305.186 258.069 303.972 255.545 305.976 252.202C307.917 248.964 310.336 247 314.46 248.771C328.896 254.971 339.758 248.839 346.939 237.065C348.543 234.435 349.825 231.569 350.941 228.69C353.085 223.161 355.697 221.596 360.613 223.26C364.373 224.532 365.362 227.753 363.587 232.875C363.322 233.64 363.145 234.436 362.754 235.565Z" fill="#0ACF83"/>
<path d="M252.64 6.03852C256.064 5.586 259.175 5.28138 262.701 4.96875C265.713 6.13971 267.185 7.65608 265.095 10.555C262.338 14.3798 260.016 18.5776 256.897 22.0695C251.433 28.1852 245.633 34.0197 239.715 39.7025C236.852 42.452 233.128 41.5333 230.857 39.0525C228.363 36.3283 228.616 33.0329 231.476 29.9047C238.579 22.1382 245.395 14.1097 252.64 6.03852Z" fill="#0ACF83"/>
<path d="M253 52.0004C250.709 54.7368 248.563 57.6136 246.079 60.1618C244.343 61.9422 241.542 64.9715 240.26 64.5147C234.292 62.3882 228.722 65.6476 223.057 64.8586C221.308 64.6151 219.76 62.9302 218.06 61.5362C221.976 61.1116 226.049 60.48 229.911 61.1188C238.294 62.5054 243.328 58.3881 247.549 51.9861C251.299 46.2991 255.353 40.8124 259.771 35.3906C260.18 37.3628 260.09 39.1816 259.735 41.2309C257.313 44.9744 255.157 48.4874 253 52.0004Z" fill="white"/>
<path d="M271.118 209.414C276.214 207.447 279.756 208.933 282.866 213.095C284.301 215.015 286.976 215.971 288.968 217.519C293.655 221.162 297.831 225.812 303.047 228.321C307.614 230.517 310.954 233.339 313.896 237.52C309.731 236.12 304.943 235.137 301.29 232.551C291.036 225.292 281.25 217.373 271.118 209.414Z" fill="white"/>
<path d="M338.902 213.537C337.649 212.599 335.469 211.221 335.435 209.792C335.097 195.446 335.019 181.091 335.076 166.74C335.098 161.296 336.924 159.581 341.757 159.925C341.033 163.108 339.203 166.091 339.138 169.112C338.822 183.76 338.981 198.418 338.902 213.537Z" fill="white"/>
<path d="M358.864 141.307C363.789 140.574 368.499 140.301 370.77 134.733C371.299 133.435 373.771 132.913 375.369 132.07C377.745 130.816 380.139 129.594 383.005 128.109C383.201 128.586 383.585 129.52 383.988 130.807C374.15 138.067 364.302 144.987 354.431 151.875C351.907 153.636 349.313 155.297 346.397 157.06C349.451 152.716 352.836 148.299 356.286 143.933C356.975 143.061 357.908 142.381 358.864 141.307Z" fill="white"/>
<path d="M533.927 157.601C533.445 158.684 532.826 160 532.107 160.056C526.826 160.474 521.526 160.655 516.23 160.879C512.967 161.018 509.519 160.464 506.469 161.33C497.123 163.982 492.103 157.94 486.961 152.166C486.349 151.479 487.162 149.522 487.591 147.871C490.407 150.368 493.005 153.098 495.475 155.939C499.262 160.295 504.099 159.124 508.805 158.584C515.939 157.765 523.057 156.793 530.201 156.074C531.33 155.961 532.56 156.834 533.927 157.601Z" fill="white"/>
<path d="M319.067 54.5557C318.05 53.8427 316.775 52.8589 315.966 51.5802C314.572 49.3757 313.254 47.0725 312.3 44.6545C311.201 41.8689 310.561 38.905 309.67 36.0345C308.324 31.699 307.191 27.2658 305.396 23.1219C304.896 21.97 302.378 21.6928 300.393 20.6745C300 19.8902 300 19.4458 300.349 18.9598C301.798 17.6681 302.898 16.418 303.999 15.168C312.191 22.4335 312.455 33.1847 315.918 42.5115C317.309 46.259 318.006 50.2643 319.067 54.5557Z" fill="white"/>
<path d="M236.435 209.065C236.197 203.337 241.311 203.081 244.897 201.896C250.394 200.08 256.192 199.049 261.939 198.199C263.619 197.95 265.843 199.084 267.308 200.233C269.309 201.802 269.05 203.672 266.206 204.933C261.932 202.32 258.123 201.491 253.305 203.718C248.107 206.12 242.344 207.302 236.435 209.065Z" fill="white"/>
<path d="M260 40.9992C260.09 39.1804 260.18 37.3616 260.083 35.2453C260.713 33.6871 261.53 32.4263 262.919 31.192C268.957 30.2122 271.597 25.9765 269.888 20.955C270.171 20.5858 270.455 20.2167 271.354 19.8398C273.647 20.2211 275.323 20.6102 277.082 21.2689C277.443 22.0255 277.722 22.5124 277.895 23.3242C273.526 29.4326 269.263 35.2159 264.731 41.1192C263.975 41.8258 263.488 42.4125 262.983 43.3487C262.311 44.7985 261.655 45.8989 260.86 46.6457C260.48 44.5279 260.24 42.7636 260 40.9992Z" fill="white"/>
<path d="M341.839 81.5592C339.5 83.9558 332.933 83.5926 329.276 80.1522C325.305 76.4172 321.841 72.0147 318.858 67.445C318.063 66.2263 319.836 63.3307 320.774 61.082C321.933 63.3409 323.116 65.666 323.495 68.1154C324.623 75.3959 329.828 78.1312 335.992 79.9223C337.845 80.4608 339.754 80.8046 341.839 81.5592Z" fill="white"/>
<path d="M181.934 202.418C183.23 202.583 185.096 202.737 185.834 203.729C190.789 210.394 196.698 215.494 205.175 216.97C205.472 217.021 205.646 217.781 205.939 218.522C194.239 219.45 185.065 213.324 181.934 202.418Z" fill="white"/>
<path d="M210.435 218.066C210.474 216.578 210.52 214.752 211.414 213.562C213.579 210.682 229.052 208.017 232.786 209.857C225.68 212.706 218.253 215.361 210.435 218.066Z" fill="white"/>
<path d="M277 20.9992C275.323 20.6102 273.647 20.2211 271.554 19.7059C274.4 13.2616 279.966 10.6504 286.7 10.0259C288.485 9.86039 290.3 10.0185 292.424 10.4158C290.497 12.5354 288.249 14.2673 285.667 15.9992C284.889 15.9992 284.445 15.9992 283.651 16.016C282.201 16.6883 281.1 17.3438 280 18.2492C280 18.4992 280 18.9992 279.702 19.0813C278.602 19.7754 277.801 20.3873 277 20.9992Z" fill="white"/>
<path d="M280 18.9998C280 18.9998 280 18.4998 280.349 18.233C281.799 17.3107 282.9 16.6552 284 15.9998C284.444 15.9998 284.889 15.9998 286.074 15.9074C290.015 14.589 293.216 13.3628 296.417 12.1367C296.417 12.1367 296.166 12.2617 296.137 12.5927C297.405 14.9491 298.702 16.9744 300 18.9998C300 19.4442 300 19.8887 299.641 20.6916C296.855 21.0333 294.427 21.0165 291.711 20.8294C289.948 20.7725 288.474 20.8862 286.824 21.1566C286.418 21.5297 286.202 21.7585 285.625 21.9998C284.5 21.9998 283.75 21.9998 282.75 21.9998C282.5 21.9998 282 21.9998 281.894 21.7159C281.193 20.6213 280.596 19.8106 280 18.9998Z" fill="white"/>
<path d="M390.901 108.624C387.349 109.36 384.202 108.486 383.511 104.751C382.734 100.553 379.929 98.5725 376.802 96.471C375.375 95.5118 374.396 93.8844 373.128 92.2227C381.946 94.1314 388.702 98.7307 390.901 108.624Z" fill="white"/>
<path d="M184.204 118.336C193.67 119.76 199.007 126.441 197.095 134.736C192.714 129.628 188.477 124.151 184.204 118.336Z" fill="white"/>
<path d="M370.62 91.0869C369.611 92.0924 368.234 93.7898 366.829 93.814C360.101 93.9299 355.02 90.4779 350.983 85.2031C357.483 86.9682 363.862 88.988 370.62 91.0869Z" fill="white"/>
<path d="M187.58 60.0968C183.633 63.3102 179.337 66.5651 174.812 69.4645C174.223 69.8425 172.46 68.3912 171.121 67.4764C175.691 63.2112 180.457 59.4274 187.58 60.0968Z" fill="white"/>
<path d="M333.997 228.674C329.767 227.262 328.909 224.909 332.376 221.657C334.323 219.831 336.217 217.947 338.484 216.043C337.276 220.115 335.718 224.233 333.997 228.674Z" fill="white"/>
<path d="M172.952 102.412C178.354 101.57 180.586 105.871 183.125 109.347C183.67 110.093 182.284 112.251 181.477 113.88C178.445 110.255 175.722 106.509 172.952 102.412Z" fill="white"/>
<path d="M194.564 152.157C199.049 152.101 199.83 154.661 197.985 157.566C196.43 160.014 193.766 161.757 191.239 163.886C192.005 160.09 193.125 156.221 194.564 152.157Z" fill="white"/>
<path d="M210.786 60.534C210.986 61.0383 210.97 61.2229 210.874 61.3443C208.449 64.4139 196.433 64.0462 194.098 60.5037C199.511 60.1734 205.022 60.1791 210.786 60.534Z" fill="white"/>
<path d="M528.066 208.576C522.175 206.204 519.723 199.012 523.778 195.145C525.416 199.426 526.717 203.81 528.066 208.576Z" fill="white"/>
<path d="M269.576 21.1016C271.597 25.9787 268.957 30.2144 263.22 31.0587C265.054 27.6797 267.159 24.4628 269.576 21.1016Z" fill="white"/>
<path d="M188.998 168.336C190.015 170.118 191.388 172.22 191.45 174.36C191.474 175.192 188.54 176.109 186.56 176.994C187.054 174.224 187.942 171.448 188.998 168.336Z" fill="white"/>
<path d="M198.098 139.398C199.069 140.847 200.636 142.695 200.63 144.538C200.627 145.683 198.241 146.82 196.545 147.981C196.787 145.267 197.408 142.531 198.098 139.398Z" fill="white"/>
<path d="M300.349 18.9577C298.702 16.9739 297.405 14.9486 296.087 12.4609C298.48 12.9317 300.893 13.8648 303.652 14.9819C302.898 16.416 301.798 17.666 300.349 18.9577Z" fill="white"/>
<path d="M169.641 69.0352C169.874 72.4666 169.968 76.1296 165.51 77.935C166.553 75.0617 167.939 72.1235 169.641 69.0352Z" fill="white"/>
<path d="M327.383 235.059C326.468 233.846 325.89 232.579 324.808 230.207C327.738 230.457 329.568 230.613 331.752 230.91C330.644 232.369 329.182 233.687 327.383 235.059Z" fill="white"/>
<path d="M296.25 11.8948C293.216 13.362 290.015 14.5881 286.407 15.9066C288.249 14.267 290.497 12.5351 292.873 10.4844C294.027 10.6616 295.055 11.1577 296.25 11.8948Z" fill="white"/>
<path d="M538.61 165.247C534.572 165.541 533.834 163.162 534.962 159.245C535.485 158.932 535.927 158.979 536.822 159.242C537.448 159.648 537.635 159.824 537.833 159.988C538.018 161.624 538.203 163.261 538.61 165.247Z" fill="white"/>
<path d="M168.199 96.3305C171.885 95.8917 174.691 96.6216 173.021 101.737C171.369 100.282 169.8 98.4723 168.199 96.3305Z" fill="white"/>
<path d="M531 233.999C531.516 232.506 532.032 231.014 532.986 229.056C533.986 228.046 534.548 227.499 535.11 226.953C534.638 229.543 534.166 232.133 533.141 234.732C532.059 234.494 531.53 234.247 531 233.999Z" fill="white"/>
<path d="M184.999 180.336C188.158 183.092 186.771 185.176 183.239 186.903C183.533 184.863 184.182 182.767 184.999 180.336Z" fill="white"/>
<path d="M181.098 191.434C184.805 192.928 184.936 195.185 181.483 197.875C181.121 195.956 181.075 193.912 181.098 191.434Z" fill="white"/>
<path d="M316.398 237.901C317.331 234.904 319.162 234.15 321.875 236.818C320.292 237.401 318.545 237.685 316.398 237.901Z" fill="white"/>
<path d="M534.058 221.587C530.761 221.083 529.733 218.934 530.843 215.27C532.004 216.966 533.002 219.092 534.058 221.587Z" fill="white"/>
<path d="M530.711 234.145C531.53 234.247 532.059 234.494 532.819 234.924C531.272 236.06 529.496 237.014 527.359 237.9C528.14 236.652 529.281 235.471 530.711 234.145Z" fill="white"/>
<path d="M485.919 144.595C482.338 146.637 481.304 145.048 481.939 141.203C483.298 142.03 484.546 143.167 485.919 144.595Z" fill="white"/>
<path d="M532 226.999C532.81 226 533.62 225.001 534.774 223.98C535.09 224.476 535.063 224.992 534.642 225.826C533.499 226.429 532.75 226.714 532 226.999Z" fill="white"/>
<path d="M531.086 214.705C530.362 213.842 529.573 212.692 528.945 211.246C529.744 212.106 530.382 213.262 531.086 214.705Z" fill="white"/>
<path d="M389.387 121.059C389.039 120.308 389.036 119.501 389.038 118.29C389.835 117.98 390.628 118.073 392.053 118.242C391.114 119.358 390.423 120.18 389.387 121.059Z" fill="white"/>
<path d="M532.083 227.271C532.75 226.716 533.499 226.431 534.541 226.074C534.833 226.002 534.99 226.473 535.05 226.714C534.548 227.501 533.986 228.048 533.212 228.798C532.722 228.514 532.443 228.028 532.083 227.271Z" fill="white"/>
<path d="M390.237 116.815C390.147 116.176 390.11 115.521 390.058 114.375C390.679 114.363 391.316 114.841 391.503 115.826C390.796 116.451 390.54 116.569 390.284 116.687C390.284 116.687 390.291 116.799 390.237 116.815Z" fill="white"/>
<path d="M537.858 159.736C537.635 159.824 537.449 159.648 537.149 159.313C537.31 159.273 537.596 159.378 537.858 159.736Z" fill="white"/>
<path d="M390.543 116.811C390.54 116.571 390.796 116.453 391.443 116.172C391.49 116.316 391.146 116.624 390.543 116.811Z" fill="white"/>
<path d="M355.154 136.118C360.785 131.675 366.548 127.193 372.627 123.19C376.145 120.873 379.097 118.12 378.772 113.958C378.406 109.277 375.281 106.373 370.527 104.941C358.748 101.391 347.069 97.506 335.155 93.4368C336.612 92.5968 338.475 91.3059 339.879 91.6911C345.256 93.1662 350.462 95.2482 355.778 96.9613C358.126 97.7182 360.673 97.8993 362.969 98.7681C365.591 99.7602 367.985 101.338 370.568 102.451C372.497 103.281 374.53 104.007 376.588 104.371C380.466 105.056 382.683 106.832 383.368 111.026C384.629 118.751 381.39 124.691 374.159 128.117C371.279 129.482 369.113 132.277 366.391 134.069C364.026 135.627 361.334 136.69 358.393 137.987C357.14 137.428 356.28 136.853 355.154 136.118Z" fill="white"/>
<path d="M288.934 207.199C295.979 212.065 302.988 217.144 309.812 222.46C312.958 224.911 316.065 226.013 319.762 224.059C323.463 222.102 325.339 219.062 325.098 214.4C328.546 216.725 329.553 220.912 327.534 223.845C324.051 228.904 320.628 230.223 316.679 228.04C316.123 227.732 315.38 227.104 314.983 227.264C309.071 229.649 306.105 225.159 302.413 222.124C298.66 219.039 294.488 216.438 290.922 213.164C289.603 211.953 289.487 209.433 288.934 207.199Z" fill="white"/>
<path d="M177.858 88.2031C186.757 99.757 195.466 111.625 204.188 123.482C204.672 124.141 205.27 124.715 205.962 125.641C204.355 127.624 203.087 127.995 201.516 125.4C199.807 122.577 197.357 120.208 195.289 117.594C194.588 116.709 194.17 115.595 193.448 114.733C189.932 110.53 186.796 105.862 182.681 102.347C178.26 98.5708 175.556 92.9281 177.858 88.2031Z" fill="white"/>
<path d="M208.779 150.977C204.028 165.491 199.009 179.87 193.912 194.625C193.126 193.593 191.5 191.877 191.852 190.821C195.98 178.433 200.334 166.119 204.856 153.869C205.33 152.585 207.258 151.838 208.779 150.977Z" fill="white"/>
<path d="M325.479 180.882C325.166 175.57 324.505 170.038 325.321 164.733C326.529 156.881 331.007 150.824 338.535 146.984C342.824 148.531 342.469 151.097 339.255 152.398C335.169 154.052 333.085 157.083 332.302 160.742C331.178 165.987 325.961 170.13 328.277 176.394C328.651 177.406 326.678 179.285 325.479 180.882Z" fill="white"/>
<path d="M254.194 190.166C260.702 187.473 266.6 189.462 272.003 193.524C276.653 197.02 281.18 200.68 285.902 204.575C282.221 204.042 277.901 204.058 274.683 202.182C267.946 198.254 262.437 192.236 254.194 190.166Z" fill="white"/>
<path d="M260.424 56.8553C257.193 60.8249 253.961 64.7944 250.425 68.9008C245.554 67.9738 245.937 66.0893 248.673 62.9673C251.095 60.2025 252.811 56.8177 255.259 53.2166C257.119 52.4844 258.56 52.2423 260.013 52.4863C260.159 54.2668 260.291 55.561 260.424 56.8553Z" fill="white"/>
<path d="M228.856 74.4936C219.976 74.8775 210.952 74.9235 201.464 74.9005C203.032 73.6901 205.026 71.6646 207.104 71.575C213.057 71.3181 219.052 71.7351 225.012 72.1539C226.286 72.2434 227.481 73.459 228.856 74.4936Z" fill="white"/>
<path d="M223.188 200.166C229.383 197.609 235.809 195.33 242.618 193.109C239.264 199.644 229.434 203.297 223.188 200.166Z" fill="white"/>
<path d="M193.523 198.121C195.726 202.634 198.776 205.565 204.59 205.098C203.657 206.239 202.373 208.128 200.959 208.23C196.85 208.529 193.64 206.272 191.873 202.684C191.373 201.669 192.715 199.747 193.523 198.121Z" fill="white"/>
<path d="M246.737 70.9397C243.762 74.8631 239.372 75.1148 234.429 74.9024C234.032 71.7811 235.311 70.2892 238.611 70.6402C241.193 70.9147 243.822 70.7411 246.737 70.9397Z" fill="white"/>
<path d="M260 52C258.56 52.2421 257.119 52.4842 255.34 52.8632C254.5 52.7497 254 52.4993 253.25 52.1245C255.157 48.487 257.313 44.974 259.735 41.2305C260.24 42.7643 260.48 44.5287 260.723 46.986C260.484 49.1193 260.242 50.5597 260 52Z" fill="white"/>
<path d="M211.169 204.145C214.062 202.684 217.166 201.482 220.636 200.223C220.017 205.103 216.994 206.434 211.169 204.145Z" fill="white"/>
<path d="M211.448 137.031C211.48 140.454 211.126 144.043 210.444 147.836C208.824 144.286 207.672 140.543 211.448 137.031Z" fill="white"/>
<path d="M342.252 145.073C344.176 143.24 346.396 141.593 348.878 139.762C350.551 143.805 348.282 145.76 342.252 145.073Z" fill="white"/>
<path d="M246.047 192.504C247.759 191.459 249.517 190.752 251.638 190.105C251.004 191.926 250.008 193.686 249.011 195.446C248.038 194.578 247.066 193.709 246.047 192.504Z" fill="white"/>
<path d="M325.473 190.901C325.121 188.956 325.075 186.912 325.098 184.434C329.439 186.866 329.523 187.796 325.473 190.901Z" fill="white"/>
<path d="M178.836 76.8837C178.78 77.8317 178.448 78.6163 177.975 79.7009C176.742 78.9646 175.651 77.9283 174.559 76.892C175.893 76.8347 177.227 76.7775 178.836 76.8837Z" fill="white"/>
<path d="M325.453 202.798C325.121 200.628 325.075 198.255 325.098 195.441C327.834 197.345 327.494 199.916 325.453 202.798Z" fill="white"/>
<path d="M207.927 129.254C208.748 130.387 209.383 131.818 210.067 133.603C207.329 133.564 206.623 132.049 207.927 129.254Z" fill="white"/>
<path d="M176.901 84.0586C177.399 84.4411 177.68 84.9205 177.898 85.7009C177.45 85.3864 177.067 84.7709 176.901 84.0586Z" fill="white"/>
<path d="M333.983 92.4665C321.179 91.4526 311.856 82.5933 309.903 68.4023C311.461 69.1522 314.182 70.0435 314.529 71.4999C316.235 78.669 321.604 82.1793 327.194 85.7332C329.816 87.4001 333.865 87.7013 333.983 92.4665Z" fill="white"/>
<path d="M307.196 57.8538C304.582 50.6364 302.283 43.2332 300.217 35.3473C300.967 34.5764 301.483 34.2882 302 34C303.425 35.8688 306.267 37.966 306.01 39.5634C305.25 44.2759 307.237 48.0548 308.394 52.2091C308.844 53.8213 307.847 55.8364 307.196 57.8538Z" fill="white"/>
<path d="M297.885 28.0422C297.611 27.8684 297.337 27.6947 297.15 27.0175C298.35 22.668 296.139 23.3316 293.89 24.046C293.326 23.9149 292.763 23.7838 292.087 23.0313C291.982 21.94 291.991 21.47 292 21C294.428 21.0167 296.855 21.0335 299.641 21.0251C300.743 23.4873 301.485 25.9747 301.786 28.5969C300.191 28.502 299.038 28.2721 297.885 28.0422Z" fill="white"/>
<path d="M297.934 28.4226C299.038 28.2705 300.191 28.5003 301.672 28.8643C302 30.3873 302 31.7762 302 33.5817C301.484 34.2866 300.967 34.5748 300.167 34.9504C299.249 32.9601 298.616 30.8824 297.934 28.4226Z" fill="white"/>
<path d="M309.416 65.9913C308.772 65.0372 308.376 63.8605 307.933 62.3633C308.479 63.2847 309.072 64.5266 309.416 65.9913Z" fill="white"/>
<path d="M260 52C260.242 50.5597 260.484 49.1194 260.863 47.3395C261.655 45.8996 262.311 44.7993 263.252 43.2295C264.025 42.1734 264.512 41.5867 265 41C269.263 35.2167 273.526 29.4334 278.214 23.1923C279.759 22.4896 280.88 22.2448 282 22C282 22 282.5 22 282.875 22.2669C283.515 23.0597 283.78 23.5855 284.045 24.1114C278.069 32.2485 272.097 40.3887 266.113 48.5196C265.151 49.8265 264.132 51.0917 262.694 52.6153C261.499 52.5696 260.75 52.2848 260 52Z" fill="white"/>
<path d="M281.895 21.7161C280.88 22.2447 279.759 22.4896 278.319 22.8672C277.722 22.5131 277.443 22.0262 277.083 21.2696C277.801 20.388 278.602 19.7761 279.702 19.082C280.596 19.8107 281.193 20.6215 281.895 21.7161Z" fill="white"/>
<path d="M264.731 41.1211C264.512 41.5878 264.025 42.1745 263.269 42.8811C263.488 42.4144 263.975 41.8278 264.731 41.1211Z" fill="white"/>
<path d="M283.651 16.0156C282.9 16.6543 281.799 17.3097 280.35 17.982C281.1 17.3434 282.201 16.6879 283.651 16.0156Z" fill="white"/>
<path d="M291.711 20.8315C291.991 21.4719 291.982 21.9419 291.966 22.7643C290.899 23.0689 289.841 23.0211 288.306 22.6548C287.553 21.8916 287.277 21.4468 287 21.0019C288.474 20.8883 289.948 20.7747 291.711 20.8315Z" fill="white"/>
<path d="M286.824 21.1562C287.277 21.4442 287.553 21.889 287.914 22.5832C287.528 23.168 287.056 23.5033 286.293 23.5301C286 22.8142 286 22.4068 286 21.9994C286.202 21.7581 286.418 21.5293 286.824 21.1562Z" fill="white"/>
<path d="M285.625 22C286 22.4074 286 22.8148 286 23.5278C285.566 23.8937 285.132 23.954 284.371 24.0628C283.78 23.5855 283.514 23.0597 283.125 22.2669C283.75 22 284.5 22 285.625 22Z" fill="white"/>
<path d="M294.012 24.3322C296.138 23.3327 298.35 22.6691 297.065 26.7828C295.973 26.2394 295.054 25.4283 294.012 24.3322Z" fill="white"/>
<path d="M260.013 52.4848C260.75 52.2834 261.499 52.5682 262.541 52.9253C262.19 54.121 261.546 55.2445 260.663 56.6109C260.291 55.5595 260.159 54.2652 260.013 52.4848Z" fill="white"/>
</g>
<defs>
<clipPath id="clip0_1586_3595">
<rect width="550" height="493" fill="white"/>
</clipPath>
</defs>
</svg>
