<svg width="534" height="550" viewBox="0 0 534 550" fill="none" xmlns="http://www.w3.org/2000/svg">
<g clip-path="url(#clip0_1586_3687)">
<path d="M362 80.1684C368.859 78.3874 372.771 83.704 377.25 86.9657C384.795 92.4606 391.463 99.2124 399.237 104.313C402.317 106.333 407.535 106.286 411.483 105.563C422.391 103.565 428.254 106.364 433.565 115.924C441.313 129.874 443.297 144.93 444.099 160.499C444.996 177.924 446.67 195.309 447.969 212.714C448.374 218.142 448.705 223.578 448.988 229.015C449.685 242.38 450.253 255.753 451.023 269.114C451.934 284.921 452.989 300.719 454.01 316.519C454.988 331.656 456.014 346.789 456.999 361.925C458.015 377.559 458.985 393.196 460.018 408.829C460.637 418.199 461.485 427.557 461.97 436.934C463.069 458.23 463.852 479.543 465.073 500.831C465.712 511.983 466.977 523.101 468.009 534.231C468.694 541.624 466.044 547.205 459.666 550.834C418.979 551.002 377.958 551.002 336.469 551.002C335.078 550.336 334.181 549.132 333.23 549.087C323.137 548.619 313.034 548.379 302.936 547.992C286.402 547.359 269.862 546.822 253.34 545.946C238.86 545.178 224.397 544.063 209.935 542.983C193.029 541.72 176.123 540.432 159.234 538.96C145.824 537.791 132.447 536.236 119.038 535.05C114.936 534.687 106.968 527.53 106.949 522.802C106.939 520.371 106.086 517.945 106.075 515.514C106.064 513.266 106.668 511.015 107.138 507.834C99.4729 507.213 92.0134 506.411 84.5326 506.043C69.7744 505.316 68.2286 501.733 65.9766 489.289C63.5381 475.814 60.8368 462.386 58.4925 448.895C57.3727 442.451 56.8403 435.906 55.9931 429.413C54.9556 421.461 53.9375 413.507 52.7831 405.572C51.2542 395.064 49.5304 384.584 48.0204 374.073C46.2994 362.093 44.6037 350.107 43.1181 338.096C41.9094 328.324 41.0904 318.504 39.983 308.718C38.7489 297.812 37.3151 286.929 36.1004 276.021C35.2819 268.671 34.7545 261.29 33.9861 253.934C32.7424 242.028 31.3599 230.136 30.1286 218.229C29.3337 210.542 28.6369 202.844 28.014 195.142C26.6475 178.245 25.0278 161.359 24.1677 144.435C23.7156 135.54 24.8088 126.578 24.9019 117.643C24.9795 110.194 25.4126 102.938 28.8731 96.088C30.5442 92.7799 32.406 91.1309 36.4499 90.8643C51.0521 89.9019 65.6172 88.3754 80.1966 87.0663C80.6936 87.0217 81.1948 87.0205 81.6942 87.0056C92.9599 86.6705 104.224 86.1078 115.492 86.0394C182.91 85.6302 250.329 85.3642 317.747 84.9623C325.682 84.915 333.622 84.4513 341.542 83.9182C343.777 83.7677 345.949 82.6851 348.415 82.3838C347.996 84.2491 347.313 85.7606 346.629 87.2722C347.767 87.6259 349.304 88.6356 349.977 88.2259C354.094 85.7188 358.014 82.89 362 80.1684ZM139.303 87.0725C170.509 87.0725 201.715 87.0725 234.099 87.0725C232.633 86.3403 232.344 86.07 232.056 86.0696C201.626 86.0356 171.196 86.0115 140.766 86.0673C140.019 86.0686 139.272 86.9697 137.503 87.082C126.102 87.082 114.7 87.082 103.299 87.082C103.303 87.1915 103.308 87.301 103.313 87.4105C115.038 87.4105 126.762 87.4105 139.303 87.0725ZM393.303 533.072C411.453 533.072 429.602 533.072 447.751 533.072C447.751 533.413 447.751 533.753 447.751 534.093C431.544 534.093 415.336 534.093 399.129 534.093C399.133 534.29 399.137 534.486 399.141 534.683C416.032 534.683 432.922 534.683 450.008 534.683C449.631 532.588 449.148 530.848 449.028 529.084C447.985 513.616 446.995 498.144 446.011 482.672C444.995 466.702 443.939 450.734 443.022 434.758C442.255 421.394 441.681 408.02 440.989 394.651C440.698 389.048 440.396 383.443 439.973 377.848C438.682 360.773 437.233 343.708 436.043 326.626C435.468 318.375 435.373 310.091 434.984 301.826C434.712 296.055 434.377 290.284 433.951 284.523C432.665 267.114 431.305 249.711 430.007 232.303C429.308 222.936 428.608 213.568 428.03 204.194C426.973 187.06 426.494 169.872 424.805 152.802C423.885 143.497 421.03 134.374 418.861 125.213C418.677 124.434 417.031 123.408 416.144 123.48C407.317 124.2 398.52 125.298 389.689 125.956C374.395 127.095 359.09 128.109 343.777 128.968C329.249 129.783 314.711 130.472 300.169 130.961C285.073 131.468 269.967 131.944 254.866 131.928C237.598 131.91 220.328 131.421 203.063 130.981C180.358 130.401 157.66 129.306 134.953 129.109C113.449 128.922 91.9365 129.608 70.2976 129.913C70.0642 132.923 69.9432 134.482 69.8223 136.041C69.6651 136.051 69.5079 136.061 69.3506 136.071C69.0953 134.756 68.84 133.44 68.5846 132.125C68.1254 132.246 67.6662 132.367 67.207 132.488C68.4675 137.025 70.5393 141.514 70.8175 146.111C71.3762 155.344 72.6788 164.295 74.6007 173.39C76.4423 182.104 76.2837 191.187 78.6808 200.096C81.0802 209.014 80.8566 218.619 82.0321 227.891C83.6166 240.39 85.3592 252.871 87.1831 265.338C89.0276 277.946 91.1151 290.519 92.9831 303.124C94.7577 315.099 96.3077 327.108 98.0986 339.081C100.322 353.946 102.775 368.776 104.974 383.644C107.105 398.047 108.928 412.496 111.095 426.893C113.258 441.266 115.819 455.58 117.95 469.958C120.132 484.685 121.957 499.466 124.117 514.197C124.27 515.237 125.811 516.752 126.847 516.876C134.189 517.756 141.567 518.341 148.936 518.998C160.237 520.004 171.533 521.082 182.844 521.967C200.91 523.382 218.981 524.72 237.058 525.979C248.253 526.759 259.461 527.362 270.666 527.99C283.201 528.693 295.733 529.498 308.277 529.957C322.538 530.479 336.812 530.629 351.077 531.061C352.573 531.106 354.043 531.968 354.503 532.082C346.433 532.082 338.363 532.082 330.293 532.082C330.3 532.191 330.307 532.301 330.314 532.411C338.705 532.411 347.096 532.411 356.303 532.073C366.905 532.049 377.507 531.969 388.108 532.067C389.585 532.081 391.053 532.968 391.504 533.082C381.101 533.082 370.699 533.082 360.297 533.082C360.302 533.191 360.307 533.301 360.313 533.41C371.038 533.41 381.762 533.41 393.303 533.072ZM287.5 86.0018C274.453 86.0018 261.406 86.0018 248.359 86.0018C248.363 86.2403 248.367 86.4787 248.371 86.7172C272.859 86.7172 297.347 86.7172 321.835 86.7172C321.837 86.4787 321.838 86.2402 321.839 86.0017C310.726 86.0017 299.613 86.0017 287.5 86.0018Z" fill="white"/>
<path d="M535 76.5832C534.791 76.8024 534.583 76.6051 534.374 76.4077C529.724 84.178 520.682 84.1639 513.836 88.0417C510.569 89.8923 507.315 91.8807 504.421 94.253C498.011 99.5079 494.47 107.011 490.218 113.856C487.778 117.785 487.044 122.737 484.931 126.921C483.749 129.262 481.166 132.712 479.49 132.563C476.959 132.338 473.723 129.91 472.452 127.529C468.487 120.097 466.133 111.698 461.531 104.748C458.33 99.9131 452.882 96.0882 447.675 93.1715C440.309 89.0448 432.157 86.3432 424.54 82.625C422.929 81.8387 420.811 78.4461 421.268 77.7097C423.056 74.8339 425.383 71.8645 428.245 70.1779C433.821 66.8926 440.322 65.0899 445.659 61.5097C454.5 55.579 461.571 47.8997 465.296 37.4729C466.665 33.6411 469.101 30.4201 469.469 25.939C469.646 23.7901 473.931 20.3383 476.23 20.4356C478.873 20.5475 482.217 23.4251 483.775 25.9983C487.627 32.3583 489.938 39.7195 494.181 45.7548C498.172 51.4307 503.708 56.0722 508.866 60.8417C510.271 62.1405 512.863 62.0576 514.745 62.9552C521.377 66.1184 527.937 69.4322 534.762 72.3444C535 73.3887 535 74.7776 535 76.5832Z" fill="#0ACF83"/>
<path d="M1 206.469C2.49336 205.011 3.86207 203.573 5.50348 203.117C10.3991 201.759 15.7491 205.879 15.9957 210.945C16.6781 224.963 17.0008 239.008 18.0884 252.994C19.3728 269.511 21.1969 285.989 22.9984 302.461C24.5112 316.292 26.0358 330.134 28.0906 343.891C30.1855 357.916 32.8358 371.861 35.4474 385.803C36.4135 390.961 33.836 395.341 28.3059 396.862C24.5552 397.893 20.9455 395.206 19.9911 390.001C17.1994 374.779 14.4565 359.542 12.047 344.255C9.80773 330.049 7.84788 315.792 6.10197 301.517C5.06466 293.035 4.77593 284.464 3.96583 275.951C3.41453 270.158 2.5432 264.395 1.40749 258.809C1 241.646 1 224.292 1 206.469Z" fill="#0ACF83"/>
<path d="M426.583 1C428.597 10.6562 432.863 17.9317 443.299 20.2452C444.744 20.5656 447.047 23.4716 446.757 24.0191C445.649 26.114 443.9 28.8933 441.929 29.3286C434.025 31.074 431.197 36.4486 429.571 43.5344C429.172 45.2749 426.587 46.5142 425.007 47.9839C423.821 46.6291 422.448 45.3925 421.496 43.8897C420.293 41.9931 419.252 39.9473 418.466 37.8444C417.106 34.207 413.289 33.9645 410.767 31.9549C410.156 31.4684 409.142 31.4737 408.56 30.9686C406.325 29.027 404.189 26.97 402.017 24.956C404.068 23.4251 405.941 21.522 408.206 20.4352C414.229 17.5452 417.797 12.775 420.019 6.68336C420.681 4.87007 421.789 3.21954 422.346 1.24722C423.389 1 424.778 1 426.583 1Z" fill="#0ACF83"/>
<path d="M477.039 417.984C476.692 404.06 476.4 390.135 475.972 376.215C475.799 370.613 476.476 364.63 474.74 359.508C471.602 350.245 473.893 340.997 472.997 331.81C471.689 318.405 470.346 305.004 469.054 291.599C468.644 287.345 468.437 283.07 467.978 278.822C467.46 274.02 471.098 273.568 474.201 273.086C478.791 272.374 482.722 274.783 482.971 278.126C483.707 287.981 484.222 297.853 485.027 307.702C486.257 322.769 487.704 337.818 488.963 352.883C489.444 358.635 489.781 364.404 489.979 370.172C490.7 391.19 491.515 412.206 491.956 433.23C492.485 458.474 492.735 483.724 492.951 508.972C493.004 515.221 486.58 518.845 481.302 515.49C479.923 514.614 479.117 511.87 479.098 509.973C478.93 493.322 479.171 476.666 478.947 460.016C478.76 446.105 478.11 432.199 477.314 418.106C476.962 417.921 477.039 417.984 477.039 417.984Z" fill="#0ACF83"/>
<path d="M475.553 418.527C475.786 418.396 476.02 418.265 476.646 418.058C477.039 417.982 476.962 417.919 476.927 417.879C476.893 448.864 476.893 479.89 476.893 510.916C477.025 510.918 477.157 510.92 477.289 510.922C476.836 480.383 476.382 449.844 475.758 418.896C475.586 418.487 475.553 418.527 475.553 418.527Z" fill="white"/>
<path d="M495 446.157C495 468.062 495 489.491 495 510.92C494.751 510.919 494.503 510.918 494.254 510.917C494.254 487.033 494.254 463.148 494.254 439.264C494.503 439.253 494.751 439.242 495 439.23C495 441.381 495 443.531 495 446.157Z" fill="white"/>
<path d="M361.586 80.0977C358.014 82.8866 354.094 85.7154 349.977 88.2225C349.304 88.6322 347.767 87.6224 346.629 87.2688C347.313 85.7572 347.996 84.2456 348.84 82.4495C353.056 81.4535 357.114 80.7419 361.586 80.0977Z" fill="white"/>
<path d="M494 416.105C494 421.359 494 426.132 494 430.906C493.754 430.904 493.508 430.902 493.262 430.9C493.262 423.364 493.262 415.827 493.262 408.291C493.508 408.272 493.754 408.253 494 408.234C494 410.698 494 413.161 494 416.105Z" fill="white"/>
<path d="M475.59 418.487C475.594 410.43 475.594 402.372 475.594 394.314C475.702 394.307 475.811 394.3 475.92 394.293C475.92 402.03 475.92 409.767 475.736 418.015C475.553 418.527 475.586 418.487 475.59 418.487Z" fill="white"/>
<path d="M138.525 87.4483C139.272 86.9669 140.018 86.0658 140.766 86.0645C171.196 86.0087 201.626 86.0328 232.055 86.0668C232.344 86.0672 232.633 86.3375 234.099 87.0697C201.715 87.0697 170.509 87.0697 138.894 87.2427C138.484 87.4156 138.525 87.4483 138.525 87.4483Z" fill="white"/>
<path d="M288 86C299.613 86 310.726 86 321.839 86C321.838 86.2385 321.836 86.477 321.835 86.7155C297.347 86.7155 272.859 86.7155 248.371 86.7155C248.367 86.477 248.363 86.2385 248.359 86C261.406 86 274.453 86 288 86Z" fill="white"/>
<path d="M138.486 87.4145C126.762 87.4105 115.037 87.4105 103.313 87.4105C103.308 87.301 103.303 87.1915 103.298 87.082C114.7 87.082 126.102 87.082 138.014 87.2666C138.525 87.4511 138.484 87.4184 138.486 87.4145Z" fill="white"/>
<path d="M392.486 533.414C381.762 533.41 371.038 533.41 360.313 533.41C360.308 533.301 360.302 533.192 360.297 533.082C370.699 533.082 381.101 533.082 392.015 533.267C392.526 533.451 392.485 533.418 392.486 533.414Z" fill="white"/>
<path d="M355.486 532.415C347.096 532.411 338.705 532.411 330.314 532.411C330.307 532.301 330.3 532.192 330.292 532.082C338.363 532.082 346.433 532.082 355.014 532.267C355.525 532.451 355.484 532.419 355.486 532.415Z" fill="white"/>
<path d="M258.27 420.992C276.806 422.328 294.868 423.662 312.931 424.986C317.695 425.335 322.459 425.7 327.227 425.984C338.922 426.679 350.626 427.238 362.315 428.027C375.618 428.924 388.931 429.785 402.195 431.108C409.403 431.826 411.566 438.215 409.058 443.721C406.096 450.226 404.78 450.518 397.213 449.225C392.363 448.397 387.377 448.318 382.446 448.019C370.752 447.309 359.049 446.744 347.358 445.981C333.223 445.058 319.095 444.017 304.968 442.981C291.835 442.019 278.709 440.97 265.576 440.006C247.015 438.644 228.448 437.379 209.892 435.964C201.043 435.289 192.213 434.363 183.304 433.136C186.169 433.136 189.034 433.136 191.9 433.136C191.882 432.724 191.864 432.313 191.846 431.901C184.27 432.318 176.695 432.735 169.12 433.152C169.103 432.781 169.086 432.41 169.069 432.039C172.326 432.039 175.584 432.039 178.841 432.039C178.82 431.603 178.798 431.168 178.776 430.732C174.666 431.104 170.451 431.032 166.474 431.973C162.394 432.938 160.322 429.619 158.948 427.827C157.381 425.783 157.481 421.574 158.404 418.826C158.996 417.065 162.431 415.1 164.514 415.182C181.655 415.858 198.778 417.011 215.908 417.979C222.836 418.37 229.778 418.539 236.698 419.036C243.741 419.541 250.765 420.325 258.27 420.992Z" fill="white"/>
<path d="M325 482.165C326.069 482.119 327.138 482.073 328.643 482.427C329.94 484.4 329.681 488.129 333.043 484.884C345.308 485.256 357.589 485.371 369.836 486.073C381.335 486.732 392.857 487.625 404.228 489.346C406.478 489.687 408.847 494.017 409.78 496.947C410.734 499.943 410.372 503.713 406.196 504.989C404.503 505.507 402.675 506.057 400.954 505.936C388.475 505.064 376.01 504.012 363.538 503.045C358.607 502.662 353.672 502.315 348.736 502.014C337.368 501.322 325.993 500.745 314.631 499.98C295.722 498.707 276.819 497.347 257.917 495.977C244.777 495.024 231.637 494.064 218.507 492.979C203.429 491.733 188.365 490.317 173.289 489.048C170.806 488.839 168.292 489.007 165.792 488.998C161.186 488.981 156.688 484.383 157.06 480.072C157.452 475.533 163.091 471.424 167.792 472.014C173.97 472.788 180.161 473.53 186.369 473.958C198.062 474.764 209.778 475.227 221.471 476.029C239.549 477.268 257.617 478.65 275.686 480.014C288.492 480.982 301.292 482.02 314.654 483.414C318.765 488.528 319.575 488.591 323.094 484.42C323.729 483.668 324.365 482.917 325 482.165Z" fill="white"/>
<path d="M279.88 315.999C261.665 314.67 243.93 313.301 226.187 312.029C215.658 311.273 205.105 310.82 194.585 309.963C179.841 308.761 165.109 307.395 150.39 305.908C146.338 305.498 142.58 299.197 143.005 294.3C143.41 289.65 145.688 287.684 151.733 288.071C163.384 288.816 175.004 290.051 186.647 290.953C196.674 291.729 206.722 292.244 216.749 293.017C232.993 294.27 249.226 295.659 265.467 296.947C270.729 297.365 275.999 297.716 281.27 297.974C289.369 298.372 297.475 298.614 305.573 299.01C318.445 299.64 331.322 300.2 344.178 301.077C350.415 301.503 353.97 305.801 354.032 311.686C354.084 316.558 350.19 319.539 347.06 319.664C337.698 320.039 328.278 318.962 318.881 318.427C318.237 318.39 317.608 318.061 316.964 318.025C304.762 317.335 292.559 316.669 279.88 315.999Z" fill="white"/>
<path d="M344.262 184.224C350.943 171.836 357.085 159.558 363.891 147.659C368.132 140.245 373.696 138.003 379.151 145.048C380.754 147.119 380.749 151.745 379.605 154.387C376.239 162.158 371.977 169.546 367.981 177.038C361.309 189.544 354.654 202.061 347.822 214.48C344.825 219.927 341.52 225.214 338.157 230.445C333.59 237.549 327.144 237.634 322.264 230.812C322.072 230.543 321.83 230.307 321.595 230.072C315.995 224.47 310.224 219.026 304.864 213.203C302.269 210.385 299.901 207.09 298.41 203.593C296.584 199.312 299.703 195.862 302.549 193.349C306.547 189.818 310.189 193.133 312.992 195.67C317.137 199.422 320.665 203.853 324.489 207.964C325.495 209.044 326.625 210.009 328.368 211.662C333.704 202.391 338.854 193.443 344.262 184.224Z" fill="#0ACF83"/>
<path d="M188.999 355.165C190.716 355.119 192.433 355.073 194.46 355.374C194.773 357.038 194.343 359.25 194.863 359.502C196.361 360.227 198.488 360.806 199.915 360.259C202.14 359.406 203.991 357.579 206 356.165C215.345 356.781 224.95 356.243 233.972 358.285C247.397 361.322 261.014 361.272 274.499 362.943C281.285 363.784 286.649 371.102 283.727 377.067C281.956 380.683 277.821 381.327 273.836 380.912C264.39 379.931 254.946 378.928 245.494 378.008C231.619 376.659 217.74 375.355 203.858 374.074C199.272 373.651 194.677 373.33 190.082 373.018C179.9 372.326 169.721 371.552 159.53 371.051C154.779 370.817 151.055 369.694 148.883 364.863C146.908 360.471 149.124 357.924 151.927 355.316C152.362 354.911 152.749 354.455 153.95 354.002C158.93 354.834 163.119 355.685 167.573 356.59C167.052 355.455 166.526 354.31 166.001 353.165C167.392 353.119 168.783 353.073 170.701 353.398C172.636 356.091 174.191 356.652 176 354.165C178.044 354.119 180.088 354.073 182.568 354.486C183.968 356.747 184.933 358.549 185.899 360.351C186.932 358.623 187.966 356.894 188.999 355.165Z" fill="white"/>
<path d="M242.906 236.794C245.052 239.989 248.202 242.443 246.081 246.597C243.835 250.996 240.529 252.809 235.381 252.095C221.762 250.205 208.098 248.635 194.438 247.064C189.697 246.519 184.919 246.199 180.149 246.031C168.227 245.609 156.301 245.296 144.375 245.016C138.721 244.884 134.109 241.203 134.033 236.561C133.958 231.975 139.406 225.836 143.974 226.069C159.773 226.876 175.587 227.644 191.339 229.051C204.877 230.26 218.348 232.251 231.826 234.055C235.517 234.549 239.132 235.613 242.906 236.794ZM161.499 228C157.777 228 154.056 228 150.335 228C150.35 228.236 150.366 228.473 150.381 228.709C157.862 228.709 165.343 228.709 172.824 228.709C172.826 228.473 172.828 228.236 172.831 228C169.379 228 165.927 228 161.499 228Z" fill="white"/>
<path d="M205.572 356.098C203.991 357.582 202.14 359.409 199.915 360.261C198.489 360.808 196.361 360.23 194.863 359.504C194.343 359.252 194.773 357.04 194.884 355.445C198.38 355.455 201.762 355.742 205.572 356.098Z" fill="white"/>
<path d="M188.649 354.984C187.966 356.894 186.932 358.623 185.899 360.351C184.934 358.549 183.969 356.747 183.001 354.555C184.766 354.378 186.532 354.591 188.649 354.984Z" fill="white"/>
<path d="M165.57 353.097C166.526 354.31 167.052 355.455 167.573 356.59C163.119 355.685 158.93 354.834 154.313 353.97C155.734 353.364 157.555 352.432 159.441 352.274C161.307 352.119 163.237 352.745 165.57 353.097Z" fill="white"/>
<path d="M324.626 482.1C324.365 482.92 323.729 483.671 323.094 484.423C319.575 488.594 318.765 488.531 315.106 483.486C316.053 483.107 317.106 483.045 318.768 483.075C320.247 482.834 321.116 482.501 321.986 482.168C322.742 482.123 323.497 482.077 324.626 482.1Z" fill="white"/>
<path d="M333.023 484.488C329.681 488.13 329.94 484.4 329.04 482.496C330.334 482.807 331.668 483.45 333.023 484.488Z" fill="white"/>
<path d="M318.001 481.832C314.407 481.832 310.813 481.832 307.219 481.832C307.216 481.564 307.212 481.295 307.209 481.027C310.504 481.027 313.8 481.027 317.548 481.263C318 481.498 318.001 481.832 318.001 481.832Z" fill="white"/>
<path d="M175.631 354.091C174.191 356.655 172.636 356.094 171.114 353.47C172.42 353.45 173.841 353.732 175.631 354.091Z" fill="white"/>
<path d="M318.236 481.936C318.001 481.832 318 481.499 318 481.332C319.096 481.448 320.193 481.73 321.638 482.089C321.117 482.498 320.247 482.831 319.162 483.029C318.789 482.61 318.63 482.326 318.236 481.936Z" fill="white"/>
<path d="M161.987 228C165.927 228 169.379 228 172.831 228C172.828 228.236 172.826 228.473 172.824 228.709C165.343 228.709 157.862 228.709 150.381 228.709C150.366 228.473 150.35 228.237 150.335 228C154.056 228 157.778 228 161.987 228Z" fill="white"/>
</g>
<defs>
<clipPath id="clip0_1586_3687">
<rect width="534" height="550" fill="white"/>
</clipPath>
</defs>
</svg>
