<svg width="606" height="646" viewBox="0 0 606 646" fill="none" xmlns="http://www.w3.org/2000/svg">
<path d="M129.5 551L139 538.5L177 566L166.5 579L129.5 551Z" fill="#E25058"/>
<path d="M88.5 164.56H16C16 162.726 17.1 158.759 21.5 157.56C25.9 156.361 29.3333 158.726 30.5 160.059C31 155.059 34 144.859 42 144.059C50 143.259 53.3333 150.726 54 154.559C55 152.393 57.9 148.059 61.5 148.059C65.1 148.059 68.3333 154.393 69.5 157.56C80.7 155.96 86.8333 161.56 88.5 164.56Z" fill="#D3E9F8"/>
<path d="M244 115.389H330C330 113.213 328.695 108.507 323.476 107.085C318.257 105.663 314.184 108.468 312.8 110.049C312.207 104.118 308.648 92.0195 299.159 91.0706C289.669 90.1216 285.715 98.9786 284.924 103.526C283.738 100.956 280.298 95.8154 276.028 95.8154C271.757 95.8154 267.922 103.329 266.538 107.085C253.252 105.187 245.977 111.83 244 115.389Z" fill="#D3E9F8"/>
<path d="M321.784 266.432L318.664 265.496L319.912 268.512L317 270.8L320.536 271.216L319.392 275.792L323.136 272.568L325.736 275.064V271.216L330 270.8L326.256 268.512L328.96 264.352L324.384 266.432L323.136 263L321.784 266.432Z" fill="#000201"/>
<path d="M195.88 66.24L187.48 63.72L190.84 71.84L183 78L192.52 79.12L189.44 91.44L199.52 82.76L206.52 89.48V79.12L218 78L207.92 71.84L215.2 60.64L202.88 66.24L199.52 57L195.88 66.24Z" fill="#000201"/>
<path d="M254.502 285.499C274.902 278.699 288.335 288.332 292.502 293.999L264 333.5C259.5 333.5 254.502 332.5 249.5 333.5C244.498 334.5 226.5 340 220 341.5C213.5 343 185.5 345 173 343C163 341.4 165.833 334 168.5 330.5C165.667 330.5 159.602 328.8 158.002 322C156.402 315.2 166.002 312.833 171.002 312.5C171.002 306.5 176.002 304 178.502 303.5C178.002 300.5 181.002 295.7 197.002 300.5C217.002 306.5 229.002 293.999 254.502 285.499Z" fill="#DC5559"/>
<path d="M197.999 305.001C194.332 307.501 188.699 313.501 195.499 317.501C202.299 321.501 226.333 318.501 237.5 316.501M170 330.001C174.833 331.834 186.4 335.901 194 337.501C201.6 339.101 220.167 338.834 228.5 338.501M158 320.501C158 317.5 162.9 313 170.5 313M170.5 313C178.1 313 186.833 314.667 190.5 315.501M170.5 313C170.333 310.667 172.6 304.8 177 304C181.4 303.2 190.167 303.667 194 304" stroke="#000201" stroke-width="2" stroke-linecap="round" stroke-linejoin="round"/>
<path d="M52 16.5L37 12L43 26.5L29 37.5L46 39.5L40.5 61.5L58.5 46L71 58V39.5L91.5 37.5L73.5 26.5L86.5 6.5L64.5 16.5L58.5 0L52 16.5Z" fill="#000201"/>
<path d="M187.5 646H0C2.16667 636.833 7.5 615.2 11.5 602C16.5 585.5 25 580 26.5 579.5C28 579 35.5 573.5 59.5 573.5C78.7 573.5 101.833 562.167 111 556.5C112.724 555.166 114.39 554.04 116 553.101C117.023 552.503 118.023 551.981 119 551.529C119.851 551.136 120.684 550.795 121.5 550.504C140.958 543.556 150.642 564.642 151.5 565.5C152.5 566.5 152.5 568 154 567C155.5 566 168.5 560.5 184 572.5C203.6 590.9 194.5 629.167 187.5 646Z" fill="#000201"/>
<path d="M113.001 555.499C103.501 553.166 86.3005 545.299 93.5005 532.499C97.9005 525.299 112.334 542.186 119.001 551.529M116.001 553.1C108.167 547.066 94.6005 532.898 103.001 524.498C111.401 516.098 118.834 538.335 121.501 550.503" stroke="#000201" stroke-width="2" stroke-linecap="round" stroke-linejoin="round"/>
<path d="M287.5 360.499C287.9 357.699 286.667 355.999 286 355.499L269 339.977C245.4 335.96 231.5 346.318 227.5 351.999L111 518.999L187.5 573.999L279 446.999C279.833 445.332 282.3 442.999 285.5 446.999C294.3 456.999 309.167 497.499 315.5 516.499C269.5 538.499 236.5 564.999 232 590.499C227.5 615.999 241.5 627.999 248 629.999C254.5 631.999 262.5 628.499 325 632.999C387.5 637.499 506 632.999 508.5 632.999C511 632.999 514.5 625.499 518.5 617.999C522.5 610.499 535 613.999 546 613.999C557 613.999 564.5 611.499 566.5 593.999C568.1 579.999 557.5 514.166 552 482.999C542 495.499 518.5 489.999 511 487.999C503.5 485.999 484.5 474.999 447 472.999C417 471.399 386.833 482.332 375.5 487.999C381 482.499 383 439.499 381 442.499C365.5 464.499 344 441.999 340 438.499C336 434.999 318.5 412.499 314.5 403.999C310.5 395.499 294 382.999 289.5 376.999C285 370.999 287 363.999 287.5 360.499Z" fill="#D3E9F8"/>
<path d="M546 613.999C557 613.999 564.5 611.499 566.5 593.999C567.519 585.08 563.587 555.126 559.177 526.5C564.451 523 578.1 517.3 590.5 522.5C601 526.5 603.5 530.5 603.5 534C603.5 537.5 606 567.5 603.5 574C601 580.5 601 584 601 586C601 588 602 616.5 604 623C605.6 628.2 606 639.5 606 644.5H504C504.5 642.166 506.1 636.598 508.5 632.999C511 632.999 514.5 625.499 518.5 617.999C522.5 610.499 535 613.999 546 613.999Z" fill="#000201"/>
<path d="M386.5 146C359.3 139.6 342.833 159.333 338 170L422.5 185.5C421.833 175 413.7 152.4 386.5 146Z" fill="#E287EA" stroke="#E287EA" stroke-width="2" stroke-linecap="round" stroke-linejoin="round"/>
<path d="M422.5 185.5L376 177L378 192.5L383.5 210L396.5 226.5C401.3 217.3 416.167 206 423 201.5C423.8 195.5 422.833 188 422.5 185.5Z" fill="#000201" stroke="#000201" stroke-width="2" stroke-linecap="round" stroke-linejoin="round"/>
<ellipse cx="425" cy="368" rx="43" ry="44" fill="#CC4DD5"/>
<path d="M304 163.5L422.5 185.5" stroke="#000201" stroke-width="2" stroke-linecap="round" stroke-linejoin="round"/>
<path d="M356.001 234.5C326.001 225.7 330.501 187.833 336.501 170L376.5 177L378 192.5L384 212L396.5 226.5L384 243L373.5 235.5C366.7 236.3 359.001 235.167 356.001 234.5Z" fill="#DC5559" stroke="#000201" stroke-width="2" stroke-linecap="round" stroke-linejoin="round"/>
<path d="M393.5 269L375.5 256C390.7 224.8 419.167 202 431.5 194.5C444 199.5 467 221.5 490 250C513 278.5 523.5 318.5 533 359C540.6 391.4 548.833 455.167 552 483C542 495.5 518.5 490 511 488C503.5 486 484.5 475 447 473C417 471.4 386.833 482.333 375.5 488C381 482.5 383 439.5 381 442.5C365.5 464.5 344 442 340 438.5C336 435 318.5 412.5 314.5 404C310.5 395.5 294 383 289.5 377C285 371 287 364 287.5 360.5C287.9 357.7 286.667 356 286 355.5L263 334.5L295 290.5C301.167 296.5 314 309 316 311C318.5 313.5 319.5 314.5 323 314C326.5 313.5 329.5 314.5 333.5 316.5C337.5 318.5 346 330.5 352.5 336.5C357.7 341.3 361 337.167 362 334.5C371.5 318.333 391.1 284.8 393.5 280C395.9 275.2 394.5 270.667 393.5 269Z" fill="#E287EA"/>
<path d="M286 355.5L263 334.5L283.727 306C294.485 313 313.9 332.2 305.5 353C297.1 373.8 291.333 377.667 289.5 377C285 371 287 364 287.5 360.5C287.9 357.7 286.667 356 286 355.5Z" fill="#CC4DD5"/>
<path d="M431.5 194.5C444 199.5 467 221.5 490 250C490.796 250.986 491.577 251.987 492.344 253C480.229 256.333 452.7 259.1 439.5 243.5C426.3 227.9 428.667 204.333 431.5 194.5Z" fill="#CC4DD5"/>
<path d="M496 437C481.2 395.503 516.863 379.043 536.544 376C541.585 402.642 546.52 438.371 549.722 464C536.315 467 506.8 465.8 496 437Z" fill="#CC4DD5"/>
<path d="M375.5 488C379.634 483.866 381.79 458.549 381.758 447.5C391.338 446.229 413.4 449.718 425 473.843C403.231 476.485 384.031 483.735 375.5 488Z" fill="#CC4DD5"/>
<path d="M271 334.5L291 349M278.5 325.5L295 340.5M285.5 312.5L303 329.5M293 300L311.5 316M359.5 343C361.833 351.333 365.8 371.3 363 384.5M366.5 346C368.833 349.5 373.8 357.8 375 363M478 343L467.5 371.5M385 247C388.833 251.5 397.9 260.7 403.5 261.5M390.5 234.5L403 244M401 224L416 236M409.5 213.5C414.5 217.167 424.8 225.2 426 228M425 207C427.667 211.167 433.4 219.9 435 221.5M433 201C437 205.167 445 213.8 445 215M485 320.5C475.5 332.667 454.6 359.9 447 371.5C437.5 386 422 406.5 412.5 415.5C403 424.5 392 435.5 385 441.5M269.5 426C272.5 428 278.5 434.4 278.5 444M276 412C278.833 415.5 284.1 426.2 282.5 441M374 489.5C357.833 497.5 324.5 513.7 320.5 514.5M297.5 611C305 607 326.1 598.8 350.5 598C381 597 437 600 454.5 604.5C468.5 608.1 499 612.333 512.5 614" stroke="#000201" stroke-width="2" stroke-linecap="round" stroke-linejoin="round"/>
<path d="M379.003 192.001C372.203 194.001 372.5 204 375.003 207.501C376.003 208.834 379.303 211.2 384.503 210C391.003 208.5 392.003 199.001 391.503 196.001C391.003 193.001 387.503 189.501 379.003 192.001Z" fill="#C53232" stroke="#000201" stroke-width="2" stroke-linecap="round" stroke-linejoin="round"/>
<path d="M377.5 199.5C379.167 198 383 195.2 385 196C387 196.8 386.167 200.667 385.5 202.5" stroke="#000201" stroke-width="2" stroke-linecap="round" stroke-linejoin="round"/>
<path d="M330.499 178.999C330.166 177.499 331.499 175.099 339.499 177.499M348 178.999C350.833 179.166 356.6 180 357 182M343 189L334 202L346 205M343 215C346 214.833 352.2 214.2 353 213" stroke="#000201" stroke-width="2" stroke-linecap="round" stroke-linejoin="round"/>
<path d="M334 202L343 189C342.833 193.5 343.2 203 346 205L334 202Z" fill="#C53232"/>
<path d="M343 189L334 202L346 205" stroke="#000201" stroke-width="2" stroke-linecap="round" stroke-linejoin="round"/>
<circle cx="358.5" cy="202.5" r="5.5" fill="#C43439"/>
<ellipse cx="350.5" cy="189" rx="2.5" ry="3" fill="#000201"/>
<ellipse cx="332.5" cy="186" rx="2.5" ry="3" fill="#000201"/>
<circle cx="200.5" cy="205.5" r="63.5" fill="#4D96DD"/>
<path d="M138.01 206.598C140.98 206.898 145.221 207.515 149.419 208.51C154.206 209.644 158.767 211.232 161.382 213.286C164.667 215.868 166.837 219.912 168.379 223.921C169.145 225.914 169.746 227.867 170.252 229.587C170.749 231.278 171.172 232.806 171.563 233.851C171.918 234.796 172.396 236.681 173.075 239.127C173.741 241.525 174.58 244.374 175.629 247.107C176.673 249.829 177.95 252.5 179.517 254.506C181.076 256.503 183.053 258 185.5 258C189.216 258 191.547 259.632 192.405 261.489C193.203 263.215 192.863 265.42 190.716 267.237C161.197 262.597 138.539 237.293 138.01 206.598ZM228.478 149.598C239.555 155.153 248.754 163.904 254.862 174.643C252.625 174.822 249.674 174.947 246.78 174.838C244.978 174.77 243.217 174.614 241.677 174.333C240.12 174.049 238.863 173.652 238.015 173.143C236.88 172.462 236.196 171.758 235.756 171.024C235.311 170.283 235.074 169.443 234.928 168.421C234.778 167.371 234.735 166.242 234.63 164.854C234.527 163.495 234.366 161.969 233.975 160.274C233.336 157.509 231.806 154.587 230.203 152.096C229.633 151.209 229.046 150.369 228.478 149.598Z" fill="#000201" stroke="#000201" stroke-width="2" stroke-linecap="round" stroke-linejoin="round"/>
<path d="M187.607 144.344C187.44 147.733 184.699 154.1 175.499 156.5C176.666 164.333 174.899 180.1 158.499 180.5C148.899 180.9 144.549 181.023 143.086 180.856M262.058 194.672C259.207 195.338 251.699 195.4 240.499 191C226.499 185.5 215.999 182 209.499 184C202.999 186 200.499 192.5 202.999 196.5C205.499 200.5 213.499 209 214.499 215.5C215.499 222 213.999 231.5 208.499 236.5C202.999 241.5 204.499 250.5 208.499 253C211.699 255 217.266 261.454 219.933 264.883" stroke="#000201" stroke-width="2" stroke-linecap="round" stroke-linejoin="round"/>
</svg>
