<svg width="621" height="517" viewBox="0 0 621 517" fill="none" xmlns="http://www.w3.org/2000/svg">
<path d="M511.269 307.609L512.399 330.784C512.431 331.439 512.971 331.953 513.626 331.953H545.583C546.29 331.953 546.851 331.359 546.82 330.652C546.651 326.862 546.587 320.453 547.459 319.364C548.687 317.828 565.575 309.231 568.645 307.696C571.715 306.161 578.777 288.659 580.006 285.282C581.234 281.904 599.042 257.034 582.769 250.893C566.496 244.752 561.583 285.896 559.434 293.265C557.977 298.259 553.039 301.108 549.697 302.298C548.909 302.579 548.149 301.926 548.223 301.094L554.214 233.392C554.214 224.795 543.774 209.32 525.352 212.513C506.929 215.706 504.78 233.699 506.008 242.296L509.622 294.099C509.663 294.685 509.279 295.243 508.691 295.246C502.903 295.276 499.398 281.705 498.332 274.535C497.82 271.158 495.077 264.526 488.2 265.017C481.386 265.504 481.443 272.057 482.34 275.364C482.357 275.427 482.378 275.484 482.406 275.543C484.983 281.107 490.543 292.977 492.498 296.643C494.373 300.157 504.779 304.51 510.442 306.503C510.918 306.671 511.244 307.106 511.269 307.609Z" fill="#20A68E" stroke="#022952" stroke-width="1.84226" stroke-linecap="round"/>
<path d="M521.772 244.6L524.49 243.332C524.652 243.256 524.83 243.217 525.009 243.217H530.347C530.495 243.217 530.641 243.243 530.78 243.296L553.28 251.77C553.824 251.975 554.149 252.532 554.061 253.106L552.443 263.623C552.396 263.927 552.237 264.202 551.997 264.395L549.372 266.494C549.324 266.533 549.279 266.575 549.237 266.62L546.518 269.566C546.032 270.093 545.199 270.093 544.713 269.566L542.699 267.384C542.265 266.914 541.543 266.856 541.039 267.25L536.706 270.641C535.928 271.25 534.785 270.737 534.723 269.75L534.371 264.105C534.316 263.227 533.382 262.69 532.596 263.083L529.746 264.508C528.832 264.965 527.792 264.171 527.992 263.169L528.786 259.199C528.922 258.518 528.468 257.86 527.784 257.746L523.405 257.017C522.562 256.876 522.117 255.938 522.541 255.196L524.87 251.119C525.152 250.626 525.059 250.005 524.646 249.615L521.45 246.607C520.818 246.012 520.985 244.967 521.772 244.6Z" fill="#0F7661"/>
<path d="M547.383 215.866L541.727 222.428C541.319 222.901 540.619 222.993 540.103 222.639L536.52 220.188C535.846 219.727 534.919 220.039 534.661 220.813L532.433 227.496C532.244 228.064 531.673 228.413 531.081 228.322L526.345 227.593C525.384 227.445 524.641 228.418 525.036 229.306L527.289 234.376C527.572 235.012 527.269 235.756 526.623 236.015L523.775 237.154C522.869 237.517 522.727 238.741 523.527 239.301L526.797 241.589C527.354 241.979 527.488 242.748 527.096 243.304L525.36 245.762C524.813 246.538 525.315 247.616 526.262 247.694L530.108 248.015C530.843 248.076 531.359 248.767 531.208 249.489L530.507 252.853C530.292 253.886 531.393 254.691 532.312 254.174L533.232 253.657C534.004 253.223 534.968 253.724 535.056 254.605L535.54 259.451C535.642 260.468 536.868 260.923 537.608 260.22L540.829 257.16C541.396 256.621 542.315 256.743 542.723 257.41L544.153 259.749C544.656 260.572 545.868 260.521 546.299 259.658L547.668 256.921C548.028 256.202 548.97 256.017 549.575 256.546L551.902 258.582C552.562 259.16 553.598 258.878 553.875 258.046L555.062 254.485C555.273 253.853 555.948 253.504 556.585 253.698L560.368 254.849C561.294 255.131 562.167 254.281 561.909 253.348L560.406 247.9C560.213 247.201 560.665 246.487 561.38 246.363L564.936 245.745C565.884 245.58 566.283 244.438 565.643 243.719L562.825 240.549C562.454 240.131 562.412 239.516 562.722 239.051L566.504 233.377C567.037 232.578 566.488 231.504 565.528 231.469L561.221 231.309C560.359 231.277 559.798 230.391 560.137 229.598L561.573 226.248C561.889 225.511 561.426 224.675 560.634 224.551L553.052 223.366C552.629 223.3 552.27 223.018 552.107 222.622L549.448 216.199C549.099 215.353 547.981 215.173 547.383 215.866Z" fill="#F17679" stroke="#022952" stroke-width="1.84226" stroke-linecap="round"/>
<path d="M517.676 289.58L526.273 297.256" stroke="#022952" stroke-width="1.84226" stroke-linecap="round"/>
<path d="M538.555 304.625L529.957 312.301" stroke="#022952" stroke-width="1.84226" stroke-linecap="round"/>
<path d="M573.559 284.359L564.961 292.035" stroke="#022952" stroke-width="1.84226" stroke-linecap="round"/>
<path d="M593.207 252.428L584.61 260.104" stroke="#022952" stroke-width="1.84226" stroke-linecap="round"/>
<path d="M563.117 264.639L571.1 271.464" stroke="#022952" stroke-width="1.84226" stroke-linecap="round"/>
<path d="M555.75 273.307L544.697 279.859" stroke="#022952" stroke-width="1.84226" stroke-linecap="round"/>
<path d="M513.201 249.971L518.376 261.732" stroke="#022952" stroke-width="1.84226" stroke-linecap="round"/>
<path d="M515.221 211.59L523.511 218.959" stroke="#022952" stroke-width="1.84226" stroke-linecap="round"/>
<path d="M496.184 233.699L510.308 238.305" stroke="#022952" stroke-width="1.84226" stroke-linecap="round"/>
<path d="M499.867 265.631L510.614 275.456" stroke="#022952" stroke-width="1.84226" stroke-linecap="round"/>
<path d="M480.217 266.592L489.735 275.455" stroke="#022952" stroke-width="1.84226" stroke-linecap="round"/>
<path d="M483.594 291.729L494.647 293.878" stroke="#022952" stroke-width="1.84226" stroke-linecap="round"/>
<path d="M500.176 350.373L507.238 381.999M556.979 350.373L550.224 381.999" stroke="#022952" stroke-width="1.84226" stroke-linecap="round"/>
<path d="M148.61 475.646H0.921875M193.131 514.027L192.825 514.41C192.242 515.138 191.36 515.562 190.427 515.562H0.921875" stroke="url(#paint0_linear_903_1105)" stroke-width="1.84226" stroke-linecap="round"/>
<path d="M253.311 30.1282V380.772H330.378V27.6719H255.767C254.41 27.6719 253.311 28.7716 253.311 30.1282Z" fill="url(#paint1_linear_903_1105)" stroke="#022952" stroke-width="1.84226" stroke-linecap="round"/>
<path d="M338.055 406.562L330.379 399.5V381.385H252.697L338.055 406.562Z" fill="#A4B6C3"/>
<path d="M330.38 380.771H253.312H220.871C220.303 380.771 220.039 381.476 220.468 381.849L264.366 420.073H619.922M458.453 382.148H619.922" stroke="url(#paint2_linear_903_1105)" stroke-width="1.84226" stroke-linecap="round"/>
<path d="M264.366 420.073L220.248 381.657C219.85 381.311 219.23 381.594 219.23 382.12V413.318L261.992 451.531C262.321 451.824 262.781 451.92 263.199 451.78L263.526 451.671C264.028 451.504 264.366 451.035 264.366 450.506V420.073Z" fill="#4F46E5" fill-opacity="0.2" stroke="#022952" stroke-width="1.84226" stroke-linecap="round"/>
<path d="M219.229 413.318L261.323 450.934C261.743 451.31 261.478 452.006 260.914 452.006H228.134L185.446 414.393C185.022 414.019 185.286 413.318 185.852 413.318H219.229Z" stroke="#022952" stroke-width="1.84226" stroke-linecap="round"/>
<path d="M227.519 451.392L184.628 414.2C184.23 413.855 183.611 414.137 183.611 414.664V444.33L226.5 481.82C226.897 482.167 227.519 481.885 227.519 481.358V451.392Z" fill="#4F46E5" fill-opacity="0.2" stroke="#022952" stroke-width="1.84226" stroke-linecap="round"/>
<path d="M193.747 484.859L149.634 445.548C149.238 445.195 148.611 445.476 148.611 446.007V475.648L192.436 513.77C192.831 514.114 193.448 513.837 193.453 513.313L193.747 484.859Z" fill="#4F46E5" fill-opacity="0.2" stroke="#022952" stroke-width="1.84226" stroke-linecap="round"/>
<path d="M183.614 444.33L226.338 481.676C226.759 482.044 226.509 482.737 225.95 482.752L192.519 483.632L149.804 445.696C149.384 445.323 149.644 444.628 150.206 444.623L183.614 444.33Z" stroke="#022952" stroke-width="1.84226" stroke-linecap="round"/>
<path d="M338.055 405.642L330.379 399.501V4.02942L338.055 0.958984M338.055 405.642V0.958984M338.055 405.642L457.802 382.307V26.4436L338.055 0.958984" stroke="#022952" stroke-width="1.84226" stroke-linecap="round"/>
<path d="M330.379 399.206V4.44517C330.379 4.19407 330.532 3.96827 330.765 3.87501L337.213 1.29585C337.616 1.1345 338.055 1.43156 338.055 1.86601V404.364C338.055 404.879 337.459 405.165 337.057 404.844L330.609 399.686C330.464 399.569 330.379 399.393 330.379 399.206Z" fill="#DCDAFA" stroke="#022952" stroke-width="1.84226" stroke-linecap="round"/>
<rect x="344.504" y="208.213" width="9.2113" height="16.5803" rx="4.60565" fill="#022952"/>
<circle cx="402.536" cy="103.51" r="24.2564" fill="#4F46E5"/>
<path d="M403.782 105.451C403.228 110.995 400.316 113.196 399.068 113.565C401.286 108.797 401.796 102.679 401.703 100.322L403.782 105.451Z" fill="white"/>
<rect x="387.982" y="94.4824" width="6.73948" height="21.8229" rx="3.36974" transform="rotate(-21.567 387.982 94.4824)" fill="white"/>
<rect x="399.215" y="94.5391" width="6.73948" height="21.8229" rx="3.36974" transform="rotate(-21.567 399.215 94.5391)" fill="white"/>
<circle cx="414.325" cy="96.3579" r="3.18799" fill="white"/>
<path d="M414.87 105.451C414.316 110.995 411.404 113.303 410.156 113.672C411.305 111.203 411.995 108.344 412.381 105.833C412.545 104.762 414.463 104.447 414.87 105.451Z" fill="white"/>
<path d="M414.591 97.6419C412.82 97.883 412.375 96.2098 412.375 95.334C414.379 95.4088 414.822 96.8688 414.66 97.5807C414.653 97.6135 414.624 97.6374 414.591 97.6419Z" fill="#4F46E5"/>
<path d="M414.986 97.5858C416.18 97.5224 416.256 96.5307 416.256 95.8848C414.889 96.095 414.809 97.0388 414.943 97.5549C414.948 97.5742 414.966 97.5868 414.986 97.5858Z" fill="#4F46E5"/>
<rect x="492.191" y="331.95" width="71.8481" height="17.8085" rx="2.76339" stroke="#022952" stroke-width="1.84226"/>
<circle cx="545.924" cy="239.532" r="9.2113" fill="#FECA45"/>
<defs>
<linearGradient id="paint0_linear_903_1105" x1="-13.8162" y1="495.911" x2="124.967" y2="495.911" gradientUnits="userSpaceOnUse">
<stop offset="0.206731" stop-color="white"/>
<stop offset="1" stop-color="#022952"/>
</linearGradient>
<linearGradient id="paint1_linear_903_1105" x1="291.998" y1="-194.627" x2="291.844" y2="380.772" gradientUnits="userSpaceOnUse">
<stop stop-color="white"/>
<stop offset="1" stop-color="#4F46E5"/>
</linearGradient>
<linearGradient id="paint2_linear_903_1105" x1="517.984" y1="400.729" x2="619.922" y2="400.729" gradientUnits="userSpaceOnUse">
<stop stop-color="#022952"/>
<stop offset="1" stop-color="white"/>
</linearGradient>
</defs>
</svg>
