<svg width="712" height="1498" viewBox="0 0 712 1498" fill="none" xmlns="http://www.w3.org/2000/svg">
<path d="M238.589 1.0889C230.894 3.12155 222.691 7.76761 217.101 13.2848C214.27 16.116 211.584 19.0924 211.221 19.8183C210.495 21.0524 210.132 21.125 207.156 20.3991C195.178 17.3501 184.579 21.7058 179.715 31.7239C178.263 34.7003 178.045 36.2973 177.973 43.4842C177.973 50.9615 178.19 52.1956 179.788 55.4624L181.602 59.0921L180.005 62.3588C178.118 66.0612 177.973 69.1102 179.352 74.4822C180.586 79.0556 182.619 82.1046 185.885 84.0647C188.281 85.5892 191.403 86.0973 191.403 85.0084C191.403 84.718 189.951 82.9757 188.136 81.2335C181.82 75.0629 180.949 65.9886 186.321 61.2699C188.644 59.1647 193.653 59.3099 195.976 61.4877C198.807 64.1737 199.606 68.0938 198.372 73.0303C194.089 89.7271 195.323 109.255 201.421 122.83L203.599 127.622L201.566 128.275C198.59 129.364 193.871 133.865 192.201 137.349C190.241 141.487 189.588 146.932 190.677 150.924C193.726 162.467 202.8 171.977 214.56 175.97C222.328 178.583 229.878 178.293 229.878 175.461C229.878 175.171 228.063 174.881 225.813 174.881C223.344 174.881 221.965 174.59 222.255 174.155C222.473 173.719 224.651 173.429 227.047 173.429C236.629 173.429 245.849 169.799 249.624 164.5C251.656 161.668 252.237 155.498 250.64 153.465C249.551 152.086 249.551 152.086 249.478 154.191C249.478 155.353 248.825 157.676 248.099 159.345C241.856 173.066 212.818 173.066 200.259 159.273C192.782 151.142 192.346 140.906 199.316 136.115C203.018 133.502 208.825 133.574 208.825 136.26C208.825 138.293 213.036 144.028 216.593 146.714C221.529 150.489 225.813 152.013 231.33 152.013C238.734 152.013 243.453 148.456 240.477 145.189C239.388 144.028 239.606 143.81 243.163 142.721C254.197 139.237 262.037 129.654 271.402 108.239C274.959 100.108 276.193 97.9303 277.282 97.9303C278.371 97.9303 278.516 98.148 277.863 98.874C276.629 100.398 277.645 100.834 282.146 100.834C297.173 100.834 308.788 88.4929 305.231 76.3696L304.142 72.7399L308.062 70.7072C315.249 67.0049 318.952 60.1084 318.298 51.8326C317.427 41.7419 310.385 34.2647 297.681 30.1268C293.398 28.7475 290.204 25.6259 283.743 16.5516C276.919 6.96907 271.765 3.04896 263.271 1.0889C257.319 -0.362995 243.961 -0.362995 238.589 1.0889ZM204.325 24.2466C204.47 24.3918 202.8 24.8274 200.695 25.3355C195.395 26.5696 190.241 29.4734 187.337 32.8854C184.869 35.7166 183.417 39.5641 182.038 46.751C181.385 50.0177 181.312 49.7274 181.457 43.4842C181.675 37.3863 181.893 36.1522 183.78 32.6676C186.248 28.2393 189.733 25.5533 194.887 24.174C197.646 23.4481 203.381 23.5207 204.325 24.2466ZM310.676 44.7909C315.249 51.397 314.451 59.0921 308.643 64.4641C306.901 66.0612 305.231 67.4405 305.086 67.4405C304.868 67.4405 305.812 65.4078 307.046 62.9396C309.006 59.1647 309.369 57.7128 309.296 53.3571C309.296 48.0577 308.425 45.3717 305.231 40.5804L303.562 38.0396L306.175 40.0723C307.627 41.1612 309.659 43.2664 310.676 44.7909ZM238.88 59.1647L243.235 61.9959L239.243 62.3588C235.903 62.6492 235.322 62.9396 235.322 64.1737C235.322 65.2626 235.903 65.6982 237.5 65.8434C240.985 66.1338 245.341 67.5131 247.446 68.965C248.462 69.7635 249.841 70.3443 250.495 70.3443C252.092 70.3443 252.745 68.4568 251.729 67.1501C251.221 66.5693 253.979 67.3679 257.827 68.8924C261.674 70.3443 264.869 71.8688 264.941 72.1591C265.014 72.5221 264.215 73.0303 263.126 73.3207C258.045 74.7 253.036 79.8542 250.785 86.0973C249.987 88.3478 249.696 88.4929 246.357 88.4929C240.767 88.4929 237.355 86.0247 236.121 81.0157C235.758 79.4186 235.25 78.983 234.016 79.2008C232.709 79.4186 232.419 79.7816 232.636 81.8868C233.072 87.4766 238.299 91.9049 245.341 92.6308L249.115 92.9938V98.2206C249.188 103.956 250.64 107.731 253.326 108.747C255.649 109.618 255.722 109.182 254.052 106.061C252.31 102.939 251.293 97.2769 252.237 95.825C252.745 95.0991 253.253 95.0991 254.415 95.6798C256.375 96.6962 261.674 96.6962 264.651 95.6798C267.555 94.6635 268.789 92.6308 267.192 91.3241C266.32 90.5982 265.667 90.6708 263.562 91.6145C260.44 93.139 257.536 93.2116 255.431 91.6871C253.326 90.2352 253.399 87.8396 255.649 84.5728C259.569 78.7653 264.433 76.1518 268.498 77.5311C269.732 77.9667 271.329 78.3297 271.983 78.3297C273.507 78.3297 274.524 76.2244 273.435 75.1355C273.072 74.7725 272.709 74.1918 272.709 73.974C272.709 73.5384 281.42 74.6274 282.073 75.1355C282.219 75.2081 281.13 77.2408 279.75 79.5638C278.371 81.8868 276.629 85.081 275.976 86.6781C275.322 88.2752 272.636 94.5183 270.095 100.616C261.311 121.596 256.375 129.654 248.898 134.954C239.896 141.414 228.571 141.632 218.118 135.462C205.05 127.839 198.081 109.255 200.114 87.5492C201.058 77.6037 201.348 76.5874 202.873 77.3134C207.809 79.4912 212.6 77.8941 216.23 73.0303C219.569 68.5294 224.578 57.5676 225.595 52.486L226.466 48.0577L230.531 52.1956C232.782 54.446 236.557 57.5676 238.88 59.1647ZM301.166 78.983C301.601 87.404 295.286 95.0991 286.502 96.7687L283.961 97.2769L286.211 96.1154C293.18 92.4857 297.318 86.2425 297.972 78.4023L298.335 73.7562L299.714 75.3533C300.44 76.297 301.093 77.8941 301.166 78.983Z" fill="black"/>
<path d="M231.91 119.418C230.894 121.669 231.837 123.556 234.16 123.919C236.193 124.21 237.863 122.903 237.863 120.87C237.863 117.24 233.362 116.152 231.91 119.418Z" fill="black"/>
<path d="M323.451 2.54068C321.055 5.44447 323.233 20.9797 326.064 20.9797C327.516 20.9797 327.589 19.8182 327.153 10.4535C326.863 3.26663 326.572 1.74214 325.629 1.52435C324.975 1.45176 324.032 1.88733 323.451 2.54068Z" fill="black"/>
<path d="M336.302 22.7221C331.438 25.4081 328.897 28.0941 329.986 29.183C331.656 30.8527 345.666 24.4644 345.666 22.0687C345.666 19.6005 341.311 19.8909 336.302 22.7221Z" fill="black"/>
<path d="M111.184 100.108C110.966 100.544 110.966 102.286 111.256 104.101C111.474 105.916 111.474 108.239 111.184 109.328L110.676 111.36L109.369 108.311C107.119 103.157 101.747 101.124 98.4072 104.173C97.1731 105.335 96.9553 106.134 97.2457 109.037C97.6086 112.885 99.4235 115.426 102.908 116.878L105.086 117.749L103.416 119.491C101.238 121.887 98.3346 123.338 95.7938 123.338C93.5433 123.338 91.3655 124.427 92.0914 125.153C92.3092 125.444 93.8337 125.807 95.4308 126.024C99.4235 126.533 104.505 124.064 107.264 120.217C108.425 118.62 110.458 116.515 111.837 115.643C116.338 112.594 117.717 105.625 114.741 100.979C113.652 99.3096 111.982 98.8741 111.184 100.108ZM106.465 112.086C106.465 113.538 105.594 113.466 103.271 111.651C101.456 110.199 100.803 108.166 101.892 107.077C102.618 106.424 106.465 110.634 106.465 112.086Z" fill="black"/>
<path d="M293.76 107.222C278.878 112.159 266.392 124.935 263.996 137.712C263.198 142.286 263.996 147.222 266.174 150.271C271.038 157.022 284.976 157.966 296.374 152.158L300.076 150.271L303.415 152.594C305.23 153.901 306.827 155.062 306.827 155.28C306.827 155.498 305.666 156.296 304.214 157.095C301.02 158.765 297.39 162.83 297.39 164.717C297.39 165.443 297.898 166.605 298.624 167.258C300.003 168.71 302.181 168.42 310.675 165.734C313.796 164.79 316.482 163.991 316.7 163.991C316.845 163.991 315.684 165.225 314.014 166.677C307.989 172.122 308.569 174.663 317.571 182.14C323.597 187.149 323.96 187.367 326.791 186.931C328.388 186.641 331.364 186.278 333.397 186.06L337.172 185.552L340.366 189.69C343.778 194.046 347.771 197.167 351.037 198.111C352.852 198.546 352.925 198.837 352.78 202.902C352.634 207.258 350.457 214.88 349.223 215.316C348.86 215.461 347.48 214.88 346.174 214.082C344.213 212.848 343.778 212.194 344.141 210.96C344.359 210.089 344.794 208.565 345.012 207.548L345.52 205.733L343.778 207.33C342.471 208.637 342.036 209.944 341.818 213.501C341.6 217.348 341.818 218.437 343.27 220.543C346.391 225.116 348.351 226.06 354.595 225.987C360.62 225.842 365.048 224.608 369.404 221.704C370.928 220.688 372.308 219.889 372.525 219.889C373.905 219.889 371.799 232.666 369.259 240.216C361.491 262.72 346.246 276.368 333.615 272.012C326.718 269.689 323.234 263.664 321.491 250.96C320.402 243.337 320.33 243.12 319.313 245.007C318.588 246.459 318.37 248.782 318.588 253.573C318.805 259.018 319.241 260.978 321.056 264.898C325.557 274.481 330.711 278.328 339.132 278.255C343.125 278.255 345.012 277.82 347.916 276.295C362.217 268.963 374.921 246.532 377.317 224.245C378.188 216.187 377.534 213.356 374.848 213.356C373.905 213.356 372.743 213.791 372.235 214.227C371.509 215.025 371.509 214.517 371.945 211.904C372.235 210.089 372.525 205.007 372.453 200.652C372.38 194.481 372.09 191.795 370.928 188.964C365.919 176.187 348.206 159.418 332.889 152.957C328.678 151.215 326.936 150.852 322.725 150.997L317.644 151.142L313.724 147.295L309.876 143.447L313.361 138.946C323.451 125.734 323.887 114.191 314.522 108.529C311.401 106.569 310.239 106.279 304.359 106.133C299.423 105.988 296.737 106.279 293.76 107.222ZM311.909 111.723C315.321 113.465 316.99 116.369 316.99 120.58V123.701L315.611 121.523C310.094 112.594 299.132 112.231 287.372 120.435C278.007 127.041 272.2 136.986 274.232 142.939C275.321 145.915 276.047 145.698 276.555 142.14C276.991 138.801 280.766 132.703 285.121 128.347C294.123 119.346 306.174 116.442 309.368 122.612C310.747 125.226 310.747 130.598 309.513 133.719C307.989 137.204 301.673 143.737 296.954 146.569C292.163 149.472 284.904 151.578 279.604 151.578C272.127 151.65 267.19 146.641 267.916 139.745C269.223 127.694 282.653 114.119 296.809 110.562C301.673 109.328 308.206 109.836 311.909 111.723ZM309.368 148.021C311.981 150.779 311.038 152.376 307.844 150.634C303.706 148.456 303.56 148.238 304.577 147.004C305.956 145.335 307.045 145.552 309.368 148.021ZM334.631 158.474C347.408 164.79 361.128 177.857 366.282 188.674C368.678 193.755 368.896 194.554 368.823 201.015C368.823 204.79 368.388 210.089 367.879 212.775L366.936 217.566L363.233 219.236C359.604 220.76 350.384 222.067 350.384 221.051C350.384 220.76 351.546 218.074 352.997 215.098C354.522 211.904 355.901 207.548 356.337 204.79C356.772 202.104 357.353 199.345 357.716 198.692C358.66 196.877 358.66 196.877 355.248 196.078C350.747 194.917 346.319 191.65 343.197 187.149C339.495 181.777 337.68 181.051 331.437 182.067C328.751 182.503 326.137 182.866 325.702 182.866C323.814 182.866 326.283 181.051 331.219 178.728C334.195 177.421 336.591 176.042 336.591 175.679C336.591 175.316 336.083 174.663 335.502 174.155C333.978 172.848 329.84 174.155 324.976 177.421C320.693 180.325 320.402 180.398 319.241 178.946C317.353 176.695 320.765 174.009 331.074 169.872C332.598 169.218 332.961 168.783 332.381 168.202C330.929 166.75 320.765 170.307 317.208 173.574C315.466 175.171 314.087 174.808 314.087 172.703C314.087 170.815 320.039 166.387 323.814 165.443C325.484 165.008 327.226 164.5 327.734 164.354C329.186 163.846 328.388 162.249 326.355 161.741C325.121 161.378 324.976 161.233 325.92 161.16C326.646 161.088 327.009 160.725 326.791 160.362C325.992 159.055 318.225 159.636 311.328 161.451C303.343 163.556 302.689 163.628 303.996 162.104C305.303 160.507 311.473 157.458 316.627 155.933C323.016 153.973 326.646 154.481 334.631 158.474Z" fill="black"/>
<path d="M477.79 128.13C474.087 132.122 474.813 139.019 479.169 142.721C480.621 143.883 481.855 145.77 482.145 147.15C482.726 149.836 486.791 154.554 488.606 154.554C490.639 154.554 490.784 152.449 488.897 150.344C486.646 147.948 485.34 145.48 485.92 144.827C486.138 144.609 487.009 144.391 487.808 144.391C488.534 144.391 490.349 143.229 491.728 141.85C494.849 138.729 494.922 135.244 491.8 133.574C490.058 132.558 489.623 132.558 487.372 133.647C485.703 134.445 484.396 135.825 483.525 137.785C481.855 141.342 480.766 141.487 478.806 138.366C476.991 135.534 477.282 131.614 479.605 128.42C481.492 125.734 480.185 125.516 477.79 128.13ZM489.405 138.511C489.84 139.237 487.88 141.487 486.791 141.487C485.63 141.487 486.065 139.382 487.445 138.656C488.969 137.712 488.897 137.712 489.405 138.511Z" fill="black"/>
<path d="M178.48 154.336C170.858 163.628 152.999 188.383 146.611 198.401C123.381 235.062 113.653 266.35 118.444 289.217C120.187 297.42 126.72 309.181 129.624 309.181C131.003 309.181 130.495 305.624 128.535 301.776C122.945 290.742 121.058 280.941 122.437 269.834C124.542 251.904 131.802 233.029 146.248 207.548C151.983 197.385 156.484 190.706 170.495 171.033C181.674 155.498 183.634 152.449 184.506 149.618C185.377 146.641 183.707 147.948 178.48 154.336Z" fill="black"/>
<path d="M240.984 190.053C239.749 190.343 237.209 191.505 235.466 192.521C231.909 194.626 225.521 200.652 225.521 201.886C225.521 202.321 224.867 202.104 224.069 201.378C221.31 198.837 214.559 201.45 200.113 210.67C183.271 221.414 169.623 232.739 164.832 239.853C162.944 242.612 162.363 243.12 162.363 241.886C162.363 239.272 161.565 238.038 159.823 238.038C157.427 238.038 156.991 240.942 158.298 247.403C160.476 257.784 166.501 265.769 175.576 270.343C183.126 274.118 188.425 273.537 189.949 268.818C190.966 265.769 189.296 261.268 187.191 261.268C185.957 261.268 185.884 261.559 186.537 264.172C187.263 266.786 186.61 269.472 185.812 267.221C185.594 266.713 184.36 264.68 182.98 262.72L180.512 259.091L184.723 254.735L188.933 250.379H196.193C204.686 250.379 207.009 249.798 212.526 246.386C216.084 244.209 217.318 243.846 221.31 243.846C226.9 243.846 235.249 242.103 237.717 240.506C238.66 239.853 239.822 238.401 240.258 237.24C240.693 236.078 241.492 235.134 241.927 235.134C243.379 235.134 244.541 233.029 244.105 231.214C243.234 227.73 228.788 222.648 219.205 222.503C213.615 222.43 212.454 222.938 213.615 224.826C214.196 225.77 215.866 226.205 220.149 226.496C225.956 227.004 237.426 230.198 238.298 231.577C238.588 232.158 234.74 232.231 225.23 231.868C215.503 231.432 211.728 231.505 211.728 232.085C211.728 233.174 213.18 233.465 226.247 235.062L237.499 236.368L234.74 237.603C233.143 238.256 227.771 239.272 222.762 239.78C214.269 240.651 213.18 240.942 209.332 243.265C204.468 246.314 200.766 246.967 193.434 246.314L188.135 245.878L184.36 249.218C182.327 251.033 179.133 254.807 177.173 257.639L173.688 262.72L171.583 260.76C170.421 259.599 168.316 256.477 167.01 253.719L164.541 248.71L166.138 246.096C168.534 242.031 171.147 238.691 174.342 235.497C177.971 231.795 192.635 220.688 201.637 214.808C208.461 210.307 219.641 204.282 220.149 204.862C220.294 205.007 219.278 206.242 217.898 207.548C215.285 210.017 214.632 212.412 216.301 212.993C216.737 213.211 219.931 213.646 223.343 214.009C231.546 214.953 236.991 217.058 242.29 221.486C244.686 223.447 246.864 224.971 247.081 224.753C247.88 223.955 245.702 219.309 243.452 216.986C240.403 213.864 233.579 210.67 228.715 210.017C226.537 209.799 224.795 209.363 224.795 209.145C224.795 207.984 231.038 200.942 234.014 198.764C242.435 192.739 252.236 198.111 247.517 206.169C246.791 207.331 246.065 208.274 245.847 208.274C245.63 208.274 244.686 208.928 243.742 209.654C242.363 210.742 242.145 211.178 242.798 212.412C243.524 213.646 244.831 214.009 251.8 214.808C256.301 215.243 260.512 215.969 261.092 216.332C261.963 216.84 261.963 216.913 261.165 216.986C258.914 216.986 261.165 217.784 265.521 218.51C277.716 220.47 293.034 226.859 302.471 233.973C305.448 236.223 308.351 238.038 308.86 238.038C314.522 238.038 321.999 228.601 322.29 221.051C322.435 217.131 320.33 214.154 313.578 209.073C304.359 202.104 286.428 194.554 271.256 191.214C265.23 189.835 244.758 189.109 240.984 190.053ZM269.804 195.643C281.927 198.111 297.898 204.427 308.279 210.96C313.578 214.3 318.442 219.091 318.442 220.978C318.442 224.753 312.344 233.682 309.731 233.682C309.368 233.682 305.883 231.505 301.963 228.819C286.791 218.51 270.239 212.848 254.196 212.412L249.042 212.267L251.437 210.017C254.051 207.476 256.664 202.321 256.737 199.563C256.737 198.547 256.228 196.804 255.648 195.643L254.559 193.61L259.423 194.118C262.181 194.336 266.827 195.062 269.804 195.643Z" fill="black"/>
<path d="M293.907 214.59C293.036 216.405 292.455 218.075 292.673 218.365C293.326 219.018 297.319 213.937 297.392 212.412C297.392 210.089 295.577 211.251 293.907 214.59Z" fill="black"/>
<path d="M302.326 214.735C302.471 216.114 302.036 217.929 300.947 219.817C299.205 222.938 299.423 224.39 301.383 222.793C303.27 221.269 304.649 218.002 304.649 215.171C304.649 213.211 304.359 212.63 303.343 212.63C302.254 212.63 302.036 213.065 302.326 214.735Z" fill="black"/>
<path d="M214.415 216.042C213.544 216.26 213.181 216.913 213.326 217.857C213.544 219.163 214.197 219.309 219.351 219.526C226.901 219.817 233.725 222.067 239.751 226.132C242.364 227.947 244.905 229.254 245.34 229.109C246.792 228.528 239.025 221.632 234.669 219.599C228.135 216.477 218.843 214.88 214.415 216.042Z" fill="black"/>
<path d="M302.035 245.515C300.075 247.621 296.881 252.194 294.921 255.679C293.034 259.163 291.146 261.994 290.783 261.994C290.493 261.994 287.153 260.978 283.451 259.816C275.901 257.348 265.012 254.735 262.181 254.735C258.842 254.735 260.366 255.896 265.302 257.058C271.473 258.51 289.767 265.261 289.767 266.132C289.767 266.423 288.388 270.778 286.718 275.787C285.121 280.796 282.362 290.742 280.693 297.929C278.95 305.116 277.353 311.286 277.063 311.576C276.772 311.867 269.223 310.052 260.221 307.439C241.201 301.921 233.651 300.324 217.898 298.292C211.582 297.493 206.21 296.622 205.993 296.404C205.775 296.186 205.63 292.992 205.702 289.363C205.775 284.136 206.428 280.07 208.751 271.141C212.018 258.582 212.236 256.913 210.784 256.913C208.17 256.913 205.775 262.285 202.581 275.279C200.403 284.281 199.604 296.332 200.984 299.018C202.145 301.123 202.944 301.341 218.624 303.01C229.949 304.244 233.579 305.406 235.539 308.31C236.555 309.907 236.555 309.907 233.07 309.907C223.706 309.907 206.356 305.987 194.16 301.195C190.094 299.526 186.319 298.437 185.811 298.582C184.432 299.163 184.65 300.978 186.392 302.575L187.916 303.954L184.287 313.319C170.712 348.237 154.015 420.251 140.657 501.194C133.688 543.444 125.122 607.545 126.066 610.159C126.864 612.264 131.656 614.877 139.496 617.636C146.683 620.177 161.855 624.242 164.251 624.242C167.3 624.242 166.646 625.258 161.855 628.089C152.49 633.461 148.57 637.672 148.57 642.173C148.57 648.634 156.265 651.392 168.534 649.287C172.163 648.706 177.753 648.198 180.947 648.198C185.303 648.198 187.118 647.908 187.771 647.109C188.279 646.529 188.86 646.166 189.151 646.311C189.949 646.819 196.483 645.222 196.483 644.496C196.483 644.133 195.975 643.843 195.394 643.843C194.813 643.843 194.305 643.48 194.305 643.117C194.305 642.681 195.394 642.391 196.773 642.391C198.152 642.391 199.604 641.882 200.185 641.157C201.129 640.068 200.984 639.995 198.733 640.431L196.265 640.939L199.822 637.527C204.758 632.808 202.871 632.736 192.708 637.236C179.713 642.971 164.251 646.819 158.443 645.73C154.886 645.077 152.635 643.044 153.216 641.084C153.942 638.906 158.806 635.131 165.412 631.501L171.002 628.525L182.109 628.67C207.081 628.961 233.869 625.912 237.499 622.354C238.805 620.975 238.805 621.629 237.499 592.663C235.248 543.517 235.393 489.797 237.789 463.808C238.297 458.581 238.297 458.799 238.805 469.252C240.838 510.631 245.266 549.397 251.655 581.411C255.72 601.81 259.132 612.046 262.762 614.369C264.504 615.531 275.103 616.982 281.636 616.982C285.411 616.982 286.21 617.273 288.751 619.451C290.348 620.757 293.469 622.863 295.792 624.097L299.93 626.347L297.244 626.42C295.792 626.42 294.123 626.638 293.469 626.855C291.437 627.654 292.235 628.598 294.921 628.598C296.373 628.598 299.059 629.106 300.946 629.687C302.761 630.267 306.246 630.993 308.641 631.211C312.416 631.647 312.779 631.792 311.327 632.445C306.681 634.55 313.651 635.639 333.179 635.784C345.011 635.857 347.552 635.276 350.238 631.864C352.271 629.324 352.271 626.71 350.166 623.443C347.334 618.725 339.785 613.788 332.307 611.61C326.79 610.013 324.975 610.086 324.975 611.901C324.975 613.135 326.572 614.151 332.816 617.055C340.293 620.54 346.754 625.476 346.754 627.654C346.754 628.961 343.923 630.558 340.511 631.066C333.251 632.155 314.086 627.944 302.471 622.79C298.696 621.12 295.284 619.451 294.921 619.16C294.631 618.797 296.228 618.217 298.551 617.781C310.166 615.603 331.944 608.126 344.213 602.101C355.392 596.656 359.821 593.607 359.821 591.284C359.821 590.413 358.514 586.565 356.844 582.79C347.48 560.867 338.188 529.433 331.581 497.201C327.806 478.617 325.992 467.074 319.894 422.792C311.327 361.086 307.262 339.162 300.656 318.763C297.244 308.382 296.954 306.858 297.97 306.495C308.061 303.01 318.66 296.84 319.023 294.226C319.168 293.428 317.571 289 315.465 284.499C313.433 279.925 310.529 271.94 309.077 266.786C306.536 257.711 306.464 257.493 306.246 260.905C306.028 264.39 310.166 285.079 312.344 291.25C312.925 292.847 313.36 294.226 313.36 294.299C313.36 295.751 284.758 306.277 283.814 305.261C283.088 304.607 286.355 289.508 289.186 280.143C292.743 268.383 295.284 262.285 301.092 251.541C303.85 246.386 306.028 242.031 305.883 241.886C305.665 241.74 303.995 243.337 302.035 245.515ZM239.096 457.419C238.878 457.927 238.733 457.564 238.733 456.548C238.733 455.532 238.878 455.169 239.096 455.604C239.241 456.113 239.241 456.984 239.096 457.419Z" fill="black"/>
<path d="M510.384 250.016C510.093 250.597 510.093 251.831 510.384 252.775C510.819 254.517 509.15 257.639 507.843 257.639C507.48 257.639 507.19 256.695 507.19 255.533C507.19 252.847 504.068 250.161 501.818 250.815C498.478 251.759 497.317 256.405 499.64 259.671C500.656 261.196 500.656 261.341 498.769 261.994C497.389 262.575 496.083 262.575 494.631 261.994C491.945 261.051 491.219 261.051 491.219 261.994C491.219 263.011 495.211 264.898 497.534 264.898C498.623 264.898 500.656 264.245 501.963 263.446C503.269 262.648 505.157 261.994 506.173 261.994C510.239 261.994 514.449 258.002 514.449 254.082C514.449 250.379 511.4 247.33 510.384 250.016ZM503.923 256.042C503.923 257.348 502.471 257.131 502.253 255.751C502.035 255.025 502.326 254.662 502.979 254.88C503.487 255.098 503.923 255.606 503.923 256.042Z" fill="black"/>
<path d="M242.945 264.172C241.638 264.971 241.348 264.826 251.657 267.076C255.867 267.947 263.707 270.198 269.079 272.085C274.451 273.972 279.46 275.352 280.186 275.207C281.638 274.916 281.856 273.392 280.549 272.375C278.952 271.141 262.546 266.423 254.705 264.898C246.357 263.301 244.542 263.156 242.945 264.172Z" fill="black"/>
<path d="M227.916 274.118C225.883 274.916 227.19 275.642 231.909 276.513C238.733 277.675 251.945 281.014 263.125 284.499C268.351 286.096 273.143 287.403 273.796 287.403C274.449 287.403 274.885 286.749 274.885 285.588C274.885 283.7 274.304 283.482 259.713 279.49C249.622 276.731 229.731 273.319 227.916 274.118Z" fill="black"/>
<path d="M186.901 277.312C186.248 277.675 185.159 279.707 184.506 281.813C181.82 290.016 174.197 301.486 168.172 306.277C163.308 310.125 157.864 312.157 151.983 312.375C149.152 312.448 146.684 312.883 146.611 313.246C146.539 313.609 144.869 314.045 142.982 314.263C139.497 314.626 139.497 314.626 141.312 315.714C142.619 316.513 145.232 316.803 150.459 316.803C157.355 316.803 158.009 316.658 163.163 314.117C175.359 308.092 187.627 292.339 189.007 281.087C189.442 277.239 188.862 276.223 186.901 277.312Z" fill="black"/>
<path d="M501.671 405.006C498.84 405.296 486.281 406.095 473.722 406.821C461.163 407.474 443.45 408.418 434.376 408.926C425.301 409.434 417.534 410.16 417.098 410.596C415.719 411.975 417.243 413.354 426.826 419.96C442.288 430.704 440.256 430.051 458.55 429.978C490.927 429.761 545.373 424.897 543.776 422.356C543.122 421.267 531.144 421.63 507.333 423.518C475.827 425.986 455.791 426.857 448.532 426.131C442.579 425.55 442.434 425.478 433.504 419.525C428.495 416.185 424.503 413.427 424.575 413.282C424.721 413.209 432.706 412.701 442.361 412.265C462.034 411.249 460.437 411.031 469.148 416.548C471.399 417.928 473.577 418.799 474.593 418.654C476.118 418.436 475.682 417.928 471.399 414.806L466.39 411.176L471.399 410.668C475.827 410.233 476.771 410.378 480.473 412.048C484.902 414.08 486.934 413.79 484.03 411.612L482.288 410.305L486.571 409.87C488.967 409.579 494.774 409.216 499.566 408.926C507.914 408.49 508.567 408.563 515.174 410.668C528.386 414.951 539.202 416.911 542.542 415.605C543.703 415.097 543.703 414.951 542.034 414.08C541.017 413.572 537.46 412.556 534.048 411.902C530.636 411.176 523.159 409.216 517.424 407.474C511.689 405.732 506.898 404.353 506.898 404.353C506.825 404.425 504.502 404.716 501.671 405.006Z" fill="black"/>
<path d="M415.575 419.888C413.832 424.679 411.8 442.682 409.477 473.245C407.226 503.662 407.299 573.208 409.622 588.67L410.058 591.211H402.871C398.515 591.211 395.103 591.574 394.159 592.155C391.836 593.462 392.054 596.511 394.595 600.068C398.297 605.149 414.195 614.805 426.972 619.668C429.005 620.467 431.909 621.991 433.433 623.008C436.409 625.04 438.224 625.476 438.224 624.169C438.224 623.734 436.046 621.411 433.36 618.942C425.811 612.046 420.293 606.311 417.97 602.899C413.107 595.857 412.453 587.509 412.453 531.684C412.526 489.433 412.671 483.771 414.486 456.838C416.446 429.398 416.809 416.476 415.575 419.888Z" fill="black"/>
<path d="M548.204 432.156C545.881 435.641 543.921 449.579 543.05 468.308L542.542 478.98L539.565 479.343C537.896 479.561 531.29 480.141 524.756 480.577C516.916 481.158 512.56 481.811 511.689 482.464C510.6 483.335 512.778 483.481 526.716 483.19L542.977 482.9L542.469 488.78C542.251 492.047 542.034 496.693 542.034 499.161V503.662L539.711 504.025C538.404 504.243 533.83 504.533 529.475 504.678C522.433 504.896 519.166 505.767 520.4 507.001C520.618 507.219 525.772 507.51 531.798 507.582L542.76 507.727V511.793C542.76 515.059 542.469 516.003 541.525 516.439C540.799 516.729 534.048 517.237 526.426 517.6C510.745 518.399 507.914 518.762 507.914 519.778C507.914 520.286 513.504 520.504 525.337 520.286L542.76 520.068V521.738C542.76 525.005 544.357 548.453 545.228 557.963L546.099 567.545L541.308 568.634C536.153 569.796 525.555 570.885 509.729 571.974C499.42 572.627 497.025 573.063 497.025 574.224C497.025 575.676 532.524 574.224 541.308 572.409C543.921 571.828 546.099 571.465 546.171 571.538C546.244 571.611 546.97 577.346 547.841 584.242C548.64 591.139 549.438 597.091 549.656 597.382C550.672 599.051 542.251 600.503 527.152 601.375C522.578 601.665 519.529 602.173 518.948 602.754C517.424 604.278 530.201 604.932 541.235 603.988C546.171 603.552 550.382 603.262 550.455 603.407C550.745 603.698 554.302 615.821 554.157 615.966C554.084 616.039 544.284 616.474 532.379 616.91C505.155 617.999 494.194 618.797 477.932 620.975C466.172 622.572 448.677 626.202 449.403 626.928C449.548 627.073 457.17 626.42 466.245 625.403C490.637 622.645 506.97 621.483 532.959 620.612C545.736 620.177 556.916 619.668 557.859 619.451C559.892 619.015 559.892 618.362 557.278 608.053C547.333 568.634 543.485 489.651 549.366 443.844C550.092 437.819 550.745 432.374 550.745 431.648C550.745 429.906 549.511 430.124 548.204 432.156Z" fill="black"/>
<path d="M36.049 433.39C36.049 434.189 36.412 435.496 36.8476 436.294C37.9365 438.327 36.9928 440.432 34.5245 441.666C32.4919 442.755 32.4193 442.755 32.4193 440.94C32.4193 438.762 29.4429 435.496 27.5555 435.496C25.1598 435.496 22.982 437.601 22.982 439.851C22.982 442.973 23.6353 444.134 26.1036 445.441L28.354 446.603L26.3213 448.272C24.8694 449.579 23.4901 450.015 21.0945 450.015C17.4648 450.015 16.884 451.104 19.933 452.265C23.2724 453.572 26.6843 452.555 29.5155 449.434C31.04 447.764 33.0727 446.385 34.452 446.022C35.7587 445.804 37.7913 444.57 38.9528 443.336C40.6951 441.666 41.1307 440.577 41.1307 438.109C41.1307 436.439 40.6225 434.334 39.9691 433.463C38.5173 431.358 36.049 431.358 36.049 433.39ZM29.0799 442.102C28.4992 443.046 27.3377 442.174 27.3377 440.795C27.3377 439.851 27.5555 439.851 28.4266 440.577C29.0073 441.085 29.2977 441.739 29.0799 442.102Z" fill="black"/>
<path d="M439.095 438.036C438.514 439.996 437.643 444.28 436.99 447.474C436.409 450.668 435.756 453.427 435.611 453.572C435.465 453.717 433.505 452.628 431.328 451.103C428.133 448.926 427.044 448.563 426.391 449.216C425.738 449.942 426.173 450.668 428.424 452.773C430.021 454.298 432.271 456.185 433.36 457.056L435.393 458.653L434.304 469.615C433.651 475.568 433.142 481.811 433.142 483.408C433.142 485.005 432.925 486.312 432.562 486.312C432.271 486.312 430.093 485.005 427.698 483.408C423.342 480.577 420.438 479.706 420.946 481.375C421.237 482.319 430.239 489.579 431.618 490.087C432.053 490.232 432.199 495.604 431.908 503.88L431.473 517.528L426.681 514.987C418.115 510.413 417.68 512.228 425.956 518.181L431.328 522.029L431.037 530.885C430.892 535.676 430.674 539.742 430.602 539.887C430.456 540.032 427.553 538.58 424.068 536.693C415.139 531.901 414.849 533.571 423.632 539.306C427.553 541.919 430.965 544.678 431.255 545.477C431.473 546.275 431.691 548.598 431.691 550.703V554.406L426.101 551.212C420.584 548.09 418.623 547.437 418.623 548.671C418.623 549.179 424.213 553.825 430.384 558.326C431.4 559.124 431.763 561.52 432.416 571.611C432.852 578.362 433.36 585.041 433.578 586.347L434.014 588.67L427.698 584.678C421.382 580.685 420.075 580.177 420.075 581.266C420.075 581.992 428.932 589.687 432.199 591.865C434.014 593.099 434.594 594.042 434.957 596.656C435.175 598.471 435.611 601.012 435.828 602.318L436.191 604.714L432.344 602.391C424.358 597.672 424.504 597.745 423.705 598.543C423.124 599.124 424.576 600.649 428.787 603.988C432.053 606.529 435.611 609.07 436.627 609.65C439.168 610.957 439.458 611.393 439.966 615.603C440.257 617.563 441.055 620.54 441.781 622.209L443.16 625.331L444.032 623.298C444.83 621.628 444.685 619.451 443.015 608.416C441.926 601.375 440.983 595.059 440.91 594.478C440.765 593.68 441.418 593.462 443.306 593.607C445.774 593.752 457.607 592.663 461.672 591.865C466.463 590.921 462.834 590.34 452.307 590.413C443.669 590.413 440.91 590.195 440.474 589.469C440.111 588.961 439.458 583.734 439.023 577.854C438.514 572.046 438.006 566.602 437.861 565.803C437.571 564.351 437.934 564.351 457.679 564.279C484.83 564.206 510.456 561.593 510.456 558.907C510.456 557.382 505.374 557.527 486.5 559.56C478.151 560.431 463.705 561.375 454.485 561.593L437.643 562.028L437.063 554.115C436.337 543.299 436.264 498.217 436.99 486.893L437.643 477.746L448.678 477.673C454.776 477.673 460.583 477.455 461.672 477.238C465.883 476.149 463.269 475.423 455.356 475.423C450.856 475.423 445.121 475.205 442.58 474.915L438.079 474.479L438.514 468.236C438.805 464.824 439.168 460.033 439.386 457.637L439.821 453.281L443.378 453.499C452.816 454.225 502.18 451.466 505.955 450.087C506.826 449.724 492.307 449.652 473.723 449.869L439.966 450.232L440.257 443.699C440.692 435.278 440.257 433.39 439.095 438.036ZM437.28 601.52C437.063 602.246 436.917 601.81 436.917 600.649C436.917 599.414 437.063 598.906 437.28 599.342C437.425 599.85 437.425 600.866 437.28 601.52ZM438.006 605.512C437.788 606.093 437.571 605.875 437.571 605.077C437.498 604.278 437.716 603.843 437.934 604.133C438.151 604.351 438.224 605.004 438.006 605.512Z" fill="black"/>
<path d="M531.726 464.897C531.508 465.114 521.49 465.913 509.44 466.639C495.792 467.437 487.153 468.309 486.645 468.817C485.629 469.833 512.779 469.906 525.556 468.889C534.412 468.236 536.953 467.365 535.429 465.55C534.63 464.534 532.452 464.171 531.726 464.897Z" fill="black"/>
<path d="M472.344 493.571C456.156 493.789 442.871 494.08 442.798 494.152C441.927 494.878 442.944 496.548 444.541 496.911C449.042 498.072 502.181 496.04 505.883 494.66C507.843 493.862 506.682 492.845 504.068 492.991C502.762 493.136 488.533 493.354 472.344 493.571Z" fill="black"/>
<path d="M524.973 536.402C522.141 536.983 499.855 538.653 477.931 539.959C471.688 540.322 466.824 540.903 466.316 541.411C464.646 543.081 514.809 541.774 526.425 539.814C530.708 539.088 531.506 538.725 531.506 537.491C531.506 535.822 529.474 535.459 524.973 536.402Z" fill="black"/>
<path d="M459.729 853.504C457.116 858.005 454.938 871.508 455.954 876.952C456.39 879.13 456.753 879.566 458.059 879.348C459.802 879.13 460.455 877.46 462.778 867.515C464.811 858.949 465.392 854.521 464.811 852.27C464.085 849.439 461.834 849.947 459.729 853.504Z" fill="black"/>
<path d="M317.298 908.168C316.644 909.765 318.169 911.217 321.218 912.233C322.67 912.669 327.897 914.992 332.833 917.315C342.343 921.888 344.811 922.396 346.045 920.219C347.134 918.113 346.989 917.75 344.158 914.847C341.617 912.306 337.842 910.636 328.985 908.095C324.122 906.716 317.806 906.716 317.298 908.168Z" fill="black"/>
<path d="M391.49 921.235C395.918 927.986 431.635 936.262 469.82 939.384C477.442 939.964 492.324 940.69 503.068 940.981C520.128 941.344 522.451 941.561 522.451 942.578C522.451 943.231 521.652 949.765 520.636 957.169C514.756 1000.07 513.304 1017.21 514.103 1031.22C514.538 1038.84 516.426 1047.19 518.095 1048.86C519.039 1049.95 519.692 1042.98 519.184 1036.44C518.24 1024.97 523.322 991.361 530.001 964.501C533.485 950.418 533.703 949.184 532.687 949.184C531.816 949.184 529.42 955.5 527.17 963.703C524.556 973.068 524.701 972.777 523.83 971.906C523.322 971.398 523.758 967.333 524.992 959.347C527.605 942.578 527.968 937.932 526.734 937.133C526.153 936.77 514.974 936.262 501.761 935.972C458.205 935.101 426.045 930.527 399.112 921.235C396.136 920.219 392.942 919.42 391.998 919.42C390.329 919.42 390.329 919.493 391.49 921.235Z" fill="black"/>
<path d="M386.699 923.776C386.119 924.865 386.264 927.841 387.208 935.246C390.474 960.073 387.788 996.08 380.529 1024.61C379.367 1029.11 379.004 1031.87 379.44 1032.67C379.948 1033.68 382.199 1034.05 390.837 1034.77C396.717 1035.28 405.356 1036.15 409.93 1036.81C429.675 1039.49 431.345 1035.64 411.745 1032.45C406.953 1031.72 399.476 1030.34 395.048 1029.47C385.901 1027.59 386.336 1028.31 388.369 1018.87C392.071 1001.6 393.814 953.249 391.418 935.101C389.894 923.34 388.587 920.291 386.699 923.776Z" fill="black"/>
<path d="M577.261 928.131C575.664 928.93 573.123 929.946 571.598 930.382C565.936 931.906 562.379 933.794 562.379 935.318C562.379 937.351 564.92 937.859 571.671 937.278C577.987 936.698 583.794 934.012 585.609 930.817C587.787 926.897 582.778 925.3 577.261 928.131Z" fill="black"/>
<path d="M422.053 954.701C421.763 954.991 421.545 957.605 421.545 960.436C421.545 966.316 419.367 979.238 417.189 986.207C414.866 993.612 413.415 1000.87 414.213 1001.67C415.665 1003.12 417.552 1001.82 418.424 998.548C418.859 996.733 420.238 991.507 421.473 986.933C423.868 977.931 425.683 963.412 424.885 959.275C424.376 956.371 422.852 953.903 422.053 954.701Z" fill="black"/>
<path d="M436.426 963.122C436.281 963.63 435.482 966.752 434.611 970.019C432.869 977.133 432.724 982.069 434.248 983.303C434.902 983.812 435.482 984.102 435.555 983.957C435.7 983.812 436.353 980.545 437.079 976.77C437.805 972.995 438.749 968.639 439.112 967.187C439.693 965.155 439.693 964.211 438.967 963.34C437.878 962.033 436.862 961.961 436.426 963.122Z" fill="black"/>
<path d="M482.233 975.1C481.652 980.98 479.329 991.289 475.699 1003.48C474.247 1008.42 473.086 1013.72 473.086 1015.32C473.086 1017.86 473.304 1018.15 474.901 1018.15C476.28 1018.15 476.788 1017.64 477.151 1016.12C477.369 1015.03 478.676 1010.09 480.055 1005.08C483.177 993.394 484.846 982.868 484.556 976.117C484.266 969.075 482.886 968.494 482.233 975.1Z" fill="black"/>
<path d="M445.862 995.862C444.265 997.242 443.539 999.057 441.797 1006.82C438.966 1019.46 435.191 1030.34 431.271 1037.53C428.004 1043.48 428.004 1043.56 429.746 1043.56C431.634 1043.56 435.191 1040.15 437.078 1036.44C439.111 1032.45 442.813 1021.13 445.499 1010.53C447.822 1001.38 448.476 999.637 449.565 999.637C453.34 999.637 454.428 1008.35 452.396 1022.14C451.089 1031.43 451.017 1036.22 452.323 1039.35C452.904 1040.73 455.59 1044.57 458.203 1047.91C463.721 1054.88 465.245 1057.64 466.552 1063.01C468.439 1071.14 465.318 1079.35 456.679 1088.57C450.871 1094.66 450.871 1095.9 456.606 1092.12C467.423 1084.94 472.868 1072.45 470.182 1060.91C468.947 1055.75 467.859 1053.65 463.212 1047.33L459.292 1042.11H463.793C472.94 1042.11 489.782 1045.73 503.43 1050.53C511.851 1053.5 517.368 1054.52 517.368 1053.07C517.368 1051.91 515.626 1050.96 507.931 1047.91C493.194 1042.03 479.401 1038.62 466.987 1037.82C456.098 1037.17 456.026 1036.95 457.477 1013.65C458.131 1003.05 457.26 999.274 453.412 996.008C450.654 993.757 448.331 993.685 445.862 995.862Z" fill="black"/>
<path d="M335.883 1000.29C334.068 1000.73 331.019 1002.25 329.131 1003.63C327.316 1005.01 324.34 1007.04 322.598 1008.13C318.315 1010.82 312.652 1015.9 312.652 1017.06C312.652 1018.37 314.467 1017.86 323.179 1014.3C335.52 1009.22 343.795 1002.9 341.618 1000.29C340.601 999.056 340.238 999.056 335.883 1000.29Z" fill="black"/>
<path d="M559.037 1008.78C558.819 1009.22 558.892 1009.8 559.182 1010.16C559.545 1010.45 565.643 1013.72 572.83 1017.35C586.26 1024.17 589.309 1025.12 590.688 1022.5C591.341 1021.27 591.051 1020.62 588.438 1018.15C586.768 1016.62 583.937 1014.74 582.049 1014.08C580.234 1013.36 576.895 1012.12 574.717 1011.18C570.942 1009.66 563.683 1007.99 560.852 1007.99C560.126 1007.99 559.327 1008.35 559.037 1008.78Z" fill="black"/>
<path d="M404.121 1040.36C404.194 1043.92 407.17 1050.09 413.05 1058.58C426.045 1077.31 431.417 1093.94 430.836 1113.9L430.618 1121.38L425.174 1123.34C418.422 1125.88 415.446 1127.33 413.631 1129.29C412.615 1130.38 412.107 1130.53 411.671 1129.87C411.163 1129 412.76 1127.26 418.713 1122.47L421.181 1120.51L418.277 1120.94C410.872 1122.03 406.444 1126.17 407.315 1131.03C408.114 1135.32 413.05 1138.29 422.996 1140.47C430.473 1142.07 453.486 1142.79 461.544 1141.63C468.585 1140.62 477.514 1137.79 480.491 1135.61C481.652 1134.81 482.741 1134.3 482.886 1134.45C483.104 1134.59 483.54 1142.58 483.975 1152.16C485.863 1196.22 487.532 1211.32 491.743 1222.72C492.832 1225.55 492.832 1225.92 491.598 1227.22C489.855 1229.11 481.144 1234.19 466.553 1241.81C451.308 1249.73 451.525 1249.15 460.89 1258.87C468.876 1267.15 474.901 1271.5 478.531 1271.65C479.91 1271.72 481.289 1271.58 481.507 1271.36C481.725 1271.07 479.329 1269.04 476.208 1266.71C473.086 1264.39 467.932 1259.89 464.81 1256.77L459.003 1250.96L461.544 1249.58C462.85 1248.78 471.997 1243.92 481.797 1238.76C511.053 1223.23 528.984 1210.09 528.984 1203.99C528.984 1201.81 525.427 1203.85 519.619 1209.36C512.795 1215.82 498.712 1225.62 497.768 1224.61C496.607 1223.23 493.34 1209.73 492.324 1201.81C491.307 1193.68 489.71 1172.85 488.331 1148.82C487.46 1134.52 485.935 1124.43 484.12 1121.96C482.378 1119.56 475.337 1116.08 471.271 1115.57C469.456 1115.43 468.004 1115.5 468.004 1115.72C468.004 1117.46 470.11 1119.42 473.667 1121.02C478.168 1122.98 481.071 1125.3 481.071 1126.82C481.071 1127.62 480.636 1127.55 479.111 1126.46C476.425 1124.72 473.739 1123.63 468.077 1122.39C465.609 1121.81 463.358 1121.16 463.141 1121.02C462.778 1120.58 461.761 1114.19 460.745 1105.48C459.874 1098.37 458.858 1095.24 457.769 1096.33C457.188 1096.91 457.333 1101.92 458.132 1113.47C458.785 1122.47 459.511 1130.82 459.729 1131.98C460.164 1134.01 460.092 1134.08 456.752 1134.59C452.614 1135.1 437.297 1135.17 435.918 1134.66C435.192 1134.37 435.046 1131.32 435.192 1119.42C435.409 1108.46 435.192 1102.65 434.32 1097.42C432.143 1083.41 426.625 1070.56 416.825 1056.26C414.357 1052.63 411.163 1047.77 409.711 1045.3C408.259 1042.9 406.444 1040.36 405.573 1039.56C404.121 1038.26 404.121 1038.26 404.121 1040.36Z" fill="black"/>
<path d="M404.12 1135.9C401.869 1146.42 401.506 1180.91 403.394 1203.99C404.192 1214.15 405.789 1246.89 405.426 1247.19C405.281 1247.33 402.958 1245.95 400.127 1244.14C391.053 1238.18 382.777 1233.76 380.889 1233.76C379.437 1233.76 377.913 1235.21 373.267 1241.16C370.073 1245.3 365.79 1250.45 363.757 1252.63C357.514 1259.38 351.125 1267.29 351.125 1268.38C351.125 1268.89 351.488 1269.33 351.997 1269.33C353.231 1269.33 366.37 1255.68 374.501 1246.02L381.107 1238.18L384.446 1240.07C386.261 1241.09 390.907 1243.99 394.755 1246.53C401.579 1251.03 401.724 1251.11 402.886 1255.32C404.918 1262.43 405.572 1267.8 405.136 1274.34C404.918 1277.75 404.628 1281.23 404.483 1282.03C404.192 1283.56 394.61 1292.12 387.423 1297.42C379.22 1303.37 362.45 1312.81 341.325 1323.41C317.805 1335.17 317.514 1335.39 321.942 1338.58C323.031 1339.31 326.588 1342.72 329.855 1345.99C335.445 1351.79 337.332 1353.1 337.332 1351.29C337.332 1349.91 332.832 1343.95 328.331 1339.38L323.902 1334.95L329.347 1333.28C346.407 1328.13 383.648 1306.5 416.751 1282.47C422.559 1278.26 424.156 1277.46 424.882 1278.18C425.317 1278.69 430.036 1284.35 435.335 1290.74C459.872 1320.43 486.805 1346.86 503.429 1357.53C505.897 1359.13 507.93 1360.58 507.93 1360.8C507.93 1361.16 506.478 1362.03 495.589 1367.84C487.894 1372.05 483.32 1374.88 474.391 1381.2C470.544 1383.95 466.769 1386.2 466.116 1386.2C463.938 1386.2 458.275 1382.79 435.263 1367.62C421.179 1358.33 416.606 1356.22 421.76 1361.52C424.664 1364.5 431.633 1369.65 442.958 1377.27C454.283 1384.82 461.76 1390.85 469.818 1398.69C473.375 1402.25 476.787 1405.01 477.44 1404.93C479.473 1404.5 479.037 1402.32 476.351 1399.34L473.665 1396.37L480.417 1393.1C491.306 1387.95 508.946 1383.45 526.442 1381.49C537.186 1380.25 541.324 1379.31 541.324 1378.07C541.324 1377.2 527.385 1377.71 515.988 1379.02C507.567 1380.03 504.736 1379.31 501.106 1375.31C499.654 1373.65 498.638 1372.05 498.856 1371.69C499.074 1371.39 502.05 1369.87 505.607 1368.42C509.092 1366.97 512.721 1365.22 513.738 1364.43C515.262 1363.26 515.407 1362.9 514.609 1361.23C514.173 1360.14 510.906 1357.31 507.495 1354.77C498.42 1348.31 486.732 1338.73 479.255 1331.69C472.286 1325.08 452.032 1303.59 452.032 1302.72C452.032 1302.5 453.702 1301.85 455.734 1301.41C470.471 1298 506.769 1272.3 537.767 1243.34L540.453 1240.87L545.026 1243.99C570.579 1261.2 606.659 1294.73 606.659 1301.27C606.659 1305.33 601.142 1307.95 585.679 1311.07C562.086 1315.93 528.257 1326.53 519.763 1331.76C516.714 1333.57 516.714 1334.37 519.545 1348.67C522.957 1366.24 526.297 1376.19 528.257 1374.95C529.563 1374.15 528.983 1369.22 526.369 1358.98C523.393 1347.44 522.304 1336.26 523.974 1334.95C529.2 1331.03 561.432 1320.65 583.501 1315.79C598.383 1312.52 608.183 1311.43 628.437 1310.71C638.238 1310.42 647.239 1309.83 648.401 1309.47C650.506 1308.75 650.434 1308.75 646.223 1307.73C643.319 1307.08 637.584 1306.71 628.728 1306.79H615.661L614.354 1303.66C608.837 1290.31 569.345 1253.5 544.3 1238.33C540.525 1236.08 540.38 1236.01 538.13 1237.17C536.895 1237.82 533.048 1241.01 529.563 1244.28C522.231 1251.18 511.923 1258.95 500.816 1265.84C491.814 1271.58 488.91 1273.03 477.077 1278.11C468.366 1281.81 463.139 1285.3 466.188 1285.3C466.987 1285.3 470.616 1284.28 474.319 1283.05C481.578 1280.51 485.208 1280.58 481.796 1283.12C474.319 1288.78 450.58 1301.78 450.58 1300.25C450.58 1299.74 449.346 1297.86 447.822 1296.11C446.297 1294.37 442.595 1289.8 439.473 1285.95C432.141 1276.8 426.551 1271.5 424.156 1271.5C423.139 1271.5 422.196 1271.79 421.978 1272.16C421.179 1273.46 413.339 1277.38 412.831 1276.8C411.96 1275.93 410.798 1260.91 410.29 1245.37C409.927 1233.25 407.604 1193.1 406.66 1182.79C406.515 1180.54 406.66 1169.22 407.023 1157.75C407.459 1146.28 407.459 1135.9 407.169 1134.74C406.225 1131.25 405.063 1131.76 404.12 1135.9Z" fill="black"/>
<path d="M473.886 1145.26C469.24 1148.09 461.181 1149.62 451.526 1149.62C446.663 1149.62 442.452 1149.91 442.234 1150.27C440.637 1152.88 461.762 1153.54 469.457 1151.07C475.555 1149.11 478.895 1147.08 478.895 1145.19C478.895 1143.3 477.08 1143.3 473.886 1145.26Z" fill="black"/>
<path d="M534.791 1201.67C534.791 1202.68 543.793 1210.96 551.343 1216.99C561.578 1225.04 572.54 1232.59 588.148 1242.25C610.217 1255.9 609.927 1255.68 610.144 1257.78C610.29 1259.31 608.983 1260.98 602.667 1267.15C594.899 1274.92 593.52 1277.31 596.932 1277.31C600.199 1277.31 617.549 1259.45 617.549 1256.04C617.549 1255.39 612.903 1252.34 606.66 1248.78C582.776 1235.06 567.241 1224.83 550.762 1211.98C538.639 1202.47 534.791 1200 534.791 1201.67Z" fill="black"/>
<path d="M506.552 1236.37C504.229 1238.33 492.977 1243.48 486.37 1245.66C482.741 1246.89 480.418 1248.56 481.289 1249.44C481.507 1249.65 485.935 1248.49 491.016 1246.82C505.245 1242.18 512.65 1237.68 509.818 1235.28C509.02 1234.63 508.367 1234.84 506.552 1236.37Z" fill="black"/>
<path d="M328.114 1258.15C327.678 1258.36 324.194 1262.21 320.419 1266.64C307.134 1282.32 288.55 1299.45 276.136 1307.37C268.732 1312.01 272.942 1314.04 280.565 1309.47C288.913 1304.54 296.898 1297.64 313.087 1281.23C321.943 1272.3 329.493 1264.97 329.856 1264.97C330.147 1264.97 335.809 1270.42 342.415 1277.02C360.056 1294.73 370.945 1302.5 377.261 1301.85L379.729 1301.63L375.01 1298.8C364.048 1292.12 352.724 1281.96 336.825 1264.75C330.51 1257.86 329.929 1257.42 328.114 1258.15Z" fill="black"/>
<path d="M422.198 1298C419.657 1299.38 414.939 1301.92 411.745 1303.52C388.95 1315.21 368.551 1328.2 368.551 1330.89C368.551 1331.83 370.656 1332.63 371.672 1331.98C372.181 1331.76 375.157 1329.65 378.351 1327.4C384.376 1323.05 407.171 1309.69 417.915 1304.1C425.973 1299.96 431.127 1295.46 427.788 1295.46C427.28 1295.46 424.739 1296.62 422.198 1298Z" fill="black"/>
<path d="M652.395 1318.47C652.395 1333.28 657.984 1361.59 664.445 1379.82C666.623 1385.91 667.93 1387.66 669.237 1386.35C669.89 1385.7 669.672 1384.24 668.293 1379.89C666.986 1375.68 666.551 1372.63 666.551 1367.69V1361.16L672.358 1358.11C675.552 1356.44 680.198 1354.34 682.667 1353.54C687.022 1352.01 689.345 1350.34 688.402 1349.4C687.676 1348.67 675.988 1352.59 669.091 1356C665.679 1357.6 662.703 1359.05 662.485 1359.2C662.195 1359.27 661.832 1358.33 661.614 1357.02C661.396 1355.71 660.38 1350.85 659.364 1346.28C658.347 1341.7 657.041 1333.5 656.387 1328.13C655.226 1318.11 654.282 1313.97 653.048 1313.25C652.685 1312.96 652.395 1315.21 652.395 1318.47Z" fill="black"/>
<path d="M421.181 1321.23C409.348 1327.04 405.065 1330.02 405.791 1331.98C406.444 1333.72 407.098 1333.57 410.727 1330.74C412.47 1329.36 417.696 1326.24 422.342 1323.85C430.546 1319.56 433.885 1317.09 432.651 1316.3C432.288 1316.08 427.134 1318.26 421.181 1321.23Z" fill="black"/>
<path d="M271.273 1319.42C271.273 1322.18 288.187 1340.11 298.06 1347.8C300.165 1349.47 300.383 1349.91 299.657 1351.29C298.786 1352.81 298.713 1352.81 294.503 1349.91C292.18 1348.24 287.389 1344.46 283.832 1341.49C276.935 1335.61 274.902 1334.23 274.902 1335.32C274.902 1336.33 288.768 1348.96 294.721 1353.32C306.263 1361.74 307.207 1363.12 305.029 1367.26L303.868 1369.58L300.456 1366.75C290.728 1358.62 277.225 1351 268.732 1348.82C259.585 1346.49 257.625 1347.58 254.576 1357.09C248.841 1374.81 236.718 1392.01 220.965 1404.57C212.108 1411.76 210.583 1416.19 218.932 1410.6C225.901 1405.88 235.919 1396.73 240.42 1390.92C247.171 1382.21 250.002 1377.71 256.463 1365.22L262.344 1353.9L265.538 1353.97C270.184 1353.97 280.347 1358.76 290.51 1365.73C300.02 1372.19 310.546 1381.2 327.897 1397.82C340.964 1410.38 347.352 1415.68 351.708 1417.57C357.152 1420.03 356.571 1418.58 349.602 1412.56C339.729 1404.06 321.799 1385.48 319.911 1381.92L318.387 1378.87L320.201 1375.75C323.033 1370.89 335.446 1360 346.771 1352.3C353.377 1347.87 356.934 1344.61 356.934 1343.08C356.934 1341.63 355.918 1342.07 348.586 1347C345.827 1348.89 339.221 1353.03 333.922 1356.22L324.339 1362.1L318.75 1358.47C305.9 1350.27 297.334 1342.94 283.686 1328.27C274.249 1318.26 271.273 1316.15 271.273 1319.42Z" fill="black"/>
<path d="M613.193 1326.31C591.996 1328.42 568.62 1334.23 564.918 1338.29C563.684 1339.67 563.684 1339.74 565.063 1339.74C565.789 1339.74 569.056 1338.8 572.25 1337.64C580.598 1334.59 597.803 1331.25 612.105 1329.94C630.761 1328.27 632.867 1327.84 631.778 1326.02C631.124 1325.01 625.099 1325.08 613.193 1326.31Z" fill="black"/>
<path d="M614.283 1337.57C605.354 1339.16 598.457 1340.98 594.9 1342.72C590.327 1345.04 590.762 1346.57 595.553 1344.75C598.53 1343.66 606.297 1342.07 613.63 1341.2C622.922 1340.03 625.535 1339.24 625.535 1337.57C625.535 1335.82 624.374 1335.82 614.283 1337.57Z" fill="black"/>
<path d="M362.015 1347.58C362.015 1348.82 366.153 1353.9 370.799 1358.33C377.115 1364.43 384.52 1369.8 390.763 1372.92L395.99 1375.46L394.901 1378.15C390.109 1389.69 367.678 1412.92 342.052 1432.81C333.05 1439.78 327.896 1445.01 327.896 1447.11C327.896 1447.91 328.912 1449.22 330.074 1450.09C332.614 1451.9 349.747 1460.11 355.046 1462.07C358.095 1463.15 358.386 1463.44 357.224 1464.1C356.498 1464.46 354.828 1464.9 353.522 1465.04C352.142 1465.11 349.602 1466.35 347.569 1467.8C340.963 1472.66 327.605 1487.62 326.226 1491.68C325.863 1492.77 311.707 1482.03 301.762 1473.17C297.551 1469.47 290.582 1463.15 286.154 1459.23C275.773 1449.94 260.092 1438.18 252.397 1433.83C240.71 1427.22 229.022 1422.94 220.964 1422.14C215.156 1421.56 216.173 1422.21 227.788 1426.49C248.985 1434.33 260.238 1441.59 282.379 1461.63C301.181 1478.62 301.617 1479.13 291.235 1471.36C271.199 1456.4 257.479 1448.78 253.486 1450.38C252.397 1450.74 253.341 1451.39 257.624 1453.28C267.134 1457.42 273.595 1461.85 293.631 1477.82C304.593 1486.53 313.595 1492.63 318.676 1494.52C320.636 1495.31 323.25 1496.4 324.411 1496.98C327.242 1498.44 328.767 1497.49 333.34 1491.18C336.462 1486.97 337.333 1486.31 341.616 1484.72C344.23 1483.7 349.456 1481.52 353.231 1479.85C358.603 1477.38 360.854 1476.8 364.121 1476.8C370.364 1476.8 373.485 1478.76 383.503 1489C391.997 1497.71 392.432 1498 395.409 1498C398.748 1498 403.177 1495.39 413.921 1487.18C419.728 1482.76 425.753 1479.85 429.238 1479.85C431.561 1479.85 433.666 1481.01 436.425 1483.7C438.748 1486.02 444.991 1489.29 447.169 1489.29C447.895 1489.29 449.202 1489.65 450.073 1490.16C452.831 1491.68 455.88 1491.32 462.196 1488.56C473.521 1483.55 493.847 1478.04 509.746 1475.57C514.972 1474.77 520.562 1473.68 522.304 1473.17C526.152 1472.08 530.145 1472.95 537.186 1476.58L542.195 1479.13L553.52 1476.58C601.868 1465.84 637.585 1460.47 655.806 1461.12C666.405 1461.56 666.986 1461.27 665.606 1456.19C664.3 1451.47 664.518 1448.78 666.55 1442.83C670.398 1431.65 679.399 1419.96 687.312 1415.9C689.635 1414.81 694.572 1412.99 698.419 1411.9C705.534 1409.94 708.365 1408.56 707.348 1407.55C707.058 1407.26 704.445 1407.4 701.613 1407.84C698.782 1408.35 696.314 1408.56 696.096 1408.35C695.225 1407.55 699.436 1404.43 705.243 1401.45C708.583 1399.78 711.486 1397.96 711.704 1397.38C712.357 1395.57 711.341 1393.25 705.316 1383.3C698.419 1371.98 695.298 1365.44 693.047 1358.04C691.305 1352.23 690.579 1351.36 688.837 1353.03C686.296 1355.64 691.015 1368.27 700.597 1384.17C704.009 1389.91 706.84 1394.99 706.84 1395.42C706.84 1395.93 704.662 1397.53 701.976 1398.98C687.312 1407.04 675.987 1413.79 670.107 1417.86L663.429 1422.43L662.92 1418.36C662.194 1412.27 657.911 1401.16 655.661 1399.27C654.209 1398.11 654.209 1398.47 655.951 1407.11C656.822 1411.18 657.839 1421.7 658.492 1431.94C659.073 1441.74 660.017 1451.32 660.597 1453.35L661.541 1456.98L655.806 1456.69C641.723 1456.11 610.071 1460.83 562.885 1470.7C554.174 1472.52 546.478 1474.04 545.753 1474.04C544.664 1474.04 544.373 1473.25 544.01 1469.47C543.792 1467 543.43 1464.39 543.139 1463.66C542.413 1461.85 547.713 1459.67 555.262 1458.73C564.7 1457.49 568.983 1456.55 568.547 1455.9C567.821 1454.66 558.457 1454.23 551.197 1455.1C542.921 1456.11 529.056 1458.8 520.998 1461.05C507.495 1464.68 483.539 1473.25 467.132 1480.29C456.243 1484.93 452.976 1485.3 450.581 1482.25C449.71 1481.09 447.532 1477.17 445.717 1473.54L442.45 1466.78L450.218 1457.2C454.501 1451.9 461.034 1442.97 464.737 1437.31C472.069 1426.2 480.635 1410.23 480.2 1408.42C479.764 1406.02 476.86 1409.36 469.165 1420.9C465.027 1427.15 458.929 1435.71 455.59 1439.92C448.04 1449.29 433.811 1464.1 423.721 1472.95C416.026 1479.63 402.305 1490.67 400.853 1491.18C400.418 1491.39 396.498 1487.98 392.07 1483.7C379.583 1471.43 364.774 1461.34 345.391 1451.76L334.139 1446.24L336.68 1443.99C338.059 1442.76 345.536 1436.37 353.304 1429.76C380.454 1406.68 402.668 1382.43 410.073 1367.69C412.178 1363.55 413.703 1358.62 412.904 1358.62C412.614 1358.62 410.654 1361.01 408.549 1363.99C406.443 1366.97 403.975 1369.58 403.177 1369.8C399.91 1370.67 395.627 1370.16 391.997 1368.49C386.335 1365.81 375.3 1358.18 369.928 1353.1C365.137 1348.6 362.015 1346.42 362.015 1347.58Z" fill="black"/>
<path d="M260.6 1374.37C257.261 1384.24 252.687 1391.43 243.976 1400.8C234.684 1410.81 233.958 1413.43 242.597 1406.02C247.606 1401.74 254.575 1393.61 258.785 1387C261.616 1382.57 264.302 1375.61 263.722 1374.15C263.141 1372.7 261.108 1372.92 260.6 1374.37Z" fill="black"/>
<path d="M543.067 1379.31C541.978 1382.14 545.39 1399.85 549.237 1411.61C554.029 1425.84 565.934 1448.56 569.346 1449.87C571.596 1450.74 571.161 1449.22 567.023 1441.96C558.094 1426.42 552.069 1409.72 548.294 1390.2C546.479 1380.9 545.753 1378.51 544.736 1378.36C544.083 1378.22 543.285 1378.65 543.067 1379.31Z" fill="black"/>
<path d="M644.046 1387.66C625.389 1390.05 601.36 1395.71 591.414 1400L586.696 1402.03L576.169 1401.01C563.756 1399.85 557.367 1399.78 555.843 1400.72C554.028 1401.88 557.803 1402.68 570.434 1403.99C585.462 1405.51 610.216 1405.51 622.557 1403.99C638.238 1402.03 651.305 1398.55 651.305 1396.37C651.305 1394.63 649.272 1394.7 640.271 1397.02C629.527 1399.71 617.621 1401.23 615.734 1400.14C611.959 1398.11 626.187 1393.9 647.53 1390.85C654.427 1389.91 661.178 1388.74 662.557 1388.24C664.735 1387.51 664.88 1387.37 663.646 1386.86C661.396 1385.99 655.08 1386.28 644.046 1387.66Z" fill="black"/>
<path d="M511.998 1399.71C497.842 1402.17 490.582 1405.44 493.196 1408.06C493.849 1408.71 494.793 1408.49 497.189 1407.4C500.891 1405.59 512.143 1402.47 518.749 1401.38C523.686 1400.65 526.081 1399.63 526.081 1398.55C526.081 1397.46 523.25 1397.75 511.998 1399.71Z" fill="black"/>
<path d="M514.102 1410.16C493.34 1415.46 483.975 1419.53 485.862 1422.57C486.516 1423.66 488.258 1423.3 491.452 1421.49C493.122 1420.54 499.438 1418.22 505.39 1416.33C525.354 1410.02 525.717 1409.87 525.935 1408.49C526.225 1406.97 527.096 1406.82 514.102 1410.16Z" fill="black"/>
<path d="M636.931 1413.21C637.221 1414.15 637.512 1420.61 637.512 1427.58C637.512 1438.62 637.657 1440.29 638.673 1440.5C639.689 1440.65 639.907 1439.56 640.27 1433.25C640.778 1426.2 640.052 1415.75 638.964 1412.85C638.673 1412.19 637.947 1411.61 637.366 1411.61C636.568 1411.61 636.495 1412.05 636.931 1413.21Z" fill="black"/>
<path d="M515.554 1423.3C507.496 1425.04 501.398 1427.87 501.398 1429.83C501.398 1431.58 502.197 1431.58 505.609 1429.83C508.513 1428.38 519.039 1425.04 523.322 1424.32C524.774 1424.03 526.589 1423.37 527.315 1422.79C528.476 1421.92 528.258 1421.85 525.355 1421.85C523.54 1421.85 519.184 1422.5 515.554 1423.3Z" fill="black"/>
<path d="M51.1099 771.205C50.778 772.367 48.6208 780.996 46.2976 790.454C40.4897 814.018 32.5245 829.948 19.0833 844.385C12.9434 851.023 6.13983 858.324 3.98259 860.813L0 865.294L5.31012 863.8C19.4151 859.818 33.6861 845.215 43.6426 824.804C50.1143 811.529 56.9179 789.957 56.9179 782.987C56.9179 778.507 57.9135 778.341 65.3809 781.494C71.8526 784.149 94.2547 788.463 110.351 790.122C121.469 791.118 121.635 791.284 120.639 795.599C113.504 827.791 99.7307 857.661 86.4554 869.608C70.5251 883.879 51.4418 886.203 26.2187 877.076C4.64636 869.277 1.9913 868.447 0.995648 869.442C0.497824 869.94 1.32753 872.263 2.821 874.753C8.62895 883.382 36.839 892.508 58.5773 892.674C71.1888 892.84 73.512 892.342 80.4815 888.36C95.7481 879.233 111.181 854.342 121.635 821.485C124.788 811.529 126.945 800.909 127.111 794.935L127.443 784.978L115.827 783.651C97.5735 781.659 78.4902 777.511 67.5381 773.196C56.2541 768.716 52.1056 768.218 51.1099 771.205Z" fill="black"/>
<path d="M65.2126 799.913C62.8894 802.734 63.2213 802.9 76.4966 805.555C86.785 807.712 96.7414 807.878 96.7414 806.053C96.7414 805.057 71.5184 797.258 68.3655 797.424C67.7017 797.424 66.3742 798.585 65.2126 799.913Z" fill="black"/>
<path d="M63.7205 814.018C60.0698 816.175 63.2227 818.664 72.5154 820.822C82.4719 822.979 88.4458 822.149 81.8081 819.328C79.485 818.333 75.0046 816.507 71.6857 815.18C68.3669 813.686 64.8821 813.188 63.7205 814.018Z" fill="black"/>
<path d="M34.8466 848.368C31.6937 851.355 34.6806 853.678 45.7987 856.997C57.4146 860.316 73.5109 861.809 73.5109 859.154C73.5109 858.158 39.4929 846.874 36.8379 847.206C36.3401 847.206 35.3444 847.704 34.8466 848.368Z" fill="black"/>
<path d="M100.393 883.879C97.5724 890.019 94.4195 893.67 88.7775 897.321C81.9739 901.801 81.6421 902.133 85.9565 901.137C93.4239 899.478 101.721 892.342 105.04 884.875C108.027 878.403 108.027 875.416 105.372 875.416C104.708 875.416 102.385 879.233 100.393 883.879Z" fill="black"/>
<path d="M106.698 894.334C105.868 896.491 102.55 900.474 99.0648 902.963C91.9293 908.439 93.9206 910.098 102.55 905.95C109.353 902.797 114.165 896.657 112.672 892.84C111.344 889.19 108.523 889.853 106.698 894.334Z" fill="black"/>
<path d="M110.723 1004.21C100.103 1014.17 89.483 1019.31 65.5875 1026.28C51.1506 1030.27 47.168 1032.09 47.168 1034.42C47.168 1035.91 50.4868 1041.72 54.6353 1047.19C80.8541 1082.04 127.484 1106.43 157.353 1100.96C168.637 1098.8 181.912 1091.33 193.196 1080.71C200.664 1073.58 209.293 1059.8 207.467 1057.98C206.969 1057.48 199.834 1062.96 191.537 1070.09C167.973 1090.5 157.021 1095.15 138.768 1092.16C116.531 1088.68 95.4569 1076.9 73.8845 1055.82C64.094 1046.36 61.9367 1043.38 62.4346 1039.73C62.9324 1035.91 64.4259 1034.91 77.0374 1030.93C93.7975 1025.62 103.588 1020.81 113.047 1013.34C116.863 1010.19 120.182 1007.7 120.68 1007.7C121.012 1007.7 123.999 1011.68 127.152 1016.33C144.244 1041.88 173.283 1057.65 195.685 1053.5C206.804 1051.34 200.664 1047.69 181.414 1045.2C162.663 1042.55 141.755 1027.11 129.973 1006.87C126.654 1001.39 123.003 996.747 121.676 996.581C120.348 996.249 115.37 999.734 110.723 1004.21Z" fill="black"/>
<path d="M111.884 1033.42C110.722 1034.91 103.421 1039.56 95.7872 1043.71C83.1757 1050.84 79.3591 1054.16 83.6735 1054.16C86.8264 1054.16 109.394 1043.71 114.87 1039.73C117.691 1037.57 120.181 1034.58 120.181 1033.25C120.181 1030.1 114.539 1030.27 111.884 1033.42Z" fill="black"/>
<path d="M129.475 1045.53C128.977 1046.53 123.667 1049.85 117.859 1053.17C108.068 1058.64 102.592 1064.29 107.405 1063.95C108.566 1063.95 114.208 1061.46 120.016 1058.64C131.466 1052.84 135.449 1048.85 132.296 1045.7C131.134 1044.54 130.138 1044.54 129.475 1045.53Z" fill="black"/>
<path d="M149.552 1062.79C140.26 1068.77 141.089 1072.42 150.88 1068.27C159.177 1064.95 161.666 1062.79 160.505 1059.8C159.343 1056.65 158.679 1056.82 149.552 1062.79Z" fill="black"/>
<path d="M126.82 1111.74C126.82 1116.06 146.235 1120.87 154.201 1118.71C163.825 1116.06 161.336 1112.91 149.72 1112.91C143.912 1112.91 136.445 1112.24 133.126 1111.58C128.978 1110.58 126.82 1110.75 126.82 1111.74Z" fill="black"/>
<path d="M127.984 1124.85C126.491 1126.51 135.451 1131.82 140.264 1132.15C148.063 1132.82 150.386 1132.15 149.722 1129.5C149.391 1127.67 147.067 1126.68 141.757 1126.35C137.609 1126.18 133.128 1125.52 131.635 1124.85C130.307 1124.19 128.648 1124.36 127.984 1124.85Z" fill="black"/>
<path d="M572.201 93.1129C571.911 94.127 570.028 101.66 568 109.918C562.929 130.49 555.975 144.398 544.241 157.002C538.88 162.797 532.94 169.172 531.057 171.345L527.58 175.256L532.216 173.953C544.53 170.476 556.989 157.727 565.682 139.907C571.332 128.317 577.272 109.484 577.272 103.399C577.272 99.4874 578.141 99.3425 584.66 102.095C590.31 104.413 609.868 108.18 623.921 109.629C633.628 110.498 633.773 110.643 632.903 114.409C626.674 142.515 614.649 168.592 603.059 179.023C589.151 191.482 572.491 193.51 550.47 185.542C531.637 178.733 529.319 178.009 528.449 178.878C528.015 179.313 528.739 181.341 530.043 183.514C535.114 191.048 559.742 199.016 578.721 199.161C589.731 199.305 591.759 198.871 597.844 195.394C611.172 187.426 624.646 165.695 633.773 137.01C636.525 128.317 638.409 119.045 638.553 113.83L638.843 105.137L628.702 103.978C612.766 102.24 596.105 98.6181 586.544 94.8514C576.692 90.9398 573.07 90.5052 572.201 93.1129Z" fill="black"/>
<path d="M584.514 118.176C582.486 120.639 582.776 120.784 594.366 123.102C603.348 124.985 612.04 125.13 612.04 123.536C612.04 122.667 590.019 115.858 587.267 116.003C586.687 116.003 585.528 117.017 584.514 118.176Z" fill="black"/>
<path d="M583.21 130.49C580.023 132.374 582.775 134.547 590.888 136.43C599.581 138.314 604.796 137.589 599.001 135.126C596.973 134.257 593.062 132.664 590.164 131.505C587.267 130.201 584.224 129.766 583.21 130.49Z" fill="black"/>
<path d="M558.003 160.479C555.25 163.087 557.858 165.115 567.565 168.013C577.706 170.91 591.759 172.214 591.759 169.896C591.759 169.027 562.06 159.175 559.742 159.465C559.307 159.465 558.438 159.9 558.003 160.479Z" fill="black"/>
<path d="M615.227 191.482C612.764 196.843 610.011 200.03 605.086 203.217C599.146 207.129 598.856 207.418 602.623 206.549C609.142 205.1 616.386 198.871 619.283 192.352C621.891 186.701 621.891 184.094 619.573 184.094C618.994 184.094 616.965 187.426 615.227 191.482Z" fill="black"/>
<path d="M620.732 200.609C620.008 202.493 617.11 205.97 614.068 208.143C607.838 212.924 609.577 214.373 617.11 210.751C623.05 207.998 627.251 202.638 625.947 199.306C624.788 196.118 622.325 196.698 620.732 200.609Z" fill="black"/>
<path d="M554.211 707.948C544.939 716.641 535.667 721.132 514.806 727.217C502.202 730.694 498.725 732.287 498.725 734.315C498.725 735.619 501.622 740.69 505.244 745.471C528.134 775.894 568.844 797.191 594.921 792.41C604.772 790.526 616.362 784.007 626.214 774.735C632.733 768.506 640.266 756.481 638.673 754.887C638.238 754.453 632.009 759.234 624.765 765.463C604.193 783.283 594.631 787.339 578.695 784.731C559.282 781.689 540.883 771.403 522.049 753.004C513.502 744.746 511.618 742.139 512.053 738.951C512.488 735.619 513.791 734.75 524.802 731.273C539.434 726.637 547.982 722.436 556.24 715.916C559.572 713.164 562.469 710.991 562.904 710.991C563.193 710.991 565.801 714.468 568.554 718.524C583.476 740.835 608.829 754.598 628.387 750.976C638.093 749.092 632.733 745.905 615.928 743.732C599.557 741.414 581.303 727.941 571.017 710.266C568.119 705.485 564.932 701.429 563.773 701.284C562.614 700.994 558.268 704.037 554.211 707.948Z" fill="black"/>
<path d="M555.224 733.446C554.21 734.75 547.836 738.806 541.172 742.428C530.161 748.658 526.829 751.555 530.596 751.555C533.348 751.555 553.051 742.428 557.832 738.951C560.295 737.068 562.468 734.46 562.468 733.301C562.468 730.549 557.542 730.694 555.224 733.446Z" fill="black"/>
<path d="M570.582 744.022C570.148 744.891 565.512 747.789 560.441 750.686C551.894 755.467 547.113 760.393 551.314 760.103C552.328 760.103 557.254 757.93 562.325 755.467C572.321 750.396 575.798 746.919 573.045 744.167C572.031 743.153 571.162 743.153 570.582 744.022Z" fill="black"/>
<path d="M588.112 759.089C579.999 764.304 580.723 767.492 589.271 763.87C596.515 760.972 598.688 759.089 597.674 756.481C596.66 753.728 596.08 753.873 588.112 759.089Z" fill="black"/>
<path d="M568.264 801.826C568.264 805.593 585.214 809.794 592.168 807.911C600.571 805.593 598.397 802.841 588.256 802.841C583.186 802.841 576.666 802.261 573.769 801.682C570.147 800.812 568.264 800.957 568.264 801.826Z" fill="black"/>
<path d="M569.279 813.272C567.976 814.72 575.799 819.356 580 819.646C586.809 820.225 588.837 819.646 588.258 817.328C587.968 815.734 585.94 814.865 581.304 814.575C577.682 814.431 573.771 813.851 572.467 813.272C571.308 812.692 569.859 812.837 569.279 813.272Z" fill="black"/>
</svg>
