<svg width="464" height="488" viewBox="0 0 464 488" fill="none" xmlns="http://www.w3.org/2000/svg">
<g clip-path="url(#clip0_3209_1414)">
<mask id="mask0_3209_1414" style="mask-type:luminance" maskUnits="userSpaceOnUse" x="0" y="0" width="464" height="488">
<path d="M464 0H0V488H464V0Z" fill="white"/>
</mask>
<g mask="url(#mask0_3209_1414)">
<mask id="mask1_3209_1414" style="mask-type:luminance" maskUnits="userSpaceOnUse" x="-7" y="-24" width="488" height="516">
<path d="M-6.76172 -23.6099H480.758V491.61H-6.76172V-23.6099Z" fill="white"/>
</mask>
<g mask="url(#mask1_3209_1414)">
<path d="M170.381 289.572C176.691 230.721 112.33 130.231 56.1681 111.245C49.8581 170.099 114.219 270.587 170.381 289.572Z" fill="#F04E37"/>
<path d="M195.805 329.236C195.622 329.236 195.442 329.15 195.337 328.984L44.8593 95.2012C44.6903 94.9436 44.7679 94.6001 45.0255 94.4312C45.2858 94.265 45.6293 94.3397 45.7983 94.6001L196.273 328.377C196.442 328.637 196.367 328.984 196.107 329.15C196.013 329.208 195.91 329.236 195.805 329.236Z" fill="#231F20"/>
<path d="M184.611 312.35C142.196 312.35 84.7326 288.074 66.1155 258.349C66.0102 258.177 65.9853 257.966 66.0545 257.778C66.1182 257.59 66.265 257.44 66.4534 257.376C106.901 243.144 187.549 271.323 210.28 307.619C210.388 307.79 210.41 307.998 210.344 308.187C210.277 308.375 210.131 308.524 209.942 308.588C202.624 311.164 193.981 312.35 184.611 312.35ZM67.6805 258.351C90.605 293.677 168.719 320.97 208.718 307.616C185.788 272.287 107.674 244.995 67.6805 258.351Z" fill="#231F20"/>
<path d="M217.427 311.142C217.355 311.142 217.283 311.128 217.21 311.106L53.1351 254.208C52.7944 254.091 52.6143 253.712 52.7307 253.368C52.8498 253.025 53.2265 252.847 53.57 252.961L217.643 309.86C217.986 309.976 218.169 310.355 218.05 310.699C217.956 310.97 217.698 311.142 217.427 311.142Z" fill="#231F20"/>
<path d="M365.145 261.379C383.471 210.306 360.696 150.709 314.573 124.209L314.354 124.192C285.488 106.467 244.519 103.165 212.814 116.461L212.648 116.45C194.003 124.087 177.289 136.352 164.824 152.144L164.713 152.657C143.237 180.049 135.005 216.652 143.583 251.318L143.417 252.1C173.391 363.6 326.913 369.733 365.145 261.379Z" fill="white"/>
<path d="M158.41 434.446C158.318 434.327 158.23 434.175 158.138 434.056C157.03 432.352 155.98 430.615 155.05 428.851C142.607 405.328 146.296 375.523 166.113 355.739L197.951 323.956C214.92 333.743 234.648 339.341 255.664 339.341C273.564 339.341 290.472 335.3 305.61 328.056C343.147 310.131 369.498 272.603 371.329 228.76L420.643 278.587L254.343 443.811C253.235 444.919 252.127 445.969 250.958 446.925C223.136 452.88 195.342 452.313 167.523 445.16C167.041 444.745 166.565 444.26 166.113 443.811C163.205 440.881 160.628 437.74 158.41 434.446Z" fill="#72A0D5"/>
<path d="M167.523 445.16C195.343 452.312 223.137 452.877 250.956 446.925C239.294 457.01 224.752 462.068 210.242 462.068C194.863 462.068 179.518 456.412 167.523 445.16Z" fill="#213468"/>
<path d="M197.953 323.956L166.112 355.739C146.295 375.52 142.605 405.328 155.048 428.851C131.905 434.446 108.792 435.524 85.6763 432.053C83.5489 430.435 81.5379 428.668 79.5906 426.723C55.2146 402.392 55.2146 362.952 79.5906 338.651L149.206 269.16C159.098 292.265 176.308 311.505 197.953 323.956Z" fill="#72A0D5"/>
<path d="M158.139 434.058C158.23 434.177 158.319 434.327 158.41 434.446C147.945 441.448 135.835 444.952 123.722 444.952C110.29 444.952 96.8306 440.642 85.6758 432.053C108.791 435.523 131.907 434.446 155.05 428.848C155.981 430.615 157.031 432.354 158.139 434.058Z" fill="#213468"/>
<path d="M141.95 388.597C141.781 388.597 141.612 388.533 141.484 388.406C141.224 388.145 141.224 387.73 141.484 387.472L151.099 377.805C151.359 377.545 151.631 377.697 151.888 377.955C152.149 378.212 152.149 378.628 151.888 378.888L142.412 388.406C142.285 388.533 142.119 388.597 141.95 388.597Z" fill="#231F20"/>
<path d="M158.137 434.717C157.923 434.717 157.713 434.606 157.585 434.415C156.347 432.512 155.331 430.792 154.466 429.158C141.483 404.604 145.974 374.913 165.646 355.271L197.484 323.491C197.742 323.233 198.158 323.233 198.415 323.491C198.676 323.751 198.676 324.166 198.415 324.424L166.58 356.204C147.317 375.434 142.918 404.505 155.633 428.54C156.475 430.144 157.475 431.831 158.691 433.695C158.887 434.002 158.804 434.412 158.497 434.609C158.386 434.681 158.258 434.717 158.137 434.717Z" fill="#231F20"/>
<path d="M228.473 405.715C228.304 405.715 228.135 405.652 228.008 405.524C227.747 405.264 227.747 404.848 228.008 404.591L305.144 327.59C305.404 327.33 305.82 327.33 306.077 327.59C306.338 327.848 306.338 328.261 306.077 328.521L228.939 405.524C228.811 405.652 228.642 405.715 228.473 405.715Z" fill="#231F20"/>
<path d="M340.844 115.204L340.844 115.17C340.878 114.874 340.894 114.569 340.925 114.272C340.994 113.626 341.047 112.977 341.094 112.326C341.168 111.276 341.207 110.223 341.225 109.159C341.235 108.624 341.299 108.103 341.295 107.563C341.027 75.9967 315.219 50.6228 283.653 50.8906C269.344 51.012 256.342 56.4159 246.389 65.1902C244.623 64.3797 242.747 63.9884 240.844 64.0045C237.487 64.033 234.172 65.352 231.645 67.9164C226.734 72.9027 226.669 80.8645 231.44 85.9155C231.071 86.7912 230.771 87.6968 230.446 88.5943C230.433 88.6332 230.416 88.6749 230.403 88.7138C229.843 90.267 229.346 91.8474 228.922 93.4604C228.772 94.0268 228.633 94.5986 228.499 95.1732C228.256 96.2251 228.035 97.2824 227.85 98.356C227.652 99.4934 227.485 100.639 227.353 101.798C227.299 102.305 227.243 102.81 227.2 103.32C227.059 104.983 226.982 106.665 226.988 108.366C226.988 108.422 226.981 108.477 226.981 108.532C226.981 108.549 226.984 108.568 226.984 108.585C226.985 108.618 226.982 108.654 226.982 108.687C227.249 140.17 253.071 165.478 284.606 165.21C286.495 165.194 288.353 165.067 290.193 164.875C290.332 164.86 290.47 164.85 290.609 164.835C292.374 164.634 294.114 164.348 295.829 163.993C296.025 163.952 296.221 163.912 296.415 163.869C298.126 163.494 299.81 163.048 301.459 162.524C301.58 162.487 301.696 162.445 301.818 162.405C305.293 161.275 308.624 159.829 311.77 158.09C311.79 158.079 311.806 158.073 311.826 158.062C313.381 157.199 314.888 156.261 316.35 155.262C316.441 155.2 316.529 155.139 316.617 155.077C318.058 154.081 319.448 153.022 320.787 151.903C320.853 151.847 320.919 151.791 320.985 151.735C323.661 149.474 326.125 146.971 328.343 144.26C328.442 144.14 328.543 144.025 328.639 143.906C328.719 143.805 328.806 143.716 328.886 143.615C331.908 146.554 336.031 148.314 340.557 148.275C349.701 148.198 357.072 140.742 356.995 131.585C356.919 122.635 349.722 115.427 340.844 115.204Z" fill="#F59EC4"/>
<path d="M346.118 129.259C345.957 129.318 342.149 130.616 338.73 127.271L338.721 127.26C338.621 127.164 338.493 127.138 338.365 127.117C338.302 127.106 338.254 127.093 338.191 127.099C338.047 127.114 337.9 127.157 337.79 127.268C337.532 127.531 337.536 127.946 337.798 128.202C341.217 131.558 340.003 135.363 339.949 135.522C339.836 135.866 340.022 136.241 340.366 136.357C340.438 136.382 340.511 136.392 340.583 136.392C340.854 136.389 341.107 136.215 341.199 135.946C341.248 135.801 342.098 133.182 340.785 130.204C342.022 130.72 343.198 130.879 344.159 130.871C345.536 130.859 346.48 130.53 346.566 130.496C346.905 130.374 347.082 129.996 346.96 129.656C346.838 129.313 346.455 129.145 346.118 129.259Z" fill="#231F20"/>
<path d="M339.983 96.1582L265.708 53.9211C268.161 53.1219 291.354 44.8336 315.091 59.8678C335.419 72.7425 339.359 93.1413 339.983 96.1582Z" fill="#213468"/>
<path d="M267.502 85.5071C267.333 85.5085 267.166 85.4435 267.037 85.3171L249.624 68.2265C248.651 67.2459 247.514 66.4467 246.24 65.837C245.912 65.6818 245.773 65.2897 245.928 64.9615C246.086 64.6277 246.487 64.4914 246.809 64.6493C248.22 65.3215 249.476 66.2084 250.552 67.2907L267.957 84.3786C268.22 84.634 268.224 85.0467 267.965 85.3093C267.839 85.4378 267.671 85.5057 267.502 85.5071Z" fill="#231F20"/>
<path d="M249.219 104.067C249.05 104.068 248.881 104.006 248.752 103.88L231.336 86.7891C231.076 86.5337 231.072 86.1182 231.328 85.8556C231.583 85.5958 232.001 85.5923 232.261 85.8477L249.675 102.938C249.937 103.194 249.941 103.609 249.683 103.872C249.556 104 249.388 104.065 249.219 104.067Z" fill="#231F20"/>
<path d="M307.631 115.303C303.807 123.354 297.026 129.531 288.791 132.568C286.278 133.503 283.674 134.132 281.034 134.451C272.797 135.806 264.266 133.981 257.201 129.26" stroke="#F04E37" stroke-width="18.005" stroke-linecap="round" stroke-linejoin="round"/>
<path d="M307.631 115.303C303.807 123.354 297.026 129.531 288.791 132.568C286.278 133.503 283.674 134.132 281.034 134.451C272.797 135.806 264.266 133.981 257.201 129.26" stroke="#231F20" stroke-width="2.77" stroke-linecap="round" stroke-linejoin="round"/>
<path d="M298.168 95.8204C292.075 95.8721 285.49 92.5817 285.427 85.2359C285.424 84.873 285.715 84.5742 286.078 84.5711C286.444 84.568 286.74 84.8619 286.743 85.2247C286.798 91.6648 292.7 94.5482 298.157 94.5019C303.617 94.4556 309.464 91.4724 309.409 85.0324C309.406 84.6696 309.7 84.3707 310.063 84.3676C310.426 84.3645 310.725 84.6584 310.728 85.0212C310.79 92.367 304.262 95.7687 298.168 95.8204Z" fill="#231F20"/>
<path d="M287.977 60.5521L296.381 65.3561L287.977 60.5521ZM278.563 55.161L296.384 65.3589L304.818 70.1932L312.378 74.5002L320.877 79.3645L330.004 84.5862L334.071 86.9146C335.157 87.5342 336.327 87.7653 337.465 87.6947C339.445 87.5892 341.325 86.5234 342.357 84.6615L344.426 81.0816C345.933 78.4344 345.242 75.1189 342.889 73.3134L342.95 73.2547C351.575 58.187 346.348 38.9542 331.253 30.3149L325.861 27.2471C310.766 18.6078 291.535 23.771 282.91 38.8692L282.847 38.9556C280.078 37.8738 276.877 38.948 275.343 41.5926L273.307 45.2027C272.004 47.4299 272.327 50.1778 273.875 52.0512L273.902 52.0509C274.325 52.5847 274.872 53.0926 275.535 53.4443L278.758 55.2701" fill="white"/>
<path d="M342.951 73.2548L283.61 39.3287L283.418 39.2223L282.875 38.9277" stroke="#231F20" stroke-width="1.385" stroke-linecap="round" stroke-linejoin="round"/>
<path d="M328.973 65.2599L320.877 79.3674" stroke="#231F20" stroke-width="1.385" stroke-linecap="round" stroke-linejoin="round"/>
<path d="M312.915 56.0909L304.818 70.193" stroke="#231F20" stroke-width="1.385" stroke-linecap="round" stroke-linejoin="round"/>
<path d="M296.042 46.4447L287.978 60.552" stroke="#231F20" stroke-width="1.385" stroke-linecap="round" stroke-linejoin="round"/>
<path d="M304.477 51.2516L296.381 65.3591" stroke="#231F20" stroke-width="1.385" stroke-linecap="round" stroke-linejoin="round"/>
<path d="M286.823 41.1684L278.76 55.2756" stroke="#231F20" stroke-width="1.385" stroke-linecap="round" stroke-linejoin="round"/>
<path d="M320.477 60.4259L312.381 74.5002" stroke="#231F20" stroke-width="1.385" stroke-linecap="round" stroke-linejoin="round"/>
<path d="M338.069 70.4818L330.006 84.5891" stroke="#231F20" stroke-width="1.385" stroke-linecap="round" stroke-linejoin="round"/>
<path d="M412.131 192.547C413.687 192.279 415.369 192.517 416.898 193.265L438.543 204.306C442.351 206.25 443.85 210.89 441.93 214.691C440.551 217.355 437.853 218.882 435.033 218.882C433.864 218.882 432.634 218.613 431.526 218.045L409.851 207.029C406.045 205.087 404.546 200.45 406.494 196.647C407.663 194.373 409.793 192.905 412.131 192.547Z" fill="#F59EC4"/>
<path d="M431.525 218.042C435.333 219.987 436.829 224.627 434.882 228.427C433.5 231.12 430.807 232.646 427.987 232.646C426.788 232.646 425.589 232.377 424.478 231.809L402.833 220.765C399.024 218.821 397.526 214.181 399.476 210.381C400.135 209.062 401.154 207.987 402.354 207.298C403.553 206.58 404.936 206.192 406.343 206.192C407.512 206.192 408.739 206.464 409.849 207.032L431.525 218.042Z" fill="#F59EC4"/>
<path d="M424.332 232.139C428.111 234.083 429.637 238.723 427.689 242.524C426.307 245.188 423.612 246.712 420.823 246.712C419.626 246.712 418.427 246.44 417.285 245.872L395.641 234.831C391.832 232.914 390.333 228.247 392.253 224.477C393.635 221.785 396.328 220.258 399.147 220.258C400.347 220.258 401.546 220.527 402.657 221.095L424.332 232.139Z" fill="#F59EC4"/>
<path d="M424.481 231.812L424.331 232.142L402.653 221.098C401.545 220.53 400.348 220.258 399.149 220.258C396.329 220.258 393.631 221.787 392.252 224.48C390.332 228.25 391.831 232.917 395.639 234.834L417.284 245.878L417.226 245.967L395.581 234.953C394.44 234.385 393.243 234.114 392.044 234.114C389.254 234.114 386.556 235.643 385.177 238.305C383.227 242.108 384.759 246.745 388.565 248.69L408.412 258.836C406.553 260.124 404.514 261.199 402.235 261.916L380.59 268.922C364.851 274.01 347.943 265.418 342.846 249.706C341.857 246.654 341.375 243.543 341.375 240.49C341.375 227.862 349.441 216.131 362.122 212.029L398.398 200.27L399.625 204.04L402.354 207.303C401.154 207.99 400.135 209.068 399.476 210.383C397.528 214.186 399.027 218.823 402.836 220.768L424.481 231.812Z" fill="#F59EC4"/>
<path d="M408.41 258.837L388.563 248.69C384.754 246.745 383.228 242.108 385.175 238.305C386.555 235.643 389.253 234.114 392.039 234.114C393.239 234.114 394.438 234.386 395.577 234.954L417.221 245.967C421.03 247.912 422.556 252.582 420.609 256.352C419.23 259.044 416.534 260.573 413.717 260.573C412.518 260.573 411.316 260.302 410.208 259.734L408.438 258.837H408.41Z" fill="#F59EC4"/>
<path d="M406.821 176.207L412.128 192.547C409.791 192.905 407.663 194.37 406.494 196.644C404.544 200.445 406.04 205.084 409.849 207.029C408.741 206.461 407.514 206.192 406.342 206.192C404.935 206.192 403.553 206.58 402.353 207.3L399.625 204.037L398.398 200.267L392.132 180.966C390.811 176.897 393.029 172.556 397.079 171.238C397.888 170.969 398.697 170.847 399.475 170.847C402.744 170.847 405.771 172.944 406.821 176.207Z" fill="#F59EC4"/>
<path d="M399.629 204.699C399.352 204.699 399.095 204.522 399.001 204.242L397.771 200.475C397.657 200.132 397.851 199.758 398.195 199.644C398.538 199.528 398.915 199.719 399.028 200.065L400.258 203.835C400.372 204.178 400.178 204.552 399.834 204.663C399.765 204.688 399.699 204.699 399.629 204.699Z" fill="#231F20"/>
<path d="M424.481 232.468C424.378 232.468 424.276 232.443 424.179 232.396L402.534 221.355C400.534 220.333 399.055 218.599 398.368 216.472C397.681 214.347 397.869 212.078 398.891 210.081C399.595 208.68 400.706 207.486 402.027 206.729C404.467 205.261 407.667 205.173 410.151 206.444C410.476 206.61 410.603 207.006 410.437 207.331C410.268 207.657 409.874 207.779 409.548 207.616C407.467 206.547 404.772 206.619 402.692 207.868C401.584 208.502 400.656 209.499 400.066 210.677C399.199 212.366 399.046 214.278 399.625 216.07C400.202 217.857 401.451 219.319 403.135 220.181L424.78 231.225C425.107 231.388 425.234 231.784 425.068 232.108C424.952 232.338 424.722 232.468 424.481 232.468Z" fill="#231F20"/>
<path d="M417.284 246.535C417.182 246.535 417.082 246.51 416.985 246.463L395.34 235.419C393.354 234.419 391.875 232.698 391.177 230.574C390.476 228.441 390.651 226.17 391.665 224.178C393.111 221.35 395.977 219.599 399.146 219.599C400.495 219.599 401.778 219.904 402.955 220.51L424.628 231.552C424.954 231.715 425.082 232.111 424.916 232.435C424.752 232.762 424.351 232.89 424.032 232.726L402.354 221.682C401.36 221.172 400.285 220.918 399.146 220.918C396.473 220.918 394.058 222.397 392.836 224.779C391.983 226.455 391.842 228.366 392.432 230.161C393.016 231.951 394.26 233.399 395.936 234.241L417.583 245.291C417.91 245.454 418.038 245.85 417.872 246.175C417.755 246.404 417.525 246.535 417.284 246.535Z" fill="#231F20"/>
<path d="M408.438 259.493H408.41C408.305 259.493 408.2 259.465 408.109 259.421L388.264 249.274C386.253 248.249 384.763 246.504 384.073 244.366C383.386 242.247 383.569 239.986 384.586 238.003C386.04 235.194 388.899 233.455 392.04 233.455C393.375 233.455 394.666 233.762 395.873 234.363L417.521 245.377C417.848 245.543 417.975 245.936 417.809 246.263C417.643 246.59 417.247 246.715 416.925 246.551L395.278 235.538C394.259 235.033 393.17 234.773 392.04 234.773C389.392 234.773 386.987 236.238 385.76 238.607C384.904 240.274 384.752 242.177 385.325 243.958C385.907 245.764 387.165 247.235 388.863 248.102L408.674 258.229C408.912 258.332 409.084 258.565 409.084 258.833C409.084 259.196 408.801 259.493 408.438 259.493Z" fill="#231F20"/>
<path d="M431.525 218.702C431.423 218.702 431.323 218.677 431.226 218.63L409.551 207.619C407.548 206.597 406.072 204.863 405.385 202.736C404.695 200.608 404.886 198.342 405.906 196.345C407.135 193.96 409.421 192.295 412.03 191.894C412.39 191.844 412.728 192.085 412.781 192.445C412.836 192.805 412.59 193.14 412.23 193.196C410.038 193.536 408.111 194.941 407.077 196.946C406.216 198.628 406.063 200.539 406.64 202.326C407.219 204.118 408.465 205.58 410.152 206.442L431.824 217.458C432.149 217.621 432.279 218.018 432.113 218.342C431.996 218.572 431.766 218.702 431.525 218.702Z" fill="#231F20"/>
<path d="M345.873 231.906L339.22 232.394C337.588 232.51 336.162 231.283 336.043 229.651L336.031 229.468C335.912 227.837 337.139 226.413 338.771 226.294L345.424 225.806C347.059 225.69 348.485 226.917 348.602 228.549L348.613 228.732C348.732 230.363 347.508 231.787 345.873 231.906Z" fill="#F04E37"/>
<path d="M201.427 265.83C201.427 267.509 200.064 268.866 198.385 268.866C196.704 268.866 195.344 267.509 195.344 265.83C195.344 264.155 196.704 262.794 198.385 262.794C200.064 262.794 201.427 264.155 201.427 265.83Z" fill="#F04E37"/>
<path d="M263.419 304.497C263.419 306.175 262.056 307.533 260.377 307.533C258.696 307.533 257.336 306.175 257.336 304.497C257.336 302.821 258.696 301.461 260.377 301.461C262.056 301.461 263.419 302.821 263.419 304.497Z" fill="#F04E37"/>
<path d="M270.661 308.89C270.661 310.569 269.298 311.926 267.62 311.926C265.938 311.926 264.578 310.569 264.578 308.89C264.578 307.214 265.938 305.854 267.62 305.854C269.298 305.854 270.661 307.214 270.661 308.89Z" fill="#F04E37"/>
<path d="M260.38 322.64C260.38 324.319 259.017 325.676 257.338 325.676C255.657 325.676 254.297 324.319 254.297 322.64C254.297 320.965 255.657 319.604 257.338 319.604C259.017 319.604 260.38 320.965 260.38 322.64Z" fill="#F59EC4"/>
<path d="M387.38 204.046C387.38 205.722 386.017 207.082 384.338 207.082C382.657 207.082 381.297 205.722 381.297 204.046C381.297 202.367 382.657 201.01 384.338 201.01C386.017 201.01 387.38 202.367 387.38 204.046Z" fill="#F04E37"/>
<path d="M381.001 230.286C381.001 231.962 379.638 233.322 377.959 233.322C376.278 233.322 374.918 231.962 374.918 230.286C374.918 228.607 376.278 227.25 377.959 227.25C379.638 227.25 381.001 228.607 381.001 230.286Z" fill="#F04E37"/>
<path d="M362.313 223.474C362.313 225.15 360.951 226.51 359.272 226.51C357.591 226.51 356.23 225.15 356.23 223.474C356.23 221.796 357.591 220.438 359.272 220.438C360.951 220.438 362.313 221.796 362.313 223.474Z" fill="#F04E37"/>
</g>
<mask id="mask2_3209_1414" style="mask-type:luminance" maskUnits="userSpaceOnUse" x="-918" y="-762" width="1512" height="1284">
<path d="M-918 -762H594V522H-918V-762Z" fill="white"/>
</mask>
<g mask="url(#mask2_3209_1414)">
<path d="M147.352 280.879C158.925 284.243 174.115 287.647 191.335 289.019" stroke="#EF4E37" stroke-width="19.876" stroke-linecap="round"/>
<path d="M229.117 288.306C233.928 287.709 238.797 286.897 243.7 285.837" stroke="#719FD4" stroke-width="27.964" stroke-linecap="round"/>
<path d="M299.66 264.408C313.273 258.384 322.974 254.292 329.886 251.522" stroke="#F59EC4" stroke-width="25.301" stroke-linecap="round"/>
<path d="M368.162 196.275C368.44 196.349 368.719 196.424 369 196.5M102 225.5C102 225.5 107.216 228.639 116.65 232.208" stroke="#EF4E37" stroke-width="4.86" stroke-linecap="round"/>
<path d="M142.953 239.53C145.235 239.958 147.598 240.351 150.04 240.699" stroke="#EF4E37" stroke-width="4.572" stroke-linecap="round"/>
<path d="M196.828 240.79C198.552 240.556 200.294 240.293 202.051 240" stroke="#E0B89F" stroke-width="2.723" stroke-linecap="round"/>
<path d="M231.074 232.669C234.017 231.67 236.992 230.582 239.996 229.399" stroke="#EF4E37" stroke-width="5.487" stroke-linecap="round"/>
<path d="M265.188 218.848C265.505 218.709 265.821 218.569 266.135 218.431" stroke="#EF4E37" stroke-width="5.011" stroke-linecap="round"/>
<path d="M306.535 199.706C313.033 196.8 318.602 194.619 324.051 193.219" stroke="#E0B89F" stroke-width="5.52" stroke-linecap="round"/>
<path d="M343.621 191.581C346.625 191.809 349.818 192.234 353.288 192.861" stroke="#EF4E37" stroke-width="1.738" stroke-linecap="round"/>
<path d="M130.125 261.229C130.381 261.32 130.647 261.415 130.922 261.512" stroke="#719FD4" stroke-width="5.362" stroke-linecap="round"/>
<path d="M149.648 267.288C150.971 267.638 152.328 267.985 153.714 268.326" stroke="#EF4E37" stroke-width="4.255" stroke-linecap="round"/>
<path d="M173.715 272.15C174.247 272.22 174.781 272.287 175.314 272.35" stroke="#EF4E37" stroke-width="4.232" stroke-linecap="round"/>
<path d="M173.078 272.066C173.797 272.163 174.516 272.255 175.236 272.341" stroke="#719FD4" stroke-width="7.147" stroke-linecap="round"/>
<path d="M206.262 271.52C207.409 271.325 208.56 271.122 209.714 270.91" stroke="#EF4E37" stroke-width="5.23" stroke-linecap="round"/>
<path d="M240.961 263.442C241.568 263.266 242.174 263.088 242.778 262.908" stroke="#EF4E37" stroke-width="3.738" stroke-linecap="round"/>
<path d="M262.238 256.483C263.775 255.92 265.286 255.354 266.766 254.785" stroke="#719FD4" stroke-width="2.28" stroke-linecap="round"/>
<path d="M278.59 249.893C279.527 249.474 280.443 249.056 281.337 248.639" stroke="#EF4E37" stroke-width="4.698" stroke-linecap="round"/>
<path d="M285.711 246.518C287.079 245.827 288.379 245.142 289.605 244.466" stroke="#EF4E37" stroke-width="6.134" stroke-linecap="round"/>
<path d="M318.266 232.49C319.68 232.119 321.121 231.761 322.586 231.415" stroke="#719FD4" stroke-width="4.686" stroke-linecap="round"/>
<path d="M343.652 227.294C344.555 227.144 345.464 226.994 346.379 226.845" stroke="#EF4E37" stroke-width="7.709" stroke-linecap="round"/>
<path d="M338.695 264.131C342.337 263.175 346.189 262.332 350.293 261.621" stroke="#F59EC4" stroke-width="9.348" stroke-linecap="round"/>
<path d="M159.875 310.619C161.315 310.891 162.797 311.151 164.321 311.396" stroke="#EF4E37" stroke-width="6.387" stroke-linecap="round"/>
<path d="M212.23 312.727C214.539 312.511 216.889 312.253 219.281 311.951" stroke="#EF4E37" stroke-width="11.885" stroke-linecap="round"/>
<path d="M240.543 308.229C241.232 308.07 241.913 307.908 242.588 307.743" stroke="#F59EC4" stroke-width="9.369" stroke-linecap="round"/>
<path d="M276.684 294.613C279.431 293.155 282.088 291.66 284.694 290.147" stroke="#EF4E37" stroke-width="9.309" stroke-linecap="round"/>
<path d="M303.312 279.116C306.312 277.401 309.372 275.725 312.556 274.119" stroke="#EF4E37" stroke-width="9.052" stroke-linecap="round"/>
<path d="M169.246 258.794C174.989 258.926 181.795 258.812 189.454 258.204" stroke="#F59EC4" stroke-width="18.659" stroke-linecap="round" stroke-linejoin="round"/>
<path d="M207.523 255.981C210.122 255.549 212.783 255.057 215.499 254.5C219.144 253.752 222.602 252.954 225.89 252.115" stroke="#EF4E37" stroke-width="7.025" stroke-linecap="round" stroke-linejoin="round"/>
<path d="M242.602 247.064C246.374 245.735 249.893 244.358 253.21 242.957" stroke="#EF4E37" stroke-width="15.718" stroke-linecap="round" stroke-linejoin="round"/>
<path d="M276.059 231.883C277.689 231.034 279.292 230.199 280.881 229.385" stroke="#F59EC4" stroke-width="7.48" stroke-linecap="round" stroke-linejoin="round"/>
<path d="M314.355 217.23C317.859 216.486 321.546 215.8 325.308 215.185" stroke="#EF4E37" stroke-width="9.52" stroke-linecap="round" stroke-linejoin="round"/>
<path d="M356.651 211.898C364.737 211.591 371.393 211.902 375 213M149 257C149 257 149.828 257.166 151.401 257.398" stroke="#EF4E37" stroke-width="12.92" stroke-linecap="round" stroke-linejoin="round"/>
</g>
<path d="M203.252 185.984L205.395 201.854C205.932 205.826 203.155 209.463 199.175 210C197.451 210.233 195.826 209.849 194.447 209.037C194.214 208.887 194.015 208.735 193.81 208.581C192.326 207.451 191.285 205.783 191.017 203.796L189.638 193.592C189.05 189.233 183.466 187.751 180.792 191.254L172.417 202.26C168.33 207.614 173.419 215.078 179.917 213.236L180.062 213.185C182.387 212.477 184.628 211.149 186.532 209.564C186.967 209.203 187.444 208.926 187.983 208.672C189.59 210.931 192.68 214.561 197.121 216.98C196.763 218.116 196.053 219.148 195.047 219.98C192 222.505 188.361 224.447 184.154 225.77C179.303 227.269 174.295 227.613 169.542 226.896C168.4 226.718 167.247 226.482 166.119 226.182L155.36 220.902L152.124 218.44L145.482 213.386L139.953 209.183L137.828 207.566L116.757 191.539C102.832 180.945 100.149 161.076 110.764 147.168C116.084 140.199 123.691 136.064 131.745 134.976C139.796 133.889 148.229 135.858 155.21 141.165L163.431 147.395L194.439 170.898C199.288 174.559 202.443 179.995 203.252 185.984Z" fill="#F59EC4"/>
<path d="M194.421 209.071C197.17 210.844 198.104 214.159 197.124 216.98C192.683 214.561 189.591 210.931 187.986 208.672C189.984 207.798 192.501 207.849 194.291 208.997L194.421 209.071Z" fill="#213468"/>
<path d="M169.54 226.897L171.755 243.296C172.36 247.773 169.223 251.883 164.737 252.489C161.737 252.894 158.9 251.617 157.174 249.371C156.924 249.072 156.701 248.742 156.498 248.375C156.019 247.503 155.672 246.524 155.532 245.487L152.091 220.012C152.023 219.51 152.015 218.994 152.039 218.507L152.122 218.437L155.358 220.899L166.114 226.18C167.245 226.48 168.398 226.718 169.54 226.897Z" fill="#F59EC4"/>
<path d="M155.596 249.316C152.202 248.81 149.401 246.225 148.746 242.719C148.7 242.608 148.683 242.459 148.663 242.311L145.222 216.831C145.062 215.646 145.143 214.489 145.481 213.386L152.122 218.437L152.04 218.51C152.016 218.997 152.023 219.507 152.091 220.01L155.532 245.49C155.673 246.527 156.02 247.503 156.498 248.378C156.701 248.742 156.925 249.075 157.175 249.374C156.632 249.386 156.117 249.366 155.596 249.316Z" fill="#F59EC4"/>
<path d="M139.949 209.178L145.479 213.387C145.142 214.489 145.06 215.646 145.22 216.832L148.661 242.306C148.681 242.454 148.699 242.606 148.745 242.72L148.717 242.723C144.929 242.449 141.724 239.559 141.2 235.675L137.759 210.2C137.639 209.311 137.671 208.429 137.825 207.561L139.949 209.178Z" fill="#F59EC4"/>
<path d="M148.75 242.96C148.391 243.008 148.057 242.754 148.009 242.394L144.568 216.92C144.395 215.635 144.493 214.381 144.853 213.192C144.959 212.842 145.327 212.65 145.674 212.754C146.024 212.861 146.219 213.228 146.112 213.578C145.809 214.583 145.73 215.651 145.877 216.743L149.318 242.218C149.367 242.577 149.11 242.911 148.75 242.96Z" fill="#231F20"/>
<path d="M156.589 249.028C156.325 249.064 156.06 248.94 155.923 248.696C155.377 247.71 155.028 246.662 154.882 245.577L151.441 220.1C151.373 219.601 151.352 219.053 151.386 218.475C151.404 218.112 151.719 217.835 152.079 217.851C152.442 217.872 152.722 218.18 152.701 218.544C152.675 219.039 152.691 219.507 152.747 219.924L156.188 245.401C156.312 246.321 156.612 247.214 157.078 248.056C157.253 248.377 157.139 248.778 156.822 248.955C156.746 248.993 156.668 249.017 156.589 249.028Z" fill="#231F20"/>
<path d="M169.629 227.55C169.568 227.559 169.504 227.559 169.441 227.545C168.242 227.36 167.066 227.117 165.949 226.818C165.593 226.726 165.388 226.365 165.48 226.012C165.574 225.655 165.932 225.447 166.286 225.545C167.358 225.828 168.491 226.063 169.643 226.246C170.003 226.304 170.249 226.639 170.194 226.999C170.147 227.293 169.909 227.513 169.629 227.55Z" fill="#231F20"/>
<path d="M155.45 221.552C155.282 221.575 155.106 221.535 154.963 221.425L139.555 209.707C139.263 209.486 139.207 209.072 139.43 208.782C139.651 208.492 140.063 208.436 140.353 208.657L155.76 220.376C156.053 220.596 156.108 221.008 155.885 221.301C155.776 221.444 155.617 221.53 155.45 221.552Z" fill="#231F20"/>
</g>
</g>
<defs>
<clipPath id="clip0_3209_1414">
<rect width="464" height="488" fill="white"/>
</clipPath>
</defs>
</svg>
