<svg width="1116" height="916" viewBox="0 0 1116 916" fill="none" xmlns="http://www.w3.org/2000/svg">
<path d="M931.806 133.434C919.139 137.834 909.806 144.634 891.406 163.034C870.072 184.234 863.139 193.3 826.072 248.367L812.606 268.367L795.272 266.1C761.539 261.7 740.606 259.567 738.339 260.5C734.739 261.834 734.206 266.9 737.139 272.634C742.072 282.234 765.672 307.434 778.339 316.5L786.606 322.5L781.806 332.767C779.139 338.367 775.539 347.967 773.539 353.967L770.072 365.034H761.139C756.072 365.034 752.072 365.567 752.072 366.234C752.072 369.167 777.672 369.167 779.539 366.234C779.939 365.567 779.806 365.034 779.139 365.034C775.272 364.9 774.739 362.767 776.872 355.567C779.539 346.634 788.072 327.7 789.539 327.7C790.072 327.7 795.272 330.634 801.006 334.234C806.739 337.7 814.206 342.234 817.539 344.1L823.806 347.567L824.606 357.967C826.472 378.634 833.406 400.634 841.406 410.5C844.872 414.9 845.139 415.967 844.072 419.834C843.272 422.367 840.339 439.967 837.406 459.034C834.472 478.1 830.739 497.834 829.272 502.9C827.806 507.834 827.006 512.367 827.406 512.767C827.806 513.3 835.139 513.7 843.672 513.7C854.872 513.7 859.272 513.3 859.672 511.967C860.206 510.767 857.006 510.367 846.872 510.367C839.539 510.367 833.272 509.967 832.872 509.3C832.606 508.767 833.139 505.034 834.206 501.034C835.272 497.034 838.206 479.567 840.739 462.367C845.406 431.434 848.072 417.034 849.006 417.034C849.272 417.034 851.939 418.234 854.872 419.7C866.072 425.567 881.672 426.1 886.872 420.9C889.939 417.834 888.872 414.367 884.872 414.367C875.806 414.234 863.272 403.3 859.539 391.967C855.806 381.434 857.539 363.7 862.206 363.7C863.139 363.7 871.406 366.634 880.339 370.234C900.606 378.367 914.872 382.367 928.472 383.3L938.739 384.1L943.272 391.567C951.406 405.3 970.472 441.567 975.939 454.1C992.472 491.834 1014.61 581.434 1024.74 652.234C1026.47 664.9 1030.07 685.434 1032.74 697.834C1037.54 721.3 1059.94 811.7 1063.54 822.634C1065.54 828.767 1068.07 831.167 1068.07 827.167C1068.07 826.1 1061.41 798.634 1053.41 766.1C1038.07 704.234 1033.14 681.167 1027.41 642.367C1022.61 610.234 1016.47 580.234 1005.54 536.367C991.539 479.7 988.206 471.034 960.472 417.167C943.672 384.634 943.006 382.5 949.006 382.367C951.272 382.367 954.739 376.9 954.739 373.3C954.739 369.834 949.806 362.367 928.472 334.1C920.872 323.967 914.739 315.167 914.739 314.367C914.739 313.7 916.606 310.1 918.739 306.5C926.472 293.967 934.739 274.234 944.872 244.367C950.472 227.834 956.339 212.367 957.939 209.967C964.206 200.767 973.006 202.234 978.072 213.434C982.339 222.634 984.072 234.9 984.072 256.634C984.072 274.9 985.272 280.367 989.539 281.7C995.939 283.834 1004.07 273.967 1008.61 258.634C1013.27 242.367 1012.47 212.367 1006.74 189.3C998.606 157.167 974.872 133.034 949.406 130.9C942.472 130.367 938.872 130.9 931.806 133.434ZM928.072 203.7C926.339 207.434 924.472 210.367 923.806 210.367C922.206 210.367 922.472 209.567 926.206 202.234C930.606 193.567 932.206 194.9 928.072 203.7ZM889.939 226.5C887.139 231.167 884.739 234.234 884.472 233.434C884.072 232.5 885.539 228.9 887.539 225.434C892.339 217.167 893.939 215.167 894.472 216.767C894.606 217.434 892.606 221.834 889.939 226.5ZM929.406 217.167C929.406 219.3 922.339 231.7 921.139 231.7C919.539 231.7 919.806 231.034 923.672 223.034C927.006 216.234 929.406 213.7 929.406 217.167ZM912.206 233.967C908.872 240.5 905.806 244.5 904.872 243.7C903.939 242.634 911.806 229.034 913.406 229.034C914.206 229.034 913.672 231.3 912.206 233.967ZM850.206 264.367C849.006 266.234 847.139 269.167 845.939 271.034C844.739 272.9 843.272 273.967 842.606 273.567C841.139 272.767 848.872 261.034 851.006 261.034C851.806 261.034 851.406 262.5 850.206 264.367ZM833.672 309.434C852.206 323.567 878.072 332.367 891.672 329.034C895.272 328.234 899.539 327.3 901.406 326.9C904.606 326.234 904.606 326.234 902.072 328.367C891.939 336.5 865.539 332.5 843.406 319.434C833.806 313.7 810.739 292.234 810.739 289.034C810.739 287.967 813.672 290.5 817.406 294.634C821.006 298.634 828.339 305.3 833.672 309.434ZM896.872 301.034C895.006 303.967 892.739 306.367 891.939 306.367C890.339 306.367 891.139 304.9 895.672 298.634C900.339 292.5 901.272 294.5 896.872 301.034ZM884.872 303.034C882.872 306.367 880.739 308.767 880.072 308.367C878.739 307.567 881.272 302.767 885.139 297.967C888.739 293.834 888.472 296.767 884.872 303.034ZM841.406 355.434C846.872 357.567 852.472 359.7 853.939 360.234C855.939 360.9 856.206 361.7 855.272 364.767C854.606 366.767 854.072 373.434 854.072 379.7C854.072 389.167 854.606 392.1 857.406 397.567C861.272 405.167 872.339 415.567 877.672 416.634C879.672 417.034 881.406 417.967 881.406 418.767C881.406 419.567 877.806 419.834 871.806 419.434C861.272 418.767 852.872 415.434 846.339 409.167C839.006 402.367 833.006 387.167 830.072 367.7C827.672 352.1 827.539 349.834 829.806 350.767C830.606 351.167 835.939 353.167 841.406 355.434Z" fill="black"/>
<path d="M65.005 185.833C49.6716 193.833 39.6716 216.767 37.5383 249.433C35.2716 281.167 29.405 299.567 11.405 331.167C-1.39503 353.567 -3.12836 362.5 4.7383 366.1C9.5383 368.367 12.7383 368.1 18.605 365.033C25.9383 361.3 33.805 351.567 40.7383 337.7C47.805 323.433 50.3383 315.967 56.7383 290.367C64.7383 259.3 70.605 250.633 82.8716 252.1C92.4716 253.3 94.0716 255.567 111.005 290.367C128.472 326.1 135.405 337.433 153.672 360.9C170.738 382.633 172.472 388.1 165.938 397.833C160.205 406.233 146.338 421.167 136.205 429.7C131.005 434.1 126.738 438.5 126.738 439.433C126.738 442.767 131.138 442.767 138.205 439.3C142.205 437.3 145.405 436.233 145.405 436.9C145.405 437.567 142.605 443.967 139.272 451.167C133.272 464.233 132.205 466.767 124.205 486.633C114.205 511.967 102.072 557.033 87.5383 623.033C75.6716 676.233 70.3383 706.767 67.405 737.033C66.205 749.167 65.005 759.967 64.7383 761.033C64.3383 762.1 62.8716 771.967 61.405 783.033C58.7383 802.1 54.0716 829.7 52.605 834.633C52.0716 836.367 52.605 837.033 54.4716 837.033C55.9383 837.033 61.1383 839.833 66.205 843.3C92.3383 860.9 128.072 870.5 181.138 873.833L194.738 874.767V885.967V897.033H247.405H299.938L297.272 892.5C291.672 882.9 281.272 875.833 273.138 875.7C271.005 875.7 269.405 875.033 269.405 874.367C269.405 871.033 282.072 873.967 289.538 879.033C293.805 882.1 303.938 897.567 302.472 899.033C302.338 899.3 248.205 899.833 182.472 900.367C96.3383 901.167 62.7383 901.833 62.7383 902.9C62.7383 903.967 88.8716 904.233 157.672 904.1C303.138 903.567 421.405 902.233 421.405 900.9C421.405 900.233 404.472 899.7 383.672 899.7H346.072L343.938 896.367C337.938 886.367 321.005 877.033 309.138 877.033C306.338 877.033 304.072 876.367 304.072 875.7C304.072 874.9 305.138 874.367 306.472 874.367C307.805 874.367 309.405 873.833 310.205 873.033C310.872 872.367 325.272 870.633 342.205 869.167C395.405 864.633 414.205 859.167 434.605 842.5L440.472 837.7L439.672 807.7C438.738 775.7 437.805 765.833 432.738 729.033C431.005 716.233 427.938 694.633 426.205 681.033C423.405 661.3 415.538 616.5 411.272 596.9L410.472 593.433L421.672 597.167C442.872 604.233 463.005 605.3 480.072 600.233C492.072 596.767 509.538 587.567 515.805 581.567L521.672 575.833L521.005 542.1C520.605 523.567 519.672 504.1 518.738 499.033C511.138 453.567 505.405 424.767 497.938 395.3C493.138 376.233 489.672 360.367 490.072 359.967C490.472 359.567 496.738 359.033 503.938 358.9C518.738 358.633 519.938 358.367 532.338 352.767C541.672 348.5 548.072 348.367 548.072 352.367C548.072 353.567 545.405 359.833 542.072 366.367C532.872 384.5 529.938 399.167 533.405 408.633C534.205 410.633 539.005 416.367 544.072 421.167C555.405 432.1 560.738 433.833 580.072 432.5C595.938 431.567 601.672 430.5 600.605 428.767C600.072 427.833 595.005 427.833 586.872 428.5C569.672 429.833 561.805 429.3 555.138 426.367C551.938 425.033 549.405 423.7 549.405 423.433C549.405 423.167 555.805 423.033 563.672 423.033C577.138 423.033 578.472 422.767 585.405 419.033C594.072 414.233 598.338 407.967 596.072 403.7C594.605 401.033 594.338 401.167 591.672 406.633C587.538 414.633 578.872 418.9 565.405 419.433C535.938 420.367 528.205 403.033 544.205 371.3C546.605 366.767 549.538 359.967 550.872 356.367L553.138 349.7L563.138 348.5C568.605 347.833 574.072 347.7 575.138 348.1C577.005 348.767 588.205 368.5 590.072 374.233C590.872 376.767 590.605 376.767 587.138 375.567C582.205 373.967 548.205 374.5 547.672 376.367C547.538 377.167 551.938 377.833 558.472 377.967C564.605 378.1 569.938 378.5 570.338 378.767C572.605 381.033 568.072 382.367 558.205 382.367C550.872 382.367 546.605 382.9 545.672 384.1C543.005 387.3 542.338 401.433 544.472 406.767C547.805 414.5 553.405 416.633 566.338 414.633C572.072 413.7 578.205 411.967 580.072 410.5C584.338 407.433 585.938 400.1 583.272 395.967C582.072 394.233 581.405 392.5 581.805 392.233C582.072 391.833 587.672 394.367 594.072 397.7C605.138 403.567 608.872 404.5 605.672 400.633C604.872 399.7 598.605 395.967 591.805 392.5C585.005 388.9 578.338 385.033 577.138 383.967C574.338 381.567 573.938 377.033 576.472 377.033C580.472 377.033 599.672 382.633 606.472 385.7C610.472 387.567 614.072 389.033 614.605 389.033C616.205 388.9 609.938 384.767 602.472 380.9C598.205 378.767 594.738 376.233 594.738 375.3C594.738 374.233 592.072 368.1 588.872 361.567L583.138 349.567L586.205 346.767C590.072 343.3 590.205 340.5 586.738 337.033C584.338 334.633 582.338 334.367 566.605 334.367C550.338 334.367 548.738 334.1 539.805 330.367C529.138 325.833 528.072 325.567 528.072 328.233C528.072 329.3 531.405 331.433 535.405 333.167C545.138 337.167 542.738 338.633 525.138 339.433C515.272 339.967 512.072 340.5 512.072 341.833C512.072 343.3 515.272 343.7 527.138 343.7L542.072 343.833L530.738 348.633C520.738 352.9 517.538 353.567 503.672 354.367C491.805 355.033 487.538 355.833 485.538 357.567C483.138 359.833 482.872 359.567 480.205 352.367C478.605 348.233 477.405 344.5 477.405 343.833C477.405 342.233 498.472 322.367 507.805 315.167C516.738 308.1 518.205 305.7 512.472 307.833C506.872 309.7 492.338 321.033 483.005 330.767C478.472 335.567 473.538 339.833 472.338 340.233C470.072 341.033 460.738 354.233 452.205 369.033C443.538 384.1 431.138 402.633 423.805 411.567C409.672 428.767 399.405 431.7 379.805 424.1C357.538 415.433 316.072 386.233 316.072 379.433C316.072 378.233 317.538 376.9 319.272 376.5C323.538 375.433 332.072 367.3 332.072 364.367C332.072 362.367 331.405 362.5 327.805 365.567C321.672 370.5 313.938 373.967 306.072 375.033C297.405 376.233 294.338 378.233 290.872 385.433C286.738 393.833 281.138 398.9 276.872 397.833C271.405 396.5 272.605 392.9 281.272 384.1C289.672 375.7 293.538 373.567 309.272 369.033C317.938 366.5 320.205 365.167 327.005 358.367C334.605 350.767 336.738 346.367 332.738 346.367C331.672 346.367 330.738 347.167 330.738 348.233C330.738 351.833 314.205 365.033 309.805 365.033C309.138 365.033 306.605 360.5 304.205 355.033L299.805 345.033L303.538 342.1C310.738 336.633 325.672 321.7 332.738 313.033C347.138 295.433 349.272 290.367 344.205 285.833C341.138 283.033 339.005 283.833 319.005 295.3C301.405 305.3 291.938 309.033 283.672 309.033C277.938 309.033 277.672 308.9 254.605 285.433C225.272 255.433 210.338 241.567 189.405 224.633C170.072 209.033 152.872 197.433 139.272 190.9C123.138 183.167 119.005 182.367 94.0716 182.5C72.605 182.5 71.1383 182.633 65.005 185.833ZM298.872 352.9C304.472 364.5 304.738 367.7 300.072 367.7C292.072 367.7 272.872 383.167 269.405 392.5C267.138 398.233 270.605 402.367 277.538 402.367C281.938 402.367 283.805 401.567 287.272 397.967C289.538 395.567 292.072 392.5 292.738 391.167C293.938 389.033 294.605 388.9 297.005 390.233C304.072 393.967 311.272 389.567 309.938 382.367C309.405 380.233 309.405 378.367 309.805 378.367C310.205 378.367 315.272 384.5 321.138 391.967C327.005 399.567 338.472 413.167 346.738 422.367C355.005 431.567 364.738 443.433 368.338 448.767C381.138 467.7 389.672 489.167 392.605 509.3L393.538 515.7H389.538C383.938 515.7 378.605 517.967 377.805 520.767C376.338 526.767 276.738 538.233 259.672 534.367C249.538 532.1 242.738 528.1 232.605 517.833C224.738 509.967 202.738 479.3 202.738 476.233C202.738 473.833 208.072 480.5 215.805 492.367C227.005 509.433 241.138 523.833 251.538 528.633C258.338 531.833 261.005 532.367 271.672 532.367C278.472 532.233 284.338 531.967 284.738 531.433C285.272 531.033 280.872 524.367 275.138 516.9C261.938 499.3 255.938 487.967 248.205 465.033L242.072 446.767L245.138 439.7C253.405 420.767 257.005 397.567 254.605 378.5L253.005 365.833L262.205 357.7C267.272 353.3 275.005 346.233 279.405 342.1L287.405 334.5L290.472 338.1C292.072 340.1 295.805 346.767 298.872 352.9ZM583.805 341.3C584.205 343.433 583.005 343.7 572.472 343.833C566.072 343.833 557.805 344.367 554.072 344.9C550.072 345.567 546.472 345.567 545.005 344.767C542.738 343.567 542.738 343.3 544.738 341.033C546.605 338.9 549.138 338.633 565.138 338.9C581.405 339.033 583.405 339.3 583.805 341.3ZM485.938 383.7C502.205 432.1 503.672 439.033 508.738 485.033C511.405 508.367 513.005 573.967 511.138 575.833C510.205 576.767 509.538 565.167 509.005 541.433C508.072 500.767 505.005 467.567 499.272 437.7C498.072 431.833 491.538 409.833 484.605 388.767C477.672 367.7 472.072 349.7 472.072 348.767C472.072 343.967 475.672 353.033 485.938 383.7ZM250.738 386.5C250.738 406.767 248.872 418.1 243.005 433.033C235.805 451.433 227.005 460.367 213.138 463.7C205.672 465.567 183.272 464.9 179.538 462.767C177.405 461.567 178.072 460.767 184.738 457.033C195.938 450.633 206.072 440.1 211.138 429.433C215.138 420.9 215.405 419.433 215.272 406.233V392.1L220.605 388.633C223.672 386.633 231.138 381.167 237.405 376.5C243.672 371.833 249.138 367.833 249.805 367.833C250.338 367.7 250.738 376.1 250.738 386.5ZM305.138 382.767C305.672 387.433 302.605 388.767 297.938 385.7C294.605 383.567 294.605 383.433 296.872 380.9C300.205 377.167 304.605 378.1 305.138 382.767ZM452.605 402.633C453.405 406.367 452.872 409.033 451.538 407.567C450.205 406.1 449.272 398.367 450.472 398.367C451.138 398.367 452.072 400.233 452.605 402.633ZM445.272 408.233C447.005 415.433 447.005 415.7 445.538 415.7C444.872 415.7 443.672 413.033 442.872 409.833C441.138 402.633 441.138 402.367 442.605 402.367C443.272 402.367 444.472 405.033 445.272 408.233ZM463.138 420.767C463.672 424.767 463.405 426.367 462.338 425.967C461.405 425.7 460.605 422.233 460.338 418.233C460.072 409.967 461.938 411.7 463.138 420.767ZM436.605 419.167C437.805 422.367 437.538 426.367 436.072 426.367C435.405 426.367 434.738 425.567 434.738 424.633C434.738 423.833 434.338 421.7 433.938 419.967C433.005 416.633 435.405 415.833 436.605 419.167ZM440.738 514.5C442.205 516.633 441.138 516.767 435.405 515.033L430.072 513.3L435.005 513.167C437.672 513.033 440.338 513.7 440.738 514.5ZM432.338 522.1C433.538 523.3 433.672 524.367 432.605 526.1C430.472 529.3 426.872 529.7 421.938 527.033C417.672 524.767 417.405 524.767 413.005 527.567C407.538 530.9 403.138 531.167 399.005 528.233C397.005 526.9 394.738 526.367 392.605 526.9C387.938 528.1 384.072 526.633 384.072 523.7C384.072 520.5 388.338 519.967 412.338 520.233C425.138 520.367 431.138 520.9 432.338 522.1ZM383.405 530.9C383.405 531.7 380.072 533.033 376.072 534.1C372.072 535.033 368.205 536.367 367.538 537.033C366.205 538.367 384.605 547.967 398.738 553.167C406.605 555.967 408.205 557.033 406.205 557.833C402.472 559.3 385.938 556.1 377.805 552.367C370.072 548.9 367.405 549.967 372.872 554.233C377.005 557.567 389.672 561.7 399.805 563.033C403.538 563.567 406.738 564.5 406.738 565.167C406.738 567.033 387.938 566.5 379.672 564.367C369.672 561.7 367.272 561.7 369.272 564.233C372.205 567.833 382.872 570.367 394.338 570.367C400.472 570.367 405.405 570.9 405.405 571.433C405.405 573.833 389.005 575.7 380.072 574.233C375.272 573.567 369.138 572.5 366.472 572.1C363.672 571.7 361.405 571.7 361.405 572.1C361.405 573.967 369.538 577.033 378.872 578.767L388.738 580.633L383.405 581.7C376.472 583.167 365.672 580.767 350.338 574.633C343.538 571.967 337.805 569.567 337.538 569.433C336.472 568.767 341.805 551.7 345.405 543.833C349.672 534.9 353.005 532.233 361.538 530.5C369.005 528.9 383.405 529.3 383.405 530.9ZM429.005 537.967C436.472 547.7 436.872 560.767 429.938 569.7C427.938 572.367 426.738 575.567 427.005 577.3C427.405 580.367 427.138 580.367 413.138 580.767C403.805 581.033 398.738 580.633 398.738 579.7C398.738 579.033 398.872 578.367 399.138 578.233C399.272 578.233 404.072 577.7 409.805 577.167C415.538 576.5 420.605 575.7 421.138 575.167C422.338 573.833 418.605 571.7 415.005 571.7C412.605 571.7 412.205 571.167 412.605 568.633C415.405 554.9 414.738 552.9 406.472 550.5C397.005 547.7 380.072 540.9 380.072 539.967C380.205 539.433 383.138 537.567 386.872 535.967C392.872 533.033 394.072 532.9 399.805 534.367C405.405 535.833 406.872 535.7 412.072 533.433C419.538 530.1 423.938 531.3 429.005 537.967ZM341.538 542.633C338.605 547.967 334.072 559.3 331.405 567.7C328.605 576.1 320.205 601.967 312.738 625.033C297.538 671.3 293.805 684.767 292.605 697.3L291.805 705.7L300.338 692.367C305.138 685.033 310.872 674.5 313.138 668.9C317.672 657.833 335.272 597.433 337.805 584.1C339.272 575.967 341.405 572.767 341.405 578.5C341.405 583.967 328.472 632.1 319.805 658.367C315.005 673.3 311.672 680.1 302.872 693.567C299.405 699.033 295.805 706.233 294.872 709.567C294.072 712.9 293.138 715.7 292.738 715.7C290.472 715.7 263.538 705.033 252.072 699.567C218.338 683.433 186.872 656.1 171.138 629.3C161.805 613.433 151.138 584.367 145.538 559.3C143.272 549.3 141.138 539.567 140.605 537.7C139.272 532.367 142.205 533.833 143.805 539.3C144.605 542.1 146.872 551.833 148.738 561.033C152.738 579.567 161.405 603.833 170.205 621.033C184.872 649.567 211.005 674.5 245.405 692.767C257.005 699.033 286.738 711.7 289.538 711.7C290.205 711.7 290.738 706.367 290.738 699.833C290.738 684.367 293.005 675.833 315.138 608.233C334.738 548.5 335.938 545.3 341.005 537.967C346.738 529.7 347.138 532.5 341.538 542.633ZM289.005 550.1C286.472 555.3 284.072 560.9 283.672 562.633C283.138 564.233 282.472 565.167 281.938 564.633C280.472 563.167 284.205 552.1 288.338 545.567C290.472 542.1 292.472 539.7 292.872 539.967C293.138 540.367 291.405 544.9 289.005 550.1ZM206.738 548.367C209.138 554.5 209.672 558.367 208.472 558.367C207.272 558.367 204.072 549.833 204.072 546.5C204.072 543.967 205.405 544.9 206.738 548.367ZM298.872 559.3C297.272 562.367 296.205 563.433 296.072 561.967C296.072 558.767 300.338 550.633 301.005 552.633C301.272 553.433 300.338 556.5 298.872 559.3ZM132.738 565.567C131.672 571.167 129.538 572.233 130.338 566.633C131.272 561.433 132.072 559.167 132.872 560.1C133.272 560.5 133.138 562.9 132.738 565.567ZM354.872 581.833C358.205 583.567 358.605 584.233 357.272 585.833C355.938 587.567 355.138 587.3 351.805 584.233C349.805 582.233 348.072 580.367 348.072 580.1C348.072 579.167 351.138 579.833 354.872 581.833ZM177.938 590.233C181.938 599.967 181.805 599.7 180.205 599.7C178.738 599.7 172.072 583.433 173.005 581.967C173.938 580.5 174.072 580.633 177.938 590.233ZM373.272 611.3C373.272 616.1 372.872 617.033 372.072 615.033C370.472 611.3 370.472 605.033 372.072 605.033C372.872 605.033 373.405 607.833 373.272 611.3ZM193.405 623.033C198.738 634.1 197.405 636.1 191.938 625.567C187.805 617.967 186.072 613.033 187.672 613.033C188.205 613.033 190.872 617.567 193.405 623.033ZM102.072 668.5C100.872 673.167 99.2716 677.433 98.605 677.833C96.8716 678.9 97.1383 676.5 99.5383 667.967C102.605 656.767 102.872 655.967 103.672 658.233C104.072 659.167 103.405 663.833 102.072 668.5ZM364.872 679.167C364.472 682.633 364.072 689.567 364.072 694.633C364.072 700.5 363.538 703.567 362.738 703.033C360.205 701.567 361.938 673.033 364.472 673.033C365.272 673.033 365.405 675.433 364.872 679.167ZM274.738 690.767C274.738 691.7 273.138 690.633 271.405 688.633C269.538 686.633 268.072 684.233 268.072 683.3C268.072 682.367 269.672 683.433 271.405 685.433C273.272 687.433 274.738 689.833 274.738 690.767ZM261.005 691.167C260.472 691.7 259.138 691.033 258.072 689.567C255.138 685.7 255.672 684.1 259.005 687.3C260.605 689.033 261.538 690.767 261.005 691.167ZM128.605 706.633C126.605 713.167 119.938 726.633 119.138 725.967C118.072 724.767 126.738 703.7 128.338 703.7C129.005 703.7 129.138 705.033 128.605 706.633ZM218.738 745.033C218.738 748.633 218.205 751.7 217.405 751.7C215.938 751.7 215.538 740.633 217.005 739.3C218.605 737.7 218.738 738.233 218.738 745.033ZM417.938 749.167C418.738 759.3 418.472 762.5 416.738 760.767C415.272 759.433 414.338 738.367 415.672 738.367C416.472 738.367 417.405 743.3 417.938 749.167ZM205.938 773.833C204.738 778.633 203.138 782.767 202.472 783.167C200.872 784.233 201.138 781.033 203.538 772.9C206.472 762.367 206.872 761.433 207.672 763.433C208.072 764.367 207.272 769.033 205.938 773.833ZM403.272 769.833C404.472 779.3 404.205 805.7 402.872 804.233C402.205 803.567 401.405 794.233 401.138 783.3C400.605 763.967 401.538 757.7 403.272 769.833ZM183.138 786.1C180.872 794.367 178.738 797.967 178.738 793.567C178.738 789.033 182.738 776.9 184.072 777.7C184.738 778.1 184.205 781.833 183.138 786.1ZM305.405 781.7C305.405 784.233 304.872 786.367 304.072 786.367C303.405 786.367 302.738 784.233 302.738 781.7C302.738 779.167 303.405 777.033 304.072 777.033C304.872 777.033 305.405 779.167 305.405 781.7ZM421.672 787.3C422.472 792.9 422.205 793.7 420.205 792.367C418.472 791.3 418.205 782.367 419.938 782.367C420.605 782.367 421.405 784.633 421.672 787.3ZM98.7383 804.367C97.805 808.367 96.4716 811.7 95.805 811.7C94.205 811.7 94.4716 808.9 96.8716 801.833C99.805 793.433 101.005 795.167 98.7383 804.367ZM171.538 797.967C171.138 799.3 170.472 802.767 169.938 805.7C168.872 812.367 166.872 816.367 166.738 812.1C166.738 807.033 169.538 795.7 171.005 795.7C171.672 795.7 171.938 796.767 171.538 797.967ZM79.5383 818.633C77.2716 826.233 75.2716 830.1 74.205 828.9C73.805 828.5 74.605 825.033 76.0716 821.3C77.5383 817.433 78.7383 813.033 78.7383 811.433C78.7383 809.3 79.1383 808.9 80.205 809.967C81.2716 811.033 81.1383 813.433 79.5383 818.633Z" fill="black"/>
<path d="M289.672 347.967C289.938 349.567 291.138 351.167 292.472 351.434C294.338 351.834 294.872 351.3 294.472 348.767C294.205 347.167 293.005 345.567 291.672 345.3C289.805 344.9 289.272 345.434 289.672 347.967Z" fill="black"/>
<path d="M268.339 362.9C261.405 370.233 259.672 375.167 263.405 376.5C266.205 377.7 269.005 374.9 270.072 370.233C270.605 367.7 271.672 366.367 272.739 366.9C274.605 367.567 278.739 363.833 278.739 361.567C278.739 360.767 277.939 359.167 277.005 357.833C275.405 355.7 274.739 356.1 268.339 362.9Z" fill="black"/>
<path d="M325.805 446.367C326.605 452.634 328.739 455.7 332.205 455.7C335.139 455.7 335.539 451.7 333.272 445.167C332.205 441.967 331.005 441.034 328.472 441.034C325.272 441.034 325.139 441.3 325.805 446.367Z" fill="black"/>
<path d="M330.337 501.034C329.137 505.7 331.804 513.034 334.737 513.034C340.204 513.034 339.404 499.434 333.804 498.634C331.937 498.367 330.871 499.167 330.337 501.034Z" fill="black"/>
<path d="M354.338 549.967C352.871 552.634 350.605 565.034 351.405 566.367C353.138 569.167 354.471 567.434 356.605 559.034C357.805 554.367 358.738 550.1 358.738 549.7C358.738 548.634 355.005 548.9 354.338 549.967Z" fill="black"/>
<path d="M524.472 301.567C517.672 303.967 517.672 305.167 524.339 304.9C529.272 304.634 531.672 305.3 535.672 308.1C541.672 312.234 553.272 323.7 551.406 323.7C550.606 323.7 545.539 321.3 540.072 318.367C528.739 312.367 524.472 313.167 533.406 319.567C542.606 326.234 553.006 330.634 558.472 330.1L563.406 329.7L550.739 316.767C536.606 302.234 531.272 299.167 524.472 301.567Z" fill="black"/>
<path d="M784.605 341.7C784.205 342.767 784.205 344.234 784.739 345.034C785.939 346.9 789.405 344.234 789.405 341.567C789.405 339.034 785.539 339.167 784.605 341.7Z" fill="black"/>
<path d="M805.404 348.234C805.404 351.967 807.671 353.967 809.671 351.967C810.604 351.034 810.471 349.7 809.538 347.834C807.404 344.1 805.404 344.234 805.404 348.234Z" fill="black"/>
<path d="M812.072 352.9C812.072 355.567 815.406 359.167 816.472 357.434C817.406 355.834 815.006 350.367 813.406 350.367C812.739 350.367 812.072 351.433 812.072 352.9Z" fill="black"/>
<path d="M338.071 354.5C337.537 355.3 337.537 356.234 337.937 356.634C339.004 357.7 342.737 355.967 342.737 354.367C342.737 352.634 339.137 352.634 338.071 354.5Z" fill="black"/>
<path d="M558.072 354.5C557.538 355.3 557.405 356.233 557.805 356.633C558.738 357.567 561.405 355.833 561.405 354.233C561.405 352.633 559.138 352.633 558.072 354.5Z" fill="black"/>
<path d="M562.738 354.367C562.738 355.034 563.938 355.7 565.405 355.7C566.872 355.7 568.072 355.034 568.072 354.367C568.072 353.567 566.872 353.034 565.405 353.034C563.938 353.034 562.738 353.567 562.738 354.367Z" fill="black"/>
<path d="M736.739 359.7C735.805 361.3 740.872 364.5 746.472 365.7C749.272 366.234 750.739 366.1 750.739 365.034C750.739 364.234 749.939 363.7 749.139 364.1C748.205 364.367 745.139 363.167 742.472 361.567C739.805 359.834 737.139 359.034 736.739 359.7Z" fill="black"/>
<path d="M786.739 363.567C786.739 364.234 789.006 365.167 791.806 365.7C803.139 367.7 818.606 379.167 816.606 384.1C814.472 389.7 800.606 383.834 794.072 374.5C792.072 371.434 790.072 369.034 789.672 369.034C789.272 369.034 786.072 370.9 782.339 373.167C775.939 377.034 775.139 377.3 766.872 376.367C762.072 375.834 754.072 373.834 749.139 371.7C744.072 369.7 740.072 368.5 740.072 369.167C740.072 369.834 741.139 370.767 742.472 371.167C745.939 372.234 758.739 378.9 758.739 379.7C758.739 380.1 754.872 386.5 750.339 393.967C741.139 408.767 732.206 417.7 713.806 430.5C701.672 438.767 690.739 443.567 683.672 443.7C679.539 443.7 677.672 442.767 674.472 439.434C672.206 437.034 666.872 432.634 662.606 429.7C642.739 415.967 633.406 408.634 626.072 401.167C621.672 396.634 617.406 393.034 616.472 393.034C615.406 393.034 614.739 394.767 614.739 397.3C614.739 399.567 614.072 408.367 613.272 416.5L611.672 431.567L606.872 431.3L602.072 431.034L601.006 441.034C599.139 457.967 600.872 497.967 604.739 526.367C606.606 540.634 609.406 561.967 610.872 573.7C617.006 623.967 623.939 644.9 636.606 652.367C641.539 655.167 643.406 655.567 651.539 655.167C667.272 654.234 686.872 646.234 704.739 633.7L712.872 627.967V672.1C713.006 712.367 716.606 817.434 718.206 824.634C718.472 826.367 719.406 827.7 720.072 827.7C721.406 827.7 721.006 802.767 718.739 745.567C716.072 678.9 717.272 625.834 722.206 593.7C725.806 570.5 725.806 570.367 724.339 570.367C721.939 570.367 719.806 580.367 713.939 619.167C713.406 622.634 711.539 624.634 703.406 630.367C697.806 634.1 688.339 639.567 682.206 642.5C669.539 648.367 651.939 653.167 651.139 650.9C650.872 650.1 647.539 644.1 643.806 637.567C631.806 616.634 624.339 590.5 619.406 551.967C617.139 533.567 613.139 465.167 614.072 458.367C614.339 455.834 615.672 441.567 616.872 426.767L619.139 399.967L627.939 408.634C632.739 413.3 643.672 421.967 652.072 427.7C660.472 433.434 668.739 439.567 670.339 441.3C677.272 448.634 679.539 491.3 674.739 520.367C671.539 539.567 671.672 538.367 673.939 538.367C676.206 538.367 679.539 522.767 681.539 503.967C682.872 490.367 681.806 469.167 678.872 453.967L677.806 447.7H684.606C695.139 447.7 712.206 438.634 728.472 424.767L736.072 418.1L729.006 431.834C715.006 459.434 709.806 482.9 711.139 512.367C712.206 533.434 714.472 543.7 721.406 557.7C731.939 579.034 746.339 592.634 771.406 605.034C785.406 611.967 786.739 612.5 786.739 610.367C786.739 609.7 780.872 606.1 773.806 602.5C751.539 591.034 736.739 577.167 725.806 557.567C719.006 545.3 717.006 535.167 716.339 509.7C715.406 472.5 720.472 455.434 745.539 411.567C764.872 377.967 762.739 380.5 770.339 380.9C775.006 381.034 778.339 380.367 782.606 378.1L788.472 374.9L795.272 381.7C803.672 389.967 810.339 392.5 817.006 389.7C819.406 388.634 821.806 386.9 822.206 385.7C824.072 381.034 811.939 369.034 800.872 364.367C795.672 362.234 786.739 361.7 786.739 363.567Z" fill="black"/>
<path d="M769.938 426.9C769.538 427.967 769.138 431.7 769.005 435.3C768.738 441.3 769.005 441.7 772.071 441.7C775.005 441.7 775.538 441.034 776.338 435.034C776.871 431.3 777.138 427.567 776.738 426.634C775.938 424.367 770.871 424.634 769.938 426.9Z" fill="black"/>
<path d="M932.871 437.7C932.071 445.167 932.738 448.9 934.738 446.767C935.404 446.234 936.071 442.5 936.338 438.5C936.871 428.5 934.071 427.967 932.871 437.7Z" fill="black"/>
<path d="M889.672 449.433C883.272 457.033 862.206 508.9 864.606 511.3C866.339 513.033 868.739 508.5 874.072 493.967C876.872 486.5 882.339 473.567 886.339 465.167C890.339 456.633 893.006 449.433 892.339 448.767C891.672 448.1 890.472 448.367 889.672 449.433Z" fill="black"/>
<path d="M861.537 462.367C859.537 471.833 859.671 480.1 861.804 479.433C864.471 478.5 866.871 455.7 864.204 455.7C863.537 455.7 862.337 458.767 861.537 462.367Z" fill="black"/>
<path d="M760.338 471.3C757.672 476.367 757.272 483.3 759.405 485.034C762.738 487.834 765.538 483.967 765.805 476.234C766.072 471.167 765.538 469.7 763.805 469.3C762.605 469.034 761.005 469.967 760.338 471.3Z" fill="black"/>
<path d="M661.005 476.634C659.405 479.434 658.739 487.7 660.072 487.7C661.672 487.7 662.205 486.5 663.272 479.967C663.939 476.234 662.472 474.1 661.005 476.634Z" fill="black"/>
<path d="M958.739 476.5C958.739 477.434 960.473 485.434 962.606 494.5C968.473 519.3 969.939 531.167 969.006 550.234C968.073 570.5 965.939 578.9 957.273 596.367C940.739 629.967 911.673 660.767 872.206 686.634C864.473 691.567 857.539 695.7 856.606 695.7C855.673 695.7 854.873 690.234 854.339 678.634C853.406 657.434 851.006 642.234 843.273 607.834C831.806 556.5 824.473 535.434 812.606 518.767C809.273 514.1 806.739 509.967 807.006 509.7C807.273 509.434 810.739 509.967 814.739 511.034C823.406 513.3 824.073 513.434 824.073 511.834C824.073 508.5 782.606 497.567 774.873 499.034C768.339 500.1 749.139 506.367 747.006 508.1C743.673 510.767 745.673 516.234 751.273 518.9L756.473 521.434L748.606 524.634C737.939 528.9 734.339 532.5 735.406 537.7C735.806 539.834 736.206 543.834 736.073 546.5C736.073 551.834 738.606 554.767 744.606 556.234C746.606 556.767 750.206 559.167 752.606 561.567C756.073 565.3 758.206 566.234 764.473 567.034C775.539 568.5 782.739 566.9 795.939 560.234C802.473 557.034 808.073 554.367 808.473 554.367C808.739 554.367 809.539 559.167 809.939 564.9L810.873 575.434L805.406 585.3C802.339 590.634 797.539 598.234 794.606 601.967C791.006 606.767 789.939 609.034 791.273 609.034C792.473 609.034 794.606 607.7 796.206 605.967C799.806 602.234 809.006 588.234 810.073 584.9C811.539 580.234 813.006 582.234 813.806 589.967C815.273 604.234 824.206 645.567 829.006 660.367C834.339 676.767 841.939 692.767 847.806 699.567L851.673 704.234L860.873 699.034C917.806 667.434 962.873 614.767 971.539 569.434C973.673 557.834 973.939 532.1 972.073 519.7C970.073 507.3 962.739 480.234 960.606 477.434C959.673 476.1 958.739 475.7 958.739 476.5ZM796.473 506.767C799.406 508.1 803.139 511.967 807.806 518.767C814.873 529.034 823.539 545.967 822.473 547.167C822.073 547.434 818.473 548.1 814.606 548.634C809.939 549.034 804.073 551.167 797.939 554.5C785.806 561.034 773.939 564.234 765.406 563.034C761.806 562.5 758.206 561.434 757.406 560.5C756.339 559.167 757.939 558.634 764.473 557.967C773.806 557.034 786.873 552.767 789.539 549.567C792.206 546.234 790.339 546.367 780.073 549.834C769.806 553.434 756.073 554.634 746.473 552.634C739.006 551.167 740.339 549.034 748.606 549.034C761.939 549.034 784.073 543.567 784.073 540.367C784.073 537.967 783.673 537.967 775.539 540.367C765.406 543.434 746.206 545.567 743.273 543.967C741.006 542.767 741.139 542.5 744.739 541.7C763.939 537.434 772.339 534.234 776.073 529.7C779.273 525.834 776.206 525.967 767.139 530.1C759.006 533.7 747.139 537.034 742.073 537.034C737.273 537.034 741.006 533.967 754.473 527.034C771.406 518.234 775.939 515.034 774.073 513.167C773.273 512.367 769.806 512.634 764.339 514.1C756.206 516.234 752.339 515.7 751.139 512.234C751.006 511.567 755.673 509.434 761.806 507.434C770.873 504.367 774.473 503.967 782.473 504.367C787.673 504.767 794.073 505.834 796.473 506.767Z" fill="black"/>
<path d="M950.738 497.434C950.738 503.967 951.405 508.1 952.738 509.834C954.472 512.1 954.605 511.834 954.738 505.034C954.738 495.834 953.405 487.7 951.938 487.7C951.272 487.7 950.738 492.1 950.738 497.434Z" fill="black"/>
<path d="M663.539 498.634C663.139 500.9 663.006 503.167 663.406 503.567C664.606 504.634 666.739 500.767 666.739 497.3C666.739 492.9 664.472 493.7 663.539 498.634Z" fill="black"/>
<path d="M934.072 511.967C933.272 514.5 930.738 532.5 930.738 535.7C930.738 537.434 931.405 538.367 932.472 538.1C933.938 537.567 937.005 521.7 937.272 513.3C937.405 510.234 935.005 509.167 934.072 511.967Z" fill="black"/>
<path d="M869.404 513.034C869.404 513.834 871.404 516.9 873.804 519.834C878.738 525.434 885.004 537.434 887.404 545.567C889.271 551.967 893.004 554.234 891.538 548.234C889.671 539.834 885.004 529.3 880.338 522.5C875.271 515.034 869.404 509.967 869.404 513.034Z" fill="black"/>
<path d="M947.538 523.167C946.205 527.567 944.338 543.034 945.005 544.634C946.605 548.634 947.805 545.567 949.271 534.767C950.071 527.967 950.205 522.634 949.538 521.967C948.871 521.3 948.071 521.834 947.538 523.167Z" fill="black"/>
<path d="M870.338 597.034C868.338 598.634 866.738 600.5 866.738 601.167C866.738 603.167 869.805 602.5 873.405 599.7C875.805 597.967 876.338 596.767 875.272 595.7C874.205 594.634 872.872 595.034 870.338 597.034Z" fill="black"/>
<path d="M685.139 599.7C683.539 604.767 683.805 608.5 685.539 606.767C686.339 605.967 686.739 603.3 686.472 600.9C686.072 596.634 686.072 596.5 685.139 599.7Z" fill="black"/>
<path d="M1001.14 612.5C1000.74 612.767 1001.14 617.7 1002.07 623.434C1003.01 629.034 1004.47 640.234 1005.27 648.367C1009.54 688.767 1010.07 691.7 1012.34 691.7C1014.07 691.7 1013.14 678.9 1009.41 650.367C1005.14 617.567 1003.54 609.967 1001.14 612.5Z" fill="black"/>
<path d="M905.537 627.167C901.537 630.5 900.071 634.367 902.604 634.367C904.737 634.367 912.071 627.567 912.071 625.567C912.071 622.767 910.071 623.3 905.537 627.167Z" fill="black"/>
<path d="M888.471 652.5C881.004 658.367 883.671 660.767 891.671 655.3C896.071 652.367 897.538 649.034 894.471 649.034C893.538 649.034 890.738 650.634 888.471 652.5Z" fill="black"/>
<path d="M928.072 695.434C928.072 702.9 930.739 709.7 932.472 706.767C934.072 704.234 931.806 687.7 929.939 687.7C928.606 687.7 928.072 689.834 928.072 695.434Z" fill="black"/>
<path d="M780.072 712.634C779.138 715.434 778.738 720.1 779.005 723.034C779.405 727.967 779.538 728.1 781.005 725.567C783.405 721.434 784.872 707.7 783.005 707.7C782.205 707.7 780.872 709.967 780.072 712.634Z" fill="black"/>
<path d="M894.339 713.967C893.139 715.034 893.139 727.3 894.206 732.9C894.739 735.167 895.939 737.034 896.873 737.034C898.339 737.034 898.739 734.634 898.739 727.167C898.739 714.767 897.406 710.767 894.339 713.967Z" fill="black"/>
<path d="M599.671 715.834C594.338 718.9 592.471 726.5 593.938 739.034C594.604 744.234 594.204 746.9 592.204 751.034L589.671 756.367L589.538 751.967C589.404 746.367 586.071 738.5 583.404 737.567C582.338 737.034 579.938 737.7 578.071 738.9C573.004 742.234 573.404 751.7 579.271 764.234C581.671 769.567 584.338 774.367 585.004 774.767C586.071 775.434 585.004 791.7 583.671 796.234C583.404 796.9 581.404 794.234 579.138 790.234C574.604 782.234 567.404 774.367 564.738 774.367C561.804 774.367 558.738 778.234 558.738 781.834C558.738 788.767 567.271 800.1 578.338 807.834C581.404 809.967 581.404 809.967 579.271 821.167C578.071 827.3 577.004 832.5 576.738 832.767C576.471 833.034 574.871 830.367 573.271 826.9C569.804 819.967 559.804 809.034 557.138 809.034C552.871 809.167 551.404 811.7 551.404 818.634C551.538 829.7 558.604 840.9 570.604 849.434L573.671 851.434L571.538 867.967C570.471 876.9 569.138 887.967 568.604 892.234L567.804 900.1L564.471 894.234C560.071 886.367 556.204 882.367 553.004 882.367C550.738 882.367 550.471 883.034 551.138 887.834C551.538 890.767 551.404 893.034 551.004 892.767C550.471 892.5 547.804 891.167 545.004 889.7C536.471 885.3 534.738 892.1 542.204 900.9L545.671 905.034H520.871H496.071L501.004 900.634C505.804 896.234 506.071 893.034 501.804 893.034C500.738 893.034 497.404 895.434 494.471 898.367C491.538 901.3 488.871 903.7 488.738 903.7C488.471 903.7 489.804 900.9 491.671 897.567C494.204 893.167 494.738 891.167 493.538 889.967C491.538 887.967 485.538 891.3 483.538 895.7C482.071 898.9 482.071 898.9 481.404 894.367C480.071 885.967 481.138 883.834 489.004 880.234C496.471 876.634 500.871 871.834 499.538 868.367C498.604 865.834 493.404 865.834 489.938 868.367C486.071 871.3 485.804 870.9 486.471 863.567C487.138 855.834 485.004 855.3 483.004 862.634L481.938 866.9L479.004 861.834C472.204 850.234 468.471 862.9 475.138 874.9C478.338 880.634 478.338 880.634 476.071 889.834L473.938 899.034L471.938 895.034C470.738 892.5 468.871 890.9 466.871 890.634C463.938 890.1 463.671 890.5 464.338 895.434L465.138 900.767L461.138 896.234C454.071 888.1 452.204 891.567 458.871 900.367L462.871 905.7L440.738 906.1C426.738 906.234 418.871 906.9 419.404 907.7C419.938 908.5 443.938 909.034 483.938 909.034H547.804L555.271 912.5C559.404 914.367 563.271 915.434 564.071 915.034C566.204 913.7 564.338 911.834 558.604 909.434C553.004 907.3 540.071 894.1 542.604 893.3C543.538 893.034 547.004 895.434 550.471 898.5C555.404 903.167 556.738 903.834 557.138 902.1C557.404 900.9 556.871 898.634 556.204 897.167C555.404 895.7 554.738 893.167 554.738 891.567C554.738 888.767 555.004 888.767 558.604 893.034C560.871 895.567 563.271 899.3 564.071 901.3C566.071 905.967 569.538 907.3 571.671 904.1C572.604 902.767 574.204 900.5 575.271 899.034C577.138 896.5 577.271 896.634 576.071 900.9C574.204 907.7 575.938 908.634 579.671 902.767L582.871 897.7L582.071 901.967C581.404 905.434 581.671 906.367 583.271 906.367C584.471 906.367 585.404 905.834 585.404 905.167C585.404 904.634 587.271 901.834 589.404 899.034C592.338 895.3 593.004 893.434 592.071 892.5C591.004 891.434 589.804 891.967 587.938 894.367L585.138 897.7L585.938 893.567C587.271 885.3 580.338 883.7 576.071 891.3L573.271 896.367L574.071 886.367C575.271 871.967 575.671 870.767 581.938 867.167C589.271 862.9 596.604 854.634 598.738 848.5C600.071 844.367 599.938 843.034 598.071 840.234C596.471 837.7 595.271 837.167 593.004 837.834C589.404 838.9 581.804 844.634 580.871 846.767C580.604 847.7 580.204 847.034 580.204 845.567C580.071 843.834 583.804 838.634 589.404 832.234C594.604 826.5 599.938 819.3 601.404 816.367C604.338 810.367 604.871 803.7 602.604 801.434C601.538 800.367 601.804 798.767 603.404 795.7C607.271 788.367 606.071 781.167 601.004 781.034C600.338 781.034 597.804 783.034 595.271 785.567L590.738 790.1V784.234C590.738 778.634 590.871 778.367 597.404 775.034C605.004 771.167 613.938 762.9 615.004 758.634C615.404 757.167 614.871 754.634 613.804 753.034C611.004 749.034 606.204 750.5 599.138 757.434C595.938 760.5 593.404 762.234 593.404 761.434C593.404 756.234 599.138 742.5 602.871 739.034C608.338 733.834 610.738 728.9 610.738 723.167C610.738 715.834 605.538 712.367 599.671 715.834ZM606.738 722.9C606.738 727.3 602.204 735.7 599.271 736.634C597.004 737.434 595.804 731.034 597.538 726.767C600.871 717.967 606.738 715.434 606.738 722.9ZM585.004 749.834C585.938 754.1 586.604 760.367 586.338 763.7L585.938 769.7L582.871 763.034C579.538 756.1 577.804 746.634 579.271 743.034C580.871 738.9 583.404 741.967 585.004 749.834ZM611.271 755.567C612.471 757.3 607.271 763.167 600.604 767.834C592.604 773.3 592.871 769.967 601.138 761.167C607.404 754.5 609.804 753.167 611.271 755.567ZM576.204 793.834C580.338 802.5 578.738 803.7 571.938 797.034C565.404 790.367 561.938 783.7 563.404 780.1C564.204 778.1 565.004 778.5 568.871 782.9C571.271 785.7 574.604 790.634 576.204 793.834ZM601.404 788.9C601.404 791.834 595.804 799.034 591.938 801.167C587.538 803.434 589.004 799.3 594.871 792.5C597.804 789.167 600.604 786.367 600.871 786.367C601.138 786.367 601.404 787.567 601.404 788.9ZM595.938 816.367C593.538 820.5 589.138 825.967 586.338 828.767L581.271 833.7L582.204 829.7C583.671 823.3 586.071 819.434 592.738 812.367C600.471 804.1 602.071 806.234 595.938 816.367ZM562.338 818.634C567.804 824.5 571.938 833.034 573.004 840.634L573.804 847.034L569.938 843.7C561.804 836.5 557.271 829.434 555.404 821.434C553.804 813.434 556.338 812.367 562.338 818.634ZM595.404 843.7C596.871 846.1 589.938 856.234 583.538 860.767C580.204 863.167 577.404 864.5 577.404 863.7C577.404 860.634 582.871 851.7 587.538 847.167C592.738 842.1 594.071 841.567 595.404 843.7ZM475.271 863.167C475.671 864.234 475.538 864.767 474.738 864.367C473.938 863.967 473.404 863.034 473.404 862.234C473.404 860.367 474.338 860.767 475.271 863.167ZM497.404 871.7C497.404 872.367 496.871 873.034 496.071 873.034C495.404 873.034 494.738 872.367 494.738 871.7C494.738 870.9 495.404 870.367 496.071 870.367C496.871 870.367 497.404 870.9 497.404 871.7ZM581.671 893.3C580.738 894.234 580.071 894.367 580.071 893.567C580.071 891.7 581.671 890.1 582.604 891.034C582.871 891.434 582.471 892.5 581.671 893.3ZM500.071 897.567C500.071 897.834 499.004 898.9 497.804 899.834C495.671 901.567 495.538 901.434 497.271 899.3C499.004 897.167 500.071 896.5 500.071 897.567Z" fill="black"/>
<path d="M915.671 719.3C914.071 720.767 914.604 750.1 916.204 751.034C917.004 751.567 917.804 751.7 917.938 751.567C918.204 751.3 918.738 743.7 919.138 734.634C919.804 721.834 919.538 718.367 918.204 718.367C917.271 718.367 916.071 718.767 915.671 719.3Z" fill="black"/>
<path d="M757.538 740.767C753.671 754.767 753.271 773.7 756.738 773.7C757.538 773.7 758.204 771.567 758.471 769.034C758.604 766.5 759.404 758.5 760.204 751.167C761.138 742.367 761.138 737.567 760.204 736.634C759.404 735.834 758.471 737.167 757.538 740.767Z" fill="black"/>
<path d="M779.538 751.434C777.538 754.634 774.738 770.5 774.738 778.634C774.738 787.967 776.738 791.034 777.938 783.3C778.338 781.034 779.538 773.034 780.738 765.834C782.072 757.7 782.338 752.1 781.672 751.434C780.872 750.634 780.072 750.634 779.538 751.434Z" fill="black"/>
<path d="M740.872 778.634C739.805 784.767 741.672 797.434 743.805 798.1C745.005 798.5 745.405 795.567 745.405 786.5C745.405 776.767 745.005 774.367 743.405 774.367C742.339 774.367 741.272 776.1 740.872 778.634Z" fill="black"/>
<path d="M995.405 790.367C994.205 792.234 999.672 810.367 1001.4 810.367C1003.27 810.367 1003.14 808.5 1000.6 799.167C998.072 790.234 996.872 787.967 995.405 790.367Z" fill="black"/>
<path d="M1013.4 796.234C1013.4 800.5 1019.67 816.367 1022.2 818.5C1025.14 820.9 1024.6 817.167 1019.94 805.167C1015.54 793.7 1013.4 790.767 1013.4 796.234Z" fill="black"/>
<path d="M1054.47 827.7C1050.34 830.234 1020.61 838.1 1005.41 840.9C989.939 843.7 964.072 846.9 942.072 848.634C923.006 850.1 833.006 849.7 814.739 847.967C780.339 844.634 753.939 839.434 734.206 831.834C725.006 828.367 721.272 828.234 723.272 831.567C724.206 833.034 743.672 840.234 754.739 843.034C772.606 847.7 795.672 851.034 828.206 853.7L838.339 854.5L842.072 865.434C844.206 871.434 846.072 877.034 846.339 877.834C847.006 879.7 841.806 881.567 827.406 884.367C812.206 887.434 799.139 893.834 790.339 902.634C788.206 904.767 784.606 905.034 748.739 905.034C704.472 905.034 707.539 905.967 712.072 894.367C715.006 886.9 715.272 885.034 713.539 885.034C712.339 885.034 708.872 892.767 706.072 902.1C704.472 907.167 704.606 907.967 706.339 908.634C710.206 910.1 1113.81 907.834 1115.27 906.367C1116.21 905.434 1094.61 905.034 1047.67 905.034C993.672 905.034 978.472 904.634 978.072 903.3C977.006 900.234 973.806 852.367 974.606 851.434C975.006 850.9 982.072 849.567 990.072 848.367C1018.21 844.367 1064.07 831.434 1064.07 827.567C1064.07 825.967 1057.41 826.1 1054.47 827.7ZM960.872 855.567C965.806 857.834 969.672 861.034 967.406 861.034C965.939 861.034 957.272 857.167 954.472 855.034C950.339 852.234 954.072 852.5 960.872 855.567ZM956.606 862.234C971.406 869.167 975.272 872.367 963.272 867.834C951.806 863.3 933.806 854.1 938.072 854.9C940.339 855.167 948.606 858.5 956.606 862.234ZM871.139 860.5C878.072 863.967 887.139 870.367 886.206 871.3C885.939 871.567 880.472 868.767 873.939 865.167C867.539 861.434 861.406 858.367 860.606 858.367C859.672 858.367 858.472 857.7 858.072 857.034C856.739 854.9 863.539 856.767 871.139 860.5ZM913.139 867.167C916.339 873.567 918.606 879.034 918.206 879.3C917.539 879.967 900.872 883.7 900.606 883.3C900.606 883.167 899.672 876.9 898.606 869.3L896.606 855.7H902.072H907.539L913.139 867.167ZM888.606 857.834C889.806 858.234 890.739 859.567 890.739 860.5C890.739 862.1 890.206 862.1 888.072 861.034C886.606 860.234 885.406 859.034 885.406 858.367C885.406 856.767 885.806 856.767 888.606 857.834ZM924.206 858.367C925.006 858.367 925.272 858.9 924.872 859.567C923.806 861.167 918.739 859.834 918.739 858.1C918.739 857.3 919.672 857.167 920.872 857.567C922.072 857.967 923.539 858.367 924.206 858.367ZM859.272 862.367C868.739 867.834 882.339 878.767 880.472 879.3C879.539 879.7 874.872 876.767 870.072 873.034C865.139 869.434 858.872 865.034 855.939 863.3C853.139 861.7 850.739 859.967 850.739 859.3C850.739 857.7 852.072 858.234 859.272 862.367ZM940.072 862.5C950.606 867.434 957.806 871.834 956.872 872.634C956.606 873.034 950.739 870.5 944.072 867.167C937.272 863.834 931.006 861.034 929.939 861.034C928.872 861.034 928.072 860.367 928.072 859.7C928.072 857.434 931.006 858.1 940.072 862.5ZM941.406 875.034C941.406 877.167 935.006 873.7 928.339 867.967C925.272 865.3 925.939 865.434 933.139 869.034C937.672 871.3 941.406 873.967 941.406 875.034ZM853.139 871.167C851.806 872.5 849.406 870.367 849.406 867.967C849.406 865.967 849.539 865.967 851.672 868.1C852.872 869.3 853.539 870.634 853.139 871.167ZM855.806 890.9C854.872 891.967 853.539 892.5 852.872 892.1C852.339 891.7 852.606 890.9 853.539 890.234C856.472 888.5 857.672 888.767 855.806 890.9ZM840.472 896.367C840.072 897.567 839.406 898.234 839.139 897.834C838.739 897.434 838.872 896.634 839.406 895.834C840.606 893.7 841.406 894.1 840.472 896.367ZM973.139 903.3C971.006 903.567 967.806 903.567 965.806 903.3C963.672 903.034 965.406 902.767 969.406 902.767C973.406 902.767 975.139 903.034 973.139 903.3ZM843.672 904.5C843.272 904.9 842.072 905.034 841.139 904.634C840.072 904.234 840.472 903.834 841.939 903.834C843.406 903.7 844.206 904.1 843.672 904.5Z" fill="black"/>
<path d="M616.871 0.633545C616.471 1.03355 616.071 4.90021 616.071 9.03355C616.071 13.3002 615.671 18.6335 615.271 20.9002C614.471 24.9002 614.071 25.0335 607.938 25.0335C604.338 25.0335 601.404 25.5669 601.404 26.3669C601.404 27.0335 604.338 27.7002 607.938 27.7002H614.471L615.271 39.3002C616.471 54.6335 617.271 59.4335 618.738 60.3669C619.538 60.9002 620.071 55.0335 620.071 45.1669V29.1669L627.671 28.7669C638.471 28.2335 639.004 25.0335 628.204 25.0335H620.071V13.1669C620.071 2.10021 619.138 -1.63312 616.871 0.633545Z" fill="#4F46E5"/>
<path d="M695.539 18.2336C694.206 20.2336 697.539 26.2336 700.472 27.167C704.472 28.367 705.939 25.967 703.806 21.4336C702.072 17.7003 697.006 15.7003 695.539 18.2336Z" fill="#4F46E5"/>
<path d="M433.404 73.0337C433.404 77.4337 433.938 81.0337 434.738 81.0337C435.538 81.0337 436.071 77.4337 436.071 73.0337C436.071 68.6337 435.538 65.0337 434.738 65.0337C433.938 65.0337 433.404 68.6337 433.404 73.0337Z" fill="#4F46E5"/>
<path d="M258.738 78.2335C258.738 79.9668 262.472 82.6335 264.205 82.1002C265.272 81.7002 265.005 80.9002 263.538 79.3002C261.005 76.9002 258.738 76.3668 258.738 78.2335Z" fill="#4F46E5"/>
<path d="M279.938 86.767C273.538 89.167 269.538 92.1004 266.605 96.6337C263.405 101.3 263.405 105.567 266.605 112.634C269.272 118.367 272.605 121.034 277.272 121.034C281.405 121.034 280.605 118.767 276.205 117.7C274.072 117.3 271.272 115.7 270.072 114.367C267.138 111.167 265.938 101.034 268.072 97.167C270.072 93.167 279.405 89.0337 286.205 89.0337C291.938 89.0337 293.938 90.6337 301.672 101.3L303.938 104.367L303.138 101.3C302.072 96.9004 292.072 86.5004 288.072 85.7004C286.205 85.4337 282.605 85.8337 279.938 86.767Z" fill="#4F46E5"/>
<path d="M991.805 87.8337C986.872 90.6337 989.805 95.3003 995.539 93.8337C999.139 92.9003 999.939 88.5003 996.605 87.167C994.072 86.2337 994.605 86.1003 991.805 87.8337Z" fill="#4F46E5"/>
<path d="M314.071 112.634C307.671 113.434 293.404 118.5 293.404 119.834C293.404 121.567 297.138 121.3 304.604 119.034C308.204 117.967 314.471 117.034 318.471 117.034C324.871 117.034 326.204 117.567 330.204 121.567C335.538 126.9 335.804 129.3 332.471 147.967C330.071 162.367 331.004 171.034 336.071 179.434C342.604 190.1 351.004 191.167 370.738 183.434C379.938 179.834 383.938 179.034 392.071 179.034C407.004 179.034 413.404 182.634 422.204 196.1C425.938 201.834 430.738 208.234 432.738 210.367C440.738 218.634 450.738 218.9 474.604 211.167C496.871 203.967 505.804 204.9 514.871 215.567C517.538 218.5 521.404 225.3 523.404 230.634C527.271 240.5 531.404 245.434 549.004 261.167C552.738 264.634 557.138 269.967 558.738 273.034C562.604 280.5 565.404 294.234 565.404 305.7C565.404 312.634 565.804 314.5 567.004 313.3C569.138 311.167 569.004 294.1 566.871 285.034C563.138 270.1 556.738 260.767 541.938 248.9C534.738 243.167 532.604 240.5 527.804 230.634C520.071 214.767 516.471 209.567 511.138 206.234C501.138 199.967 491.938 200.367 469.404 207.7C454.871 212.5 444.204 213.034 437.671 209.034C435.271 207.567 430.204 201.567 426.071 195.034C417.538 181.834 410.871 176.5 400.471 174.234C390.871 172.367 382.071 173.567 369.404 178.5C357.538 183.167 348.338 184.634 344.338 182.5C340.338 180.367 336.071 171.567 335.138 163.834C334.738 160.1 335.404 152.1 336.738 144.767C339.538 129.3 338.338 123.3 331.404 117.167C328.738 114.9 325.938 113.034 325.004 113.034C324.071 113.034 322.204 112.767 320.738 112.5C319.271 112.234 316.338 112.234 314.071 112.634Z" fill="#4F46E5"/>
<path d="M823.672 145.3C820.872 146.767 820.739 151.567 823.406 152.5C825.939 153.567 829.406 150.767 829.406 147.7C829.406 144.767 826.606 143.567 823.672 145.3Z" fill="#4F46E5"/>
<path d="M1044.61 146.767C1043.67 149.434 1044.74 153.034 1046.61 153.034C1048.87 153.034 1049.54 148.634 1047.54 146.5C1045.67 144.767 1045.41 144.767 1044.61 146.767Z" fill="#4F46E5"/>
<path d="M595.004 150.634C594.071 151.567 593.404 156.1 593.404 162.1C593.404 170.767 593.671 171.834 595.804 171.434C599.004 170.767 601.271 153.567 598.471 150.9C597.004 149.434 596.338 149.3 595.004 150.634Z" fill="#4F46E5"/>
<path d="M164.739 153.167C163.672 154.767 167.805 159.7 170.339 159.7C171.272 159.7 172.072 158.634 172.072 157.3C172.072 152.9 166.739 149.834 164.739 153.167Z" fill="#4F46E5"/>
<path d="M749.404 162.767C749.404 163.7 750.338 165.7 751.404 167.167C753.271 169.567 753.271 169.434 753.404 165.3C753.404 162.367 752.738 161.034 751.404 161.034C750.338 161.034 749.404 161.834 749.404 162.767Z" fill="#4F46E5"/>
<path d="M456.338 165.3C454.072 167.567 454.338 171.3 456.738 172.234C459.272 173.167 463.138 169.3 462.205 166.767C461.805 165.7 461.405 164.5 461.405 164.234C461.405 163.034 457.805 163.834 456.338 165.3Z" fill="#4F46E5"/>
<path d="M1062.07 175.7C1061.14 178.5 1062.07 181.034 1064.21 181.034C1064.87 181.034 1065.41 179.167 1065.41 177.034C1065.41 172.5 1063.41 171.7 1062.07 175.7Z" fill="#4F46E5"/>
<path d="M237.672 185.3C237.938 187.034 238.738 188.367 239.405 188.367C240.205 188.367 240.872 187.034 241.138 185.3C241.405 183.3 240.872 182.367 239.405 182.367C237.938 182.367 237.405 183.3 237.672 185.3Z" fill="#4F46E5"/>
<path d="M783.672 188.634C782.339 189.834 782.472 194.367 783.939 194.367C785.672 194.367 787.005 190.1 785.672 188.767C785.005 188.1 784.205 188.1 783.672 188.634Z" fill="#4F46E5"/>
<path d="M681.404 208.234C681.404 212.234 685.804 217.834 687.804 216.5C689.938 215.3 689.804 208.634 687.804 206.634C685.004 203.834 681.404 204.767 681.404 208.234Z" fill="#4F46E5"/>
<path d="M237.939 211.034C237.405 212.234 237.939 214.234 239.272 215.434C241.272 217.434 241.405 217.3 241.405 214.1C241.405 209.834 239.139 207.967 237.939 211.034Z" fill="#4F46E5"/>
<path d="M329.672 246.634C328.739 247.567 328.072 249.7 328.072 251.434C328.072 253.967 328.739 254.5 331.139 254.1C333.406 253.834 334.072 252.767 334.072 249.834C334.072 245.567 332.206 244.1 329.672 246.634Z" fill="#4F46E5"/>
<path d="M629.805 259.167C627.405 260.233 627.672 264.633 630.205 265.567C633.138 266.633 637.672 263.967 637.138 261.3C636.738 259.033 632.872 257.967 629.805 259.167Z" fill="#4F46E5"/>
<path d="M482.738 268.367C482.738 269.434 483.672 270.367 484.738 270.367C485.805 270.367 486.738 269.434 486.738 268.367C486.738 267.3 485.805 266.367 484.738 266.367C483.672 266.367 482.738 267.3 482.738 268.367Z" fill="#4F46E5"/>
<path d="M411.538 284.634C410.072 296.767 410.072 296.767 402.072 297.7C398.072 298.234 394.738 299.167 394.738 299.7C394.738 300.767 401.405 302.367 406.205 302.367C409.138 302.367 409.272 302.767 409.672 313.967C409.938 321.434 410.605 325.7 411.672 325.967C412.872 326.367 413.405 323.3 413.672 314.767L414.072 303.034H423.272C428.872 303.034 432.738 302.5 433.005 301.567C433.672 299.567 429.138 298.367 421.005 298.367H414.605L415.005 288.234C415.538 275.567 412.872 272.9 411.538 284.634Z" fill="#4F46E5"/>
<path d="M693.405 282.634C693.405 285.034 693.005 289.3 692.605 291.967L691.671 297.034H684.605C675.538 297.034 675.271 299.034 684.071 300.1C692.471 301.167 693.405 301.7 693.405 305.967C693.405 310.5 696.205 319.7 697.671 319.7C698.205 319.7 698.338 315.434 697.938 310.367L697.005 301.034H701.938C705.271 301.034 706.738 300.5 706.738 299.034C706.738 297.7 705.271 297.034 702.071 297.034H697.405V290.634C697.405 283.3 696.205 278.367 694.605 278.367C693.938 278.367 693.405 280.367 693.405 282.634Z" fill="#4F46E5"/>
<path d="M1019.54 307.434C1018.34 309.434 1020.07 313.034 1022.2 313.034C1024.6 313.034 1024.6 311.567 1022.34 308.367C1021.14 306.9 1020.2 306.5 1019.54 307.434Z" fill="#4F46E5"/>
<path d="M1001.01 333.833C1000.47 334.367 1000.07 336.233 1000.07 337.967C1000.07 341.567 1003.41 342.1 1004.61 338.767C1005.54 336.367 1002.47 332.367 1001.01 333.833Z" fill="#4F46E5"/>
<path d="M1051.8 379.967L1051.4 392.367L1042.87 393.034C1037.67 393.434 1034.07 394.367 1033.67 395.3C1033.27 396.634 1035.54 397.034 1042.34 397.034H1051.4L1051.67 404.634C1052.07 413.3 1053 417.034 1054.87 417.034C1055.54 417.034 1056.07 412.5 1056.07 407.034V397.167L1065.67 396.767C1071.8 396.5 1075.4 395.834 1075.8 394.634C1076.2 393.434 1073.67 393.034 1066.2 393.034H1056.07V382.5C1056.07 376.634 1055.67 371.034 1055.27 369.834C1053.4 364.9 1052.2 368.5 1051.8 379.967Z" fill="#4F46E5"/>
<path d="M676.072 374.5C676.072 378.767 678.606 382.367 681.406 382.367C684.606 382.367 684.872 378.767 681.939 374.634C679.406 370.9 676.072 370.767 676.072 374.5Z" fill="#4F46E5"/>
<path d="M78.7383 388.234V398.367H71.405C63.9383 398.367 61.6717 400.1 67.1383 401.567C68.7383 401.967 71.9383 402.367 74.205 402.367H78.3383L79.2717 414.634C80.3383 427.7 82.205 437.034 83.805 437.034C84.3383 437.034 84.605 429.3 84.3383 419.834L83.805 402.5L88.205 402.1C93.9383 401.567 93.6717 399.3 87.805 398.367L83.405 397.7L82.7383 388.5C82.3383 382.767 81.405 379.034 80.4717 378.634C79.1383 378.234 78.7383 380.767 78.7383 388.234Z" fill="#4F46E5"/>
<path d="M14.7383 446.5C14.7383 449.567 20.4716 461.034 22.0716 461.034C25.2716 461.034 25.1383 459.3 21.6716 452.234C18.6049 445.834 14.7383 442.634 14.7383 446.5Z" fill="#4F46E5"/>
<path d="M75.6721 499.7C74.7388 504.234 75.8055 511.7 77.5388 511.7C79.1388 511.7 80.4721 502.9 79.5388 499.034C78.3388 494.5 76.6055 494.767 75.6721 499.7Z" fill="#4F46E5"/>
<path d="M1083.67 509.967C1083.14 510.367 1082.74 514.234 1082.74 518.5V526.1L1074.47 527.3C1063 528.767 1062.6 531.7 1073.8 531.7H1082.47L1083.4 540.634C1084.47 550.5 1085.14 553.034 1086.87 553.034C1087.54 553.034 1088.07 548.234 1088.07 542.367V531.7H1094.6C1101.4 531.7 1104.6 529.7 1101.27 527.567C1100.2 526.9 1096.87 526.367 1093.8 526.367H1088.07V519.167C1088.07 512.5 1085.8 507.7 1083.67 509.967Z" fill="#4F46E5"/>
<path d="M60.8708 513.834C59.1375 518.367 60.0708 526.1 62.8708 529.167L65.5375 532.367L64.8708 525.834C64.4708 522.234 64.0708 517.567 64.0708 515.567C64.0708 511.434 62.2041 510.367 60.8708 513.834Z" fill="#4F46E5"/>
<path d="M566.206 540.1L567.139 552.9L562.606 553.3C556.872 553.834 556.739 556.234 562.472 556.767C566.606 557.167 566.739 557.3 566.739 563.834C566.739 567.434 567.406 570.367 568.072 570.367C568.872 570.367 569.406 567.434 569.406 563.834C569.406 557.7 569.672 557.3 573.406 556.5C578.206 555.567 578.739 553.034 574.072 553.034C571.139 553.034 570.739 552.5 570.739 547.7C570.739 540.9 568.206 529.3 566.606 528.234C565.672 527.7 565.539 531.834 566.206 540.1Z" fill="#4F46E5"/>
<path d="M533.006 623.167C532.472 623.7 532.072 628.1 532.072 633.034V641.967L525.139 643.167C515.539 644.9 515.006 647.7 524.472 647.7H531.672L532.472 662.634C533.272 678.1 535.672 687.834 538.739 688.767C540.072 689.3 540.206 688.367 539.539 685.567C538.206 680.634 536.072 660.634 536.072 653.434V647.834L543.806 646.9C554.739 645.567 555.406 643.167 545.006 642.367L536.739 641.7L536.339 633.034C535.939 624.634 534.872 621.434 533.006 623.167Z" fill="#4F46E5"/>
<path d="M1056.6 631.034C1055.4 633.967 1056.6 637.7 1058.74 637.7C1061.54 637.7 1062.2 630.9 1059.4 629.834C1058.2 629.434 1057 629.834 1056.6 631.034Z" fill="#4F46E5"/>
<path d="M17.4049 645.567C17.4049 652.634 17.2716 653.034 14.0716 653.034C11.9383 653.034 10.7383 653.834 10.7383 655.034C10.7383 656.234 11.9383 657.034 14.0716 657.034C17.1383 657.034 17.4049 657.567 17.4049 662.9C17.4049 669.434 19.2716 675.7 21.2716 675.7C22.0716 675.7 22.3383 671.967 21.8049 666.367L21.0049 657.034H25.2716C30.6049 657.034 30.3383 653.967 25.0049 653.3C21.8049 652.9 21.5383 652.234 21.1383 646.1C20.6049 636.234 17.4049 635.834 17.4049 645.567Z" fill="#4F46E5"/>
<path d="M589.004 646.9C588.204 649.034 589.271 653.7 591.538 657.567C592.604 659.3 593.804 659.834 595.404 659.167C599.538 657.567 595.938 645.034 591.404 645.034C590.471 645.034 589.404 645.834 589.004 646.9Z" fill="#4F46E5"/>
<path d="M511.538 728.633C510.472 729.7 510.472 735.433 511.538 739.3C513.005 744.633 514.738 742.633 514.738 735.833C514.738 729.567 513.538 726.767 511.538 728.633Z" fill="#4F46E5"/>
<path d="M657.006 741.034L657.806 750.367H653.539C648.206 750.367 648.472 753.434 653.806 754.1C657.006 754.5 657.406 755.167 657.406 759.7C657.406 765.567 658.472 769.034 660.206 769.034C660.872 769.034 661.406 765.7 661.406 761.7V754.367H667.406C671.806 754.367 673.406 753.834 673.406 752.367C673.406 750.9 671.806 750.367 667.406 750.367H661.406V745.167C661.406 737.434 659.939 731.7 657.939 731.7C656.606 731.7 656.339 733.834 657.006 741.034Z" fill="#4F46E5"/>
<path d="M501.404 750.367C501.404 756.9 501.804 758.367 503.538 758.367C505.404 758.367 505.671 757.3 504.871 752.234C504.471 748.767 504.071 745.167 504.071 744.234C504.071 743.167 503.538 742.367 502.738 742.367C501.938 742.367 501.404 745.967 501.404 750.367Z" fill="#4F46E5"/>
<path d="M1096.74 751.567C1095.81 754.767 1097.27 758.367 1099.54 758.367C1100.74 758.367 1101.41 756.767 1101.41 753.7C1101.41 748.634 1098.21 747.034 1096.74 751.567Z" fill="#4F46E5"/>
<path d="M1110.2 780.634C1108.47 782.367 1109.4 789.034 1111.4 789.034C1112.74 789.034 1113.4 787.7 1113.4 785.167C1113.4 781.167 1111.8 779.034 1110.2 780.634Z" fill="#4F46E5"/>
<path d="M5.4043 837.567C5.4043 839.434 6.07096 841.3 6.87096 841.834C9.13763 843.167 11.1376 840.234 10.071 837.167C8.87096 833.3 5.4043 833.567 5.4043 837.567Z" fill="#4F46E5"/>
<path d="M483.272 846.9C482.206 849.7 483.139 853.434 485.139 854.1C486.206 854.367 486.739 853.167 486.739 850.5C486.739 846.1 484.472 843.7 483.272 846.9Z" fill="black"/>
<path d="M650.071 854.5C647.271 859.7 649.404 862.767 652.604 858.234C655.004 854.634 655.271 852.234 653.404 851.034C652.738 850.634 651.271 852.234 650.071 854.5Z" fill="black"/>
<path d="M633.538 866.1C632.738 867.567 632.738 870.767 633.672 874.9C634.738 880.234 634.605 882.234 632.872 885.967C631.672 888.367 630.738 891.3 630.738 892.367C630.738 896.1 628.338 894.367 626.205 889.034C624.738 885.3 623.272 883.7 621.405 883.7C617.272 883.7 616.738 887.034 619.805 895.434C622.472 902.634 622.472 902.9 620.072 899.7C618.605 897.834 617.405 895.7 617.405 894.9C617.405 892.9 613.672 891.434 612.738 893.034C612.338 893.7 612.872 896.5 614.072 899.167C615.138 901.834 616.072 904.234 616.072 904.5C616.072 904.767 613.005 905.034 609.138 905.034H602.338L605.138 901.967C609.138 897.7 609.005 893.3 604.872 892.234C600.872 891.3 596.605 893.967 590.872 901.034C585.005 908.367 588.872 908.234 596.738 900.9C604.605 893.567 604.605 897.3 596.738 905.434C593.405 908.9 590.738 912.1 590.738 912.367C590.738 913.967 595.938 912.9 597.405 911.034C598.872 909.3 605.805 909.034 644.738 909.034H690.338L689.805 905.3C688.605 897.834 685.138 889.034 683.405 889.034C681.938 889.034 681.938 890.234 683.538 895.967C684.472 899.834 685.405 903.434 685.405 903.967C685.405 904.634 675.538 905.034 663.405 905.034H641.405L646.472 900.367L651.405 895.7L648.338 893.034C644.738 890.1 641.272 891.034 638.738 895.7C636.872 899.167 634.738 899.167 634.738 895.7C634.738 894.234 635.405 893.034 636.205 893.034C637.272 893.034 637.272 892.5 636.338 891.3C635.538 890.367 635.538 888.5 636.205 886.634C637.138 884.1 638.338 883.7 644.472 883.7C649.805 883.7 652.605 882.9 655.272 880.9C661.938 875.7 658.472 869.7 650.472 872.767C648.338 873.567 646.738 873.834 647.005 873.3C647.272 872.767 648.338 870.767 649.272 868.634C652.338 862.767 649.538 862.634 644.605 868.367C640.738 872.9 640.072 873.3 640.072 870.767C640.072 864.1 636.205 861.167 633.538 866.1ZM653.405 877.7C652.472 878.767 650.738 879.7 649.538 879.7C648.072 879.567 648.472 879.034 650.738 877.7C655.005 875.3 655.405 875.3 653.405 877.7ZM645.405 896.367C645.405 896.634 644.072 897.7 642.472 898.5C639.672 899.967 639.538 899.967 641.272 897.967C643.005 895.834 645.405 894.9 645.405 896.367Z" fill="black"/>
<path d="M685.005 867.167C684.605 867.567 685.805 871.034 687.538 874.9C689.272 878.634 691.672 886.634 692.738 892.367C693.938 898.234 695.138 904.367 695.538 905.967C696.738 911.967 699.538 909.167 701.138 900.5C702.072 895.7 704.472 886.5 706.605 880.1C708.738 873.7 709.938 867.834 709.405 867.167C707.805 865.567 704.605 872.367 700.872 885.167L697.672 896.367L696.072 888.5C693.405 875.7 687.672 864.5 685.005 867.167Z" fill="black"/>
</svg>
