<svg width="510" height="177" viewBox="0 0 510 177" fill="none" xmlns="http://www.w3.org/2000/svg">
<g clip-path="url(#clip0_1825_3904)">
<rect width="510" height="177" fill="#4F46E5"/>
<g clip-path="url(#clip1_1825_3904)">
<mask id="mask0_1825_3904" style="mask-type:luminance" maskUnits="userSpaceOnUse" x="-3" y="-101" width="544" height="344">
<path d="M269.001 242.504C418.973 242.504 540.549 165.719 540.549 71.0001C540.549 -23.719 418.973 -100.504 269.001 -100.504C119.029 -100.504 -2.54688 -23.719 -2.54688 71.0001C-2.54688 165.719 119.029 242.504 269.001 242.504Z" fill="white"/>
</mask>
<g mask="url(#mask0_1825_3904)">
<path d="M81.311 -133.595C81.1742 -99.8126 81.1742 -65.9438 81.0374 -32.1614C81.0374 -23.7806 80.9006 -15.3998 81.0374 -7.10542C81.1742 0.67058 82.1318 8.27377 87.7406 15.2722C92.6654 21.493 99.9158 26.7634 107.303 31.861C114.143 36.6994 121.393 41.2786 128.781 45.7714C158.056 63.6562 190.614 80.4178 211.681 102.795C223.583 115.323 230.423 129.147 233.022 143.663C234.39 151.439 234.801 159.215 234.664 166.991C234.527 174.767 234.117 182.543 231.928 190.232C229.876 197.317 226.045 204.143 219.889 210.191C214.691 215.288 208.125 219.781 200.737 223.583C185.279 231.704 166.674 237.147 147.933 241.727C143.281 242.85 138.63 243.887 133.842 244.923C130.285 245.701 136.441 247.17 138.22 246.738C174.335 238.703 215.238 227.989 231.928 204.488C241.914 190.405 241.641 173.903 240.957 158.783C240.273 143.403 236.989 128.024 227.003 113.855C210.313 90.0946 179.26 72.1234 149.848 54.5842C134.526 45.5122 119.205 36.3538 105.661 26.1586C98.0006 20.3698 91.571 14.0626 88.9718 6.54577C86.2358 -1.48943 87.3302 -9.95663 87.3302 -18.0782C87.467 -52.1198 87.467 -86.2478 87.6038 -120.289C87.6038 -124.523 87.6038 -128.843 87.6038 -133.077C88.0142 -134.373 81.311 -134.805 81.311 -133.595Z" fill="#5146FF"/>
</g>
<mask id="mask1_1825_3904" style="mask-type:luminance" maskUnits="userSpaceOnUse" x="-3" y="-101" width="544" height="344">
<path d="M269.001 242.504C418.973 242.504 540.549 165.719 540.549 71.0001C540.549 -23.719 418.973 -100.504 269.001 -100.504C119.029 -100.504 -2.54688 -23.719 -2.54688 71.0001C-2.54688 165.719 119.029 242.504 269.001 242.504Z" fill="white"/>
</mask>
<g mask="url(#mask1_1825_3904)">
<path d="M132.335 -131.087C130.42 -97.2185 128.368 -63.4361 126.589 -29.5673C126.179 -21.9641 125.905 -14.1881 128.778 -6.67132C131.241 -0.104916 136.302 5.94307 142.732 11.2999C155.728 22.1863 173.375 30.4807 188.833 39.8983C220.297 59.0791 247.657 81.2839 265.305 106.685C281.857 130.445 288.424 156.538 281.173 182.285C274.607 205.959 256.413 229.028 226.59 244.407C222.897 246.308 219.066 248.036 215.236 249.677C212.91 250.628 218.245 253.306 220.161 252.529C252.309 239.137 273.649 217.796 283.499 194.554C294.033 170.017 291.57 144.097 278.711 120.077C264.621 93.8983 239.723 70.4839 210.037 50.2663C202.65 45.1687 194.853 40.2439 186.918 35.5783C178.847 30.8263 170.502 26.3335 162.568 21.4951C154.907 16.9159 147.657 11.9047 142.185 6.11587C135.892 -0.536927 133.019 -7.96732 132.472 -15.6569C131.788 -23.7785 132.745 -31.9865 133.293 -40.1945C133.703 -48.6617 134.25 -57.1289 134.661 -65.5961C135.618 -82.6169 136.576 -99.7241 137.533 -116.745C137.807 -120.892 137.944 -125.126 138.217 -129.273C138.491 -130.742 132.472 -132.643 132.335 -131.087Z" fill="#5146FF"/>
</g>
<mask id="mask2_1825_3904" style="mask-type:luminance" maskUnits="userSpaceOnUse" x="-3" y="-101" width="544" height="344">
<path d="M269.001 242.504C418.973 242.504 540.549 165.719 540.549 71.0001C540.549 -23.719 418.973 -100.504 269.001 -100.504C119.029 -100.504 -2.54688 -23.719 -2.54688 71.0001C-2.54688 165.719 119.029 242.504 269.001 242.504Z" fill="white"/>
</mask>
<g mask="url(#mask2_1825_3904)">
<path d="M169.272 -112.256C168.314 -96.8766 167.63 -81.4974 167.357 -66.2046C167.22 -58.515 167.22 -50.8254 167.22 -43.1358C167.22 -35.7054 166.81 -28.1886 167.904 -20.8446C168.862 -14.3646 172.692 -8.83496 179.669 -3.91016C186.372 0.755436 194.443 4.64344 201.83 8.87704C217.562 17.7762 232.2 27.453 245.743 37.6482C273.377 58.3842 297.454 81.7986 314.006 106.941C323.035 120.679 328.507 135.107 331.243 149.882C333.979 164.483 335.21 179.344 334.526 194.032C333.295 220.384 323.172 248.032 293.349 267.559C289.929 269.805 286.373 271.879 282.542 273.779C281.585 274.298 286.099 277.495 287.33 276.803C319.752 260.387 334.39 234.295 338.22 208.893C340.546 194.119 339.588 179.085 337.81 164.311C336.031 149.882 332.885 135.367 325.908 121.543C319.068 108.064 309.218 95.277 298.137 83.0082C287.741 71.4306 276.113 60.285 263.39 49.6578C250.805 39.117 237.125 29.181 222.35 19.7634C214.963 15.0978 207.439 10.5186 199.642 6.11223C192.118 1.87863 183.089 -2.00937 177.754 -7.45257C171.598 -13.6734 172.281 -21.4494 172.145 -28.4478C172.008 -36.2238 172.008 -44.0862 172.008 -51.8622C172.145 -67.2414 172.555 -82.6206 173.376 -97.9134C173.513 -101.715 173.786 -105.603 174.06 -109.405C174.06 -110.182 172.418 -111.133 171.598 -111.565C171.598 -111.91 169.272 -112.947 169.272 -112.256Z" fill="#5146FF"/>
</g>
<mask id="mask3_1825_3904" style="mask-type:luminance" maskUnits="userSpaceOnUse" x="-3" y="-101" width="544" height="344">
<path d="M269.001 242.504C418.973 242.504 540.549 165.719 540.549 71.0001C540.549 -23.719 418.973 -100.504 269.001 -100.504C119.029 -100.504 -2.54688 -23.719 -2.54688 71.0001C-2.54688 165.719 119.029 242.504 269.001 242.504Z" fill="white"/>
</mask>
<g mask="url(#mask3_1825_3904)">
<path d="M211.54 -111.134C211.403 -96.0144 211.403 -80.808 211.266 -65.688C211.266 -58.1712 211.13 -50.6544 211.13 -43.1376C211.13 -36.8304 210.719 -30.264 213.592 -24.1296C216.465 -17.9952 223.031 -13.5888 231.239 -10.0464C239.584 -6.50398 247.929 -3.22078 255.453 1.01282C270.638 9.73922 282.676 20.28 294.304 30.9072C318.244 52.9392 340.406 76.008 356.274 100.891C371.459 124.651 380.762 149.88 380.078 175.541C379.394 199.819 369.954 224.357 349.161 244.92C346.562 247.512 343.826 249.931 340.953 252.35C338.627 254.251 344.373 256.67 346.698 254.683C370.091 235.07 382.403 211.138 385.686 186.859C389.106 161.544 382.677 136.229 369.681 112.296C355.864 86.808 335.07 63.048 311.951 40.584C300.597 29.6112 288.969 18.552 275.426 8.61602C268.722 3.69122 261.472 -0.974376 253.401 -5.03518C245.74 -8.92318 236.711 -11.688 229.187 -15.7488C221.253 -20.1552 218.517 -26.1168 217.97 -32.5104C217.286 -39.6816 217.833 -46.8528 217.833 -54.024C217.97 -69.144 217.97 -84.3504 218.106 -99.4704C218.106 -103.272 218.106 -106.987 218.243 -110.789C218.106 -113.035 211.54 -113.813 211.54 -111.134Z" fill="#5146FF"/>
</g>
<mask id="mask4_1825_3904" style="mask-type:luminance" maskUnits="userSpaceOnUse" x="-3" y="-101" width="544" height="344">
<path d="M269.001 242.504C418.973 242.504 540.549 165.719 540.549 71.0001C540.549 -23.719 418.973 -100.504 269.001 -100.504C119.029 -100.504 -2.54688 -23.719 -2.54688 71.0001C-2.54688 165.719 119.029 242.504 269.001 242.504Z" fill="white"/>
</mask>
<g mask="url(#mask4_1825_3904)">
<path d="M252.997 -117.614C252.723 -103.617 252.586 -89.6201 252.313 -75.6233C252.176 -68.7977 252.039 -61.8857 252.039 -55.0601C252.039 -49.0985 252.997 -43.1369 257.648 -37.8665C262.025 -33.0281 268.181 -28.9673 274.885 -25.2521C282.409 -21.1049 289.796 -16.9577 296.773 -12.5513C311 -3.56569 323.859 6.28391 336.034 16.3927C348.073 26.4151 359.564 36.6967 370.781 47.0647C381.999 57.4327 392.806 68.0599 401.835 79.3783C410.59 90.4375 417.704 102.188 421.261 114.37C425.228 127.59 424.954 141.241 424.133 154.633C422.629 179.17 417.977 204.313 401.288 226.863C399.236 229.628 397.047 232.306 394.585 234.985C393.901 235.762 398.825 238.268 398.689 238.441C417.977 217.013 424.817 192.389 427.417 168.025C428.785 154.978 429.605 141.673 427.69 128.626C425.912 116.012 420.713 103.83 413.053 92.2519C397.868 69.5287 374.612 49.2247 352.04 29.2663C328.921 8.9623 304.16 -10.6505 274.064 -27.0665C270.37 -29.0537 266.403 -31.1273 263.257 -33.5465C259.837 -36.0521 258.195 -39.3353 257.237 -42.5321C255.322 -48.8393 256.143 -55.4921 256.28 -61.8857C256.553 -75.8825 256.69 -89.8793 256.964 -103.876C256.964 -107.332 257.101 -110.874 257.101 -114.33C257.101 -115.022 255.459 -116.058 254.775 -116.577C254.638 -116.75 252.997 -117.873 252.997 -117.614Z" fill="#5146FF"/>
</g>
<mask id="mask5_1825_3904" style="mask-type:luminance" maskUnits="userSpaceOnUse" x="-3" y="-101" width="544" height="344">
<path d="M269.001 242.504C418.973 242.504 540.549 165.719 540.549 71.0001C540.549 -23.719 418.973 -100.504 269.001 -100.504C119.029 -100.504 -2.54688 -23.719 -2.54688 71.0001C-2.54688 165.719 119.029 242.504 269.001 242.504Z" fill="white"/>
</mask>
<g mask="url(#mask5_1825_3904)">
<path d="M50.6641 -53.245C50.9377 -40.8897 51.3481 -28.6209 51.6217 -16.2657C51.7585 -10.0449 51.8953 -3.82414 52.1689 2.39666C52.3057 8.18546 51.8953 14.1471 52.9897 19.9359C53.9473 25.2063 57.6409 29.3535 63.2497 33.2415C68.7217 37.1295 74.7409 40.6719 80.3497 44.5599C91.8409 52.5087 102.511 60.8031 112.361 69.5295C131.923 86.8095 148.339 105.558 161.062 125.171C167.902 135.798 173.647 146.857 175.973 158.262C177.888 168.025 176.93 177.875 172.553 187.379C164.618 204.918 146.287 220.643 121.8 230.406C118.79 231.616 115.644 232.739 112.361 233.776C111.95 233.862 116.054 236.973 117.696 236.454C143.688 228.246 163.934 213.645 174.468 196.537C179.803 187.984 182.539 178.825 182.402 169.581C182.266 158.176 177.888 146.944 171.869 136.23C160.651 116.099 144.782 96.9183 126.041 79.1199C116.738 70.2207 106.615 61.7535 95.8081 53.6319C90.3361 49.5711 84.7273 45.5967 78.9817 41.7087C73.3729 37.9935 66.5329 34.4511 62.2921 30.0447C57.7777 25.2063 58.0513 19.4175 57.9145 14.0607C57.7777 7.83986 57.6409 1.61906 57.3673 -4.60174C57.0937 -16.9569 56.6833 -29.2257 56.4097 -41.581C56.2729 -44.605 56.2729 -47.7153 56.1361 -50.7393C56.1361 -51.5169 54.0841 -52.2945 53.2633 -52.7265C52.8529 -52.9857 50.6641 -53.9362 50.6641 -53.245Z" fill="#5146FF"/>
</g>
<mask id="mask6_1825_3904" style="mask-type:luminance" maskUnits="userSpaceOnUse" x="-3" y="-101" width="544" height="344">
<path d="M269.001 242.504C418.973 242.504 540.549 165.719 540.549 71.0001C540.549 -23.719 418.973 -100.504 269.001 -100.504C119.029 -100.504 -2.54688 -23.719 -2.54688 71.0001C-2.54688 165.719 119.029 242.504 269.001 242.504Z" fill="white"/>
</mask>
<g mask="url(#mask6_1825_3904)">
<path d="M10.3089 -32.3359C13.4553 -15.4879 8.66733 1.53293 11.2665 18.4673C12.4977 26.5889 15.7809 34.5377 22.4841 41.6225C29.5977 49.2257 40.5417 54.8417 49.8441 61.3217C68.5857 74.2817 78.2985 90.9569 86.2329 107.546C90.6105 116.704 94.8513 125.863 98.1345 135.107C101.555 144.784 103.743 154.72 102.239 164.656C99.9129 180.986 88.1481 196.624 69.5433 208.029C67.2177 209.411 64.8921 210.794 62.4297 212.003C61.1985 212.608 61.7457 213.472 63.1137 213.818C64.6185 214.163 66.6705 213.818 67.9017 213.127C88.2849 202.672 102.375 187.552 107.437 171.309C113.456 151.955 104.838 132.602 96.3561 114.026C88.8321 97.3505 80.7609 80.2433 64.3449 65.9873C56.0001 58.7297 45.0561 53.0273 35.8905 46.2881C27.2721 39.8081 21.9369 32.2913 19.3377 23.9969C14.2761 7.23534 19.0641 -10.0447 17.6961 -26.8927C17.5593 -29.0527 17.2857 -31.1263 16.8753 -33.1999C16.7385 -35.0143 10.0353 -34.1503 10.3089 -32.3359Z" fill="#5146FF"/>
</g>
<mask id="mask7_1825_3904" style="mask-type:luminance" maskUnits="userSpaceOnUse" x="-3" y="-101" width="544" height="344">
<path d="M269.001 242.504C418.973 242.504 540.549 165.719 540.549 71.0001C540.549 -23.719 418.973 -100.504 269.001 -100.504C119.029 -100.504 -2.54688 -23.719 -2.54688 71.0001C-2.54688 165.719 119.029 242.504 269.001 242.504Z" fill="white"/>
</mask>
<g mask="url(#mask7_1825_3904)">
<path d="M-10.7578 4.64378C-10.4842 12.1606 -9.93701 19.6774 -9.11621 27.1942C-8.70581 30.9958 -8.15861 34.7974 -7.61141 38.5126C-7.06421 41.9686 -6.79061 45.511 -5.55941 48.8806C-4.46501 52.1638 -2.13941 55.015 1.28059 57.5206C4.56379 59.9398 8.66779 62.0134 12.3614 64.1734C19.475 68.3206 26.1782 72.8134 32.1974 77.5654C44.3726 87.0694 54.359 97.783 60.9254 109.361C67.4918 120.938 70.3646 133.293 68.8598 145.649C67.355 157.831 61.7462 169.841 51.623 180.295C50.3918 181.591 49.0238 182.887 47.6558 184.097C46.151 185.393 52.0334 187.639 53.675 186.17C64.8926 176.148 71.8694 164.311 74.4686 152.129C77.0678 139.86 75.4262 127.245 69.9542 115.409C64.4822 103.572 55.4534 92.4262 43.9622 82.4902C38.0798 77.3926 31.6502 72.5542 24.8102 68.0614C21.3902 65.815 17.8334 63.655 14.1398 61.5814C10.583 59.5078 6.61579 57.5206 4.01659 54.9286C1.14379 52.0774 0.322988 48.6214 -0.224212 45.3382C-0.908212 41.7094 -1.31861 37.9942 -1.86581 34.279C-2.82341 26.6758 -3.50741 19.159 -3.91781 11.5558C-4.05461 9.65498 -4.05461 7.84058 -4.19141 5.93978C-4.46501 4.47098 -10.7578 2.91578 -10.7578 4.64378Z" fill="#5146FF"/>
</g>
<mask id="mask8_1825_3904" style="mask-type:luminance" maskUnits="userSpaceOnUse" x="-3" y="-101" width="544" height="344">
<path d="M269.001 242.504C418.973 242.504 540.549 165.719 540.549 71.0001C540.549 -23.719 418.973 -100.504 269.001 -100.504C119.029 -100.504 -2.54688 -23.719 -2.54688 71.0001C-2.54688 165.719 119.029 242.504 269.001 242.504Z" fill="white"/>
</mask>
<g mask="url(#mask8_1825_3904)">
<path d="M-16.231 46.2043C-17.1886 55.5355 -18.0094 65.5579 -11.0326 74.1979C-7.61264 78.5179 -2.41424 82.3195 2.23696 86.1211C6.88816 89.8363 11.4026 93.6379 15.6434 97.5259C24.125 105.129 31.7858 113.337 36.0266 122.236C39.5834 129.753 40.541 137.702 38.0786 145.392C35.4794 153.859 28.7762 161.721 17.5586 166.732C16.1906 167.423 20.8418 170.448 22.757 169.584C43.1402 160.339 48.065 142.627 43.0034 127.939C39.857 118.867 33.017 110.486 25.2194 102.796C17.0114 94.7611 7.16176 87.4171 -1.73025 79.7275C-6.79185 75.2347 -9.80144 70.3963 -10.8958 64.8667C-11.9902 59.4235 -11.443 53.9803 -10.8958 48.5371C-10.759 47.5867 -12.2638 46.7227 -13.3582 46.2907C-13.7686 46.1179 -16.231 45.2539 -16.231 46.2043Z" fill="#5146FF"/>
</g>
<mask id="mask9_1825_3904" style="mask-type:luminance" maskUnits="userSpaceOnUse" x="-3" y="-101" width="544" height="344">
<path d="M269.001 242.504C418.973 242.504 540.549 165.719 540.549 71.0001C540.549 -23.719 418.973 -100.504 269.001 -100.504C119.029 -100.504 -2.54688 -23.719 -2.54688 71.0001C-2.54688 165.719 119.029 242.504 269.001 242.504Z" fill="white"/>
</mask>
<g mask="url(#mask9_1825_3904)">
<path d="M-22.6588 94.5009C-2.00204 101.413 5.38516 116.792 5.65876 130.616C5.79556 135.195 5.11155 139.861 4.42755 144.44C4.29075 145.218 11.1308 145.65 11.2676 144.959C12.362 136.837 13.3196 128.629 10.994 120.507C8.94196 113.509 4.56436 106.77 -2.82284 101.413C-6.65324 98.5617 -11.3044 96.2289 -16.6396 94.5009C-18.0076 94.0689 -19.786 93.9825 -21.2908 93.9825C-21.838 93.8961 -24.0268 94.0689 -22.6588 94.5009Z" fill="#5146FF"/>
</g>
<mask id="mask10_1825_3904" style="mask-type:luminance" maskUnits="userSpaceOnUse" x="-3" y="-101" width="544" height="344">
<path d="M269.001 242.504C418.973 242.504 540.549 165.719 540.549 71.0001C540.549 -23.719 418.973 -100.504 269.001 -100.504C119.029 -100.504 -2.54688 -23.719 -2.54688 71.0001C-2.54688 165.719 119.029 242.504 269.001 242.504Z" fill="white"/>
</mask>
<g mask="url(#mask10_1825_3904)">
<path d="M284.182 -119.776C290.064 -94.4607 278.983 -66.8991 300.324 -43.6575C305.523 -38.0415 311.952 -32.9439 318.519 -28.0191C325.495 -22.7487 332.609 -17.3919 339.586 -12.0351C353.813 -0.975877 367.767 10.3425 381.173 21.9201C406.344 43.6929 430.558 66.0705 444.648 91.6449C457.371 114.8 462.706 139.424 460.791 163.875C458.875 188.586 449.436 213.037 432.61 235.328C430.558 238.007 428.369 240.685 426.18 243.363C425.77 243.882 428.506 243.623 428.779 243.623C429.737 243.536 432.199 243.277 432.747 242.672C451.078 221.159 462.295 197.312 466.263 173.034C470.23 148.496 466.81 123.44 456.003 99.7665C450.531 87.8433 443.143 76.3521 433.978 65.3793C423.581 53.0241 411.132 41.3601 398.273 29.9553C385.14 18.2913 371.46 6.88653 357.507 -4.34547C350.393 -9.96147 343.279 -15.5775 335.892 -21.1071C329.189 -26.2047 322.212 -31.1295 315.919 -36.4863C309.627 -41.7567 304.155 -47.3727 300.598 -53.5071C297.178 -59.4687 295.263 -65.6895 294.305 -71.9967C292.253 -85.1295 293.895 -98.2623 292.663 -111.395C292.39 -114.592 291.843 -117.702 291.159 -120.813C290.748 -121.417 284.045 -120.64 284.182 -119.776Z" fill="#5146FF"/>
</g>
<mask id="mask11_1825_3904" style="mask-type:luminance" maskUnits="userSpaceOnUse" x="-3" y="-101" width="544" height="344">
<path d="M269.001 242.504C418.973 242.504 540.549 165.719 540.549 71.0001C540.549 -23.719 418.973 -100.504 269.001 -100.504C119.029 -100.504 -2.54688 -23.719 -2.54688 71.0001C-2.54688 165.719 119.029 242.504 269.001 242.504Z" fill="white"/>
</mask>
<g mask="url(#mask11_1825_3904)">
<path d="M316.33 -106.728C318.109 -95.496 317.698 -84.1776 320.024 -72.9456C321.118 -67.5024 323.033 -62.1456 326.043 -57.048C329.326 -51.6912 334.114 -46.8528 339.86 -42.4464C351.077 -33.6336 363.389 -25.4256 374.881 -16.872C386.372 -8.23203 397.589 0.494376 408.26 9.47998C429.19 27.192 447.932 46.1136 461.201 66.5904C467.905 76.9584 473.103 87.5856 476.523 98.5584C480.353 110.827 481.995 123.269 483.226 135.71C485.415 158.174 484.594 181.762 470.504 202.757C468.725 205.435 466.673 208.027 464.485 210.533C463.253 212.002 469.546 211.051 470.504 210.014C488.014 189.883 491.297 166.555 490.203 144.005C489.109 120.331 485.278 96.3984 472.829 73.848C461.201 52.8528 443.417 33.4128 423.171 15.2688C402.651 -2.96163 379.669 -20.0688 356.276 -36.8304C349.983 -41.4096 343.417 -45.9024 338.492 -51.0864C333.841 -55.8384 330.831 -61.1088 328.779 -66.552C324.675 -77.5248 324.812 -88.8432 323.717 -100.075C323.444 -102.84 323.17 -105.605 322.76 -108.456C322.623 -109.234 316.193 -108.11 316.33 -106.728Z" fill="#5146FF"/>
</g>
<mask id="mask12_1825_3904" style="mask-type:luminance" maskUnits="userSpaceOnUse" x="-3" y="-101" width="544" height="344">
<path d="M269.001 242.504C418.973 242.504 540.549 165.719 540.549 71.0001C540.549 -23.719 418.973 -100.504 269.001 -100.504C119.029 -100.504 -2.54688 -23.719 -2.54688 71.0001C-2.54688 165.719 119.029 242.504 269.001 242.504Z" fill="white"/>
</mask>
<g mask="url(#mask12_1825_3904)">
<path d="M353.951 -111.218C354.909 -99.6404 355.866 -88.1492 356.824 -76.5716C357.234 -71.3012 356.961 -65.6852 359.15 -60.5876C361.202 -55.922 366.4 -52.5524 372.282 -49.5284C384.047 -43.4804 395.538 -37.346 406.346 -30.5204C417.016 -23.7812 427.002 -16.6964 436.168 -9.1796C454.773 5.854 470.368 22.4428 482.543 39.8956C495.813 59.1628 504.842 79.5532 509.356 100.289C513.87 121.457 513.87 143.057 508.946 164.225C508.398 166.904 507.578 169.496 506.894 172.174C506.483 173.556 513.323 174.161 513.734 172.779C519.753 151.697 521.121 130.184 517.701 108.843C514.418 87.7612 506.483 67.0252 494.171 47.326C483.09 29.614 468.453 12.8524 450.942 -2.6132C433.295 -18.0788 412.638 -32.162 389.519 -44.4308C383.774 -47.4548 377.344 -50.2196 372.282 -53.6756C366.4 -57.65 364.895 -62.4884 364.348 -67.8452C363.254 -79.25 362.433 -90.6548 361.475 -102.146C361.202 -104.997 360.928 -107.935 360.791 -110.786C360.654 -112.168 353.814 -112.514 353.951 -111.218Z" fill="#5146FF"/>
</g>
<mask id="mask13_1825_3904" style="mask-type:luminance" maskUnits="userSpaceOnUse" x="-3" y="-101" width="544" height="344">
<path d="M269.001 242.504C418.973 242.504 540.549 165.719 540.549 71.0001C540.549 -23.719 418.973 -100.504 269.001 -100.504C119.029 -100.504 -2.54688 -23.719 -2.54688 71.0001C-2.54688 165.719 119.029 242.504 269.001 242.504Z" fill="white"/>
</mask>
<g mask="url(#mask13_1825_3904)">
<path d="M378.714 -111.562C380.766 -101.54 382.681 -91.5175 384.733 -81.4951C385.691 -76.5703 386.512 -71.5591 387.743 -66.6343C388.837 -62.0551 391.3 -58.0807 396.498 -54.6247C401.149 -51.5143 406.758 -48.9223 411.82 -46.0711C416.881 -43.2199 421.943 -40.2823 426.731 -37.2583C436.307 -31.2967 445.472 -25.1623 454.228 -18.6823C471.601 -5.7223 486.786 8.36089 499.098 23.4809C511.957 39.3785 521.396 56.3129 526.458 73.9385C531.52 91.6505 532.204 109.967 527.416 127.766C526.868 129.926 526.184 131.999 525.5 134.159C525.09 135.283 525.774 136.406 527.416 136.924C528.784 137.356 530.972 137.097 531.383 136.06C537.539 118.262 538.36 99.9449 534.529 81.8873C530.699 63.8297 522.354 46.2041 510.316 29.6153C498.961 13.9769 484.324 -0.711105 467.497 -14.1895C450.671 -27.7543 431.519 -40.1959 410.862 -51.5143C406.074 -54.1927 399.918 -56.6983 396.908 -60.3271C393.625 -64.3015 393.488 -69.3127 392.531 -73.7191C390.479 -83.8279 388.427 -93.9367 386.512 -104.045C385.964 -106.551 385.554 -109.143 385.007 -111.649C384.323 -114.154 378.167 -114.327 378.714 -111.562Z" fill="#5146FF"/>
</g>
<mask id="mask14_1825_3904" style="mask-type:luminance" maskUnits="userSpaceOnUse" x="-3" y="-101" width="544" height="344">
<path d="M269.001 242.504C418.973 242.504 540.549 165.719 540.549 71.0001C540.549 -23.719 418.973 -100.504 269.001 -100.504C119.029 -100.504 -2.54688 -23.719 -2.54688 71.0001C-2.54688 165.719 119.029 242.504 269.001 242.504Z" fill="white"/>
</mask>
<g mask="url(#mask14_1825_3904)">
<path d="M414.967 -74.0647C432.751 -66.2023 449.304 -57.1303 464.078 -47.1079C478.989 -36.9991 492.122 -25.8535 503.476 -14.0167C515.104 -1.74793 524.68 11.3849 531.794 25.0361C539.455 39.8105 544.516 55.1033 546.568 70.6553C548.62 86.1209 547.936 101.759 544.243 117.052C543.832 118.953 543.285 120.94 542.738 122.841C542.328 124.137 548.073 126.297 548.484 124.914C552.861 109.362 554.366 93.5513 552.861 77.7401C551.356 62.0153 546.979 46.3769 539.728 31.3433C533.025 17.1737 523.586 3.52246 512.095 -9.35114C501.014 -21.6199 487.881 -33.1975 473.107 -43.7383C458.196 -54.3655 441.506 -64.0423 423.448 -72.5095C421.26 -73.5463 418.934 -74.5831 416.745 -75.5335C416.061 -75.8791 413.872 -76.7431 413.052 -76.0519C412.368 -75.4471 414.283 -74.4103 414.967 -74.0647Z" fill="#5146FF"/>
</g>
</g>
<path d="M40.64 71.56C38.64 71.56 36.8533 71.1333 35.28 70.28C33.7067 69.4 32.4667 68.12 31.56 66.44C30.6533 64.76 30.2 62.7067 30.2 60.28V53.72C30.2 50.0667 31.2 47.28 33.2 45.36C35.2 43.4133 37.9067 42.44 41.32 42.44C44.68 42.44 47.2667 43.36 49.08 45.2C50.8933 47.0133 51.8 49.4533 51.8 52.52V52.72H47.52V52.4C47.52 51.2533 47.2933 50.2267 46.84 49.32C46.3867 48.3867 45.7067 47.6533 44.8 47.12C43.8933 46.5867 42.7333 46.32 41.32 46.32C39.1867 46.32 37.52 46.9733 36.32 48.28C35.12 49.56 34.52 51.3467 34.52 53.64V60.36C34.52 62.6267 35.12 64.4267 36.32 65.76C37.52 67.0667 39.2 67.72 41.36 67.72C43.4933 67.72 45.0533 67.1333 46.04 65.96C47.0267 64.7867 47.52 63.2667 47.52 61.4V60.88H40V57.16H51.8V71H47.8V68.16H47.16C46.92 68.6667 46.56 69.1867 46.08 69.72C45.6267 70.2533 44.96 70.6933 44.08 71.04C43.2267 71.3867 42.08 71.56 40.64 71.56ZM64.3253 71.56C62.352 71.56 60.592 71.16 59.0453 70.36C57.5253 69.5333 56.3253 68.36 55.4453 66.84C54.5653 65.32 54.1253 63.52 54.1253 61.44V60.84C54.1253 58.76 54.5653 56.9733 55.4453 55.48C56.3253 53.96 57.5253 52.7867 59.0453 51.96C60.592 51.1333 62.352 50.72 64.3253 50.72C66.2986 50.72 68.0586 51.1333 69.6053 51.96C71.152 52.7867 72.3653 53.96 73.2453 55.48C74.1253 56.9733 74.5653 58.76 74.5653 60.84V61.44C74.5653 63.52 74.1253 65.32 73.2453 66.84C72.3653 68.36 71.152 69.5333 69.6053 70.36C68.0586 71.16 66.2986 71.56 64.3253 71.56ZM64.3253 67.88C66.1386 67.88 67.6053 67.3067 68.7253 66.16C69.872 64.9867 70.4453 63.3733 70.4453 61.32V60.96C70.4453 58.9067 69.8853 57.3067 68.7653 56.16C67.6453 54.9867 66.1653 54.4 64.3253 54.4C62.5386 54.4 61.072 54.9867 59.9253 56.16C58.8053 57.3067 58.2453 58.9067 58.2453 60.96V61.32C58.2453 63.3733 58.8053 64.9867 59.9253 66.16C61.072 67.3067 62.5386 67.88 64.3253 67.88ZM86.5347 71.56C84.5614 71.56 82.8014 71.16 81.2547 70.36C79.7347 69.5333 78.5347 68.36 77.6547 66.84C76.7747 65.32 76.3347 63.52 76.3347 61.44V60.84C76.3347 58.76 76.7747 56.9733 77.6547 55.48C78.5347 53.96 79.7347 52.7867 81.2547 51.96C82.8014 51.1333 84.5614 50.72 86.5347 50.72C88.508 50.72 90.268 51.1333 91.8147 51.96C93.3614 52.7867 94.5747 53.96 95.4547 55.48C96.3347 56.9733 96.7747 58.76 96.7747 60.84V61.44C96.7747 63.52 96.3347 65.32 95.4547 66.84C94.5747 68.36 93.3614 69.5333 91.8147 70.36C90.268 71.16 88.508 71.56 86.5347 71.56ZM86.5347 67.88C88.348 67.88 89.8147 67.3067 90.9347 66.16C92.0814 64.9867 92.6547 63.3733 92.6547 61.32V60.96C92.6547 58.9067 92.0947 57.3067 90.9747 56.16C89.8547 54.9867 88.3747 54.4 86.5347 54.4C84.748 54.4 83.2814 54.9867 82.1347 56.16C81.0147 57.3067 80.4547 58.9067 80.4547 60.96V61.32C80.4547 63.3733 81.0147 64.9867 82.1347 66.16C83.2814 67.3067 84.748 67.88 86.5347 67.88ZM107.664 71.56C106.037 71.56 104.531 71.16 103.144 70.36C101.757 69.56 100.637 68.4133 99.7841 66.92C98.9574 65.4 98.5441 63.5733 98.5441 61.44V60.84C98.5441 58.7333 98.9574 56.92 99.7841 55.4C100.611 53.88 101.717 52.72 103.104 51.92C104.491 51.12 106.011 50.72 107.664 50.72C108.944 50.72 110.011 50.88 110.864 51.2C111.744 51.52 112.464 51.9333 113.024 52.44C113.584 52.92 114.011 53.4267 114.304 53.96H114.944V43H119.064V71H115.024V68.2H114.384C113.877 69.0533 113.104 69.8267 112.064 70.52C111.051 71.2133 109.584 71.56 107.664 71.56ZM108.824 67.96C110.611 67.96 112.077 67.3867 113.224 66.24C114.397 65.0933 114.984 63.4533 114.984 61.32V60.96C114.984 58.8533 114.411 57.2267 113.264 56.08C112.117 54.9333 110.637 54.36 108.824 54.36C107.064 54.36 105.597 54.9333 104.424 56.08C103.277 57.2267 102.704 58.8533 102.704 60.96V61.32C102.704 63.4533 103.277 65.0933 104.424 66.24C105.597 67.3867 107.064 67.96 108.824 67.96ZM130.404 71V43H138.724L146.324 68.12H146.964V43H151.244V71H142.924L135.324 45.84H134.684V71H130.404ZM163.844 71.56C161.844 71.56 160.097 71.1467 158.604 70.32C157.111 69.4667 155.937 68.28 155.084 66.76C154.257 65.2133 153.844 63.4267 153.844 61.4V60.92C153.844 58.8667 154.257 57.08 155.084 55.56C155.911 54.0133 157.057 52.8267 158.524 52C160.017 51.1467 161.737 50.72 163.684 50.72C165.577 50.72 167.231 51.1467 168.644 52C170.084 52.8267 171.204 53.9867 172.004 55.48C172.804 56.9733 173.204 58.72 173.204 60.72V62.28H158.044C158.097 64.0133 158.671 65.4 159.764 66.44C160.884 67.4533 162.271 67.96 163.924 67.96C165.471 67.96 166.631 67.6133 167.404 66.92C168.204 66.2267 168.817 65.4267 169.244 64.52L172.644 66.28C172.271 67.0267 171.724 67.8133 171.004 68.64C170.311 69.4667 169.391 70.16 168.244 70.72C167.097 71.28 165.631 71.56 163.844 71.56ZM158.084 59.12H169.004C168.897 57.6267 168.364 56.4667 167.404 55.64C166.444 54.7867 165.191 54.36 163.644 54.36C162.097 54.36 160.831 54.7867 159.844 55.64C158.884 56.4667 158.297 57.6267 158.084 59.12ZM177.689 71L174.329 51.28H178.449L180.929 68.24H181.569L185.009 51.28H191.689L195.089 68.24H195.729L198.209 51.28H202.329L198.969 71H192.049L188.649 54.08H188.009L184.609 71H177.689ZM212.811 71.56C210.304 71.56 208.224 71 206.571 69.88C204.917 68.76 203.904 67.0667 203.531 64.8L207.371 63.88C207.584 64.9733 207.944 65.84 208.451 66.48C208.957 67.12 209.584 67.5733 210.331 67.84C211.104 68.1067 211.931 68.24 212.811 68.24C214.117 68.24 215.117 67.9867 215.811 67.48C216.531 66.9733 216.891 66.32 216.891 65.52C216.891 64.72 216.557 64.1333 215.891 63.76C215.224 63.3867 214.237 63.08 212.931 62.84L211.571 62.6C210.237 62.36 209.024 62.0133 207.931 61.56C206.837 61.1067 205.971 60.48 205.331 59.68C204.691 58.88 204.371 57.8533 204.371 56.6C204.371 54.7333 205.064 53.2933 206.451 52.28C207.837 51.24 209.677 50.72 211.971 50.72C214.184 50.72 215.997 51.2267 217.411 52.24C218.851 53.2267 219.784 54.5733 220.211 56.28L216.371 57.36C216.131 56.16 215.624 55.32 214.851 54.84C214.077 54.3333 213.117 54.08 211.971 54.08C210.851 54.08 209.971 54.2933 209.331 54.72C208.691 55.12 208.371 55.6933 208.371 56.44C208.371 57.24 208.677 57.8267 209.291 58.2C209.931 58.5733 210.784 58.8533 211.851 59.04L213.251 59.28C214.664 59.52 215.957 59.8533 217.131 60.28C218.304 60.7067 219.224 61.32 219.891 62.12C220.584 62.92 220.931 63.9867 220.931 65.32C220.931 67.2933 220.197 68.8267 218.731 69.92C217.264 71.0133 215.291 71.56 212.811 71.56Z" fill="white"/>
<path d="M30.72 108L28.66 94H30.82L32.5 106.54H32.82L34.98 94H38.76L40.92 106.54H41.24L42.9 94H45.06L43 108H39.22L37.02 95.28H36.7L34.52 108H30.72ZM50.3791 108.28C49.3791 108.28 48.5057 108.073 47.7591 107.66C47.0124 107.233 46.4257 106.64 45.9991 105.88C45.5857 105.107 45.3791 104.213 45.3791 103.2V102.96C45.3791 101.933 45.5857 101.04 45.9991 100.28C46.4124 99.5067 46.9857 98.9133 47.7191 98.5C48.4657 98.0733 49.3257 97.86 50.2991 97.86C51.2457 97.86 52.0724 98.0733 52.7791 98.5C53.4991 98.9133 54.0591 99.4933 54.4591 100.24C54.8591 100.987 55.0591 101.86 55.0591 102.86V103.64H47.4791C47.5057 104.507 47.7924 105.2 48.3391 105.72C48.8991 106.227 49.5924 106.48 50.4191 106.48C51.1924 106.48 51.7724 106.307 52.1591 105.96C52.5591 105.613 52.8657 105.213 53.0791 104.76L54.7791 105.64C54.5924 106.013 54.3191 106.407 53.9591 106.82C53.6124 107.233 53.1524 107.58 52.5791 107.86C52.0057 108.14 51.2724 108.28 50.3791 108.28ZM47.4991 102.06H52.9591C52.9057 101.313 52.6391 100.733 52.1591 100.32C51.6791 99.8933 51.0524 99.68 50.2791 99.68C49.5057 99.68 48.8724 99.8933 48.3791 100.32C47.8991 100.733 47.6057 101.313 47.4991 102.06ZM55.7923 99.4V98.22H56.4723C57.019 98.22 57.2923 97.9467 57.2923 97.4V96.76H56.9923C56.5257 96.76 56.139 96.62 55.8323 96.34C55.5257 96.06 55.3723 95.7067 55.3723 95.28C55.3723 94.8133 55.5257 94.44 55.8323 94.16C56.139 93.8667 56.5257 93.72 56.9923 93.72C57.459 93.72 57.839 93.8733 58.1323 94.18C58.439 94.4733 58.5923 94.86 58.5923 95.34V97.42C58.5923 98.74 57.9323 99.4 56.6123 99.4H55.7923ZM60.0411 108V98.14H62.0611V99.3H62.3811C62.5411 98.8867 62.7944 98.5867 63.1411 98.4C63.5011 98.2 63.9411 98.1 64.4611 98.1H65.6411V99.96H64.3811C63.7144 99.96 63.1678 100.147 62.7411 100.52C62.3144 100.88 62.1011 101.44 62.1011 102.2V108H60.0411ZM70.7439 108.28C69.7439 108.28 68.8706 108.073 68.1239 107.66C67.3772 107.233 66.7906 106.64 66.3639 105.88C65.9506 105.107 65.7439 104.213 65.7439 103.2V102.96C65.7439 101.933 65.9506 101.04 66.3639 100.28C66.7772 99.5067 67.3506 98.9133 68.0839 98.5C68.8306 98.0733 69.6906 97.86 70.6639 97.86C71.6106 97.86 72.4372 98.0733 73.1439 98.5C73.8639 98.9133 74.4239 99.4933 74.8239 100.24C75.2239 100.987 75.4239 101.86 75.4239 102.86V103.64H67.8439C67.8706 104.507 68.1572 105.2 68.7039 105.72C69.2639 106.227 69.9572 106.48 70.7839 106.48C71.5572 106.48 72.1372 106.307 72.5239 105.96C72.9239 105.613 73.2306 105.213 73.4439 104.76L75.1439 105.64C74.9572 106.013 74.6839 106.407 74.3239 106.82C73.9772 107.233 73.5172 107.58 72.9439 107.86C72.3706 108.14 71.6372 108.28 70.7439 108.28ZM67.8639 102.06H73.3239C73.2706 101.313 73.0039 100.733 72.5239 100.32C72.0439 99.8933 71.4172 99.68 70.6439 99.68C69.8706 99.68 69.2372 99.8933 68.7439 100.32C68.2639 100.733 67.9706 101.313 67.8639 102.06ZM85.1212 108.28C84.1212 108.28 83.2479 108.073 82.5012 107.66C81.7546 107.233 81.1679 106.64 80.7412 105.88C80.3279 105.107 80.1212 104.213 80.1212 103.2V102.96C80.1212 101.933 80.3279 101.04 80.7412 100.28C81.1546 99.5067 81.7279 98.9133 82.4612 98.5C83.2079 98.0733 84.0679 97.86 85.0412 97.86C85.9879 97.86 86.8146 98.0733 87.5212 98.5C88.2412 98.9133 88.8012 99.4933 89.2013 100.24C89.6012 100.987 89.8012 101.86 89.8012 102.86V103.64H82.2212C82.2479 104.507 82.5346 105.2 83.0812 105.72C83.6412 106.227 84.3346 106.48 85.1612 106.48C85.9346 106.48 86.5146 106.307 86.9012 105.96C87.3012 105.613 87.6079 105.213 87.8212 104.76L89.5212 105.64C89.3346 106.013 89.0612 106.407 88.7012 106.82C88.3546 107.233 87.8946 107.58 87.3212 107.86C86.7479 108.14 86.0146 108.28 85.1212 108.28ZM82.2412 102.06H87.7012C87.6479 101.313 87.3812 100.733 86.9012 100.32C86.4212 99.8933 85.7946 99.68 85.0212 99.68C84.2479 99.68 83.6146 99.8933 83.1212 100.32C82.6412 100.733 82.3479 101.313 82.2412 102.06ZM89.5964 108L93.3564 103.02L89.6764 98.14H92.0964L94.6764 101.68H94.9964L97.5764 98.14H100.016L96.3164 103.02L100.076 108H97.6164L94.9964 104.38H94.6764L92.0564 108H89.5964ZM101.092 112V98.14H103.112V99.56H103.432C103.685 99.12 104.065 98.7267 104.572 98.38C105.092 98.0333 105.832 97.86 106.792 97.86C107.619 97.86 108.372 98.06 109.052 98.46C109.745 98.86 110.299 99.44 110.712 100.2C111.139 100.947 111.352 101.853 111.352 102.92V103.22C111.352 104.287 111.145 105.2 110.732 105.96C110.319 106.707 109.765 107.28 109.072 107.68C108.379 108.08 107.619 108.28 106.792 108.28C106.152 108.28 105.612 108.2 105.172 108.04C104.732 107.88 104.379 107.68 104.112 107.44C103.845 107.187 103.632 106.927 103.472 106.66H103.152V112H101.092ZM106.192 106.48C107.099 106.48 107.839 106.193 108.412 105.62C108.985 105.047 109.272 104.227 109.272 103.16V102.98C109.272 101.927 108.979 101.113 108.392 100.54C107.819 99.9667 107.085 99.68 106.192 99.68C105.312 99.68 104.579 99.9667 103.992 100.54C103.419 101.113 103.132 101.927 103.132 102.98V103.16C103.132 104.227 103.419 105.047 103.992 105.62C104.579 106.193 105.312 106.48 106.192 106.48ZM115.764 108.28C115.058 108.28 114.424 108.16 113.864 107.92C113.318 107.68 112.878 107.327 112.544 106.86C112.224 106.393 112.064 105.827 112.064 105.16C112.064 104.48 112.224 103.92 112.544 103.48C112.878 103.027 113.324 102.687 113.884 102.46C114.458 102.233 115.104 102.12 115.824 102.12H118.824V101.48C118.824 100.907 118.651 100.447 118.304 100.1C117.958 99.7533 117.424 99.58 116.704 99.58C115.998 99.58 115.458 99.7467 115.084 100.08C114.711 100.413 114.464 100.847 114.344 101.38L112.424 100.76C112.584 100.227 112.838 99.7467 113.184 99.32C113.544 98.88 114.018 98.5267 114.604 98.26C115.191 97.9933 115.898 97.86 116.724 97.86C118.004 97.86 119.011 98.1867 119.744 98.84C120.478 99.4933 120.844 100.42 120.844 101.62V105.68C120.844 106.08 121.031 106.28 121.404 106.28H122.244V108H120.704C120.238 108 119.858 107.88 119.564 107.64C119.271 107.4 119.124 107.073 119.124 106.66V106.6H118.824C118.718 106.8 118.558 107.033 118.344 107.3C118.131 107.567 117.818 107.8 117.404 108C116.991 108.187 116.444 108.28 115.764 108.28ZM116.064 106.58C116.891 106.58 117.558 106.347 118.064 105.88C118.571 105.4 118.824 104.747 118.824 103.92V103.72H115.944C115.398 103.72 114.958 103.84 114.624 104.08C114.291 104.307 114.124 104.647 114.124 105.1C114.124 105.553 114.298 105.913 114.644 106.18C114.991 106.447 115.464 106.58 116.064 106.58ZM123.047 108V98.14H125.067V99.62H125.387C125.574 99.22 125.907 98.8467 126.387 98.5C126.867 98.1533 127.581 97.98 128.527 97.98C129.274 97.98 129.934 98.1467 130.507 98.48C131.094 98.8133 131.554 99.2867 131.887 99.9C132.221 100.5 132.387 101.227 132.387 102.08V108H130.327V102.24C130.327 101.387 130.114 100.76 129.687 100.36C129.261 99.9467 128.674 99.74 127.927 99.74C127.074 99.74 126.387 100.02 125.867 100.58C125.361 101.14 125.107 101.953 125.107 103.02V108H123.047ZM138.232 108.28C137.419 108.28 136.665 108.08 135.972 107.68C135.279 107.28 134.719 106.707 134.292 105.96C133.879 105.2 133.672 104.287 133.672 103.22V102.92C133.672 101.867 133.879 100.96 134.292 100.2C134.705 99.44 135.259 98.86 135.952 98.46C136.645 98.06 137.405 97.86 138.232 97.86C138.872 97.86 139.405 97.94 139.832 98.1C140.272 98.26 140.632 98.4667 140.912 98.72C141.192 98.96 141.405 99.2133 141.552 99.48H141.872V94H143.932V108H141.912V106.6H141.592C141.339 107.027 140.952 107.413 140.432 107.76C139.925 108.107 139.192 108.28 138.232 108.28ZM138.812 106.48C139.705 106.48 140.439 106.193 141.012 105.62C141.599 105.047 141.892 104.227 141.892 103.16V102.98C141.892 101.927 141.605 101.113 141.032 100.54C140.459 99.9667 139.719 99.68 138.812 99.68C137.932 99.68 137.199 99.9667 136.612 100.54C136.039 101.113 135.752 101.927 135.752 102.98V103.16C135.752 104.227 136.039 105.047 136.612 105.62C137.199 106.193 137.932 106.48 138.812 106.48ZM145.765 108V98.14H147.825V108H145.765ZM146.805 96.8C146.405 96.8 146.065 96.6733 145.785 96.42C145.518 96.1533 145.385 95.8133 145.385 95.4C145.385 94.9867 145.518 94.6533 145.785 94.4C146.065 94.1333 146.405 94 146.805 94C147.218 94 147.558 94.1333 147.825 94.4C148.091 94.6533 148.225 94.9867 148.225 95.4C148.225 95.8133 148.091 96.1533 147.825 96.42C147.558 96.6733 147.218 96.8 146.805 96.8ZM149.682 108V98.14H151.702V99.62H152.022C152.208 99.22 152.542 98.8467 153.022 98.5C153.502 98.1533 154.215 97.98 155.162 97.98C155.908 97.98 156.568 98.1467 157.142 98.48C157.728 98.8133 158.188 99.2867 158.522 99.9C158.855 100.5 159.022 101.227 159.022 102.08V108H156.962V102.24C156.962 101.387 156.748 100.76 156.322 100.36C155.895 99.9467 155.308 99.74 154.562 99.74C153.708 99.74 153.022 100.02 152.502 100.58C151.995 101.14 151.742 101.953 151.742 103.02V108H149.682ZM160.306 103.12V102.82C160.306 101.78 160.513 100.893 160.926 100.16C161.353 99.4267 161.913 98.86 162.606 98.46C163.3 98.06 164.06 97.86 164.886 97.86C165.846 97.86 166.58 98.04 167.086 98.4C167.606 98.76 167.986 99.1467 168.226 99.56H168.546V98.14H170.546V110.02C170.546 110.62 170.366 111.1 170.006 111.46C169.66 111.82 169.18 112 168.566 112H161.926V110.2H167.926C168.313 110.2 168.506 110 168.506 109.6V106.46H168.186C168.04 106.7 167.833 106.947 167.566 107.2C167.3 107.453 166.946 107.66 166.506 107.82C166.08 107.98 165.54 108.06 164.886 108.06C164.06 108.06 163.293 107.867 162.586 107.48C161.893 107.08 161.34 106.513 160.926 105.78C160.513 105.033 160.306 104.147 160.306 103.12ZM165.446 106.26C166.34 106.26 167.073 105.98 167.646 105.42C168.233 104.847 168.526 104.06 168.526 103.06V102.88C168.526 101.853 168.24 101.067 167.666 100.52C167.093 99.96 166.353 99.68 165.446 99.68C164.566 99.68 163.833 99.96 163.246 100.52C162.673 101.067 162.386 101.853 162.386 102.88V103.06C162.386 104.06 162.673 104.847 163.246 105.42C163.833 105.98 164.566 106.26 165.446 106.26ZM180.897 108.28C179.91 108.28 179.03 108.08 178.257 107.68C177.497 107.267 176.897 106.68 176.457 105.92C176.017 105.16 175.797 104.26 175.797 103.22V102.92C175.797 101.88 176.017 100.987 176.457 100.24C176.897 99.48 177.497 98.8933 178.257 98.48C179.03 98.0667 179.91 97.86 180.897 97.86C181.884 97.86 182.764 98.0667 183.537 98.48C184.31 98.8933 184.917 99.48 185.357 100.24C185.797 100.987 186.017 101.88 186.017 102.92V103.22C186.017 104.26 185.797 105.16 185.357 105.92C184.917 106.68 184.31 107.267 183.537 107.68C182.764 108.08 181.884 108.28 180.897 108.28ZM180.897 106.44C181.804 106.44 182.537 106.153 183.097 105.58C183.67 104.993 183.957 104.187 183.957 103.16V102.98C183.957 101.953 183.677 101.153 183.117 100.58C182.557 99.9933 181.817 99.7 180.897 99.7C180.004 99.7 179.27 99.9933 178.697 100.58C178.137 101.153 177.857 101.953 177.857 102.98V103.16C177.857 104.187 178.137 104.993 178.697 105.58C179.27 106.153 180.004 106.44 180.897 106.44ZM191.162 108.18C190.415 108.18 189.748 108.013 189.162 107.68C188.575 107.347 188.115 106.873 187.782 106.26C187.448 105.647 187.282 104.913 187.282 104.06V98.14H189.342V103.92C189.342 104.773 189.555 105.407 189.982 105.82C190.408 106.22 191.002 106.42 191.762 106.42C192.602 106.42 193.275 106.14 193.782 105.58C194.302 105.007 194.562 104.187 194.562 103.12V98.14H196.622V108H194.602V106.52H194.282C194.095 106.92 193.762 107.3 193.282 107.66C192.802 108.007 192.095 108.18 191.162 108.18ZM198.467 108V98.14H200.487V99.3H200.807C200.967 98.8867 201.22 98.5867 201.567 98.4C201.927 98.2 202.367 98.1 202.887 98.1H204.067V99.96H202.807C202.14 99.96 201.594 100.147 201.167 100.52C200.74 100.88 200.527 101.44 200.527 102.2V108H198.467ZM208.899 112V98.14H210.919V99.56H211.239C211.492 99.12 211.872 98.7267 212.379 98.38C212.899 98.0333 213.639 97.86 214.599 97.86C215.426 97.86 216.179 98.06 216.859 98.46C217.552 98.86 218.106 99.44 218.519 100.2C218.946 100.947 219.159 101.853 219.159 102.92V103.22C219.159 104.287 218.952 105.2 218.539 105.96C218.126 106.707 217.572 107.28 216.879 107.68C216.186 108.08 215.426 108.28 214.599 108.28C213.959 108.28 213.419 108.2 212.979 108.04C212.539 107.88 212.186 107.68 211.919 107.44C211.652 107.187 211.439 106.927 211.279 106.66H210.959V112H208.899ZM213.999 106.48C214.906 106.48 215.646 106.193 216.219 105.62C216.792 105.047 217.079 104.227 217.079 103.16V102.98C217.079 101.927 216.786 101.113 216.199 100.54C215.626 99.9667 214.892 99.68 213.999 99.68C213.119 99.68 212.386 99.9667 211.799 100.54C211.226 101.113 210.939 101.927 210.939 102.98V103.16C210.939 104.227 211.226 105.047 211.799 105.62C212.386 106.193 213.119 106.48 213.999 106.48ZM220.511 108V98.14H222.531V99.3H222.851C223.011 98.8867 223.265 98.5867 223.611 98.4C223.971 98.2 224.411 98.1 224.931 98.1H226.111V99.96H224.851C224.185 99.96 223.638 100.147 223.211 100.52C222.785 100.88 222.571 101.44 222.571 102.2V108H220.511ZM227.046 108V98.14H229.106V108H227.046ZM228.086 96.8C227.686 96.8 227.346 96.6733 227.066 96.42C226.799 96.1533 226.666 95.8133 226.666 95.4C226.666 94.9867 226.799 94.6533 227.066 94.4C227.346 94.1333 227.686 94 228.086 94C228.499 94 228.839 94.1333 229.106 94.4C229.372 94.6533 229.506 94.9867 229.506 95.4C229.506 95.8133 229.372 96.1533 229.106 96.42C228.839 96.6733 228.499 96.8 228.086 96.8ZM235.543 108.28C234.596 108.28 233.736 108.08 232.963 107.68C232.203 107.28 231.596 106.7 231.143 105.94C230.703 105.18 230.483 104.267 230.483 103.2V102.94C230.483 101.873 230.703 100.967 231.143 100.22C231.596 99.46 232.203 98.88 232.963 98.48C233.736 98.0667 234.596 97.86 235.543 97.86C236.49 97.86 237.296 98.0333 237.963 98.38C238.63 98.7267 239.163 99.1867 239.563 99.76C239.976 100.333 240.243 100.967 240.363 101.66L238.363 102.08C238.296 101.64 238.156 101.24 237.943 100.88C237.73 100.52 237.43 100.233 237.043 100.02C236.656 99.8067 236.17 99.7 235.583 99.7C235.01 99.7 234.49 99.8333 234.023 100.1C233.57 100.353 233.21 100.727 232.943 101.22C232.676 101.7 232.543 102.287 232.543 102.98V103.16C232.543 103.853 232.676 104.447 232.943 104.94C233.21 105.433 233.57 105.807 234.023 106.06C234.49 106.313 235.01 106.44 235.583 106.44C236.45 106.44 237.11 106.22 237.563 105.78C238.016 105.327 238.303 104.753 238.423 104.06L240.423 104.52C240.263 105.2 239.976 105.827 239.563 106.4C239.163 106.973 238.63 107.433 237.963 107.78C237.296 108.113 236.49 108.28 235.543 108.28ZM241.599 108V98.14H243.659V108H241.599ZM242.639 96.8C242.239 96.8 241.899 96.6733 241.619 96.42C241.352 96.1533 241.219 95.8133 241.219 95.4C241.219 94.9867 241.352 94.6533 241.619 94.4C241.899 94.1333 242.239 94 242.639 94C243.052 94 243.392 94.1333 243.659 94.4C243.926 94.6533 244.059 94.9867 244.059 95.4C244.059 95.8133 243.926 96.1533 243.659 96.42C243.392 96.6733 243.052 96.8 242.639 96.8ZM245.516 108V98.14H247.536V99.62H247.856C248.043 99.22 248.376 98.8467 248.856 98.5C249.336 98.1533 250.049 97.98 250.996 97.98C251.743 97.98 252.403 98.1467 252.976 98.48C253.563 98.8133 254.023 99.2867 254.356 99.9C254.689 100.5 254.856 101.227 254.856 102.08V108H252.796V102.24C252.796 101.387 252.583 100.76 252.156 100.36C251.729 99.9467 251.143 99.74 250.396 99.74C249.543 99.74 248.856 100.02 248.336 100.58C247.829 101.14 247.576 101.953 247.576 103.02V108H245.516ZM256.141 103.12V102.82C256.141 101.78 256.347 100.893 256.761 100.16C257.187 99.4267 257.747 98.86 258.441 98.46C259.134 98.06 259.894 97.86 260.721 97.86C261.681 97.86 262.414 98.04 262.921 98.4C263.441 98.76 263.821 99.1467 264.061 99.56H264.381V98.14H266.381V110.02C266.381 110.62 266.201 111.1 265.841 111.46C265.494 111.82 265.014 112 264.401 112H257.761V110.2H263.761C264.147 110.2 264.341 110 264.341 109.6V106.46H264.021C263.874 106.7 263.667 106.947 263.401 107.2C263.134 107.453 262.781 107.66 262.341 107.82C261.914 107.98 261.374 108.06 260.721 108.06C259.894 108.06 259.127 107.867 258.421 107.48C257.727 107.08 257.174 106.513 256.761 105.78C256.347 105.033 256.141 104.147 256.141 103.12ZM261.281 106.26C262.174 106.26 262.907 105.98 263.481 105.42C264.067 104.847 264.361 104.06 264.361 103.06V102.88C264.361 101.853 264.074 101.067 263.501 100.52C262.927 99.96 262.187 99.68 261.281 99.68C260.401 99.68 259.667 99.96 259.081 100.52C258.507 101.067 258.221 101.853 258.221 102.88V103.06C258.221 104.06 258.507 104.847 259.081 105.42C259.667 105.98 260.401 106.26 261.281 106.26ZM34.14 134.28C33.1533 134.28 32.2733 134.08 31.5 133.68C30.74 133.267 30.14 132.68 29.7 131.92C29.26 131.16 29.04 130.26 29.04 129.22V128.92C29.04 127.88 29.26 126.987 29.7 126.24C30.14 125.48 30.74 124.893 31.5 124.48C32.2733 124.067 33.1533 123.86 34.14 123.86C35.1267 123.86 36.0067 124.067 36.78 124.48C37.5533 124.893 38.16 125.48 38.6 126.24C39.04 126.987 39.26 127.88 39.26 128.92V129.22C39.26 130.26 39.04 131.16 38.6 131.92C38.16 132.68 37.5533 133.267 36.78 133.68C36.0067 134.08 35.1267 134.28 34.14 134.28ZM34.14 132.44C35.0467 132.44 35.78 132.153 36.34 131.58C36.9133 130.993 37.2 130.187 37.2 129.16V128.98C37.2 127.953 36.92 127.153 36.36 126.58C35.8 125.993 35.06 125.7 34.14 125.7C33.2467 125.7 32.5133 125.993 31.94 126.58C31.38 127.153 31.1 127.953 31.1 128.98V129.16C31.1 130.187 31.38 130.993 31.94 131.58C32.5133 132.153 33.2467 132.44 34.14 132.44ZM40.6247 138V124.14H42.6447V125.56H42.9647C43.218 125.12 43.598 124.727 44.1047 124.38C44.6247 124.033 45.3647 123.86 46.3247 123.86C47.1514 123.86 47.9047 124.06 48.5847 124.46C49.278 124.86 49.8314 125.44 50.2447 126.2C50.6714 126.947 50.8847 127.853 50.8847 128.92V129.22C50.8847 130.287 50.678 131.2 50.2647 131.96C49.8514 132.707 49.298 133.28 48.6047 133.68C47.9114 134.08 47.1514 134.28 46.3247 134.28C45.6847 134.28 45.1447 134.2 44.7047 134.04C44.2647 133.88 43.9114 133.68 43.6447 133.44C43.378 133.187 43.1647 132.927 43.0047 132.66H42.6847V138H40.6247ZM45.7247 132.48C46.6314 132.48 47.3714 132.193 47.9447 131.62C48.518 131.047 48.8047 130.227 48.8047 129.16V128.98C48.8047 127.927 48.5114 127.113 47.9247 126.54C47.3514 125.967 46.618 125.68 45.7247 125.68C44.8447 125.68 44.1114 125.967 43.5247 126.54C42.9514 127.113 42.6647 127.927 42.6647 128.98V129.16C42.6647 130.227 42.9514 131.047 43.5247 131.62C44.1114 132.193 44.8447 132.48 45.7247 132.48ZM55.5661 134C54.9661 134 54.4861 133.82 54.1261 133.46C53.7794 133.1 53.6061 132.62 53.6061 132.02V125.88H50.8861V124.14H53.6061V120.88H55.6661V124.14H58.6061V125.88H55.6661V131.66C55.6661 132.06 55.8528 132.26 56.2261 132.26H58.2861V134H55.5661ZM59.8262 134V124.14H61.8862V134H59.8262ZM60.8662 122.8C60.4662 122.8 60.1262 122.673 59.8462 122.42C59.5796 122.153 59.4462 121.813 59.4462 121.4C59.4462 120.987 59.5796 120.653 59.8462 120.4C60.1262 120.133 60.4662 120 60.8662 120C61.2796 120 61.6196 120.133 61.8862 120.4C62.1529 120.653 62.2862 120.987 62.2862 121.4C62.2862 121.813 62.1529 122.153 61.8862 122.42C61.6196 122.673 61.2796 122.8 60.8662 122.8ZM68.3634 134.28C67.3768 134.28 66.4968 134.08 65.7234 133.68C64.9634 133.267 64.3634 132.68 63.9234 131.92C63.4834 131.16 63.2634 130.26 63.2634 129.22V128.92C63.2634 127.88 63.4834 126.987 63.9234 126.24C64.3634 125.48 64.9634 124.893 65.7234 124.48C66.4968 124.067 67.3768 123.86 68.3634 123.86C69.3501 123.86 70.2301 124.067 71.0034 124.48C71.7768 124.893 72.3834 125.48 72.8234 126.24C73.2634 126.987 73.4834 127.88 73.4834 128.92V129.22C73.4834 130.26 73.2634 131.16 72.8234 131.92C72.3834 132.68 71.7768 133.267 71.0034 133.68C70.2301 134.08 69.3501 134.28 68.3634 134.28ZM68.3634 132.44C69.2701 132.44 70.0034 132.153 70.5634 131.58C71.1368 130.993 71.4234 130.187 71.4234 129.16V128.98C71.4234 127.953 71.1434 127.153 70.5834 126.58C70.0234 125.993 69.2834 125.7 68.3634 125.7C67.4701 125.7 66.7368 125.993 66.1634 126.58C65.6034 127.153 65.3234 127.953 65.3234 128.98V129.16C65.3234 130.187 65.6034 130.993 66.1634 131.58C66.7368 132.153 67.4701 132.44 68.3634 132.44ZM74.8481 134V124.14H76.8681V125.62H77.1881C77.3748 125.22 77.7081 124.847 78.1881 124.5C78.6681 124.153 79.3815 123.98 80.3281 123.98C81.0748 123.98 81.7348 124.147 82.3081 124.48C82.8948 124.813 83.3548 125.287 83.6881 125.9C84.0215 126.5 84.1881 127.227 84.1881 128.08V134H82.1281V128.24C82.1281 127.387 81.9148 126.76 81.4881 126.36C81.0615 125.947 80.4748 125.74 79.7281 125.74C78.8748 125.74 78.1881 126.02 77.6681 126.58C77.1615 127.14 76.9081 127.953 76.9081 129.02V134H74.8481ZM89.9928 134.28C88.7395 134.28 87.6995 134 86.8728 133.44C86.0461 132.88 85.5395 132.033 85.3528 130.9L87.2728 130.44C87.3795 130.987 87.5595 131.42 87.8128 131.74C88.0661 132.06 88.3795 132.287 88.7528 132.42C89.1395 132.553 89.5528 132.62 89.9928 132.62C90.6461 132.62 91.1461 132.493 91.4928 132.24C91.8528 131.987 92.0328 131.66 92.0328 131.26C92.0328 130.86 91.8661 130.567 91.5328 130.38C91.1995 130.193 90.7061 130.04 90.0528 129.92L89.3728 129.8C88.7061 129.68 88.0995 129.507 87.5528 129.28C87.0061 129.053 86.5728 128.74 86.2528 128.34C85.9328 127.94 85.7728 127.427 85.7728 126.8C85.7728 125.867 86.1195 125.147 86.8128 124.64C87.5061 124.12 88.4261 123.86 89.5728 123.86C90.6795 123.86 91.5861 124.113 92.2928 124.62C93.0128 125.113 93.4795 125.787 93.6928 126.64L91.7728 127.18C91.6528 126.58 91.3995 126.16 91.0128 125.92C90.6261 125.667 90.1461 125.54 89.5728 125.54C89.0128 125.54 88.5728 125.647 88.2528 125.86C87.9328 126.06 87.7728 126.347 87.7728 126.72C87.7728 127.12 87.9261 127.413 88.2328 127.6C88.5528 127.787 88.9795 127.927 89.5128 128.02L90.2128 128.14C90.9195 128.26 91.5661 128.427 92.1528 128.64C92.7395 128.853 93.1995 129.16 93.5328 129.56C93.8795 129.96 94.0528 130.493 94.0528 131.16C94.0528 132.147 93.6861 132.913 92.9528 133.46C92.2195 134.007 91.2328 134.28 89.9928 134.28Z" fill="#D3E9F8"/>
<path d="M367.477 150.936L370.079 147.512L380.488 155.045L377.612 158.606L367.477 150.936Z" fill="#E25058"/>
<path d="M356.242 45.0812H336.383C336.383 44.5788 336.684 43.4921 337.889 43.1637C339.095 42.8353 340.035 43.4831 340.355 43.8481C340.492 42.4785 341.313 39.6847 343.505 39.4655C345.696 39.2464 346.609 41.2917 346.792 42.3417C347.066 41.7482 347.86 40.5612 348.846 40.5612C349.833 40.5612 350.718 42.2962 351.038 43.1637C354.106 42.7254 355.786 44.2594 356.242 45.0812Z" fill="#D3E9F8"/>
<path d="M398.837 31.6065H422.395C422.395 31.0106 422.037 29.7214 420.607 29.3319C419.178 28.9424 418.062 29.7108 417.683 30.1438C417.521 28.5192 416.546 25.2051 413.946 24.9451C411.347 24.6852 410.264 27.1113 410.047 28.3569C409.722 27.6529 408.78 26.2448 407.61 26.2448C406.44 26.2448 405.39 28.3029 405.011 29.3319C401.371 28.812 399.378 30.6317 398.837 31.6065Z" fill="#D3E9F8"/>
<path d="M420.142 72.987L419.288 72.7306L419.63 73.5568L418.832 74.1835L419.801 74.2975L419.487 75.5509L420.513 74.6678L421.225 75.3515V74.2975L422.393 74.1835L421.367 73.5568L422.108 72.4172L420.855 72.987L420.513 72.0469L420.142 72.987Z" fill="#000201"/>
<path d="M385.657 18.1483L383.356 17.458L384.276 19.6823L382.129 21.3696L384.737 21.6764L383.893 25.0512L386.654 22.6735L388.572 24.5143V21.6764L391.716 21.3696L388.955 19.6823L390.949 16.6143L387.575 18.1483L386.654 15.6172L385.657 18.1483Z" fill="#000201"/>
<path d="M401.717 78.211C407.305 76.3483 410.985 78.9871 412.126 80.5394L404.319 91.3597C403.086 91.3597 401.717 91.0858 400.347 91.3597C398.977 91.6336 394.046 93.1402 392.266 93.5511C390.485 93.962 382.815 94.5099 379.391 93.962C376.652 93.5237 377.428 91.4967 378.159 90.5379C377.383 90.5379 375.721 90.0723 375.283 88.2096C374.845 86.3469 377.474 85.6986 378.844 85.6073C378.844 83.9637 380.214 83.2789 380.898 83.1419C380.762 82.3202 381.583 81.0053 385.966 82.3202C391.445 83.9637 394.732 80.5394 401.717 78.211Z" fill="#DC5559"/>
<path d="M386.234 83.5513C385.23 84.2361 383.687 85.8797 385.549 86.9754C387.412 88.0711 393.996 87.2493 397.054 86.7014M378.564 90.3994C379.888 90.9016 383.057 92.0156 385.139 92.4539C387.221 92.8922 392.306 92.8192 394.589 92.7278M375.277 87.7971C375.277 86.9752 376.62 85.7425 378.701 85.7425M378.701 85.7425C380.783 85.7425 383.176 86.1992 384.18 86.4275M378.701 85.7425C378.656 85.1033 379.277 83.4964 380.482 83.2772C381.687 83.0581 384.089 83.1859 385.139 83.2772" stroke="#000201" stroke-width="0.547853" stroke-linecap="round" stroke-linejoin="round"/>
<path d="M346.246 4.51978L342.137 3.28712L343.78 7.25905L339.945 10.2722L344.602 10.8201L343.095 16.8465L348.026 12.6006L351.45 15.8877V10.8201L357.066 10.2722L352.135 7.25905L355.696 1.78052L349.67 4.51978L348.026 0L346.246 4.51978Z" fill="#000201"/>
<path d="M383.361 176.957H332C332.594 174.446 334.054 168.52 335.15 164.904C336.52 160.385 338.848 158.878 339.259 158.741C339.67 158.604 341.724 157.097 348.299 157.097C353.558 157.097 359.895 153.993 362.406 152.441C362.878 152.075 363.334 151.767 363.775 151.509C364.056 151.346 364.33 151.203 364.597 151.079C364.83 150.971 365.058 150.878 365.282 150.798C370.612 148.895 373.265 154.671 373.5 154.906C373.774 155.18 373.774 155.591 374.185 155.317C374.596 155.043 378.157 153.536 382.402 156.823C387.771 161.864 385.279 172.346 383.361 176.957Z" fill="#000201"/>
<path d="M362.952 152.171C360.35 151.531 355.638 149.377 357.611 145.87C358.816 143.898 362.769 148.524 364.596 151.083M363.774 151.513C361.628 149.861 357.912 145.98 360.213 143.679C362.514 141.378 364.55 147.469 365.28 150.802" stroke="#000201" stroke-width="0.547853" stroke-linecap="round" stroke-linejoin="round"/>
<path d="M410.754 98.7516C410.864 97.9846 410.526 97.5189 410.343 97.382L405.687 93.1302C399.222 92.0297 395.414 94.867 394.319 96.4232L362.406 142.169L383.362 157.235L408.426 122.446C408.654 121.99 409.33 121.351 410.206 122.446C412.617 125.185 416.689 136.28 418.424 141.484C405.824 147.51 396.784 154.77 395.551 161.755C394.319 168.74 398.154 172.027 399.934 172.575C401.715 173.123 403.906 172.164 421.026 173.397C438.147 174.629 470.607 173.397 471.292 173.397C471.977 173.397 472.936 171.342 474.031 169.288C475.127 167.233 478.551 168.192 481.564 168.192C484.577 168.192 486.632 167.507 487.18 162.713C487.618 158.878 484.714 140.845 483.208 132.308C480.468 135.732 474.031 134.225 471.977 133.677C469.922 133.129 464.718 130.116 454.445 129.568C446.228 129.13 437.964 132.125 434.86 133.677C436.366 132.171 436.914 120.392 436.366 121.214C432.12 127.24 426.231 121.077 425.135 120.118C424.04 119.159 419.246 112.996 418.15 110.667C417.055 108.339 412.535 104.915 411.302 103.271C410.069 101.628 410.617 99.7103 410.754 98.7516Z" fill="#D3E9F8"/>
<path d="M481.563 168.196C484.577 168.196 486.631 167.511 487.179 162.717C487.458 160.274 486.381 152.069 485.173 144.228C486.618 143.269 490.357 141.708 493.753 143.132C496.629 144.228 497.314 145.323 497.314 146.282C497.314 147.241 497.999 155.459 497.314 157.239C496.629 159.02 496.629 159.979 496.629 160.526C496.629 161.074 496.903 168.881 497.451 170.662C497.89 172.086 497.999 175.181 497.999 176.551H470.059C470.196 175.912 470.634 174.387 471.291 173.401C471.976 173.401 472.935 171.346 474.031 169.292C475.126 167.237 478.55 168.196 481.563 168.196Z" fill="#000201"/>
<path d="M437.871 39.9947C430.421 38.2416 425.91 43.647 424.586 46.5689L447.733 50.8148C447.55 47.9386 445.322 41.7478 437.871 39.9947Z" fill="#E287EA" stroke="#E287EA" stroke-width="0.547853" stroke-linecap="round" stroke-linejoin="round"/>
<path d="M447.734 50.8167L434.996 48.4883L435.544 52.7341L437.051 57.5278L440.612 62.0476C441.926 59.5275 445.999 56.4321 447.871 55.1995C448.09 53.5559 447.825 51.5015 447.734 50.8167Z" fill="#000201" stroke="#000201" stroke-width="0.547853" stroke-linecap="round" stroke-linejoin="round"/>
<ellipse cx="448.419" cy="100.807" rx="11.7788" ry="12.0528" fill="#CC4DD5"/>
<path d="M415.273 44.793L447.734 50.8193" stroke="#000201" stroke-width="0.547853" stroke-linecap="round" stroke-linejoin="round"/>
<path d="M429.514 64.2386C421.296 61.828 422.529 51.4553 424.172 46.5703L435.129 48.4878L435.54 52.7337L437.184 58.0752L440.608 62.0471L437.184 66.5669L434.307 64.5125C432.445 64.7316 430.336 64.4212 429.514 64.2386Z" fill="#DC5559" stroke="#000201" stroke-width="0.547853" stroke-linecap="round" stroke-linejoin="round"/>
<path d="M439.79 73.6927L434.86 70.1316C439.023 61.5851 446.821 55.3396 450.2 53.2852C453.624 54.6548 459.924 60.6812 466.224 68.4881C472.525 76.295 475.401 87.252 478.003 98.346C480.085 107.221 482.34 124.689 483.208 132.313C480.468 135.737 474.031 134.23 471.977 133.683C469.922 133.135 464.718 130.121 454.445 129.574C446.228 129.135 437.964 132.13 434.86 133.683C436.366 132.176 436.914 120.397 436.366 121.219C432.12 127.245 426.231 121.082 425.135 120.123C424.04 119.164 419.246 113.001 418.15 110.673C417.054 108.344 412.535 104.92 411.302 103.277C410.069 101.633 410.617 99.7157 410.754 98.7569C410.864 97.9899 410.526 97.5243 410.343 97.3873L404.043 91.6348L412.809 79.5821C414.498 81.2256 418.013 84.6497 418.561 85.1976C419.246 85.8824 419.52 86.1563 420.479 86.0193C421.437 85.8824 422.259 86.1563 423.355 86.7042C424.45 87.252 426.779 90.5391 428.559 92.1827C429.984 93.4975 430.888 92.3653 431.162 91.6348C433.764 87.2064 439.133 78.0207 439.79 76.7059C440.448 75.391 440.064 74.1492 439.79 73.6927Z" fill="#E287EA"/>
<path d="M410.343 97.3873L404.043 91.6348L409.721 83.8279C412.667 85.7454 417.986 91.0048 415.685 96.7025C413.384 102.4 411.804 103.459 411.302 103.277C410.069 101.633 410.617 99.7157 410.754 98.7569C410.864 97.9899 410.526 97.5243 410.343 97.3873Z" fill="#CC4DD5"/>
<path d="M450.2 53.2852C453.624 54.6548 459.924 60.6812 466.224 68.4881C466.442 68.7583 466.656 69.0322 466.866 69.3098C463.548 70.2229 456.007 70.9808 452.391 66.7075C448.775 62.4343 449.423 55.9788 450.2 53.2852Z" fill="#CC4DD5"/>
<path d="M467.868 119.712C463.814 108.345 473.583 103.836 478.974 103.003C480.355 110.301 481.706 120.088 482.584 127.108C478.911 127.93 470.826 127.601 467.868 119.712Z" fill="#CC4DD5"/>
<path d="M434.86 133.683C435.992 132.55 436.583 125.615 436.574 122.589C439.198 122.24 445.241 123.196 448.419 129.805C442.456 130.528 437.196 132.514 434.86 133.683Z" fill="#CC4DD5"/>
<path d="M406.231 91.6356L411.71 95.6075M408.286 89.1702L412.805 93.2791M410.203 85.6092L414.997 90.2659M412.258 82.1851L417.325 86.5679M430.474 93.9639C431.113 96.2467 432.199 101.716 431.432 105.332M432.391 94.7857C433.03 95.7445 434.391 98.018 434.72 99.4425M462.934 93.9639L460.058 101.771M437.459 67.667C438.509 68.8997 440.992 71.4198 442.526 71.6389M438.965 64.2429L442.389 66.8452M441.842 61.3667L445.951 64.6538M444.17 58.4905C445.54 59.4949 448.361 61.6954 448.69 62.4624M448.416 56.71C449.146 57.8513 450.717 60.2436 451.155 60.6819M450.607 55.0664C451.703 56.2078 453.894 58.5727 453.894 58.9014M464.851 87.8006C462.249 91.1334 456.524 98.5933 454.442 101.771C451.84 105.743 447.594 111.358 444.992 113.824C442.389 116.289 439.376 119.302 437.459 120.946M405.82 116.7C406.642 117.248 408.286 119.001 408.286 121.63M407.601 112.865C408.377 113.824 409.82 116.755 409.381 120.809M434.446 134.094C430.017 136.286 420.886 140.723 419.791 140.942M413.49 167.376C415.545 166.28 421.325 164.034 428.008 163.815C436.363 163.541 451.703 164.363 456.497 165.596C460.332 166.582 468.686 167.741 472.384 168.198" stroke="#000201" stroke-width="0.547853" stroke-linecap="round" stroke-linejoin="round"/>
<path d="M435.816 52.597C433.953 53.1448 434.035 55.8837 434.72 56.8428C434.994 57.2079 435.898 57.8559 437.323 57.5272C439.103 57.1163 439.377 54.5144 439.24 53.6927C439.103 52.8709 438.145 51.9121 435.816 52.597Z" fill="#C53232" stroke="#000201" stroke-width="0.547853" stroke-linecap="round" stroke-linejoin="round"/>
<path d="M435.41 54.6536C435.867 54.2427 436.917 53.4757 437.465 53.6949C438.012 53.914 437.784 54.9731 437.602 55.4753" stroke="#000201" stroke-width="0.547853" stroke-linecap="round" stroke-linejoin="round"/>
<path d="M422.532 49.0335C422.441 48.6227 422.806 47.9652 424.997 48.6227M427.326 49.0335C428.102 49.0793 429.682 49.3078 429.791 49.8557M425.956 51.7732L423.491 55.3342L426.778 56.156M425.956 58.8953C426.778 58.8496 428.477 58.6761 428.696 58.3474" stroke="#000201" stroke-width="0.547853" stroke-linecap="round" stroke-linejoin="round"/>
<path d="M423.492 55.3384L425.958 51.7773C425.912 53.01 426.012 55.6123 426.779 56.1602L423.492 55.3384Z" fill="#C53232"/>
<path d="M425.958 51.7773L423.492 55.3384L426.779 56.1602" stroke="#000201" stroke-width="0.547853" stroke-linecap="round" stroke-linejoin="round"/>
<circle cx="430.202" cy="55.4675" r="1.50659" fill="#C43439"/>
<ellipse cx="428.013" cy="51.771" rx="0.684816" ry="0.821779" fill="#000201"/>
<ellipse cx="423.079" cy="50.9546" rx="0.684816" ry="0.821779" fill="#000201"/>
<circle cx="386.922" cy="56.2928" r="17.3943" fill="#458BF0"/>
<path d="M369.805 56.6016C370.618 56.6838 371.78 56.8506 372.93 57.123C374.241 57.4338 375.49 57.8689 376.206 58.4316C377.106 59.1388 377.701 60.2466 378.123 61.3447C378.333 61.8905 378.497 62.4255 378.636 62.8965C378.772 63.3598 378.888 63.7782 378.995 64.0645C379.092 64.3233 379.223 64.8398 379.409 65.5098C379.592 66.1668 379.821 66.9476 380.108 67.6963C380.394 68.4418 380.745 69.1731 381.174 69.7227C381.601 70.2695 382.142 70.6796 382.812 70.6797C383.83 70.6797 384.469 71.127 384.704 71.6357C384.923 72.1084 384.829 72.7114 384.241 73.209C376.156 71.9378 369.951 65.0088 369.805 56.6016ZM394.581 40.9834C397.617 42.5048 400.138 44.9023 401.812 47.8447C401.2 47.8938 400.391 47.9292 399.599 47.8994C399.105 47.8809 398.623 47.8377 398.201 47.7607C397.775 47.683 397.431 47.574 397.198 47.4346C396.887 47.248 396.7 47.0555 396.579 46.8545C396.457 46.6515 396.393 46.4215 396.353 46.1416C396.311 45.8539 396.299 45.5445 396.271 45.1641C396.242 44.792 396.198 44.3743 396.091 43.9102C395.916 43.1529 395.498 42.3524 395.059 41.6699C394.902 41.4258 394.738 41.1956 394.581 40.9834Z" fill="#000201" stroke="#000201" stroke-width="0.547853" stroke-linecap="round" stroke-linejoin="round"/>
<path d="M383.391 39.543C383.345 40.4714 382.594 42.2154 380.074 42.8728C380.394 45.0186 379.91 49.3375 375.417 49.4471C372.788 49.5566 371.596 49.5903 371.195 49.5447M403.785 53.3291C403.004 53.5117 400.947 53.5286 397.879 52.3233C394.044 50.8167 391.168 49.8579 389.388 50.4058C387.607 50.9537 386.922 52.7342 387.607 53.8299C388.292 54.9256 390.483 57.254 390.757 59.0345C391.031 60.815 390.62 63.4173 389.114 64.7869C387.607 66.1566 388.018 68.6219 389.114 69.3067C389.99 69.8546 391.515 71.6225 392.246 72.5617" stroke="#000201" stroke-width="0.547853" stroke-linecap="round" stroke-linejoin="round"/>
</g>
<defs>
<clipPath id="clip0_1825_3904">
<rect width="510" height="177" fill="white"/>
</clipPath>
<clipPath id="clip1_1825_3904">
<rect width="684" height="432" fill="white" transform="translate(-73 -145)"/>
</clipPath>
</defs>
</svg>
