<svg width="182" height="194" viewBox="0 0 182 194" fill="none" xmlns="http://www.w3.org/2000/svg">
<path d="M26.1205 97.5625C31.7205 80.3625 59.7871 71.0625 73.1205 68.5625C76.2873 69.2292 84.3211 70.6625 91.1211 71.0625C99.6211 71.5625 101.121 76.5625 114.621 79.0625C128.121 81.5625 134.121 108.562 135.121 112.562C136.121 116.562 146.621 162.062 145.121 171.062C143.621 180.062 130.621 188.562 127.621 191.062C124.621 193.562 109.621 193.562 105.121 193.062C101.521 192.662 97.6211 191.562 96.1211 191.062C83.7878 191.562 56.8211 192.162 47.6211 190.562C36.1211 188.562 32.1211 193.562 23.6205 190.562C4.12047 182.062 -0.879529 170.062 0.120471 161.562C1.12047 153.062 12.1205 130.562 15.1205 124.562C18.1205 118.562 19.1205 119.062 26.1205 97.5625Z" fill="#FEDD4D"/>
<path d="M106.121 91.5625C105.321 84.3625 114.078 81.2292 118.556 80.5625C123.395 83.4069 127.053 89.4502 129.695 95.5625C127.17 98.3958 121.121 104.062 117.121 104.062C112.121 104.062 107.121 100.562 106.121 91.5625Z" fill="#FFB84E"/>
<path d="M144.938 163.562C145.282 166.88 145.379 169.512 145.121 171.062C144.566 174.39 142.44 177.65 139.828 180.562C139.092 179.896 137.421 177.062 136.621 171.062C135.821 165.062 141.832 163.562 144.938 163.562Z" fill="#FFB84E"/>
<path d="M13.1211 165.062C10.7211 161.463 3.45401 161.229 0.120471 161.562C-0.826162 169.609 3.60389 180.792 20.6211 189.173C21.9544 188.803 24.8211 187.262 25.6211 184.062C26.6211 180.062 20.1211 178.562 18.1211 176.062C16.1211 173.562 16.1211 169.562 13.1211 165.062Z" fill="#FFB84E"/>
<path d="M137.121 1.5625L132.621 9.5625L136.121 11.0625L140.621 3.0625L137.121 1.5625Z" fill="#000201" stroke="#000201" stroke-linecap="round" stroke-linejoin="round"/>
<path d="M96.1217 148.064C99.7217 147.264 103.622 142.064 105.122 139.564C108.122 135.465 109.121 139.564 112.121 139.564C115.121 139.564 115.621 145.064 113.121 148.064C110.621 151.064 112.121 159.064 112.121 162.564C112.121 166.064 107.121 170.564 99.6211 171.064C92.1211 171.564 90.1217 162.564 89.6217 157.564C89.1217 152.564 91.6217 149.064 96.1217 148.064Z" fill="#FFB84E"/>
<path d="M49.6197 87.0624C50.4197 79.4624 58.6197 78.5624 62.6197 79.0624C64.1202 79.2291 67.8211 79.9625 70.6211 81.5625C74.1211 83.5625 83.6211 86.5625 83.6211 89.0625C83.6211 91.5625 76.1211 95.0625 72.6211 97.0625C69.1211 99.0625 61.6197 102.062 57.1197 102.062C52.6197 102.062 48.6197 96.5624 49.6197 87.0624Z" fill="#FFB84E"/>
<path d="M51.1211 88.5625C48.2878 92.0625 42.3211 100.162 41.1211 104.562C39.6211 110.062 39.1211 114.062 39.1211 118.562C39.1211 123.062 38.1211 134.062 34.6211 137.062M101.121 98.0625C100.954 104.896 101.021 119.863 102.621 125.062C102.831 125.746 103.047 126.412 103.265 127.062M84.6211 145.562C84.6211 146.729 87.1211 149.262 97.1211 150.062C109.621 151.062 108.121 144.562 107.621 140.562C107.174 136.983 105.124 132.602 103.265 127.062M98.1211 116.562C98.5505 119.562 100.181 125.862 103.265 127.062" stroke="#000201" stroke-linecap="round" stroke-linejoin="round"/>
<path d="M32.1182 160.563C36.9182 165.363 46.1667 157.667 50 153.5L51.5021 154C51.3354 156.667 48.5204 163.362 40.1204 166.562C31.7204 169.763 25.9525 163.896 24.1185 160.563C21.9977 155.5 21.5185 145.363 25.1185 144.563C28.7185 143.763 29.9517 145.563 30.1182 146.563C28.7849 149.229 27.3182 155.763 32.1182 160.563Z" fill="#000201"/>
<path d="M52.1225 189.564C50.5225 179.564 57.4559 174.397 61.1225 173.064C66.624 172.064 78.6211 171.564 82.1211 173.064C84.9211 174.264 84.6211 175.231 84.1211 175.564C86.1211 175.564 86.1211 176.064 92.6211 176.564C97.8211 176.964 99.1211 179.397 99.1211 180.564C104.721 183.764 101.788 185.231 99.6211 185.564C101.621 188.764 97.4544 189.564 95.1211 189.564C95.4544 190.397 95.7211 192.164 94.1211 192.564C90.1211 193.064 66.1211 191.564 61.1225 190.564C57.1237 189.764 53.4563 189.564 52.1225 189.564Z" fill="#F17EF0"/>
<path d="M77.5 174.998C78.8333 174.665 82 174.298 84 175.498M85.1211 178.564C89.2878 178.397 97.8211 178.464 98.6211 180.064M86.1211 183.064C89.9544 182.897 97.8211 183.064 98.6211 185.064M83.1211 187.564C86.4544 187.564 93.4211 187.964 94.6211 189.564" stroke="#000201" stroke-linecap="round" stroke-linejoin="round"/>
<path d="M66.6227 165.56C68.6227 155.16 76.1227 149.227 79.6227 147.56C71.1244 142.56 66.6227 133.561 59.1211 130.061C53.1198 127.261 49.9539 132.561 49.1211 135.56C44.7211 134.76 43.9544 138.56 44.1211 140.56C40.1211 142.56 41.4555 146.06 42.6227 147.56C38.2227 149.16 39.7894 151.56 41.1227 152.56C41.9561 152.394 44.6227 152.36 48.6227 153.56C52.6227 154.76 62.2894 162.06 66.6227 165.56Z" fill="#F17EF0"/>
<path d="M50.1211 135.563C52.1211 135.23 56.4211 135.063 57.6211 137.063M44.6211 140.062C46.6211 139.896 51.0211 140.062 52.6211 142.062M42.6211 147.062C44.7878 146.562 49.4211 146.162 50.6211 148.562M44.6211 149.562C45.1211 150.396 46.9 151.8 48.5 153" stroke="#000201" stroke-linecap="round" stroke-linejoin="round"/>
<path d="M88.1172 45.5644C81.3172 45.1644 77.9505 39.8861 77.1172 37.2969C76.2447 37.4118 75.407 37.5427 74.6172 37.6829C73.7839 38.6434 71.1172 40.5644 67.1172 40.5644C64.1172 40.5644 63.6172 62.5644 73.1172 66.5644C73.6737 67.121 73.6108 67.6775 73.1582 68.1574L73.5684 92.1686C73.5846 93.1186 74.792 93.5127 75.3655 92.7552L91.0308 72.0636C89.9315 71.135 90.1172 69.4784 90.1172 68.5644C90.1172 67.0644 93.1172 68.0644 93.1172 64.5644C93.1172 61.0644 94.6172 58.5644 99.1172 58.5644C103.617 58.5644 104.117 53.0644 104.117 51.5644C104.117 50.0644 103.617 45.5644 98.1172 48.0644C92.6172 50.5644 95.6172 55.0644 92.1172 55.0644C89.3172 55.0644 88.2839 48.7311 88.1172 45.5644Z" fill="#F27DF4"/>
<path d="M61.1172 130.564L64.1172 133.564M77.1172 37.2969C77.9505 39.8861 81.3172 45.1644 88.1172 45.5644C88.2839 48.7311 89.3172 55.0644 92.1172 55.0644C95.6172 55.0644 92.6172 50.5644 98.1172 48.0644C103.617 45.5644 104.117 50.0644 104.117 51.5644C104.117 53.0644 103.617 58.5644 99.1172 58.5644C94.6172 58.5644 93.1172 61.0644 93.1172 64.5644C93.1172 68.0644 90.1172 67.0644 90.1172 68.5644C90.1172 69.4784 89.9315 71.135 91.0308 72.0636L75.3655 92.7552C74.792 93.5127 73.5846 93.1186 73.5684 92.1686L73.1582 68.1574C73.6108 67.6775 73.6737 67.121 73.1172 66.5644C63.6172 62.5644 64.1172 40.5644 67.1172 40.5644C71.1172 40.5644 73.7839 38.6434 74.6172 37.6829C75.407 37.5427 76.2447 37.4118 77.1172 37.2969Z" stroke="#F27DF4" stroke-linecap="round" stroke-linejoin="round"/>
<path d="M96.6211 53.5623C97.4544 52.5623 99.3211 50.6623 100.121 51.0623C100.921 51.4623 100.788 52.8956 100.621 53.5623" stroke="#000201" stroke-linecap="round" stroke-linejoin="round"/>
<path d="M78.6211 53.0625H77.7461M75.6211 53.0625H77.7461M77.7461 53.0625C77.3294 53.8958 76 56 76 58H79" stroke="#000201" stroke-linecap="round" stroke-linejoin="round"/>
<path d="M76.6211 61.0625C77.6211 62.0625 80.9211 62.6625 82.1211 61.0625M78.1211 68.0625C79.4544 68.2292 82.2211 68.4625 82.6211 68.0625" stroke="#000201" stroke-linecap="round" stroke-linejoin="round"/>
<path d="M77.1204 37.2958C83.2345 36.4904 91.0604 36.4711 96.1204 39.5633C102.029 43.174 107.219 50.8476 110.088 56.0633C110.056 58.5633 107.12 60.5633 108.12 61.5633C109.12 62.5633 113.12 62.0633 115.62 66.0633C118.12 70.0633 115.12 76.0633 113.12 77.0633C111.12 78.0633 108.62 77.5633 105.62 75.5633C103.22 73.9633 99.9538 74.23 98.6204 74.5633L64.1204 133.563L61.1204 130.563L95.1204 72.5633C89.6204 73.5633 90.1204 70.0633 90.1204 68.5633C90.1204 67.0633 90.3796 66.4367 92.5 64C94.7976 61.3597 94.6204 58.5633 99.1204 58.5633C103.62 58.5633 103.5 53.5 103.5 52C103.5 50.5 103 46 97.5 48.5C92 51 95.6204 55.0633 92.1204 55.0633C89.3204 55.0633 88.2871 48.73 88.1204 45.5633C81.3204 45.1633 77.9538 39.8849 77.1204 37.2958C76.2479 37.4107 75.4102 37.5416 74.6204 37.6818C73.7871 38.6423 71.1204 40.5633 67.1204 40.5633C64.1204 40.5633 63.6204 62.5633 73.1204 66.5633C74.6204 68.0633 71.6204 69.5633 68.6204 69.5633C65.6204 69.5633 45.1204 75.5633 39.6204 82.0633C38.7871 81.3967 38.1204 79.5633 42.1204 77.5633C47.1204 75.0633 39.6211 72.0633 39.6211 70.0633C39.6211 68.0633 38.1211 63.5633 46.1211 59.0633C45.7878 55.3967 46.1211 47.9633 50.1211 47.5633C54.1211 47.1633 56.1211 47.3967 56.6211 47.5633C55.6211 42.8967 56.1211 33.5633 66.1211 33.5633C66.1211 33.0419 66.4211 31.6556 67.6211 30.2812C69.4008 33.7361 70.325 36.8889 70.6204 38.5633C71.7035 38.2679 73.0697 37.957 74.6204 37.6818C75.4102 37.5416 76.2479 37.4107 77.1204 37.2958Z" fill="#000201"/>
<path d="M77.1204 37.2958C83.2345 36.4904 91.0604 36.4711 96.1204 39.5633C102.029 43.174 107.219 50.8476 110.088 56.0633C110.056 58.5633 107.12 60.5633 108.12 61.5633C109.12 62.5633 113.12 62.0633 115.62 66.0633C118.12 70.0633 115.12 76.0633 113.12 77.0633C111.12 78.0633 108.62 77.5633 105.62 75.5633C103.22 73.9633 99.9538 74.23 98.6204 74.5633L64.1204 133.563L61.1204 130.563L95.1204 72.5633C89.6204 73.5633 90.1204 70.0633 90.1204 68.5633C90.1204 67.0633 90.3796 66.4367 92.5 64C94.7976 61.3597 94.6204 58.5633 99.1204 58.5633C103.62 58.5633 103.5 53.5 103.5 52C103.5 50.5 103 46 97.5 48.5C92 51 95.6204 55.0633 92.1204 55.0633C89.3204 55.0633 88.2871 48.73 88.1204 45.5633C81.3204 45.1633 77.9538 39.8849 77.1204 37.2958ZM77.1204 37.2958C76.2479 37.4107 75.4102 37.5416 74.6204 37.6818M74.6204 37.6818C73.0697 37.957 71.7035 38.2679 70.6204 38.5633C70.325 36.8889 69.4008 33.7361 67.6211 30.2812C66.4211 31.6556 66.1211 33.0419 66.1211 33.5633C56.1211 33.5633 55.6211 42.8967 56.6211 47.5633C56.1211 47.3967 54.1211 47.1633 50.1211 47.5633C46.1211 47.9633 45.7878 55.3967 46.1211 59.0633C38.1211 63.5633 39.6211 68.0633 39.6211 70.0633C39.6211 72.0633 47.1204 75.0633 42.1204 77.5633C38.1204 79.5633 38.7871 81.3967 39.6204 82.0633C45.1204 75.5633 65.6204 69.5633 68.6204 69.5633C71.6204 69.5633 74.6204 68.0633 73.1204 66.5633C63.6204 62.5633 64.1204 40.5633 67.1204 40.5633C71.1204 40.5633 73.7871 38.6423 74.6204 37.6818Z" stroke="#000201" stroke-linecap="round" stroke-linejoin="round"/>
<path d="M40.6211 22.5626C69.0211 -11.4374 114.788 0.395892 134.121 10.5626C178.521 30.1626 183.954 73.7292 181.121 93.0625C178.954 89.0625 173.721 80.1625 170.121 76.5625C166.521 72.9625 154.954 76.0625 149.621 78.0625C148.121 74.2292 143.421 65.2625 136.621 60.0625C129.821 54.8625 117.121 57.2292 111.621 59.0625C109.454 54.3958 103.321 43.9625 96.1211 39.5625C88.9211 35.1625 76.1211 37.0625 70.6211 38.5625C70.1211 35.7292 67.8211 28.6625 62.6211 23.0625C57.4211 17.4625 45.7878 20.3959 40.6211 22.5626Z" fill="#3E9AE8"/>
<path d="M132.621 11.0625C120.121 11.8958 90.8211 17.7625 73.6211 34.5625M132.621 11.0625C127.454 24.2292 116.521 51.6625 114.121 56.0625M132.621 11.0625C139.621 18.8958 153.121 42.8625 151.121 76.0625" stroke="#D3E9F8" stroke-linecap="round" stroke-linejoin="round"/>
<circle cx="70.6211" cy="52.0625" r="5" stroke="#000201" stroke-linecap="round" stroke-linejoin="round"/>
<path d="M73.1215 45.0606C71.4548 44.8939 68.4215 45.0606 69.6215 47.0606" stroke="#000201" stroke-linecap="round" stroke-linejoin="round"/>
<circle cx="83.6211" cy="52.0625" r="5" stroke="#000201" stroke-linecap="round" stroke-linejoin="round"/>
<path d="M84.1211 47.0626C83.7878 46.0626 82.5211 44.2626 80.1211 45.0626" stroke="#000201" stroke-linecap="round" stroke-linejoin="round"/>
<circle cx="70" cy="52" r="1" fill="#000201"/>
<circle cx="84" cy="52" r="1" fill="#000201"/>
</svg>
