<svg width="897" height="503" viewBox="0 0 897 503" fill="none" xmlns="http://www.w3.org/2000/svg">
<path d="M77.9883 146.09H893.45M77.9883 221.081H893.45M77.9883 296.073H893.45M893.45 371.064H77.9883" stroke="#E9E9E9" stroke-width="2.22197" stroke-dasharray="5.55 5.55"/>
<path d="M78.543 416.059L232.072 398.877C232.295 398.852 232.505 398.76 232.675 398.613L362.629 286.355C362.838 286.174 363.108 286.078 363.385 286.085L487.201 289.402C487.322 289.405 487.444 289.388 487.56 289.352L620.865 247.867C621.119 247.788 621.392 247.803 621.636 247.908L750.733 303.629C751.054 303.768 751.421 303.747 751.725 303.574L895.115 221.637" stroke="#4F46E5" stroke-width="2.22197" stroke-linecap="round"/>
<path d="M77.9883 405.505L232.024 296.904C232.274 296.728 232.584 296.663 232.883 296.723L486.466 347.661C486.702 347.708 486.947 347.678 487.165 347.574L618.5 284.665C618.835 284.504 619.229 284.522 619.548 284.712L749.843 362.229C750.326 362.516 750.946 362.398 751.29 361.954L894.561 176.643" stroke="#4F46E5" stroke-width="2.22197" stroke-linecap="round" stroke-dasharray="5.55 5.55"/>
<path d="M77.4336 446.055H894.006" stroke="#E9E9E9" stroke-width="1.11098" stroke-linecap="round"/>
<path d="M11.4619 8.50899V10.1532H7.24016V23.9961H5.21817V10.1532H0.974218V8.50899H11.4619ZM18.8169 24.1961C17.6763 24.1961 16.6394 23.9368 15.7062 23.4184C14.7878 22.8999 14.0619 22.1667 13.5287 21.2186C13.0102 20.2558 12.751 19.1448 12.751 17.8857C12.751 16.6414 13.0176 15.5452 13.5509 14.5972C14.099 13.6343 14.8396 12.9011 15.7729 12.3974C16.7061 11.879 17.7504 11.6197 18.9058 11.6197C20.0612 11.6197 21.1056 11.879 22.0388 12.3974C22.972 12.9011 23.7053 13.6269 24.2385 14.575C24.7866 15.523 25.0607 16.6266 25.0607 17.8857C25.0607 19.1448 24.7792 20.2558 24.2163 21.2186C23.6682 22.1667 22.9202 22.8999 21.9721 23.4184C21.0241 23.9368 19.9724 24.1961 18.8169 24.1961ZM18.8169 22.4185C19.5428 22.4185 20.2242 22.2481 20.8612 21.9074C21.4981 21.5667 22.0092 21.0557 22.3943 20.3743C22.7943 19.6929 22.9942 18.8634 22.9942 17.8857C22.9942 16.908 22.8017 16.0785 22.4165 15.3971C22.0314 14.7157 21.5277 14.212 20.9056 13.8862C20.2834 13.5454 19.6094 13.3751 18.8836 13.3751C18.143 13.3751 17.4615 13.5454 16.8394 13.8862C16.2321 14.212 15.7432 14.7157 15.3729 15.3971C15.0026 16.0785 14.8174 16.908 14.8174 17.8857C14.8174 18.8782 14.9952 19.7151 15.3507 20.3965C15.721 21.0779 16.2098 21.589 16.8172 21.9297C17.4245 22.2556 18.0911 22.4185 18.8169 22.4185ZM29.7412 13.4862V20.6631C29.7412 21.2557 29.8671 21.6778 30.1189 21.9297C30.3708 22.1667 30.8078 22.2852 31.4299 22.2852H32.9186V23.9961H31.0966C29.9708 23.9961 29.1265 23.7369 28.5636 23.2184C28.0007 22.6999 27.7192 21.8482 27.7192 20.6631V13.4862H26.1416V11.8197H27.7192V8.75341H29.7412V11.8197H32.9186V13.4862H29.7412ZM34.1686 17.8635C34.1686 16.6192 34.4205 15.5304 34.9241 14.5972C35.4278 13.6491 36.1166 12.9159 36.9905 12.3974C37.8793 11.879 38.8644 11.6197 39.9458 11.6197C41.0123 11.6197 41.9381 11.8493 42.7232 12.3086C43.5083 12.7678 44.0934 13.3455 44.4786 14.0417V11.8197H46.5228V23.9961H44.4786V21.7297C44.0786 22.4407 43.4787 23.0332 42.6788 23.5073C41.8937 23.9665 40.9753 24.1961 39.9235 24.1961C38.8422 24.1961 37.8645 23.9294 36.9905 23.3962C36.1166 22.8629 35.4278 22.1148 34.9241 21.152C34.4205 20.1891 34.1686 19.093 34.1686 17.8635ZM44.4786 17.8857C44.4786 16.9673 44.2934 16.1674 43.9231 15.486C43.5527 14.8046 43.0491 14.2861 42.4121 13.9306C41.79 13.5603 41.1012 13.3751 40.3457 13.3751C39.5902 13.3751 38.9014 13.5529 38.2793 13.9084C37.6571 14.2639 37.1609 14.7823 36.7906 15.4637C36.4202 16.1451 36.2351 16.9451 36.2351 17.8635C36.2351 18.7967 36.4202 19.6114 36.7906 20.3076C37.1609 20.989 37.6571 21.5149 38.2793 21.8852C38.9014 22.2407 39.5902 22.4185 40.3457 22.4185C41.1012 22.4185 41.79 22.2407 42.4121 21.8852C43.0491 21.5149 43.5527 20.989 43.9231 20.3076C44.2934 19.6114 44.4786 18.8041 44.4786 17.8857ZM51.5173 7.55355V23.9961H49.4953V7.55355H51.5173ZM62.4649 13.4862V20.6631C62.4649 21.2557 62.5908 21.6778 62.8426 21.9297C63.0944 22.1667 63.5314 22.2852 64.1535 22.2852H65.6423V23.9961H63.8203C62.6945 23.9961 61.8501 23.7369 61.2872 23.2184C60.7243 22.6999 60.4429 21.8482 60.4429 20.6631V13.4862H58.8653V11.8197H60.4429V8.75341H62.4649V11.8197H65.6423V13.4862H62.4649ZM69.6698 13.7973C70.0253 13.1011 70.5289 12.5604 71.1807 12.1752C71.8473 11.7901 72.6546 11.5975 73.6026 11.5975V13.6862H73.0694C70.803 13.6862 69.6698 14.9157 69.6698 17.3746V23.9961H67.6478V11.8197H69.6698V13.7973ZM74.7369 17.8635C74.7369 16.6192 74.9887 15.5304 75.4923 14.5972C75.996 13.6491 76.6848 12.9159 77.5588 12.3974C78.4476 11.879 79.4326 11.6197 80.514 11.6197C81.5805 11.6197 82.5063 11.8493 83.2914 12.3086C84.0765 12.7678 84.6617 13.3455 85.0468 14.0417V11.8197H87.091V23.9961H85.0468V21.7297C84.6468 22.4407 84.0469 23.0332 83.247 23.5073C82.4619 23.9665 81.5435 24.1961 80.4918 24.1961C79.4104 24.1961 78.4327 23.9294 77.5588 23.3962C76.6848 22.8629 75.996 22.1148 75.4923 21.152C74.9887 20.1891 74.7369 19.093 74.7369 17.8635ZM85.0468 17.8857C85.0468 16.9673 84.8616 16.1674 84.4913 15.486C84.121 14.8046 83.6173 14.2861 82.9804 13.9306C82.3582 13.5603 81.6694 13.3751 80.9139 13.3751C80.1585 13.3751 79.4697 13.5529 78.8475 13.9084C78.2254 14.2639 77.7291 14.7823 77.3588 15.4637C76.9885 16.1451 76.8033 16.9451 76.8033 17.8635C76.8033 18.7967 76.9885 19.6114 77.3588 20.3076C77.7291 20.989 78.2254 21.5149 78.8475 21.8852C79.4697 22.2407 80.1585 22.4185 80.9139 22.4185C81.6694 22.4185 82.3582 22.2407 82.9804 21.8852C83.6173 21.5149 84.121 20.989 84.4913 20.3076C84.8616 19.6114 85.0468 18.8041 85.0468 17.8857ZM95.9962 11.5975C97.4775 11.5975 98.6774 12.0493 99.5958 12.9529C100.514 13.8417 100.973 15.1305 100.973 16.8191V23.9961H98.9737V17.108C98.9737 15.8933 98.67 14.9675 98.0627 14.3305C97.4553 13.6788 96.6258 13.3529 95.574 13.3529C94.5075 13.3529 93.6558 13.6862 93.0188 14.3528C92.3966 15.0194 92.0856 15.9896 92.0856 17.2635V23.9961H90.0636V11.8197H92.0856V13.5529C92.4855 12.9307 93.0262 12.4493 93.7076 12.1086C94.4038 11.7679 95.1667 11.5975 95.9962 11.5975ZM108.143 24.1961C107.209 24.1961 106.372 24.0405 105.632 23.7295C104.891 23.4036 104.306 22.9592 103.876 22.3963C103.447 21.8186 103.21 21.1594 103.165 20.4187H105.254C105.313 21.0261 105.595 21.5223 106.098 21.9074C106.617 22.2926 107.291 22.4852 108.12 22.4852C108.891 22.4852 109.498 22.3148 109.942 21.9741C110.387 21.6334 110.609 21.2038 110.609 20.6854C110.609 20.1521 110.372 19.7595 109.898 19.5077C109.424 19.2411 108.691 18.9819 107.698 18.73C106.795 18.493 106.054 18.256 105.476 18.019C104.913 17.7672 104.424 17.4043 104.01 16.9302C103.61 16.4414 103.41 15.8044 103.41 15.0194C103.41 14.3972 103.595 13.8269 103.965 13.3084C104.336 12.79 104.861 12.3826 105.543 12.0864C106.224 11.7753 107.002 11.6197 107.876 11.6197C109.224 11.6197 110.313 11.9604 111.142 12.6418C111.972 13.3233 112.416 14.2565 112.475 15.4415H110.453C110.409 14.8046 110.15 14.2935 109.676 13.9084C109.217 13.5232 108.594 13.3307 107.809 13.3307C107.083 13.3307 106.506 13.4862 106.076 13.7973C105.647 14.1083 105.432 14.5157 105.432 15.0194C105.432 15.4193 105.558 15.7526 105.809 16.0192C106.076 16.2711 106.402 16.4784 106.787 16.6414C107.187 16.7895 107.735 16.9599 108.431 17.1524C109.305 17.3894 110.016 17.6265 110.565 17.8635C111.113 18.0857 111.579 18.4264 111.964 18.8856C112.364 19.3448 112.572 19.9447 112.586 20.6854C112.586 21.352 112.401 21.9519 112.031 22.4852C111.661 23.0184 111.135 23.4406 110.453 23.7517C109.787 24.0479 109.017 24.1961 108.143 24.1961ZM114.241 17.8635C114.241 16.6192 114.493 15.5304 114.996 14.5972C115.5 13.6491 116.189 12.9159 117.063 12.3974C117.952 11.879 118.937 11.6197 120.018 11.6197C121.085 11.6197 122.01 11.8493 122.796 12.3086C123.581 12.7678 124.166 13.3455 124.551 14.0417V11.8197H126.595V23.9961H124.551V21.7297C124.151 22.4407 123.551 23.0332 122.751 23.5073C121.966 23.9665 121.048 24.1961 119.996 24.1961C118.915 24.1961 117.937 23.9294 117.063 23.3962C116.189 22.8629 115.5 22.1148 114.996 21.152C114.493 20.1891 114.241 19.093 114.241 17.8635ZM124.551 17.8857C124.551 16.9673 124.366 16.1674 123.995 15.486C123.625 14.8046 123.121 14.2861 122.484 13.9306C121.862 13.5603 121.174 13.3751 120.418 13.3751C119.663 13.3751 118.974 13.5529 118.352 13.9084C117.729 14.2639 117.233 14.7823 116.863 15.4637C116.493 16.1451 116.307 16.9451 116.307 17.8635C116.307 18.7967 116.493 19.6114 116.863 20.3076C117.233 20.989 117.729 21.5149 118.352 21.8852C118.974 22.2407 119.663 22.4185 120.418 22.4185C121.174 22.4185 121.862 22.2407 122.484 21.8852C123.121 21.5149 123.625 20.989 123.995 20.3076C124.366 19.6114 124.551 18.8041 124.551 17.8857ZM128.812 17.8857C128.812 16.6266 129.064 15.5304 129.568 14.5972C130.071 13.6491 130.768 12.9159 131.656 12.3974C132.56 11.879 133.589 11.6197 134.745 11.6197C136.241 11.6197 137.47 11.9827 138.433 12.7085C139.411 13.4344 140.055 14.4416 140.366 15.7304H138.189C137.982 14.9897 137.574 14.4046 136.967 13.975C136.374 13.5454 135.634 13.3307 134.745 13.3307C133.589 13.3307 132.656 13.7306 131.945 14.5305C131.234 15.3156 130.879 16.434 130.879 17.8857C130.879 19.3522 131.234 20.4854 131.945 21.2853C132.656 22.0852 133.589 22.4852 134.745 22.4852C135.634 22.4852 136.374 22.2778 136.967 21.863C137.559 21.4482 137.967 20.8557 138.189 20.0854H140.366C140.041 21.3297 139.389 22.3296 138.411 23.0851C137.433 23.8257 136.211 24.1961 134.745 24.1961C133.589 24.1961 132.56 23.9368 131.656 23.4184C130.768 22.8999 130.071 22.1667 129.568 21.2186C129.064 20.2706 128.812 19.1596 128.812 17.8857ZM145.086 13.4862V20.6631C145.086 21.2557 145.212 21.6778 145.464 21.9297C145.716 22.1667 146.153 22.2852 146.775 22.2852H148.264V23.9961H146.442C145.316 23.9961 144.472 23.7369 143.909 23.2184C143.346 22.6999 143.064 21.8482 143.064 20.6631V13.4862H141.487V11.8197H143.064V8.75341H145.086V11.8197H148.264V13.4862H145.086ZM151.314 9.84217C150.928 9.84217 150.603 9.70886 150.336 9.44222C150.069 9.17558 149.936 8.8497 149.936 8.46455C149.936 8.07941 150.069 7.75353 150.336 7.48689C150.603 7.22025 150.928 7.08694 151.314 7.08694C151.684 7.08694 151.995 7.22025 152.247 7.48689C152.513 7.75353 152.647 8.07941 152.647 8.46455C152.647 8.8497 152.513 9.17558 152.247 9.44222C151.995 9.70886 151.684 9.84217 151.314 9.84217ZM152.291 11.8197V23.9961H150.269V11.8197H152.291ZM160.604 24.1961C159.463 24.1961 158.426 23.9368 157.493 23.4184C156.574 22.8999 155.849 22.1667 155.315 21.2186C154.797 20.2558 154.538 19.1448 154.538 17.8857C154.538 16.6414 154.804 15.5452 155.337 14.5972C155.886 13.6343 156.626 12.9011 157.559 12.3974C158.493 11.879 159.537 11.6197 160.692 11.6197C161.848 11.6197 162.892 11.879 163.825 12.3974C164.759 12.9011 165.492 13.6269 166.025 14.575C166.573 15.523 166.847 16.6266 166.847 17.8857C166.847 19.1448 166.566 20.2558 166.003 21.2186C165.455 22.1667 164.707 22.8999 163.759 23.4184C162.811 23.9368 161.759 24.1961 160.604 24.1961ZM160.604 22.4185C161.329 22.4185 162.011 22.2481 162.648 21.9074C163.285 21.5667 163.796 21.0557 164.181 20.3743C164.581 19.6929 164.781 18.8634 164.781 17.8857C164.781 16.908 164.588 16.0785 164.203 15.3971C163.818 14.7157 163.314 14.212 162.692 13.8862C162.07 13.5454 161.396 13.3751 160.67 13.3751C159.93 13.3751 159.248 13.5454 158.626 13.8862C158.019 14.212 157.53 14.7157 157.159 15.3971C156.789 16.0785 156.604 16.908 156.604 17.8857C156.604 18.8782 156.782 19.7151 157.137 20.3965C157.508 21.0779 157.996 21.589 158.604 21.9297C159.211 22.2556 159.878 22.4185 160.604 22.4185ZM174.994 11.5975C176.475 11.5975 177.675 12.0493 178.594 12.9529C179.512 13.8417 179.971 15.1305 179.971 16.8191V23.9961H177.971V17.108C177.971 15.8933 177.668 14.9675 177.06 14.3305C176.453 13.6788 175.624 13.3529 174.572 13.3529C173.505 13.3529 172.654 13.6862 172.017 14.3528C171.394 15.0194 171.083 15.9896 171.083 17.2635V23.9961H169.061V11.8197H171.083V13.5529C171.483 12.9307 172.024 12.4493 172.705 12.1086C173.402 11.7679 174.165 11.5975 174.994 11.5975ZM187.14 24.1961C186.207 24.1961 185.37 24.0405 184.63 23.7295C183.889 23.4036 183.304 22.9592 182.874 22.3963C182.445 21.8186 182.208 21.1594 182.163 20.4187H184.252C184.311 21.0261 184.593 21.5223 185.096 21.9074C185.615 22.2926 186.289 22.4852 187.118 22.4852C187.888 22.4852 188.496 22.3148 188.94 21.9741C189.385 21.6334 189.607 21.2038 189.607 20.6854C189.607 20.1521 189.37 19.7595 188.896 19.5077C188.422 19.2411 187.688 18.9819 186.696 18.73C185.792 18.493 185.052 18.256 184.474 18.019C183.911 17.7672 183.422 17.4043 183.008 16.9302C182.608 16.4414 182.408 15.8044 182.408 15.0194C182.408 14.3972 182.593 13.8269 182.963 13.3084C183.333 12.79 183.859 12.3826 184.541 12.0864C185.222 11.7753 186 11.6197 186.874 11.6197C188.222 11.6197 189.31 11.9604 190.14 12.6418C190.97 13.3233 191.414 14.2565 191.473 15.4415H189.451C189.407 14.8046 189.148 14.2935 188.674 13.9084C188.214 13.5232 187.592 13.3307 186.807 13.3307C186.081 13.3307 185.504 13.4862 185.074 13.7973C184.644 14.1083 184.43 14.5157 184.43 15.0194C184.43 15.4193 184.555 15.7526 184.807 16.0192C185.074 16.2711 185.4 16.4784 185.785 16.6414C186.185 16.7895 186.733 16.9599 187.429 17.1524C188.303 17.3894 189.014 17.6265 189.562 17.8635C190.11 18.0857 190.577 18.4264 190.962 18.8856C191.362 19.3448 191.569 19.9447 191.584 20.6854C191.584 21.352 191.399 21.9519 191.029 22.4852C190.658 23.0184 190.133 23.4406 189.451 23.7517C188.785 24.0479 188.014 24.1961 187.14 24.1961Z" fill="#1C1E1F"/>
<path d="M18.0122 71.7108V75.1949H2.9251L2.24074 72.9551C3.17396 72.0427 3.85833 71.1198 4.29383 70.1866C4.72934 69.2326 4.94709 68.0505 4.94709 66.6403C4.94709 66.4952 4.92635 66.2567 4.88488 65.9248H1.43194V62.9385H4.01387C3.5991 61.5283 3.39172 60.2529 3.39172 59.1123C3.39172 57.7021 3.69242 56.4889 4.29383 55.4727C4.91598 54.4358 5.77663 53.6477 6.87576 53.1085C7.97489 52.5694 9.23993 52.2998 10.6709 52.2998C12.9728 52.2998 14.7252 52.9426 15.928 54.2284C17.1516 55.4935 17.7945 57.1214 17.8567 59.1123H13.8438C13.8231 58.1169 13.5639 57.3392 13.0662 56.7792C12.5684 56.1986 11.7907 55.9082 10.7331 55.9082C9.75839 55.9082 8.9807 56.1986 8.40003 56.7792C7.84009 57.3599 7.56012 58.2517 7.56012 59.4545C7.56012 59.9937 7.61197 60.5329 7.71566 61.0721C7.84009 61.5905 8.01637 62.2127 8.24449 62.9385H14.0927V65.9248H9.02218C9.06365 66.2567 9.08439 66.5055 9.08439 66.6714C9.08439 67.5632 8.90812 68.4549 8.55556 69.3467C8.22375 70.2177 7.70529 71.0057 7.00019 71.7108H18.0122ZM44.0672 55.7216L35.7926 75.1016H31.3754L39.7122 56.2193H29.0734V52.4864H44.0672V55.7216ZM51.9328 70.5288L48.2932 79.27H45.4935L47.5155 70.5288H51.9328ZM69.0079 55.7216L60.7333 75.1016H56.316L64.6529 56.2193H54.0141V52.4864H69.0079V55.7216ZM72.9851 70.1866C74.9759 68.5275 76.5624 67.1484 77.7445 66.0493C78.9266 64.9294 79.9117 63.7681 80.6997 62.5652C81.4878 61.3624 81.8818 60.1803 81.8818 59.019C81.8818 57.9613 81.6329 57.1318 81.1352 56.5304C80.6375 55.929 79.8702 55.6283 78.8333 55.6283C77.7964 55.6283 76.9979 55.9808 76.438 56.6859C75.8781 57.3703 75.5877 58.3139 75.567 59.5167H71.3364C71.4193 57.0281 72.1555 55.1409 73.545 53.8551C74.9552 52.5694 76.7387 51.9265 78.8955 51.9265C81.2597 51.9265 83.0743 52.559 84.3393 53.824C85.6043 55.0683 86.2369 56.717 86.2369 58.7701C86.2369 60.3877 85.8014 61.9327 84.9303 63.4051C84.0593 64.8776 83.0639 66.1633 81.944 67.2625C80.8242 68.3409 79.3621 69.6474 77.5579 71.182H86.7346V74.7905H71.3675V71.5553L72.9851 70.1866ZM89.4788 63.4674C89.4788 59.8796 90.1217 57.0696 91.4075 55.0372C92.714 53.0049 94.8708 51.9887 97.8779 51.9887C100.885 51.9887 103.031 53.0049 104.317 55.0372C105.624 57.0696 106.277 59.8796 106.277 63.4674C106.277 67.0758 105.624 69.9066 104.317 71.9597C103.031 74.0128 100.885 75.0393 97.8779 75.0393C94.8708 75.0393 92.714 74.0128 91.4075 71.9597C90.1217 69.9066 89.4788 67.0758 89.4788 63.4674ZM101.984 63.4674C101.984 61.9327 101.88 60.6469 101.673 59.61C101.486 58.5524 101.092 57.6917 100.491 57.0281C99.9102 56.3645 99.0392 56.0327 97.8779 56.0327C96.7165 56.0327 95.8351 56.3645 95.2337 57.0281C94.6531 57.6917 94.259 58.5524 94.0516 59.61C93.865 60.6469 93.7717 61.9327 93.7717 63.4674C93.7717 65.0435 93.865 66.3707 94.0516 67.4491C94.2383 68.5068 94.6323 69.3674 95.2337 70.031C95.8351 70.6739 96.7165 70.9954 97.8779 70.9954C99.0392 70.9954 99.9206 70.6739 100.522 70.031C101.123 69.3674 101.517 68.5068 101.704 67.4491C101.891 66.3707 101.984 65.0435 101.984 63.4674ZM112.016 75.3193C111.228 75.3193 110.574 75.0808 110.056 74.6038C109.558 74.1061 109.309 73.4943 109.309 72.7685C109.309 72.0427 109.558 71.4412 110.056 70.9643C110.574 70.4665 111.228 70.2177 112.016 70.2177C112.783 70.2177 113.416 70.4665 113.913 70.9643C114.411 71.4412 114.66 72.0427 114.66 72.7685C114.66 73.4943 114.411 74.1061 113.913 74.6038C113.416 75.0808 112.783 75.3193 112.016 75.3193ZM129.429 58.0858C129.221 57.2147 128.858 56.5615 128.34 56.126C127.842 55.6905 127.116 55.4727 126.162 55.4727C124.731 55.4727 123.674 56.0534 122.989 57.2147C122.326 58.3553 121.984 60.2218 121.963 62.8141C122.461 61.9846 123.186 61.3417 124.14 60.8854C125.094 60.4084 126.131 60.17 127.251 60.17C128.599 60.17 129.792 60.4603 130.829 61.041C131.865 61.6216 132.674 62.4719 133.255 63.5918C133.836 64.6909 134.126 66.0182 134.126 67.5735C134.126 69.046 133.825 70.3629 133.224 71.5242C132.643 72.6648 131.782 73.5566 130.642 74.1994C129.501 74.8423 128.143 75.1638 126.567 75.1638C124.41 75.1638 122.709 74.6868 121.465 73.7328C120.242 72.7789 119.381 71.4516 118.883 69.7511C118.406 68.0298 118.168 65.9145 118.168 63.4051C118.168 59.61 118.821 56.7481 120.128 54.8195C121.434 52.8701 123.498 51.8954 126.318 51.8954C128.495 51.8954 130.186 52.4864 131.388 53.6685C132.591 54.8506 133.286 56.323 133.473 58.0858H129.429ZM126.256 63.7473C125.157 63.7473 124.234 64.0688 123.487 64.7117C122.741 65.3545 122.367 66.2878 122.367 67.5113C122.367 68.7349 122.709 69.6992 123.394 70.4043C124.099 71.1094 125.084 71.462 126.349 71.462C127.469 71.462 128.35 71.1198 128.993 70.4354C129.657 69.7511 129.989 68.8282 129.989 67.6669C129.989 66.464 129.667 65.5101 129.024 64.805C128.402 64.0999 127.479 63.7473 126.256 63.7473ZM137.381 70.6843V67.2625L147.553 52.7042H152.624V66.8892H155.361V70.6843H152.624V75.1016H148.269V70.6843H137.381ZM148.549 57.3703L142.172 66.8892H148.549V57.3703Z" fill="#4F46E5"/>
<rect x="705.138" y="3.88362" width="187.756" height="51.1052" rx="8.33237" stroke="#A0A0A2" stroke-width="1.11098"/>
<path d="M721.647 34.5725H727.069V36.2168H719.625V20.7297H721.647V34.5725ZM728.46 30.0842C728.46 28.8399 728.712 27.7511 729.216 26.8179C729.72 25.8698 730.408 25.1366 731.282 24.6181C732.171 24.0997 733.156 23.8404 734.238 23.8404C735.304 23.8404 736.23 24.0701 737.015 24.5293C737.8 24.9885 738.385 25.5662 738.77 26.2624V24.0404H740.815V36.2168H738.77V33.9504C738.37 34.6614 737.77 35.2539 736.971 35.728C736.185 36.1872 735.267 36.4168 734.215 36.4168C733.134 36.4168 732.156 36.1501 731.282 35.6169C730.408 35.0836 729.72 34.3355 729.216 33.3727C728.712 32.4098 728.46 31.3137 728.46 30.0842ZM738.77 30.1064C738.77 29.188 738.585 28.3881 738.215 27.7067C737.845 27.0253 737.341 26.5068 736.704 26.1513C736.082 25.781 735.393 25.5958 734.637 25.5958C733.882 25.5958 733.193 25.7736 732.571 26.1291C731.949 26.4846 731.453 27.003 731.082 27.6844C730.712 28.3659 730.527 29.1658 730.527 30.0842C730.527 31.0174 730.712 31.8321 731.082 32.5283C731.453 33.2097 731.949 33.7356 732.571 34.1059C733.193 34.4614 733.882 34.6392 734.637 34.6392C735.393 34.6392 736.082 34.4614 736.704 34.1059C737.341 33.7356 737.845 33.2097 738.215 32.5283C738.585 31.8321 738.77 31.0248 738.77 30.1064ZM748.542 36.4168C747.609 36.4168 746.772 36.2612 746.031 35.9502C745.291 35.6243 744.706 35.1799 744.276 34.617C743.846 34.0393 743.609 33.3801 743.565 32.6394H745.654C745.713 33.2468 745.994 33.743 746.498 34.1281C747.016 34.5133 747.69 34.7059 748.52 34.7059C749.29 34.7059 749.898 34.5355 750.342 34.1948C750.786 33.8541 751.009 33.4245 751.009 32.9061C751.009 32.3728 750.771 31.9802 750.297 31.7284C749.823 31.4618 749.09 31.2026 748.098 30.9507C747.194 30.7137 746.453 30.4767 745.876 30.2397C745.313 29.9879 744.824 29.625 744.409 29.1509C744.009 28.6621 743.809 28.0252 743.809 27.2401C743.809 26.6179 743.994 26.0476 744.365 25.5291C744.735 25.0107 745.261 24.6033 745.942 24.3071C746.624 23.996 747.402 23.8404 748.275 23.8404C749.623 23.8404 750.712 24.1812 751.542 24.8626C752.371 25.544 752.816 26.4772 752.875 27.6622H750.853C750.809 27.0253 750.549 26.5142 750.075 26.1291C749.616 25.7439 748.994 25.5514 748.209 25.5514C747.483 25.5514 746.905 25.7069 746.476 26.018C746.046 26.3291 745.831 26.7364 745.831 27.2401C745.831 27.64 745.957 27.9733 746.209 28.2399C746.476 28.4918 746.802 28.6991 747.187 28.8621C747.587 29.0102 748.135 29.1806 748.831 29.3731C749.705 29.6102 750.416 29.8472 750.964 30.0842C751.512 30.3064 751.979 30.6471 752.364 31.1063C752.764 31.5655 752.971 32.1654 752.986 32.9061C752.986 33.5727 752.801 34.1726 752.431 34.7059C752.06 35.2391 751.534 35.6613 750.853 35.9724C750.186 36.2686 749.416 36.4168 748.542 36.4168ZM758.307 25.7069V32.8838C758.307 33.4764 758.433 33.8985 758.685 34.1504C758.936 34.3874 759.373 34.5059 759.995 34.5059H761.484V36.2168H759.662C758.536 36.2168 757.692 35.9576 757.129 35.4391C756.566 34.9207 756.285 34.0689 756.285 32.8838V25.7069H754.707V24.0404H756.285V20.9741H758.307V24.0404H761.484V25.7069H758.307ZM779.412 21.7296L773.235 36.2168H771.191L777.457 21.9296H768.88V20.1964H779.412V21.7296ZM787.156 30.0842C787.156 28.8399 787.408 27.7511 787.911 26.8179C788.415 25.8698 789.104 25.1366 789.978 24.6181C790.867 24.0997 791.859 23.8404 792.955 23.8404C793.903 23.8404 794.785 24.0626 795.599 24.507C796.414 24.9366 797.036 25.5069 797.466 26.218V19.7743H799.51V36.2168H797.466V33.9282C797.066 34.654 796.473 35.2539 795.688 35.728C794.903 36.1872 793.985 36.4168 792.933 36.4168C791.852 36.4168 790.867 36.1501 789.978 35.6169C789.104 35.0836 788.415 34.3355 787.911 33.3727C787.408 32.4098 787.156 31.3137 787.156 30.0842ZM797.466 30.1064C797.466 29.188 797.281 28.3881 796.91 27.7067C796.54 27.0253 796.036 26.5068 795.399 26.1513C794.777 25.781 794.088 25.5958 793.333 25.5958C792.577 25.5958 791.889 25.7736 791.267 26.1291C790.644 26.4846 790.148 27.003 789.778 27.6844C789.407 28.3659 789.222 29.1658 789.222 30.0842C789.222 31.0174 789.407 31.8321 789.778 32.5283C790.148 33.2097 790.644 33.7356 791.267 34.1059C791.889 34.4614 792.577 34.6392 793.333 34.6392C794.088 34.6392 794.777 34.4614 795.399 34.1059C796.036 33.7356 796.54 33.2097 796.91 32.5283C797.281 31.8321 797.466 31.0248 797.466 30.1064ZM802.172 30.0842C802.172 28.8399 802.423 27.7511 802.927 26.8179C803.431 25.8698 804.119 25.1366 804.993 24.6181C805.882 24.0997 806.867 23.8404 807.949 23.8404C809.015 23.8404 809.941 24.0701 810.726 24.5293C811.511 24.9885 812.096 25.5662 812.481 26.2624V24.0404H814.526V36.2168H812.481V33.9504C812.081 34.6614 811.482 35.2539 810.682 35.728C809.897 36.1872 808.978 36.4168 807.926 36.4168C806.845 36.4168 805.867 36.1501 804.993 35.6169C804.119 35.0836 803.431 34.3355 802.927 33.3727C802.423 32.4098 802.172 31.3137 802.172 30.0842ZM812.481 30.1064C812.481 29.188 812.296 28.3881 811.926 27.7067C811.556 27.0253 811.052 26.5068 810.415 26.1513C809.793 25.781 809.104 25.5958 808.349 25.5958C807.593 25.5958 806.904 25.7736 806.282 26.1291C805.66 26.4846 805.164 27.003 804.793 27.6844C804.423 28.3659 804.238 29.1658 804.238 30.0842C804.238 31.0174 804.423 31.8321 804.793 32.5283C805.164 33.2097 805.66 33.7356 806.282 34.1059C806.904 34.4614 807.593 34.6392 808.349 34.6392C809.104 34.6392 809.793 34.4614 810.415 34.1059C811.052 33.7356 811.556 33.2097 811.926 32.5283C812.296 31.8321 812.481 31.0248 812.481 30.1064ZM828.43 24.0404L821.098 41.9495H819.009L821.409 36.0835L816.498 24.0404H818.743L822.564 33.906L826.342 24.0404H828.43ZM834.773 36.4168C833.84 36.4168 833.003 36.2612 832.263 35.9502C831.522 35.6243 830.937 35.1799 830.507 34.617C830.078 34.0393 829.841 33.3801 829.796 32.6394H831.885C831.944 33.2468 832.226 33.743 832.729 34.1281C833.248 34.5133 833.922 34.7059 834.751 34.7059C835.522 34.7059 836.129 34.5355 836.573 34.1948C837.018 33.8541 837.24 33.4245 837.24 32.9061C837.24 32.3728 837.003 31.9802 836.529 31.7284C836.055 31.4618 835.322 31.2026 834.329 30.9507C833.425 30.7137 832.685 30.4767 832.107 30.2397C831.544 29.9879 831.055 29.625 830.641 29.1509C830.241 28.6621 830.041 28.0252 830.041 27.2401C830.041 26.6179 830.226 26.0476 830.596 25.5291C830.967 25.0107 831.492 24.6033 832.174 24.3071C832.855 23.996 833.633 23.8404 834.507 23.8404C835.855 23.8404 836.944 24.1812 837.773 24.8626C838.603 25.544 839.047 26.4772 839.106 27.6622H837.084C837.04 27.0253 836.781 26.5142 836.307 26.1291C835.847 25.7439 835.225 25.5514 834.44 25.5514C833.714 25.5514 833.137 25.7069 832.707 26.018C832.277 26.3291 832.063 26.7364 832.063 27.2401C832.063 27.64 832.189 27.9733 832.44 28.2399C832.707 28.4918 833.033 28.6991 833.418 28.8621C833.818 29.0102 834.366 29.1806 835.062 29.3731C835.936 29.6102 836.647 29.8472 837.195 30.0842C837.743 30.3064 838.21 30.6471 838.595 31.1063C838.995 31.5655 839.203 32.1654 839.217 32.9061C839.217 33.5727 839.032 34.1726 838.662 34.7059C838.292 35.2391 837.766 35.6613 837.084 35.9724C836.418 36.2686 835.647 36.4168 834.773 36.4168Z" fill="#424448"/>
<path d="M870.872 24.9922H857.14C856.165 24.9922 855.663 26.1575 856.332 26.866L863.198 34.1358C863.637 34.6 864.375 34.6 864.814 34.1358L871.679 26.866C872.349 26.1575 871.846 24.9922 870.872 24.9922Z" fill="#A0A0A2" stroke="#A0A0A2" stroke-width="1.11098"/>
<path d="M18.9964 150.114V151.802H9.08646L8.73095 150.647C9.3531 149.951 9.81231 149.284 10.1086 148.647C10.4196 148.01 10.5752 147.225 10.5752 146.292C10.5752 145.907 10.5085 145.447 10.3752 144.914H7.86438V143.492H9.88637C9.6938 142.974 9.54567 142.485 9.44198 142.026C9.33829 141.552 9.28644 141.033 9.28644 140.47C9.28644 139.522 9.48642 138.7 9.88637 138.004C10.3011 137.293 10.8714 136.745 11.5973 136.36C12.3379 135.974 13.1823 135.782 14.1303 135.782C15.6413 135.782 16.8041 136.219 17.6188 137.093C18.4335 137.967 18.8705 139.07 18.9298 140.404H17.0633C17.0337 139.53 16.7671 138.826 16.2634 138.293C15.7746 137.759 15.0636 137.493 14.1303 137.493C13.2712 137.493 12.5675 137.745 12.0195 138.248C11.4862 138.752 11.2196 139.522 11.2196 140.559C11.2196 141.048 11.2714 141.515 11.3751 141.959C11.4788 142.389 11.6343 142.9 11.8417 143.492H16.1523V144.914H12.2861C12.4194 145.447 12.4861 145.907 12.4861 146.292C12.4861 147.699 11.9602 148.973 10.9085 150.114H18.9964ZM21.7987 150.136C23.68 148.625 25.1539 147.388 26.2204 146.425C27.287 145.447 28.1832 144.433 28.909 143.381C29.6497 142.314 30.02 141.27 30.02 140.248C30.02 139.285 29.783 138.53 29.309 137.982C28.8497 137.419 28.1017 137.137 27.0648 137.137C26.0575 137.137 25.2724 137.456 24.7095 138.093C24.1614 138.715 23.8651 139.552 23.8207 140.604H21.8654C21.9246 138.944 22.4283 137.663 23.3763 136.76C24.3243 135.856 25.5464 135.404 27.0425 135.404C28.5683 135.404 29.7756 135.826 30.6644 136.671C31.568 137.515 32.0198 138.678 32.0198 140.159C32.0198 141.389 31.6494 142.589 30.9088 143.759C30.1829 144.914 29.3534 145.936 28.4202 146.825C27.4869 147.699 26.2945 148.721 24.8428 149.891H32.4864V151.58H21.7987V150.136ZM34.8238 143.559C34.8238 141.011 35.2385 139.026 36.0681 137.604C36.8976 136.167 38.3493 135.449 40.4231 135.449C42.4821 135.449 43.9264 136.167 44.756 137.604C45.5855 139.026 46.0003 141.011 46.0003 143.559C46.0003 146.151 45.5855 148.166 44.756 149.603C43.9264 151.039 42.4821 151.758 40.4231 151.758C38.3493 151.758 36.8976 151.039 36.0681 149.603C35.2385 148.166 34.8238 146.151 34.8238 143.559ZM44.0005 143.559C44.0005 142.27 43.9116 141.181 43.7338 140.292C43.5709 139.389 43.2228 138.663 42.6895 138.115C42.1711 137.567 41.4156 137.293 40.4231 137.293C39.4158 137.293 38.6455 137.567 38.1123 138.115C37.5938 138.663 37.2457 139.389 37.068 140.292C36.905 141.181 36.8235 142.27 36.8235 143.559C36.8235 144.892 36.905 146.01 37.068 146.914C37.2457 147.818 37.5938 148.543 38.1123 149.091C38.6455 149.64 39.4158 149.914 40.4231 149.914C41.4156 149.914 42.1711 149.64 42.6895 149.091C43.2228 148.543 43.5709 147.818 43.7338 146.914C43.9116 146.01 44.0005 144.892 44.0005 143.559ZM55.9087 151.758L51.1314 146.381V151.758H49.1094V135.315H51.1314V144.981L55.8198 139.581H58.6417L52.909 145.647L58.6639 151.758H55.9087Z" fill="#33313D"/>
<path d="M18.9964 225.66V227.349H9.08646L8.73095 226.194C9.3531 225.497 9.81231 224.831 10.1086 224.194C10.4196 223.557 10.5752 222.772 10.5752 221.839C10.5752 221.454 10.5085 220.994 10.3752 220.461H7.86438V219.039H9.88637C9.6938 218.521 9.54567 218.032 9.44198 217.572C9.33829 217.098 9.28644 216.58 9.28644 216.017C9.28644 215.069 9.48642 214.247 9.88637 213.551C10.3011 212.84 10.8714 212.292 11.5973 211.906C12.3379 211.521 13.1823 211.329 14.1303 211.329C15.6413 211.329 16.8041 211.766 17.6188 212.64C18.4335 213.514 18.8705 214.617 18.9298 215.95H17.0633C17.0337 215.076 16.7671 214.373 16.2634 213.84C15.7746 213.306 15.0636 213.04 14.1303 213.04C13.2712 213.04 12.5675 213.291 12.0195 213.795C11.4862 214.299 11.2196 215.069 11.2196 216.106C11.2196 216.595 11.2714 217.061 11.3751 217.506C11.4788 217.935 11.6343 218.446 11.8417 219.039H16.1523V220.461H12.2861C12.4194 220.994 12.4861 221.454 12.4861 221.839C12.4861 223.246 11.9602 224.52 10.9085 225.66H18.9964ZM21.5099 213.084V211.24H25.6872V227.305H23.6429V213.084H21.5099ZM39.4036 212.995H31.6045V218.061C31.9452 217.587 32.4489 217.202 33.1155 216.906C33.782 216.595 34.5005 216.439 35.2708 216.439C36.5003 216.439 37.5001 216.699 38.2704 217.217C39.0407 217.721 39.5888 218.38 39.9147 219.195C40.2554 219.994 40.4257 220.846 40.4257 221.75C40.4257 222.816 40.2257 223.772 39.8258 224.616C39.4258 225.46 38.8111 226.127 37.9816 226.616C37.1668 227.105 36.1521 227.349 34.9375 227.349C33.3821 227.349 32.123 226.949 31.1601 226.149C30.1973 225.349 29.6122 224.283 29.4048 222.95H31.3823C31.5749 223.794 31.9823 224.453 32.6044 224.927C33.2266 225.401 34.0117 225.638 34.9597 225.638C36.1299 225.638 37.0113 225.29 37.6038 224.594C38.1964 223.883 38.4926 222.95 38.4926 221.794C38.4926 220.639 38.1964 219.75 37.6038 219.128C37.0113 218.491 36.1373 218.172 34.9819 218.172C34.1968 218.172 33.508 218.365 32.9155 218.75C32.3378 219.12 31.9156 219.631 31.649 220.283H29.7381V211.218H39.4036V212.995ZM50.2453 227.305L45.468 221.928V227.305H43.446V210.862H45.468V220.528L50.1564 215.128H52.9783L47.2456 221.194L53.0005 227.305H50.2453Z" fill="#33313D"/>
<path d="M22.3324 301.207V302.896H12.4224L12.0669 301.741C12.689 301.044 13.1482 300.378 13.4445 299.741C13.7556 299.104 13.9111 298.319 13.9111 297.386C13.9111 297 13.8445 296.541 13.7111 296.008H11.2003V294.586H13.2223C13.0297 294.067 12.8816 293.579 12.7779 293.119C12.6742 292.645 12.6224 292.127 12.6224 291.564C12.6224 290.616 12.8224 289.794 13.2223 289.098C13.6371 288.387 14.2074 287.838 14.9332 287.453C15.6739 287.068 16.5182 286.876 17.4663 286.876C18.9772 286.876 20.14 287.313 20.9547 288.187C21.7695 289.061 22.2065 290.164 22.2657 291.497H20.3993C20.3696 290.623 20.103 289.92 19.5994 289.386C19.1105 288.853 18.3995 288.587 17.4663 288.587C16.6071 288.587 15.9035 288.838 15.3554 289.342C14.8221 289.846 14.5555 290.616 14.5555 291.653C14.5555 292.142 14.6073 292.608 14.711 293.053C14.8147 293.482 14.9703 293.993 15.1776 294.586H19.4883V296.008H15.622C15.7554 296.541 15.822 297 15.822 297.386C15.822 298.793 15.2961 300.067 14.2444 301.207H22.3324ZM24.8458 288.631V286.787H29.0231V302.852H26.9789V288.631H24.8458ZM32.4963 294.653C32.4963 292.105 32.9111 290.12 33.7406 288.698C34.5701 287.261 36.0218 286.542 38.0957 286.542C40.1547 286.542 41.5989 287.261 42.4285 288.698C43.258 290.12 43.6728 292.105 43.6728 294.653C43.6728 297.245 43.258 299.259 42.4285 300.696C41.5989 302.133 40.1547 302.852 38.0957 302.852C36.0218 302.852 34.5701 302.133 33.7406 300.696C32.9111 299.259 32.4963 297.245 32.4963 294.653ZM41.673 294.653C41.673 293.364 41.5841 292.275 41.4064 291.386C41.2434 290.483 40.8953 289.757 40.3621 289.209C39.8436 288.661 39.0881 288.387 38.0957 288.387C37.0884 288.387 36.3181 288.661 35.7848 289.209C35.2663 289.757 34.9182 290.483 34.7405 291.386C34.5775 292.275 34.4961 293.364 34.4961 294.653C34.4961 295.986 34.5775 297.104 34.7405 298.008C34.9182 298.911 35.2663 299.637 35.7848 300.185C36.3181 300.733 37.0884 301.007 38.0957 301.007C39.0881 301.007 39.8436 300.733 40.3621 300.185C40.8953 299.637 41.2434 298.911 41.4064 298.008C41.5841 297.104 41.673 295.986 41.673 294.653ZM53.5812 302.852L48.804 297.474V302.852H46.782V286.409H48.804V296.075L53.4923 290.675H56.3142L50.5815 296.741L56.3364 302.852H53.5812Z" fill="#33313D"/>
<path d="M18.9964 376.754V378.443H9.08646L8.73095 377.287C9.3531 376.591 9.81231 375.925 10.1086 375.288C10.4196 374.651 10.5752 373.866 10.5752 372.932C10.5752 372.547 10.5085 372.088 10.3752 371.555H7.86438V370.133H9.88637C9.6938 369.614 9.54567 369.125 9.44198 368.666C9.33829 368.192 9.28644 367.674 9.28644 367.111C9.28644 366.163 9.48642 365.341 9.88637 364.644C10.3011 363.933 10.8714 363.385 11.5973 363C12.3379 362.615 13.1823 362.423 14.1303 362.423C15.6413 362.423 16.8041 362.859 17.6188 363.733C18.4335 364.607 18.8705 365.711 18.9298 367.044H17.0633C17.0337 366.17 16.7671 365.467 16.2634 364.933C15.7746 364.4 15.0636 364.133 14.1303 364.133C13.2712 364.133 12.5675 364.385 12.0195 364.889C11.4862 365.393 11.2196 366.163 11.2196 367.2C11.2196 367.689 11.2714 368.155 11.3751 368.6C11.4788 369.029 11.6343 369.54 11.8417 370.133H16.1523V371.555H12.2861C12.4194 372.088 12.4861 372.547 12.4861 372.932C12.4861 374.34 11.9602 375.614 10.9085 376.754H18.9964ZM22.0431 370.199C22.0431 367.652 22.4579 365.667 23.2874 364.245C24.117 362.808 25.5686 362.089 27.6425 362.089C29.7015 362.089 31.1458 362.808 31.9753 364.245C32.8048 365.667 33.2196 367.652 33.2196 370.199C33.2196 372.792 32.8048 374.806 31.9753 376.243C31.1458 377.68 29.7015 378.398 27.6425 378.398C25.5686 378.398 24.117 377.68 23.2874 376.243C22.4579 374.806 22.0431 372.792 22.0431 370.199ZM31.2198 370.199C31.2198 368.911 31.131 367.822 30.9532 366.933C30.7903 366.029 30.4422 365.304 29.9089 364.756C29.3904 364.207 28.635 363.933 27.6425 363.933C26.6352 363.933 25.8649 364.207 25.3316 364.756C24.8132 365.304 24.4651 366.029 24.2873 366.933C24.1244 367.822 24.0429 368.911 24.0429 370.199C24.0429 371.533 24.1244 372.651 24.2873 373.555C24.4651 374.458 24.8132 375.184 25.3316 375.732C25.8649 376.28 26.6352 376.554 27.6425 376.554C28.635 376.554 29.3904 376.28 29.9089 375.732C30.4422 375.184 30.7903 374.458 30.9532 373.555C31.131 372.651 31.2198 371.533 31.2198 370.199ZM46.2388 364.089H38.4397V369.155C38.7804 368.681 39.284 368.296 39.9506 368C40.6172 367.689 41.3356 367.533 42.1059 367.533C43.3354 367.533 44.3353 367.792 45.1056 368.311C45.8758 368.814 46.4239 369.474 46.7498 370.288C47.0905 371.088 47.2609 371.94 47.2609 372.844C47.2609 373.91 47.0609 374.866 46.6609 375.71C46.261 376.554 45.6462 377.221 44.8167 377.71C44.002 378.198 42.9873 378.443 41.7726 378.443C40.2172 378.443 38.9581 378.043 37.9953 377.243C37.0324 376.443 36.4473 375.377 36.2399 374.043H38.2175C38.41 374.888 38.8174 375.547 39.4396 376.021C40.0617 376.495 40.8468 376.732 41.7948 376.732C42.9651 376.732 43.8465 376.384 44.439 375.688C45.0315 374.977 45.3278 374.043 45.3278 372.888C45.3278 371.733 45.0315 370.844 44.439 370.222C43.8465 369.585 42.9725 369.266 41.8171 369.266C41.032 369.266 40.3432 369.459 39.7506 369.844C39.1729 370.214 38.7507 370.725 38.4841 371.377H36.5732V362.311H46.2388V364.089ZM57.0804 378.398L52.3032 373.021V378.398H50.2812V361.956H52.3032V371.621L56.9915 366.222H59.8134L54.0807 372.288L59.8356 378.398H57.0804Z" fill="#33313D"/>
<path d="M47.1511 445.746C47.1511 443.198 47.5658 441.213 48.3954 439.791C49.2249 438.355 50.6766 437.636 52.7504 437.636C54.8094 437.636 56.2537 438.355 57.0832 439.791C57.9128 441.213 58.3275 443.198 58.3275 445.746C58.3275 448.339 57.9128 450.353 57.0832 451.79C56.2537 453.227 54.8094 453.945 52.7504 453.945C50.6766 453.945 49.2249 453.227 48.3954 451.79C47.5658 450.353 47.1511 448.339 47.1511 445.746ZM56.3278 445.746C56.3278 444.458 56.2389 443.369 56.0611 442.48C55.8982 441.576 55.5501 440.851 55.0168 440.302C54.4984 439.754 53.7429 439.48 52.7504 439.48C51.7431 439.48 50.9728 439.754 50.4396 440.302C49.9211 440.851 49.573 441.576 49.3952 442.48C49.2323 443.369 49.1508 444.458 49.1508 445.746C49.1508 447.079 49.2323 448.198 49.3952 449.101C49.573 450.005 49.9211 450.731 50.4396 451.279C50.9728 451.827 51.7431 452.101 52.7504 452.101C53.7429 452.101 54.4984 451.827 55.0168 451.279C55.5501 450.731 55.8982 450.005 56.0611 449.101C56.2389 448.198 56.3278 447.079 56.3278 445.746Z" fill="#33313D"/>
<path d="M90.1683 494.097C89.1462 494.097 88.2278 493.919 87.4131 493.564C86.6132 493.193 85.9836 492.69 85.5244 492.053C85.0652 491.401 84.8282 490.653 84.8134 489.809H86.9687C87.0428 490.534 87.339 491.149 87.8575 491.653C88.3908 492.142 89.161 492.386 90.1683 492.386C91.1312 492.386 91.8867 492.149 92.4347 491.675C92.9976 491.186 93.2791 490.564 93.2791 489.809C93.2791 489.216 93.1161 488.735 92.7903 488.364C92.4644 487.994 92.057 487.712 91.5682 487.52C91.0793 487.327 90.4202 487.12 89.5906 486.898C88.5685 486.631 87.7464 486.365 87.1242 486.098C86.5169 485.831 85.991 485.416 85.5466 484.854C85.1171 484.276 84.9023 483.506 84.9023 482.543C84.9023 481.698 85.1171 480.95 85.5466 480.299C85.9762 479.647 86.5762 479.143 87.3464 478.788C88.1315 478.432 89.0277 478.254 90.035 478.254C91.4867 478.254 92.6717 478.617 93.5902 479.343C94.5234 480.069 95.0492 481.032 95.1678 482.232H92.9458C92.8717 481.639 92.5606 481.121 92.0126 480.676C91.4645 480.217 90.7386 479.987 89.835 479.987C88.9907 479.987 88.3019 480.21 87.7686 480.654C87.2353 481.084 86.9687 481.691 86.9687 482.476C86.9687 483.039 87.1242 483.498 87.4353 483.854C87.7612 484.209 88.1538 484.483 88.613 484.676C89.087 484.854 89.7462 485.061 90.5905 485.298C91.6126 485.579 92.4347 485.861 93.0569 486.142C93.679 486.409 94.2123 486.831 94.6567 487.409C95.1011 487.972 95.3233 488.742 95.3233 489.72C95.3233 490.475 95.1233 491.186 94.7234 491.853C94.3234 492.519 93.7309 493.06 92.9458 493.475C92.1607 493.89 91.2349 494.097 90.1683 494.097ZM97.5433 487.809C97.5433 486.564 97.7952 485.476 98.2988 484.542C98.8025 483.594 99.4913 482.861 100.365 482.343C101.254 481.824 102.239 481.565 103.32 481.565C104.387 481.565 105.313 481.795 106.098 482.254C106.883 482.713 107.468 483.291 107.853 483.987V481.765H109.897V493.941H107.853V491.675C107.453 492.386 106.853 492.979 106.053 493.453C105.268 493.912 104.35 494.141 103.298 494.141C102.217 494.141 101.239 493.875 100.365 493.341C99.4913 492.808 98.8025 492.06 98.2988 491.097C97.7952 490.134 97.5433 489.038 97.5433 487.809ZM107.853 487.831C107.853 486.913 107.668 486.113 107.298 485.431C106.927 484.75 106.424 484.231 105.787 483.876C105.165 483.506 104.476 483.32 103.72 483.32C102.965 483.32 102.276 483.498 101.654 483.854C101.032 484.209 100.536 484.728 100.165 485.409C99.7949 486.09 99.6098 486.89 99.6098 487.809C99.6098 488.742 99.7949 489.557 100.165 490.253C100.536 490.934 101.032 491.46 101.654 491.831C102.276 492.186 102.965 492.364 103.72 492.364C104.476 492.364 105.165 492.186 105.787 491.831C106.424 491.46 106.927 490.934 107.298 490.253C107.668 489.557 107.853 488.749 107.853 487.831ZM115.781 483.432V490.608C115.781 491.201 115.907 491.623 116.159 491.875C116.41 492.112 116.847 492.23 117.47 492.23H118.958V493.941H117.136C116.01 493.941 115.166 493.682 114.603 493.164C114.04 492.645 113.759 491.794 113.759 490.608V483.432H112.181V481.765H113.759V478.699H115.781V481.765H118.958V483.432H115.781ZM126.754 492.319C128.635 490.808 130.109 489.572 131.176 488.609C132.242 487.631 133.139 486.616 133.864 485.565C134.605 484.498 134.975 483.454 134.975 482.432C134.975 481.469 134.738 480.713 134.264 480.165C133.805 479.602 133.057 479.321 132.02 479.321C131.013 479.321 130.228 479.639 129.665 480.276C129.117 480.898 128.821 481.735 128.776 482.787H126.821C126.88 481.128 127.384 479.847 128.332 478.943C129.28 478.04 130.502 477.588 131.998 477.588C133.524 477.588 134.731 478.01 135.62 478.854C136.523 479.699 136.975 480.861 136.975 482.343C136.975 483.572 136.605 484.772 135.864 485.942C135.138 487.098 134.309 488.12 133.376 489.009C132.442 489.883 131.25 490.905 129.798 492.075H137.442V493.764H126.754V492.319ZM148.734 481.698C148.408 480.054 147.393 479.232 145.69 479.232C144.371 479.232 143.386 479.743 142.734 480.765C142.083 481.772 141.764 483.439 141.779 485.765C142.12 484.994 142.683 484.394 143.468 483.965C144.268 483.52 145.156 483.298 146.134 483.298C147.66 483.298 148.875 483.772 149.778 484.72C150.697 485.668 151.156 486.979 151.156 488.653C151.156 489.66 150.956 490.564 150.556 491.364C150.171 492.164 149.578 492.801 148.778 493.275C147.993 493.749 147.038 493.986 145.912 493.986C144.386 493.986 143.194 493.645 142.335 492.964C141.475 492.282 140.875 491.342 140.535 490.142C140.194 488.942 140.024 487.461 140.024 485.698C140.024 480.262 141.92 477.543 145.712 477.543C147.164 477.543 148.304 477.936 149.134 478.721C149.963 479.506 150.452 480.499 150.6 481.698H148.734ZM145.712 485.009C145.075 485.009 144.475 485.142 143.912 485.409C143.349 485.661 142.89 486.053 142.535 486.587C142.194 487.105 142.023 487.742 142.023 488.498C142.023 489.623 142.349 490.542 143.001 491.253C143.653 491.949 144.586 492.297 145.801 492.297C146.838 492.297 147.66 491.979 148.267 491.342C148.889 490.69 149.2 489.816 149.2 488.72C149.2 487.564 148.904 486.661 148.312 486.009C147.719 485.342 146.853 485.009 145.712 485.009Z" fill="#33313D"/>
<path d="M210.153 494.097C209.131 494.097 208.212 493.919 207.397 493.564C206.598 493.193 205.968 492.69 205.509 492.053C205.05 491.401 204.813 490.653 204.798 489.809H206.953C207.027 490.534 207.323 491.149 207.842 491.653C208.375 492.142 209.145 492.386 210.153 492.386C211.116 492.386 211.871 492.149 212.419 491.675C212.982 491.186 213.263 490.564 213.263 489.809C213.263 489.216 213.101 488.735 212.775 488.364C212.449 487.994 212.041 487.712 211.553 487.52C211.064 487.327 210.405 487.12 209.575 486.898C208.553 486.631 207.731 486.365 207.109 486.098C206.501 485.831 205.975 485.416 205.531 484.854C205.101 484.276 204.887 483.506 204.887 482.543C204.887 481.698 205.101 480.95 205.531 480.299C205.961 479.647 206.561 479.143 207.331 478.788C208.116 478.432 209.012 478.254 210.019 478.254C211.471 478.254 212.656 478.617 213.575 479.343C214.508 480.069 215.034 481.032 215.152 482.232H212.93C212.856 481.639 212.545 481.121 211.997 480.676C211.449 480.217 210.723 479.987 209.819 479.987C208.975 479.987 208.286 480.21 207.753 480.654C207.22 481.084 206.953 481.691 206.953 482.476C206.953 483.039 207.109 483.498 207.42 483.854C207.746 484.209 208.138 484.483 208.597 484.676C209.071 484.854 209.731 485.061 210.575 485.298C211.597 485.579 212.419 485.861 213.041 486.142C213.663 486.409 214.197 486.831 214.641 487.409C215.085 487.972 215.308 488.742 215.308 489.72C215.308 490.475 215.108 491.186 214.708 491.853C214.308 492.519 213.715 493.06 212.93 493.475C212.145 493.89 211.219 494.097 210.153 494.097ZM229.082 481.765V493.941H227.06V492.142C226.675 492.764 226.134 493.253 225.438 493.608C224.757 493.949 224.001 494.119 223.172 494.119C222.223 494.119 221.372 493.927 220.616 493.541C219.861 493.141 219.261 492.549 218.816 491.764C218.387 490.979 218.172 490.023 218.172 488.898V481.765H220.172V488.631C220.172 489.831 220.476 490.757 221.083 491.408C221.69 492.045 222.52 492.364 223.571 492.364C224.653 492.364 225.505 492.031 226.127 491.364C226.749 490.697 227.06 489.727 227.06 488.453V481.765H229.082ZM238.429 481.543C239.91 481.543 241.11 481.995 242.028 482.898C242.947 483.787 243.406 485.076 243.406 486.764V493.941H241.406V487.053C241.406 485.839 241.102 484.913 240.495 484.276C239.888 483.624 239.058 483.298 238.006 483.298C236.94 483.298 236.088 483.631 235.451 484.298C234.829 484.965 234.518 485.935 234.518 487.209V493.941H232.496V481.765H234.518V483.498C234.918 482.876 235.459 482.395 236.14 482.054C236.836 481.713 237.599 481.543 238.429 481.543ZM252.055 492.319C253.936 490.808 255.41 489.572 256.477 488.609C257.543 487.631 258.439 486.616 259.165 485.565C259.906 484.498 260.276 483.454 260.276 482.432C260.276 481.469 260.039 480.713 259.565 480.165C259.106 479.602 258.358 479.321 257.321 479.321C256.314 479.321 255.528 479.639 254.966 480.276C254.417 480.898 254.121 481.735 254.077 482.787H252.121C252.181 481.128 252.684 479.847 253.632 478.943C254.58 478.04 255.803 477.588 257.299 477.588C258.824 477.588 260.032 478.01 260.92 478.854C261.824 479.699 262.276 480.861 262.276 482.343C262.276 483.572 261.906 484.772 261.165 485.942C260.439 487.098 259.609 488.12 258.676 489.009C257.743 489.883 256.551 490.905 255.099 492.075H262.742V493.764H252.055V492.319ZM274.968 479.454L268.791 493.941H266.746L273.012 479.654H264.435V477.921H274.968V479.454Z" fill="#33313D"/>
<path d="M344.272 478.565V493.941H342.25V482.476L337.139 493.941H335.717L330.584 482.454V493.941H328.562V478.565H330.74L336.428 491.275L342.116 478.565H344.272ZM353.011 494.141C351.871 494.141 350.834 493.882 349.901 493.364C348.982 492.845 348.256 492.112 347.723 491.164C347.205 490.201 346.945 489.09 346.945 487.831C346.945 486.587 347.212 485.491 347.745 484.542C348.293 483.58 349.034 482.846 349.967 482.343C350.901 481.824 351.945 481.565 353.1 481.565C354.256 481.565 355.3 481.824 356.233 482.343C357.166 482.846 357.9 483.572 358.433 484.52C358.981 485.468 359.255 486.572 359.255 487.831C359.255 489.09 358.974 490.201 358.411 491.164C357.863 492.112 357.115 492.845 356.167 493.364C355.219 493.882 354.167 494.141 353.011 494.141ZM353.011 492.364C353.737 492.364 354.419 492.193 355.056 491.853C355.693 491.512 356.204 491.001 356.589 490.32C356.989 489.638 357.189 488.809 357.189 487.831C357.189 486.853 356.996 486.024 356.611 485.342C356.226 484.661 355.722 484.157 355.1 483.831C354.478 483.491 353.804 483.32 353.078 483.32C352.337 483.32 351.656 483.491 351.034 483.831C350.426 484.157 349.938 484.661 349.567 485.342C349.197 486.024 349.012 486.853 349.012 487.831C349.012 488.823 349.19 489.66 349.545 490.342C349.915 491.023 350.404 491.534 351.012 491.875C351.619 492.201 352.286 492.364 353.011 492.364ZM367.846 481.543C369.328 481.543 370.527 481.995 371.446 482.898C372.364 483.787 372.824 485.076 372.824 486.764V493.941H370.824V487.053C370.824 485.839 370.52 484.913 369.913 484.276C369.305 483.624 368.476 483.298 367.424 483.298C366.358 483.298 365.506 483.631 364.869 484.298C364.247 484.965 363.936 485.935 363.936 487.209V493.941H361.914V481.765H363.936V483.498C364.336 482.876 364.876 482.395 365.558 482.054C366.254 481.713 367.017 481.543 367.846 481.543ZM381.473 492.319C383.354 490.808 384.828 489.572 385.894 488.609C386.961 487.631 387.857 486.616 388.583 485.565C389.323 484.498 389.694 483.454 389.694 482.432C389.694 481.469 389.457 480.713 388.983 480.165C388.524 479.602 387.775 479.321 386.739 479.321C385.731 479.321 384.946 479.639 384.383 480.276C383.835 480.898 383.539 481.735 383.494 482.787H381.539C381.598 481.128 382.102 479.847 383.05 478.943C383.998 478.04 385.22 477.588 386.716 477.588C388.242 477.588 389.449 478.01 390.338 478.854C391.242 479.699 391.694 480.861 391.694 482.343C391.694 483.572 391.323 484.772 390.583 485.942C389.857 487.098 389.027 488.12 388.094 489.009C387.161 489.883 385.968 490.905 384.517 492.075H392.16V493.764H381.473V492.319ZM397.431 485.587C396.601 485.261 395.964 484.787 395.52 484.165C395.075 483.543 394.853 482.787 394.853 481.898C394.853 481.098 395.053 480.38 395.453 479.743C395.853 479.091 396.445 478.58 397.231 478.21C398.03 477.825 398.993 477.632 400.119 477.632C401.245 477.632 402.2 477.825 402.985 478.21C403.785 478.58 404.385 479.091 404.785 479.743C405.2 480.38 405.407 481.098 405.407 481.898C405.407 482.758 405.178 483.513 404.719 484.165C404.259 484.802 403.63 485.276 402.83 485.587C403.748 485.868 404.474 486.365 405.007 487.076C405.556 487.772 405.83 488.616 405.83 489.609C405.83 490.571 405.593 491.416 405.119 492.142C404.645 492.853 403.971 493.408 403.097 493.808C402.237 494.193 401.245 494.386 400.119 494.386C398.993 494.386 398.001 494.193 397.142 493.808C396.297 493.408 395.638 492.853 395.164 492.142C394.69 491.416 394.453 490.571 394.453 489.609C394.453 488.616 394.72 487.764 395.253 487.053C395.786 486.342 396.512 485.853 397.431 485.587ZM403.452 482.143C403.452 481.239 403.156 480.543 402.563 480.054C401.971 479.565 401.156 479.321 400.119 479.321C399.097 479.321 398.29 479.565 397.697 480.054C397.105 480.543 396.808 481.247 396.808 482.165C396.808 482.995 397.112 483.661 397.719 484.165C398.342 484.668 399.141 484.92 400.119 484.92C401.112 484.92 401.912 484.668 402.519 484.165C403.141 483.646 403.452 482.972 403.452 482.143ZM400.119 486.476C399.023 486.476 398.127 486.735 397.431 487.253C396.734 487.757 396.386 488.52 396.386 489.542C396.386 490.49 396.72 491.253 397.386 491.831C398.068 492.408 398.979 492.697 400.119 492.697C401.26 492.697 402.163 492.408 402.83 491.831C403.497 491.253 403.83 490.49 403.83 489.542C403.83 488.549 403.489 487.794 402.808 487.276C402.126 486.742 401.23 486.476 400.119 486.476Z" fill="#33313D"/>
<path d="M469.188 478.454V480.099H464.967V493.941H462.945V480.099H458.701V478.454H469.188ZM482.476 481.765V493.941H480.454V492.142C480.069 492.764 479.528 493.253 478.832 493.608C478.151 493.949 477.395 494.119 476.566 494.119C475.618 494.119 474.766 493.927 474.01 493.541C473.255 493.141 472.655 492.549 472.211 491.764C471.781 490.979 471.566 490.023 471.566 488.898V481.765H473.566V488.631C473.566 489.831 473.87 490.757 474.477 491.408C475.084 492.045 475.914 492.364 476.966 492.364C478.047 492.364 478.899 492.031 479.521 491.364C480.143 490.697 480.454 489.727 480.454 488.453V481.765H482.476ZM497 487.387C497 487.772 496.978 488.179 496.933 488.609H487.201C487.275 489.809 487.683 490.749 488.423 491.431C489.179 492.097 490.09 492.43 491.156 492.43C492.03 492.43 492.756 492.23 493.334 491.831C493.926 491.416 494.341 490.868 494.578 490.186H496.756C496.43 491.357 495.778 492.312 494.8 493.053C493.823 493.778 492.608 494.141 491.156 494.141C490.001 494.141 488.964 493.882 488.045 493.364C487.142 492.845 486.431 492.112 485.912 491.164C485.394 490.201 485.135 489.09 485.135 487.831C485.135 486.572 485.387 485.468 485.89 484.52C486.394 483.572 487.097 482.846 488.001 482.343C488.919 481.824 489.971 481.565 491.156 481.565C492.312 481.565 493.334 481.817 494.223 482.321C495.111 482.824 495.793 483.52 496.267 484.409C496.756 485.283 497 486.276 497 487.387ZM494.911 486.964C494.911 486.194 494.741 485.535 494.4 484.987C494.06 484.424 493.593 484.002 493 483.72C492.423 483.424 491.778 483.276 491.067 483.276C490.045 483.276 489.171 483.602 488.445 484.254C487.734 484.905 487.327 485.809 487.223 486.964H494.911ZM505.015 492.319C506.896 490.808 508.37 489.572 509.437 488.609C510.503 487.631 511.399 486.616 512.125 485.565C512.866 484.498 513.236 483.454 513.236 482.432C513.236 481.469 512.999 480.713 512.525 480.165C512.066 479.602 511.318 479.321 510.281 479.321C509.274 479.321 508.489 479.639 507.926 480.276C507.378 480.898 507.081 481.735 507.037 482.787H505.082C505.141 481.128 505.645 479.847 506.593 478.943C507.541 478.04 508.763 477.588 510.259 477.588C511.785 477.588 512.992 478.01 513.881 478.854C514.784 479.699 515.236 480.861 515.236 482.343C515.236 483.572 514.866 484.772 514.125 485.942C513.399 487.098 512.57 488.12 511.637 489.009C510.703 489.883 509.511 490.905 508.059 492.075H515.703V493.764H505.015V492.319ZM520.64 489.631C520.788 490.475 521.129 491.127 521.662 491.586C522.21 492.045 522.943 492.275 523.862 492.275C525.091 492.275 525.995 491.794 526.572 490.831C527.165 489.868 527.446 488.246 527.417 485.965C527.106 486.631 526.587 487.157 525.861 487.542C525.136 487.912 524.328 488.098 523.439 488.098C522.447 488.098 521.558 487.898 520.773 487.498C520.003 487.083 519.396 486.483 518.951 485.698C518.507 484.913 518.285 483.965 518.285 482.854C518.285 481.269 518.744 479.995 519.662 479.032C520.581 478.054 521.884 477.566 523.573 477.566C525.647 477.566 527.098 478.24 527.928 479.588C528.772 480.936 529.194 482.943 529.194 485.609C529.194 487.475 529.024 489.016 528.683 490.231C528.357 491.445 527.795 492.371 526.995 493.008C526.21 493.645 525.128 493.964 523.751 493.964C522.24 493.964 521.062 493.556 520.218 492.742C519.373 491.927 518.892 490.89 518.773 489.631H520.64ZM523.773 486.387C524.765 486.387 525.58 486.083 526.217 485.476C526.854 484.854 527.172 484.017 527.172 482.965C527.172 481.854 526.861 480.958 526.239 480.276C525.617 479.595 524.743 479.254 523.617 479.254C522.58 479.254 521.751 479.58 521.129 480.232C520.521 480.884 520.218 481.743 520.218 482.809C520.218 483.891 520.521 484.757 521.129 485.409C521.736 486.061 522.617 486.387 523.773 486.387Z" fill="#33313D"/>
<path d="M602.441 478.454L597.953 493.941H595.686L592.087 481.476L588.354 493.941L586.11 493.964L581.777 478.454H583.932L587.309 491.586L591.042 478.454H593.309L596.864 491.542L600.263 478.454H602.441ZM615.764 487.387C615.764 487.772 615.741 488.179 615.697 488.609H605.965C606.039 489.809 606.446 490.749 607.187 491.431C607.942 492.097 608.853 492.43 609.92 492.43C610.794 492.43 611.52 492.23 612.097 491.831C612.69 491.416 613.105 490.868 613.342 490.186H615.519C615.193 491.357 614.541 492.312 613.564 493.053C612.586 493.778 611.371 494.141 609.92 494.141C608.764 494.141 607.727 493.882 606.809 493.364C605.905 492.845 605.194 492.112 604.676 491.164C604.157 490.201 603.898 489.09 603.898 487.831C603.898 486.572 604.15 485.468 604.654 484.52C605.157 483.572 605.861 482.846 606.765 482.343C607.683 481.824 608.735 481.565 609.92 481.565C611.075 481.565 612.097 481.817 612.986 482.321C613.875 482.824 614.556 483.52 615.03 484.409C615.519 485.283 615.764 486.276 615.764 487.387ZM613.675 486.964C613.675 486.194 613.505 485.535 613.164 484.987C612.823 484.424 612.357 484.002 611.764 483.72C611.186 483.424 610.542 483.276 609.831 483.276C608.809 483.276 607.935 483.602 607.209 484.254C606.498 484.905 606.091 485.809 605.987 486.964H613.675ZM617.677 487.809C617.677 486.564 617.929 485.476 618.433 484.542C618.936 483.594 619.625 482.861 620.499 482.343C621.388 481.824 622.38 481.565 623.476 481.565C624.424 481.565 625.306 481.787 626.121 482.232C626.935 482.661 627.557 483.232 627.987 483.943V477.499H630.031V493.941H627.987V491.653C627.587 492.379 626.994 492.979 626.209 493.453C625.424 493.912 624.506 494.141 623.454 494.141C622.373 494.141 621.388 493.875 620.499 493.341C619.625 492.808 618.936 492.06 618.433 491.097C617.929 490.134 617.677 489.038 617.677 487.809ZM627.987 487.831C627.987 486.913 627.802 486.113 627.431 485.431C627.061 484.75 626.557 484.231 625.921 483.876C625.298 483.506 624.61 483.32 623.854 483.32C623.099 483.32 622.41 483.498 621.788 483.854C621.166 484.209 620.669 484.728 620.299 485.409C619.929 486.09 619.743 486.89 619.743 487.809C619.743 488.742 619.929 489.557 620.299 490.253C620.669 490.934 621.166 491.46 621.788 491.831C622.41 492.186 623.099 492.364 623.854 492.364C624.61 492.364 625.298 492.186 625.921 491.831C626.557 491.46 627.061 490.934 627.431 490.253C627.802 489.557 627.987 488.749 627.987 487.831ZM638.994 481.921C639.098 480.558 639.624 479.491 640.572 478.721C641.52 477.951 642.749 477.566 644.26 477.566C645.268 477.566 646.134 477.751 646.86 478.121C647.601 478.477 648.156 478.965 648.526 479.588C648.912 480.21 649.104 480.913 649.104 481.698C649.104 482.617 648.838 483.409 648.304 484.076C647.786 484.742 647.104 485.172 646.26 485.365V485.476C647.223 485.713 647.986 486.179 648.549 486.876C649.112 487.572 649.393 488.483 649.393 489.609C649.393 490.453 649.2 491.216 648.815 491.897C648.43 492.564 647.852 493.09 647.082 493.475C646.312 493.86 645.386 494.053 644.305 494.053C642.735 494.053 641.446 493.645 640.438 492.83C639.431 492.001 638.868 490.831 638.75 489.32H640.705C640.809 490.209 641.172 490.934 641.794 491.497C642.416 492.06 643.246 492.342 644.282 492.342C645.319 492.342 646.104 492.075 646.638 491.542C647.186 490.994 647.46 490.29 647.46 489.431C647.46 488.32 647.09 487.52 646.349 487.031C645.608 486.542 644.49 486.298 642.994 486.298H642.483V484.609H643.016C644.379 484.594 645.408 484.372 646.104 483.943C646.801 483.498 647.149 482.817 647.149 481.898C647.149 481.113 646.89 480.484 646.371 480.01C645.867 479.536 645.142 479.299 644.194 479.299C643.275 479.299 642.535 479.536 641.972 480.01C641.409 480.484 641.075 481.121 640.972 481.921H638.994ZM652.123 485.742C652.123 483.194 652.538 481.21 653.367 479.787C654.197 478.351 655.649 477.632 657.722 477.632C659.781 477.632 661.226 478.351 662.055 479.787C662.885 481.21 663.3 483.194 663.3 485.742C663.3 488.335 662.885 490.349 662.055 491.786C661.226 493.223 659.781 493.941 657.722 493.941C655.649 493.941 654.197 493.223 653.367 491.786C652.538 490.349 652.123 488.335 652.123 485.742ZM661.3 485.742C661.3 484.454 661.211 483.365 661.033 482.476C660.87 481.572 660.522 480.847 659.989 480.299C659.47 479.75 658.715 479.476 657.722 479.476C656.715 479.476 655.945 479.75 655.412 480.299C654.893 480.847 654.545 481.572 654.367 482.476C654.204 483.365 654.123 484.454 654.123 485.742C654.123 487.076 654.204 488.194 654.367 489.098C654.545 490.001 654.893 490.727 655.412 491.275C655.945 491.823 656.715 492.097 657.722 492.097C658.715 492.097 659.47 491.823 659.989 491.275C660.522 490.727 660.87 490.001 661.033 489.098C661.211 488.194 661.3 487.076 661.3 485.742Z" fill="#33313D"/>
<path d="M726.938 478.454V480.099H722.717V493.941H720.695V480.099H716.451V478.454H726.938ZM735.471 481.543C736.39 481.543 737.219 481.743 737.96 482.143C738.7 482.528 739.278 483.113 739.693 483.898C740.122 484.683 740.337 485.639 740.337 486.764V493.941H738.337V487.053C738.337 485.839 738.034 484.913 737.426 484.276C736.819 483.624 735.99 483.298 734.938 483.298C733.871 483.298 733.02 483.631 732.383 484.298C731.76 484.965 731.449 485.935 731.449 487.209V493.941H729.427V477.499H731.449V483.498C731.849 482.876 732.397 482.395 733.094 482.054C733.805 481.713 734.597 481.543 735.471 481.543ZM754.439 481.765V493.941H752.417V492.142C752.032 492.764 751.491 493.253 750.795 493.608C750.113 493.949 749.358 494.119 748.528 494.119C747.58 494.119 746.729 493.927 745.973 493.541C745.218 493.141 744.618 492.549 744.173 491.764C743.744 490.979 743.529 490.023 743.529 488.898V481.765H745.529V488.631C745.529 489.831 745.833 490.757 746.44 491.408C747.047 492.045 747.877 492.364 748.928 492.364C750.01 492.364 750.862 492.031 751.484 491.364C752.106 490.697 752.417 489.727 752.417 488.453V481.765H754.439ZM763.399 481.921C763.503 480.558 764.029 479.491 764.977 478.721C765.925 477.951 767.154 477.566 768.665 477.566C769.672 477.566 770.539 477.751 771.265 478.121C772.005 478.477 772.561 478.965 772.931 479.588C773.316 480.21 773.509 480.913 773.509 481.698C773.509 482.617 773.242 483.409 772.709 484.076C772.191 484.742 771.509 485.172 770.665 485.365V485.476C771.628 485.713 772.391 486.179 772.953 486.876C773.516 487.572 773.798 488.483 773.798 489.609C773.798 490.453 773.605 491.216 773.22 491.897C772.835 492.564 772.257 493.09 771.487 493.475C770.717 493.86 769.791 494.053 768.709 494.053C767.139 494.053 765.851 493.645 764.843 492.83C763.836 492.001 763.273 490.831 763.155 489.32H765.11C765.214 490.209 765.577 490.934 766.199 491.497C766.821 492.06 767.65 492.342 768.687 492.342C769.724 492.342 770.509 492.075 771.043 491.542C771.591 490.994 771.865 490.29 771.865 489.431C771.865 488.32 771.494 487.52 770.754 487.031C770.013 486.542 768.895 486.298 767.399 486.298H766.887V484.609H767.421C768.784 484.594 769.813 484.372 770.509 483.943C771.206 483.498 771.554 482.817 771.554 481.898C771.554 481.113 771.294 480.484 770.776 480.01C770.272 479.536 769.546 479.299 768.598 479.299C767.68 479.299 766.939 479.536 766.376 480.01C765.814 480.484 765.48 481.121 765.377 481.921H763.399ZM775.995 479.721V477.877H780.172V493.941H778.128V479.721H775.995Z" fill="#33313D"/>
<path d="M842.813 478.454V480.099H836.081V485.32H841.547V486.964H836.081V493.941H834.059V478.454H842.813ZM847.277 483.743C847.633 483.046 848.136 482.506 848.788 482.121C849.455 481.735 850.262 481.543 851.21 481.543V483.631H850.677C848.41 483.631 847.277 484.861 847.277 487.32V493.941H845.255V481.765H847.277V483.743ZM854.588 479.787C854.203 479.787 853.877 479.654 853.611 479.388C853.344 479.121 853.211 478.795 853.211 478.41C853.211 478.025 853.344 477.699 853.611 477.432C853.877 477.166 854.203 477.032 854.588 477.032C854.959 477.032 855.27 477.166 855.522 477.432C855.788 477.699 855.922 478.025 855.922 478.41C855.922 478.795 855.788 479.121 855.522 479.388C855.27 479.654 854.959 479.787 854.588 479.787ZM855.566 481.765V493.941H853.544V481.765H855.566ZM864.603 485.742C864.603 483.194 865.018 481.21 865.847 479.787C866.677 478.351 868.128 477.632 870.202 477.632C872.261 477.632 873.705 478.351 874.535 479.787C875.365 481.21 875.779 483.194 875.779 485.742C875.779 488.335 875.365 490.349 874.535 491.786C873.705 493.223 872.261 493.941 870.202 493.941C868.128 493.941 866.677 493.223 865.847 491.786C865.018 490.349 864.603 488.335 864.603 485.742ZM873.78 485.742C873.78 484.454 873.691 483.365 873.513 482.476C873.35 481.572 873.002 480.847 872.469 480.299C871.95 479.75 871.195 479.476 870.202 479.476C869.195 479.476 868.425 479.75 867.891 480.299C867.373 480.847 867.025 481.572 866.847 482.476C866.684 483.365 866.603 484.454 866.603 485.742C866.603 487.076 866.684 488.194 866.847 489.098C867.025 490.001 867.373 490.727 867.891 491.275C868.425 491.823 869.195 492.097 870.202 492.097C871.195 492.097 871.95 491.823 872.469 491.275C873.002 490.727 873.35 490.001 873.513 489.098C873.691 488.194 873.78 487.076 873.78 485.742ZM878.022 479.721V477.877H882.199V493.941H880.155V479.721H878.022Z" fill="#33313D"/>
</svg>
