<svg width="544" height="216" viewBox="0 0 544 216" fill="none" xmlns="http://www.w3.org/2000/svg">
<g clip-path="url(#clip0_553_630)">
<mask id="mask0_553_630" style="mask-type:luminance" maskUnits="userSpaceOnUse" x="0" y="0" width="544" height="216">
<path d="M0 0H544V216H0V0Z" fill="white"/>
</mask>
<g mask="url(#mask0_553_630)">
<path d="M0 0H544V216H0V0Z" fill="url(#paint0_radial_553_630)"/>
<path opacity="0.2" d="M65.1138 262.198C-26.3662 280.48 73.2648 364.477 317.803 222.994C562.342 81.512 685.775 160.501 673.354 335.754H-84.3262V20.959C-73.8462 145.557 -101.987 284.362 3.59083 145.557C135.564 -27.948 313.728 212.514 65.1138 262.198Z" fill="url(#paint1_linear_553_630)"/>
<g opacity="0.3">
<path d="M285.108 206C364.746 175.288 393.28 134.353 403.351 111C409.402 97.1199 409.579 81.2569 402.777 67.7299C385.595 33.3599 333.739 8.41992 272.476 8.41992C197.211 8.41992 136.168 46.1389 136.168 92.6249C136.168 139.068 197.211 176.786 272.52 176.786C277.865 176.786 283.032 176.566 288.244 176.213L285.153 206H285.108Z" fill="#FFD8B5"/>
<path d="M154.393 50.5499C178.793 27.7759 220.635 12.7479 268.142 12.7479C329.406 12.7479 381.261 37.6879 398.443 72.0569C405.245 85.5839 405.069 101.447 399.017 115.327C394.644 125.468 386.79 138.923 372.783 153.417C389.541 137.289 398.55 122.143 403.355 111C409.406 97.1199 409.583 81.2569 402.781 67.7299C385.599 33.3599 333.744 8.41992 272.48 8.41992C222.025 8.41992 177.961 25.3709 154.393 50.5499Z" fill="white"/>
</g>
<path opacity="0.5" d="M498.685 112.252C498.685 182.673 397.108 239.761 271.807 239.761C146.506 239.761 44.9297 182.673 44.9297 112.252C44.9297 41.8302 146.506 -15.2578 271.807 -15.2578C397.108 -15.2578 498.685 41.8302 498.685 112.252Z" fill="url(#paint2_radial_553_630)"/>
<path d="M273.486 178.549C267.25 174.867 250.592 163.761 247.652 147.429C244.712 143.272 248.008 147.281 250.592 142.916L221.521 154.467C225.085 164.563 233.102 182.825 247.652 193.96C249.256 195.177 251.423 195.385 253.294 194.643L273.486 187.457C276.455 183.003 276.04 180.063 273.486 178.549Z" fill="white"/>
<path d="M272.834 182.943C266.598 179.261 247.624 166.671 244.684 150.339C241.744 146.182 245.04 150.191 247.624 145.826L218.553 157.377C222.116 167.473 230.134 185.734 244.684 196.87C246.287 198.087 248.455 198.295 250.326 197.553L270.963 189.357C274.972 187.457 275.358 184.458 272.804 182.943H272.834Z" fill="#1433D6"/>
<path d="M250.46 155.532C245.857 156.035 248.519 160.19 248.519 160.19C248.519 160.19 238.815 158.637 232.993 169.506C227.17 180.374 247.084 198.035 247.084 198.035C227.184 193.183 219.826 160.984 218.553 157.378L222.068 155.981C221.876 155.459 221.694 154.954 221.522 154.468L249.286 143.436C249.39 143.691 249.493 143.947 249.594 144.203C248.621 145.125 247.67 145.202 247.084 145.249C246.489 145.297 246.271 145.314 246.79 146.158L247.624 145.827C247.462 146.101 247.282 146.363 247.084 146.612C247.24 146.842 247.428 147.112 247.653 147.43C248.067 149.729 249.57 153.446 250.46 155.532Z" fill="#000C2A"/>
<path d="M303.745 97.7237C291.392 66.6337 284.265 39.0477 285.334 28.5957C285.334 28.6557 276.604 76.2247 247.445 87.7757L188.086 111.353C172.675 117.47 165.133 134.93 171.279 150.341C177.396 165.753 194.856 173.295 210.268 167.178L269.567 143.631C298.697 132.644 337.804 160.675 337.804 160.675C329.846 153.786 316.127 128.813 303.774 97.7527L303.745 97.7237Z" fill="#FFD8B5"/>
<path fill-rule="evenodd" clip-rule="evenodd" d="M337.802 160.673C329.843 153.782 316.126 128.81 303.774 97.7527L303.744 97.7227C291.392 66.6327 284.265 39.0477 285.334 28.5957C285.334 28.6157 284.245 34.5637 281.552 42.7577C281.39 62.7907 276.256 86.3647 264.433 96.1437C253.584 105.118 195.042 139.448 174.841 121.65C169.032 129.691 167.33 140.439 171.279 150.341C177.396 165.752 194.856 173.295 210.268 167.178L269.567 143.63C270.789 143.17 272.033 142.774 273.295 142.445C277.64 141.308 282.153 140.936 286.681 141.123C311.848 142.164 337.521 160.472 337.802 160.673Z" fill="#FFA14A"/>
<path d="M171.28 150.341C170.182 147.566 169.501 144.644 169.261 141.67C165.906 143.006 164.273 146.807 165.579 150.162L167.242 154.349C168.578 157.705 172.379 159.338 175.735 158.031C173.873 155.705 172.372 153.113 171.28 150.341Z" fill="#000C2A"/>
<path d="M265.706 145.143C262.885 142.678 260.183 139.412 257.837 136.086C250.562 125.753 245.811 113.845 244.029 101.344C243.465 97.3057 243.168 93.0887 243.524 89.3477L188.085 111.351C185.849 112.259 183.727 113.425 181.761 114.825C181.582 118.032 181.107 131.929 186.066 144.401C191.085 156.961 203.289 168.928 203.289 168.928C211.128 169.641 265.706 145.084 265.706 145.084V145.143Z" fill="#0069FF"/>
<path fill-rule="evenodd" clip-rule="evenodd" d="M181.934 125.494C182.38 131.046 183.489 137.917 186.068 144.402C191.086 156.963 203.29 168.929 203.29 168.929C210.999 169.63 263.905 145.895 265.663 145.105L265.707 145.144V145.085L265.663 145.105C262.858 142.645 260.172 139.396 257.838 136.088C251.935 127.71 247.693 118.279 245.342 108.305C226.242 118.822 198.487 130.513 181.934 125.494Z" fill="#1433D6"/>
<path d="M171.278 150.341C167.333 140.452 169.026 129.719 174.817 121.681C171.67 128.793 171.275 137.117 174.386 144.916C177.397 152.503 186.605 158.264 194.758 160.772C191.847 156.309 187.46 148.816 186.607 145.828C189.798 152.097 193.742 157.633 196.535 161.132C203.9 162.586 211.812 162.047 218.42 159.424L272.673 138.205C293.544 130.69 307.13 138.205 307.13 138.205C319.378 143.947 313.046 127.443 305.858 108.71C301.369 97.0099 296.547 84.4419 295.707 75.8789C298.194 83.2295 300.873 90.5133 303.743 97.7229L303.773 97.7529C316.125 128.813 329.844 153.785 337.802 160.674C337.802 160.674 298.695 133.419 269.565 144.406L211.042 168.342C195.631 174.459 177.394 165.752 171.278 150.341Z" fill="#000C2A"/>
<path d="M342.213 162.372C348.325 159.945 341.003 127.063 325.858 88.9289C310.713 50.7939 293.481 21.8479 287.37 24.2749C281.258 26.7019 288.58 59.5849 303.725 97.7189C318.87 135.853 336.102 164.8 342.213 162.372Z" fill="#1433D6"/>
<path fill-rule="evenodd" clip-rule="evenodd" d="M335.14 114.535C332.523 106.503 329.405 97.8599 325.858 88.9289C310.713 50.7939 293.481 21.8479 287.37 24.2749C281.758 26.5039 287.472 54.4079 300.168 88.4779C311.243 90.5759 322.278 96.9049 335.14 114.535Z" fill="#C6E3FF"/>
<path d="M325.859 88.9289C341.004 127.063 348.326 159.945 342.214 162.372C341.996 162.459 341.764 162.506 341.518 162.513C345.979 157.235 338.652 125.826 324.306 89.7049C309.702 52.9309 293.157 24.7019 286.514 24.9099C286.763 24.6159 287.048 24.4029 287.37 24.2749C293.482 21.8479 310.714 50.7949 325.859 88.9289Z" fill="white"/>
<path d="M297.062 79.8164C299.17 85.829 301.397 91.7989 303.743 97.7224C306.107 103.672 308.592 109.572 311.197 115.42L317.669 100.454L312.057 86.3194L297.062 79.8464V79.8164Z" fill="#FFD8B5"/>
<path fill-rule="evenodd" clip-rule="evenodd" d="M316.186 96.7181L317.669 100.453L311.196 115.419C308.591 109.572 306.106 103.671 303.743 97.7211C302.923 95.6513 302.117 93.5756 301.326 91.4941C306.177 101.425 309.433 105.944 315.279 96.1431L316.186 96.7181Z" fill="#FFB775"/>
<path d="M317.663 100.424C318.151 100.23 317.29 96.91 315.741 93.008C314.191 89.106 312.54 86.1 312.052 86.294C311.564 86.488 311.596 89.106 313.146 93.008C314.695 96.91 317.176 100.618 317.663 100.424Z" fill="#000C2A"/>
<path d="M310.438 113.704L316.505 99.6772L316.493 99.6472L316.498 99.6462C316.986 99.4522 316.126 96.1322 314.576 92.2302C313.482 89.4742 312.335 87.1652 311.585 86.1152L312.026 86.3052C312.034 86.3001 312.043 86.2958 312.051 86.2922C312.539 86.0992 314.19 89.1052 315.74 93.0072C317.289 96.9082 318.15 100.229 317.662 100.422L317.658 100.424L317.669 100.453L311.197 115.419C310.944 114.85 310.69 114.279 310.438 113.704Z" fill="white"/>
<path d="M367.198 141.171C362.8 141.171 357.344 137.031 351.195 128.996C344.395 120.068 337.513 107.366 331.894 93.2425C321.469 67.1075 316.094 37.1176 326.6 32.9376C337.147 28.7576 353.842 54.3245 364.266 80.4185C374.69 106.554 380.065 136.544 369.56 140.724C368.806 141.016 368.006 141.167 367.198 141.171ZM329.003 35.5346C328.57 35.533 328.141 35.6159 327.74 35.7786C321.429 38.2946 322.772 62.0346 334.744 92.1466C340.282 106.027 347.001 118.485 353.638 127.17C359.746 135.165 365.284 139.182 368.419 137.924C374.731 135.408 373.428 111.667 361.416 81.5546C350.177 53.3095 335.925 35.5346 329.003 35.5346Z" fill="url(#paint3_linear_553_630)"/>
<path d="M415.411 157.472C401.06 157.472 378.229 119.35 362.954 80.8483C346.646 39.7903 336.915 -6.86868 350.94 -12.4157C358.986 -15.5697 369.477 -3.60568 376.924 6.99832C386.926 21.3013 397.309 41.4223 406.17 63.6643C414.976 85.9063 421.227 107.713 423.782 124.952C425.631 137.786 426.174 153.774 418.183 156.928C417.314 157.253 416.393 157.418 415.465 157.417L415.411 157.472ZM353.658 -8.82668C353.169 -8.82668 352.788 -8.77168 352.408 -8.60868C343.982 -5.23668 347.787 31.6883 366.705 79.3803C385.622 127.072 408.235 156.601 416.607 153.23C419.814 151.925 422.315 144.039 419.651 125.604C417.205 108.637 411.008 87.2113 402.31 65.2413C393.613 43.2713 383.339 23.4213 373.5 9.39132C364.041 -4.09468 357.246 -8.82668 353.604 -8.82668H353.658Z" fill="url(#paint4_linear_553_630)"/>
<path d="M411.822 181.281C414.328 180.989 418.376 179.624 424.634 175.465C424.634 175.465 418.218 173.627 414.14 174.924C412.507 175.49 411.069 176.51 409.995 177.863C409.792 178.101 409.646 178.382 409.566 178.684C409.487 178.986 409.477 179.303 409.536 179.61C409.596 179.917 409.724 180.206 409.912 180.456C410.099 180.707 410.34 180.912 410.617 181.056C410.987 181.25 411.407 181.328 411.822 181.281Z" fill="#000C2A"/>
<path d="M416.417 179.992C418.597 179.102 421.303 177.68 424.635 175.466C424.635 175.466 420.031 174.147 416.145 174.531C419.8 174.659 422.323 176.143 422.323 176.143C420.964 177.307 418.394 179.008 416.417 179.992Z" fill="white"/>
<path d="M402.917 172.948C404.675 171.134 406.947 167.523 409.169 160.346C409.169 160.346 403.031 162.976 400.688 166.553C399.781 168.024 399.313 169.723 399.337 171.451C399.33 171.764 399.393 172.074 399.523 172.359C399.652 172.645 399.844 172.897 400.085 173.097C400.325 173.298 400.608 173.441 400.911 173.517C401.215 173.594 401.532 173.6 401.839 173.537C402.249 173.453 402.625 173.248 402.917 172.948Z" fill="#000C2A"/>
<path d="M406.225 167.957C407.183 166.02 408.181 163.535 409.169 160.344C409.169 160.344 408.485 160.637 407.486 161.161C406.824 163.375 406.401 165.653 406.225 167.957Z" fill="white"/>
<path d="M422.168 159.097C429.498 155.609 429.65 142.07 429.65 142.07L421.95 151.875L417.325 139.848C417.325 139.848 414.837 162.586 422.168 159.097Z" fill="#000C2A"/>
<path d="M422.722 158.807C429.506 154.918 429.65 142.07 429.65 142.07L428.682 143.304C428.561 145.742 427.774 154.937 422.722 158.807ZM422.35 151.366L421.95 151.876L417.325 139.848C417.325 139.848 417.232 140.702 417.135 142.053L421.907 151.971L422.35 151.366Z" fill="white"/>
<path d="M394.445 174.571C413.099 167.043 420.338 156.659 421.626 152.408C423.495 158.232 416.46 177.988 404.57 187.183C383.729 203.302 371.127 183.981 394.445 174.571Z" fill="url(#paint5_linear_553_630)"/>
<path fill-rule="evenodd" clip-rule="evenodd" d="M186.292 112.131C180.069 115.072 175.052 120.071 172.088 126.283C172.296 126.273 172.499 126.26 172.698 126.243C176.035 129.082 179.299 131.207 182.374 132.792V132.793C189.417 136.425 195.468 137.228 199.11 137.302C199.833 137.315 200.535 137.055 201.075 136.573V136.576C201.075 136.576 205.589 134.513 198.01 125.942C198.01 125.942 194.355 121.306 190.384 118.546C189.23 116.28 187.86 114.132 186.292 112.131Z" fill="#000C2A"/>
<path d="M203.855 117.984C203.855 117.984 198.641 105.323 187.5 101.16C187.5 101.16 192.645 108.839 181.722 106.704C181.722 106.704 201.943 118.654 203.855 117.984ZM164.381 83.7299C163.617 91.1009 169.718 99.9299 171.849 102.496C160.946 101.943 153.783 89.7839 157.704 82.9609C157.925 87.0629 161.021 90.6819 163.341 93.9369C161.905 91.1639 161.846 88.2039 164.381 83.7289V83.7299Z" fill="#000C2A"/>
<path d="M203.414 117.1C205.66 118.896 207.71 120.926 209.53 123.155C211.636 125.743 213.515 128.562 214.611 131.357C214.784 131.795 214.846 132.269 214.792 132.737C214.737 133.206 214.567 133.653 214.298 134.04C214.029 134.427 213.669 134.742 213.249 134.957C212.829 135.171 212.362 135.278 211.891 135.269C208.249 135.195 202.198 134.392 195.155 130.76C193.409 121.63 199.768 118.262 203.414 117.1Z" fill="url(#paint6_linear_553_630)"/>
<path d="M163.41 92.6738C163.41 92.6738 170.113 103.102 190.144 109.871C194.956 111.49 199.447 113.942 203.411 117.114C201.359 117.765 198.45 119.118 196.608 121.8C196.61 121.787 178.307 116.521 163.41 92.6738Z" fill="#0069FF"/>
<path d="M167.642 98.8668C181.079 116.82 195.581 121.474 196.561 121.771C196.506 121.883 196.455 121.996 196.403 122.108C195.304 123.853 194.641 126.125 194.922 129.088C194.97 129.623 195.045 130.18 195.154 130.76C185.23 125.643 173.331 114.909 163.41 92.6738C164.734 94.7961 166.146 96.8623 167.642 98.8668Z" fill="#1433D6"/>
<path d="M194.922 129.088C194.97 129.623 195.045 130.18 195.154 130.76C185.23 125.643 173.331 114.909 163.41 92.6738C164.734 94.7961 166.146 96.8623 167.642 98.8668C176.455 115.581 186.365 124.441 194.922 129.088Z" fill="#000C2A"/>
<path d="M191.358 124.917C191.358 124.917 182.363 131.224 170.016 121.772C170.016 121.772 178.138 119.387 186.229 121.641C188.224 122.203 190.007 123.349 191.349 124.93L191.358 124.917Z" fill="#000C2A"/>
<path d="M213.853 134.542C213.853 134.542 218.368 132.479 210.789 123.908C210.789 123.908 205.483 117.179 200.711 115.109C200.721 115.11 215.556 126.514 213.853 134.542Z" fill="white"/>
<path d="M204.183 124.386C202.973 123.435 202.505 122.012 203.138 121.208C203.771 120.404 205.266 120.524 206.476 121.475C207.686 122.427 208.154 123.85 207.521 124.654C206.888 125.458 205.394 125.338 204.183 124.386Z" fill="#C6E3FF"/>
<path d="M136.877 49.6052C135.103 52.2728 132.441 54.2256 129.364 55.1172C126.289 56.0118 122.996 55.7872 120.07 54.4832C122.737 56.2569 124.689 58.918 125.58 61.9942C126.475 65.0701 126.25 68.3636 124.945 71.2892C126.719 68.6219 129.381 66.6691 132.457 65.7772C135.533 64.883 138.827 65.108 141.752 66.4122C139.085 64.6381 137.133 61.9768 136.241 58.9002C135.348 55.8242 135.573 52.5309 136.877 49.6052ZM449.362 187.67C447.589 190.338 444.927 192.29 441.85 193.181C438.775 194.076 435.481 193.851 432.555 192.547C435.222 194.321 437.174 196.983 438.065 200.059C438.96 203.135 438.735 206.429 437.43 209.354C439.204 206.687 441.866 204.734 444.942 203.842C448.018 202.947 451.312 203.172 454.237 204.476C451.571 202.703 449.618 200.041 448.727 196.965C447.833 193.889 448.058 190.596 449.362 187.67ZM148.979 44.6152C148.377 45.5153 147.477 46.174 146.436 46.4752C145.396 46.7747 144.284 46.6971 143.295 46.2562C144.195 46.859 144.854 47.7598 145.155 48.8002C145.456 49.84 145.378 50.9525 144.935 51.9402C145.538 51.0401 146.439 50.3814 147.479 50.0802C148.519 49.7798 149.632 49.8577 150.62 50.3002C149.719 49.6994 149.06 48.7987 148.759 47.758C148.459 46.7174 148.537 45.6039 148.979 44.6152ZM461.465 182.68C460.864 183.581 459.963 184.24 458.923 184.54C457.882 184.84 456.769 184.763 455.78 184.321C456.681 184.924 457.339 185.825 457.64 186.865C457.941 187.905 457.863 189.018 457.42 190.006C458.021 189.105 458.921 188.445 459.962 188.144C461.003 187.844 462.117 187.922 463.105 188.364C462.205 187.762 461.546 186.862 461.245 185.821C460.945 184.781 461.023 183.668 461.465 182.68ZM316.685 64.9992L314.183 59.0152L311.681 53.0302L313.14 59.3482L314.6 65.6662C315.266 68.5472 314.848 71.4582 313.579 73.9362C312.274 76.4858 310.107 78.4906 307.464 79.5952L301.479 82.0952L295.495 84.5972L301.813 83.1382L308.131 81.6792C310.922 81.0318 313.852 81.3942 316.4 82.7022C318.95 84.0081 320.956 86.1749 322.06 88.8182L324.562 94.8032L327.064 100.787L325.604 94.4692L324.144 88.1512C323.496 85.3608 323.859 82.431 325.166 79.8822C326.472 77.3322 328.638 75.3269 331.281 74.2222L337.265 71.7222L343.25 69.2202L336.932 70.6802L330.614 72.1382C327.824 72.7859 324.894 72.4234 322.345 71.1152C319.795 69.8093 317.79 67.6426 316.685 64.9992ZM347.515 89.2782L347.883 88.6482L348.251 88.0182L348.499 88.7242L348.748 89.4312C349.068 90.3282 349.546 91.1572 350.141 91.8832C350.743 92.6156 351.47 93.2346 352.289 93.7112L352.937 94.0852L353.584 94.4592L352.894 94.7042L352.204 94.9502C351.314 95.2683 350.484 95.7371 349.752 96.3362C349.022 96.9394 348.401 97.664 347.917 98.4782L347.529 99.1362L347.14 99.7952L346.892 99.0882L346.644 98.3812C346.323 97.4903 345.852 96.6609 345.25 95.9292C344.647 95.1989 343.92 94.5801 343.102 94.1012L342.455 93.7272L341.807 93.3542L342.521 93.0962L343.234 92.8382C344.126 92.5179 344.955 92.0433 345.683 91.4362C346.411 90.8299 347.028 90.1025 347.508 89.2862L347.515 89.2782Z" fill="white"/>
</g>
</g>
<defs>
<radialGradient id="paint0_radial_553_630" cx="0" cy="0" r="1" gradientUnits="userSpaceOnUse" gradientTransform="translate(402 170) rotate(-103.465) scale(146.014 431.674)">
<stop stop-color="#FFA14A"/>
<stop offset="1" stop-color="#0069FF" stop-opacity="0"/>
</radialGradient>
<linearGradient id="paint1_linear_553_630" x1="423.501" y1="196.999" x2="33.5008" y2="194.499" gradientUnits="userSpaceOnUse">
<stop offset="0.17" stop-color="white"/>
<stop offset="1" stop-color="white" stop-opacity="0"/>
</linearGradient>
<radialGradient id="paint2_radial_553_630" cx="0" cy="0" r="1" gradientUnits="userSpaceOnUse" gradientTransform="translate(272.001 112.446) rotate(90) scale(115.865 207.168)">
<stop stop-color="#C6E3FF"/>
<stop offset="1" stop-color="#C6E3FF" stop-opacity="0"/>
</radialGradient>
<linearGradient id="paint3_linear_553_630" x1="326.635" y1="97.9356" x2="367.715" y2="81.3436" gradientUnits="userSpaceOnUse">
<stop offset="0.01" stop-color="#0069FF"/>
<stop offset="0.808" stop-color="white" stop-opacity="0"/>
</linearGradient>
<linearGradient id="paint4_linear_553_630" x1="352.705" y1="89.6863" x2="400.264" y2="52.6193" gradientUnits="userSpaceOnUse">
<stop offset="0.01" stop-color="#0069FF"/>
<stop offset="0.808" stop-color="white" stop-opacity="0"/>
</linearGradient>
<linearGradient id="paint5_linear_553_630" x1="421.546" y1="158.869" x2="417.065" y2="194.336" gradientUnits="userSpaceOnUse">
<stop stop-color="#FFD8B5"/>
<stop offset="0.978" stop-color="#0069FF"/>
</linearGradient>
<linearGradient id="paint6_linear_553_630" x1="198.581" y1="123.48" x2="213.159" y2="132.387" gradientUnits="userSpaceOnUse">
<stop stop-color="#FFD8B5"/>
<stop offset="0.978" stop-color="#0069FF"/>
</linearGradient>
<clipPath id="clip0_553_630">
<rect width="544" height="216" fill="white"/>
</clipPath>
</defs>
</svg>
