<svg width="544" height="216" viewBox="0 0 544 216" fill="none" xmlns="http://www.w3.org/2000/svg">
<g clip-path="url(#clip0_553_588)">
<mask id="mask0_553_588" style="mask-type:luminance" maskUnits="userSpaceOnUse" x="0" y="0" width="544" height="216">
<path d="M0 0H544V216H0V0Z" fill="white"/>
</mask>
<g mask="url(#mask0_553_588)">
<path d="M61.769 -73.1016C61.769 -73.1016 132.178 142.053 323.905 73.6104C515.632 5.16744 602.341 6.37443 655.031 134.138L608.759 344.17L-0.583984 209.928L61.769 -73.1016Z" fill="url(#paint0_radial_553_588)"/>
<path d="M747.467 209.239C747.02 254.108 563.882 288.662 338.417 286.417C112.952 284.172 -69.4618 245.977 -69.0148 201.108C-68.5678 156.239 114.57 121.685 340.035 123.93C565.5 126.175 747.914 164.369 747.467 209.239Z" fill="url(#paint1_linear_553_588)"/>
<path d="M402.036 170.009L188.046 151.395L166.827 158.199L168.419 160.056L163.486 162.631L181.756 168.363L173.166 169.167L234.421 183.921L277.132 189.553L304.425 187.753L302.287 184.374L340.402 191.866L371.171 188.71L381.261 189.631L398.275 186.005L400.638 185.592L408.865 185.907C424.383 187.856 438.577 187.749 438.577 187.749L437.516 186.636L456.265 187.573L459.563 187.099L463.136 187.666L471.533 187.273L456.973 182.148L460.814 181.671L402.029 170.007L402.036 170.009Z" fill="#000C2A"/>
<path d="M202.068 181.405L435.602 176.82L457.902 168.114L455.994 166.41L461.081 163.396L440.735 159.35L449.955 157.768L382.181 151.806L335.385 146.92L306.015 151.195L308.664 154.365L266.66 150.37L233.661 156.31H222.646L204.585 161.468L202.068 162.095L193.13 162.529C176.137 161.999 160.781 163.396 160.781 163.396L162.04 164.409L141.649 165.18L138.126 165.951L134.202 165.712L125.15 166.867L141.419 170.646L137.308 171.471L148.618 187.258L202.068 181.405Z" fill="#000C2A"/>
<path d="M201.333 65.6905C201.333 65.6905 195.703 79.1585 213.723 85.5505C228.192 90.6835 226.835 103.182 225.735 107.913C224.904 111.489 225.298 115.263 226.995 118.513C231.056 126.304 240.603 130.648 244.571 132.911C246.196 133.841 247.812 134.793 248.992 136.246C251.378 139.183 255.889 145.484 251.313 152.363C241.861 166.574 250.48 177.654 250.48 177.654L247.695 180.031C247.695 180.031 234.586 164.543 243.676 151.048C252.765 137.554 233.206 131.555 233.206 131.555C215.856 126.946 211.992 118.271 212.279 111.016C212.445 106.847 210.731 102.836 207.727 99.9425C201.806 94.2465 194.457 83.0225 201.33 65.6875L201.333 65.6905Z" fill="#75EEFF"/>
<path d="M215.788 121.865C222.611 120.972 218.487 108.168 217.485 105.054C217.398 104.786 217.335 104.589 217.304 104.479C217.216 104.167 217.162 103.515 217.089 102.639C216.83 99.5196 216.335 93.5666 213.264 90.0886C211.257 87.8166 209.536 85.1576 208.338 83.0586C209.842 83.9636 211.622 84.8056 213.723 85.5506C228.192 90.6836 226.835 103.183 225.735 107.913C224.904 111.49 225.298 115.264 226.995 118.514C230.539 125.315 238.264 129.489 242.81 131.945C243.472 132.303 244.067 132.624 244.571 132.912L244.808 133.048L241.451 135.913C237.76 132.952 233.206 131.556 233.206 131.556C224.204 129.165 218.833 125.679 215.788 121.865Z" fill="#0BE1FF"/>
<path d="M212.486 92.1596C214.179 93.7946 215.597 95.6866 216.447 97.8936C217.925 101.745 217.892 105.927 218.635 109.936C218.997 111.9 219.566 113.83 220.6 115.55C221.954 117.805 224.038 119.525 226.134 121.07C226.669 121.466 227.212 121.85 227.754 122.24C228.358 122.671 227.713 123.623 227.109 123.192C224.897 121.62 222.647 120.009 220.895 117.912C219.424 116.157 218.475 114.118 217.9 111.918C216.849 107.896 216.987 103.662 215.842 99.6596C215.223 97.4976 214.127 95.5826 212.614 93.9196C210.898 92.0396 208.839 90.5236 206.876 88.9196C204.985 87.3766 203.132 85.7346 201.749 83.7016C200.577 81.9725 199.707 80.0574 199.174 78.0376C198.989 77.3414 198.843 76.6353 198.738 75.9226C198.979 73.6806 199.43 71.4662 200.085 69.3086C199.566 71.7307 199.549 74.2337 200.036 76.6626C200.425 78.6226 201.144 80.5021 202.163 82.2206C203.323 84.1736 204.938 85.7936 206.663 87.2536C208.603 88.8936 210.666 90.3886 212.498 92.1536L212.486 92.1596Z" fill="#1433D6"/>
<path d="M217.567 91.5862C215.927 90.3022 214.884 88.8962 215.237 88.4452C215.591 87.9932 217.206 88.6682 218.846 89.9512C220.486 91.2352 221.529 92.6412 221.176 93.0922C220.822 93.5442 219.207 92.8692 217.567 91.5862Z" fill="url(#paint2_linear_553_588)"/>
<path fill-rule="evenodd" clip-rule="evenodd" d="M200.577 71.9645C200.2 68.4005 201.333 65.6915 201.333 65.6915L201.33 65.6875C194.457 83.0235 201.806 94.2465 207.727 99.9435C210.731 102.837 212.445 106.849 212.279 111.018C211.992 118.273 215.856 126.948 233.206 131.557C233.206 131.557 252.765 137.554 243.676 151.049C234.587 164.544 247.695 180.032 247.695 180.032L248.21 179.592C246.611 177.583 235.96 163.36 244.386 150.85C253.476 137.355 233.917 131.357 233.917 131.357C216.566 126.747 212.703 118.074 212.99 110.818C213.155 106.649 212.152 102.438 209.148 99.5445C203.877 94.4725 197.142 85.9965 200.577 71.9645Z" fill="white"/>
<path d="M248.434 179.253C245.541 174.917 239.87 173.398 234.663 173.145C229.456 172.892 224.121 173.546 219.104 172.129C214.086 170.713 209.323 166.333 209.786 161.14C210.089 157.795 212.407 155.045 214.263 152.244C216.119 149.443 217.596 145.817 216.096 142.81C215.212 141.04 213.446 139.868 211.633 139.072C207.921 137.443 203.807 137.06 199.786 136.526C195.767 135.996 191.642 135.243 188.253 133.014C184.866 130.788 182.385 126.722 183.164 122.743C183.785 119.578 186.269 116.158 184.418 113.513C183.433 112.109 181.598 111.662 180.044 110.931C177.148 109.568 174.912 106.872 174.114 103.773C173.514 101.446 173.668 98.8884 172.498 96.7894C171.227 94.5074 168.684 93.2894 166.262 92.3144C161.736 90.4944 157.042 89.0114 152.814 86.5794C148.586 84.1474 144.766 80.5754 143.246 75.9414C143.246 75.9414 148.042 86.4224 170.63 80.6884C173.429 79.9764 177.045 80.8734 178.306 83.4724C179.212 85.3454 178.454 87.6214 178.999 89.6324C180.022 93.4024 184.802 94.4764 188.706 94.5824C192.61 94.6884 197.258 94.9064 199.29 98.2394C200.178 99.6994 200.341 101.48 200.393 103.191C200.593 109.606 199.698 116.407 202.607 122.127C205.78 128.376 212.705 131.718 219.386 133.839C221.276 134.442 223.272 135.027 224.679 136.429C227.307 139.049 226.884 143.388 225.867 146.952C224.853 150.52 223.426 154.314 224.633 157.822C225.612 160.657 228.165 162.681 230.86 164C233.555 165.32 236.489 166.094 239.192 167.391C242.381 168.923 245.19 171.144 247.417 173.893L249.96 177.934L248.426 179.244L248.434 179.253Z" fill="#75EEFF"/>
<path d="M248.434 179.253C245.541 174.917 239.87 173.398 234.663 173.145C229.456 172.892 224.121 173.546 219.104 172.129C214.086 170.713 209.323 166.333 209.786 161.14C210.089 157.795 212.407 155.045 214.263 152.244C216.119 149.443 217.596 145.817 216.096 142.81C215.212 141.04 213.446 139.868 211.633 139.072C207.921 137.443 203.807 137.06 199.786 136.526C195.767 135.996 191.642 135.243 188.253 133.014C184.866 130.788 182.385 126.722 183.164 122.743C183.785 119.578 186.269 116.158 184.418 113.513C183.433 112.109 181.598 111.662 180.044 110.931C177.148 109.568 174.912 106.872 174.114 103.773C173.514 101.446 173.668 98.8884 172.498 96.7894C171.227 94.5074 168.684 93.2894 166.262 92.3144C161.736 90.4944 157.042 89.0114 152.814 86.5794C148.586 84.1474 144.766 80.5754 143.246 75.9414C143.246 75.9414 148.042 86.4224 170.63 80.6884C173.429 79.9764 177.045 80.8734 178.306 83.4724C179.212 85.3454 178.454 87.6214 178.999 89.6324C180.022 93.4024 184.802 94.4764 188.706 94.5824C192.61 94.6884 197.258 94.9064 199.29 98.2394C200.178 99.6994 200.341 101.48 200.393 103.191C200.593 109.606 199.698 116.407 202.607 122.127C205.78 128.376 212.705 131.718 219.386 133.839C221.276 134.442 223.272 135.027 224.679 136.429C227.307 139.049 226.884 143.388 225.867 146.952C224.853 150.52 223.426 154.314 224.633 157.822C225.612 160.657 228.165 162.681 230.86 164C233.555 165.32 236.489 166.094 239.192 167.391C242.381 168.923 245.19 171.144 247.417 173.893L249.96 177.934L248.426 179.244L248.434 179.253Z" fill="#75EEFF"/>
<path d="M248.426 179.242L248.433 179.252L248.425 179.243L248.426 179.242ZM209.474 138.268C210.206 138.497 210.926 138.761 211.632 139.071C213.445 139.867 215.211 141.039 216.095 142.81C217.595 145.816 216.119 149.442 214.262 152.243C213.947 152.72 213.618 153.194 213.288 153.671C211.676 155.997 210.036 158.363 209.785 161.139C209.323 166.332 214.085 170.712 219.103 172.129C222.592 173.114 226.234 173.098 229.88 173.082C231.477 173.074 233.076 173.067 234.662 173.145C239.865 173.398 245.531 174.914 248.426 179.242L249.959 177.933L247.416 173.892C245.189 171.143 242.38 168.922 239.191 167.39C237.868 166.756 236.489 166.246 235.111 165.736C233.673 165.205 232.235 164.673 230.859 164C228.164 162.68 225.611 160.656 224.632 157.822C223.569 154.732 224.549 151.422 225.491 148.239C225.619 147.807 225.744 147.378 225.866 146.952C226.884 143.387 227.306 139.048 224.678 136.428C223.341 135.095 221.47 134.501 219.664 133.927L219.385 133.838C212.705 131.717 205.779 128.375 202.606 122.127C200.348 117.685 200.382 112.592 200.417 107.535C200.427 106.078 200.437 104.625 200.392 103.19C200.34 101.48 200.177 99.6985 199.289 98.2395C197.258 94.9055 192.609 94.6875 188.705 94.5815C186.79 94.5295 184.663 94.2445 182.873 93.5215C182.957 95.9515 183.863 99.9055 187.104 102.035C191.599 104.988 192.727 109.062 193.341 111.277L193.422 111.568C193.518 111.912 193.608 112.426 193.72 113.071C194.306 116.427 195.504 123.304 201.457 127.902C203.138 129.2 204.841 130.351 206.367 131.383C211.083 134.571 214.1 136.61 209.474 138.268Z" fill="#0BE1FF"/>
<path d="M219.586 141.793C219.761 142.513 218.629 142.715 218.451 141.997C217.524 138.211 214.043 135.868 210.88 134.007C207.545 132.04 204.182 130.19 201.194 127.702C198.35 125.331 195.806 122.474 194.359 119.027C192.97 115.718 193.059 112.142 192.172 108.712C191.765 107.128 191.057 105.609 189.834 104.485C188.707 103.45 187.261 102.852 185.829 102.38C182.901 101.419 179.658 100.92 177.291 98.7863C174.443 96.2163 173.807 92.1593 171.279 89.3603C168.899 86.7203 165.164 86.1303 161.819 85.6793C158.165 85.1893 154.565 84.5823 151.136 83.1573C148.84 82.2013 146.629 80.9203 144.791 79.2313C144.145 78.2026 143.626 77.0992 143.246 75.9453C143.246 75.9453 144.322 78.2953 147.852 80.1613C151.596 82.5993 156.304 83.7903 160.622 84.3613C164.027 84.8113 167.72 85.1793 170.601 87.2313C173.774 89.4913 174.582 93.3513 176.717 96.3933C177.661 97.7463 178.964 98.8083 180.479 99.4593C181.926 100.089 183.462 100.478 184.971 100.917C186.457 101.349 187.941 101.837 189.269 102.645C190.626 103.472 191.721 104.667 192.426 106.091C193.974 109.187 193.812 112.792 194.596 116.101C195.471 119.794 197.713 122.942 200.434 125.516C203.246 128.178 206.556 130.238 209.909 132.134C213.157 133.973 216.682 135.981 218.6 139.323C219.046 140.097 219.36 140.935 219.571 141.801L219.586 141.793Z" fill="#1433D6"/>
<path d="M186.479 127.214C185.906 127.231 185.404 125.981 185.357 124.421C185.31 122.862 185.737 121.584 186.309 121.567C186.882 121.55 187.385 122.8 187.432 124.359C187.479 125.918 187.052 127.196 186.479 127.214Z" fill="url(#paint3_linear_553_588)"/>
<path d="M213.997 166.513C213.126 166.675 212.129 165.228 211.769 163.283C211.409 161.338 211.822 159.63 212.692 159.469C213.563 159.308 214.56 160.754 214.92 162.699C215.28 164.644 214.867 166.352 213.997 166.513Z" fill="url(#paint4_linear_553_588)"/>
<path fill-rule="evenodd" clip-rule="evenodd" d="M221.585 134.576C220.952 134.341 220.311 134.125 219.665 133.926L219.386 133.837C216.802 133.017 214.182 132.014 211.756 130.731C213.79 132.123 216.092 133.216 218.675 134.036C219.323 134.242 220.233 134.377 221.206 134.52L221.585 134.576ZM148.554 80.5044C150.267 82.7144 152.476 84.5584 154.946 85.9784C157.87 87.6604 160.581 88.6435 163.473 89.6925C164.762 90.1605 166.088 90.6415 167.483 91.2025C169.906 92.1775 172.648 94.1065 173.919 96.3885C174.666 97.7285 174.874 99.2545 175.082 100.788C175.2 101.658 175.318 102.53 175.535 103.371C176.333 106.471 178.569 109.167 181.465 110.529C181.829 110.7 182.208 110.856 182.588 111.011C183.831 111.522 185.084 112.036 185.839 113.112C187.127 114.953 186.316 117.168 185.494 119.413C185.135 120.393 184.774 121.379 184.586 122.342C183.806 126.32 186.287 130.386 189.674 132.612C193.063 134.841 197.188 135.594 201.207 136.125C203.674 136.452 205.373 136.948 207.175 137.658C205.191 137.219 203.155 136.958 201.128 136.698C200.68 136.642 200.233 136.584 199.786 136.524C195.767 135.994 191.642 135.241 188.253 133.012C184.866 130.786 182.385 126.72 183.165 122.741C183.353 121.779 183.714 120.793 184.073 119.812C184.895 117.568 185.706 115.352 184.418 113.511C183.663 112.436 182.41 111.921 181.166 111.411C180.787 111.255 180.408 111.1 180.044 110.929C177.148 109.566 174.912 106.87 174.114 103.771C173.897 102.929 173.779 102.057 173.661 101.188C173.452 99.6545 173.245 98.1275 172.498 96.7875C171.227 94.5055 168.684 93.2874 166.262 92.3124C165.073 91.8344 163.872 91.3795 162.672 90.9245C159.302 89.6475 155.931 88.3705 152.814 86.5775C148.586 84.1455 144.766 80.5735 143.246 75.9395C143.246 75.9395 144.462 78.5974 148.554 80.5044ZM212.044 155.509C210.914 157.261 209.972 159.087 209.786 161.138C209.323 166.331 214.086 170.711 219.104 172.127C222.592 173.112 226.235 173.096 229.881 173.08C231.478 173.073 233.076 173.066 234.663 173.143C239.865 173.396 245.532 174.913 248.427 179.241L249.488 178.335C246.5 174.394 241.079 172.987 236.084 172.744C234.498 172.667 232.899 172.674 231.302 172.681C227.656 172.697 224.014 172.713 220.525 171.728C215.508 170.311 210.745 165.932 211.207 160.738L211.212 160.689C211.395 158.663 211.539 157.074 212.044 155.509Z" fill="white"/>
<path d="M221.459 176.919L224.954 87.0889C225.032 85.0953 225.878 83.2092 227.316 81.826C228.754 80.4429 230.672 79.6702 232.667 79.6699H337.421C339.416 79.6702 341.334 80.4429 342.772 81.826C344.21 83.2092 345.056 85.0953 345.134 87.0889L348.629 176.919C348.67 177.957 348.5 178.992 348.131 179.963C347.761 180.934 347.2 181.821 346.48 182.57C345.76 183.318 344.896 183.914 343.94 184.321C342.984 184.727 341.956 184.937 340.917 184.937H229.171C228.132 184.937 227.104 184.727 226.148 184.321C225.192 183.914 224.328 183.318 223.608 182.57C222.888 181.821 222.327 180.934 221.957 179.963C221.588 178.992 221.418 177.957 221.459 176.919Z" fill="url(#paint5_linear_553_588)"/>
<path d="M347.782 155.128C291.62 212.482 202.197 127.837 262.538 79.6699H234.698C224.876 79.6699 225.081 83.8419 224.876 89.1189L221.545 174.725C221.328 180.299 225.788 184.937 231.368 184.937H338.722C344.301 184.937 348.761 180.299 348.544 174.725L347.782 155.128Z" fill="url(#paint6_linear_553_588)"/>
<path d="M347.167 139.374C312.033 133.748 274.401 110.556 262.781 79.6699H335.388C337.929 79.6698 340.372 80.6538 342.203 82.4155C344.035 84.1772 345.113 86.5797 345.211 89.1189L347.167 139.374Z" fill="url(#paint7_linear_553_588)"/>
<path d="M326.685 69.6357H307.858V63.4517H317.527C318.395 63.4517 318.736 62.3177 318.014 61.8317L307.858 52.9817V50.0167C307.858 38.7127 298.695 25.3987 287.39 25.3987C276.893 25.3987 260.425 34.1307 259.335 43.4207V79.6317H247.426V50.0177C247.426 27.9457 265.318 10.0527 287.39 10.0527C309.462 10.0527 326.491 27.9457 326.491 50.0177L326.685 69.6357Z" fill="white"/>
<path d="M326.616 69.6357H304.58V63.4517H314.658C315.527 63.4517 315.868 62.3177 315.145 61.8317L304.58 52.6257V50.0177C304.58 38.7127 295.417 29.5497 284.113 29.5497C272.808 29.5497 263.645 38.7127 263.645 50.0177V79.6307H244.148V50.0177C244.148 27.9457 262.041 10.0527 284.113 10.0527C306.184 10.0527 322.315 26.4227 324.773 50.0177L326.616 69.6357Z" fill="url(#paint8_linear_553_588)"/>
<path fill-rule="evenodd" clip-rule="evenodd" d="M261.344 17.168C247.847 34.041 249.797 60.36 263.645 79.533V79.631H244.148V50.016C244.148 36.406 250.952 24.384 261.344 17.168Z" fill="#000C2A"/>
<path d="M348.298 168.306L346.213 89.1189C346.114 86.5797 345.036 84.1772 343.205 82.4155C341.373 80.6538 338.931 79.6698 336.39 79.6699H304.885L330.163 82.8299C332.311 83.0985 334.311 84.0688 335.851 85.5902C337.392 87.1116 338.387 89.0991 338.682 91.2439L348.298 168.306Z" fill="white"/>
<path d="M347.051 89.6535L351.186 92.4084L355.321 95.1635L351.709 91.7534L348.097 88.3435C346.499 86.8387 345.487 84.8167 345.24 82.6365C344.99 80.4563 345.521 78.2582 346.739 76.4325L349.494 72.2975L352.249 68.1635L348.839 71.7745L345.429 75.3855C343.923 76.9824 341.901 77.9943 339.721 78.2415C337.54 78.4898 335.342 77.9592 333.516 76.7435L329.381 73.9885L325.246 71.2325L328.858 74.6425L332.47 78.0525C334.066 79.5577 335.078 81.5795 335.327 83.7596C335.575 85.9397 335.044 88.1375 333.828 89.9635L331.073 94.0984L328.317 98.2335L331.728 94.6215L335.138 91.0105C336.643 89.4135 338.665 88.4016 340.846 88.1544C343.026 87.9064 345.224 88.4374 347.051 89.6535ZM322.416 27.6765L324.847 27.8925L327.277 28.1085L324.919 27.4865L322.56 26.8655C321.517 26.5924 320.605 25.958 319.987 25.0755C319.367 24.1943 319.079 23.1224 319.175 22.0495L319.391 19.6195L319.607 17.1895L318.985 19.5475L318.364 21.9055C318.09 22.9477 317.455 23.8592 316.574 24.4785C315.692 25.0986 314.62 25.3866 313.547 25.2915L311.116 25.0755L308.686 24.8595L311.045 25.4795L313.404 26.1015C314.446 26.3748 315.358 27.0085 315.977 27.8901C316.597 28.7717 316.884 29.8442 316.789 30.9175L316.573 33.3475L316.356 35.7775L316.978 33.4195L317.599 31.0615C317.872 30.019 318.506 29.107 319.388 28.4874C320.269 27.8678 321.342 27.5805 322.416 27.6765Z" fill="white"/>
<g filter="url(#filter0_i_553_588)">
<path fill-rule="evenodd" clip-rule="evenodd" d="M268.694 100.887L261.863 105.44V150.978L268.694 155.532H275.524V150.978H293.739V155.532H300.57L307.401 150.978V105.44L300.57 100.887H268.694ZM268.694 109.994C269.298 109.994 269.877 109.754 270.304 109.327C270.731 108.9 270.971 108.321 270.971 107.717C270.971 107.113 270.731 106.534 270.304 106.107C269.877 105.68 269.298 105.44 268.694 105.44C268.09 105.44 267.511 105.68 267.084 106.107C266.657 106.534 266.417 107.113 266.417 107.717C266.417 108.321 266.657 108.9 267.084 109.327C267.511 109.754 268.09 109.994 268.694 109.994ZM302.847 107.717C302.847 108.32 302.608 108.9 302.181 109.327C301.754 109.754 301.175 109.994 300.571 109.994C299.967 109.994 299.388 109.754 298.961 109.327C298.534 108.9 298.294 108.321 298.294 107.718C298.294 107.419 298.353 107.123 298.467 106.846C298.582 106.57 298.749 106.319 298.961 106.108C299.172 105.896 299.423 105.729 299.699 105.614C299.975 105.5 300.271 105.441 300.57 105.441C300.869 105.441 301.165 105.499 301.441 105.614C301.718 105.728 301.969 105.896 302.18 106.107C302.392 106.318 302.559 106.569 302.674 106.846C302.788 107.122 302.847 107.418 302.847 107.717ZM302.847 148.701C302.847 149.304 302.608 149.884 302.181 150.311C301.97 150.522 301.719 150.69 301.442 150.804C301.166 150.919 300.87 150.978 300.571 150.978C299.967 150.978 299.388 150.738 298.961 150.311C298.534 149.884 298.294 149.305 298.294 148.702C298.294 148.098 298.534 147.519 298.961 147.092C299.388 146.665 299.967 146.425 300.57 146.425C301.174 146.425 301.753 146.664 302.18 147.091C302.607 147.518 302.847 148.097 302.847 148.701ZM270.971 148.701C270.971 149 270.912 149.296 270.798 149.572C270.684 149.848 270.516 150.099 270.304 150.311C270.093 150.522 269.842 150.69 269.566 150.804C269.289 150.919 268.993 150.978 268.694 150.978C268.395 150.978 268.099 150.919 267.823 150.804C267.547 150.69 267.296 150.522 267.084 150.311C266.873 150.099 266.705 149.848 266.591 149.572C266.476 149.296 266.417 149 266.417 148.701C266.417 148.097 266.657 147.518 267.084 147.091C267.511 146.664 268.09 146.424 268.694 146.424C269.298 146.424 269.877 146.664 270.304 147.091C270.731 147.518 270.971 148.097 270.971 148.701ZM296.016 118.872V137.546L295.517 138.17L293.241 141.016L292.557 141.87H276.707L276.023 141.016L273.747 138.17L273.248 137.546V118.872L273.747 118.249L276.023 115.403L276.707 114.548H292.557L293.241 115.403L295.517 118.249L296.016 118.872ZM291.463 116.825L293.739 119.671V128.209H275.524V119.671L277.801 116.825H291.463ZM275.524 136.748V130.486H293.739V136.748L291.463 139.594H277.801L275.524 136.748Z" fill="#081B4B"/>
</g>
<path d="M374.509 180.229L159.714 181.149L139.201 189.855L140.955 191.559L136.277 194.573L154.992 198.619L146.511 200.201L208.853 209.324L251.9 211.048L278.916 206.774L276.48 203.604L315.118 207.599L345.472 201.658H355.605L372.218 196.501L374.534 195.874L382.755 195.44C398.387 195.97 412.512 194.573 412.512 194.573L411.354 193.56L430.111 192.789L433.352 192.017L436.962 192.257L445.288 191.101L430.323 187.322L434.104 186.498L374.502 180.227L374.509 180.229Z" fill="#000C2A"/>
<path d="M152.094 195.636L385.602 194.715L407.902 186.009L405.994 184.305L411.081 181.292L390.735 177.246L399.955 175.663L322.679 164.037L291.55 174.206L256.657 164.037L260.252 171.015L235.998 159.48L213.777 171.015L183.661 174.206H172.646L154.585 179.364L152.068 179.99L143.13 180.424C126.137 179.894 110.781 181.292 110.781 181.292L112.04 182.304L91.6504 183.075L88.1254 183.847L84.2024 183.607L75.1504 184.763L91.4184 188.542L87.3084 189.367L152.102 195.637L152.094 195.636Z" fill="#000C2A"/>
<path d="M380.139 121.465C380.139 121.465 378.854 129.833 366.458 131.989C354.062 134.145 347.618 135.847 344.359 144.266C341.1 152.685 347.862 164.792 347.862 164.792C347.862 164.792 346.479 151.744 351.726 145.669C358.39 137.952 369.088 140.227 375.228 135.847C381.815 131.148 380.32 124.552 380.139 121.465Z" fill="#B5F6FF"/>
<path d="M369.984 138.122C371.302 137.459 372.568 136.699 373.771 135.847C378.643 132.372 379.094 127.859 378.925 124.495C379.937 122.777 380.138 121.465 380.138 121.465C380.159 121.807 380.195 122.191 380.234 122.611C380.552 125.988 381.086 131.668 375.228 135.847C373.714 136.927 371.923 137.602 369.984 138.122Z" fill="white"/>
<path d="M347.518 166.117C347.518 166.117 351.964 154.02 362.648 158.195C373.331 162.371 375.971 155.841 375.971 148.826C373.028 152.914 370.842 156.746 359.916 152.186C348.99 147.626 347.518 166.11 347.518 166.11V166.117Z" fill="#B5F6FF"/>
<path d="M367.789 159.479C374.218 159.936 375.971 154.542 375.971 148.826L375.642 149.285C375.238 149.85 374.842 150.404 374.428 150.926C374.046 155.344 372.324 159.124 367.789 159.479ZM368.622 154.237C366.527 154.357 363.763 153.792 359.915 152.186C357.78 151.295 356.006 151.284 354.533 151.843C355.683 151.732 356.984 151.935 358.458 152.55C363.272 154.559 366.389 154.869 368.622 154.237Z" fill="white"/>
<path d="M389.845 169.889C392.564 169.889 395.119 168.998 395.119 168.093C395.119 167.187 392.564 166.611 389.845 166.611C387.125 166.611 384.921 167.345 384.921 168.25C384.921 169.155 387.125 169.889 389.845 169.889ZM370.294 175.859C370.294 175.859 368.244 162.466 341.43 162.202C327.479 162.067 306.15 174.805 312.416 180.589C318.681 186.373 375.029 189.7 370.659 176.77L370.294 175.859Z" fill="#000C2A"/>
<path d="M370.358 175.91C370.358 175.91 367.632 160.316 341.647 160.052C328.127 159.917 307.457 172.657 313.529 178.442C319.601 184.227 375.388 187.594 370.358 175.902V175.91Z" fill="#0069FF"/>
<path d="M328.53 162.846C325.984 164.917 324.809 167.222 326.038 169.362C328.56 173.757 348.963 181.13 362.64 182.473C347.954 185.51 317.895 182.601 313.53 178.442C309.27 174.384 318.17 166.903 328.53 162.846Z" fill="#000C2A"/>
<path d="M341.637 160.051C366.26 160.931 369.203 176.77 369.203 176.77C369.385 178.227 369.232 179.5 368.354 180.53C370.356 179.362 371.143 178.185 370.66 175.677C370.66 175.677 367.633 160.315 341.648 160.051H341.637Z" fill="white"/>
</g>
</g>
<defs>
<filter id="filter0_i_553_588" x="261.863" y="100.887" width="45.5371" height="54.6445" filterUnits="userSpaceOnUse" color-interpolation-filters="sRGB">
<feFlood flood-opacity="0" result="BackgroundImageFix"/>
<feBlend mode="normal" in="SourceGraphic" in2="BackgroundImageFix" result="shape"/>
<feColorMatrix in="SourceAlpha" type="matrix" values="0 0 0 0 0 0 0 0 0 0 0 0 0 0 0 0 0 0 127 0" result="hardAlpha"/>
<feOffset/>
<feGaussianBlur stdDeviation="1.608"/>
<feComposite in2="hardAlpha" operator="arithmetic" k2="-1" k3="1"/>
<feColorMatrix type="matrix" values="0 0 0 0 0 0 0 0 0 0 0 0 0 0 0 0 0 0 0.75 0"/>
<feBlend mode="normal" in2="shape" result="effect1_innerShadow_553_588"/>
</filter>
<radialGradient id="paint0_radial_553_588" cx="0" cy="0" r="1" gradientUnits="userSpaceOnUse" gradientTransform="translate(375.006 21.2356) rotate(116.303) scale(136.196 261.89)">
<stop stop-color="#0069FF"/>
<stop offset="1" stop-color="#0069FF" stop-opacity="0"/>
</radialGradient>
<linearGradient id="paint1_linear_553_588" x1="484.061" y1="107.485" x2="340.984" y2="307.587" gradientUnits="userSpaceOnUse">
<stop stop-color="#C6E3FF"/>
<stop offset="1" stop-color="#0069FF" stop-opacity="0"/>
</linearGradient>
<linearGradient id="paint2_linear_553_588" x1="198.168" y1="107.36" x2="219.155" y2="86.9882" gradientUnits="userSpaceOnUse">
<stop stop-color="white"/>
<stop offset="1" stop-color="white" stop-opacity="0"/>
</linearGradient>
<linearGradient id="paint3_linear_553_588" x1="182.727" y1="124.565" x2="187.798" y2="123.141" gradientUnits="userSpaceOnUse">
<stop stop-color="white"/>
<stop offset="1" stop-color="white" stop-opacity="0"/>
</linearGradient>
<linearGradient id="paint4_linear_553_588" x1="208.57" y1="168.468" x2="215.246" y2="160.158" gradientUnits="userSpaceOnUse">
<stop stop-color="white"/>
<stop offset="1" stop-color="white" stop-opacity="0"/>
</linearGradient>
<linearGradient id="paint5_linear_553_588" x1="285.044" y1="79.6699" x2="285.044" y2="151.717" gradientUnits="userSpaceOnUse">
<stop stop-color="#0069FF"/>
<stop offset="1" stop-color="#1433D6"/>
</linearGradient>
<linearGradient id="paint6_linear_553_588" x1="228.315" y1="184.937" x2="276.213" y2="161.33" gradientUnits="userSpaceOnUse">
<stop stop-color="#000C2A"/>
<stop offset="1" stop-color="#1534D7"/>
</linearGradient>
<linearGradient id="paint7_linear_553_588" x1="332.767" y1="77.4199" x2="295.71" y2="116.126" gradientUnits="userSpaceOnUse">
<stop stop-color="#B5F6FF"/>
<stop offset="1" stop-color="#0BE1FF" stop-opacity="0"/>
</linearGradient>
<linearGradient id="paint8_linear_553_588" x1="322.102" y1="19.5687" x2="239.928" y2="98.8307" gradientUnits="userSpaceOnUse">
<stop stop-color="#75EEFF"/>
<stop offset="0.935" stop-color="#1433D6"/>
<stop offset="1" stop-color="#000C79"/>
</linearGradient>
<clipPath id="clip0_553_588">
<rect width="544" height="216" fill="white"/>
</clipPath>
</defs>
</svg>
