<svg width="1793" height="115" viewBox="0 0 1793 115" fill="none" xmlns="http://www.w3.org/2000/svg">
<path d="M498.996 112.862L91.8872 24.0209C91.1137 23.8521 90.5669 24.7608 91.0783 25.3652L166.252 114.207C166.409 114.393 166.641 114.5 166.884 114.5H498.819C499.811 114.5 499.965 113.074 498.996 112.862Z" fill="#372DD0"/>
<path d="M432.259 112.87L1.03757 0.270928C0.512726 0.133882 0 0.529915 0 1.07236V113.672C0 114.129 0.370837 114.5 0.828296 114.5H432.049C433.021 114.5 433.199 113.116 432.259 112.87Z" fill="#4F46E5"/>
<path d="M1438.5 20.5C1255.74 -13.1252 1027.26 67.5216 932.614 113.477C931.826 113.86 932.182 114.998 933.059 114.998L1788.87 114.502C1789.77 114.502 1790.03 113.278 1789.19 112.94C1744.32 94.8524 1617.93 53.5124 1438.5 20.5Z" fill="#372DD0"/>
<path d="M1219 20C1036.24 -13.6252 807.765 67.0216 713.114 112.977C712.326 113.36 712.682 114.498 713.559 114.498L1569.37 114.002C1570.27 114.002 1570.53 112.778 1569.69 112.44C1524.82 94.3524 1398.43 53.0124 1219 20Z" fill="#4F46E5"/>
</svg>
