<svg xmlns="http://www.w3.org/2000/svg" version="1.1" xmlns:xlink="http://www.w3.org/1999/xlink" width="32" height="32"><svg width="32" height="32" viewBox="0 0 32 32" fill="none" xmlns="http://www.w3.org/2000/svg">
<g clip-path="url(#clip0_602_6977)">
<rect width="32" height="32" rx="16" fill="#4F46E5"></rect>
<circle cx="16" cy="16" r="16" fill="#4F46E5"></circle>
<path d="M16.8282 17.2823C16.4625 20.9394 14.5416 22.3909 13.7188 22.6347C15.1816 19.4896 15.5178 15.4537 15.4568 13.8994L16.8282 17.2823Z" fill="white"></path>
<rect x="6.40625" y="10.0479" width="4.44549" height="14.3948" rx="2.22275" transform="rotate(-21.567 6.40625 10.0479)" fill="white"></rect>
<rect x="13.8203" y="10.084" width="4.44549" height="14.3948" rx="2.22275" transform="rotate(-21.567 13.8203 10.084)" fill="white"></rect>
<circle cx="23.7786" cy="11.2845" r="2.10286" fill="white"></circle>
<path d="M24.1328 17.2813C23.7671 20.9384 21.8463 22.4606 21.0234 22.7044C21.7809 21.0759 22.2362 19.1896 22.4908 17.5333C22.5994 16.8269 23.8643 16.619 24.1328 17.2813Z" fill="white"></path>
<path d="M23.952 12.1308C22.7838 12.2898 22.4902 11.1861 22.4902 10.6084C23.8122 10.6577 24.1044 11.6208 23.9976 12.0904C23.9927 12.112 23.9739 12.1278 23.952 12.1308Z" fill="#4F46E5"></path>
<path d="M24.2132 12.0956C25.0009 12.0538 25.0508 11.3997 25.0508 10.9736C24.149 11.1123 24.0966 11.7349 24.1847 12.0753C24.188 12.088 24.2002 12.0963 24.2132 12.0956Z" fill="#4F46E5"></path>
</g>
<defs>
<clipPath id="SvgjsClipPath1009">
<rect width="32" height="32" fill="white"></rect>
</clipPath>
</defs>
</svg><style>@media (prefers-color-scheme: light) { :root { filter: none; } }
@media (prefers-color-scheme: dark) { :root { filter: none; } }
</style></svg>