<svg width="343" height="290" viewBox="0 0 343 290" fill="none" xmlns="http://www.w3.org/2000/svg">
<rect x="0.5" y="0.5" width="342" height="289" rx="23.5" fill="white"/>
<rect x="0.5" y="0.5" width="342" height="289" rx="23.5" stroke="#CBD5E1"/>
<path d="M19.344 34V23.76H16.176V22.08H24.336V23.76H21.216V34H19.344ZM28.5106 34.192C27.6786 34.192 26.916 33.9947 26.2226 33.6C25.54 33.2053 24.996 32.6667 24.5906 31.984C24.1853 31.3013 23.9826 30.528 23.9826 29.664C23.9826 28.7893 24.1853 28.016 24.5906 27.344C24.996 26.6613 25.54 26.128 26.2226 25.744C26.9053 25.3493 27.668 25.152 28.5106 25.152C29.364 25.152 30.1266 25.3493 30.7986 25.744C31.4813 26.128 32.02 26.6613 32.4146 27.344C32.82 28.016 33.0226 28.7893 33.0226 29.664C33.0226 30.5387 32.82 31.3173 32.4146 32C32.0093 32.6827 31.4653 33.2213 30.7826 33.616C30.1 34 29.3426 34.192 28.5106 34.192ZM28.5106 32.512C29.0226 32.512 29.476 32.3893 29.8706 32.144C30.2653 31.8987 30.5746 31.5627 30.7986 31.136C31.0333 30.6987 31.1506 30.208 31.1506 29.664C31.1506 29.12 31.0333 28.6347 30.7986 28.208C30.5746 27.7813 30.2653 27.4453 29.8706 27.2C29.476 26.9547 29.0226 26.832 28.5106 26.832C28.0093 26.832 27.556 26.9547 27.1506 27.2C26.756 27.4453 26.4413 27.7813 26.2066 28.208C25.9826 28.6347 25.8706 29.12 25.8706 29.664C25.8706 30.208 25.9826 30.6987 26.2066 31.136C26.4413 31.5627 26.756 31.8987 27.1506 32.144C27.556 32.3893 28.0093 32.512 28.5106 32.512ZM38.2635 34.096C37.3568 34.096 36.6528 33.84 36.1515 33.328C35.6502 32.816 35.3995 32.096 35.3995 31.168V26.976H33.8795V25.344H34.1195C34.5248 25.344 34.8395 25.2267 35.0635 24.992C35.2875 24.7573 35.3995 24.4373 35.3995 24.032V23.36H37.2075V25.344H39.1755V26.976H37.2075V31.088C37.2075 31.3867 37.2555 31.6427 37.3515 31.856C37.4475 32.0587 37.6022 32.2187 37.8155 32.336C38.0288 32.4427 38.3062 32.496 38.6475 32.496C38.7328 32.496 38.8288 32.4907 38.9355 32.48C39.0422 32.4693 39.1435 32.4587 39.2395 32.448V34C39.0902 34.0213 38.9248 34.0427 38.7435 34.064C38.5622 34.0853 38.4022 34.096 38.2635 34.096ZM43.4057 34.192C42.8191 34.192 42.3017 34.0907 41.8537 33.888C41.4164 33.6747 41.0751 33.3867 40.8297 33.024C40.5844 32.6507 40.4617 32.2133 40.4617 31.712C40.4617 31.2427 40.5631 30.8213 40.7657 30.448C40.9791 30.0747 41.3044 29.76 41.7417 29.504C42.1791 29.248 42.7284 29.0667 43.3897 28.96L46.3977 28.464V29.888L43.7417 30.352C43.2617 30.4373 42.9097 30.592 42.6857 30.816C42.4617 31.0293 42.3497 31.3067 42.3497 31.648C42.3497 31.9787 42.4724 32.2507 42.7177 32.464C42.9737 32.6667 43.2991 32.768 43.6937 32.768C44.1844 32.768 44.6111 32.6613 44.9737 32.448C45.3471 32.2347 45.6351 31.952 45.8377 31.6C46.0404 31.2373 46.1417 30.8373 46.1417 30.4V28.176C46.1417 27.7493 45.9817 27.4027 45.6617 27.136C45.3524 26.8587 44.9364 26.72 44.4137 26.72C43.9337 26.72 43.5124 26.848 43.1497 27.104C42.7977 27.3493 42.5364 27.6693 42.3657 28.064L40.8617 27.312C41.0217 26.8853 41.2831 26.512 41.6457 26.192C42.0084 25.8613 42.4297 25.6053 42.9097 25.424C43.4004 25.2427 43.9177 25.152 44.4617 25.152C45.1444 25.152 45.7471 25.28 46.2697 25.536C46.8031 25.792 47.2137 26.1493 47.5017 26.608C47.8004 27.056 47.9497 27.5787 47.9497 28.176V34H46.2217V32.432L46.5897 32.48C46.3871 32.832 46.1257 33.136 45.8057 33.392C45.4964 33.648 45.1391 33.8453 44.7337 33.984C44.3391 34.1227 43.8964 34.192 43.4057 34.192ZM49.9517 34V21.888H51.7597V34H49.9517ZM59.7905 34L55.5665 22.08H57.5985L61.0545 32.256H60.6545L64.0945 22.08H66.1265L61.9025 34H59.7905ZM67.2407 34V25.344H69.0487V34H67.2407ZM67.2407 24.16V22.08H69.0487V24.16H67.2407ZM74.2506 34.192C73.3653 34.192 72.5866 33.9733 71.9146 33.536C71.2533 33.0987 70.7893 32.512 70.5226 31.776L71.9146 31.12C72.1493 31.6107 72.4693 32 72.8746 32.288C73.2906 32.576 73.7493 32.72 74.2506 32.72C74.6773 32.72 75.024 32.624 75.2906 32.432C75.5573 32.24 75.6906 31.9787 75.6906 31.648C75.6906 31.4347 75.632 31.264 75.5146 31.136C75.3973 30.9973 75.248 30.8853 75.0666 30.8C74.896 30.7147 74.72 30.6507 74.5386 30.608L73.1786 30.224C72.432 30.0107 71.872 29.6907 71.4986 29.264C71.136 28.8267 70.9546 28.32 70.9546 27.744C70.9546 27.2213 71.088 26.768 71.3546 26.384C71.6213 25.9893 71.9893 25.6853 72.4586 25.472C72.928 25.2587 73.456 25.152 74.0426 25.152C74.832 25.152 75.536 25.3493 76.1546 25.744C76.7733 26.128 77.2106 26.6667 77.4666 27.36L76.0746 28.016C75.904 27.6 75.632 27.2693 75.2586 27.024C74.896 26.7787 74.4853 26.656 74.0266 26.656C73.632 26.656 73.3173 26.752 73.0826 26.944C72.848 27.1253 72.7306 27.3653 72.7306 27.664C72.7306 27.8667 72.784 28.0373 72.8906 28.176C72.9973 28.304 73.136 28.4107 73.3066 28.496C73.4773 28.5707 73.6533 28.6347 73.8346 28.688L75.2426 29.104C75.9573 29.3067 76.5066 29.6267 76.8906 30.064C77.2746 30.4907 77.4666 31.0027 77.4666 31.6C77.4666 32.112 77.328 32.5653 77.0506 32.96C76.784 33.344 76.4106 33.648 75.9306 33.872C75.4506 34.0853 74.8906 34.192 74.2506 34.192ZM79.1261 34V25.344H80.9341V34H79.1261ZM79.1261 24.16V22.08H80.9341V24.16H79.1261ZM86.68 34.096C85.7733 34.096 85.0693 33.84 84.568 33.328C84.0667 32.816 83.816 32.096 83.816 31.168V26.976H82.296V25.344H82.536C82.9413 25.344 83.256 25.2267 83.48 24.992C83.704 24.7573 83.816 24.4373 83.816 24.032V23.36H85.624V25.344H87.592V26.976H85.624V31.088C85.624 31.3867 85.672 31.6427 85.768 31.856C85.864 32.0587 86.0187 32.2187 86.232 32.336C86.4453 32.4427 86.7227 32.496 87.064 32.496C87.1493 32.496 87.2453 32.4907 87.352 32.48C87.4587 32.4693 87.56 32.4587 87.656 32.448V34C87.5067 34.0213 87.3413 34.0427 87.16 34.064C86.9787 34.0853 86.8187 34.096 86.68 34.096ZM93.3281 34.192C92.4961 34.192 91.7335 33.9947 91.0401 33.6C90.3575 33.2053 89.8135 32.6667 89.4081 31.984C89.0028 31.3013 88.8001 30.528 88.8001 29.664C88.8001 28.7893 89.0028 28.016 89.4081 27.344C89.8135 26.6613 90.3575 26.128 91.0401 25.744C91.7228 25.3493 92.4855 25.152 93.3281 25.152C94.1815 25.152 94.9441 25.3493 95.6161 25.744C96.2988 26.128 96.8375 26.6613 97.2321 27.344C97.6375 28.016 97.8401 28.7893 97.8401 29.664C97.8401 30.5387 97.6375 31.3173 97.2321 32C96.8268 32.6827 96.2828 33.2213 95.6001 33.616C94.9175 34 94.1601 34.192 93.3281 34.192ZM93.3281 32.512C93.8401 32.512 94.2935 32.3893 94.6881 32.144C95.0828 31.8987 95.3921 31.5627 95.6161 31.136C95.8508 30.6987 95.9681 30.208 95.9681 29.664C95.9681 29.12 95.8508 28.6347 95.6161 28.208C95.3921 27.7813 95.0828 27.4453 94.6881 27.2C94.2935 26.9547 93.8401 26.832 93.3281 26.832C92.8268 26.832 92.3735 26.9547 91.9681 27.2C91.5735 27.4453 91.2588 27.7813 91.0241 28.208C90.8001 28.6347 90.6881 29.12 90.6881 29.664C90.6881 30.208 90.8001 30.6987 91.0241 31.136C91.2588 31.5627 91.5735 31.8987 91.9681 32.144C92.3735 32.3893 92.8268 32.512 93.3281 32.512ZM99.4932 34V25.344H101.221V27.088L101.061 26.832C101.253 26.2667 101.563 25.8613 101.989 25.616C102.416 25.36 102.928 25.232 103.525 25.232H104.053V26.88H103.301C102.704 26.88 102.219 27.0667 101.845 27.44C101.483 27.8027 101.301 28.3253 101.301 29.008V34H99.4932ZM108.378 34.192C107.493 34.192 106.714 33.9733 106.042 33.536C105.381 33.0987 104.917 32.512 104.65 31.776L106.042 31.12C106.277 31.6107 106.597 32 107.002 32.288C107.418 32.576 107.877 32.72 108.378 32.72C108.805 32.72 109.151 32.624 109.418 32.432C109.685 32.24 109.818 31.9787 109.818 31.648C109.818 31.4347 109.759 31.264 109.642 31.136C109.525 30.9973 109.375 30.8853 109.194 30.8C109.023 30.7147 108.847 30.6507 108.666 30.608L107.306 30.224C106.559 30.0107 105.999 29.6907 105.626 29.264C105.263 28.8267 105.082 28.32 105.082 27.744C105.082 27.2213 105.215 26.768 105.482 26.384C105.749 25.9893 106.117 25.6853 106.586 25.472C107.055 25.2587 107.583 25.152 108.17 25.152C108.959 25.152 109.663 25.3493 110.282 25.744C110.901 26.128 111.338 26.6667 111.594 27.36L110.202 28.016C110.031 27.6 109.759 27.2693 109.386 27.024C109.023 26.7787 108.613 26.656 108.154 26.656C107.759 26.656 107.445 26.752 107.21 26.944C106.975 27.1253 106.858 27.3653 106.858 27.664C106.858 27.8667 106.911 28.0373 107.018 28.176C107.125 28.304 107.263 28.4107 107.434 28.496C107.605 28.5707 107.781 28.6347 107.962 28.688L109.37 29.104C110.085 29.3067 110.634 29.6267 111.018 30.064C111.402 30.4907 111.594 31.0027 111.594 31.6C111.594 32.112 111.455 32.5653 111.178 32.96C110.911 33.344 110.538 33.648 110.058 33.872C109.578 34.0853 109.018 34.192 108.378 34.192Z" fill="#475569"/>
<path d="M27.4393 78V73.08H17.1793V69.66L27.1993 55.65H31.4593V69.66H34.7293V73.08H31.4593V78H27.4393ZM20.1793 71.13L19.4593 69.66H27.4393V58.86L28.4893 59.19L20.1793 71.13ZM38.4282 82.68V80.73C39.0882 80.57 39.6182 80.26 40.0182 79.8C40.4382 79.36 40.6982 78.76 40.7982 78H39.0282V73.8H42.9882V76.38C42.9882 78.14 42.5982 79.55 41.8182 80.61C41.0582 81.67 39.9282 82.36 38.4282 82.68ZM55.1509 78.36C53.5309 78.36 52.1209 78.06 50.9209 77.46C49.7409 76.84 48.8209 76.01 48.1609 74.97C47.5209 73.93 47.2009 72.79 47.2009 71.55C47.2009 70.09 47.5909 68.86 48.3709 67.86C49.1509 66.84 50.2809 66.09 51.7609 65.61L51.5209 66.6C50.4609 66.26 49.6209 65.6 49.0009 64.62C48.4009 63.64 48.1009 62.56 48.1009 61.38C48.1009 60.2 48.4009 59.15 49.0009 58.23C49.6009 57.31 50.4309 56.59 51.4909 56.07C52.5509 55.55 53.7709 55.29 55.1509 55.29C56.5109 55.29 57.7109 55.55 58.7509 56.07C59.8109 56.59 60.6409 57.31 61.2409 58.23C61.8609 59.15 62.1709 60.2 62.1709 61.38C62.1709 62.58 61.8609 63.67 61.2409 64.65C60.6409 65.61 59.8109 66.27 58.7509 66.63L58.5409 65.58C60.0209 66.1 61.1509 66.87 61.9309 67.89C62.7109 68.89 63.1009 70.12 63.1009 71.58C63.1009 72.82 62.7709 73.96 62.1109 75C61.4709 76.02 60.5509 76.84 59.3509 77.46C58.1709 78.06 56.7709 78.36 55.1509 78.36ZM55.1509 74.91C55.9309 74.91 56.6109 74.77 57.1909 74.49C57.7709 74.19 58.2209 73.78 58.5409 73.26C58.8609 72.72 59.0209 72.11 59.0209 71.43C59.0209 70.73 58.8609 70.13 58.5409 69.63C58.2209 69.11 57.7709 68.71 57.1909 68.43C56.6109 68.13 55.9309 67.98 55.1509 67.98C54.3709 67.98 53.6909 68.13 53.1109 68.43C52.5509 68.71 52.1109 69.11 51.7909 69.63C51.4709 70.13 51.3109 70.73 51.3109 71.43C51.3109 72.11 51.4709 72.72 51.7909 73.26C52.1109 73.78 52.5509 74.19 53.1109 74.49C53.6909 74.77 54.3709 74.91 55.1509 74.91ZM55.1509 64.53C55.7309 64.53 56.2409 64.4 56.6809 64.14C57.1209 63.88 57.4609 63.54 57.7009 63.12C57.9609 62.68 58.0909 62.18 58.0909 61.62C58.0909 61.06 57.9609 60.57 57.7009 60.15C57.4609 59.71 57.1209 59.37 56.6809 59.13C56.2409 58.87 55.7309 58.74 55.1509 58.74C54.5709 58.74 54.0509 58.87 53.5909 59.13C53.1509 59.37 52.8009 59.71 52.5409 60.15C52.3009 60.57 52.1809 61.06 52.1809 61.62C52.1809 62.18 52.3009 62.68 52.5409 63.12C52.8009 63.54 53.1509 63.88 53.5909 64.14C54.0509 64.4 54.5709 64.53 55.1509 64.53ZM69.426 78V59.13H65.106V55.65H73.506V78H69.426ZM85.4256 78.36C83.8056 78.36 82.3956 78.06 81.1956 77.46C80.0156 76.84 79.0956 76.01 78.4356 74.97C77.7956 73.93 77.4756 72.79 77.4756 71.55C77.4756 70.09 77.8656 68.86 78.6456 67.86C79.4256 66.84 80.5556 66.09 82.0356 65.61L81.7956 66.6C80.7356 66.26 79.8956 65.6 79.2756 64.62C78.6756 63.64 78.3756 62.56 78.3756 61.38C78.3756 60.2 78.6756 59.15 79.2756 58.23C79.8756 57.31 80.7056 56.59 81.7656 56.07C82.8256 55.55 84.0456 55.29 85.4256 55.29C86.7856 55.29 87.9856 55.55 89.0256 56.07C90.0856 56.59 90.9156 57.31 91.5156 58.23C92.1356 59.15 92.4456 60.2 92.4456 61.38C92.4456 62.58 92.1356 63.67 91.5156 64.65C90.9156 65.61 90.0856 66.27 89.0256 66.63L88.8156 65.58C90.2956 66.1 91.4256 66.87 92.2056 67.89C92.9856 68.89 93.3756 70.12 93.3756 71.58C93.3756 72.82 93.0456 73.96 92.3856 75C91.7456 76.02 90.8256 76.84 89.6256 77.46C88.4456 78.06 87.0456 78.36 85.4256 78.36ZM85.4256 74.91C86.2056 74.91 86.8856 74.77 87.4656 74.49C88.0456 74.19 88.4956 73.78 88.8156 73.26C89.1356 72.72 89.2956 72.11 89.2956 71.43C89.2956 70.73 89.1356 70.13 88.8156 69.63C88.4956 69.11 88.0456 68.71 87.4656 68.43C86.8856 68.13 86.2056 67.98 85.4256 67.98C84.6456 67.98 83.9656 68.13 83.3856 68.43C82.8256 68.71 82.3856 69.11 82.0656 69.63C81.7456 70.13 81.5856 70.73 81.5856 71.43C81.5856 72.11 81.7456 72.72 82.0656 73.26C82.3856 73.78 82.8256 74.19 83.3856 74.49C83.9656 74.77 84.6456 74.91 85.4256 74.91ZM85.4256 64.53C86.0056 64.53 86.5156 64.4 86.9556 64.14C87.3956 63.88 87.7356 63.54 87.9756 63.12C88.2356 62.68 88.3656 62.18 88.3656 61.62C88.3656 61.06 88.2356 60.57 87.9756 60.15C87.7356 59.71 87.3956 59.37 86.9556 59.13C86.5156 58.87 86.0056 58.74 85.4256 58.74C84.8456 58.74 84.3256 58.87 83.8656 59.13C83.4256 59.37 83.0756 59.71 82.8156 60.15C82.5756 60.57 82.4556 61.06 82.4556 61.62C82.4556 62.18 82.5756 62.68 82.8156 63.12C83.0756 63.54 83.4256 63.88 83.8656 64.14C84.3256 64.4 84.8456 64.53 85.4256 64.53Z" fill="#1E293B"/>
<path d="M112.344 69.0625V72.5625C112.344 72.7365 112.275 72.9035 112.152 73.0265C112.028 73.1496 111.862 73.2188 111.687 73.2188C111.513 73.2188 111.347 73.1496 111.223 73.0265C111.1 72.9035 111.031 72.7365 111.031 72.5625V70.6484L106.902 74.7784C106.841 74.8396 106.768 74.8882 106.689 74.9213C106.609 74.9544 106.523 74.9715 106.437 74.9715C106.351 74.9715 106.265 74.9544 106.185 74.9213C106.105 74.8882 106.033 74.8396 105.972 74.7784L104.25 73.0547L100.777 76.5268C100.653 76.6501 100.486 76.7193 100.312 76.7193C100.138 76.7193 99.9704 76.6501 99.8471 76.5268C99.7238 76.4035 99.6545 76.2363 99.6545 76.062C99.6545 75.8876 99.7238 75.7204 99.8471 75.5971L103.785 71.6596C103.846 71.5984 103.918 71.5499 103.998 71.5168C104.078 71.4836 104.163 71.4666 104.249 71.4666C104.336 71.4666 104.421 71.4836 104.501 71.5168C104.581 71.5499 104.653 71.5984 104.714 71.6596L106.437 73.3828L110.102 69.7188H108.187C108.013 69.7188 107.847 69.6496 107.723 69.5265C107.6 69.4035 107.531 69.2365 107.531 69.0625C107.531 68.8885 107.6 68.7215 107.723 68.5985C107.847 68.4754 108.013 68.4063 108.187 68.4062H111.687C111.862 68.4062 112.028 68.4754 112.152 68.5985C112.275 68.7215 112.344 68.8885 112.344 69.0625Z" fill="#22C55E"/>
<path d="M121.536 78V76.032H117.432V74.664L121.44 69.06H123.144V74.664H124.452V76.032H123.144V78H121.536ZM118.632 75.252L118.344 74.664H121.536V70.344L121.956 70.476L118.632 75.252ZM129.328 78V76.032H125.224V74.664L129.232 69.06H130.936V74.664H132.244V76.032H130.936V78H129.328ZM126.424 75.252L126.136 74.664H129.328V70.344L129.748 70.476L126.424 75.252ZM134.059 78V76.32H135.643V78H134.059ZM137.61 78V76.764L140.034 74.232C140.514 73.728 140.882 73.328 141.138 73.032C141.402 72.728 141.586 72.468 141.69 72.252C141.794 72.036 141.846 71.816 141.846 71.592C141.846 71.216 141.726 70.92 141.486 70.704C141.254 70.488 140.954 70.38 140.586 70.38C140.202 70.38 139.87 70.492 139.59 70.716C139.31 70.932 139.106 71.252 138.978 71.676L137.55 71.232C137.646 70.76 137.842 70.352 138.138 70.008C138.434 69.656 138.794 69.388 139.218 69.204C139.65 69.012 140.106 68.916 140.586 68.916C141.162 68.916 141.666 69.02 142.098 69.228C142.538 69.436 142.878 69.728 143.118 70.104C143.366 70.48 143.49 70.92 143.49 71.424C143.49 71.744 143.43 72.06 143.31 72.372C143.19 72.684 143.01 73.004 142.77 73.332C142.53 73.652 142.218 74.012 141.834 74.412L139.734 76.62H143.61V78H137.61ZM145.994 78L153.242 69.06H154.922L147.674 78H145.994ZM147.386 73.596C146.946 73.596 146.546 73.492 146.186 73.284C145.834 73.068 145.554 72.784 145.346 72.432C145.138 72.08 145.034 71.688 145.034 71.256C145.034 70.824 145.138 70.432 145.346 70.08C145.554 69.72 145.834 69.436 146.186 69.228C146.546 69.02 146.946 68.916 147.386 68.916C147.834 68.916 148.234 69.02 148.586 69.228C148.938 69.436 149.218 69.72 149.426 70.08C149.634 70.432 149.738 70.824 149.738 71.256C149.738 71.688 149.634 72.08 149.426 72.432C149.218 72.784 148.938 73.068 148.586 73.284C148.234 73.492 147.834 73.596 147.386 73.596ZM147.386 72.384C147.626 72.384 147.826 72.332 147.986 72.228C148.146 72.116 148.266 71.976 148.346 71.808C148.434 71.632 148.478 71.448 148.478 71.256C148.478 71.056 148.434 70.872 148.346 70.704C148.266 70.536 148.146 70.396 147.986 70.284C147.826 70.172 147.626 70.116 147.386 70.116C147.162 70.116 146.966 70.172 146.798 70.284C146.638 70.396 146.514 70.54 146.426 70.716C146.338 70.884 146.294 71.064 146.294 71.256C146.294 71.44 146.338 71.62 146.426 71.796C146.514 71.972 146.638 72.116 146.798 72.228C146.966 72.332 147.162 72.384 147.386 72.384ZM153.482 78.144C153.042 78.144 152.642 78.04 152.282 77.832C151.93 77.616 151.65 77.332 151.442 76.98C151.234 76.628 151.13 76.236 151.13 75.804C151.13 75.372 151.234 74.98 151.442 74.628C151.65 74.268 151.93 73.984 152.282 73.776C152.642 73.568 153.042 73.464 153.482 73.464C153.93 73.464 154.33 73.568 154.682 73.776C155.034 73.984 155.314 74.268 155.522 74.628C155.73 74.98 155.834 75.372 155.834 75.804C155.834 76.236 155.73 76.628 155.522 76.98C155.314 77.332 155.034 77.616 154.682 77.832C154.33 78.04 153.93 78.144 153.482 78.144ZM153.482 76.932C153.714 76.932 153.91 76.88 154.07 76.776C154.238 76.664 154.362 76.524 154.442 76.356C154.53 76.18 154.574 75.996 154.574 75.804C154.574 75.604 154.53 75.42 154.442 75.252C154.362 75.084 154.238 74.944 154.07 74.832C153.91 74.72 153.714 74.664 153.482 74.664C153.258 74.664 153.062 74.72 152.894 74.832C152.734 74.944 152.61 75.088 152.522 75.264C152.434 75.432 152.39 75.612 152.39 75.804C152.39 75.988 152.434 76.168 152.522 76.344C152.61 76.52 152.734 76.664 152.894 76.776C153.062 76.88 153.258 76.932 153.482 76.932Z" fill="#22C55E"/>
<rect x="287" y="46" width="40" height="40" rx="20" fill="#EEF2FF"/>
<path d="M316.609 65.6195C316.58 65.5562 315.896 64.0367 314.384 62.525C312.362 60.5055 309.812 59.4375 307 59.4375C304.187 59.4375 301.638 60.5055 299.618 62.525C298.106 64.0367 297.422 65.5562 297.391 65.6195C297.338 65.7395 297.31 65.8692 297.31 66.0004C297.31 66.1315 297.338 66.2613 297.391 66.3813C297.419 66.4453 298.104 67.9641 299.616 69.4758C301.638 71.4953 304.187 72.5625 307 72.5625C309.812 72.5625 312.362 71.4953 314.381 69.4758C315.894 67.9641 316.578 66.4453 316.607 66.3813C316.66 66.2614 316.688 66.1318 316.688 66.0006C316.689 65.8695 316.662 65.7397 316.609 65.6195ZM313.011 68.1977C311.334 69.8492 309.312 70.6875 307 70.6875C304.688 70.6875 302.666 69.8492 300.991 68.1969C300.332 67.5447 299.765 66.8056 299.306 66C299.765 65.1947 300.332 64.4559 300.991 63.8039C302.667 62.1508 304.688 61.3125 307 61.3125C309.312 61.3125 311.333 62.1508 313.009 63.8039C313.668 64.4558 314.235 65.1947 314.694 66C314.235 66.8055 313.668 67.5447 313.009 68.1969L313.011 68.1977ZM307 62.5625C306.32 62.5625 305.655 62.7641 305.09 63.1418C304.525 63.5195 304.084 64.0564 303.824 64.6845C303.564 65.3126 303.496 66.0038 303.628 66.6706C303.761 67.3374 304.089 67.9499 304.569 68.4307C305.05 68.9114 305.663 69.2388 306.329 69.3714C306.996 69.5041 307.687 69.436 308.315 69.1758C308.944 68.9157 309.48 68.4751 309.858 67.9098C310.236 67.3445 310.437 66.6799 310.437 66C310.436 65.0886 310.074 64.2149 309.429 63.5705C308.785 62.926 307.911 62.5635 307 62.5625ZM307 67.5625C306.691 67.5625 306.389 67.4709 306.132 67.2992C305.875 67.1275 305.675 66.8835 305.556 66.5979C305.438 66.3124 305.407 65.9983 305.467 65.6952C305.528 65.3921 305.677 65.1137 305.895 64.8951C306.114 64.6766 306.392 64.5278 306.695 64.4675C306.998 64.4072 307.312 64.4382 307.598 64.5564C307.883 64.6747 308.127 64.875 308.299 65.1319C308.471 65.3889 308.562 65.691 308.562 66C308.562 66.4144 308.398 66.8118 308.105 67.1049C307.812 67.3979 307.414 67.5625 307 67.5625Z" fill="#4F46E5"/>
<path d="M17.232 128V116.08H25.088V117.76H19.12V121.184H24.768V122.864H19.12V126.32H25.088V128H17.232ZM26.5534 128V119.344H28.2814V121.04L28.0734 120.816C28.2867 120.272 28.628 119.861 29.0974 119.584C29.5667 119.296 30.1107 119.152 30.7294 119.152C31.3694 119.152 31.9347 119.291 32.4254 119.568C32.916 119.845 33.3 120.229 33.5774 120.72C33.8547 121.211 33.9934 121.776 33.9934 122.416V128H32.2014V122.896C32.2014 122.459 32.1214 122.091 31.9614 121.792C31.8014 121.483 31.572 121.248 31.2734 121.088C30.9854 120.917 30.6547 120.832 30.2814 120.832C29.908 120.832 29.572 120.917 29.2734 121.088C28.9854 121.248 28.7614 121.483 28.6014 121.792C28.4414 122.101 28.3614 122.469 28.3614 122.896V128H26.5534ZM39.9924 131.52C39.363 131.52 38.7817 131.419 38.2484 131.216C37.715 131.013 37.2564 130.731 36.8724 130.368C36.4884 130.016 36.2004 129.6 36.0084 129.12L37.6724 128.432C37.8217 128.837 38.0937 129.173 38.4884 129.44C38.8937 129.707 39.3897 129.84 39.9764 129.84C40.435 129.84 40.8457 129.749 41.2084 129.568C41.571 129.397 41.859 129.141 42.0724 128.8C42.2857 128.469 42.3924 128.069 42.3924 127.6V125.648L42.7124 126.016C42.4137 126.571 41.9977 126.992 41.4644 127.28C40.9417 127.568 40.3497 127.712 39.6884 127.712C38.8884 127.712 38.1684 127.525 37.5284 127.152C36.8884 126.779 36.3817 126.267 36.0084 125.616C35.6457 124.965 35.4644 124.235 35.4644 123.424C35.4644 122.603 35.6457 121.872 36.0084 121.232C36.3817 120.592 36.883 120.085 37.5124 119.712C38.1417 119.339 38.8617 119.152 39.6724 119.152C40.3337 119.152 40.9204 119.296 41.4324 119.584C41.955 119.861 42.3817 120.267 42.7124 120.8L42.4724 121.248V119.344H44.1844V127.6C44.1844 128.347 44.003 129.013 43.6404 129.6C43.2884 130.197 42.7977 130.667 42.1684 131.008C41.539 131.349 40.8137 131.52 39.9924 131.52ZM39.8964 126.032C40.3764 126.032 40.803 125.92 41.1764 125.696C41.5497 125.461 41.843 125.152 42.0564 124.768C42.2804 124.373 42.3924 123.931 42.3924 123.44C42.3924 122.949 42.2804 122.507 42.0564 122.112C41.8324 121.717 41.5337 121.408 41.1604 121.184C40.787 120.949 40.3657 120.832 39.8964 120.832C39.4057 120.832 38.9684 120.949 38.5844 121.184C38.2004 121.408 37.8964 121.717 37.6724 122.112C37.459 122.496 37.3524 122.939 37.3524 123.44C37.3524 123.92 37.459 124.357 37.6724 124.752C37.8964 125.147 38.2004 125.461 38.5844 125.696C38.9684 125.92 39.4057 126.032 39.8964 126.032ZM48.7807 128.192C48.1941 128.192 47.6767 128.091 47.2287 127.888C46.7914 127.675 46.4501 127.387 46.2047 127.024C45.9594 126.651 45.8367 126.213 45.8367 125.712C45.8367 125.243 45.9381 124.821 46.1407 124.448C46.3541 124.075 46.6794 123.76 47.1167 123.504C47.5541 123.248 48.1034 123.067 48.7647 122.96L51.7727 122.464V123.888L49.1167 124.352C48.6367 124.437 48.2847 124.592 48.0607 124.816C47.8367 125.029 47.7247 125.307 47.7247 125.648C47.7247 125.979 47.8474 126.251 48.0927 126.464C48.3487 126.667 48.6741 126.768 49.0687 126.768C49.5594 126.768 49.9861 126.661 50.3487 126.448C50.7221 126.235 51.0101 125.952 51.2127 125.6C51.4154 125.237 51.5167 124.837 51.5167 124.4V122.176C51.5167 121.749 51.3567 121.403 51.0367 121.136C50.7274 120.859 50.3114 120.72 49.7887 120.72C49.3087 120.72 48.8874 120.848 48.5247 121.104C48.1727 121.349 47.9114 121.669 47.7407 122.064L46.2367 121.312C46.3967 120.885 46.6581 120.512 47.0207 120.192C47.3834 119.861 47.8047 119.605 48.2847 119.424C48.7754 119.243 49.2927 119.152 49.8367 119.152C50.5194 119.152 51.1221 119.28 51.6447 119.536C52.1781 119.792 52.5887 120.149 52.8767 120.608C53.1754 121.056 53.3247 121.579 53.3247 122.176V128H51.5967V126.432L51.9647 126.48C51.7621 126.832 51.5007 127.136 51.1807 127.392C50.8714 127.648 50.5141 127.845 50.1087 127.984C49.7141 128.123 49.2714 128.192 48.7807 128.192ZM59.5027 131.52C58.8734 131.52 58.2921 131.419 57.7587 131.216C57.2254 131.013 56.7667 130.731 56.3827 130.368C55.9987 130.016 55.7107 129.6 55.5187 129.12L57.1827 128.432C57.3321 128.837 57.6041 129.173 57.9987 129.44C58.4041 129.707 58.9001 129.84 59.4867 129.84C59.9454 129.84 60.3561 129.749 60.7187 129.568C61.0814 129.397 61.3694 129.141 61.5827 128.8C61.7961 128.469 61.9027 128.069 61.9027 127.6V125.648L62.2227 126.016C61.9241 126.571 61.5081 126.992 60.9747 127.28C60.4521 127.568 59.8601 127.712 59.1987 127.712C58.3987 127.712 57.6787 127.525 57.0387 127.152C56.3987 126.779 55.8921 126.267 55.5187 125.616C55.1561 124.965 54.9747 124.235 54.9747 123.424C54.9747 122.603 55.1561 121.872 55.5187 121.232C55.8921 120.592 56.3934 120.085 57.0227 119.712C57.6521 119.339 58.3721 119.152 59.1827 119.152C59.8441 119.152 60.4307 119.296 60.9427 119.584C61.4654 119.861 61.8921 120.267 62.2227 120.8L61.9827 121.248V119.344H63.6947V127.6C63.6947 128.347 63.5134 129.013 63.1507 129.6C62.7987 130.197 62.3081 130.667 61.6787 131.008C61.0494 131.349 60.3241 131.52 59.5027 131.52ZM59.4067 126.032C59.8867 126.032 60.3134 125.92 60.6867 125.696C61.0601 125.461 61.3534 125.152 61.5667 124.768C61.7907 124.373 61.9027 123.931 61.9027 123.44C61.9027 122.949 61.7907 122.507 61.5667 122.112C61.3427 121.717 61.0441 121.408 60.6707 121.184C60.2974 120.949 59.8761 120.832 59.4067 120.832C58.9161 120.832 58.4787 120.949 58.0947 121.184C57.7107 121.408 57.4067 121.717 57.1827 122.112C56.9694 122.496 56.8627 122.939 56.8627 123.44C56.8627 123.92 56.9694 124.357 57.1827 124.752C57.4067 125.147 57.7107 125.461 58.0947 125.696C58.4787 125.92 58.9161 126.032 59.4067 126.032ZM69.7631 128.192C68.8991 128.192 68.1311 127.995 67.4591 127.6C66.7978 127.195 66.2805 126.651 65.9071 125.968C65.5338 125.275 65.3471 124.501 65.3471 123.648C65.3471 122.773 65.5338 122 65.9071 121.328C66.2911 120.656 66.8031 120.128 67.4431 119.744C68.0831 119.349 68.8085 119.152 69.6191 119.152C70.2698 119.152 70.8511 119.264 71.3631 119.488C71.8751 119.712 72.3071 120.021 72.6591 120.416C73.0111 120.8 73.2778 121.243 73.4591 121.744C73.6511 122.245 73.7471 122.779 73.7471 123.344C73.7471 123.483 73.7418 123.627 73.7311 123.776C73.7205 123.925 73.6991 124.064 73.6671 124.192H66.7711V122.752H72.6431L71.7791 123.408C71.8858 122.885 71.8485 122.421 71.6671 122.016C71.4965 121.6 71.2298 121.275 70.8671 121.04C70.5151 120.795 70.0991 120.672 69.6191 120.672C69.1391 120.672 68.7125 120.795 68.3391 121.04C67.9658 121.275 67.6778 121.616 67.4751 122.064C67.2725 122.501 67.1925 123.035 67.2351 123.664C67.1818 124.251 67.2618 124.763 67.4751 125.2C67.6991 125.637 68.0085 125.979 68.4031 126.224C68.8085 126.469 69.2671 126.592 69.7791 126.592C70.3018 126.592 70.7445 126.475 71.1071 126.24C71.4805 126.005 71.7738 125.701 71.9871 125.328L73.4591 126.048C73.2885 126.453 73.0218 126.821 72.6591 127.152C72.3071 127.472 71.8805 127.728 71.3791 127.92C70.8885 128.101 70.3498 128.192 69.7631 128.192ZM75.3996 128V119.344H77.1276V121.216L76.9036 120.928C77.085 120.341 77.4156 119.899 77.8956 119.6C78.3756 119.301 78.925 119.152 79.5436 119.152C80.237 119.152 80.8503 119.339 81.3836 119.712C81.9276 120.075 82.2903 120.56 82.4716 121.168L81.9596 121.216C82.2156 120.523 82.605 120.005 83.1276 119.664C83.661 119.323 84.269 119.152 84.9516 119.152C85.549 119.152 86.0876 119.291 86.5676 119.568C87.0583 119.845 87.4476 120.229 87.7356 120.72C88.0236 121.211 88.1676 121.771 88.1676 122.4V128H86.3596V122.896C86.3596 122.459 86.2796 122.091 86.1196 121.792C85.9703 121.483 85.757 121.248 85.4796 121.088C85.213 120.917 84.8983 120.832 84.5356 120.832C84.173 120.832 83.853 120.917 83.5756 121.088C83.2983 121.248 83.0796 121.483 82.9196 121.792C82.7596 122.101 82.6796 122.469 82.6796 122.896V128H80.8876V122.896C80.8876 122.459 80.8076 122.091 80.6476 121.792C80.4983 121.483 80.285 121.248 80.0076 121.088C79.741 120.917 79.421 120.832 79.0476 120.832C78.685 120.832 78.365 120.917 78.0876 121.088C77.8103 121.248 77.5916 121.483 77.4316 121.792C77.2823 122.101 77.2076 122.469 77.2076 122.896V128H75.3996ZM94.0548 128.192C93.1908 128.192 92.4228 127.995 91.7508 127.6C91.0894 127.195 90.5721 126.651 90.1988 125.968C89.8254 125.275 89.6388 124.501 89.6388 123.648C89.6388 122.773 89.8254 122 90.1988 121.328C90.5828 120.656 91.0948 120.128 91.7348 119.744C92.3748 119.349 93.1001 119.152 93.9108 119.152C94.5614 119.152 95.1428 119.264 95.6548 119.488C96.1668 119.712 96.5988 120.021 96.9508 120.416C97.3028 120.8 97.5694 121.243 97.7508 121.744C97.9428 122.245 98.0388 122.779 98.0388 123.344C98.0388 123.483 98.0334 123.627 98.0228 123.776C98.0121 123.925 97.9908 124.064 97.9588 124.192H91.0628V122.752H96.9348L96.0708 123.408C96.1774 122.885 96.1401 122.421 95.9588 122.016C95.7881 121.6 95.5214 121.275 95.1588 121.04C94.8068 120.795 94.3908 120.672 93.9108 120.672C93.4308 120.672 93.0041 120.795 92.6308 121.04C92.2574 121.275 91.9694 121.616 91.7668 122.064C91.5641 122.501 91.4841 123.035 91.5268 123.664C91.4734 124.251 91.5534 124.763 91.7668 125.2C91.9908 125.637 92.3001 125.979 92.6948 126.224C93.1001 126.469 93.5588 126.592 94.0708 126.592C94.5934 126.592 95.0361 126.475 95.3988 126.24C95.7721 126.005 96.0654 125.701 96.2788 125.328L97.7508 126.048C97.5801 126.453 97.3134 126.821 96.9508 127.152C96.5988 127.472 96.1721 127.728 95.6708 127.92C95.1801 128.101 94.6414 128.192 94.0548 128.192ZM99.6912 128V119.344H101.419V121.04L101.211 120.816C101.425 120.272 101.766 119.861 102.235 119.584C102.705 119.296 103.249 119.152 103.867 119.152C104.507 119.152 105.073 119.291 105.563 119.568C106.054 119.845 106.438 120.229 106.715 120.72C106.993 121.211 107.131 121.776 107.131 122.416V128H105.339V122.896C105.339 122.459 105.259 122.091 105.099 121.792C104.939 121.483 104.71 121.248 104.411 121.088C104.123 120.917 103.793 120.832 103.419 120.832C103.046 120.832 102.71 120.917 102.411 121.088C102.123 121.248 101.899 121.483 101.739 121.792C101.579 122.101 101.499 122.469 101.499 122.896V128H99.6912ZM112.698 128.096C111.792 128.096 111.088 127.84 110.586 127.328C110.085 126.816 109.834 126.096 109.834 125.168V120.976H108.314V119.344H108.554C108.96 119.344 109.274 119.227 109.498 118.992C109.722 118.757 109.834 118.437 109.834 118.032V117.36H111.642V119.344H113.61V120.976H111.642V125.088C111.642 125.387 111.69 125.643 111.786 125.856C111.882 126.059 112.037 126.219 112.25 126.336C112.464 126.443 112.741 126.496 113.082 126.496C113.168 126.496 113.264 126.491 113.37 126.48C113.477 126.469 113.578 126.459 113.674 126.448V128C113.525 128.021 113.36 128.043 113.178 128.064C112.997 128.085 112.837 128.096 112.698 128.096ZM118.187 128V116.08H122.523C123.323 116.08 124.027 116.229 124.635 116.528C125.243 116.816 125.718 117.243 126.059 117.808C126.411 118.363 126.587 119.029 126.587 119.808C126.587 120.629 126.379 121.333 125.963 121.92C125.558 122.507 125.009 122.933 124.315 123.2L127.067 128H124.923L121.995 122.8L123.227 123.52H120.075V128H118.187ZM120.075 121.84H122.555C122.993 121.84 123.371 121.755 123.691 121.584C124.011 121.413 124.257 121.179 124.427 120.88C124.609 120.571 124.699 120.208 124.699 119.792C124.699 119.376 124.609 119.019 124.427 118.72C124.257 118.411 124.011 118.176 123.691 118.016C123.371 117.845 122.993 117.76 122.555 117.76H120.075V121.84ZM130.96 128.192C130.374 128.192 129.856 128.091 129.408 127.888C128.971 127.675 128.63 127.387 128.384 127.024C128.139 126.651 128.016 126.213 128.016 125.712C128.016 125.243 128.118 124.821 128.32 124.448C128.534 124.075 128.859 123.76 129.296 123.504C129.734 123.248 130.283 123.067 130.944 122.96L133.952 122.464V123.888L131.296 124.352C130.816 124.437 130.464 124.592 130.24 124.816C130.016 125.029 129.904 125.307 129.904 125.648C129.904 125.979 130.027 126.251 130.272 126.464C130.528 126.667 130.854 126.768 131.248 126.768C131.739 126.768 132.166 126.661 132.528 126.448C132.902 126.235 133.19 125.952 133.392 125.6C133.595 125.237 133.696 124.837 133.696 124.4V122.176C133.696 121.749 133.536 121.403 133.216 121.136C132.907 120.859 132.491 120.72 131.968 120.72C131.488 120.72 131.067 120.848 130.704 121.104C130.352 121.349 130.091 121.669 129.92 122.064L128.416 121.312C128.576 120.885 128.838 120.512 129.2 120.192C129.563 119.861 129.984 119.605 130.464 119.424C130.955 119.243 131.472 119.152 132.016 119.152C132.699 119.152 133.302 119.28 133.824 119.536C134.358 119.792 134.768 120.149 135.056 120.608C135.355 121.056 135.504 121.579 135.504 122.176V128H133.776V126.432L134.144 126.48C133.942 126.832 133.68 127.136 133.36 127.392C133.051 127.648 132.694 127.845 132.288 127.984C131.894 128.123 131.451 128.192 130.96 128.192ZM141.094 128.096C140.187 128.096 139.483 127.84 138.982 127.328C138.481 126.816 138.23 126.096 138.23 125.168V120.976H136.71V119.344H136.95C137.355 119.344 137.67 119.227 137.894 118.992C138.118 118.757 138.23 118.437 138.23 118.032V117.36H140.038V119.344H142.006V120.976H140.038V125.088C140.038 125.387 140.086 125.643 140.182 125.856C140.278 126.059 140.433 126.219 140.646 126.336C140.859 126.443 141.137 126.496 141.478 126.496C141.563 126.496 141.659 126.491 141.766 126.48C141.873 126.469 141.974 126.459 142.07 126.448V128C141.921 128.021 141.755 128.043 141.574 128.064C141.393 128.085 141.233 128.096 141.094 128.096ZM147.63 128.192C146.766 128.192 145.998 127.995 145.326 127.6C144.665 127.195 144.147 126.651 143.774 125.968C143.401 125.275 143.214 124.501 143.214 123.648C143.214 122.773 143.401 122 143.774 121.328C144.158 120.656 144.67 120.128 145.31 119.744C145.95 119.349 146.675 119.152 147.486 119.152C148.137 119.152 148.718 119.264 149.23 119.488C149.742 119.712 150.174 120.021 150.526 120.416C150.878 120.8 151.145 121.243 151.326 121.744C151.518 122.245 151.614 122.779 151.614 123.344C151.614 123.483 151.609 123.627 151.598 123.776C151.587 123.925 151.566 124.064 151.534 124.192H144.638V122.752H150.51L149.646 123.408C149.753 122.885 149.715 122.421 149.534 122.016C149.363 121.6 149.097 121.275 148.734 121.04C148.382 120.795 147.966 120.672 147.486 120.672C147.006 120.672 146.579 120.795 146.206 121.04C145.833 121.275 145.545 121.616 145.342 122.064C145.139 122.501 145.059 123.035 145.102 123.664C145.049 124.251 145.129 124.763 145.342 125.2C145.566 125.637 145.875 125.979 146.27 126.224C146.675 126.469 147.134 126.592 147.646 126.592C148.169 126.592 148.611 126.475 148.974 126.24C149.347 126.005 149.641 125.701 149.854 125.328L151.326 126.048C151.155 126.453 150.889 126.821 150.526 127.152C150.174 127.472 149.747 127.728 149.246 127.92C148.755 128.101 148.217 128.192 147.63 128.192Z" fill="#475569"/>
<path d="M21.4166 172V153.13H17.0966V149.65H25.4966V172H21.4166ZM33.1262 172V153.13H28.8062V149.65H37.2062V172H33.1262ZM49.1259 172.36C47.5059 172.36 46.0959 172.06 44.8959 171.46C43.7159 170.84 42.7959 170.01 42.1359 168.97C41.4959 167.93 41.1759 166.79 41.1759 165.55C41.1759 164.09 41.5659 162.86 42.3459 161.86C43.1259 160.84 44.2559 160.09 45.7359 159.61L45.4959 160.6C44.4359 160.26 43.5959 159.6 42.9759 158.62C42.3759 157.64 42.0759 156.56 42.0759 155.38C42.0759 154.2 42.3759 153.15 42.9759 152.23C43.5759 151.31 44.4059 150.59 45.4659 150.07C46.5259 149.55 47.7459 149.29 49.1259 149.29C50.4859 149.29 51.6859 149.55 52.7259 150.07C53.7859 150.59 54.6159 151.31 55.2159 152.23C55.8359 153.15 56.1459 154.2 56.1459 155.38C56.1459 156.58 55.8359 157.67 55.2159 158.65C54.6159 159.61 53.7859 160.27 52.7259 160.63L52.5159 159.58C53.9959 160.1 55.1259 160.87 55.9059 161.89C56.6859 162.89 57.0759 164.12 57.0759 165.58C57.0759 166.82 56.7459 167.96 56.0859 169C55.4459 170.02 54.5259 170.84 53.3259 171.46C52.1459 172.06 50.7459 172.36 49.1259 172.36ZM49.1259 168.91C49.9059 168.91 50.5859 168.77 51.1659 168.49C51.7459 168.19 52.1959 167.78 52.5159 167.26C52.8359 166.72 52.9959 166.11 52.9959 165.43C52.9959 164.73 52.8359 164.13 52.5159 163.63C52.1959 163.11 51.7459 162.71 51.1659 162.43C50.5859 162.13 49.9059 161.98 49.1259 161.98C48.3459 161.98 47.6659 162.13 47.0859 162.43C46.5259 162.71 46.0859 163.11 45.7659 163.63C45.4459 164.13 45.2859 164.73 45.2859 165.43C45.2859 166.11 45.4459 166.72 45.7659 167.26C46.0859 167.78 46.5259 168.19 47.0859 168.49C47.6659 168.77 48.3459 168.91 49.1259 168.91ZM49.1259 158.53C49.7059 158.53 50.2159 158.4 50.6559 158.14C51.0959 157.88 51.4359 157.54 51.6759 157.12C51.9359 156.68 52.0659 156.18 52.0659 155.62C52.0659 155.06 51.9359 154.57 51.6759 154.15C51.4359 153.71 51.0959 153.37 50.6559 153.13C50.2159 152.87 49.7059 152.74 49.1259 152.74C48.5459 152.74 48.0259 152.87 47.5659 153.13C47.1259 153.37 46.7759 153.71 46.5159 154.15C46.2759 154.57 46.1559 155.06 46.1559 155.62C46.1559 156.18 46.2759 156.68 46.5159 157.12C46.7759 157.54 47.1259 157.88 47.5659 158.14C48.0259 158.4 48.5459 158.53 49.1259 158.53ZM61.3009 176.68V174.73C61.9609 174.57 62.4909 174.26 62.8909 173.8C63.3109 173.36 63.5709 172.76 63.6709 172H61.9009V167.8H65.8609V170.38C65.8609 172.14 65.4709 173.55 64.6909 174.61C63.9309 175.67 62.8009 176.36 61.3009 176.68ZM78.0236 172.36C76.4036 172.36 74.9936 172.06 73.7936 171.46C72.6136 170.84 71.6936 170.01 71.0336 168.97C70.3936 167.93 70.0736 166.79 70.0736 165.55C70.0736 164.09 70.4636 162.86 71.2436 161.86C72.0236 160.84 73.1536 160.09 74.6336 159.61L74.3936 160.6C73.3336 160.26 72.4936 159.6 71.8736 158.62C71.2736 157.64 70.9736 156.56 70.9736 155.38C70.9736 154.2 71.2736 153.15 71.8736 152.23C72.4736 151.31 73.3036 150.59 74.3636 150.07C75.4236 149.55 76.6436 149.29 78.0236 149.29C79.3836 149.29 80.5836 149.55 81.6236 150.07C82.6836 150.59 83.5136 151.31 84.1136 152.23C84.7336 153.15 85.0436 154.2 85.0436 155.38C85.0436 156.58 84.7336 157.67 84.1136 158.65C83.5136 159.61 82.6836 160.27 81.6236 160.63L81.4136 159.58C82.8936 160.1 84.0236 160.87 84.8036 161.89C85.5836 162.89 85.9736 164.12 85.9736 165.58C85.9736 166.82 85.6436 167.96 84.9836 169C84.3436 170.02 83.4236 170.84 82.2236 171.46C81.0436 172.06 79.6436 172.36 78.0236 172.36ZM78.0236 168.91C78.8036 168.91 79.4836 168.77 80.0636 168.49C80.6436 168.19 81.0936 167.78 81.4136 167.26C81.7336 166.72 81.8936 166.11 81.8936 165.43C81.8936 164.73 81.7336 164.13 81.4136 163.63C81.0936 163.11 80.6436 162.71 80.0636 162.43C79.4836 162.13 78.8036 161.98 78.0236 161.98C77.2436 161.98 76.5636 162.13 75.9836 162.43C75.4236 162.71 74.9836 163.11 74.6636 163.63C74.3436 164.13 74.1836 164.73 74.1836 165.43C74.1836 166.11 74.3436 166.72 74.6636 167.26C74.9836 167.78 75.4236 168.19 75.9836 168.49C76.5636 168.77 77.2436 168.91 78.0236 168.91ZM78.0236 158.53C78.6036 158.53 79.1136 158.4 79.5536 158.14C79.9936 157.88 80.3336 157.54 80.5736 157.12C80.8336 156.68 80.9636 156.18 80.9636 155.62C80.9636 155.06 80.8336 154.57 80.5736 154.15C80.3336 153.71 79.9936 153.37 79.5536 153.13C79.1136 152.87 78.6036 152.74 78.0236 152.74C77.4436 152.74 76.9236 152.87 76.4636 153.13C76.0236 153.37 75.6736 153.71 75.4136 154.15C75.1736 154.57 75.0536 155.06 75.0536 155.62C75.0536 156.18 75.1736 156.68 75.4136 157.12C75.6736 157.54 76.0236 157.88 76.4636 158.14C76.9236 158.4 77.4436 158.53 78.0236 158.53ZM92.2987 172V153.13H87.9787V149.65H96.3787V172H92.2987ZM108.298 172.36C106.678 172.36 105.268 172.06 104.068 171.46C102.888 170.84 101.968 170.01 101.308 168.97C100.668 167.93 100.348 166.79 100.348 165.55C100.348 164.09 100.738 162.86 101.518 161.86C102.298 160.84 103.428 160.09 104.908 159.61L104.668 160.6C103.608 160.26 102.768 159.6 102.148 158.62C101.548 157.64 101.248 156.56 101.248 155.38C101.248 154.2 101.548 153.15 102.148 152.23C102.748 151.31 103.578 150.59 104.638 150.07C105.698 149.55 106.918 149.29 108.298 149.29C109.658 149.29 110.858 149.55 111.898 150.07C112.958 150.59 113.788 151.31 114.388 152.23C115.008 153.15 115.318 154.2 115.318 155.38C115.318 156.58 115.008 157.67 114.388 158.65C113.788 159.61 112.958 160.27 111.898 160.63L111.688 159.58C113.168 160.1 114.298 160.87 115.078 161.89C115.858 162.89 116.248 164.12 116.248 165.58C116.248 166.82 115.918 167.96 115.258 169C114.618 170.02 113.698 170.84 112.498 171.46C111.318 172.06 109.918 172.36 108.298 172.36ZM108.298 168.91C109.078 168.91 109.758 168.77 110.338 168.49C110.918 168.19 111.368 167.78 111.688 167.26C112.008 166.72 112.168 166.11 112.168 165.43C112.168 164.73 112.008 164.13 111.688 163.63C111.368 163.11 110.918 162.71 110.338 162.43C109.758 162.13 109.078 161.98 108.298 161.98C107.518 161.98 106.838 162.13 106.258 162.43C105.698 162.71 105.258 163.11 104.938 163.63C104.618 164.13 104.458 164.73 104.458 165.43C104.458 166.11 104.618 166.72 104.938 167.26C105.258 167.78 105.698 168.19 106.258 168.49C106.838 168.77 107.518 168.91 108.298 168.91ZM108.298 158.53C108.878 158.53 109.388 158.4 109.828 158.14C110.268 157.88 110.608 157.54 110.848 157.12C111.108 156.68 111.238 156.18 111.238 155.62C111.238 155.06 111.108 154.57 110.848 154.15C110.608 153.71 110.268 153.37 109.828 153.13C109.388 152.87 108.878 152.74 108.298 152.74C107.718 152.74 107.198 152.87 106.738 153.13C106.298 153.37 105.948 153.71 105.688 154.15C105.448 154.57 105.328 155.06 105.328 155.62C105.328 156.18 105.448 156.68 105.688 157.12C105.948 157.54 106.298 157.88 106.738 158.14C107.198 158.4 107.718 158.53 108.298 158.53Z" fill="#1E293B"/>
<path d="M135.344 167V170.5C135.344 170.674 135.275 170.841 135.152 170.964C135.028 171.087 134.862 171.156 134.687 171.156H131.187C131.013 171.156 130.847 171.087 130.723 170.964C130.6 170.841 130.531 170.674 130.531 170.5C130.531 170.326 130.6 170.159 130.723 170.036C130.847 169.913 131.013 169.844 131.187 169.844H133.102L129.437 166.18L127.714 167.903C127.653 167.965 127.581 168.013 127.501 168.046C127.421 168.079 127.336 168.096 127.249 168.096C127.163 168.096 127.078 168.079 126.998 168.046C126.918 168.013 126.846 167.965 126.785 167.903L122.847 163.966C122.724 163.843 122.655 163.675 122.655 163.501C122.655 163.415 122.672 163.329 122.705 163.25C122.738 163.17 122.786 163.097 122.847 163.036C122.908 162.975 122.981 162.927 123.06 162.894C123.14 162.861 123.226 162.844 123.312 162.844C123.486 162.844 123.653 162.913 123.777 163.036L127.25 166.508L128.973 164.784C129.034 164.723 129.107 164.674 129.186 164.641C129.266 164.608 129.352 164.591 129.438 164.591C129.524 164.591 129.61 164.608 129.69 164.641C129.769 164.674 129.842 164.723 129.903 164.784L134.031 168.914V167C134.031 166.826 134.1 166.659 134.223 166.536C134.347 166.413 134.513 166.344 134.687 166.344C134.862 166.344 135.028 166.413 135.152 166.536C135.275 166.659 135.344 166.826 135.344 167Z" fill="#F43F5E"/>
<path d="M140.552 172V170.764L142.976 168.232C143.456 167.728 143.824 167.328 144.08 167.032C144.344 166.728 144.528 166.468 144.632 166.252C144.736 166.036 144.788 165.816 144.788 165.592C144.788 165.216 144.668 164.92 144.428 164.704C144.196 164.488 143.896 164.38 143.528 164.38C143.144 164.38 142.812 164.492 142.532 164.716C142.252 164.932 142.048 165.252 141.92 165.676L140.492 165.232C140.588 164.76 140.784 164.352 141.08 164.008C141.376 163.656 141.736 163.388 142.16 163.204C142.592 163.012 143.048 162.916 143.528 162.916C144.104 162.916 144.608 163.02 145.04 163.228C145.48 163.436 145.82 163.728 146.06 164.104C146.308 164.48 146.432 164.92 146.432 165.424C146.432 165.744 146.372 166.06 146.252 166.372C146.132 166.684 145.952 167.004 145.712 167.332C145.472 167.652 145.16 168.012 144.776 168.412L142.676 170.62H146.552V172H140.552ZM148.576 172V170.32H150.16V172H148.576ZM155.367 172.144C154.719 172.144 154.155 172.024 153.675 171.784C153.203 171.536 152.835 171.204 152.571 170.788C152.315 170.372 152.187 169.916 152.187 169.42C152.187 168.836 152.343 168.344 152.655 167.944C152.967 167.536 153.419 167.236 154.011 167.044L153.915 167.44C153.491 167.304 153.155 167.04 152.907 166.648C152.667 166.256 152.547 165.824 152.547 165.352C152.547 164.88 152.667 164.46 152.907 164.092C153.147 163.724 153.479 163.436 153.903 163.228C154.327 163.02 154.815 162.916 155.367 162.916C155.911 162.916 156.391 163.02 156.807 163.228C157.231 163.436 157.563 163.724 157.803 164.092C158.051 164.46 158.175 164.88 158.175 165.352C158.175 165.832 158.051 166.268 157.803 166.66C157.563 167.044 157.231 167.308 156.807 167.452L156.723 167.032C157.315 167.24 157.767 167.548 158.079 167.956C158.391 168.356 158.547 168.848 158.547 169.432C158.547 169.928 158.415 170.384 158.151 170.8C157.895 171.208 157.527 171.536 157.047 171.784C156.575 172.024 156.015 172.144 155.367 172.144ZM155.367 170.764C155.679 170.764 155.951 170.708 156.183 170.596C156.415 170.476 156.595 170.312 156.723 170.104C156.851 169.888 156.915 169.644 156.915 169.372C156.915 169.092 156.851 168.852 156.723 168.652C156.595 168.444 156.415 168.284 156.183 168.172C155.951 168.052 155.679 167.992 155.367 167.992C155.055 167.992 154.783 168.052 154.551 168.172C154.327 168.284 154.151 168.444 154.023 168.652C153.895 168.852 153.831 169.092 153.831 169.372C153.831 169.644 153.895 169.888 154.023 170.104C154.151 170.312 154.327 170.476 154.551 170.596C154.783 170.708 155.055 170.764 155.367 170.764ZM155.367 166.612C155.599 166.612 155.803 166.56 155.979 166.456C156.155 166.352 156.291 166.216 156.387 166.048C156.491 165.872 156.543 165.672 156.543 165.448C156.543 165.224 156.491 165.028 156.387 164.86C156.291 164.684 156.155 164.548 155.979 164.452C155.803 164.348 155.599 164.296 155.367 164.296C155.135 164.296 154.927 164.348 154.743 164.452C154.567 164.548 154.427 164.684 154.323 164.86C154.227 165.028 154.179 165.224 154.179 165.448C154.179 165.672 154.227 165.872 154.323 166.048C154.427 166.216 154.567 166.352 154.743 166.456C154.927 166.56 155.135 166.612 155.367 166.612ZM160.933 172L168.181 163.06H169.861L162.613 172H160.933ZM162.325 167.596C161.885 167.596 161.485 167.492 161.125 167.284C160.773 167.068 160.493 166.784 160.285 166.432C160.077 166.08 159.973 165.688 159.973 165.256C159.973 164.824 160.077 164.432 160.285 164.08C160.493 163.72 160.773 163.436 161.125 163.228C161.485 163.02 161.885 162.916 162.325 162.916C162.773 162.916 163.173 163.02 163.525 163.228C163.877 163.436 164.157 163.72 164.365 164.08C164.573 164.432 164.677 164.824 164.677 165.256C164.677 165.688 164.573 166.08 164.365 166.432C164.157 166.784 163.877 167.068 163.525 167.284C163.173 167.492 162.773 167.596 162.325 167.596ZM162.325 166.384C162.565 166.384 162.765 166.332 162.925 166.228C163.085 166.116 163.205 165.976 163.285 165.808C163.373 165.632 163.417 165.448 163.417 165.256C163.417 165.056 163.373 164.872 163.285 164.704C163.205 164.536 163.085 164.396 162.925 164.284C162.765 164.172 162.565 164.116 162.325 164.116C162.101 164.116 161.905 164.172 161.737 164.284C161.577 164.396 161.453 164.54 161.365 164.716C161.277 164.884 161.233 165.064 161.233 165.256C161.233 165.44 161.277 165.62 161.365 165.796C161.453 165.972 161.577 166.116 161.737 166.228C161.905 166.332 162.101 166.384 162.325 166.384ZM168.421 172.144C167.981 172.144 167.581 172.04 167.221 171.832C166.869 171.616 166.589 171.332 166.381 170.98C166.173 170.628 166.069 170.236 166.069 169.804C166.069 169.372 166.173 168.98 166.381 168.628C166.589 168.268 166.869 167.984 167.221 167.776C167.581 167.568 167.981 167.464 168.421 167.464C168.869 167.464 169.269 167.568 169.621 167.776C169.973 167.984 170.253 168.268 170.461 168.628C170.669 168.98 170.773 169.372 170.773 169.804C170.773 170.236 170.669 170.628 170.461 170.98C170.253 171.332 169.973 171.616 169.621 171.832C169.269 172.04 168.869 172.144 168.421 172.144ZM168.421 170.932C168.653 170.932 168.849 170.88 169.009 170.776C169.177 170.664 169.301 170.524 169.381 170.356C169.469 170.18 169.513 169.996 169.513 169.804C169.513 169.604 169.469 169.42 169.381 169.252C169.301 169.084 169.177 168.944 169.009 168.832C168.849 168.72 168.653 168.664 168.421 168.664C168.197 168.664 168.001 168.72 167.833 168.832C167.673 168.944 167.549 169.088 167.461 169.264C167.373 169.432 167.329 169.612 167.329 169.804C167.329 169.988 167.373 170.168 167.461 170.344C167.549 170.52 167.673 170.664 167.833 170.776C168.001 170.88 168.197 170.932 168.421 170.932Z" fill="#F43F5E"/>
<rect x="287" y="140" width="40" height="40" rx="20" fill="#EEF2FF"/>
<path d="M311.063 168.125C311.063 168.374 310.964 168.612 310.788 168.788C310.612 168.964 310.374 169.062 310.125 169.062H303.875C303.626 169.062 303.388 168.964 303.212 168.788C303.036 168.612 302.938 168.374 302.938 168.125C302.938 167.876 303.036 167.638 303.212 167.462C303.388 167.286 303.626 167.188 303.875 167.188H310.125C310.374 167.188 310.612 167.286 310.788 167.462C310.964 167.638 311.063 167.876 311.063 168.125ZM314.188 158.125C314.19 159.214 313.944 160.29 313.468 161.269C312.992 162.249 312.298 163.107 311.44 163.777C311.324 163.866 311.229 163.98 311.164 164.111C311.098 164.241 311.064 164.385 311.063 164.531V164.688C311.063 165.102 310.898 165.499 310.605 165.792C310.312 166.085 309.915 166.25 309.5 166.25H304.5C304.086 166.25 303.688 166.085 303.395 165.792C303.102 165.499 302.938 165.102 302.938 164.688V164.531C302.937 164.388 302.904 164.246 302.841 164.117C302.777 163.988 302.684 163.876 302.57 163.788C301.714 163.122 301.021 162.269 300.544 161.295C300.066 160.321 299.816 159.251 299.813 158.166C299.792 154.273 302.938 151.031 306.827 150.937C307.786 150.914 308.739 151.083 309.631 151.434C310.523 151.785 311.336 152.311 312.022 152.981C312.708 153.65 313.252 154.451 313.624 155.334C313.996 156.217 314.188 157.166 314.188 158.125ZM312.313 158.125C312.313 157.416 312.171 156.715 311.896 156.062C311.621 155.409 311.218 154.817 310.711 154.322C310.204 153.827 309.603 153.439 308.944 153.179C308.284 152.92 307.58 152.795 306.871 152.812C303.997 152.881 301.672 155.277 301.688 158.155C301.69 158.957 301.875 159.747 302.228 160.467C302.582 161.187 303.094 161.817 303.727 162.31C304.045 162.556 304.307 162.868 304.495 163.224C304.682 163.581 304.791 163.973 304.813 164.375H309.195C309.218 163.972 309.326 163.579 309.514 163.222C309.701 162.864 309.963 162.551 310.281 162.304C310.916 161.808 311.429 161.174 311.781 160.45C312.133 159.725 312.315 158.93 312.313 158.125ZM310.745 157.709C310.662 157.008 310.384 156.344 309.944 155.791C309.503 155.239 308.917 154.821 308.252 154.584C308.019 154.508 307.766 154.526 307.546 154.634C307.327 154.743 307.158 154.932 307.077 155.163C306.995 155.394 307.007 155.647 307.11 155.869C307.212 156.091 307.398 156.264 307.627 156.352C307.961 156.469 308.256 156.677 308.478 156.953C308.7 157.23 308.841 157.562 308.884 157.914C308.911 158.161 309.035 158.387 309.23 158.543C309.326 158.62 309.436 158.677 309.554 158.711C309.673 158.746 309.796 158.757 309.919 158.743C310.041 158.729 310.16 158.692 310.268 158.633C310.376 158.573 310.471 158.493 310.548 158.397C310.625 158.301 310.682 158.191 310.716 158.072C310.751 157.954 310.761 157.83 310.748 157.708L310.745 157.709Z" fill="#4F46E5"/>
<path d="M22.784 222.192C21.9413 222.192 21.1573 222.037 20.432 221.728C19.7173 221.419 19.0933 220.992 18.56 220.448C18.0373 219.893 17.6267 219.243 17.328 218.496C17.0293 217.749 16.88 216.928 16.88 216.032C16.88 215.147 17.024 214.331 17.312 213.584C17.6107 212.827 18.0267 212.176 18.56 211.632C19.0933 211.077 19.7173 210.651 20.432 210.352C21.1467 210.043 21.9307 209.888 22.784 209.888C23.6267 209.888 24.3787 210.032 25.04 210.32C25.712 210.608 26.2773 210.987 26.736 211.456C27.1947 211.915 27.5253 212.416 27.728 212.96L26.032 213.76C25.776 213.12 25.3653 212.603 24.8 212.208C24.2453 211.803 23.5733 211.6 22.784 211.6C21.9947 211.6 21.296 211.787 20.688 212.16C20.08 212.533 19.6053 213.051 19.264 213.712C18.9333 214.373 18.768 215.147 18.768 216.032C18.768 216.917 18.9333 217.696 19.264 218.368C19.6053 219.029 20.08 219.547 20.688 219.92C21.296 220.283 21.9947 220.464 22.784 220.464C23.5733 220.464 24.2453 220.267 24.8 219.872C25.3653 219.477 25.776 218.96 26.032 218.32L27.728 219.12C27.5253 219.653 27.1947 220.155 26.736 220.624C26.2773 221.093 25.712 221.472 25.04 221.76C24.3787 222.048 23.6267 222.192 22.784 222.192ZM33.4012 222.192C32.5692 222.192 31.8066 221.995 31.1132 221.6C30.4306 221.205 29.8866 220.667 29.4812 219.984C29.0759 219.301 28.8732 218.528 28.8732 217.664C28.8732 216.789 29.0759 216.016 29.4812 215.344C29.8866 214.661 30.4306 214.128 31.1132 213.744C31.7959 213.349 32.5586 213.152 33.4012 213.152C34.2546 213.152 35.0172 213.349 35.6892 213.744C36.3719 214.128 36.9106 214.661 37.3053 215.344C37.7106 216.016 37.9132 216.789 37.9132 217.664C37.9132 218.539 37.7106 219.317 37.3053 220C36.8999 220.683 36.3559 221.221 35.6732 221.616C34.9906 222 34.2332 222.192 33.4012 222.192ZM33.4012 220.512C33.9132 220.512 34.3666 220.389 34.7613 220.144C35.1559 219.899 35.4653 219.563 35.6892 219.136C35.9239 218.699 36.0412 218.208 36.0412 217.664C36.0412 217.12 35.9239 216.635 35.6892 216.208C35.4653 215.781 35.1559 215.445 34.7613 215.2C34.3666 214.955 33.9132 214.832 33.4012 214.832C32.8999 214.832 32.4466 214.955 32.0412 215.2C31.6466 215.445 31.3319 215.781 31.0972 216.208C30.8732 216.635 30.7612 217.12 30.7612 217.664C30.7612 218.208 30.8732 218.699 31.0972 219.136C31.3319 219.563 31.6466 219.899 32.0412 220.144C32.4466 220.389 32.8999 220.512 33.4012 220.512ZM39.5664 222V213.344H41.2944V215.04L41.0864 214.816C41.2997 214.272 41.641 213.861 42.1104 213.584C42.5797 213.296 43.1237 213.152 43.7424 213.152C44.3824 213.152 44.9477 213.291 45.4384 213.568C45.929 213.845 46.313 214.229 46.5904 214.72C46.8677 215.211 47.0064 215.776 47.0064 216.416V222H45.2144V216.896C45.2144 216.459 45.1344 216.091 44.9744 215.792C44.8144 215.483 44.585 215.248 44.2864 215.088C43.9984 214.917 43.6677 214.832 43.2944 214.832C42.921 214.832 42.585 214.917 42.2864 215.088C41.9984 215.248 41.7744 215.483 41.6144 215.792C41.4544 216.101 41.3744 216.469 41.3744 216.896V222H39.5664ZM51.1851 222L47.7931 213.344H49.7611L52.3691 220.4H51.6491L54.2571 213.344H56.2411L52.8331 222H51.1851ZM61.2657 222.192C60.4017 222.192 59.6337 221.995 58.9617 221.6C58.3004 221.195 57.7831 220.651 57.4097 219.968C57.0364 219.275 56.8497 218.501 56.8497 217.648C56.8497 216.773 57.0364 216 57.4097 215.328C57.7937 214.656 58.3057 214.128 58.9457 213.744C59.5857 213.349 60.3111 213.152 61.1217 213.152C61.7724 213.152 62.3537 213.264 62.8657 213.488C63.3777 213.712 63.8097 214.021 64.1617 214.416C64.5137 214.8 64.7804 215.243 64.9617 215.744C65.1537 216.245 65.2497 216.779 65.2497 217.344C65.2497 217.483 65.2444 217.627 65.2337 217.776C65.2231 217.925 65.2017 218.064 65.1697 218.192H58.2737V216.752H64.1457L63.2817 217.408C63.3884 216.885 63.3511 216.421 63.1697 216.016C62.9991 215.6 62.7324 215.275 62.3697 215.04C62.0177 214.795 61.6017 214.672 61.1217 214.672C60.6417 214.672 60.2151 214.795 59.8417 215.04C59.4684 215.275 59.1804 215.616 58.9777 216.064C58.7751 216.501 58.6951 217.035 58.7377 217.664C58.6844 218.251 58.7644 218.763 58.9777 219.2C59.2017 219.637 59.5111 219.979 59.9057 220.224C60.3111 220.469 60.7697 220.592 61.2817 220.592C61.8044 220.592 62.2471 220.475 62.6097 220.24C62.9831 220.005 63.2764 219.701 63.4897 219.328L64.9617 220.048C64.7911 220.453 64.5244 220.821 64.1617 221.152C63.8097 221.472 63.3831 221.728 62.8817 221.92C62.3911 222.101 61.8524 222.192 61.2657 222.192ZM66.9022 222V213.344H68.6302V215.088L68.4702 214.832C68.6622 214.267 68.9716 213.861 69.3982 213.616C69.8249 213.36 70.3369 213.232 70.9342 213.232H71.4622V214.88H70.7102C70.1129 214.88 69.6276 215.067 69.2542 215.44C68.8916 215.803 68.7102 216.325 68.7102 217.008V222H66.9022ZM75.7871 222.192C74.9018 222.192 74.1231 221.973 73.4511 221.536C72.7898 221.099 72.3258 220.512 72.0591 219.776L73.4511 219.12C73.6858 219.611 74.0058 220 74.4111 220.288C74.8271 220.576 75.2858 220.72 75.7871 220.72C76.2138 220.72 76.5605 220.624 76.8271 220.432C77.0938 220.24 77.2271 219.979 77.2271 219.648C77.2271 219.435 77.1685 219.264 77.0511 219.136C76.9338 218.997 76.7845 218.885 76.6031 218.8C76.4325 218.715 76.2565 218.651 76.0751 218.608L74.7151 218.224C73.9685 218.011 73.4085 217.691 73.0351 217.264C72.6725 216.827 72.4911 216.32 72.4911 215.744C72.4911 215.221 72.6245 214.768 72.8911 214.384C73.1578 213.989 73.5258 213.685 73.9951 213.472C74.4645 213.259 74.9925 213.152 75.5791 213.152C76.3685 213.152 77.0725 213.349 77.6911 213.744C78.3098 214.128 78.7471 214.667 79.0031 215.36L77.6111 216.016C77.4405 215.6 77.1685 215.269 76.7951 215.024C76.4325 214.779 76.0218 214.656 75.5631 214.656C75.1685 214.656 74.8538 214.752 74.6191 214.944C74.3845 215.125 74.2671 215.365 74.2671 215.664C74.2671 215.867 74.3205 216.037 74.4271 216.176C74.5338 216.304 74.6725 216.411 74.8431 216.496C75.0138 216.571 75.1898 216.635 75.3711 216.688L76.7791 217.104C77.4938 217.307 78.0431 217.627 78.4271 218.064C78.8111 218.491 79.0031 219.003 79.0031 219.6C79.0031 220.112 78.8645 220.565 78.5871 220.96C78.3205 221.344 77.9471 221.648 77.4671 221.872C76.9871 222.085 76.4271 222.192 75.7871 222.192ZM80.6626 222V213.344H82.4706V222H80.6626ZM80.6626 212.16V210.08H82.4706V212.16H80.6626ZM88.6485 222.192C87.8165 222.192 87.0538 221.995 86.3605 221.6C85.6778 221.205 85.1338 220.667 84.7285 219.984C84.3232 219.301 84.1205 218.528 84.1205 217.664C84.1205 216.789 84.3232 216.016 84.7285 215.344C85.1338 214.661 85.6778 214.128 86.3605 213.744C87.0432 213.349 87.8058 213.152 88.6485 213.152C89.5018 213.152 90.2645 213.349 90.9365 213.744C91.6192 214.128 92.1578 214.661 92.5525 215.344C92.9578 216.016 93.1605 216.789 93.1605 217.664C93.1605 218.539 92.9578 219.317 92.5525 220C92.1472 220.683 91.6032 221.221 90.9205 221.616C90.2378 222 89.4805 222.192 88.6485 222.192ZM88.6485 220.512C89.1605 220.512 89.6138 220.389 90.0085 220.144C90.4032 219.899 90.7125 219.563 90.9365 219.136C91.1712 218.699 91.2885 218.208 91.2885 217.664C91.2885 217.12 91.1712 216.635 90.9365 216.208C90.7125 215.781 90.4032 215.445 90.0085 215.2C89.6138 214.955 89.1605 214.832 88.6485 214.832C88.1472 214.832 87.6938 214.955 87.2885 215.2C86.8938 215.445 86.5792 215.781 86.3445 216.208C86.1205 216.635 86.0085 217.12 86.0085 217.664C86.0085 218.208 86.1205 218.699 86.3445 219.136C86.5792 219.563 86.8938 219.899 87.2885 220.144C87.6938 220.389 88.1472 220.512 88.6485 220.512ZM94.8136 222V213.344H96.5416V215.04L96.3336 214.816C96.547 214.272 96.8883 213.861 97.3576 213.584C97.827 213.296 98.371 213.152 98.9896 213.152C99.6296 213.152 100.195 213.291 100.686 213.568C101.176 213.845 101.56 214.229 101.838 214.72C102.115 215.211 102.254 215.776 102.254 216.416V222H100.462V216.896C100.462 216.459 100.382 216.091 100.222 215.792C100.062 215.483 99.8323 215.248 99.5336 215.088C99.2456 214.917 98.915 214.832 98.5416 214.832C98.1683 214.832 97.8323 214.917 97.5336 215.088C97.2456 215.248 97.0216 215.483 96.8616 215.792C96.7016 216.101 96.6216 216.469 96.6216 216.896V222H94.8136ZM106.937 222V210.08H111.273C112.073 210.08 112.777 210.229 113.385 210.528C113.993 210.816 114.468 211.243 114.809 211.808C115.161 212.363 115.337 213.029 115.337 213.808C115.337 214.629 115.129 215.333 114.713 215.92C114.308 216.507 113.759 216.933 113.065 217.2L115.817 222H113.673L110.745 216.8L111.977 217.52H108.825V222H106.937ZM108.825 215.84H111.305C111.743 215.84 112.121 215.755 112.441 215.584C112.761 215.413 113.007 215.179 113.177 214.88C113.359 214.571 113.449 214.208 113.449 213.792C113.449 213.376 113.359 213.019 113.177 212.72C113.007 212.411 112.761 212.176 112.441 212.016C112.121 211.845 111.743 211.76 111.305 211.76H108.825V215.84ZM119.71 222.192C119.124 222.192 118.606 222.091 118.158 221.888C117.721 221.675 117.38 221.387 117.134 221.024C116.889 220.651 116.766 220.213 116.766 219.712C116.766 219.243 116.868 218.821 117.07 218.448C117.284 218.075 117.609 217.76 118.046 217.504C118.484 217.248 119.033 217.067 119.694 216.96L122.702 216.464V217.888L120.046 218.352C119.566 218.437 119.214 218.592 118.99 218.816C118.766 219.029 118.654 219.307 118.654 219.648C118.654 219.979 118.777 220.251 119.022 220.464C119.278 220.667 119.604 220.768 119.998 220.768C120.489 220.768 120.916 220.661 121.278 220.448C121.652 220.235 121.94 219.952 122.142 219.6C122.345 219.237 122.446 218.837 122.446 218.4V216.176C122.446 215.749 122.286 215.403 121.966 215.136C121.657 214.859 121.241 214.72 120.718 214.72C120.238 214.72 119.817 214.848 119.454 215.104C119.102 215.349 118.841 215.669 118.67 216.064L117.166 215.312C117.326 214.885 117.588 214.512 117.95 214.192C118.313 213.861 118.734 213.605 119.214 213.424C119.705 213.243 120.222 213.152 120.766 213.152C121.449 213.152 122.052 213.28 122.574 213.536C123.108 213.792 123.518 214.149 123.806 214.608C124.105 215.056 124.254 215.579 124.254 216.176V222H122.526V220.432L122.894 220.48C122.692 220.832 122.43 221.136 122.11 221.392C121.801 221.648 121.444 221.845 121.038 221.984C120.644 222.123 120.201 222.192 119.71 222.192ZM129.844 222.096C128.937 222.096 128.233 221.84 127.732 221.328C127.231 220.816 126.98 220.096 126.98 219.168V214.976H125.46V213.344H125.7C126.105 213.344 126.42 213.227 126.644 212.992C126.868 212.757 126.98 212.437 126.98 212.032V211.36H128.788V213.344H130.756V214.976H128.788V219.088C128.788 219.387 128.836 219.643 128.932 219.856C129.028 220.059 129.183 220.219 129.396 220.336C129.609 220.443 129.887 220.496 130.228 220.496C130.313 220.496 130.409 220.491 130.516 220.48C130.623 220.469 130.724 220.459 130.82 220.448V222C130.671 222.021 130.505 222.043 130.324 222.064C130.143 222.085 129.983 222.096 129.844 222.096ZM136.38 222.192C135.516 222.192 134.748 221.995 134.076 221.6C133.415 221.195 132.897 220.651 132.524 219.968C132.151 219.275 131.964 218.501 131.964 217.648C131.964 216.773 132.151 216 132.524 215.328C132.908 214.656 133.42 214.128 134.06 213.744C134.7 213.349 135.425 213.152 136.236 213.152C136.887 213.152 137.468 213.264 137.98 213.488C138.492 213.712 138.924 214.021 139.276 214.416C139.628 214.8 139.895 215.243 140.076 215.744C140.268 216.245 140.364 216.779 140.364 217.344C140.364 217.483 140.359 217.627 140.348 217.776C140.337 217.925 140.316 218.064 140.284 218.192H133.388V216.752H139.26L138.396 217.408C138.503 216.885 138.465 216.421 138.284 216.016C138.113 215.6 137.847 215.275 137.484 215.04C137.132 214.795 136.716 214.672 136.236 214.672C135.756 214.672 135.329 214.795 134.956 215.04C134.583 215.275 134.295 215.616 134.092 216.064C133.889 216.501 133.809 217.035 133.852 217.664C133.799 218.251 133.879 218.763 134.092 219.2C134.316 219.637 134.625 219.979 135.02 220.224C135.425 220.469 135.884 220.592 136.396 220.592C136.919 220.592 137.361 220.475 137.724 220.24C138.097 220.005 138.391 219.701 138.604 219.328L140.076 220.048C139.905 220.453 139.639 220.821 139.276 221.152C138.924 221.472 138.497 221.728 137.996 221.92C137.505 222.101 136.967 222.192 136.38 222.192Z" fill="#475569"/>
<path d="M21.5856 266V247.13H17.2656V243.65H25.6656V266H21.5856ZM29.4852 266V262.91L35.5452 256.58C36.7452 255.32 37.6652 254.32 38.3052 253.58C38.9652 252.82 39.4252 252.17 39.6852 251.63C39.9452 251.09 40.0752 250.54 40.0752 249.98C40.0752 249.04 39.7752 248.3 39.1752 247.76C38.5952 247.22 37.8452 246.95 36.9252 246.95C35.9652 246.95 35.1352 247.23 34.4352 247.79C33.7352 248.33 33.2252 249.13 32.9052 250.19L29.3352 249.08C29.5752 247.9 30.0652 246.88 30.8052 246.02C31.5452 245.14 32.4452 244.47 33.5052 244.01C34.5852 243.53 35.7252 243.29 36.9252 243.29C38.3652 243.29 39.6252 243.55 40.7052 244.07C41.8052 244.59 42.6552 245.32 43.2552 246.26C43.8752 247.2 44.1852 248.3 44.1852 249.56C44.1852 250.36 44.0352 251.15 43.7352 251.93C43.4352 252.71 42.9852 253.51 42.3852 254.33C41.7852 255.13 41.0052 256.03 40.0452 257.03L34.7952 262.55H44.4852V266H29.4852ZM48.7056 270.68V268.73C49.3656 268.57 49.8956 268.26 50.2956 267.8C50.7156 267.36 50.9756 266.76 51.0756 266H49.3056V261.8H53.2656V264.38C53.2656 266.14 52.8756 267.55 52.0956 268.61C51.3356 269.67 50.2056 270.36 48.7056 270.68ZM60.1129 266V247.13H55.7929V243.65H64.1929V266H60.1129ZM75.5425 266.36C74.3625 266.36 73.2325 266.14 72.1525 265.7C71.0925 265.26 70.1725 264.64 69.3925 263.84C68.6325 263.02 68.1125 262.05 67.8325 260.93L71.3725 259.67C71.7125 260.69 72.2625 261.45 73.0225 261.95C73.7825 262.43 74.6225 262.67 75.5425 262.67C76.3025 262.67 76.9725 262.51 77.5525 262.19C78.1525 261.85 78.6125 261.39 78.9325 260.81C79.2525 260.21 79.4125 259.52 79.4125 258.74C79.4125 257.96 79.2425 257.28 78.9025 256.7C78.5825 256.12 78.1325 255.67 77.5525 255.35C76.9725 255.01 76.3025 254.84 75.5425 254.84C74.7625 254.84 74.0525 255.01 73.4125 255.35C72.7925 255.69 72.3425 256.18 72.0625 256.82L68.7325 256.07L70.5025 243.65H82.6825V247.1H72.1225L73.6525 245.33L72.3925 254.69L71.2225 253.73C71.7825 252.91 72.4625 252.31 73.2625 251.93C74.0825 251.55 75.0725 251.36 76.2325 251.36C77.7125 251.36 78.9925 251.68 80.0725 252.32C81.1725 252.96 82.0225 253.83 82.6225 254.93C83.2225 256.03 83.5225 257.3 83.5225 258.74C83.5225 260.18 83.1725 261.48 82.4725 262.64C81.7725 263.8 80.8225 264.71 79.6225 265.37C78.4225 266.03 77.0625 266.36 75.5425 266.36ZM94.1795 266.36C92.5595 266.36 91.1495 266.06 89.9495 265.46C88.7695 264.84 87.8495 264.01 87.1895 262.97C86.5495 261.93 86.2295 260.79 86.2295 259.55C86.2295 258.09 86.6195 256.86 87.3995 255.86C88.1795 254.84 89.3095 254.09 90.7895 253.61L90.5495 254.6C89.4895 254.26 88.6495 253.6 88.0295 252.62C87.4295 251.64 87.1295 250.56 87.1295 249.38C87.1295 248.2 87.4295 247.15 88.0295 246.23C88.6295 245.31 89.4595 244.59 90.5195 244.07C91.5795 243.55 92.7995 243.29 94.1795 243.29C95.5395 243.29 96.7395 243.55 97.7795 244.07C98.8395 244.59 99.6695 245.31 100.27 246.23C100.89 247.15 101.2 248.2 101.2 249.38C101.2 250.58 100.89 251.67 100.27 252.65C99.6695 253.61 98.8395 254.27 97.7795 254.63L97.5695 253.58C99.0495 254.1 100.18 254.87 100.96 255.89C101.74 256.89 102.13 258.12 102.13 259.58C102.13 260.82 101.8 261.96 101.14 263C100.5 264.02 99.5795 264.84 98.3795 265.46C97.1995 266.06 95.7995 266.36 94.1795 266.36ZM94.1795 262.91C94.9595 262.91 95.6395 262.77 96.2195 262.49C96.7995 262.19 97.2495 261.78 97.5695 261.26C97.8895 260.72 98.0495 260.11 98.0495 259.43C98.0495 258.73 97.8895 258.13 97.5695 257.63C97.2495 257.11 96.7995 256.71 96.2195 256.43C95.6395 256.13 94.9595 255.98 94.1795 255.98C93.3995 255.98 92.7195 256.13 92.1395 256.43C91.5795 256.71 91.1395 257.11 90.8195 257.63C90.4995 258.13 90.3395 258.73 90.3395 259.43C90.3395 260.11 90.4995 260.72 90.8195 261.26C91.1395 261.78 91.5795 262.19 92.1395 262.49C92.7195 262.77 93.3995 262.91 94.1795 262.91ZM94.1795 252.53C94.7595 252.53 95.2695 252.4 95.7095 252.14C96.1495 251.88 96.4895 251.54 96.7295 251.12C96.9895 250.68 97.1195 250.18 97.1195 249.62C97.1195 249.06 96.9895 248.57 96.7295 248.15C96.4895 247.71 96.1495 247.37 95.7095 247.13C95.2695 246.87 94.7595 246.74 94.1795 246.74C93.5995 246.74 93.0795 246.87 92.6195 247.13C92.1795 247.37 91.8295 247.71 91.5695 248.15C91.3295 248.57 91.2095 249.06 91.2095 249.62C91.2095 250.18 91.3295 250.68 91.5695 251.12C91.8295 251.54 92.1795 251.88 92.6195 252.14C93.0795 252.4 93.5995 252.53 94.1795 252.53ZM106.355 270.68V268.73C107.015 268.57 107.545 268.26 107.945 267.8C108.365 267.36 108.625 266.76 108.725 266H106.955V261.8H110.915V264.38C110.915 266.14 110.525 267.55 109.745 268.61C108.985 269.67 107.855 270.36 106.355 270.68ZM117.762 266V247.13H113.442V243.65H121.842V266H117.762ZM133.761 266.36C132.141 266.36 130.731 266.06 129.531 265.46C128.351 264.84 127.431 264.01 126.771 262.97C126.131 261.93 125.811 260.79 125.811 259.55C125.811 258.09 126.201 256.86 126.981 255.86C127.761 254.84 128.891 254.09 130.371 253.61L130.131 254.6C129.071 254.26 128.231 253.6 127.611 252.62C127.011 251.64 126.711 250.56 126.711 249.38C126.711 248.2 127.011 247.15 127.611 246.23C128.211 245.31 129.041 244.59 130.101 244.07C131.161 243.55 132.381 243.29 133.761 243.29C135.121 243.29 136.321 243.55 137.361 244.07C138.421 244.59 139.251 245.31 139.851 246.23C140.471 247.15 140.781 248.2 140.781 249.38C140.781 250.58 140.471 251.67 139.851 252.65C139.251 253.61 138.421 254.27 137.361 254.63L137.151 253.58C138.631 254.1 139.761 254.87 140.541 255.89C141.321 256.89 141.711 258.12 141.711 259.58C141.711 260.82 141.381 261.96 140.721 263C140.081 264.02 139.161 264.84 137.961 265.46C136.781 266.06 135.381 266.36 133.761 266.36ZM133.761 262.91C134.541 262.91 135.221 262.77 135.801 262.49C136.381 262.19 136.831 261.78 137.151 261.26C137.471 260.72 137.631 260.11 137.631 259.43C137.631 258.73 137.471 258.13 137.151 257.63C136.831 257.11 136.381 256.71 135.801 256.43C135.221 256.13 134.541 255.98 133.761 255.98C132.981 255.98 132.301 256.13 131.721 256.43C131.161 256.71 130.721 257.11 130.401 257.63C130.081 258.13 129.921 258.73 129.921 259.43C129.921 260.11 130.081 260.72 130.401 261.26C130.721 261.78 131.161 262.19 131.721 262.49C132.301 262.77 132.981 262.91 133.761 262.91ZM133.761 252.53C134.341 252.53 134.851 252.4 135.291 252.14C135.731 251.88 136.071 251.54 136.311 251.12C136.571 250.68 136.701 250.18 136.701 249.62C136.701 249.06 136.571 248.57 136.311 248.15C136.071 247.71 135.731 247.37 135.291 247.13C134.851 246.87 134.341 246.74 133.761 246.74C133.181 246.74 132.661 246.87 132.201 247.13C131.761 247.37 131.411 247.71 131.151 248.15C130.911 248.57 130.791 249.06 130.791 249.62C130.791 250.18 130.911 250.68 131.151 251.12C131.411 251.54 131.761 251.88 132.201 252.14C132.661 252.4 133.181 252.53 133.761 252.53ZM145.007 266L154.307 247.1H143.777V243.65H158.597V247.1L149.507 266H145.007Z" fill="#1E293B"/>
<path d="M177.344 257.063V260.563C177.344 260.737 177.275 260.903 177.152 261.027C177.028 261.15 176.862 261.219 176.687 261.219C176.513 261.219 176.347 261.15 176.223 261.027C176.1 260.903 176.031 260.737 176.031 260.563V258.648L171.902 262.778C171.841 262.84 171.768 262.888 171.689 262.921C171.609 262.954 171.523 262.971 171.437 262.971C171.351 262.971 171.265 262.954 171.185 262.921C171.105 262.888 171.033 262.84 170.972 262.778L169.25 261.055L165.777 264.527C165.653 264.65 165.486 264.719 165.312 264.719C165.138 264.719 164.97 264.65 164.847 264.527C164.724 264.404 164.655 264.236 164.655 264.062C164.655 263.888 164.724 263.72 164.847 263.597L168.785 259.66C168.846 259.598 168.918 259.55 168.998 259.517C169.078 259.484 169.163 259.467 169.249 259.467C169.336 259.467 169.421 259.484 169.501 259.517C169.581 259.55 169.653 259.598 169.714 259.66L171.437 261.383L175.102 257.719H173.187C173.013 257.719 172.847 257.65 172.723 257.527C172.6 257.403 172.531 257.237 172.531 257.063C172.531 256.888 172.6 256.722 172.723 256.598C172.847 256.475 173.013 256.406 173.187 256.406H176.687C176.862 256.406 177.028 256.475 177.152 256.598C177.275 256.722 177.344 256.888 177.344 257.063Z" fill="#22C55E"/>
<path d="M185.792 266.144C185.144 266.144 184.58 266.024 184.1 265.784C183.628 265.536 183.26 265.204 182.996 264.788C182.74 264.372 182.612 263.916 182.612 263.42C182.612 262.836 182.768 262.344 183.08 261.944C183.392 261.536 183.844 261.236 184.436 261.044L184.34 261.44C183.916 261.304 183.58 261.04 183.332 260.648C183.092 260.256 182.972 259.824 182.972 259.352C182.972 258.88 183.092 258.46 183.332 258.092C183.572 257.724 183.904 257.436 184.328 257.228C184.752 257.02 185.24 256.916 185.792 256.916C186.336 256.916 186.816 257.02 187.232 257.228C187.656 257.436 187.988 257.724 188.228 258.092C188.476 258.46 188.6 258.88 188.6 259.352C188.6 259.832 188.476 260.268 188.228 260.66C187.988 261.044 187.656 261.308 187.232 261.452L187.148 261.032C187.74 261.24 188.192 261.548 188.504 261.956C188.816 262.356 188.972 262.848 188.972 263.432C188.972 263.928 188.84 264.384 188.576 264.8C188.32 265.208 187.952 265.536 187.472 265.784C187 266.024 186.44 266.144 185.792 266.144ZM185.792 264.764C186.104 264.764 186.376 264.708 186.608 264.596C186.84 264.476 187.02 264.312 187.148 264.104C187.276 263.888 187.34 263.644 187.34 263.372C187.34 263.092 187.276 262.852 187.148 262.652C187.02 262.444 186.84 262.284 186.608 262.172C186.376 262.052 186.104 261.992 185.792 261.992C185.48 261.992 185.208 262.052 184.976 262.172C184.752 262.284 184.576 262.444 184.448 262.652C184.32 262.852 184.256 263.092 184.256 263.372C184.256 263.644 184.32 263.888 184.448 264.104C184.576 264.312 184.752 264.476 184.976 264.596C185.208 264.708 185.48 264.764 185.792 264.764ZM185.792 260.612C186.024 260.612 186.228 260.56 186.404 260.456C186.58 260.352 186.716 260.216 186.812 260.048C186.916 259.872 186.968 259.672 186.968 259.448C186.968 259.224 186.916 259.028 186.812 258.86C186.716 258.684 186.58 258.548 186.404 258.452C186.228 258.348 186.024 258.296 185.792 258.296C185.56 258.296 185.352 258.348 185.168 258.452C184.992 258.548 184.852 258.684 184.748 258.86C184.652 259.028 184.604 259.224 184.604 259.448C184.604 259.672 184.652 259.872 184.748 260.048C184.852 260.216 184.992 260.352 185.168 260.456C185.352 260.56 185.56 260.612 185.792 260.612ZM191.358 266L198.606 257.06H200.286L193.038 266H191.358ZM192.75 261.596C192.31 261.596 191.91 261.492 191.55 261.284C191.198 261.068 190.918 260.784 190.71 260.432C190.502 260.08 190.398 259.688 190.398 259.256C190.398 258.824 190.502 258.432 190.71 258.08C190.918 257.72 191.198 257.436 191.55 257.228C191.91 257.02 192.31 256.916 192.75 256.916C193.198 256.916 193.598 257.02 193.95 257.228C194.302 257.436 194.582 257.72 194.79 258.08C194.998 258.432 195.102 258.824 195.102 259.256C195.102 259.688 194.998 260.08 194.79 260.432C194.582 260.784 194.302 261.068 193.95 261.284C193.598 261.492 193.198 261.596 192.75 261.596ZM192.75 260.384C192.99 260.384 193.19 260.332 193.35 260.228C193.51 260.116 193.63 259.976 193.71 259.808C193.798 259.632 193.842 259.448 193.842 259.256C193.842 259.056 193.798 258.872 193.71 258.704C193.63 258.536 193.51 258.396 193.35 258.284C193.19 258.172 192.99 258.116 192.75 258.116C192.526 258.116 192.33 258.172 192.162 258.284C192.002 258.396 191.878 258.54 191.79 258.716C191.702 258.884 191.658 259.064 191.658 259.256C191.658 259.44 191.702 259.62 191.79 259.796C191.878 259.972 192.002 260.116 192.162 260.228C192.33 260.332 192.526 260.384 192.75 260.384ZM198.846 266.144C198.406 266.144 198.006 266.04 197.646 265.832C197.294 265.616 197.014 265.332 196.806 264.98C196.598 264.628 196.494 264.236 196.494 263.804C196.494 263.372 196.598 262.98 196.806 262.628C197.014 262.268 197.294 261.984 197.646 261.776C198.006 261.568 198.406 261.464 198.846 261.464C199.294 261.464 199.694 261.568 200.046 261.776C200.398 261.984 200.678 262.268 200.886 262.628C201.094 262.98 201.198 263.372 201.198 263.804C201.198 264.236 201.094 264.628 200.886 264.98C200.678 265.332 200.398 265.616 200.046 265.832C199.694 266.04 199.294 266.144 198.846 266.144ZM198.846 264.932C199.078 264.932 199.274 264.88 199.434 264.776C199.602 264.664 199.726 264.524 199.806 264.356C199.894 264.18 199.938 263.996 199.938 263.804C199.938 263.604 199.894 263.42 199.806 263.252C199.726 263.084 199.602 262.944 199.434 262.832C199.274 262.72 199.078 262.664 198.846 262.664C198.622 262.664 198.426 262.72 198.258 262.832C198.098 262.944 197.974 263.088 197.886 263.264C197.798 263.432 197.754 263.612 197.754 263.804C197.754 263.988 197.798 264.168 197.886 264.344C197.974 264.52 198.098 264.664 198.258 264.776C198.426 264.88 198.622 264.932 198.846 264.932Z" fill="#22C55E"/>
<rect x="287" y="234" width="40" height="40" rx="20" fill="#EEF2FF"/>
<path d="M314.165 253.17C314.132 253.022 314.063 252.883 313.964 252.767C313.865 252.651 313.74 252.561 313.598 252.505L309.6 250.905L310.427 245.389C310.458 245.191 310.424 244.988 310.331 244.811C310.237 244.634 310.09 244.491 309.909 244.403C309.729 244.316 309.525 244.289 309.328 244.325C309.131 244.362 308.951 244.461 308.815 244.608L300.065 253.983C299.961 254.094 299.885 254.229 299.845 254.376C299.805 254.523 299.802 254.678 299.835 254.827C299.868 254.975 299.937 255.114 300.036 255.23C300.134 255.346 300.26 255.436 300.402 255.493L304.4 257.092L303.573 262.611C303.542 262.809 303.576 263.012 303.669 263.189C303.763 263.366 303.91 263.509 304.091 263.597C304.271 263.684 304.474 263.711 304.671 263.675C304.868 263.638 305.048 263.539 305.185 263.392L313.935 254.017C314.04 253.905 314.115 253.77 314.155 253.622C314.195 253.475 314.198 253.319 314.165 253.17ZM305.875 259.902L306.365 256.639C306.396 256.43 306.356 256.217 306.251 256.034C306.146 255.85 305.982 255.708 305.786 255.63L302.37 254.263L308.125 248.098L307.635 251.361C307.604 251.57 307.644 251.783 307.749 251.966C307.854 252.149 308.018 252.292 308.214 252.37L311.63 253.737L305.875 259.902Z" fill="#4F46E5"/>
</svg>
