<svg width="276" height="335" viewBox="0 0 276 335" fill="none" xmlns="http://www.w3.org/2000/svg">
<path d="M225.558 136.083C225.58 141.552 225.603 147.02 224.616 153.843C206.657 159.058 189.422 159.644 172.139 159.678C174.437 154.176 176.986 148.762 178.988 143.153C186.194 122.958 175.182 107.873 153.65 108.28C151.333 108.324 148.988 108.441 146.712 108.843C130.111 111.775 124.876 119.281 127.866 135.93C129.214 143.432 130.772 150.897 131.395 159.098C116.292 158.548 102.029 157.278 87.7655 156.009C88.1445 150.282 88.638 144.56 88.8624 138.827C89.0132 134.969 88.7836 131.096 88.6114 125.66C88.9176 121.425 89.3368 118.759 89.99 114.605C74.9903 119.011 61.7826 120.165 49.7427 111.375C41.0595 98.5399 41.8008 78.2812 51.3766 66.7284C56.8973 60.068 63.9206 58.3335 71.8624 62.0239C74.8427 63.4087 77.664 65.2689 80.2724 67.2821C82.8173 69.2462 84.998 71.6821 89.1645 75.6496C88.3136 66.1895 87.6624 58.9486 86.9206 50.7002C100.026 50.7002 112.215 50.7002 125.85 50.7002C123.646 44.8759 121.863 40.3789 120.237 35.8255C114.619 20.0881 118.172 11.5903 133.284 4.44199C150.535 -3.71805 170.637 -0.375274 182 12.3321C188.724 19.8521 190.549 27.8735 185.562 37.0017C183.504 40.7694 181.528 44.5824 178.661 49.9843C186.734 50.1507 193.766 50.3513 200.799 50.4249C207.712 50.4973 214.625 50.4406 222.348 50.4406C222.926 60.6253 223.443 69.7339 224.024 79.9779C226.293 78.6259 227.808 78.1076 228.79 77.08C240.827 64.4861 255.896 65.1195 264.944 86.3604C268.693 95.1601 268.602 104.496 264.823 114.691C252.864 124.185 241.565 132.206 225.558 126.399C225.558 130.36 225.558 133.222 225.558 136.083Z" fill="#FC7E30"/>
<path d="M30.8407 283.072C20.7902 270.321 10.7397 257.569 0 243.943C10.4332 238.419 20.1569 233.27 31.4359 227.298C27.0137 224.609 24.2163 223.078 21.6023 221.281C16.9642 218.091 11.9148 215.263 7.9845 211.335C1.87012 205.226 1.27588 197.802 5.07068 190.165C11.0123 178.208 31.8013 166.441 45.0688 167.525C55.1274 168.346 62.2703 174.04 65.2408 184.054C66.5469 188.457 67.2377 193.043 68.3635 198.268C76.9635 196.132 79.3424 186.723 87.3251 183.147C97.3748 190.99 102.676 203.337 111.59 211.879C116.342 204.983 120.179 197.849 125.5 192.085C132.474 184.529 140.891 184.724 148.614 191.247C150.131 192.528 151.381 194.125 153.302 196.916C152.486 199.996 151.448 202.222 149.702 203.391C141.98 208.564 134.036 213.402 126.212 218.425C122.426 220.856 118.13 222.951 117.678 229.038C123.824 229.73 129.011 228.312 134.148 226.162C140.073 223.68 145.988 222.674 151.825 226.944C148.228 236.076 139.926 237.164 131.967 239.533C132.68 241.459 133.237 242.963 133.534 245.241C131.317 250.488 127.358 251.038 123.285 250.717C116.172 250.157 109.612 251.723 103.193 254.678C99.0244 256.598 94.4056 257.597 90.3663 259.725C85.469 262.306 80.4606 265.087 76.4246 268.79C71.1337 273.644 66.707 279.448 61.9803 284.906C57.089 290.554 53.2065 297.389 44.8073 298.749C44.084 298.867 43.5591 300.207 42.9421 300.98C41.6622 299.23 40.3823 297.479 39.5537 294.957C53.3182 283.509 57.0524 277.118 54.8894 267.762C52.2056 269.165 49.5148 270.301 47.1143 271.88C41.6145 275.496 36.2563 279.328 30.8407 283.072Z" fill="#49D466"/>
<path d="M153.693 196.406C166.424 195.857 178.603 199.188 191.901 200.809C190.923 204.003 189.979 206.063 189.689 208.212C188.537 216.726 186.503 225.31 186.823 233.792C187.294 246.261 193.73 252.75 204.643 254.476C216.463 256.344 226.401 251.681 231.27 241.41C233.094 237.563 234.088 233.254 234.992 229.055C236.168 223.594 236.878 218.033 238.005 211.196C250.376 213.926 262.142 216.522 275.255 219.416C269.648 235.999 264.379 251.581 258.354 268.28C251.564 274.018 245.163 273.37 238.739 270.509C234.73 268.723 231.459 268.57 227.826 271.877C225.901 273.629 222.288 274.686 219.671 274.331C203.905 272.194 187.941 270.95 173.194 263.922C163.978 259.529 154.712 254.637 143.234 255.958C139.898 251.909 137.165 248.401 135.102 244.437C138.311 243.304 140.886 242.73 143.389 241.929C152.896 238.887 158.669 232.574 158.627 222.387C158.602 216.536 157.354 210.663 156.335 204.856C155.829 201.974 154.597 199.219 153.693 196.406Z" fill="#7636F7"/>
<path d="M134.433 244.892C137.165 248.401 139.897 251.909 143.266 256.65C144.402 259.643 144.901 261.404 145.033 263.699C132.859 276.437 120.488 288.071 105.472 296.203C89.4528 304.878 73.0219 312.792 56.7708 321.038C52.2876 314.775 47.8042 308.513 43.1328 301.615C43.5616 300.207 44.0865 298.866 44.8098 298.749C53.2091 297.388 57.0916 290.553 61.9829 284.905C66.7096 279.448 71.1362 273.643 76.4271 268.789C80.4631 265.087 85.4716 262.306 90.3689 259.725C94.4082 257.596 99.027 256.597 103.196 254.678C109.615 251.722 116.175 250.157 123.287 250.717C127.36 251.038 131.32 250.488 133.615 245.273C133.954 244.532 134.433 244.892 134.433 244.892Z" fill="#88DB4F"/>
<path d="M145.398 263.164C144.898 261.403 144.399 259.643 143.867 257.19C154.709 254.637 163.975 259.529 173.191 263.921C187.938 270.95 203.902 272.194 219.668 274.331C222.285 274.685 225.897 273.629 227.823 271.876C231.455 268.57 234.726 268.723 238.736 270.509C245.159 273.37 251.561 274.017 258.227 269.009C257.075 278.198 255.292 287.775 252.407 297.738C249.081 297.317 246.855 296.51 244.579 295.058C242.534 289.659 238.51 288.952 233.927 288.538C223.354 287.583 212.574 287.219 202.329 284.75C188.191 281.342 174.478 276.181 160.554 271.865C158.7 271.291 156.675 271.271 154.175 270.651C150.88 267.927 148.139 265.546 145.398 263.164Z" fill="#5D48EC"/>
<path d="M244.632 295.703C246.857 296.51 249.082 297.317 252.104 298.557C252.675 302.333 252.447 305.675 251.106 309.745C247.009 310.383 244.018 310.402 241.044 310.189C211.745 308.093 183.609 300.293 155.492 292.501C149.782 290.918 144.365 288.276 139.258 285.648C144.442 282.292 149.181 279.411 154.424 277.117C157.428 279.237 159.763 281.221 162.462 282.219C170.508 285.195 178.559 288.34 186.86 290.411C205.801 295.134 225.11 296.827 244.632 295.703Z" fill="#49D466"/>
<path d="M138.813 286.123C144.365 288.277 149.782 290.92 155.492 292.502C183.609 300.294 211.745 308.094 241.044 310.191C244.018 310.404 247.009 310.385 250.809 310.471C251.218 315.019 250.812 319.569 250.32 325.082C208.36 315.161 167.282 305.449 125.844 294.887C129.927 291.399 134.37 288.761 138.813 286.123Z" fill="#7636F7"/>
<path d="M139.258 285.649C134.37 288.761 129.927 291.399 125.111 294.46C107.957 305.558 91.1526 316.196 74.4142 326.938C71.3888 328.88 68.6371 331.248 64.7017 334.217C61.9258 329.879 59.5159 326.113 56.9375 321.693C73.0201 312.792 89.451 304.878 105.47 296.204C120.487 288.072 132.857 276.437 145.031 263.699C148.14 265.546 150.881 267.928 154.151 271.359C154.427 273.783 154.174 275.157 153.921 276.532C149.181 279.413 144.442 282.294 139.258 285.649Z" fill="#0CB330"/>
<path d="M135.1 244.437C134.432 244.891 133.953 244.532 133.874 244.499C133.238 242.962 132.681 241.458 131.968 239.532C139.927 237.163 148.23 236.075 151.827 226.944C145.989 222.674 140.074 223.68 134.149 226.161C129.013 228.312 123.825 229.729 117.68 229.037C118.131 222.95 122.427 220.855 126.213 218.424C134.037 213.402 141.982 208.563 149.704 203.391C151.449 202.221 152.487 199.995 153.745 197.485C153.64 196.716 153.612 196.555 153.652 196.48C154.595 199.218 155.828 201.973 156.333 204.856C157.353 210.662 158.601 216.536 158.625 222.386C158.667 232.573 152.894 238.887 143.387 241.929C140.885 242.729 138.31 243.304 135.1 244.437Z" fill="#0CB330"/>
<path d="M171.801 160.09C189.422 159.645 206.657 159.058 224.454 155.189C225.86 159.001 226.417 162.821 227.089 167.418C206.728 171.415 187.269 170.573 166.125 170.093C168.379 166.043 169.921 163.273 171.801 160.09Z" fill="#0CB330"/>
<path d="M87.5886 156.65C102.031 157.277 116.294 158.547 131.427 159.956C133.029 162.608 133.76 165.121 134.895 169.021C118.08 170.634 102.186 169.871 85.2422 167.475C86.0645 163.612 86.7369 160.452 87.5886 156.65Z" fill="#0CB330"/>
<path d="M49.875 111.955C61.7839 120.165 74.9916 119.01 89.9913 114.605C89.3381 118.759 88.9189 121.425 88.3451 124.7C71.4064 130.694 59.9158 126.85 49.875 111.955Z" fill="#49D466"/>
<path d="M225.7 136.053C225.559 133.222 225.559 130.36 225.559 126.399C241.566 132.206 252.865 124.185 264.467 115.514C260.361 129.937 248.669 137.594 234.047 135.773C231.364 135.439 228.579 135.919 225.7 136.053Z" fill="#0CB330"/>
<path d="M31.0156 283.687C36.2592 279.327 41.6173 275.496 47.1171 271.879C49.5176 270.301 52.2084 269.164 54.8922 267.762C57.0552 277.117 53.321 283.508 39.334 294.335C36.1694 291.091 33.6786 287.696 31.0156 283.687Z" fill="#0CB330"/>
<path d="M154.427 277.119C154.176 275.158 154.429 273.783 154.707 271.702C156.678 271.272 158.704 271.292 160.558 271.867C174.482 276.182 188.194 281.343 202.332 284.751C212.578 287.22 223.357 287.584 233.93 288.539C238.513 288.953 242.538 289.66 244.583 295.059C225.112 296.828 205.804 295.136 186.862 290.412C178.562 288.342 170.511 285.196 162.464 282.221C159.765 281.223 157.431 279.239 154.427 277.119Z" fill="#3464D1"/>
</svg>
