<?xml version="1.0" encoding="utf-8"?>
<!-- Generator: Adobe Illustrator 27.5.0, SVG Export Plug-In . SVG Version: 6.00 Build 0)  -->
<svg version="1.1" xmlns="http://www.w3.org/2000/svg" xmlns:xlink="http://www.w3.org/1999/xlink" x="0px" y="0px"
	 viewBox="0 0 1122 1122" style="enable-background:new 0 0 1122 1122;" xml:space="preserve">
<g id="BG">
	<rect style="fill:#FFFFFF;" width="1122" height="1122"/>
</g>
<g id="Object">
	<g>
		<g>
			<path style="fill:#FFFFFF;" d="M345.089,181.127c0,0-73.892,283.811-89.006,376.176s-34.427,258.621-34.427,258.621
				s244.346,16.794,247.705,15.954c3.359-0.84,115.876-26.87,172.974-68.014c57.098-41.144,93.204-73.052,93.204-73.052
				l86.487-487.013c0,0-139.387-30.229-249.384-35.266C462.644,163.493,345.089,181.127,345.089,181.127z"/>
			<path style="fill:#FFFFFF;" d="M381.195,930.959l-58.777,15.114l0.84,21.832l13.435,7.557l41.984-5.878l5.878,3.359
				c0,0,68.854-8.397,71.373-8.397c2.519,0,427.396-144.425,427.396-144.425s3.359-14.274-3.359-31.908
				c-6.717-17.633-27.709-20.992-27.709-20.992L433.255,899.891L381.195,930.959z"/>
		</g>
		<g>
			<g>
				<g>
					<path d="M642.314,373.669c-48.781-43.596-123.266-42.549-180.343-17.359c-58.917,26.003-102.891,82.089-102.727,148.058
						c0.087,35.048,13.872,68.761,39.639,92.727c23.974,22.296,56.831,35.28,89.707,32.252c5.483-0.505,5.675-8.28,0-7.94
						c-57.649,3.452-106.044-43.682-112.424-99.426c-6.705-58.593,26.422-112.828,76.536-141.392
						c48.303-27.531,113.518-34.725,162.131-3.938c43.416,27.496,59.574,85.566,46.805,133.697
						c-7.5,28.274-25.825,55.518-48.534,73.893c-12.009,9.717-25.359,17.613-39.65,23.471c-14.407,5.907-29.561,8.972-44.79,11.896
						c-5.456,1.047-4.112,9.04,1.317,8.758c29.215-1.513,59.139-13.832,83.426-29.768c25.545-16.762,46.355-37.864,59.07-65.921
						C696.133,480.48,685.762,412.5,642.314,373.669z"/>
				</g>
				<g>
					<path d="M577.471,435.321c-19.445-25.498-55.134-32.881-84.326-21.621c-29.231,11.275-48.364,39.663-47.151,71.102
						c1.272,32.993,26.486,59.918,58.73,65.398c0.407,0.069,0.607-0.458,0.18-0.589c-24.39-7.473-42.991-28.965-46.893-54.196
						c-3.908-25.276,8.085-52.123,30.581-64.733c22.157-12.419,50.233-10.34,69.441,6.752
						c17.982,16.001,24.462,42.235,15.952,64.784c-4.645,12.309-14.861,21.926-25.469,29.287
						c-6.364,4.416-12.271,8.185-20.384,7.773c-6.809-0.346-14.013-1.388-20.666-2.874c-3.744-0.836-5.594,4.417-1.66,5.419
						c13.899,3.541,26.872-1.139,40.521-3.909c13.195-2.678,24.226-11.212,31.945-21.993
						C594.921,492.669,594.937,458.225,577.471,435.321z"/>
				</g>
				<g>
					<path d="M542.494,479.807c-1.403-21.234-31.9-28.324-42.899-10.399c-0.067,0.09-0.14,0.173-0.206,0.264
						c-5.725,7.873-4.442,18.598,1.458,25.966C514.348,512.497,543.95,501.833,542.494,479.807z"/>
				</g>
				<g>
					<path d="M519.766,568.788c-0.001-5.06-0.425-10.059-1.845-14.625c-0.321-1.032-2.066-1.328-2.605-0.306
						c-3.994,7.571-5.17,17.033-6.3,25.724c-13.425,35.481-22.355,74.985-20.195,112.887c0.482,8.466,12.106,9.454,15.519,3.154
						c3.91-0.561,7.682-3.128,8.325-7.595c5.354-37.181,10.708-74.363,16.062-111.544C529.54,570.83,524.67,568.394,519.766,568.788
						z"/>
				</g>
				<g>
					<path d="M412.114,454.521c-0.827,0.063-1.655,0.124-2.483,0.186c4.747-2.86,0.817-10.967-5.801-10.142
						c-26.726,3.33-53.412,7.006-80.113,10.533c-2.26,0.299-4.083,1.915-5.042,3.93c-8.825,1.458-17.631,3.001-26.397,4.728
						c-8.821,1.738-6.785,15.253,2.157,14.342c6.703-0.683,13.404-1.392,20.106-2.096c0.492,3.179,3.044,6.11,7.148,5.864
						c2.791-0.168,5.582-0.342,8.372-0.511c0.803,2.321,2.864,4.181,5.927,3.852c4.288-0.286,8.564-0.703,12.832-1.198
						c17.562-1.452,35.236-2.182,52.79-3.354c3.846-0.257,5.364-3.685,4.454-6.216c1.811-2.664,0.979-6.597-2.703-7.474
						c3.451-0.594,6.905-1.17,10.366-1.705C420.446,464.224,418.76,454.015,412.114,454.521z"/>
				</g>
				<g>
					<path d="M543.151,301.052c0.083-2.089,0.162-4.179,0.252-6.266c0.41-9.532-15.599-11.114-17.928-2.184
						c-0.544,2.083-1.096,4.163-1.642,6.245c-5.289-2.648-13.669-1.001-14.718,5.176c-1.676,9.867-1.462,20.162-1.913,30.153
						c-0.456,10.075-0.697,20.143-0.913,30.226c-0.17,7.948,10.396,10.85,16.017,6.962c0.004,2.231-0.001,4.462,0.034,6.691
						c0.021,1.398,0.342,2.58,0.87,3.567c-0.301,3.348-0.56,6.696-0.764,10.044c-0.447,7.346,10.975,7.809,13.163,1.591
						c0.034,0.008,0.067,0.017,0.101,0.025c1.016-4.478,1.931-8.985,2.782-13.51c0.193-0.535,0.338-1.106,0.422-1.716
						c0.104-0.76,0.208-1.52,0.313-2.28c4.031-22.557,6.433-45.561,9.665-68.146C549.404,304.045,546.528,301.752,543.151,301.052z"
						/>
				</g>
				<g>
					<path d="M745.87,435.134c-36.978,1.183-73.279,7.311-108.334,19.247c-7.802,2.656-4.282,13.516,3.428,11.191
						c0.365-0.11,0.731-0.211,1.096-0.32c0.998,1.509,2.43,2.756,4.245,3.451c-5.178,1.151-10.358,2.302-15.534,3.456
						c-4.946,1.103-8.464,6.177-7.041,11.159c1.589,5.56,7.425,6.956,12.4,6.336c9.165-1.143,18.326-2.32,27.485-3.515
						c-0.197,1.17-0.134,2.422,0.268,3.733c1.489,4.848,7.789,8.192,12.69,6.484c18.961-6.607,37.873-13.382,56.945-19.663
						c6.492-2.138,7.981-7.088,6.26-11.133c0.159-0.035,0.318-0.072,0.478-0.107c7.896-1.74,8.567-10.483,4.076-14.823
						c1.25-0.259,2.503-0.505,3.753-0.767C757.261,447.943,754.996,434.842,745.87,435.134z"/>
				</g>
				<g>
					<path d="M712.642,178.122c-88.071-13.31-177.592-17.09-266.427-10.417c-2.504,0.188-5.006,0.4-7.508,0.604
						c1.262,1.614,2.495,3.25,3.676,4.926c87.843-4.482,175.812-1.115,263.12,12.434c4.638,0.72,9.271,1.473,13.899,2.247
						C717.102,184.683,714.85,181.417,712.642,178.122z"/>
				</g>
				<g>
					<path d="M808.245,205.517c4.351-1.106,5.732-7.765,0.15-9.063c-2.429-0.565-4.862-1.113-7.295-1.663
						C803.321,198.449,805.707,202.01,808.245,205.517z"/>
				</g>
				<g>
					<path d="M789.078,192.132c-21.152-4.562-42.427-8.576-63.792-12.032c2.445,3.4,4.927,6.772,7.438,10.124
						c21.018,3.756,41.93,8.092,62.728,12.928C793.163,199.578,791.036,195.904,789.078,192.132z"/>
				</g>
				<g>
					<path d="M377.893,177.901c17.778-1.657,35.57-3.014,53.368-4.056c-1.217-1.523-2.444-3.039-3.624-4.582
						c-15.012,1.364-29.982,3.032-44.91,5.04C381.128,175.518,379.52,176.723,377.893,177.901z"/>
				</g>
				<g>
					<path d="M330.285,247.686c3.335-14.078,6.704-28.148,10.081-42.217c-1.177,0.803-2.36,1.6-3.546,2.391
						c-3.679,12.797-7.708,27.389-11.928,43.101C326.682,249.857,328.479,248.762,330.285,247.686z"/>
				</g>
				<g>
					<path d="M728.458,689.824c-2.708,1.838-5.241,3.964-7.696,6.21c-2.09,0.241-4.179,0.534-6.261,0.754
						c-6.101,0.643-12.226,1.038-18.359,1.188c-12.908,0.315-25.807-0.518-38.59-2.307c-24.927-3.489-47.905-12.078-71.423-20.602
						c-0.363-0.131-0.74-0.104-1.09,0.023c0.007-0.311,0.021-0.622,0.025-0.932c0.039-3.126-5.575-3.888-6.056-0.738
						c-2.629,17.217-5.908,34.061-12.337,50.322c-6.287,15.902-14.917,30.75-25.247,44.357
						c-10.328,13.605-22.395,25.795-36.01,36.123c-6.929,5.256-14.292,9.919-21.837,14.237c-4.981,2.85-10.552,5.088-15.67,7.904
						c-47.129-2.536-94.272-4.816-141.415-7.098c-33.286-1.611-66.579-3.633-99.898-4.362c0.021-0.113,0.059-0.216,0.072-0.334
						c14.401-137.488,61.654-383.591,92.345-518.46c2.713-11.921,5.487-23.827,8.284-35.727c-1.937,1.167-3.882,2.321-5.84,3.454
						c-21.034,79.363-45.652,181.331-55.773,229.249c-14.305,67.727-26.028,135.938-35.275,204.538
						c-5.242,38.896-9.431,77.813-12.429,116.946c-0.302,3.942,4.723,4.77,7.272,2.638c59.157,5.946,118.671,9.159,177.974,13.412
						c22.334,1.602,44.672,3.126,67.012,4.623c0.171-1.622,0.49-3.243,0.912-4.849c16.611-0.206,33.912-4.762,49.576-8.845
						c19.742-5.146,39.228-11.522,58.117-19.245c37.772-15.444,73.479-35.849,106.129-60.315
						c8.951-6.707,17.662-13.734,26.109-21.067c6.199-5.381,13.535-10.969,19.4-17.302c0.737-0.299,1.46-0.632,2.159-1.011
						c1.45-0.785,2.06-2.37,1.859-3.808c0.53-0.716,1.043-1.438,1.522-2.174C738.928,692.151,732.615,687.003,728.458,689.824z
						 M706.416,709.936c-7.278,6.586-14.767,12.938-22.448,19.05c-15.8,12.572-32.416,24.081-49.725,34.479
						c-34.132,20.505-70.935,36.867-109.045,48.409c-10.678,3.234-21.483,6.141-32.313,8.822c-1.403,0.347-2.809,0.681-4.217,1.01
						c6.919-3.594,13.49-7.804,19.829-12.346c14.35-10.283,27.194-22.673,38.144-36.516c20.678-26.141,36.648-60.632,38.284-94.445
						c20.748,14.295,46.446,21.858,71.075,25.997c12.522,2.104,25.285,3.074,37.978,3.048c5.236-0.011,10.472-0.205,15.694-0.578
						C708.596,707.91,707.515,708.942,706.416,709.936z"/>
				</g>
				<g>
					<path d="M344.66,181.343c0.036-0.004,0.073-0.008,0.109-0.012c-1.274,4.019-2.632,8.452-4.059,13.234
						c0.902-0.611,1.804-1.222,2.711-1.825c0.891-3.711,1.782-7.421,2.672-11.132c0.039-0.165,0.007-0.301-0.056-0.417
						c4.645-0.526,9.291-1.024,13.938-1.51c1.259-0.874,2.515-1.753,3.771-2.629c-6.424,1.001-12.841,2.065-19.249,3.212
						C343.831,180.383,343.99,181.42,344.66,181.343z"/>
				</g>
				<g>
					<path d="M806.344,316.077c6.029-31.967,12.042-63.938,18.01-95.92c1.337-7.164-8.854-9.751-10.116-2.91
						c-5.202,28.199-10.363,56.407-15.509,84.619C801.167,306.656,803.735,311.375,806.344,316.077z"/>
				</g>
				<g>
					<path d="M796.147,316.837c-0.036-0.068-0.073-0.137-0.11-0.206c-23.465,128.882-46.431,257.883-69.412,386.885
						c-0.211,1.183-0.419,2.366-0.63,3.548c2.12-1.197,4.246-2.382,6.378-3.556c22.693-115.801,44.546-231.842,66.493-347.814
						c1.591-8.404,3.171-16.811,4.758-25.217C801.088,325.95,798.588,321.402,796.147,316.837z"/>
				</g>
				<g>
					<path d="M776.695,232.055c-105.967-15.625-213.363-23.219-320.483-21.959c-30.807,0.362-61.671,1.354-92.381,3.876
						c-0.628,0.051-0.65,0.928,0,0.908c53.511-1.679,106.948-3.237,160.492-2.003c53.516,1.233,106.968,4.658,160.19,10.406
						c30.487,3.293,60.89,7.315,91.192,12.004C777.951,235.634,779.076,232.406,776.695,232.055z"/>
				</g>
				<g>
					<path d="M761.662,268.59c-102.796-16.084-207.289-24.357-311.275-26.575c-29.735-0.634-59.596-1.209-89.311,0.33
						c-0.834,0.043-0.842,1.157,0,1.187c51.786,1.823,103.564,1.85,155.332,4.631c51.723,2.778,103.378,7.085,154.85,12.889
						c29.794,3.359,59.464,7.492,89.157,11.612C763.22,273.052,764.69,269.064,761.662,268.59z"/>
				</g>
				<g>
					<path d="M754.079,304.505C651.5,297.34,548.782,291.687,446.121,285.85c-29.173-1.659-58.584-4.195-87.812-4.174
						c-0.632,0-0.853,0.978-0.16,1.063c25.023,3.073,50.451,4.117,75.603,5.758c25.972,1.694,51.941,3.426,77.918,5.053
						c51.529,3.229,103.062,6.373,154.597,9.489c29.267,1.77,58.532,3.673,87.812,5.202
						C756.731,308.379,756.686,304.688,754.079,304.505z"/>
				</g>
				<g>
					<path d="M744.429,345.271c-101.24-6.068-202.504-12.036-303.793-17.231c-28.808-1.478-57.609-3.153-86.445-3.959
						c-0.651-0.018-0.627,0.852,0,0.907c50.536,4.464,101.262,7.027,151.896,10.119c50.628,3.091,101.264,6.06,151.897,9.062
						c28.813,1.708,57.627,3.387,86.445,5.011C747.196,349.336,747.17,345.435,744.429,345.271z"/>
				</g>
				<g>
					<path d="M730.824,392.137c-102.826-8.64-205.895-15.195-308.83-22.425c-29.108-2.044-58.212-4.348-87.358-5.77
						c-0.802-0.039-0.768,1.039,0,1.117c51.566,5.242,103.357,8.697,155.03,12.729c51.266,4,102.532,7.997,153.8,11.963
						c29.114,2.252,58.222,4.78,87.358,6.714C733.898,396.669,733.834,392.39,730.824,392.137z"/>
				</g>
				<g>
					<path d="M732.515,432.452c-104.304-18.948-210.378-28.123-316.383-27.604c-29.819,0.146-59.936,0.439-89.612,3.533
						c-0.885,0.092-0.934,1.293,0,1.292c26.235-0.032,52.466-1.268,78.708-1.417c26.251-0.149,52.506,0.289,78.738,1.318
						c53.066,2.082,106.048,6.422,158.718,13.232c29.637,3.832,59.184,8.41,88.604,13.651
						C734.064,436.951,735.465,432.988,732.515,432.452z"/>
				</g>
				<g>
					<path d="M732.621,479.395c-26.397-3.496-53.088-5.391-79.587-8.006c-27.163-2.68-54.326-5.346-81.494-7.981
						c-54.326-5.27-108.651-10.54-162.988-15.693c-30.354-2.879-60.898-6.859-91.372-8.072c-0.768-0.031-1.002,1.14-0.191,1.268
						c26.177,4.142,52.858,6.017,79.216,8.719c27.164,2.785,54.324,5.595,81.494,8.322c54.327,5.452,108.652,10.94,162.988,16.302
						c30.408,3.001,60.882,6.894,91.372,8.877C734.33,483.279,735.004,479.71,732.621,479.395z"/>
				</g>
				<g>
					<path d="M703.558,520.234c-49.894-7.078-100.466-10.974-150.708-14.641c-50.536-3.689-101.146-6.205-151.799-7.521
						c-28.987-0.753-58.044-1.389-87.027-0.26c-0.986,0.038-0.986,1.351,0,1.396c50.628,2.335,101.323,2.672,151.951,5.271
						c50.614,2.599,101.166,6.186,151.621,10.983c28.474,2.708,56.864,6.237,85.329,8.987
						C705.496,524.699,706.231,520.613,703.558,520.234z"/>
				</g>
				<g>
					<path d="M691.189,588.547c-100.673-12.497-201.429-24.366-302.178-36.229c-28.567-3.364-57.143-7.086-85.817-9.419
						c-0.439-0.036-0.564,0.646-0.108,0.72c50.263,8.189,101.106,13.449,151.63,19.795c50.631,6.36,101.275,12.625,151.925,18.832
						c27.982,3.429,55.961,6.894,83.954,10.243C692.998,592.776,693.688,588.857,691.189,588.547z"/>
				</g>
				<g>
					<path d="M695.932,613.142c-51.716-4.651-103.597-7.889-155.375-11.804c-51.786-3.915-103.572-7.84-155.376-11.507
						c-29.575-2.093-59.157-4.41-88.786-5.586c-0.857-0.034-0.809,1.094,0,1.187c51.629,5.883,103.585,9.283,155.376,13.419
						c51.787,4.136,103.582,8.157,155.376,12.2c29.586,2.309,59.17,4.985,88.786,6.872
						C699.338,618.14,699.247,613.44,695.932,613.142z"/>
				</g>
				<g>
					<path d="M665.953,656.988c-48.947-6.253-98.498-9.66-147.745-12.495c-49.932-2.875-99.93-4.516-149.944-4.871
						c-14.35-0.102-28.7-0.102-43.049-0.002c-14.229,0.099-28.909-0.431-43.048,1.272c-0.703,0.085-0.724,0.948,0,1.012
						c12.184,1.082,24.668,0.421,36.897,0.467c12.711,0.047,25.421,0.105,38.13,0.274c25.011,0.331,50.016,0.992,75.012,1.904
						c49.582,1.81,99.127,4.827,148.571,8.937c28.2,2.344,56.305,5.563,84.48,8.13C668.078,661.873,668.892,657.363,665.953,656.988
						z"/>
				</g>
				<g>
					<path d="M570.16,694.15c-47.674-3.367-95.484-5.426-143.204-8.052c-47.719-2.625-95.444-5.76-143.204-7.532
						c-1.122-0.042-1.091,1.484,0,1.571c47.674,3.802,95.471,6.251,143.204,9.203c47.714,2.951,95.451,6.476,143.204,8.684
						C572.915,698.152,572.862,694.341,570.16,694.15z"/>
				</g>
				<g>
					<path d="M545.751,737.74c-21.219-3.118-43.317-3.192-64.721-4.534c-22.231-1.394-44.461-2.789-66.691-4.183
						c-44.448-2.788-88.891-5.718-133.382-7.711c-0.474-0.021-0.459,0.622,0,0.663c44.003,3.932,88.082,6.948,132.147,10.096
						c21.819,1.559,43.637,3.117,65.456,4.676c10.702,0.764,21.407,1.486,32.111,2.215c11.452,0.78,23.103,2.244,34.581,2.104
						C547.22,741.041,547.925,738.059,545.751,737.74z"/>
				</g>
				<g>
					<path d="M505.396,774.448c-17.545-2.23-35.576-2.209-53.234-3.134c-18.432-0.965-36.862-1.956-55.295-2.884
						c-36.829-1.854-73.713-4.407-110.59-4.944c-0.502-0.007-0.481,0.653,0,0.698c36.349,3.429,72.918,4.893,109.361,7.027
						c18.021,1.055,36.044,2.051,54.066,3.07c18.318,1.036,36.948,3.139,55.295,2.807
						C506.554,777.059,507.13,774.668,505.396,774.448z"/>
				</g>
				<g>
					<path d="M257.194,744.831c0.15-0.469,0.018-1.016-0.59-1.415c-3.627-2.378-8.946,0.674-10.469,4.211
						c-1.719,3.993,0.868,8.035,4.749,9.357c3.65,1.243,7.788-0.218,9.026-4.063C260.862,749.971,259.785,746.459,257.194,744.831z
						 M252.353,754.721c-2.415-0.716-4.382-3.133-3.548-5.714c0.986-3.049,3.938-3.774,6.708-3.263
						c0.403,0.074,0.762-0.003,1.054-0.163C259.541,749.131,258.067,756.416,252.353,754.721z"/>
				</g>
				<g>
					<path d="M262.195,693.562c-0.678-0.933-2.49-0.472-2.163,0.81c-2.829-0.748-5.832,0.005-8.222,1.79
						c-1.445,1.08-2.656,2.514-3.323,4.204c-0.78,1.974-0.698,3.003,1.053,4.252c3.195,2.28,7.922,2.164,10.911-0.441
						C263.338,701.662,264.539,696.79,262.195,693.562z M259.196,701.595c-1.831,2.353-5.226,2.763-7.785,1.362
						c-2.254-1.234,0.505-4.796,1.818-5.932c1.948-1.685,4.426-2.452,6.925-2.134C260.705,697.223,260.77,699.573,259.196,701.595z"
						/>
				</g>
				<g>
					<path d="M263.638,645.422c-1.259-0.886-3.207,0.428-1.947,1.752c3.427,3.603,5.437,12.159-1.557,13.054
						c-2.326,0.298-5.181-0.949-4.968-3.68c0.205-2.63,3.025-5.296,5.634-3.876c0.656,0.356,1.622-0.526,0.916-1.069
						c-3.038-2.339-7.01-0.501-8.748,2.578c-2.077,3.679,0.276,7.758,4.166,8.759c3.984,1.026,8.579-0.778,10.334-4.586
						C269.579,653.774,267.642,648.238,263.638,645.422z"/>
				</g>
				<g>
					<path d="M274.974,610.67c-1.104-1.144-3.314,0.213-2.437,1.692c3.24,5.461-1.878,13.771-8.103,9.13
						c-6.76-5.04,0.235-14.304,7.31-11.318c0.272,0.115,0.539-0.217,0.254-0.392c-3.575-2.204-8.255-1.199-11.02,1.868
						c-3.282,3.641-2.275,8.982,1.385,11.967c3.66,2.985,9.029,2.998,12.306-0.553C277.875,619.589,278.322,614.142,274.974,610.67z
						"/>
				</g>
				<g>
					<path d="M287.486,562.414c-1.465,0.176-2.915,0.408-4.371,0.648c-2.017,0.333-1.399,3.078,0.469,3.12
						c0.176,0.004,0.352,0.007,0.527,0.011c-1.385,2.459-3.1,4.896-5.868,5.417c-1.616,0.304-4.388-0.225-4.773-2.204
						c-0.337-1.731,2.416-4.497,3.882-2.382c0.698,1.007,2.461,0.211,1.841-0.969c-2.875-5.469-12.238,0.916-7.877,6.337
						c2.158,2.682,6.247,3.267,9.368,2.211c4.153-1.405,6.842-5.559,8.626-9.325C289.914,564.012,289.134,562.216,287.486,562.414z"
						/>
				</g>
				<g>
					<path d="M291.447,522.83c-1.376-1.665-4.822-0.269-3.383,1.779c3.07,4.368-0.561,11.769-6.301,9.298
						c-7.611-3.276-2.542-13.419,4.629-12.305c0.164,0.026,0.334-0.203,0.134-0.287c-3.793-1.601-8.225-0.043-10.425,3.415
						c-2.528,3.973-0.909,8.811,2.793,11.379c3.761,2.608,8.838,2.432,12.002-1.031C293.98,531.703,294.4,526.404,291.447,522.83z"
						/>
				</g>
				<g>
					<path d="M300.589,494.717c-3.13,1.343-6.759,3.57-10.274,2.654c-1.738-0.453-3.373-1.639-3.799-3.449
						c-0.523-2.225,1.753-5.141,4.23-3.492c0.84,0.559,2.113-0.734,1.199-1.398c-4.444-3.226-10.373,1.946-8.351,6.918
						c3.172,7.802,13.605,4.832,18.776,1.508C304.324,496.204,302.502,493.896,300.589,494.717z"/>
				</g>
				<g>
					<path d="M307.129,423.547c-1.112-0.969-3.519,0.233-2.436,1.692c1.911,2.573,0.48,8.649-3.545,7.905
						c-3.847-0.711-4.014-5.724-2.405-8.474c0.962,0.482,1.829,1.113,2.724,1.726c0.181,0.124,0.444-0.145,0.259-0.301
						c-0.931-0.787-1.929-1.517-2.664-2.505c-0.22-0.296-0.566-0.345-0.895-0.211c-5.982,2.434-2.771,12.009,2.74,12.835
						C307.403,437.187,312.237,427.994,307.129,423.547z"/>
				</g>
				<g>
					<path d="M325.356,388.543c-1.433-1.726-2.896-3.405-4.396-5.073c-1.153-1.282-3.907,0.363-2.711,1.882
						c0.997,1.266,2.023,2.501,3.054,3.735c-3.398,2.379-7.777,4.337-11.787,2.455c-1.72-0.807-3.407-2.333-3.983-4.196
						c-1.134-3.663,2.594-7.279,6.138-6.004c0.863,0.311,1.596-1.044,0.672-1.435c-6.414-2.718-12.038,5.039-8.426,10.693
						c5.023,7.862,15.216,4.398,21.154-0.071C325.61,390.124,325.807,389.087,325.356,388.543z"/>
				</g>
				<g>
					<path d="M334.792,337.119c-0.663-0.832-1.757-0.99-2.672-0.732c-3.375-2.443-8.162-2.074-11.291,0.682
						c-3.73,3.286-3.551,8.791-0.136,12.262c3.541,3.598,9.441,4.055,13.076,0.364C337.028,346.385,337.748,340.831,334.792,337.119
						z M323.731,347.074c-5.737-4.927,1.019-12.56,6.998-9.697c-0.284,0.493-0.288,1.109,0.211,1.768
						C334.633,344.018,329.178,351.752,323.731,347.074z"/>
				</g>
				<g>
					<path d="M344.819,289.952c-0.749-1.72-3.457-1.186-3.141,0.779c0.666,4.146-1.698,10.554-6.993,8.453
						c-1.921-0.762-3.538-2.848-2.845-4.966c0.805-2.459,3.794-3.754,5.975-2.292c0.871,0.584,2.183-0.742,1.246-1.453
						c-2.778-2.107-6.593-1.278-8.838,1.274c-2.483,2.823-1.801,6.784,1.023,9.082C338.518,306.747,348.376,298.117,344.819,289.952
						z"/>
				</g>
				<g>
					<path d="M347.166,248.896c-0.723,0.373-1.449,0.738-2.165,1.122c-0.12,0.358-0.111,0.773,0.108,1.22
						c1.137,2.315-1.026,5.384-3.318,6.032c-2.15,0.608-3.818-0.941-4.671-2.787c-0.982,0.58-1.966,1.157-2.944,1.745
						c1.715,3.839,6.066,5.673,9.991,3.942c4.061-1.792,6.46-6.52,3.989-10.535C347.904,249.225,347.548,248.994,347.166,248.896z"
						/>
				</g>
				<g>
					<path d="M353.436,217.567c-2.966,2.016-6.69,1.778-9.317-0.435c3.756-1.123,7.538-2.149,11.246-3.426
						c0.414-0.143,0.22-0.62-0.176-0.572c-4.64,0.564-9.221,1.493-13.842,2.184c-0.893,0.133-1.219,1.138-0.836,1.848
						c2.892,5.364,10.298,6.32,14.945,2.758C356.953,218.778,354.862,216.598,353.436,217.567z"/>
				</g>
			</g>
			<g>
				<path d="M416.489,149.094c-20.478,10.038-40.014,22.055-58.711,35.092c-8.544,5.958-16.883,12.203-25.022,18.703
					c-8.355,6.673-18.151,13.445-24.589,22.061c-0.118,0.158,0.124,0.323,0.265,0.239c8.803-5.27,16.327-12.967,24.41-19.293
					c9.186-7.19,18.623-14.07,28.265-20.637c18.28-12.45,37.421-23.392,56.928-33.784
					C419.798,150.537,418.122,148.294,416.489,149.094z"/>
			</g>
			<g>
				<path d="M433.936,185.178c-23.212,13.583-45.534,28.936-68.178,43.448c-21.869,14.015-44.919,27.251-65.492,43.13
					c-0.09,0.07,0.033,0.181,0.117,0.137c23.461-12.099,45.579-27.564,67.9-41.626c22.41-14.119,45.436-27.601,67.257-42.617
					C437.209,186.502,435.608,184.2,433.936,185.178z"/>
			</g>
			<g>
				<path d="M315.336,255.526c-3.822,3.409-7.61,6.835-11.314,10.372c-0.439,0.42,0.24,0.914,0.659,0.592
					c4.094-3.149,8.093-6.397,12.081-9.681C317.748,255.997,316.218,254.739,315.336,255.526z"/>
			</g>
			<g>
				<path d="M305.748,258.253c-1.817,1.213-3.341,2.934-4.931,4.427c-0.261,0.244,0.139,0.527,0.384,0.345
					c1.731-1.28,3.71-2.454,5.205-4.005C306.819,258.593,306.236,257.927,305.748,258.253z"/>
			</g>
			<g>
				<path d="M303.063,254.09c-1.411,1.092-2.791,2.215-4.164,3.354c-0.616,0.512,0.317,1.222,0.878,0.79
					c1.415-1.091,2.815-2.192,4.191-3.33C304.604,254.378,303.641,253.642,303.063,254.09z"/>
			</g>
			<g>
				<path d="M298.886,248.241c-0.864,0.815-1.695,1.639-2.507,2.507c-0.556,0.595,0.358,1.327,0.905,0.814
					c0.867-0.811,1.692-1.643,2.506-2.507C300.349,248.463,299.431,247.727,298.886,248.241z"/>
			</g>
			<g>
				<path d="M296.832,244.521c-1.109,0-1.111,1.571,0,1.571C297.941,246.092,297.943,244.521,296.832,244.521z"/>
			</g>
			<g>
				<path d="M295.16,238.238c-0.542,0-0.544,0.768,0,0.768C295.703,239.006,295.704,238.238,295.16,238.238z"/>
			</g>
			<g>
				<path d="M305.187,223.129c-0.641,0-0.642,0.908,0,0.908C305.828,224.036,305.829,223.129,305.187,223.129z"/>
			</g>
			<g>
				<path d="M441.285,178.037c-2.965,1.009-6.097,2.21-8.716,3.946c-0.937,0.621-0.321,2.11,0.807,1.722
					c2.987-1.026,5.859-2.71,8.477-4.456C442.51,178.811,442.081,177.767,441.285,178.037z"/>
			</g>
			<g>
				<path d="M436.866,175.446c-1.714,0.77-3.427,1.54-5.14,2.311c-1.062,0.477-0.049,1.952,0.92,1.417
					c1.629-0.901,3.257-1.802,4.886-2.702C438.291,176.051,437.572,175.128,436.866,175.446z"/>
			</g>
			<g>
				<path d="M435.94,170.679c-0.186-0.612-0.964-1.003-1.574-0.805c-0.952,0.31-1.833,0.636-2.72,1.099
					c-0.448,0.234-0.678,0.776-0.453,1.242c0.242,0.5,0.78,0.669,1.304,0.576c0.893-0.158,1.695-0.395,2.549-0.696
					C435.643,171.886,436.147,171.361,435.94,170.679z"/>
			</g>
			<g>
				<path d="M432.338,165.412c-0.302-0.468-1.077-0.688-1.565-0.369c-0.922,0.603-1.819,1.187-2.656,1.906
					c-0.919,0.79,0.335,1.914,1.245,1.453c0.908-0.46,1.725-1.009,2.566-1.581C432.398,166.501,432.683,165.947,432.338,165.412z"/>
			</g>
			<g>
				<path d="M428.187,160.329c-0.848-0.296-1.655-0.569-2.538-0.735c-0.681-0.128-1.304,0.781-0.538,1.148
					c0.866,0.415,1.735,0.689,2.653,0.967C428.715,161.997,429.145,160.664,428.187,160.329z"/>
			</g>
			<g>
				<path d="M423.695,155.458c-0.906,0.252-1.8,0.494-2.676,0.838c-0.686,0.269-0.15,1.237,0.493,1.053
					c0.898-0.257,1.75-0.618,2.616-0.966C424.732,156.141,424.259,155.301,423.695,155.458z"/>
			</g>
			<g>
				<path d="M422.995,151.379c-1.907,0.067-4.256-0.186-6.065,0.478c-0.854,0.313-0.706,1.379,0.217,1.44
					c1.93,0.127,4.098-0.76,5.952-1.232C423.515,151.958,423.427,151.364,422.995,151.379z"/>
			</g>
			<g>
				<path d="M417.147,147.775c-0.836-0.006-1.671-0.012-2.507-0.017c-0.887-0.006-0.889,1.263,0,1.257
					c0.836-0.006,1.671-0.012,2.507-0.018C418.009,148.991,418.011,147.781,417.147,147.775z"/>
			</g>
			<g>
				<path d="M847.777,388.296c-9.802-20.44-21.552-40.059-32.89-59.674c-11.37-19.67-23.094-39.138-35.047-58.459
					c-23.899-38.633-48.567-76.981-75.392-113.661c-0.362-0.495-1.311-0.081-0.938,0.493
					c24.745,38.072,49.751,75.928,73.323,114.749c11.788,19.414,23.278,39.005,34.582,58.703
					c11.3,19.691,21.762,39.925,33.515,59.345C845.928,391.442,848.651,390.119,847.777,388.296z"/>
			</g>
			<g>
				<path d="M874.823,302.78c-7.304-13.246-16.793-25.576-25.436-37.98c-8.968-12.871-18.01-25.692-27.015-38.537
					c-17.798-25.389-35.801-50.631-54.16-75.617c-0.247-0.335-0.89-0.054-0.636,0.335c16.878,25.869,34.124,51.492,51.58,76.975
					c8.62,12.585,17.22,25.185,25.862,37.756c8.828,12.843,17.317,26.45,27.429,38.319
					C873.427,305.184,875.686,304.346,874.823,302.78z"/>
			</g>
			<g>
				<path d="M850.303,389.988c-2.097-3.383-4.387-6.636-6.635-9.919c-0.75-1.096-2.802-0.165-2.009,1.057
					c2.166,3.337,4.288,6.7,6.602,9.937C849.04,392.153,851.088,391.254,850.303,389.988z"/>
			</g>
			<g>
				<path d="M855.893,378.511c-1.331-1.689-2.716-3.334-4.087-4.99c-0.73-0.883-2.54-0.035-1.742,0.916
					c1.437,1.711,2.859,3.434,4.336,5.111C855.029,380.261,856.551,379.346,855.893,378.511z"/>
			</g>
			<g>
				<path d="M860.914,373.189c-0.836-0.819-1.673-1.638-2.509-2.457c-1.003-0.982-2.773,0.434-1.7,1.53l2.455,2.507
					C860.171,375.802,862.048,374.299,860.914,373.189z"/>
			</g>
			<g>
				<path d="M867.694,373.433c-1.39-1.649-2.78-3.298-4.17-4.946c-0.396-0.47-1.016-0.677-1.592-0.376
					c-0.47,0.245-0.805,0.962-0.417,1.433c1.368,1.66,2.735,3.321,4.104,4.981c0.404,0.49,1.054,0.697,1.645,0.388
					C867.742,374.662,868.1,373.914,867.694,373.433z"/>
			</g>
			<g>
				<path d="M872.808,373.353c-0.281-0.549-0.562-1.097-0.843-1.646c-0.323-0.629-1.289-0.739-1.857-0.438
					c-0.664,0.351-0.795,1.04-0.487,1.671c0.27,0.554,0.54,1.109,0.811,1.663c0.313,0.644,1.316,0.745,1.883,0.445
					C872.977,374.698,873.134,373.988,872.808,373.353z"/>
			</g>
			<g>
				<path d="M877.411,365.304c-0.567,0-0.568,0.803,0,0.803C877.978,366.107,877.979,365.304,877.411,365.304z"/>
			</g>
			<g>
				<path d="M883.202,362.141c-1.528,0-1.531,2.164,0,2.164C884.73,364.305,884.733,362.141,883.202,362.141z"/>
			</g>
			<g>
				<path d="M887.339,357.422c-1.183,0-1.185,1.675,0,1.675C888.522,359.097,888.524,357.422,887.339,357.422z"/>
			</g>
			<g>
				<path d="M894.799,358.051c-0.954-2.675-2.907-5.134-4.392-7.546c-0.414-0.672-1.545-0.132-1.172,0.617
					c1.223,2.455,2.27,5.375,3.969,7.534C893.697,359.283,895.144,359.017,894.799,358.051z"/>
			</g>
			<g>
				<path d="M897.851,354.816c-0.924-1.151-2.032-2.03-3.172-2.957c-0.485-0.394-1.221-0.434-1.7,0c-0.443,0.401-0.473,1.133,0,1.53
					c1.137,0.955,2.233,1.913,3.546,2.621C897.216,356.383,898.491,355.613,897.851,354.816z"/>
			</g>
			<g>
				<path d="M896.44,347.86c-0.666,0-0.667,0.942,0,0.942C897.105,348.803,897.106,347.86,896.44,347.86z"/>
			</g>
			<g>
				<path d="M903.867,353.252c-6.271-13.002-14.662-25.422-22.397-37.596c-0.23-0.363-0.836-0.073-0.636,0.335
					c6.329,12.941,12.525,26.562,20.32,38.689C902.146,356.221,904.707,354.993,903.867,353.252z"/>
			</g>
			<g>
				<path d="M712.859,160.07c-1.524-2.592-3.556-4.86-5.469-7.169c-0.521-0.629-1.729-0.164-1.272,0.669
					c1.423,2.6,2.771,5.284,4.599,7.627C711.569,162.291,713.662,161.437,712.859,160.07z"/>
			</g>
			<g>
				<path d="M716.717,156.233c-0.187-0.628-0.507-1.115-0.839-1.676c-0.336-0.568-0.636-1.159-0.95-1.74
					c-0.273-0.507-1.328-0.169-1.063,0.403c0.275,0.595,0.565,1.185,0.816,1.79c0.249,0.6,0.444,1.153,0.83,1.679
					C715.886,157.199,716.932,156.954,716.717,156.233z"/>
			</g>
			<g>
				<path d="M722.188,154.452c-1.063-0.879-2.16-1.699-3.268-2.519c-0.462-0.342-1.227,0.25-0.713,0.642
					c1.132,0.862,2.263,1.708,3.441,2.508C722.026,155.339,722.58,154.777,722.188,154.452z"/>
			</g>
			<g>
				<path d="M733.599,151.743l-1.688-2.464c-0.7-1.022-2.615-0.154-1.875,0.986c0.54,0.833,1.08,1.666,1.621,2.5
					C732.361,153.851,734.388,152.895,733.599,151.743z"/>
			</g>
			<g>
				<path d="M740.074,147.932c-1.43,0-1.432,2.024,0,2.024C741.503,149.957,741.506,147.932,740.074,147.932z"/>
			</g>
			<g>
				<path d="M751.33,149.442c-0.545-1.38-1.091-2.761-1.636-4.141c-0.589-1.491-3.321-0.885-2.693,0.668
					c0.558,1.377,1.116,2.755,1.674,4.132C749.263,151.556,751.94,150.988,751.33,149.442z"/>
			</g>
			<g>
				<path d="M758.62,148.328c-0.563-0.821-1.125-1.643-1.688-2.464c-0.85-1.241-3.175-0.187-2.277,1.198
					c0.541,0.833,1.081,1.666,1.621,2.499C757.126,150.872,759.572,149.718,758.62,148.328z"/>
			</g>
			<g>
				<path d="M766.654,148.933c-0.538-0.564-1.076-1.128-1.614-1.692c-1.107-1.16-3.222,0.536-1.947,1.752
					c0.565,0.539,1.13,1.079,1.695,1.618C765.905,151.675,767.813,150.148,766.654,148.933z"/>
			</g>
			<g>
				<path d="M770.685,150.98c-1.799,0-1.803,2.548,0,2.548C772.484,153.528,772.488,150.98,770.685,150.98z"/>
			</g>
			<g>
				<path d="M856.667,764.317c-14.408,3.438-28.514,8.534-42.648,12.955c-13.392,4.189-26.784,8.379-40.177,12.568
					c-27.572,8.625-55.145,17.25-82.717,25.875c-55.145,17.251-110.282,34.528-165.407,51.838
					c-31.503,9.892-62.983,19.854-94.372,30.1c-1.797,0.586-0.977,3.078,0.784,2.558c111.61-32.953,222.609-68.049,333.803-102.377
					l47.321-14.609c15.158-4.68,30.688-8.761,45.491-14.475C861.694,767.611,859.344,763.678,856.667,764.317z"/>
			</g>
			<g>
				<path d="M393.973,926.552c-24.448,5.507-48.231,13.941-72.461,20.319c-1.624,0.427-1.737,2.034-1.008,2.992
					c0.819,6.849,1.603,14.104,3.655,20.639c0.372,1.183,2.667,1.065,2.512-0.306c-0.741-6.562-2.795-13.241-4.753-19.612
					c0.22,0.003,0.451-0.023,0.698-0.107c23.725-8.041,48.212-14.12,71.638-23.01C394.88,927.229,394.623,926.405,393.973,926.552z"
					/>
			</g>
			<g>
				<path d="M336.329,975.778c-1.552-0.95-3.374-1.577-5.061-2.259c-1.528-0.618-3.04-1.305-4.654-1.662
					c-0.214-0.048-0.455,0.208-0.249,0.385c1.223,1.045,2.651,1.803,4.033,2.616c1.556,0.915,3.148,1.961,4.833,2.61
					C336.398,977.916,337.574,976.54,336.329,975.778z"/>
			</g>
			<g>
				<path d="M389.637,945.655c-10.402,1.125-21.034,5.321-31.124,8.08c-5.259,1.438-10.51,2.902-15.762,4.362
					c-6.128,1.703-15.442,3.819-17.47-4.583c-0.163-0.675-1.246-0.501-1.287,0.157c-0.779,12.299,16.067,8.384,22.66,6.701
					c7.267-1.855,14.519-3.766,21.775-5.665c7.247-1.896,15.222-3.136,22.072-6.184
					C392.025,947.844,391.224,945.483,389.637,945.655z"/>
			</g>
			<g>
				<path d="M428.16,899.868c-10.344,4.056-20.16,11.082-29.753,16.694c-9.108,5.328-18.561,10.44-27.001,16.799
					c-0.736,0.554,0.271,1.286,0.893,1.041c10.596-4.163,20.624-9.959,30.672-15.279c9.321-4.936,19.799-9.365,28.221-15.719
					C433.688,901.52,430.27,899.041,428.16,899.868z"/>
			</g>
			<g>
				<path d="M390.621,929.99c-0.458,0.156-0.524,0.779,0,0.909c4.004,0.989,7.517,2.038,10.45,5.178
					c2.944,3.154,4.096,6.959,4.465,11.164c0.151,1.714,3.078,2.297,3.466,0.422C410.907,938.463,400.31,926.684,390.621,929.99z"/>
			</g>
			<g>
				<path d="M400.486,958.974c-2.875,3.259-5.265,6.334-9.092,8.572c-3.522,2.06-7.823,3.107-11.829,3.705
					c-0.162,0.024-0.128,0.227,0,0.269c8.846,2.955,20.684-1.906,24.455-10.695C404.828,958.938,401.672,957.63,400.486,958.974z"/>
			</g>
			<g>
				<path d="M382.616,963.506c-14.173,3.244-28.89,7.596-42.406,12.967c-0.554,0.22-0.088,0.87,0.373,0.797
					c14.345-2.239,29.246-5.945,43.084-10.332C386.1,966.167,385.007,962.958,382.616,963.506z"/>
			</g>
			<g>
				<path d="M444.798,962.163c-9.455,0.726-18.876,2.431-28.251,3.823c-9.828,1.459-20.115,2.308-29.692,5.005
					c-0.885,0.249-0.682,1.419,0.217,1.44c9.969,0.228,20.162-1.494,30.066-2.519c9.43-0.976,18.988-1.651,28.33-3.293
					C448.241,966.133,447.563,961.951,444.798,962.163z"/>
			</g>
			<g>
				<path d="M864.288,820.745C757.17,856.84,650.439,894.369,543.932,932.226c-29.693,10.554-59.403,20.984-88.735,32.488
					c-1.428,0.56-0.316,2.607,1.031,2.201c53.68-16.165,106.68-34.846,159.7-53.077c53.455-18.381,106.9-36.792,160.326-55.258
					c30.026-10.378,60.138-20.539,90.075-31.171C870.95,825.768,868.824,819.216,864.288,820.745z"/>
			</g>
			<g>
				<path d="M852.314,766.942c-0.222,0.017-0.367,0.299-0.127,0.423c9.235,4.787,18.056,9.526,23.36,18.945
					c6.404,11.37,4.883,22.391,0.98,34.173c-1.073,3.24,4.048,4.757,5.671,2.152C895.256,801.663,879.14,764.824,852.314,766.942z"
					/>
			</g>
			<g>
				<path d="M437.741,905.218c-0.533-0.19-1.137,0.573-0.622,0.962c7.784,5.88,13.681,12.646,16.443,22.214
					c2.792,9.67,1.159,18.163-1.875,27.479c-0.717,2.201,2.622,3.058,3.757,1.426C467.059,940.584,456.498,911.883,437.741,905.218z
					"/>
			</g>
			<g>
				<path d="M464.004,903.861c-1.314-1.193-2.6-2.394-4.019-3.46c-0.142-0.107-0.437,0.017-0.304,0.211
					c0.972,1.423,2.09,2.711,3.197,4.031C463.489,905.373,464.74,904.529,464.004,903.861z"/>
			</g>
			<g>
				<path d="M770.724,816.943c-6.259-8.773-19.065-16.595-30.145-13.817c-0.471,0.118-0.438,0.707,0,0.841
					c10.597,3.242,19.986,6.065,26.349,15.992c6.514,10.162,5.38,21.174,1.633,32.019c-0.901,2.609,3.322,3.892,4.608,1.748
					C779.806,842.661,778.078,827.251,770.724,816.943z"/>
			</g>
			<g>
				<path d="M749.829,829.566c-5.698-11.035-16.931-18.951-29.305-20.116c-0.263-0.025-0.303,0.339-0.062,0.411
					c11.705,3.533,21.954,11.088,26.784,22.599c5.184,12.356,1.97,23.584-3.063,35.245c-0.766,1.777,2.032,2.176,2.942,1.116
					C755.982,858.505,755.823,841.175,749.829,829.566z"/>
			</g>
			<g>
				<path d="M866.919,800.921c-27.005,8.993-53.564,19.702-79.866,30.544c-0.225,0.093-0.05,0.422,0.164,0.351
					c27.043-8.985,54.188-18.23,80.554-29.077C868.935,802.26,868.032,800.55,866.919,800.921z"/>
			</g>
			<g>
				<path d="M859.511,795.441c-12.926,3.47-25.521,8.641-38.11,13.161c-12.664,4.546-25.274,9.217-37.868,13.953
					c-0.298,0.112-0.168,0.534,0.135,0.438c13.189-4.207,26.345-8.487,39.469-12.893c12.385-4.158,25.147-7.827,37.152-13
					C861.365,796.636,860.523,795.17,859.511,795.441z"/>
			</g>
			<g>
				<path d="M854.006,784.449c-13.288,4.053-26.27,9.633-39.271,14.535c-12.289,4.634-24.837,8.952-36.832,14.306
					c-0.245,0.109-0.055,0.45,0.179,0.383c13.358-3.844,26.474-8.901,39.577-13.538c12.437-4.402,25.26-8.271,37.392-13.453
					C856.484,786.069,855.373,784.031,854.006,784.449z"/>
			</g>
			<g>
				<path d="M848.634,779.641c-23.706,6.257-46.833,14.822-70.289,21.941c-0.239,0.073-0.128,0.404,0.103,0.337
					c23.527-6.896,47.572-12.402,70.836-20.157C850.768,781.266,850.109,779.252,848.634,779.641z"/>
			</g>
			<g>
				<path d="M391.377,931.615c-0.985-0.607-1.97-1.214-2.955-1.82c-1.45-0.893-3.02-0.416-3.929,0.607
					c-0.512-0.409-1.228-0.591-2.085-0.317c-8.781,2.809-17.567,5.603-26.351,8.407c-3.918,0.943-7.835,1.894-11.75,2.854
					c-0.342-0.113-0.736-0.15-1.174-0.068c-6.17,1.159-12.337,2.324-18.501,3.511c-1.986,0.383-1.003,2.906,0.814,2.659
					c1.126-0.153,2.252-0.314,3.378-0.468c0.008,0.062,0.027,0.122,0.041,0.183c-3.032-0.105-5.604,1.17-7.168,4.15
					c-0.718,1.368-0.113,3.217,1.581,3.498c2.17,0.36,4.303,0.554,6.418,0.612c0.37,0.217,0.789,0.373,1.257,0.424
					c1.103,0.119,2.199,0.188,3.293,0.249c0.434,1.023,1.478,1.822,2.876,1.672c0.628,0.678,1.606,1.056,2.809,0.708
					c12.456-3.611,24.919-7.201,37.386-10.772c0.478-0.137,0.855-0.346,1.153-0.597c1.278-0.38,2.556-0.759,3.834-1.139
					c0.545-0.162,0.957-0.416,1.27-0.716c0.393,0.492,0.857,0.904,1.378,1.224c0.226,0.36,0.545,0.661,0.928,0.827
					c3.498,1.526,7.264,0.179,8.989-2.831c1.197,2.979,1.489,6.346,0.651,9.724c-0.878,3.54,4.838,4.797,5.834,1.448
					C404.178,946.146,399.928,936.313,391.377,931.615z"/>
			</g>
			<g>
				<path d="M337.793,967.972c-0.371-1.191-0.743-2.381-1.114-3.572c-0.673-2.167-3.685-2.44-5.089-1.065
					c-0.698-0.44-1.631-0.551-2.469-0.359c-1.375-1.513-4.728-0.625-3.814,1.574c0.129,0.429,0.266,0.855,0.397,1.282
					c-0.025,1.284,0.35,2.51,1.121,3.591c0.352,1.103,0.705,2.205,1.06,3.307c0.513,1.596,2.564,2.026,3.907,1.361
					c0.753,0.657,1.846,0.771,2.809,0.471c1.112,0.433,2.52,0.229,3.476-0.52c0.96-0.751,1.751-1.584,2.471-2.565
					C342.02,969.475,339.706,967.844,337.793,967.972z"/>
			</g>
			<g>
				<path d="M400.407,953.586c-1.156,0.447-2.312,0.894-3.469,1.341c-0.465-1.223-1.776-2.172-3.313-1.625
					c-1.475,0.526-2.957,1.035-4.442,1.533c0.325-0.793,0.076-1.646-0.484-2.31c1.841-1.535-0.287-4.948-2.837-4.182
					c-9.604,2.885-19.208,5.769-28.812,8.654c-3.816,1.129-7.63,2.265-11.433,3.434c-2.233,0.687-2.36,2.924-1.281,4.177
					c-0.593,0.654-0.649,1.477-0.361,2.221c-0.037,0.006-0.074,0.005-0.111,0.013c-0.096-0.714-0.193-1.429-0.288-2.143
					c-0.162-1.2-1.989-1.252-2.094,0c-0.178,2.111-0.353,4.221-0.51,6.333c-0.247,0.495-0.5,0.986-0.747,1.481
					c-0.927,1.854,0.776,3.928,2.837,3.322c11.371-3.345,22.626-7.071,33.883-10.784c0.719,0.873,1.877,1.387,3.164,0.913
					c2.289-0.844,4.568-1.713,6.849-2.578c1.056,0.73,2.535,1.059,3.733,0.55c4.296-1.826,8.581-3.683,12.908-5.436
					C407.411,956.952,403.842,952.259,400.407,953.586z M346.59,969.372c0.047-0.214,0.051-0.417,0.031-0.614
					c0.268,0.016,0.543,0.007,0.825-0.057c0.199-0.045,0.399-0.091,0.599-0.137c-0.057,0.229-0.073,0.462-0.068,0.694
					c-0.493,0.174-0.985,0.349-1.478,0.523c0.048-0.132,0.101-0.263,0.149-0.395C346.629,969.381,346.609,969.377,346.59,969.372z"
					/>
			</g>
		</g>
	</g>
</g>
</svg>
