<svg width="2400" height="1800" viewBox="0 0 2400 1800" fill="none" xmlns="http://www.w3.org/2000/svg">
<g clip-path="url(#clip0_1609_4179)">
<path d="M2402 10C2402 607.252 2402 1204.5 2402 1801.88C1602.19 1801.88 802.381 1801.88 2 1801.88C2 1205.94 2 609.876 2.74282 12.8936C12.5233 10.7734 12.9605 10.2613 12 2C806.062 2 1600.12 2 2395.09 2.77879C2395.64 7.9019 2397.11 10.5429 2402 10ZM1972.03 180.008C1972.03 180.008 1972.12 180.048 1970.77 179.748C1967.37 182.49 1963.97 185.232 1959.24 187.793C1957.78 188.732 1956.32 189.672 1953.39 190.239C1945.12 195.863 1935.55 199.251 1928.86 207.69C1925.01 212.547 1918.46 216.035 1912.43 218.256C1874.9 232.073 1836.04 241.196 1797.14 250.149C1786.49 252.6 1775.89 255.252 1763.62 257.86C1760.35 258.266 1757.05 258.534 1753.81 259.103C1740.81 261.382 1727.85 263.92 1714.82 266.051C1696.27 269.085 1677.57 271.337 1659.11 274.843C1633.16 279.773 1607.36 285.547 1580.4 290.024C1577.42 287.335 1574.86 285.027 1577.99 280.282C1579.75 277.613 1579.41 273.556 1581.07 269.041C1581.89 263.912 1584.03 258.574 1583.27 253.694C1581.1 239.886 1571.54 228.089 1555.39 230.63C1550.27 231.435 1545.52 234.352 1540.49 235.931C1535.4 237.529 1530.17 238.668 1522.67 240.611C1527.63 243.888 1530.78 245.969 1533.5 249.204C1533.02 250.759 1532.54 252.313 1530.63 254.689C1529.74 261.788 1528.86 268.888 1526.9 277.16C1523.89 288.63 1527.73 297.846 1534.8 305.85C1523.26 310.242 1515.35 319.58 1506.15 327.115C1490.25 340.148 1474.58 353.484 1458.86 366.74C1452.35 372.229 1445.94 377.842 1438.09 383.624C1434.89 385.309 1431.56 386.79 1428.51 388.713C1413.33 398.299 1398.54 408.582 1383 417.536C1353.22 434.69 1320.84 446.289 1289.44 459.973C1267.21 469.658 1244.07 477.604 1222.83 492.313C1216.78 493.79 1210.53 494.71 1204.73 496.87C1195.48 500.318 1186.49 504.484 1177.47 508.541C1166.31 513.566 1155.23 518.79 1142.66 524.295C1128.47 530.044 1114.33 535.927 1100.08 541.517C1046.17 562.663 992.194 583.63 936.185 597.606C934.993 589.364 933.343 581.34 925.911 574.786C925.257 574.304 924.602 573.822 923.793 572.133C922.469 569.656 921.146 567.178 920.919 563.786C923.887 558.614 923.838 555.785 919.634 554.576C915.106 553.273 910.111 553.593 903.597 553.066C900.775 548.605 895.403 550.133 890.093 552.959C882.9 556.786 878.409 562.523 877.682 570.985C877.484 573.292 876.645 575.944 875.187 577.664C871.206 582.36 869.771 586.646 872.897 591.928C875.18 595.784 878.994 598.733 881.899 603.529C879.731 612.043 879.704 612.641 887.958 615.745C891.675 617.142 892.054 619.432 891.126 623.26C883.699 627.464 875.328 630.59 869.036 636.093C855.046 648.331 845.271 664.131 834.651 680.612C823.708 697.662 812.764 714.713 801.916 731.91C801.916 731.91 801.762 731.83 800.804 732.175C800.545 732.778 800.287 733.381 799.27 735.099C795.052 741.824 790.542 748.387 786.666 755.304C770.993 783.272 755.514 811.349 738.573 839.646C736.281 841.263 733.989 842.88 730.349 844.474C727.96 846.145 725.194 847.464 723.245 849.547C714.148 859.276 710.75 871.257 710.185 884.26C709.674 896.021 706.322 906.584 696.758 914.225C690.79 918.993 684.783 923.776 678.404 927.957C645.518 949.511 610.967 968.117 575.72 985.477C565.035 990.74 554.469 996.246 542.343 1001.84C538.915 1003.06 535.503 1004.33 532.056 1005.49C517.326 1010.47 502.586 1015.41 487.776 1018.65C487.902 1011.43 487.376 1004.45 480.647 998.394C478.242 994.498 474.229 991.442 474.283 986.223C474.285 986.038 473.099 985.841 472.288 984.315C470.478 981.454 468.669 978.593 466.403 974.343C464.183 972.444 462.259 969.79 459.689 968.781C450.919 965.338 442.733 967.015 435.46 973.009C428.554 978.702 424.49 985.994 426.625 994.871C428.058 1000.83 431.597 1006.27 434.324 1013.34C436.009 1016.48 437.694 1019.61 439.291 1022.59C436.04 1030.33 432.851 1037.92 428.481 1046.18C426.781 1048.48 424.856 1050.65 423.428 1053.11C420.922 1057.42 418.719 1061.92 415.962 1067.7C394.616 1114.33 377.224 1162.5 360.389 1210.87C357.127 1220.25 354.869 1229.97 351.207 1240.76C341.697 1277.48 334.139 1314.48 334.151 1352.66C334.16 1382.59 334.22 1412.52 333.832 1442.45C333.552 1464.04 332.671 1485.62 331.817 1507.2C331.652 1511.37 330.372 1515.5 329.665 1519.33C327.746 1519.83 326.791 1520.33 325.861 1520.29C305.625 1519.37 285.383 1518.54 265.162 1517.36C256.9 1516.87 248.688 1515.56 240.447 1514.68C226.276 1513.18 212.099 1511.72 196.474 1509.58C181.07 1507.1 165.666 1504.63 148.858 1501.56C143.389 1500.13 137.952 1498.56 132.445 1497.29C124.479 1495.47 121.506 1497.48 119.92 1505.54C119.535 1507.5 119.311 1509.49 119.137 1511.48C116.845 1537.67 114.63 1563.86 112.255 1590.05C111.771 1595.39 113.326 1599.88 116.59 1603.92C118.464 1606.24 120.415 1608.5 121.506 1612.21C118.687 1612.75 115.638 1614.23 113.095 1613.61C107.29 1612.21 102.217 1613.92 96.0303 1615.3C96.0303 1639.09 96.0303 1662.51 95.1411 1686.97C95.7667 1687.91 96.3131 1689.59 97.0315 1689.67C100.324 1690.02 103.665 1689.99 106.989 1689.99C235.812 1690 364.636 1690.01 493.459 1689.99C591.657 1689.98 689.854 1689.92 789.92 1689.92C831.301 1689.23 872.729 1691.74 915.587 1688.79C918.184 1689.2 920.78 1689.95 923.378 1689.95C961.606 1689.98 999.834 1689.9 1039.93 1689.9C1081.27 1689.89 1122.61 1689.88 1165.83 1689.96C1206.57 1689.92 1247.32 1689.89 1289.93 1689.9C1331.27 1689.89 1372.61 1689.88 1415.83 1689.96C1456.57 1689.94 1497.31 1689.91 1539.92 1689.92C1581.26 1689.91 1622.61 1689.9 1665.83 1689.97C1706.57 1689.94 1747.31 1689.91 1789.92 1689.92C1831.26 1689.91 1872.61 1689.89 1915.83 1689.97C1956.57 1689.93 1997.32 1689.9 2039.92 1689.91C2081.48 1689.91 2123.04 1689.91 2163.83 1689.91C2163.83 1358.9 2163.83 1029.12 2163.83 697.985C2143.11 697.985 2123.55 697.985 2103.99 696.268C2106.77 676.939 2109.37 657.582 2112.38 638.288C2115.39 618.992 2118.89 599.775 2122.01 580.495C2124.81 563.181 2127.28 545.814 2130.07 528.498C2131.86 517.386 2134.16 506.354 2135.89 495.232C2139.23 473.655 2142.25 452.026 2145.57 430.444C2148.24 413.096 2151.22 395.797 2153.94 378.457C2156.56 361.787 2159.01 345.091 2161.55 328.407C2163.04 318.582 2164.48 308.75 2166.06 298.94C2168.31 284.987 2170.67 271.051 2173.17 255.96C2216.41 276.113 2257.78 298.385 2301.26 317.577C2302.39 314.41 2303.54 312.331 2303.85 310.133C2305.45 298.992 2305.95 287.614 2308.54 276.722C2310.65 267.848 2308.96 262.791 2301.9 256.299C2269.33 226.357 2237.65 195.451 2205.81 164.719C2192.38 151.757 2179.25 138.483 2166.21 125.127C2160.51 119.287 2155.19 116.75 2146.97 121.182C2132.44 129.021 2117.25 135.63 2102.47 143.039C2069.4 159.627 2036.47 176.522 2003.33 192.971C1996.63 196.295 1990.13 201.013 1981.96 198.464C1984.21 192.235 1986.49 186.017 1988.68 179.772C1989.89 176.34 1990.91 172.866 1988.19 169.643C1982.05 171.688 1982.05 171.688 1976.64 177.881C1975.81 178.036 1974.98 178.191 1973.05 178.369C1972.71 178.948 1972.37 179.527 1972.03 180.008ZM419.813 345.034C412.747 347.93 405.577 350.595 398.637 353.766C381.943 361.397 365.266 368.402 346.129 366.166C337.249 365.128 328.015 366.655 319.253 365.178C299.31 361.815 281.103 365.937 263.779 375.499C261.083 376.987 258.796 379.216 256.32 381.103C256.487 381.907 256.655 382.711 256.823 383.516C262.534 384.336 268.244 385.865 273.957 385.872C383.889 386.013 493.822 386.012 603.754 385.874C609.581 385.867 615.406 384.389 621.04 383.622C621.324 372.554 616.141 365.861 604.682 361.946C588.789 356.514 574.287 348.62 561.125 338.2C537.677 319.636 511.218 314.348 482.508 321.663C461.333 327.059 440.956 334.96 419.813 345.034ZM1317.05 228.004C1295.24 229.539 1276.01 221.874 1257.83 210.999C1246.47 204.201 1235.54 196.675 1224.38 189.531C1203.62 176.235 1182.64 175.752 1161.73 189.028C1153.35 194.351 1145.45 200.441 1137.11 205.843C1125.17 213.575 1112.2 219.191 1097.77 217.584C1090.41 216.765 1083.54 216.856 1076.2 217.569C1062.7 218.879 1053.43 226.081 1045.58 235.854C1042.87 239.233 1041.68 243.834 1039 249.567C1044.81 249.743 1048.67 249.961 1052.53 249.962C1160.11 249.994 1267.7 250.005 1375.28 250.018C1377.61 250.018 1379.97 250.21 1382.27 249.927C1383.89 249.726 1385.44 248.874 1387.02 248.313C1365.1 237.706 1344.1 225.716 1317.05 228.004ZM729 511.99C738.656 511.99 748.311 511.991 757.967 511.991C767.623 511.992 777.278 511.991 786.934 511.991C796.923 511.991 806.914 512.146 816.899 511.947C826.341 511.758 835.888 512.867 845.711 511.108C844.969 502.071 841.572 495.753 833.938 493.174C826.813 490.768 819.319 489.011 811.852 488.163C801.189 486.953 790.945 485.317 781.738 479.165C775.68 475.117 769.21 471.599 762.653 468.401C749.663 462.066 737.015 463.125 725.128 471.397C718.326 476.131 711.732 481.161 704.955 485.932C694.404 493.361 682.718 498.157 669.749 497.837C658.924 497.57 648.395 498.973 638.433 502.52C631.603 504.951 623.582 505.325 616.868 511.99C654.542 511.99 690.771 511.99 729 511.99Z" fill="#F6EEE8"/>
<path d="M11.0001 2C12.9605 10.2613 12.5233 10.7734 2.74282 11.9863C2 8.84208 2 5.68416 2 2C4.6457 2 7.32293 2 11.0001 2Z" fill="#E8D9CD"/>
<path d="M2402 9.00017C2397.11 10.5431 2395.64 7.90207 2395.99 2.77896C2401.12 0.8825 2403.12 2.88252 2402 9.00017Z" fill="#E8D9CD"/>
<path d="M1981.89 199.966C1990.13 201.015 1996.63 196.297 2003.33 192.972C2036.47 176.524 2069.4 159.628 2102.47 143.041C2117.25 135.632 2132.44 129.022 2146.97 121.184C2155.19 116.751 2160.51 119.288 2166.21 125.128C2179.25 138.485 2192.38 151.758 2205.81 164.72C2237.65 195.452 2269.33 226.358 2301.9 256.301C2308.96 262.792 2310.65 267.849 2308.54 276.724C2305.95 287.615 2305.45 298.993 2303.85 310.134C2303.54 312.333 2302.39 314.412 2301.26 317.579C2257.78 298.386 2216.41 276.114 2173.17 255.962C2170.67 271.053 2168.31 284.988 2166.06 298.941C2164.48 308.751 2163.04 318.584 2161.55 328.408C2159.01 345.092 2156.56 361.788 2153.94 378.459C2151.22 395.799 2148.24 413.098 2145.57 430.445C2142.25 452.027 2139.23 473.656 2135.89 495.233C2134.16 506.355 2131.86 517.387 2130.07 528.5C2127.28 545.815 2124.81 563.182 2122.01 580.496C2118.89 599.776 2115.39 618.993 2112.38 638.289C2109.37 657.583 2106.77 676.94 2103.85 697.922C2099.79 723.712 2095.89 747.853 2091.95 771.987C2089.39 787.643 2086.66 803.271 2084.27 818.952C2083.52 823.865 2080.92 826.297 2076.52 828.194C2065.25 833.05 2054.16 838.328 2043.08 843.626C2041.09 844.58 2039.53 846.438 2037.01 847.915C2034.93 848.076 2033.44 847.849 2032.3 848.375C2008.5 859.386 1984.68 870.361 1960.99 881.604C1944.57 889.394 1928.34 897.576 1911.3 905.766C1892.75 914.116 1874.82 922.105 1857.14 930.601C1853.48 932.357 1849.61 935.397 1847.74 938.869C1828.51 974.612 1809.6 1010.53 1790.82 1046.52C1789.04 1049.91 1788.75 1054.08 1787.11 1058.05C1784.36 1060.73 1781.76 1062.98 1780.24 1065.8C1772.67 1079.79 1765.09 1093.79 1758.14 1108.09C1755.24 1114.05 1751.59 1116.22 1744.99 1116.13C1718 1115.8 1691 1116 1663.07 1115.97C1620.78 1115.98 1579.44 1116.03 1537.14 1116.04C1495.48 1116 1454.76 1115.98 1413.11 1115.95C1382.6 1115.93 1353.03 1115.9 1323.47 1115.93C1313.63 1115.93 1313.73 1116.03 1309.87 1125.42C1303.19 1141.67 1296.88 1158.1 1289.35 1173.96C1286.68 1179.58 1286.07 1184.34 1287.04 1189.93C1284.32 1191.91 1281.5 1193.47 1280.46 1195.82C1273.93 1210.67 1267.74 1225.66 1261.54 1240.65C1253.71 1259.58 1246.15 1278.63 1238.17 1297.5C1225.88 1326.52 1213.12 1355.35 1200.94 1384.42C1189.03 1412.83 1177.59 1441.45 1165.41 1470.01C1164.51 1470.09 1164.15 1470.14 1162.87 1470.17C1120.73 1470.2 1079.52 1470.24 1037.39 1470.19C1031.65 1470.09 1026.82 1470.08 1021.07 1470.05C985.306 1470.13 950.484 1470.22 914.795 1470.26C902.1 1469.54 891.38 1471.51 881.612 1479.4C857.205 1499.11 832.217 1518.1 807.559 1537.5C800.855 1542.77 794.492 1548.48 787.284 1554.07C785.975 1554.39 785.243 1554.47 784.751 1554.86C761.4 1573.27 738.168 1591.84 714.714 1610.12C684.999 1633.28 655.083 1656.18 625.341 1679.3C623.157 1681 621.68 1683.61 618.946 1685.84C444.022 1685.91 270.026 1685.92 96.0303 1685.93C96.0303 1662.51 96.0303 1639.09 96.0303 1615.3C102.217 1613.92 107.291 1612.21 113.095 1613.62C115.638 1614.23 118.687 1612.75 122.66 1611.88C134.273 1611.64 144.732 1611.74 156.154 1611.9C162.743 1611.97 168.369 1611.99 174.589 1612.56C182.186 1614 189.223 1615.53 196.928 1611.99C251.907 1612.05 305.948 1612.14 360.907 1612.42C406.666 1612.66 451.508 1612.7 496.35 1612.71C498.324 1612.71 500.299 1612.31 503.134 1612.09C506.323 1612.12 508.781 1611.68 510.955 1612.28C519.505 1614.62 527.843 1613.53 536.528 1612.63C548.706 1611.37 561.27 1611.07 573.359 1612.68C582.119 1613.85 589.035 1612.34 595.568 1607.32C603.183 1601.46 610.46 1595.17 618.041 1589.27C644.701 1568.51 671.397 1547.81 698.14 1527.16C729.604 1502.87 761.149 1478.68 792.626 1454.41C815.707 1436.61 838.87 1418.91 861.672 1400.75C866.247 1397.11 870.657 1395.9 876.204 1395.92C912.817 1396.06 949.431 1396.02 986.044 1395.97C990.353 1395.96 994.662 1395.54 999.835 1395.32C1037.04 1395.51 1073.39 1395.7 1109.73 1395.77C1111.15 1395.77 1112.56 1394.62 1114.54 1393.63C1117.98 1388.03 1121.16 1382.97 1123.67 1377.59C1126.31 1371.94 1128.22 1365.95 1130.61 1360.17C1135.31 1348.85 1140.15 1337.58 1144.86 1326.26C1149.57 1314.96 1154.15 1303.61 1158.84 1292.31C1166.6 1273.63 1174.43 1254.99 1182.18 1236.31C1189.01 1219.84 1195.66 1203.3 1202.59 1186.88C1214.97 1157.58 1227.49 1128.34 1239.98 1099.09C1246.48 1083.88 1253.12 1068.73 1259.53 1053.49C1260.62 1050.88 1260.9 1047.92 1261.92 1044.65C1264.23 1042.81 1266.17 1041.44 1268.84 1040.08C1270.99 1040.01 1272.42 1039.93 1274.72 1039.9C1281.15 1040.63 1286.7 1041.86 1292.27 1041.89C1327.1 1042.07 1361.94 1042.03 1396.77 1041.9C1400.32 1041.89 1403.87 1040.85 1408.4 1040.36C1446.23 1040.44 1483.09 1040.51 1519.94 1040.39C1524.53 1040.37 1529.11 1039.41 1534.18 1039.63C1537.87 1040.91 1541.07 1041.9 1544.27 1041.91C1595.84 1042 1647.41 1041.83 1698.97 1042.13C1707 1042.17 1711.06 1038.98 1713.9 1031.9C1716.84 1024.57 1720.66 1017.57 1724.4 1010.58C1734.57 991.583 1744.96 972.709 1755.13 953.71C1762.46 940.003 1769.61 926.197 1776.77 912.396C1781.5 903.278 1785.95 894.01 1790.81 884.965C1793.81 879.392 1797.42 874.736 1804.23 872.56C1811.41 870.268 1817.96 866.05 1824.86 862.824C1831.42 859.752 1838.14 857.002 1844.68 853.884C1858.68 847.21 1872.62 840.389 1887.23 833.435C1926.12 815.515 1964.37 797.812 2002.56 779.979C2004.1 779.261 2005.07 777.322 2007.08 775.991C2015.54 776.896 2016.66 770.884 2017.54 765.84C2020 751.83 2021.82 737.706 2023.92 723.633C2026.84 704.007 2029.64 684.36 2032.79 664.77C2035.62 647.13 2039.13 629.596 2041.83 611.937C2045.58 587.409 2048.61 562.77 2052.41 538.249C2055.9 515.691 2060.19 493.257 2063.78 470.712C2068.16 443.261 2072.08 415.738 2076.36 388.271C2079.41 368.657 2082.77 349.091 2085.92 329.491C2089.86 304.996 2093.81 280.502 2097.53 255.974C2098.09 252.315 2097.46 248.477 2097.37 244.216C2079.26 246.995 2062.61 249.469 2045.99 252.121C2026.72 255.195 2007.49 258.538 1988.19 261.454C1985.57 261.85 1982.67 260.449 1980.3 259.351C1998.23 245.017 2010.56 219.147 2005.75 203.942C2002.09 207.414 1998.89 210.495 1995.64 213.519C1992.73 216.22 1990.11 219.51 1986.71 221.291C1984.49 222.452 1980.58 222.271 1978.43 220.999C1976.98 220.144 1976.43 216.132 1976.96 213.884C1978.09 209.123 1980.19 204.592 1981.89 199.966Z" fill="#FFFFFE"/>
<path d="M2037.77 847.876C2039.53 846.435 2041.09 844.578 2043.08 843.623C2054.15 838.325 2065.25 833.048 2076.52 828.192C2080.92 826.295 2083.52 823.863 2084.27 818.95C2086.66 803.269 2089.39 787.641 2091.95 771.985C2095.89 747.85 2099.79 723.709 2103.85 698.778C2123.55 697.984 2143.11 697.984 2163.83 697.984C2163.83 1029.12 2163.83 1358.9 2163.83 1689.91C2123.04 1689.91 2081.48 1689.91 2038.97 1689.23C2037.99 1687.67 2037.96 1686.79 2037.95 1684.98C2037.98 1429.63 2038 1175.21 2037.99 920.797C2037.99 896.49 2037.85 872.183 2037.77 847.876Z" fill="#E4D0C0"/>
<path d="M1787.76 1057.89C1788.75 1054.08 1789.04 1049.91 1790.82 1046.52C1809.6 1010.53 1828.51 974.612 1847.74 938.869C1849.61 935.397 1853.48 932.357 1857.14 930.601C1874.82 922.105 1892.75 914.116 1911.85 906.445C1913.42 911.223 1914 915.502 1914 919.782C1914.06 1175.15 1914.07 1430.53 1914.05 1686.56C1914 1688.11 1913.98 1689 1913.95 1689.88C1872.61 1689.9 1831.26 1689.91 1788.97 1689.24C1787.99 1687.69 1787.97 1686.81 1787.97 1685C1788 1482 1788.01 1279.93 1788 1077.86C1788 1071.2 1787.84 1064.55 1787.76 1057.89Z" fill="#E4D0C0"/>
<path d="M359.989 1612.22C305.948 1612.14 251.907 1612.05 196.477 1611.56C193.95 1610.65 192.812 1610.15 192.019 1609.06C195.042 1603.62 198.936 1599.05 200.101 1593.86C201.676 1586.85 201.154 1579.37 201.615 1571.15C201.928 1550.13 203.348 1529.97 197.925 1510.24C212.099 1511.72 226.276 1513.18 240.447 1514.68C248.688 1515.56 256.9 1516.87 265.162 1517.36C285.383 1518.54 305.625 1519.37 325.861 1520.29C326.791 1520.33 327.746 1519.83 329.665 1519.33C330.372 1515.5 331.652 1511.37 331.817 1507.2C332.671 1485.62 333.552 1464.04 333.832 1442.45C334.22 1412.52 334.16 1382.59 334.15 1352.66C334.139 1314.48 341.697 1277.47 352.473 1240.26C372.348 1244.55 390.951 1249.35 409.564 1254.12C424.963 1258.06 440.372 1261.96 456.465 1266.23C459.674 1267.42 462.161 1268.39 464.72 1269.1C513.42 1282.67 562.151 1296.14 610.822 1309.82C624.678 1313.71 637.899 1319.26 649.186 1328.45C659.372 1336.75 665.126 1347.61 663.465 1360.83C661.452 1376.86 656.357 1392.26 646.02 1404.85C630.201 1424.13 613.841 1442.99 596.975 1461.36C569.468 1491.3 544.065 1522.91 519.964 1555.62C518.561 1557.52 516.097 1558.64 513.395 1560.22C508.435 1557.68 504.204 1555.06 499.979 1552.44C495.221 1549.47 490.468 1546.5 485.385 1542.99C466.512 1527.29 446.086 1516.08 422.139 1511.93C422.281 1511.05 422.336 1510.7 422.935 1509.97C427.105 1504.49 430.732 1499.4 434.887 1493.89C435.756 1492.2 436.095 1490.92 436.851 1489.18C464.165 1454 492.998 1420.94 524.51 1387.84C495.822 1381.19 468.29 1377.59 440.037 1373.88C428.923 1371.61 418.43 1370 407.989 1368.11C387.502 1364.4 367.758 1358.96 352.63 1343.24C352.526 1343.14 351.652 1343.77 350.605 1344.36C351.868 1345.93 352.939 1347.56 354.287 1348.91C364.526 1359.15 377.438 1364.67 391.126 1367.8C406.66 1371.34 422.517 1373.47 438.117 1377.13C437.857 1385.68 437.686 1393.32 437.575 1400.96C437.143 1430.49 436.731 1460.03 435.708 1489.77C434.391 1490.95 433.677 1491.94 432.399 1493.27C428.207 1498.75 424.579 1503.88 420.452 1509.32C419.447 1511.1 418.94 1512.56 418.038 1514.59C409.423 1526.85 400.927 1538.36 393.08 1550.31C387.641 1558.59 383.097 1567.45 377.607 1576.45C371.37 1588.64 365.68 1600.43 359.989 1612.22Z" fill="#8FC08D"/>
<path d="M1538.09 1116.07C1579.44 1116.03 1620.78 1115.98 1663.08 1116.9C1664.05 1307.21 1664.06 1496.55 1664.06 1686.56C1664 1688.11 1663.98 1688.99 1663.95 1689.88C1622.6 1689.9 1581.26 1689.91 1538.97 1689.25C1538 1687.7 1537.98 1686.82 1537.98 1685.02C1537.98 1495.4 1537.97 1306.71 1537.99 1117.53C1538.02 1117.04 1538.09 1116.07 1538.09 1116.07Z" fill="#E4D0C0"/>
<path d="M1287.76 1189.88C1286.07 1184.34 1286.68 1179.58 1289.35 1173.96C1296.88 1158.1 1303.19 1141.67 1309.87 1125.42C1313.73 1116.03 1313.63 1115.93 1323.47 1115.93C1353.03 1115.9 1382.6 1115.93 1413.11 1116.89C1414.06 1307.19 1414.08 1496.54 1414.07 1686.54C1414.01 1688.1 1413.98 1688.99 1413.95 1689.88C1372.61 1689.88 1331.27 1689.89 1288.98 1689.23C1288 1687.69 1287.98 1686.82 1287.98 1685.16C1287.98 1682.24 1287.96 1680.12 1287.96 1677.07C1288 1516.71 1288.01 1357.28 1288.01 1197.86C1288.01 1195.2 1287.85 1192.54 1287.76 1189.88Z" fill="#E4D0C0"/>
<path d="M1581.5 290.959C1607.36 285.546 1633.16 279.771 1659.11 274.842C1677.57 271.335 1696.27 269.083 1714.82 266.049C1727.85 263.919 1740.81 261.38 1753.81 259.101C1757.05 258.533 1760.35 258.264 1764.64 258.601C1768.78 266.93 1771.69 274.616 1775.08 282.08C1780.93 294.957 1786.94 307.746 1788.09 322.955C1787.91 328.472 1788.33 333.141 1781.51 333.978C1755.58 337.164 1729.64 340.322 1703.81 344.235C1696.63 345.323 1688.49 344.246 1681.65 350.273C1683.05 353.411 1684.29 356.407 1685.7 359.317C1698.04 384.697 1710.49 410.024 1722.71 435.459C1725.57 441.413 1727.7 447.719 1729.46 454.235C1710.34 458.474 1691.91 462.321 1673.5 466.215C1650.56 471.066 1627.62 475.956 1604.55 479.981C1603.35 474.963 1602.72 470.623 1601.16 466.649C1592.4 444.32 1581.26 423.204 1568.17 403.115C1566.08 399.911 1563.79 396.835 1561.63 393.747C1559.86 394.559 1558.76 394.757 1558.11 395.408C1541.46 412.112 1524.9 428.921 1508.2 445.573C1503.13 450.619 1497.66 455.255 1492.15 459.365C1489.99 451.924 1487.3 445.692 1480.6 441.337C1477.13 434.155 1474.11 427.535 1470.42 421.319C1462 407.166 1454.45 392.231 1439.49 383.396C1445.94 377.84 1452.35 372.228 1458.86 366.738C1474.58 353.482 1490.25 340.146 1506.15 327.113C1515.35 319.578 1523.26 310.24 1536.42 305.753C1544.18 305.406 1550.31 305.154 1556.94 305.32C1559.36 307.661 1561.28 309.585 1563.38 312.247C1566.97 319.185 1569.78 325.875 1576.57 329.789C1584.44 322.925 1590.45 315.383 1593.32 305.833C1589.21 300.664 1585.36 295.811 1581.5 290.959Z" fill="#B9C1CF"/>
<path d="M1038.31 1470.28C1079.52 1470.24 1120.73 1470.2 1162.95 1471.09C1164.01 1543.3 1164.06 1614.58 1164.08 1686.53C1164.01 1688.09 1163.98 1688.98 1163.94 1689.87C1122.61 1689.88 1081.27 1689.89 1038.98 1689.23C1038.01 1687.7 1038 1686.84 1038 1685.04C1038.03 1636.81 1038.01 1589.51 1038.05 1542.22C1038.08 1518.24 1038.22 1494.26 1038.31 1470.28Z" fill="#E4D0C0"/>
<path d="M787.972 1553.98C794.491 1548.47 800.855 1542.77 807.558 1537.5C832.217 1518.09 857.204 1499.1 881.611 1479.39C891.379 1471.51 902.099 1469.54 914.879 1471.16C916.51 1492.91 915.601 1513.7 915.443 1534.49C915.404 1539.68 915.433 1544.83 915.432 1550C915.432 1555.17 914.864 1560.19 915.45 1565.54C916.249 1572.82 914.668 1580.35 914.417 1587.78C914.188 1594.59 914.204 1601.42 914.413 1608.23C914.652 1615.99 915.588 1623.74 915.551 1631.49C915.514 1639.25 914.201 1647.01 914.265 1654.76C914.339 1663.84 915.296 1672.91 915.38 1682.44C914.617 1684.65 914.342 1686.4 914.068 1688.15C872.728 1691.74 831.301 1689.23 788.968 1689.25C788.003 1687.7 787.989 1686.83 787.997 1685.03C788.003 1640.72 787.987 1597.35 787.972 1553.98Z" fill="#E4D0C0"/>
<path d="M455.777 1265.88C440.372 1261.96 424.963 1258.06 409.564 1254.12C390.951 1249.35 372.348 1244.55 352.944 1239.64C354.869 1229.97 357.127 1220.24 360.389 1210.87C377.224 1162.49 394.616 1114.33 416.822 1066.82C418.422 1065.33 419.471 1064.85 419.857 1064.05C426.515 1050.31 438.047 1045.16 452.674 1043.75C463.81 1042.67 474.977 1040.41 485.74 1037.31C505.111 1031.75 524.19 1025.16 543.53 1019.91C543.711 1021.8 543.903 1022.81 543.774 1023.78C540.804 1046 539.194 1068.28 540.04 1091.33C537.854 1098.71 541.164 1103.56 544.835 1108.54C518.959 1112.12 493.887 1115.15 468.093 1117.84C462.693 1116.89 458.001 1116.15 453.581 1118C453.591 1118.77 453.601 1119.54 453.611 1120.31C458.295 1120.31 462.98 1120.31 467.688 1121.14C463.733 1169.94 459.755 1217.91 455.777 1265.88Z" fill="#F78E7C"/>
<path d="M835.839 680.021C845.271 664.132 855.046 648.331 869.036 636.094C875.328 630.59 883.699 627.465 892.483 622.809C907.767 618.595 921.696 614.833 936.41 611.302C939.781 610.987 942.443 610.673 944.941 609.856C984.373 596.96 1023.93 584.426 1063.15 570.897C1087.91 562.351 1112.16 552.295 1136.66 543.836C1134.1 561.161 1130.83 577.499 1129.2 593.998C1128.2 604.102 1129.71 614.454 1130.11 625.417C1130.48 634.027 1135.28 639.133 1140.25 643.932C1136.49 644.761 1133.55 645.359 1130.59 645.774C1097.63 650.395 1064.6 654.51 1031.75 659.744C1006.79 663.721 982.131 669.592 957.174 673.599C948.97 674.916 943.963 678.178 940.194 685.215C936.616 691.895 932.129 698.087 927.62 703.872C902.534 696.844 877.875 690.408 853.196 684.052C847.446 682.571 841.627 681.357 835.839 680.021Z" fill="#EF9403"/>
<path d="M540.223 1090.72C539.194 1068.29 540.804 1046 543.774 1023.78C543.903 1022.81 543.711 1021.8 544.133 1019.54C546.421 1017.51 548.239 1016.73 550.07 1015.98C574.54 1006.02 598.454 994.927 621.714 980.931C637.628 972.393 652.356 963.261 667.88 953.13C665.558 952.504 664.765 952.013 664.402 952.232C649.425 961.284 634.486 970.4 618.849 979.658C615.255 981.364 612.361 982.933 609.453 984.476C588.221 995.745 566.914 1006.85 544.033 1013.67C543.955 1009.04 543.901 1005.34 543.848 1001.64C554.469 996.246 565.035 990.74 575.721 985.477C610.967 968.117 645.518 949.511 678.404 927.957C684.783 923.776 690.79 918.993 696.758 914.225C706.323 906.584 709.674 896.021 710.185 884.26C710.75 871.257 714.148 859.276 723.246 849.547C725.194 847.464 727.96 846.145 730.911 845.107C728.636 850.188 725.798 854.638 722.551 859.658C721.743 863.184 718.766 866.019 722.421 870.895C723.265 866.327 723.819 863.329 724.978 860.864C725.719 867.712 725.704 874.035 726.084 880.335C726.191 882.107 727.454 883.808 728.187 885.541C728.876 855.439 730.46 849.019 741.274 842.406C739.426 848.924 737.503 853.995 736.634 859.241C735.715 864.789 735.37 870.519 735.571 876.141C735.755 881.273 734.007 886.989 739.557 893.447C739.089 889.051 738.837 886.867 738.626 884.678C737.527 873.274 738.108 862.036 742.372 851.256C743.385 848.693 744.059 845.365 748.833 845.642C750.836 854.218 745.467 861.618 745.372 869.721C745.278 877.779 744.55 885.734 748.173 893.301C748.872 891.45 748.874 889.645 748.678 887.862C747.503 877.141 748.236 866.563 751.36 856.239C752.224 853.385 752.249 849.24 758.604 849.887C758.095 853.717 757.789 857.478 757.065 861.157C755.539 868.919 754.81 876.61 757.919 884.94C761.765 895.214 765.103 904.921 769.257 914.266C773.847 924.589 772.881 934.084 767.135 943.528C765.642 945.981 764.854 948.863 763.07 951.701C759.908 954.006 757.264 956.007 754.954 958.338C739.052 974.387 722.742 989.9 705.136 1004.18C671.072 1031.82 633.775 1053.69 593.395 1070.54C582.396 1075.13 571.512 1080 559.93 1084.58C552.931 1086.52 546.577 1088.62 540.223 1090.72ZM676.284 944.008C673.215 946.12 670.147 948.232 667.079 950.345C667.538 951.068 667.997 951.79 668.456 952.513C672.075 950.107 675.694 947.7 680.336 944.71C681.932 943.539 683.529 942.367 686.327 940.581C691.269 936.772 696.21 932.963 702.317 928.505C705.065 926.12 707.863 923.788 710.553 921.337C717.512 914.994 721.539 907.568 720.65 897.654C720.183 892.439 721.297 887.093 721.543 881.799C721.638 879.762 721.305 877.706 721.167 875.659C719 877.205 718.316 878.899 718.24 880.62C717.975 886.582 717.572 892.57 717.878 898.515C718.247 905.685 715.726 911.448 710.837 916.396C707.124 920.155 703.362 923.868 698.35 928.034C693.43 931.874 688.509 935.713 682.403 939.871C680.813 941.113 679.222 942.355 676.284 944.008Z" fill="#FDC26D"/>
<path d="M1438.79 383.512C1454.45 392.234 1462 407.168 1470.42 421.322C1474.11 427.538 1477.13 434.157 1480.19 441.956C1473.05 448.12 1466.17 452.921 1458.62 458.083C1427.86 476.157 1396.5 491.293 1364.45 505.099C1342.81 514.421 1321.4 524.274 1299.27 533.899C1297.83 533.919 1297.01 533.928 1295.54 533.687C1291.46 531.414 1288.26 528.785 1284.58 527.479C1270.46 522.465 1256 518.867 1240.94 517.879C1237.16 517.632 1233.46 516.287 1229.75 514.902C1229.25 513.593 1228.72 512.829 1228.19 512.066C1227.48 513.416 1226.78 514.767 1226.04 516.061C1226.01 516.004 1226.12 516.074 1225.6 515.74C1224.2 516.177 1223.32 516.949 1221.81 518.069C1214.96 522.342 1210.4 530.324 1200.49 526.999C1202.21 518.609 1207.65 512.796 1212.46 506.121C1213.25 505.237 1213.59 504.64 1214.44 503.625C1218.15 499.688 1221.33 496.168 1224.52 492.648C1244.07 477.604 1267.21 469.658 1289.44 459.974C1320.84 446.29 1353.22 434.691 1383 417.537C1398.55 408.582 1413.33 398.299 1428.51 388.714C1431.56 386.791 1434.89 385.31 1438.79 383.512Z" fill="#F78E7C"/>
<path d="M1788.13 322.131C1786.94 307.75 1780.93 294.96 1775.08 282.083C1771.68 274.619 1768.78 266.933 1765.46 258.58C1775.89 255.254 1786.49 252.602 1797.14 250.15C1836.04 241.198 1874.9 232.075 1912.43 218.257C1918.46 216.036 1925.01 212.548 1928.86 207.692C1935.55 199.253 1945.12 195.864 1953.86 191.074C1953.63 193.768 1952.93 195.627 1952.23 197.487C1952.87 197.807 1953.5 198.127 1954.14 198.447C1956.28 194.956 1958.42 191.466 1960.56 187.976C1963.97 185.234 1967.37 182.492 1971.48 180.593C1968.26 188.817 1968.26 188.817 1969.3 194.128C1972.41 188.26 1975.15 183.072 1977.9 177.885C1982.05 171.689 1982.05 171.689 1988.19 169.645C1990.91 172.868 1989.89 176.342 1988.68 179.774C1986.49 186.019 1984.21 192.236 1981.93 199.216C1980.19 204.592 1978.09 209.123 1976.96 213.884C1976.43 216.132 1976.98 220.144 1978.43 220.999C1980.58 222.271 1984.49 222.453 1986.71 221.291C1990.11 219.51 1992.73 216.22 1995.64 213.519C1998.89 210.495 2002.09 207.414 2005.75 203.942C2010.56 219.148 1998.22 245.017 1979.64 259.578C1974.69 262.252 1970.97 264.6 1966.93 266.021C1925.79 280.463 1884.79 295.299 1843.36 308.833C1825.42 314.694 1806.57 317.783 1788.13 322.131Z" fill="#F78E7C"/>
<path d="M420.504 344.696C440.956 334.961 461.332 327.06 482.508 321.665C511.218 314.349 537.676 319.637 561.124 338.201C574.287 348.621 588.789 356.515 604.682 361.947C616.14 365.863 621.324 372.555 621.04 383.623C615.406 384.39 609.581 385.868 603.754 385.876C493.822 386.014 383.889 386.015 273.956 385.873C268.244 385.866 262.534 384.337 256.823 383.517C256.655 382.713 256.487 381.908 256.319 381.104C258.796 379.217 261.083 376.988 263.779 375.5C281.102 365.938 299.31 361.816 319.253 365.179C328.015 366.657 337.249 365.13 346.128 366.167C365.266 368.403 381.943 361.398 398.637 353.768C405.576 350.596 412.747 347.931 420.504 344.696Z" fill="#FFFFFE"/>
<path d="M1318.02 228.004C1344.1 225.717 1365.1 237.707 1387.02 248.313C1385.44 248.875 1383.89 249.727 1382.27 249.927C1379.97 250.211 1377.61 250.019 1375.28 250.018C1267.7 250.005 1160.11 249.995 1052.53 249.962C1048.67 249.961 1044.81 249.744 1039 249.568C1041.68 243.834 1042.87 239.234 1045.58 235.855C1053.43 226.082 1062.7 218.879 1076.2 217.569C1083.54 216.857 1090.41 216.766 1097.77 217.585C1112.2 219.191 1125.17 213.575 1137.11 205.843C1145.45 200.441 1153.35 194.352 1161.73 189.029C1182.65 175.753 1203.62 176.236 1224.38 189.532C1235.54 196.676 1246.47 204.202 1257.83 211C1276.01 221.875 1295.24 229.54 1318.02 228.004Z" fill="#FFFFFE"/>
<path d="M739.964 839.384C755.514 811.347 770.992 783.27 786.666 755.302C790.542 748.385 795.052 741.823 800.094 734.324C801.493 733.12 801.774 732.546 801.761 731.828C801.761 731.828 801.916 731.908 802.743 731.904C806.867 732.232 810.261 732.175 813.448 732.957C839.889 739.442 866.32 745.971 892.672 752.806C896.321 753.752 899.516 756.448 902.647 759.029C893.36 778.559 884.347 797.394 874.833 816.622C870.989 818.901 867.86 821.671 864.271 822.54C829.923 830.854 795.498 838.847 760.568 846.614C753.348 843.993 746.656 841.688 739.964 839.384Z" fill="#EF9403"/>
<path d="M902.921 758.336C899.516 756.45 896.321 753.754 892.672 752.808C866.32 745.973 839.888 739.445 813.448 732.959C810.26 732.178 806.867 732.234 802.695 731.833C812.764 714.714 823.707 697.663 835.244 680.316C841.626 681.357 847.445 682.571 853.196 684.052C877.875 690.409 902.533 696.844 927.675 704.587C919.742 723.394 911.331 740.865 902.921 758.336Z" fill="#FDC26D"/>
<path d="M728 511.99C690.771 511.99 654.542 511.99 616.868 511.99C623.582 505.326 631.603 504.952 638.433 502.52C648.395 498.973 658.924 497.571 669.749 497.838C682.718 498.157 694.404 493.361 704.955 485.933C711.732 481.162 718.326 476.131 725.128 471.397C737.015 463.125 749.663 462.067 762.653 468.402C769.21 471.599 775.68 475.118 781.738 479.165C790.945 485.317 801.189 486.953 811.852 488.164C819.319 489.011 826.813 490.768 833.938 493.175C841.572 495.753 844.969 502.071 845.711 511.108C835.888 512.868 826.341 511.758 816.899 511.947C806.914 512.146 796.923 511.992 786.934 511.992C777.278 511.992 767.623 511.992 757.967 511.992C748.311 511.991 738.656 511.991 728 511.99Z" fill="#FFFFFE"/>
<path d="M197.2 1509.91C203.348 1529.97 201.929 1550.13 200.84 1571.07C193.894 1571.41 187.806 1570.89 180.872 1570.33C176.024 1570.33 172.024 1570.37 167.227 1570.27C164.283 1570.2 162.134 1570.26 159.329 1570.2C157.786 1570.13 156.899 1570.19 155.453 1570.08C154.523 1569.78 154.151 1569.67 153.591 1568.87C152.189 1558.63 146.304 1554.72 136.139 1555.52C136.139 1544.3 135.911 1533.81 136.318 1523.34C136.407 1521.05 138.647 1518.78 140.103 1516.64C143.421 1511.76 146.868 1506.98 150.263 1502.16C165.667 1504.63 181.07 1507.1 197.2 1509.91Z" fill="#FDC26D"/>
<path d="M149.561 1501.86C146.868 1506.98 143.421 1511.77 140.103 1516.64C138.647 1518.78 136.407 1521.06 136.318 1523.34C135.911 1533.81 136.139 1544.31 136.139 1555.52C146.304 1554.73 152.189 1558.63 153.123 1569.21C151.793 1571.79 150.743 1573.35 149.233 1575.19C148.221 1576.36 147.667 1577.26 146.475 1577.76C143.035 1575.89 140.359 1573.59 134.76 1575.4C139.806 1578.04 142.911 1579.66 145.908 1581.87C145.827 1583.65 145.853 1584.83 145.476 1586.65C144.641 1590.2 144.209 1593.1 143.621 1596.73C143.481 1601.67 146.709 1603.19 149.981 1605.39C151.895 1607.88 153.543 1609.86 155.191 1611.84C144.732 1611.74 134.273 1611.64 123.073 1611.17C120.415 1608.5 118.465 1606.24 116.591 1603.92C113.327 1599.88 111.772 1595.39 112.256 1590.05C114.63 1563.87 116.846 1537.67 119.137 1511.48C119.311 1509.49 119.535 1507.5 119.92 1505.54C121.506 1497.49 124.48 1495.47 132.445 1497.3C137.952 1498.56 143.389 1500.13 149.561 1501.86Z" fill="#E8433A"/>
<path d="M787.975 1685.96C787.989 1686.83 788.003 1687.71 788.034 1689.23C689.854 1689.92 591.656 1689.98 493.459 1689.99C364.635 1690.01 235.812 1690 106.989 1689.99C103.665 1689.99 100.324 1690.02 97.0312 1689.67C96.3129 1689.59 95.7665 1687.91 95.5854 1686.45C270.026 1685.92 444.022 1685.9 619.895 1685.91C677.173 1685.94 732.574 1685.95 787.975 1685.96Z" fill="#E8D9CD"/>
<path d="M1556.45 304.903C1550.31 305.154 1544.18 305.406 1537.14 305.592C1527.73 297.845 1523.89 288.628 1528.02 276.789C1530.39 277.345 1531.65 278.27 1535.06 280.782C1532.01 274.693 1532.86 271.431 1535.57 267.791C1540.33 261.374 1539.39 258.988 1532.06 253.866C1532.54 252.311 1533.02 250.757 1534.56 248.611C1544.59 247.177 1553.7 245.387 1561.59 252.28C1561.69 253.456 1561.85 254.762 1561.9 256.072C1561.97 257.72 1561.82 259.386 1561.99 261.02C1562.69 267.562 1564.65 268.826 1571.55 268.547C1574.35 268.434 1577.2 269.561 1580.02 270.123C1579.41 273.555 1579.75 277.611 1577.99 280.28C1574.86 285.025 1577.42 287.333 1580.95 290.491C1585.36 295.811 1589.21 300.664 1593.32 305.833C1590.44 315.383 1584.44 322.925 1576.57 329.789C1569.78 325.875 1566.97 319.185 1563.6 311.548C1565.56 305.019 1567.48 299.927 1569.39 294.835C1568.99 294.684 1568.59 294.534 1568.19 294.384C1564.28 297.89 1560.36 301.396 1556.45 304.903ZM1540.86 282.232C1539.21 282.945 1537.56 283.657 1535.52 284.542C1538.54 289.109 1541.6 289.223 1544.46 285.88C1546.22 283.826 1544.91 282.358 1540.86 282.232ZM1552.98 263.497C1554.16 264.15 1555.35 264.804 1558.35 266.462C1552.98 259.218 1552.98 259.218 1548 261.384C1549.43 261.912 1550.65 262.361 1552.98 263.497ZM1547.75 270.489C1547.57 269.274 1547.38 268.06 1547.2 266.845C1546.22 267.419 1545.25 267.992 1544.28 268.566C1545.1 269.551 1545.92 270.537 1547.75 270.489Z" fill="#F78E7C"/>
<path d="M466.859 975.734C468.669 978.595 470.479 981.456 471.902 985.622C468.32 990.276 469.398 993.921 471.874 996.62C476.025 1001.14 476.525 1005.65 472.184 1011.06C480.244 1009.8 478.75 1003.6 480.819 999.681C487.376 1004.45 487.902 1011.43 487.543 1020.1C484.179 1026.22 481.049 1030.89 477.192 1035.81C468.212 1041.35 463.12 1033.5 455.441 1030.03C456.952 1034.12 457.903 1036.69 458.686 1038.81C448.774 1041.1 439.219 1043.31 429.663 1045.52C432.852 1037.92 436.041 1030.33 439.291 1022.59C437.694 1019.62 436.009 1016.48 434.839 1012.3C438.421 1009.6 441.49 1007.95 444.717 1006.22C442.909 1001.74 440.781 997.222 439.275 992.506C437.999 988.51 439.182 984.651 443.857 984.404C451.12 984.021 455.809 976.238 463.715 978.011C464.551 978.198 465.801 976.538 466.859 975.734ZM454.573 994.314C454.312 995.792 454.052 997.269 453.791 998.747C454.21 998.902 454.63 999.057 455.049 999.212C455.815 997.913 456.581 996.614 458.328 994.747C459.038 993.936 459.748 993.124 460.457 992.312C458.859 992.749 457.261 993.186 454.573 994.314ZM470.327 1015.56C469.221 1015.15 468.116 1014.75 465.906 1013.93C470.937 1020.31 470.937 1020.31 475.842 1016.26C474.275 1016.1 473.021 1015.98 470.327 1015.56ZM438.792 1012.5C440.733 1013.51 442.674 1014.53 444.616 1015.55C444.929 1014.78 445.243 1014.02 445.557 1013.25C443.687 1012.77 441.817 1012.28 438.792 1012.5Z" fill="#FDC26D"/>
<path d="M936.379 599.394C992.194 583.629 1046.17 562.662 1100.08 541.516C1114.33 535.926 1128.47 530.042 1143.36 524.852C1142.74 529.082 1141.42 532.754 1139.58 536.885C1100.61 551.82 1062.36 566.889 1023.62 580.575C995.216 590.609 966.17 598.828 937.215 607.268C936.807 604.251 936.593 601.823 936.379 599.394Z" fill="#EF9403"/>
<path d="M936.282 598.499C936.593 601.823 936.807 604.252 936.915 607.634C936.413 609.415 936.018 610.242 935.624 611.069C921.695 614.831 907.767 618.593 893.056 622.397C892.054 619.431 891.675 617.141 887.958 615.743C879.704 612.639 879.731 612.041 882.848 602.704C886.705 601.881 889.613 601.881 892.324 601.881C896.364 592.626 890.781 586.111 887.001 578.945C894.353 577.318 902.52 577.742 904.121 568.86C909.629 567.4 914.725 566.05 919.821 564.699C921.145 567.177 922.469 569.654 923.195 573.051C918.855 576.362 916.338 579.213 918.247 583.686C920.958 580.995 923.456 578.516 925.954 576.038C933.343 581.339 934.993 589.363 936.282 598.499ZM921.896 585.372C918.646 586.142 920.112 587.192 922.147 589.248C922.992 589.913 923.838 590.578 925.163 592.388C925.575 593.799 925.987 595.209 926.399 596.619C927.094 596.435 927.788 596.251 928.482 596.067C927.752 593.936 927.021 591.805 925.777 588.528C924.796 587.76 923.814 586.992 921.896 585.372ZM904.589 586.484C904.473 588.117 904.358 589.75 904.242 591.384C904.606 591.46 904.969 591.536 905.332 591.612C905.967 590.17 906.601 588.729 908.372 586.59C908.683 585.734 908.993 584.878 909.304 584.022C908.119 584.589 906.934 585.155 904.589 586.484ZM918.139 591.416C917.132 591.973 916.125 592.531 915.117 593.088C916.223 593.956 917.329 594.824 918.434 595.692C918.595 594.596 918.756 593.5 918.139 591.416ZM920.689 608.503C922.158 608.022 923.627 607.541 927.24 606.358C921.357 606.358 917.963 606.358 914.57 606.358C914.548 606.762 914.526 607.165 914.505 607.569C916 607.88 917.496 608.191 920.689 608.503Z" fill="#FDDAAE"/>
<path d="M920.371 564.243C914.726 566.051 909.63 567.402 904.121 568.862C902.521 577.744 894.354 577.32 887.002 578.946C890.782 586.113 896.364 592.627 892.324 601.882C889.613 601.882 886.706 601.882 882.961 601.985C878.994 598.733 875.18 595.784 872.897 591.928C869.771 586.646 871.206 582.36 875.187 577.664C876.645 575.944 877.484 573.291 877.682 570.985C878.409 562.523 882.9 556.786 890.093 552.958C895.403 550.132 900.775 548.604 903.597 553.066C910.111 553.593 915.106 553.273 919.634 554.576C923.838 555.785 923.887 558.614 920.371 564.243Z" fill="#0C0A09"/>
<path d="M1580.55 269.585C1577.2 269.565 1574.35 268.438 1571.55 268.551C1564.65 268.83 1562.7 267.566 1561.99 261.024C1561.82 259.39 1561.97 257.724 1561.9 256.075C1561.85 254.765 1561.69 253.46 1561.59 252.284C1553.7 245.391 1544.59 247.18 1534.78 248.037C1530.78 245.971 1527.63 243.89 1522.67 240.612C1530.17 238.67 1535.4 237.531 1540.49 235.933C1545.52 234.353 1550.27 231.436 1555.39 230.632C1571.54 228.091 1581.1 239.888 1583.27 253.696C1584.03 258.576 1581.89 263.914 1580.55 269.585Z" fill="#FDC26D"/>
<path d="M429.072 1045.85C439.218 1043.31 448.774 1041.1 458.685 1038.81C457.903 1036.69 456.952 1034.12 455.441 1030.03C463.12 1033.5 468.212 1041.35 477.958 1035.83C500.987 1028.59 522.522 1021.59 544.057 1014.6C566.914 1006.85 588.221 995.747 609.453 984.477C612.36 982.934 615.254 981.366 619.229 980.09C620.565 980.652 620.826 980.933 621.086 981.215C598.454 994.928 574.539 1006.02 550.069 1015.98C548.239 1016.73 546.421 1017.51 543.995 1018.64C524.19 1025.16 505.111 1031.75 485.74 1037.32C474.977 1040.41 463.81 1042.67 452.674 1043.75C438.047 1045.16 426.515 1050.31 419.857 1064.05C419.471 1064.85 418.422 1065.33 417.035 1066.14C418.719 1061.92 420.922 1057.43 423.428 1053.11C424.856 1050.65 426.781 1048.48 429.072 1045.85Z" fill="#5E402B"/>
<path d="M466.63 975.037C465.8 976.535 464.55 978.195 463.714 978.008C455.809 976.235 451.119 984.018 443.856 984.401C439.181 984.648 437.998 988.507 439.274 992.503C440.78 997.219 442.908 1001.74 444.716 1006.21C441.489 1007.95 438.42 1009.6 434.773 1011.6C431.597 1006.27 428.058 1000.82 426.625 994.87C424.489 985.993 428.554 978.701 435.46 973.008C442.733 967.014 450.919 965.337 459.689 968.78C462.259 969.789 464.183 972.442 466.63 975.037Z" fill="#C16338"/>
<path d="M544.033 1013.67C522.522 1021.59 500.988 1028.59 478.686 1035.56C481.049 1030.88 484.179 1026.22 487.58 1020.96C502.587 1015.41 517.327 1010.47 532.056 1005.49C535.503 1004.33 538.915 1003.06 543.096 1001.74C543.901 1005.34 543.955 1009.04 544.033 1013.67Z" fill="#F78E7C"/>
<path d="M739.269 839.516C746.656 841.69 753.348 843.994 760.904 847.373C760.814 859.838 759.874 871.23 758.864 882.616C758.814 883.176 758.149 883.682 757.771 884.214C754.81 876.61 755.539 868.919 757.065 861.156C757.789 857.478 758.095 853.717 758.604 849.887C752.249 849.239 752.224 853.384 751.36 856.239C748.236 866.562 747.503 877.141 748.678 887.862C748.874 889.645 748.872 891.45 748.173 893.301C744.55 885.734 745.278 877.779 745.372 869.721C745.467 861.618 750.836 854.218 748.833 845.642C744.059 845.365 743.385 848.693 742.372 851.256C738.108 862.036 737.527 873.274 738.626 884.678C738.837 886.867 739.089 889.051 739.557 893.447C734.007 886.989 735.755 881.273 735.571 876.141C735.37 870.519 735.715 864.789 736.634 859.241C737.503 853.995 739.426 848.924 741.274 842.406C730.46 849.019 728.876 855.438 728.187 885.541C727.454 883.808 726.191 882.106 726.084 880.335C725.704 874.035 725.719 867.711 724.633 860.545C723.681 859.693 722.961 859.087 722.961 859.087C725.798 854.638 728.636 850.188 731.585 845.118C733.989 842.88 736.282 841.263 739.269 839.516Z" fill="#5E402B"/>
<path d="M1140.1 536.427C1141.42 532.756 1142.74 529.084 1144.09 524.67C1155.23 518.79 1166.31 513.566 1177.47 508.541C1186.49 504.485 1195.48 500.319 1204.73 496.871C1210.53 494.711 1216.78 493.79 1223.68 492.48C1221.33 496.168 1218.15 499.688 1213.65 503.557C1209.53 504.613 1206.71 505.322 1203.94 506.006C1203.98 505.982 1204.05 505.923 1203.32 505.858C1198.46 507.938 1194.4 510.18 1190.22 512.208C1173.53 520.318 1156.81 528.36 1140.1 536.427Z" fill="#FDDAAE"/>
<path d="M914.828 1688.47C914.343 1686.4 914.617 1684.65 916.023 1682.91C919.598 1686.71 923.465 1685.98 927.066 1685.98C960.044 1685.98 993.022 1685.95 1026.86 1685.95C1031.14 1685.97 1034.56 1685.97 1037.98 1685.97C1038 1686.83 1038.01 1687.7 1038.04 1689.2C999.834 1689.9 961.606 1689.97 923.378 1689.95C920.781 1689.95 918.184 1689.2 914.828 1688.47Z" fill="#E8D9CD"/>
<path d="M1164.89 1689.92C1163.98 1688.98 1164.01 1688.09 1164.92 1686.57C1169.2 1685.94 1172.6 1685.93 1176.86 1685.95C1181.14 1685.96 1184.57 1685.94 1188.77 1685.94C1195.69 1685.94 1201.85 1685.93 1208.8 1685.94C1211.73 1685.95 1213.86 1685.94 1216.92 1685.94C1225.23 1685.95 1232.62 1685.93 1240.8 1685.94C1243.73 1685.95 1245.86 1685.94 1248.93 1685.94C1260.58 1685.95 1271.29 1685.93 1282.75 1685.95C1284.98 1685.96 1286.47 1685.96 1287.96 1685.95C1287.98 1686.82 1288 1687.68 1288.04 1689.2C1247.32 1689.89 1206.57 1689.92 1164.89 1689.92Z" fill="#E8D9CD"/>
<path d="M1414.89 1689.92C1413.98 1688.99 1414.01 1688.1 1414.99 1686.58C1454.63 1685.95 1493.32 1685.94 1532.75 1685.95C1534.98 1685.97 1536.47 1685.96 1537.96 1685.95C1537.98 1686.83 1538 1687.7 1538.03 1689.23C1497.31 1689.91 1456.57 1689.94 1414.89 1689.92Z" fill="#E8D9CD"/>
<path d="M1664.89 1689.93C1663.98 1689 1664 1688.11 1664.98 1686.59C1706.61 1685.95 1747.28 1685.94 1787.95 1685.93C1787.97 1686.81 1787.99 1687.69 1788.03 1689.22C1747.31 1689.91 1706.57 1689.94 1664.89 1689.93Z" fill="#E8D9CD"/>
<path d="M1914.89 1689.92C1913.98 1689 1914 1688.11 1914.98 1686.59C1956.6 1685.94 1997.27 1685.92 2037.93 1685.91C2037.96 1686.79 2037.99 1687.67 2038.04 1689.21C1997.32 1689.9 1956.57 1689.93 1914.89 1689.92Z" fill="#E8D9CD"/>
<path d="M480.733 999.036C478.749 1003.59 480.243 1009.8 472.184 1011.05C476.525 1005.65 476.025 1001.14 471.874 996.618C469.398 993.919 468.32 990.274 471.991 986.287C473.099 985.841 474.285 986.038 474.283 986.223C474.229 991.442 478.242 994.498 480.733 999.036Z" fill="#5E402B"/>
<path d="M1531.34 254.277C1539.39 258.989 1540.34 261.374 1535.57 267.791C1532.86 271.431 1532.01 274.694 1535.06 280.782C1531.65 278.271 1530.4 277.346 1528.56 276.203C1528.86 268.886 1529.74 261.787 1531.34 254.277Z" fill="#5E402B"/>
<path d="M1977.27 177.883C1975.15 183.071 1972.41 188.259 1969.3 194.127C1968.26 188.816 1968.26 188.816 1972.16 180.743C1972.12 180.049 1972.03 180.009 1972.56 180.078C1973.45 179.546 1973.8 178.946 1974.15 178.346C1974.98 178.191 1975.81 178.036 1977.27 177.883Z" fill="#5E402B"/>
<path d="M1959.9 187.883C1958.42 191.464 1956.28 194.954 1954.14 198.444C1953.5 198.124 1952.87 197.805 1952.23 197.485C1952.93 195.625 1953.63 193.765 1954.59 191.258C1956.32 189.671 1957.78 188.732 1959.9 187.883Z" fill="#5E402B"/>
<path d="M925.932 575.413C923.456 578.519 920.958 580.997 918.247 583.688C916.338 579.215 918.856 576.364 923.272 573.656C924.602 573.822 925.257 574.305 925.932 575.413Z" fill="#5E402B"/>
<path d="M801.282 732.004C801.774 732.549 801.493 733.123 800.474 733.769C800.287 733.382 800.545 732.779 801.282 732.004Z" fill="#FDC26D"/>
<path d="M1973.6 178.355C1973.8 178.943 1973.45 179.544 1972.56 180.124C1972.37 179.525 1972.71 178.946 1973.6 178.355Z" fill="#F78E7C"/>
<path d="M560.574 1084.74C571.511 1080 582.395 1075.14 593.394 1070.54C633.774 1053.69 671.072 1031.82 705.135 1004.19C722.741 989.901 739.052 974.389 754.954 958.34C757.263 956.009 759.907 954.008 763.424 952.328C775.491 965.233 786.498 977.693 797.575 990.091C833.242 1030.01 868.746 1070.08 904.713 1109.73C918.301 1124.71 928.294 1140.55 928.528 1161.75C928.674 1174.96 931.189 1188.14 932.519 1201.35C934.382 1219.86 936.413 1238.35 937.857 1256.89C939.638 1279.74 940.757 1302.64 942.452 1325.5C942.938 1332.06 944.422 1338.55 945.264 1345.81C944.643 1354.35 945.4 1355.69 952.329 1355.81C964.161 1356 976.002 1355.69 987.898 1356.54C988.557 1364.95 989.155 1372.43 989.717 1380.71C988.95 1388.69 992.536 1392.96 998.971 1395.31C994.662 1395.54 990.353 1395.96 986.043 1395.97C949.43 1396.02 912.817 1396.06 876.204 1395.92C870.657 1395.9 866.247 1397.11 861.672 1400.76C838.87 1418.91 815.707 1436.61 792.626 1454.41C761.149 1478.68 729.604 1502.87 698.139 1527.16C671.396 1547.81 644.701 1568.52 618.041 1589.27C610.46 1595.17 603.182 1601.46 595.568 1607.32C589.034 1612.34 582.118 1613.85 573.359 1612.68C561.27 1611.07 548.705 1611.37 536.528 1612.63C527.843 1613.53 519.505 1614.62 510.955 1612.28C508.781 1611.68 506.322 1612.12 503.288 1611.43C505.089 1605.48 501.288 1604.58 497.59 1603.52C488.358 1600.87 479.137 1598.18 469.729 1595C467.895 1593.89 466.245 1593.28 464.36 1592.26C464.125 1591.85 463.269 1591.42 463.182 1590.93C461.844 1589.48 460.594 1588.51 459.065 1586.87C458.099 1584.37 457.412 1582.54 457.231 1580.13C463.246 1572.83 468.754 1566.12 474.95 1559.63C478.9 1561.4 482.049 1563.28 485.446 1564.43C490.707 1566.22 496.055 1568.14 501.515 1568.84C508.753 1569.78 512.21 1566.91 514.127 1560.13C516.097 1558.65 518.561 1557.52 519.964 1555.62C544.065 1522.91 569.468 1491.31 596.975 1461.36C613.841 1442.99 630.201 1424.13 646.019 1404.86C656.357 1392.26 661.452 1376.86 663.465 1360.83C665.125 1347.61 659.372 1336.75 649.186 1328.46C637.898 1319.26 624.678 1313.71 610.822 1309.82C562.151 1296.14 513.42 1282.68 464.72 1269.1C462.161 1268.39 459.673 1267.42 456.465 1266.23C459.755 1217.91 463.733 1169.94 468.069 1120.65C468.555 1118.95 468.685 1118.56 468.814 1118.18C493.886 1115.15 518.959 1112.12 545.471 1108.6C558.922 1107.84 562.426 1104.27 561.833 1092.58C561.7 1089.95 561.009 1087.36 560.574 1084.74Z" fill="#F6EEE8"/>
<path d="M1886.58 833.625C1872.62 840.386 1858.68 847.207 1844.68 853.881C1838.14 856.999 1831.42 859.749 1824.86 862.821C1817.96 866.047 1811.41 870.265 1804.23 872.557C1797.42 874.733 1793.81 879.389 1790.81 884.962C1785.95 894.008 1781.5 903.275 1776.77 912.393C1769.61 926.194 1762.46 940 1755.13 953.707C1744.96 972.706 1734.57 991.581 1724.4 1010.58C1720.66 1017.56 1716.84 1024.56 1713.9 1031.89C1711.06 1038.97 1707 1042.17 1698.97 1042.12C1647.41 1041.83 1595.84 1042 1544.27 1041.9C1541.07 1041.9 1537.87 1040.91 1534.49 1039.03C1535.57 1032.55 1536.82 1027.41 1538.55 1021.68C1540.41 1015.98 1541.62 1010.83 1543.2 1005.79C1550.07 984.015 1557.1 962.291 1563.91 940.501C1564.98 937.099 1565.26 933.451 1566.25 929.288C1567.86 925.611 1569.35 922.636 1570.35 919.504C1604.86 810.944 1642.96 703.649 1684.12 597.441C1686.52 591.252 1689.38 585.184 1692.63 579.4C1695.89 573.601 1700.96 570.418 1707.99 569.778C1736.51 567.187 1764.95 563.561 1793.5 561.558C1834.7 558.668 1875.98 556.857 1917.33 554.957C1917.44 555.328 1917.92 555.935 1917.8 556.689C1917.1 559.345 1916.48 561.233 1915.98 563.153C1903.92 609.286 1891.85 655.417 1879.84 701.563C1877.1 712.088 1874.59 722.672 1871.6 733.714C1865.37 750.113 1870 758.21 1886.5 760.797C1889.11 761.207 1891.77 761.343 1894.42 762.5C1893.84 767.31 1893.24 771.222 1892.68 775.14C1891.1 786.223 1889.54 797.308 1887.57 809.002C1885.48 817.579 1881.64 825.494 1886.58 833.625Z" fill="#F6EEE7"/>
<path d="M2037.95 1684.98C1997.27 1685.92 1956.6 1685.94 1915.01 1685.92C1914.07 1430.52 1914.06 1175.15 1914 919.781C1914 915.501 1913.42 911.221 1912.57 906.262C1928.34 897.575 1944.57 889.393 1960.99 881.602C1984.68 870.36 2008.5 859.385 2032.3 848.374C2033.44 847.848 2034.93 848.075 2037.01 847.914C2037.85 872.184 2037.99 896.491 2037.99 920.797C2038 1175.22 2037.98 1429.63 2037.95 1684.98Z" fill="#F6EEE8"/>
<path d="M1787.97 1685C1747.28 1685.94 1706.61 1685.95 1665.01 1685.92C1664.07 1496.55 1664.05 1307.21 1664.02 1116.93C1691 1115.99 1718 1115.8 1744.99 1116.13C1751.59 1116.21 1755.24 1114.05 1758.14 1108.09C1765.09 1093.79 1772.67 1079.79 1780.24 1065.8C1781.76 1062.97 1784.36 1060.73 1787.11 1058.05C1787.84 1064.54 1788 1071.2 1788 1077.85C1788.01 1279.93 1788 1482 1787.97 1685Z" fill="#F6EEE8"/>
<path d="M1788.09 322.956C1806.57 317.781 1825.42 314.692 1843.36 308.831C1884.79 295.297 1925.8 280.461 1966.93 266.019C1970.97 264.598 1974.69 262.25 1979.24 260.105C1982.67 260.448 1985.57 261.849 1988.19 261.452C2007.49 258.536 2026.72 255.193 2045.99 252.119C2062.61 249.468 2079.26 246.993 2097.37 244.215C2097.46 248.475 2098.09 252.314 2097.53 255.972C2093.81 280.5 2089.86 304.995 2085.92 329.49C2082.77 349.089 2079.42 368.655 2076.36 388.269C2072.08 415.736 2068.16 443.259 2063.78 470.711C2060.19 493.255 2055.9 515.689 2052.41 538.248C2048.61 562.768 2045.58 587.407 2041.83 611.935C2039.13 629.594 2035.62 647.128 2032.79 664.768C2029.64 684.359 2026.84 704.005 2023.92 723.631C2021.82 737.705 2020 751.828 2017.54 765.838C2016.66 770.882 2015.54 776.894 2006.26 775.867C2003.04 775.463 2001.42 775.004 1999.79 775.009C1981 775.061 1981 775.079 1980.11 755.25C1981.3 747.518 1982.35 740.585 1983.69 732.944C1986.33 723.24 1988.73 714.255 1991.03 705.244C2004.56 652.113 2019.83 599.376 2028.8 545.19C2031.29 530.149 2033.01 514.82 2033.22 499.598C2033.54 475.32 2022.58 462.053 1999.24 455.618C1996.69 454.914 1994.08 454.157 1991.46 453.95C1976.56 452.772 1961.63 450.71 1946.73 450.873C1898.15 451.407 1849.59 452.928 1801.02 453.752C1777.4 454.153 1753.78 453.85 1730.16 453.865C1727.7 447.721 1725.57 441.415 1722.71 435.461C1710.49 410.025 1698.04 384.698 1685.71 359.318C1684.29 356.408 1683.05 353.412 1681.65 350.275C1688.49 344.248 1696.63 345.324 1703.81 344.237C1729.64 340.323 1755.58 337.166 1781.51 333.98C1788.33 333.142 1787.91 328.474 1788.09 322.956Z" fill="#F6EEE7"/>
<path d="M1532 1685.93C1493.32 1685.94 1454.63 1685.94 1415.02 1685.91C1414.08 1496.53 1414.06 1307.19 1414.05 1116.91C1454.76 1115.98 1495.48 1116 1537.14 1116.04C1538.09 1116.07 1538.02 1117.04 1537.36 1117.88C1532.5 1122.8 1531.24 1127.36 1533.22 1133.18C1534.24 1136.19 1533.93 1139.75 1533.74 1143.03C1533.33 1149.96 1532.08 1156.86 1532.08 1163.77C1531.98 1337.82 1532 1511.88 1532 1685.93Z" fill="#F6EEE8"/>
<path d="M1261.55 1045.12C1260.9 1047.92 1260.62 1050.88 1259.53 1053.49C1253.12 1068.73 1246.48 1083.88 1239.98 1099.09C1227.49 1128.34 1214.97 1157.58 1202.59 1186.87C1195.66 1203.3 1189.01 1219.84 1182.18 1236.31C1174.43 1254.99 1166.6 1273.63 1158.85 1292.31C1154.15 1303.61 1149.57 1314.96 1144.87 1326.26C1140.15 1337.58 1135.31 1348.85 1130.61 1360.17C1128.22 1365.95 1126.31 1371.94 1123.67 1377.59C1121.16 1382.97 1117.98 1388.03 1113.88 1393.43C1107.42 1390.81 1102.26 1387.84 1096.92 1385.22C1088.31 1381.01 1081.15 1375.48 1077.92 1365.19C1077.26 1359.8 1076.76 1355.2 1075.87 1350.68C1073.99 1341.07 1071.9 1331.5 1069.95 1321.07C1065 1288.77 1060.1 1257.3 1054.99 1225.87C1050.09 1195.74 1044.42 1165.72 1040.09 1135.51C1035.82 1105.6 1026.29 1078.3 1007.05 1054.51C976.342 1016.53 946.149 978.139 916 939.406C916.821 937.93 917.382 936.97 918.672 935.942C961.867 917.057 1004.36 898.31 1048.46 881.391C1053.18 891.712 1057.56 901.32 1061.98 910.913C1079.62 949.271 1097.23 987.646 1115.02 1025.94C1116.45 1029.02 1119.14 1031.52 1121.36 1035.05C1121.5 1041.21 1125.18 1042.19 1129.5 1042.54C1140.18 1043.4 1149.85 1040.38 1159.68 1035.31C1163.5 1040.1 1166.51 1044.66 1169.67 1049.12C1175.47 1057.33 1177.51 1068.05 1186.25 1074.92C1186.51 1077.21 1186.6 1078.94 1187.36 1080.3C1193.63 1091.59 1199.41 1092.94 1209.63 1085.42C1214.98 1081.48 1220.1 1077.23 1225.35 1073.16C1237.4 1063.8 1249.48 1054.46 1261.55 1045.12Z" fill="#F6EEE7"/>
<path d="M1282 1685.92C1271.29 1685.94 1260.58 1685.95 1248.79 1685.27C1243.74 1681.04 1242.41 1681.27 1240.01 1685.91C1232.62 1685.93 1225.23 1685.95 1216.77 1685.27C1211.74 1681.04 1210.41 1681.27 1208.01 1685.91C1201.85 1685.93 1195.69 1685.94 1188.7 1685.31C1186.58 1683.11 1185.29 1681.56 1183.87 1679.3C1179.58 1674.51 1176.05 1670.3 1179.57 1663.93C1180.13 1662.92 1179.7 1661.33 1179.62 1660.02C1179.18 1652.26 1177.81 1644.44 1178.46 1636.78C1179.3 1627.04 1178.73 1617.44 1178.59 1607.75C1178.49 1601.28 1178.87 1594.82 1178.53 1588.28C1178.13 1580.91 1180.77 1573.17 1179.41 1566.12C1178.15 1559.62 1179.93 1553.72 1179.56 1547.57C1179.11 1539.82 1178.37 1532.07 1178.42 1524.32C1178.46 1516.56 1180.95 1508.46 1179.37 1501.16C1177.66 1493.26 1179.55 1488.92 1185.39 1484.21C1189.42 1480.96 1188.44 1477.35 1183.98 1472.95C1182.13 1475.94 1180.29 1478.93 1178.12 1482.45C1173.06 1477.84 1173.18 1470.2 1165.95 1469.98C1177.59 1441.45 1189.03 1412.83 1200.94 1384.42C1213.12 1355.35 1225.88 1326.52 1238.17 1297.5C1246.15 1278.63 1253.71 1259.58 1261.54 1240.65C1267.74 1225.66 1273.93 1210.67 1280.46 1195.82C1281.5 1193.47 1284.32 1191.91 1287.04 1189.93C1287.85 1192.54 1288.01 1195.2 1288.01 1197.86C1288.01 1357.28 1288 1516.71 1287.27 1677.16C1282.38 1679.21 1281.93 1682.42 1282 1685.92Z" fill="#F6EEE8"/>
<path d="M1026 1685.93C993.022 1685.95 960.044 1685.98 927.066 1685.98C923.465 1685.98 919.598 1686.71 916.513 1682.45C915.296 1672.91 914.34 1663.84 914.265 1654.76C914.201 1647.01 915.514 1639.25 915.551 1631.49C915.588 1623.74 914.652 1615.99 914.414 1608.23C914.204 1601.42 914.188 1594.59 914.418 1587.78C914.669 1580.35 916.249 1572.82 915.45 1565.54C914.864 1560.19 915.432 1555.17 915.433 1550C915.433 1544.83 915.404 1539.68 915.444 1534.49C915.601 1513.7 916.511 1492.91 915.747 1471.21C950.484 1470.22 985.306 1470.12 1021.07 1470.84C1022.7 1474.15 1023.53 1476.62 1024.07 1479.15C1025.3 1484.89 1027.01 1490.62 1027.34 1496.43C1027.67 1501.97 1026.08 1507.59 1026.07 1513.18C1025.96 1570.76 1026 1628.35 1026 1685.93Z" fill="#F6EEE8"/>
<path d="M787.997 1685.03C732.574 1685.95 677.173 1685.94 620.823 1685.86C621.68 1683.61 623.157 1681 625.341 1679.3C655.083 1656.18 684.999 1633.27 714.714 1610.11C738.168 1591.83 761.401 1573.27 784.751 1554.86C785.243 1554.47 785.975 1554.38 787.284 1554.07C787.988 1597.35 788.003 1640.72 787.997 1685.03Z" fill="#F6EEE8"/>
<path d="M1165.41 1470.01C1173.18 1470.2 1173.06 1477.84 1178.12 1482.45C1180.29 1478.93 1182.13 1475.94 1183.98 1472.95C1188.44 1477.35 1189.42 1480.95 1185.39 1484.2C1179.55 1488.92 1177.66 1493.26 1179.37 1501.16C1180.95 1508.46 1178.46 1516.56 1178.42 1524.31C1178.37 1532.06 1179.11 1539.82 1179.57 1547.57C1179.93 1553.72 1178.15 1559.62 1179.41 1566.11C1180.77 1573.17 1178.13 1580.91 1178.53 1588.28C1178.88 1594.82 1178.49 1601.28 1178.59 1607.74C1178.73 1617.43 1179.3 1627.04 1178.46 1636.78C1177.81 1644.43 1179.18 1652.26 1179.62 1660.01C1179.7 1661.33 1180.13 1662.92 1179.57 1663.93C1176.05 1670.3 1179.58 1674.5 1183.15 1679.31C1178.61 1680.04 1176.31 1681.88 1176 1685.93C1172.6 1685.93 1169.2 1685.94 1164.96 1685.9C1164.06 1614.57 1164.01 1543.29 1163.87 1471.1C1164.15 1470.13 1164.51 1470.09 1165.41 1470.01Z" fill="#F6EEE8"/>
<path d="M1979.96 756.047C1981 775.079 1981 775.06 1999.79 775.008C2001.42 775.004 2003.04 775.463 2005.48 775.828C2005.07 777.32 2004.1 779.259 2002.56 779.977C1964.37 797.81 1926.12 815.513 1887.23 833.433C1881.64 825.495 1885.48 817.58 1888.33 808.933C1908.77 800.001 1928.05 791.735 1947.34 783.505C1950.88 781.994 1953.74 780.17 1953.88 775.68C1954.21 764.567 1960.2 758.695 1971.13 757.511C1974.09 757.19 1977.02 756.544 1979.96 756.047Z" fill="#51784E"/>
<path d="M1538.08 1022.28C1536.82 1027.41 1535.57 1032.55 1534.01 1038.29C1529.11 1039.41 1524.53 1040.37 1519.94 1040.39C1483.08 1040.5 1446.23 1040.44 1408.56 1039.68C1410.59 1036.66 1413.43 1034.4 1416.98 1032.05C1430.87 1027.93 1439.81 1018.99 1446.45 1007.29C1447.91 1004.72 1449.86 1002.43 1452.4 1000.22C1455.51 1000.79 1457.81 1001.48 1460.09 1001.43C1468.24 1001.25 1474.16 1004.3 1477.16 1012.21C1477.62 1013.41 1478.71 1014.36 1479.31 1015.54C1481.83 1020.5 1485.61 1022.4 1491.35 1022.28C1506.92 1021.95 1522.5 1022.24 1538.08 1022.28Z" fill="#51784E"/>
<path d="M1261.92 1044.65C1249.48 1054.46 1237.4 1063.8 1225.35 1073.16C1220.1 1077.23 1214.98 1081.48 1209.63 1085.42C1199.41 1092.94 1193.63 1091.59 1187.36 1080.3C1186.6 1078.94 1186.51 1077.21 1186.86 1074.68C1195.41 1066.47 1203.31 1059.37 1210.94 1051.99C1224.04 1039.32 1236.97 1026.48 1250.7 1013.8C1256.28 1015.92 1261.14 1017.95 1266.87 1020.27C1274.36 1020.94 1280.98 1021.33 1290.12 1021.86C1285.42 1026.41 1282.66 1029.09 1279.34 1031.9C1278.25 1032.56 1277.71 1033.09 1276.69 1033.77C1275.45 1034.57 1274.69 1035.22 1273.33 1035.99C1271.18 1037.43 1269.65 1038.75 1268.11 1040.07C1266.17 1041.44 1264.23 1042.81 1261.92 1044.65Z" fill="#C16338"/>
<path d="M456.724 1580.72C457.412 1582.54 458.099 1584.37 458.415 1587.24C455.707 1589.98 452.343 1590.93 452.686 1595.02C456.594 1593.69 459.932 1592.55 463.27 1591.42C463.27 1591.42 464.125 1591.85 463.968 1592.72C462.885 1595.28 461.958 1596.96 460.058 1600.4C464.756 1598.07 467.334 1596.79 469.912 1595.51C479.138 1598.18 488.358 1600.87 497.591 1603.52C501.288 1604.57 505.089 1605.48 502.428 1611.44C500.299 1612.31 498.324 1612.71 496.349 1612.71C451.508 1612.7 406.666 1612.66 360.907 1612.42C365.68 1600.43 371.37 1588.64 378.141 1576.83C380.383 1578 381.98 1578.98 382.638 1580.4C389.185 1594.52 401.738 1595.87 414.982 1595.86C416.977 1595.86 419.015 1595.65 420.961 1595.97C428.442 1597.2 433.867 1594.7 437.042 1587.67C439.722 1581.73 444.412 1579.44 450.773 1580.21C452.749 1580.45 454.74 1580.55 456.724 1580.72Z" fill="#E8433A"/>
<path d="M1026.86 1685.95C1026 1628.35 1025.96 1570.76 1026.07 1513.18C1026.08 1507.59 1027.67 1501.97 1027.34 1496.43C1027.01 1490.63 1025.3 1484.89 1024.07 1479.15C1023.53 1476.62 1022.7 1474.15 1022 1470.86C1026.82 1470.07 1031.65 1470.09 1037.39 1470.19C1038.22 1494.26 1038.08 1518.24 1038.05 1542.22C1038.01 1589.51 1038.03 1636.81 1038 1685.04C1034.56 1685.97 1031.14 1685.97 1026.86 1685.95Z" fill="#F6EEE7"/>
<path d="M1077.91 1366.02C1081.15 1375.48 1088.31 1381.01 1096.92 1385.22C1102.26 1387.83 1107.42 1390.81 1113.32 1393.82C1112.56 1394.62 1111.15 1395.77 1109.73 1395.77C1073.39 1395.7 1037.04 1395.51 999.834 1395.32C992.536 1392.96 988.95 1388.69 990.47 1380.43C1000.43 1377.85 1009.59 1376.28 1018.78 1374.88C1038.48 1371.88 1058.2 1368.96 1077.91 1366.02Z" fill="#C16338"/>
<path d="M1279.9 1031.77C1282.66 1029.09 1285.42 1026.41 1290.12 1021.86C1280.98 1021.33 1274.36 1020.94 1266.88 1019.45C1266.84 1015.95 1266.94 1012.59 1268.62 1011.33C1277.03 1005.06 1290.97 1012.3 1291.77 1021.9C1298.82 1027.77 1306.23 1029.05 1314.71 1028.42C1323.16 1027.8 1331.76 1029.6 1340.31 1029.95C1358.46 1030.7 1376.62 1031.2 1394.78 1031.76C1396.07 1031.8 1397.72 1031.96 1398.63 1031.28C1404.82 1026.68 1410.49 1030.16 1416.27 1032.14C1413.43 1034.4 1410.59 1036.66 1407.59 1039.6C1403.87 1040.85 1400.32 1041.89 1396.77 1041.9C1361.94 1042.02 1327.1 1042.06 1292.27 1041.89C1286.7 1041.86 1281.15 1040.63 1274.75 1039.24C1273.93 1037.64 1273.93 1036.76 1273.94 1035.88C1274.69 1035.22 1275.45 1034.57 1277.28 1033.68C1278.87 1032.89 1279.39 1032.33 1279.9 1031.77Z" fill="#F6EEE7"/>
<path d="M156.154 1611.9C153.543 1609.86 151.895 1607.88 150.004 1604.62C149.131 1599.79 148.218 1596.46 143.777 1596C144.209 1593.1 144.641 1590.2 146.257 1586.47C151.744 1582.81 149.389 1578.58 149.692 1574.9C150.743 1573.35 151.793 1571.79 153.311 1569.89C154.151 1569.67 154.523 1569.79 155.546 1570.62C156.815 1571.93 157.432 1572.51 158.05 1573.09C158.695 1572.17 159.34 1571.25 159.986 1570.33C162.134 1570.26 164.283 1570.2 167.371 1570.89C170.988 1573.38 173.666 1575.11 176.74 1577.09C175.402 1582.34 171.936 1588.37 179.736 1592.85C179.978 1597.11 180.087 1600.53 179.523 1604.06C177.232 1606.78 175.614 1609.4 173.995 1612.01C168.369 1611.99 162.743 1611.97 156.154 1611.9Z" fill="#F6EEE8"/>
<path d="M174.589 1612.56C175.613 1609.4 177.232 1606.79 180.063 1604.45C183.77 1608.41 187.272 1609.98 191.674 1609.65C192.812 1610.15 193.95 1610.65 195.539 1611.58C189.223 1615.53 182.186 1614 174.589 1612.56Z" fill="#F6EEE7"/>
<path d="M1273.33 1035.99C1273.93 1036.76 1273.93 1037.64 1273.89 1039.18C1272.42 1039.92 1270.99 1040 1268.83 1040.08C1269.65 1038.75 1271.18 1037.43 1273.33 1035.99Z" fill="#E8D9CD"/>
<path d="M457.232 1580.13C454.74 1580.55 452.748 1580.45 450.773 1580.21C444.412 1579.44 439.722 1581.73 437.042 1587.66C433.867 1594.7 428.442 1597.2 420.961 1595.97C419.015 1595.65 416.977 1595.86 414.982 1595.86C401.738 1595.87 389.185 1594.52 382.638 1580.4C381.98 1578.98 380.383 1578 378.687 1576.43C383.097 1567.45 387.641 1558.59 393.08 1550.31C400.927 1538.37 409.423 1526.85 418.528 1514.51C420.294 1513.4 421.173 1512.93 422.053 1512.46C446.086 1516.09 466.512 1527.29 484.838 1543.37C481.166 1549.34 477.714 1554.37 474.261 1559.41C468.754 1566.12 463.246 1572.83 457.232 1580.13Z" fill="#FDC26D"/>
<path d="M440.683 1374.42C468.29 1377.59 495.822 1381.2 524.511 1387.84C492.998 1420.94 464.165 1454 436.807 1489.18C436.346 1489.65 436.312 1489.57 436.312 1489.57C436.731 1460.03 437.144 1430.5 437.575 1400.96C437.687 1393.32 437.857 1385.68 438.614 1376.96C439.713 1375.39 440.198 1374.91 440.683 1374.42Z" fill="#F6EEE7"/>
<path d="M192.019 1609.06C187.273 1609.98 183.77 1608.41 180.736 1604.33C180.087 1600.53 179.978 1597.11 179.975 1591.99C180.627 1583.66 181.173 1577.02 181.719 1570.38C187.806 1570.89 193.894 1571.41 200.757 1572.01C201.155 1579.37 201.676 1586.85 200.102 1593.86C198.936 1599.05 195.042 1603.62 192.019 1609.06Z" fill="#0C0A09"/>
<path d="M474.95 1559.62C477.714 1554.37 481.166 1549.33 485.166 1543.92C490.467 1546.5 495.22 1549.47 499.979 1552.43C504.203 1555.06 508.434 1557.68 513.395 1560.22C512.21 1566.91 508.753 1569.77 501.515 1568.84C496.055 1568.14 490.707 1566.21 485.446 1564.43C482.049 1563.28 478.9 1561.4 474.95 1559.62Z" fill="#0C0A09"/>
<path d="M440.038 1373.88C440.198 1374.9 439.713 1375.39 438.73 1376.05C422.517 1373.47 406.66 1371.34 391.126 1367.79C377.438 1364.67 364.526 1359.15 354.287 1348.91C352.939 1347.56 351.868 1345.93 350.605 1344.36C351.652 1343.77 352.526 1343.13 352.63 1343.24C367.758 1358.96 387.502 1364.4 407.989 1368.11C418.431 1370 428.923 1371.61 440.038 1373.88Z" fill="#5E402B"/>
<path d="M420.951 1509.01C424.579 1503.88 428.207 1498.75 432.726 1493.64C433.618 1493.66 434.358 1494.3 434.358 1494.3C430.732 1499.4 427.106 1504.49 422.59 1509.62C421.701 1509.65 420.951 1509.01 420.951 1509.01Z" fill="#5E402B"/>
<path d="M422.14 1511.94C421.174 1512.93 420.294 1513.4 418.924 1513.94C418.94 1512.56 419.447 1511.1 420.452 1509.32C420.951 1509.01 421.701 1509.65 422.046 1510C422.336 1510.7 422.281 1511.06 422.14 1511.94Z" fill="#5E402B"/>
<path d="M433.29 1493.29C433.677 1491.94 434.391 1490.95 435.708 1489.77C436.311 1489.57 436.345 1489.65 436.389 1489.65C436.095 1490.92 435.756 1492.2 434.887 1493.89C434.358 1494.3 433.617 1493.65 433.29 1493.29Z" fill="#5E402B"/>
<path d="M1532.75 1685.95C1532 1511.88 1531.98 1337.82 1532.08 1163.77C1532.08 1156.86 1533.33 1149.96 1533.74 1143.04C1533.93 1139.75 1534.24 1136.19 1533.22 1133.18C1531.24 1127.36 1532.5 1122.8 1537.33 1118.36C1537.97 1306.71 1537.98 1495.4 1537.98 1685.02C1536.47 1685.96 1534.98 1685.96 1532.75 1685.95Z" fill="#F6EEE7"/>
<path d="M1282.75 1685.95C1281.93 1682.42 1282.38 1679.21 1287.24 1678.1C1287.96 1680.12 1287.98 1682.24 1287.98 1685.16C1286.47 1685.96 1284.98 1685.96 1282.75 1685.95Z" fill="#F6EEE8"/>
<path d="M1416.98 1032.05C1410.49 1030.16 1404.82 1026.68 1398.63 1031.28C1397.72 1031.96 1396.07 1031.8 1394.78 1031.76C1376.62 1031.2 1358.46 1030.7 1340.31 1029.96C1331.76 1029.61 1323.16 1027.8 1314.71 1028.42C1306.23 1029.05 1298.82 1027.77 1291.77 1021.9C1290.97 1012.3 1277.03 1005.06 1268.62 1011.34C1266.94 1012.59 1266.84 1015.95 1266 1019.16C1261.14 1017.95 1256.28 1015.92 1250.65 1013.11C1249.36 1011.11 1248.95 1009.83 1248.3 1008.69C1241.65 996.923 1235.08 985.113 1228.23 973.465C1225.09 968.132 1221.4 963.13 1217.93 957.251C1217.62 955.573 1217.48 954.554 1217.05 953.683C1195.46 910.577 1174.06 867.372 1152.09 824.464C1146.2 812.976 1139.16 801.949 1131.54 791.517C1122.21 778.736 1111 767.916 1094.3 765.025C1079.27 762.422 1064.32 763.492 1049.82 767.321C1024.78 773.937 999.933 781.346 975.118 788.803C945.198 797.794 915.402 807.195 885.54 816.381C882.16 817.421 878.684 819.612 875.334 816.232C884.347 797.397 893.36 778.562 902.647 759.032C911.332 740.866 919.742 723.395 928.096 705.21C932.128 698.088 936.616 691.896 940.193 685.216C943.963 678.179 948.97 674.917 957.174 673.6C982.131 669.593 1006.79 663.722 1031.75 659.745C1064.6 654.511 1097.63 650.396 1130.59 645.775C1133.55 645.36 1136.49 644.762 1140.94 643.983C1148.45 644.479 1151.01 640.691 1151.8 635.763C1152.68 630.243 1152.7 624.586 1153.58 618.37C1156.29 616.372 1158.36 614.588 1160.77 613.679C1175.21 608.232 1189.73 602.985 1204.79 597.93C1209 600.001 1211.77 598.763 1214.54 595.657C1215.54 595.089 1216.01 594.561 1217.19 594.078C1220.8 594.001 1223.63 593.772 1225.08 590.184C1226.51 589.969 1227.31 589.764 1228.77 589.557C1231.77 587.988 1234.1 586.423 1237.04 584.678C1238.03 584.325 1238.41 584.15 1239.45 583.97C1244.25 583.015 1247.45 581.17 1247.86 575.68C1251.02 572.935 1253.95 570.951 1256.56 568.613C1259.07 566.366 1261.25 563.752 1264.06 560.961C1266.55 560.017 1268.37 559.305 1267.61 556.472C1269.56 554.532 1270.67 552.789 1272.31 550.858C1274.28 549.815 1275.72 548.96 1277.91 548.069C1280.5 546.799 1282.35 545.565 1284.68 544.189C1286.14 543.74 1287.1 543.433 1288.67 543.103C1290.05 542.822 1290.82 542.563 1291.89 542.479C1292.83 542.479 1293.48 542.304 1294.77 542.151C1300.43 541.318 1301.19 538.162 1299.88 533.89C1321.4 524.274 1342.81 514.421 1364.45 505.1C1396.5 491.293 1427.86 476.158 1458.89 458.624C1461.7 460.658 1463.49 462.598 1465.45 464.355C1475.22 473.122 1485.41 471.486 1492.38 460.082C1497.66 455.258 1503.13 450.622 1508.19 445.576C1524.9 428.924 1541.46 412.115 1558.11 395.411C1558.76 394.76 1559.86 394.562 1561.63 393.75C1563.79 396.838 1566.08 399.914 1568.17 403.118C1581.26 423.207 1592.4 444.324 1601.16 466.653C1602.72 470.626 1603.35 474.966 1604.37 480.713C1603.24 486.127 1602.36 490.039 1601.02 493.789C1586.34 534.856 1571.89 576.006 1556.8 616.923C1522.95 708.752 1488.71 800.44 1454.79 892.242C1450.08 904.98 1446.25 918.042 1441.67 931.399C1438.47 940.584 1439.11 943.847 1446.75 947.03C1453.39 949.8 1460.75 950.879 1467.63 953.404C1465.25 961.028 1463.15 967.998 1460.75 974.868C1457.82 983.293 1454.65 991.635 1451.58 1000.01C1449.86 1002.43 1447.91 1004.72 1446.45 1007.29C1439.81 1018.99 1430.87 1027.93 1416.98 1032.05Z" fill="#F6EEE7"/>
<path d="M1442.02 930.951C1446.25 918.039 1450.08 904.977 1454.79 892.24C1488.71 800.437 1522.95 708.749 1556.8 616.921C1571.89 576.004 1586.34 534.853 1601.02 493.786C1602.36 490.037 1603.24 486.124 1604.51 481.559C1627.62 475.957 1650.56 471.067 1673.5 466.215C1691.91 462.322 1710.34 458.475 1729.46 454.236C1753.78 453.849 1777.4 454.152 1801.01 453.751C1849.59 452.927 1898.15 451.406 1946.73 450.872C1961.63 450.709 1976.56 452.771 1991.46 453.949C1994.08 454.156 1996.69 454.913 1999.24 455.617C2022.58 462.052 2033.54 475.319 2033.22 499.597C2033.01 514.819 2031.29 530.148 2028.8 545.189C2019.83 599.375 2004.56 652.112 1991.03 705.243C1988.73 714.254 1986.33 723.239 1982.88 732.94C1972.58 733.131 1963.38 732.676 1954.18 732.092C1936.44 730.963 1918.7 729.761 1900.13 728.513C1889.76 727.544 1880.61 728.901 1871.98 733.228C1874.59 722.672 1877.1 712.088 1879.84 701.564C1891.85 655.417 1903.92 609.287 1915.98 563.154C1916.48 561.234 1917.1 559.346 1918.43 556.462C1925.74 548.885 1932.71 542.658 1937.82 534.667C1929.95 540.309 1921.86 545.65 1917.22 554.586C1875.98 556.857 1834.7 558.668 1793.5 561.558C1764.95 563.561 1736.51 567.187 1707.99 569.779C1700.96 570.418 1695.89 573.601 1692.63 579.4C1689.38 585.184 1686.52 591.253 1684.12 597.441C1642.96 703.65 1604.86 810.945 1570.35 919.505C1569.35 922.637 1567.86 925.612 1565.34 929.274C1534.51 929.201 1504.95 928.514 1474.64 927.71C1463.04 926.614 1452.09 924.608 1442.02 930.951Z" fill="#E8433A"/>
<path d="M1492.15 459.365C1485.41 471.483 1475.22 473.119 1465.45 464.352C1463.49 462.595 1461.7 460.655 1459.56 458.26C1466.17 452.918 1473.05 448.117 1480.33 442.699C1487.3 445.692 1489.99 451.924 1492.15 459.365Z" fill="#0C0A09"/>
<path d="M1556.94 305.323C1560.36 301.399 1564.28 297.893 1568.19 294.387C1568.59 294.537 1568.99 294.687 1569.39 294.838C1567.48 299.93 1565.56 305.022 1563.43 310.812C1561.28 309.588 1559.36 307.664 1556.94 305.323Z" fill="#0C0A09"/>
<path d="M559.929 1084.58C561.009 1087.35 561.7 1089.95 561.833 1092.58C562.426 1104.26 558.922 1107.84 546.274 1108.04C541.164 1103.56 537.854 1098.71 540.04 1091.33C546.576 1088.62 552.93 1086.52 559.929 1084.58Z" fill="#0C0A09"/>
<path d="M468.093 1117.85C468.685 1118.56 468.555 1118.95 468.045 1119.83C462.98 1120.31 458.295 1120.31 453.611 1120.31C453.601 1119.54 453.591 1118.77 453.581 1118C458.001 1116.15 462.693 1116.9 468.093 1117.85Z" fill="#5E402B"/>
<path d="M1263.57 561.298C1261.25 563.75 1259.07 566.364 1256.56 568.611C1253.95 570.949 1251.02 572.933 1247.33 575.286C1242.31 572.775 1238.32 569.809 1234.01 567.404C1231.09 565.771 1227.67 564.678 1225.32 569.144C1224.9 569.156 1224.06 569.156 1223.46 568.861C1218.42 567.741 1214.87 568.435 1213.65 573.959C1213.28 574.161 1212.46 574.379 1211.7 574.271C1207.96 574.058 1204.68 573.353 1203.29 577.706C1201.9 578.485 1201.09 579.205 1199.55 580.021C1194.54 582.149 1195.68 585.492 1197.33 588.317C1199.27 591.643 1201.89 594.57 1204.22 597.67C1189.73 602.983 1175.21 608.23 1160.77 613.677C1158.36 614.586 1156.29 616.37 1152.97 617.905C1144.61 620.272 1137.35 622.483 1130.1 624.694C1129.71 614.453 1128.2 604.101 1129.2 593.996C1130.83 577.497 1134.1 561.16 1137.13 543.532C1139.89 541.039 1142.16 539.694 1144.51 538.513C1162.26 529.595 1180.06 520.793 1197.73 511.716C1200.18 510.456 1201.96 507.886 1204.05 505.922C1204.05 505.922 1203.98 505.981 1204.64 506.501C1207.54 506.816 1209.78 506.611 1212.01 506.405C1207.65 512.794 1202.21 518.607 1200.48 526.998C1210.4 530.323 1214.96 522.34 1222.41 518.162C1224.46 517.296 1225.29 516.684 1226.12 516.072C1226.12 516.072 1226 516.003 1226.66 516.042C1228.11 515.868 1228.91 515.656 1229.71 515.444C1233.46 516.285 1237.16 517.63 1240.94 517.878C1256 518.865 1270.46 522.463 1284.58 527.478C1288.26 528.783 1291.46 531.413 1295.82 534.304C1298.39 538.399 1296.17 539.165 1293.79 539.631C1291.89 540.002 1289.94 540.107 1287.1 540.217C1279.32 540.194 1272.45 540.284 1265.58 540.374C1265.56 541.31 1265.55 542.247 1265.54 543.183C1271.75 543.565 1277.97 543.947 1284.19 544.329C1282.35 545.563 1280.5 546.797 1277.29 547.961C1270.66 547.775 1265.32 547.222 1260.66 551.044C1264.37 551.044 1268.08 551.044 1271.79 551.044C1270.67 552.787 1269.56 554.53 1267.04 556.819C1258.57 559.129 1251.49 560.894 1244.41 562.659C1244.57 563.382 1244.73 564.105 1244.89 564.828C1251.11 563.651 1257.34 562.474 1263.57 561.298Z" fill="#FDDAAE"/>
<path d="M1203.32 505.859C1201.96 507.888 1200.18 510.458 1197.73 511.718C1180.06 520.795 1162.26 529.597 1144.51 538.515C1142.16 539.696 1139.89 541.041 1137.11 542.614C1112.16 552.296 1087.91 562.352 1063.14 570.898C1023.93 584.427 984.373 596.961 944.941 609.857C942.443 610.674 939.78 610.988 936.409 611.303C936.018 610.244 936.413 609.417 937.109 608.224C966.17 598.83 995.216 590.612 1023.62 580.577C1062.36 566.892 1100.61 551.823 1139.58 536.888C1156.81 528.361 1173.53 520.319 1190.22 512.209C1194.39 510.181 1198.46 507.939 1203.32 505.859Z" fill="#5E402B"/>
<path d="M1130.11 625.416C1137.35 622.483 1144.61 620.272 1152.48 618.523C1152.7 624.584 1152.68 630.241 1151.8 635.761C1151.01 640.69 1148.45 644.478 1141.75 643.666C1135.28 639.133 1130.48 634.027 1130.11 625.416Z" fill="#0C0A09"/>
<path d="M874.833 816.624C878.683 819.612 882.16 817.421 885.54 816.381C915.401 807.195 945.198 797.794 975.118 788.803C999.933 781.346 1024.78 773.936 1049.82 767.321C1064.32 763.492 1079.27 762.422 1094.3 765.024C1111 767.916 1122.21 778.735 1131.54 791.517C1139.16 801.949 1146.2 812.976 1152.09 824.464C1174.06 867.372 1195.46 910.577 1217.05 953.683C1217.48 954.554 1217.62 955.573 1217.34 957.549C1211.64 963.203 1206.87 968.331 1201.3 972.363C1186.35 983.188 1171 993.453 1155.96 1004.16C1152.9 1006.34 1150.52 1009.48 1147.11 1012.05C1140.87 1015.46 1135.35 1018.98 1129.82 1022.51C1125.42 1025.31 1122.62 1029.28 1121.24 1034.29C1119.14 1031.52 1116.45 1029.02 1115.02 1025.94C1097.23 987.645 1079.62 949.271 1061.98 910.913C1057.56 901.32 1053.18 891.711 1048.46 881.39C1004.36 898.309 961.866 917.057 917.922 935.98C906.273 940.152 896.133 944.292 885.929 948.268C864.343 956.68 842.325 962.706 818.779 960.106C817.492 959.964 816.131 960.489 814.804 960.703C814.789 961.422 814.774 962.141 814.759 962.86C817.84 963.306 820.908 963.957 824.005 964.164C839.863 965.221 855.281 962.53 870.143 957.357C885.504 952.011 900.554 945.771 915.74 939.923C946.149 978.139 976.341 1016.53 1007.05 1054.51C1026.29 1078.3 1035.81 1105.6 1040.09 1135.51C1044.42 1165.72 1050.09 1195.74 1054.99 1225.87C1060.1 1257.3 1065 1288.77 1069.05 1321.07C1057.91 1322.83 1047.7 1323.63 1037.51 1324.67C1020.11 1326.43 1002.72 1328.33 984.528 1330.29C969.515 1331.5 955.799 1333.89 945.448 1345.07C944.422 1338.55 942.938 1332.06 942.452 1325.5C940.757 1302.64 939.638 1279.74 937.857 1256.89C936.413 1238.35 934.382 1219.86 932.519 1201.35C931.189 1188.14 928.674 1174.96 928.528 1161.75C928.294 1140.55 918.301 1124.71 904.713 1109.73C868.746 1070.08 833.242 1030.01 797.575 990.09C786.498 977.692 775.491 965.232 764.097 952.175C764.853 948.864 765.641 945.982 767.134 943.529C772.88 934.085 773.846 924.59 769.257 914.267C765.102 904.922 761.764 895.215 757.918 884.941C758.148 883.683 758.813 883.177 758.863 882.617C759.874 871.231 760.814 859.839 761.432 847.691C795.498 838.849 829.923 830.857 864.271 822.543C867.86 821.674 870.989 818.904 874.833 816.624Z" fill="#B7AD7A"/>
<path d="M699.622 927.602C703.362 923.869 707.123 920.156 710.837 916.397C715.726 911.449 718.246 905.686 717.878 898.516C717.572 892.572 717.975 886.583 718.239 880.621C718.316 878.9 719 877.206 721.167 875.66C721.305 877.707 721.637 879.763 721.543 881.8C721.297 887.094 720.182 892.44 720.65 897.655C721.539 907.57 717.512 914.995 710.552 921.338C707.863 923.789 705.065 926.121 701.361 928.434C700.144 928.108 699.883 927.855 699.622 927.602Z" fill="#5E402B"/>
<path d="M619.923 979.94C634.485 970.401 649.424 961.285 664.401 952.233C664.765 952.013 665.557 952.505 667.879 953.131C652.355 963.261 637.628 972.394 621.713 980.931C620.825 980.933 620.565 980.652 619.923 979.94Z" fill="#5E402B"/>
<path d="M700.779 928.755C696.21 932.961 691.268 936.771 685.352 940.464C684.115 940.083 683.852 939.817 683.589 939.552C688.509 935.712 693.429 931.872 698.986 927.816C699.883 927.853 700.144 928.105 700.779 928.755Z" fill="#5E402B"/>
<path d="M679.312 945.294C675.693 947.7 672.074 950.107 668.455 952.513C667.996 951.791 667.537 951.068 667.078 950.345C670.147 948.233 673.215 946.12 677.362 944.242C678.731 944.749 679.021 945.021 679.312 945.294Z" fill="#5E402B"/>
<path d="M724.027 860.012C723.819 863.329 723.265 866.326 722.421 870.895C718.766 866.019 721.743 863.183 722.551 859.657C722.961 859.087 723.681 859.692 724.027 860.012Z" fill="#5E402B"/>
<path d="M678.035 944.036C679.221 942.354 680.812 941.112 682.996 939.711C683.851 939.817 684.114 940.083 684.751 940.771C683.528 942.366 681.932 943.538 679.823 945.001C679.021 945.02 678.731 944.747 678.035 944.036Z" fill="#5E402B"/>
<path d="M1288 540.33C1289.94 540.107 1291.89 540.003 1293.79 539.632C1296.17 539.166 1298.39 538.399 1296.47 534.555C1297.01 533.927 1297.83 533.918 1299.27 533.898C1301.19 538.161 1300.43 541.317 1294.13 542.099C1292.43 542.118 1292.01 542.211 1291.59 542.303C1290.82 542.562 1290.05 542.82 1288.69 542.402C1288.06 541.261 1288.03 540.796 1288 540.33Z" fill="#5E402B"/>
<path d="M1212.46 506.12C1209.78 506.611 1207.54 506.817 1204.6 506.526C1206.71 505.321 1209.53 504.613 1213.13 503.973C1213.59 504.639 1213.25 505.236 1212.46 506.12Z" fill="#5E402B"/>
<path d="M1229.75 514.902C1228.91 515.659 1228.11 515.871 1226.69 516.101C1226.78 514.768 1227.48 513.417 1228.19 512.066C1228.72 512.83 1229.25 513.594 1229.75 514.902Z" fill="#5E402B"/>
<path d="M1225.6 515.738C1225.29 516.684 1224.46 517.296 1223.03 517.813C1223.32 516.947 1224.2 516.176 1225.6 515.738Z" fill="#5E402B"/>
<path d="M180.871 1570.33C181.172 1577.02 180.626 1583.66 179.841 1591.15C171.935 1588.37 175.401 1582.34 176.74 1577.09C173.666 1575.11 170.988 1573.38 168.167 1571.03C172.024 1570.37 176.024 1570.33 180.871 1570.33Z" fill="#F6EEE7"/>
<path d="M159.329 1570.19C159.34 1571.25 158.695 1572.17 158.05 1573.09C157.433 1572.51 156.815 1571.92 156.105 1570.8C156.899 1570.19 157.786 1570.13 159.329 1570.19Z" fill="#F6EEE7"/>
<path d="M146.016 1581.28C142.911 1579.66 139.806 1578.03 134.76 1575.4C140.359 1573.59 143.035 1575.88 146.38 1578.61C146.621 1580.32 146.318 1580.8 146.016 1581.28Z" fill="#5E402B"/>
<path d="M145.908 1581.87C146.318 1580.8 146.621 1580.32 147.018 1579C147.666 1577.25 148.22 1576.36 149.233 1575.18C149.388 1578.57 151.744 1582.81 146.661 1585.82C145.853 1584.83 145.826 1583.64 145.908 1581.87Z" fill="#F6EEE7"/>
<path d="M143.62 1596.72C148.218 1596.46 149.131 1599.79 149.738 1604.12C146.709 1603.18 143.481 1601.67 143.62 1596.72Z" fill="#F6EEE7"/>
<path d="M1541.59 282.203C1544.91 282.36 1546.22 283.828 1544.46 285.882C1541.6 289.225 1538.54 289.11 1535.52 284.544C1537.56 283.659 1539.21 282.947 1541.59 282.203Z" fill="#F6EEE7"/>
<path d="M1552.42 263.156C1550.65 262.363 1549.43 261.914 1548 261.386C1552.98 259.22 1552.98 259.22 1558.35 266.463C1555.35 264.806 1554.16 264.152 1552.42 263.156Z" fill="#5E402B"/>
<path d="M1547.24 271.008C1545.92 270.539 1545.1 269.554 1544.29 268.568C1545.26 267.995 1546.23 267.421 1547.2 266.848C1547.38 268.062 1547.57 269.277 1547.24 271.008Z" fill="#5E402B"/>
<path d="M471.047 1015.7C473.021 1015.97 474.274 1016.1 475.841 1016.26C470.936 1020.3 470.936 1020.3 465.905 1013.93C468.115 1014.74 469.221 1015.15 471.047 1015.7Z" fill="#5E402B"/>
<path d="M439.369 1012.14C441.817 1012.28 443.687 1012.77 445.557 1013.25C445.243 1014.02 444.929 1014.78 444.616 1015.54C442.674 1014.53 440.733 1013.51 439.369 1012.14Z" fill="#5E402B"/>
<path d="M457.347 995.314C456.581 996.613 455.815 997.912 455.049 999.211C454.63 999.056 454.21 998.901 453.791 998.747C454.052 997.269 454.312 995.791 455.519 994.41C456.76 994.776 457.053 995.045 457.347 995.314Z" fill="#5E402B"/>
<path d="M456.063 994.065C457.26 993.186 458.858 992.749 460.457 992.312C459.747 993.124 459.037 993.936 457.837 995.031C457.053 995.045 456.759 994.776 456.063 994.065Z" fill="#5E402B"/>
<path d="M918.529 591.91C918.757 593.5 918.596 594.596 918.435 595.693C917.329 594.824 916.224 593.956 915.118 593.088C916.125 592.531 917.132 591.974 918.529 591.91Z" fill="#5E402B"/>
<path d="M919.84 608.504C917.496 608.192 916 607.881 914.505 607.57C914.526 607.167 914.548 606.763 914.57 606.359C917.963 606.359 921.357 606.359 927.24 606.359C923.628 607.542 922.158 608.024 919.84 608.504Z" fill="#5E402B"/>
<path d="M926.291 589.676C927.021 591.807 927.752 593.938 928.482 596.069C927.788 596.253 927.094 596.437 926.399 596.621C925.987 595.211 925.575 593.801 925.343 591.442C925.779 590.221 926.035 589.948 926.291 589.676Z" fill="#5E402B"/>
<path d="M907.235 587.291C906.601 588.732 905.967 590.173 905.332 591.615C904.969 591.539 904.606 591.463 904.242 591.387C904.358 589.753 904.473 588.12 905.525 586.512C906.719 586.788 906.977 587.039 907.235 587.291Z" fill="#5E402B"/>
<path d="M906.105 586.129C906.934 585.157 908.119 584.59 909.304 584.023C908.993 584.879 908.683 585.736 907.804 586.94C906.977 587.038 906.719 586.787 906.105 586.129Z" fill="#5E402B"/>
<path d="M922.832 586.227C923.814 586.994 924.796 587.762 926.035 589.103C926.035 589.948 925.779 590.221 925.103 590.869C923.838 590.58 922.993 589.915 922.271 588.276C922.54 586.944 922.686 586.585 922.832 586.227Z" fill="#5E402B"/>
<path d="M922.059 587.778C920.112 587.194 918.646 586.144 922.364 585.801C922.686 586.586 922.539 586.944 922.059 587.778Z" fill="#5E402B"/>
<path d="M1176.86 1685.95C1176.31 1681.88 1178.61 1680.04 1183.28 1680.01C1185.29 1681.55 1186.58 1683.11 1187.93 1685.29C1184.57 1685.94 1181.14 1685.96 1176.86 1685.95Z" fill="#F6EEE7"/>
<path d="M1208.8 1685.94C1210.41 1681.27 1211.74 1681.04 1215.85 1685.25C1213.86 1685.93 1211.73 1685.95 1208.8 1685.94Z" fill="#F6EEE7"/>
<path d="M1240.8 1685.94C1242.41 1681.27 1243.74 1681.04 1247.85 1685.25C1245.86 1685.93 1243.73 1685.95 1240.8 1685.94Z" fill="#F6EEE7"/>
<path d="M985.328 1330.17C1002.72 1328.33 1020.11 1326.43 1037.51 1324.66C1047.7 1323.63 1057.91 1322.83 1069 1321.92C1071.9 1331.5 1073.99 1341.07 1075.87 1350.68C1076.76 1355.2 1077.25 1359.8 1077.92 1365.19C1058.2 1368.96 1038.48 1371.87 1018.78 1374.88C1009.59 1376.28 1000.43 1377.85 990.507 1379.63C989.155 1372.43 988.557 1364.95 987.864 1355.68C986.956 1345.98 986.142 1338.08 985.328 1330.17Z" fill="#FDDAAE"/>
<path d="M984.529 1330.29C986.143 1338.08 986.957 1345.98 987.805 1354.74C976.003 1355.69 964.162 1356 952.33 1355.8C945.401 1355.69 944.644 1354.35 945.264 1345.81C955.799 1333.89 969.516 1331.5 984.529 1330.29Z" fill="#0C0A09"/>
<path d="M469.73 1595C467.335 1596.79 464.757 1598.07 460.059 1600.39C461.959 1596.96 462.885 1595.28 464.204 1593.14C466.245 1593.28 467.896 1593.88 469.73 1595Z" fill="#5E402B"/>
<path d="M463.182 1590.93C459.932 1592.55 456.594 1593.69 452.686 1595.02C452.343 1590.93 455.706 1589.98 458.694 1587.91C460.594 1588.51 461.845 1589.48 463.182 1590.93Z" fill="#5E402B"/>
<path d="M1475.39 927.828C1504.95 928.515 1534.51 929.201 1564.99 929.903C1565.26 933.452 1564.98 937.1 1563.91 940.501C1557.1 962.292 1550.07 984.016 1543.2 1005.79C1541.62 1010.83 1540.41 1015.98 1538.55 1021.68C1522.5 1022.24 1506.92 1021.95 1491.35 1022.28C1485.61 1022.4 1481.83 1020.5 1479.31 1015.54C1478.71 1014.36 1477.62 1013.41 1477.16 1012.21C1474.16 1004.3 1468.24 1001.25 1460.1 1001.43C1457.81 1001.48 1455.51 1000.79 1452.4 1000.22C1454.65 991.633 1457.82 983.291 1460.76 974.866C1463.15 967.996 1465.25 961.026 1468 952.73C1470.81 943.516 1473.1 935.672 1475.39 927.828Z" fill="#F78E7C"/>
<path d="M1900.96 728.59C1918.7 729.761 1936.44 730.963 1954.18 732.092C1963.38 732.676 1972.58 733.131 1982.59 733.647C1982.35 740.584 1981.3 747.518 1980.11 755.249C1977.02 756.543 1974.09 757.19 1971.13 757.51C1960.2 758.694 1954.21 764.567 1953.88 775.68C1953.74 780.169 1950.88 781.994 1947.34 783.505C1928.05 791.735 1908.77 800 1888.73 808.324C1889.54 797.309 1891.1 786.223 1892.68 775.141C1893.24 771.222 1893.84 767.31 1894.76 761.876C1897.05 749.768 1899 739.179 1900.96 728.59Z" fill="#F78E7C"/>
<path d="M1900.13 728.516C1899 739.181 1897.05 749.77 1894.75 760.984C1891.77 761.347 1889.12 761.21 1886.5 760.8C1870 758.213 1865.37 750.116 1871.6 733.717C1880.61 728.904 1889.76 727.547 1900.13 728.516Z" fill="#0C0A09"/>
<path d="M1917.33 554.958C1921.86 545.651 1929.95 540.31 1937.82 534.668C1932.71 542.659 1925.74 548.886 1918.55 555.71C1917.92 555.937 1917.44 555.33 1917.33 554.958Z" fill="#5E402B"/>
<path d="M1147.83 1012.17C1150.53 1009.48 1152.9 1006.34 1155.96 1004.16C1171 993.451 1186.35 983.185 1201.3 972.36C1206.87 968.329 1211.64 963.2 1217.37 958.273C1221.4 963.127 1225.09 968.129 1228.23 973.461C1235.08 985.11 1241.65 996.92 1248.3 1008.68C1248.95 1009.83 1249.36 1011.11 1249.93 1013.01C1236.97 1026.48 1224.04 1039.32 1210.94 1051.98C1203.31 1059.37 1195.41 1066.47 1187.01 1073.95C1177.51 1068.05 1175.47 1057.33 1169.67 1049.12C1166.51 1044.66 1163.5 1040.1 1159.99 1034.7C1155.65 1026.61 1151.74 1019.39 1147.83 1012.17Z" fill="#FDDAAE"/>
<path d="M1147.11 1012.05C1151.74 1019.39 1155.65 1026.61 1159.26 1034.44C1149.85 1040.38 1140.18 1043.4 1129.5 1042.54C1125.18 1042.19 1121.5 1041.21 1121.36 1035.05C1122.62 1029.28 1125.42 1025.31 1129.82 1022.51C1135.35 1018.98 1140.87 1015.46 1147.11 1012.05Z" fill="#0C0A09"/>
<path d="M916 939.404C900.554 945.77 885.504 952.009 870.143 957.355C855.281 962.528 839.863 965.219 824.005 964.162C820.908 963.956 817.84 963.304 814.759 962.858C814.774 962.139 814.789 961.42 814.804 960.702C816.131 960.487 817.492 959.962 818.779 960.104C842.325 962.704 864.343 956.679 885.929 948.267C896.133 944.29 906.273 940.151 917.192 936.047C917.381 936.968 916.82 937.928 916 939.404Z" fill="#5E402B"/>
<path d="M1279.34 1031.89C1279.39 1032.33 1278.87 1032.89 1277.77 1033.54C1277.71 1033.09 1278.25 1032.56 1279.34 1031.89Z" fill="#E8D9CD"/>
<path d="M1474.64 927.711C1473.1 935.673 1470.81 943.517 1468.15 952.032C1460.75 950.878 1453.39 949.799 1446.75 947.029C1439.1 943.845 1438.47 940.583 1441.67 931.398C1452.09 924.609 1463.04 926.615 1474.64 927.711Z" fill="#0C0A09"/>
<path d="M1225.74 569.134C1227.67 564.68 1231.09 565.772 1234.01 567.406C1238.32 569.811 1242.31 572.776 1246.96 575.894C1247.45 581.169 1244.25 583.015 1239.3 583.283C1234.23 578.112 1229.99 573.623 1225.74 569.134Z" fill="#F78E7C"/>
<path d="M1214.03 573.757C1214.87 568.436 1218.42 567.742 1223.17 569.381C1227.79 575.082 1232.12 579.969 1236.44 584.856C1234.1 586.422 1231.77 587.988 1228.56 588.947C1223.13 583.479 1218.58 578.618 1214.03 573.757Z" fill="#F78E7C"/>
<path d="M1203.86 577.648C1204.68 573.355 1207.96 574.06 1211.93 574.859C1216.77 580.433 1220.61 585.313 1224.46 590.194C1223.63 593.772 1220.8 594.001 1216.91 593.454C1211.89 587.74 1207.88 582.694 1203.86 577.648Z" fill="#F78E7C"/>
<path d="M1204.79 597.928C1201.89 594.57 1199.27 591.644 1197.33 588.317C1195.68 585.493 1194.54 582.15 1200.09 580.387C1205.58 585.669 1209.79 590.683 1214 595.696C1211.77 598.762 1209 600 1204.79 597.928Z" fill="#F78E7C"/>
<path d="M1287.1 540.218C1288.03 540.796 1288.06 541.262 1288.08 542.426C1287.1 543.433 1286.14 543.74 1284.69 544.189C1277.97 543.948 1271.75 543.566 1265.54 543.184C1265.55 542.248 1265.56 541.312 1265.58 540.376C1272.45 540.286 1279.32 540.196 1287.1 540.218Z" fill="#51784E"/>
<path d="M1264.06 560.959C1257.34 562.474 1251.11 563.651 1244.89 564.828C1244.73 564.105 1244.57 563.382 1244.41 562.659C1251.49 560.894 1258.57 559.129 1266.21 557.016C1268.37 559.303 1266.55 560.015 1264.06 560.959Z" fill="#5E402B"/>
<path d="M1214.54 595.656C1209.79 590.683 1205.58 585.67 1200.82 580.291C1201.09 579.206 1201.91 578.486 1203.29 577.707C1207.88 582.694 1211.89 587.739 1216.2 593.409C1216.01 594.561 1215.54 595.088 1214.54 595.656Z" fill="#5E402B"/>
<path d="M1225.08 590.184C1220.61 585.314 1216.77 580.433 1212.69 574.967C1212.46 574.381 1213.28 574.164 1213.65 573.961C1218.58 578.619 1223.13 583.48 1227.9 588.95C1227.31 589.764 1226.51 589.969 1225.08 590.184Z" fill="#5E402B"/>
<path d="M1237.04 584.676C1232.12 579.968 1227.79 575.08 1223.76 569.674C1224.06 569.156 1224.9 569.156 1225.32 569.145C1229.99 573.622 1234.23 578.111 1238.63 583.287C1238.41 584.149 1238.03 584.323 1237.04 584.676Z" fill="#5E402B"/>
<path d="M1272.31 550.857C1268.08 551.045 1264.37 551.045 1260.66 551.045C1265.32 547.223 1270.66 547.776 1276.54 547.998C1275.72 548.959 1274.28 549.814 1272.31 550.857Z" fill="#5E402B"/>
<path d="M1291.89 542.479C1292.01 542.212 1292.43 542.119 1293.48 542.078C1293.48 542.304 1292.83 542.479 1291.89 542.479Z" fill="#51784E"/>
</g>
<defs>
<clipPath id="clip0_1609_4179">
<rect width="2400" height="1800" fill="white"/>
</clipPath>
</defs>
</svg>
