<svg width="64" height="64" viewBox="0 0 64 64" fill="none" xmlns="http://www.w3.org/2000/svg">
<g clip-path="url(#clip0_852_796)">
<mask id="mask0_852_796" style="mask-type:luminance" maskUnits="userSpaceOnUse" x="0" y="0" width="64" height="64">
<path d="M0 0H64V64H0V0Z" fill="white"/>
</mask>
<g mask="url(#mask0_852_796)">
<path d="M32.0012 64C43.4912 64 52.8012 62.2 52.8012 60C52.8012 57.8 43.4912 56 32.0012 56C20.5112 56 11.2012 57.8 11.2012 60C11.2012 62.2 20.5112 64 32.0012 64Z" fill="#C6CBDE"/>
<path d="M38.7301 32.981C38.7301 32.981 47.7701 20.111 50.3001 14.421C53.8001 6.45099 51.7901 2.56099 50.0801 1.80099C48.3801 1.04099 44.1201 2.20099 40.6201 10.161C38.0301 16.011 34.0801 31.191 34.0801 31.191" fill="#F28C8C"/>
<path d="M38.7301 32.981C38.7301 32.981 47.7701 20.111 50.3001 14.421C53.8001 6.45099 51.7901 2.56099 50.0801 1.80099C48.3801 1.04099 44.1201 2.20099 40.6201 10.161C38.0301 16.011 34.0801 31.191 34.0801 31.191" stroke="#0E101A" stroke-miterlimit="10" stroke-linecap="round" stroke-linejoin="round"/>
<path d="M37.1201 30.9417C37.0009 30.9022 36.8907 30.8394 36.7958 30.7571C36.701 30.6747 36.6234 30.5744 36.5676 30.4619C36.5118 30.3493 36.4789 30.2269 36.4708 30.1015C36.4626 29.9762 36.4794 29.8505 36.5201 29.7317C37.6401 26.1317 41.7801 13.0317 43.0501 10.1017C45.0901 5.48166 47.7401 4.35166 48.7501 4.78166C49.7501 5.24166 50.7201 7.94166 48.6801 12.5717C47.4001 15.4617 40.1301 27.5117 38.3101 30.5217C38.0601 30.9217 37.5801 31.1017 37.1201 30.9417Z" fill="#F8C6DA" stroke="#0E101A" stroke-miterlimit="10" stroke-linecap="round" stroke-linejoin="round"/>
<path d="M32.6803 31.5506L28.1203 33.5906C28.1203 33.5906 27.5403 32.6206 26.6603 31.0406C24.726 27.6425 22.8491 24.212 21.0303 20.7506C20.8934 20.4849 20.8514 20.1803 20.9114 19.8874C20.9715 19.5946 21.1299 19.331 21.3603 19.1406C22.0239 18.5797 22.798 18.1646 23.6324 17.9221C24.4667 17.6796 25.3427 17.6152 26.2036 17.7331C27.0645 17.8509 27.8909 18.1484 28.6294 18.6063C29.3679 19.0641 30.0019 19.672 30.4903 20.3906C31.2943 24.0957 32.0244 27.8164 32.6803 31.5506Z" fill="#F28C8C" stroke="#0E101A" stroke-miterlimit="10" stroke-linecap="round" stroke-linejoin="round"/>
<path d="M44.0499 31.2207H19.9499L16.3499 56.8107C16.1299 58.3107 16.8399 59.7407 18.2999 60.1607C20.6099 60.8207 24.9499 61.6007 32.5499 61.6007C40.2799 61.6007 44.2599 60.8007 46.2299 60.1207C47.4099 59.7207 47.8999 58.5407 47.7299 57.3007L44.0499 31.2207Z" fill="#4F46E5" stroke="#0E101A" stroke-miterlimit="10" stroke-linecap="round" stroke-linejoin="round"/>
<path d="M45.0409 38.7607L44.0409 31.2207H19.9609L18.9609 38.7607H45.0609H45.0409Z" fill="#F8C6DA" stroke="#0E101A" stroke-miterlimit="10" stroke-linecap="round" stroke-linejoin="round"/>
<path d="M51.5812 30H12.4212C12.0976 30 11.7873 30.1285 11.5585 30.3573C11.3297 30.5861 11.2012 30.8964 11.2012 31.22C11.2012 31.5436 11.3297 31.8539 11.5585 32.0827C11.7873 32.3115 12.0976 32.44 12.4212 32.44H51.5812C51.9047 32.44 52.215 32.3115 52.4438 32.0827C52.6726 31.8539 52.8012 31.5436 52.8012 31.22C52.8012 30.8964 52.6726 30.5861 52.4438 30.3573C52.215 30.1285 51.9047 30 51.5812 30Z" fill="#4F46E5" stroke="#0E101A" stroke-miterlimit="10" stroke-linecap="round" stroke-linejoin="round"/>
<path d="M30.49 20.4207C29.49 23.8207 28.42 27.1407 27.51 29.2407C27.23 29.8807 26.96 30.4907 26.66 31.0407C23.4 37.4207 19.72 38.3707 18.11 37.6707C16.37 36.9407 14.33 33.0407 17.77 25.0407C18.29 23.8607 19.08 22.3607 19.99 20.7207C20.5222 19.8158 21.2755 19.0609 22.1793 18.5267C23.083 17.9925 24.1076 17.6966 25.157 17.6666C26.2064 17.6366 27.2462 17.8736 28.179 18.3553C29.1117 18.837 29.9069 19.5477 30.49 20.4207Z" fill="#F28C8C" stroke="#0E101A" stroke-miterlimit="10" stroke-linecap="round" stroke-linejoin="round"/>
<path d="M6.63078 21.6008C6.56078 21.6008 6.51078 21.5408 6.51078 21.4708C6.62078 17.2208 5.16078 15.6808 0.920781 15.5708C0.850781 15.5708 0.800781 15.5008 0.800781 15.4308C0.800781 15.3608 0.860781 15.3108 0.930781 15.3108C5.18078 15.4208 6.72078 13.9608 6.83078 9.72078C6.83078 9.65078 6.90078 9.60078 6.97078 9.60078C7.04078 9.60078 7.09078 9.66078 7.09078 9.73078C6.98078 13.9808 8.44078 15.5208 12.6808 15.6308C12.7508 15.6308 12.8008 15.6808 12.8008 15.7608C12.8008 15.8308 12.7408 15.8808 12.6708 15.8808C8.42078 15.7708 6.88078 17.2208 6.77078 21.4708C6.75078 21.5508 6.70078 21.6008 6.63078 21.6008ZM19.8708 10.4008C19.8108 10.4008 19.7708 10.3508 19.7708 10.3008C19.8608 6.90078 18.6908 5.67078 15.3008 5.57078C15.2408 5.57078 15.2008 5.52078 15.2008 5.47078C15.2008 5.41078 15.2508 5.37078 15.3008 5.37078C18.7008 5.46078 19.9308 4.29078 20.0308 0.900781C20.0308 0.840781 20.0808 0.800781 20.1308 0.800781C20.1908 0.800781 20.2308 0.850781 20.2308 0.900781C20.1408 4.30078 21.3108 5.53078 24.7008 5.62078C24.7608 5.62078 24.8008 5.67078 24.8008 5.72078C24.8008 5.78078 24.7508 5.82078 24.7008 5.82078C21.3008 5.73078 20.0708 6.90078 19.9708 10.2908C19.9708 10.3608 19.9208 10.4008 19.8708 10.4008ZM57.0308 52.0008C56.9608 52.0008 56.9108 51.9408 56.9108 51.8708C57.0208 47.6208 55.5608 46.0808 51.3208 45.9708C51.2508 45.9708 51.2008 45.9008 51.2008 45.8308C51.2008 45.7608 51.2608 45.7108 51.3308 45.7108C55.5808 45.8208 57.1208 44.3608 57.2308 40.1208C57.2308 40.0508 57.3008 40.0008 57.3708 40.0008C57.4408 40.0008 57.4908 40.0608 57.4908 40.1308C57.3808 44.3808 58.8408 45.9208 63.0808 46.0308C63.1508 46.0308 63.2008 46.0808 63.2008 46.1608C63.2008 46.2308 63.1408 46.2808 63.0708 46.2808C58.8208 46.1708 57.2808 47.6208 57.1708 51.8708C57.1508 51.9508 57.1008 52.0008 57.0308 52.0008Z" fill="white" stroke="#4F46E5" stroke-miterlimit="10" stroke-linecap="round" stroke-linejoin="round"/>
</g>
</g>
<defs>
<clipPath id="clip0_852_796">
<rect width="64" height="64" fill="white"/>
</clipPath>
</defs>
</svg>
