<svg width="64" height="64" viewBox="0 0 64 64" fill="none" xmlns="http://www.w3.org/2000/svg">
<g clip-path="url(#clip0_852_764)">
<mask id="mask0_852_764" style="mask-type:luminance" maskUnits="userSpaceOnUse" x="0" y="0" width="64" height="64">
<path d="M0 0H64V64H0V0Z" fill="white"/>
</mask>
<g mask="url(#mask0_852_764)">
<path d="M32 63.2C49.6731 63.2 64 60.6928 64 57.6C64 54.5072 49.6731 52 32 52C14.3269 52 0 54.5072 0 57.6C0 60.6928 14.3269 63.2 32 63.2Z" fill="#C6CBDE"/>
<path fill-rule="evenodd" clip-rule="evenodd" d="M26.3992 5.60078C25.7627 5.60078 25.1522 5.85364 24.7022 6.30372C24.2521 6.75381 23.9992 7.36426 23.9992 8.00078V16.8008C23.9992 17.4373 24.2521 18.0478 24.7022 18.4978C25.1522 18.9479 25.7627 19.2008 26.3992 19.2008H39.1992C39.8357 19.2008 40.4462 18.9479 40.8963 18.4978C41.3464 18.0478 41.5992 17.4373 41.5992 16.8008V8.00078C41.5992 7.36426 41.3464 6.75381 40.8963 6.30372C40.4462 5.85364 39.8357 5.60078 39.1992 5.60078H26.3992ZM19.1992 8.00078C19.1992 6.09122 19.9578 4.25987 21.308 2.90961C22.6583 1.55935 24.4897 0.800781 26.3992 0.800781H39.1992C41.1088 0.800781 42.9401 1.55935 44.2904 2.90961C45.6406 4.25987 46.3992 6.09122 46.3992 8.00078V16.8008C46.3992 17.7463 46.213 18.6826 45.8512 19.5561C45.4893 20.4296 44.959 21.2234 44.2904 21.892C43.6218 22.5605 42.8281 23.0909 41.9545 23.4527C41.081 23.8145 40.1447 24.0008 39.1992 24.0008H26.3992C24.4897 24.0008 22.6583 23.2422 21.308 21.892C19.9578 20.5417 19.1992 18.7103 19.1992 16.8008V8.00078Z" fill="#F28C8C" stroke="#0E101A" stroke-linejoin="round"/>
<path d="M53.2008 11.2012H10.8008C5.27793 11.2012 0.800781 15.6783 0.800781 21.2012V47.6012C0.800781 53.124 5.27793 57.6012 10.8008 57.6012H53.2008C58.7236 57.6012 63.2008 53.124 63.2008 47.6012V21.2012C63.2008 15.6783 58.7236 11.2012 53.2008 11.2012Z" fill="#4F46E5" stroke="black" stroke-linejoin="round"/>
<path d="M15.1992 21.2012V28.4012C15.1992 31.0533 16.2528 33.5969 18.1282 35.4722C20.0035 37.3476 22.5471 38.4012 25.1992 38.4012H53.1992C55.8514 38.4012 58.3949 37.3476 60.2703 35.4722C62.1457 33.5969 63.1992 31.0533 63.1992 28.4012V21.2012" stroke="black" stroke-linejoin="round"/>
<path d="M15.2008 18.4012C15.2008 14.4247 11.9772 11.2012 8.00078 11.2012C4.02433 11.2012 0.800781 14.4247 0.800781 18.4012V50.4012C0.800781 54.3776 4.02433 57.6012 8.00078 57.6012C11.9772 57.6012 15.2008 54.3776 15.2008 50.4012V18.4012Z" fill="#3731A1" stroke="black" stroke-linejoin="round"/>
<path d="M23.1992 32.4004C23.1992 31.3004 24.0992 30.4004 25.1992 30.4004H30.7992C31.3297 30.4004 31.8384 30.6111 32.2134 30.9862C32.5885 31.3613 32.7992 31.87 32.7992 32.4004V42.4004C32.7992 43.6734 32.2935 44.8943 31.3933 45.7945C30.4932 46.6947 29.2723 47.2004 27.9992 47.2004C26.7262 47.2004 25.5053 46.6947 24.6051 45.7945C23.7049 44.8943 23.1992 43.6734 23.1992 42.4004V32.4004Z" fill="#FEFAE9" stroke="#0E101A"/>
<path d="M27.9996 44.8C29.3251 44.8 30.3996 43.7255 30.3996 42.4C30.3996 41.0745 29.3251 40 27.9996 40C26.6741 40 25.5996 41.0745 25.5996 42.4C25.5996 43.7255 26.6741 44.8 27.9996 44.8Z" fill="#4F46E5" stroke="#0E101A"/>
<path d="M46.4004 32.4004C46.4004 31.3004 47.3004 30.4004 48.4004 30.4004H54.0004C54.5308 30.4004 55.0395 30.6111 55.4146 30.9862C55.7897 31.3613 56.0004 31.87 56.0004 32.4004V42.4004C56.0004 43.6734 55.4947 44.8943 54.5945 45.7945C53.6943 46.6947 52.4734 47.2004 51.2004 47.2004C49.9274 47.2004 48.7065 46.6947 47.8063 45.7945C46.9061 44.8943 46.4004 43.6734 46.4004 42.4004V32.4004Z" fill="#FEFAE9" stroke="#0E101A"/>
<path d="M51.2008 44.8C52.5263 44.8 53.6008 43.7255 53.6008 42.4C53.6008 41.0745 52.5263 40 51.2008 40C49.8753 40 48.8008 41.0745 48.8008 42.4C48.8008 43.7255 49.8753 44.8 51.2008 44.8Z" fill="#4F46E5" stroke="#0E101A"/>
</g>
</g>
<defs>
<clipPath id="clip0_852_764">
<rect width="64" height="64" fill="white"/>
</clipPath>
</defs>
</svg>
