<svg width="64" height="64" viewBox="0 0 64 64" fill="none" xmlns="http://www.w3.org/2000/svg">
<path d="M24.5598 10.3594H59.4898L43.5298 46.5994H8.58984L24.5598 10.3594Z" fill="#FEFAE9" stroke="#1F243C" stroke-miterlimit="10" stroke-linecap="round" stroke-linejoin="round"/>
<path d="M19.3691 34.7599C20.4291 34.5599 21.8991 34.4899 22.8891 33.9399C23.5291 33.5799 23.6791 34.5199 24.0491 34.7599C25.1891 35.5299 26.3291 34.6699 27.3091 34.0199C28.2591 33.3899 28.4491 33.4599 29.1091 34.2799C29.9991 35.3699 31.9791 34.5099 33.0791 34.2499C33.4591 34.1499 33.8791 34.0799 34.2091 34.3099C34.8891 34.7999 35.6891 34.9399 36.4891 35.0599C37.6391 35.2499 38.7491 35.3499 39.9091 35.3599C40.5791 35.3699 40.7391 35.6199 41.2591 35.8799C42.3491 36.4199 44.0591 35.7299 45.1591 35.5099M22.3991 27.5699C23.9391 27.4899 25.6391 27.6099 26.9791 26.7499C27.1791 26.6199 27.4391 26.4999 27.6691 26.3999C27.7891 26.3499 28.2691 27.3199 28.4991 27.4199C29.0691 27.6799 29.7691 27.6099 30.3791 27.4599C30.9491 27.3099 31.7391 26.6799 32.2691 27.1299C32.8691 27.6499 32.9791 27.9099 33.8391 27.7299C34.6891 27.5299 35.1491 27.4299 35.9091 27.6899C37.0975 28.1521 38.3981 28.2427 39.6391 27.9499C40.0491 27.8599 44.2091 27.2899 44.4091 27.6899M24.0091 20.4599C25.9591 20.0599 27.9291 19.7099 29.8191 19.0599C30.0591 18.9699 30.2691 18.9199 30.5191 18.9199C30.8091 18.9199 30.8591 19.2099 30.9991 19.4399C31.5691 20.3899 32.5591 20.0299 33.4491 19.9999C34.2991 19.9699 35.0491 20.1599 35.9191 20.0499C36.3191 19.9999 37.3591 19.5599 37.7391 19.7399C37.9591 19.8399 38.0391 20.1399 38.2591 20.2699C38.8991 20.6499 39.1691 20.7099 39.9091 20.4699C40.4891 20.2699 41.0191 20.5399 41.6191 20.1699C41.7591 20.0699 42.2591 19.5599 42.3191 19.8999C42.3991 20.3299 42.4591 20.6499 42.8791 20.7799C44.3091 21.2399 45.7991 20.2799 47.2091 20.2399" stroke="#4F46E5" stroke-linecap="round"/>
<path d="M14.7698 9.49914C14.7698 10.6891 15.7298 11.6391 16.9098 11.6391H22.0498V7.36914H16.8998C15.7198 7.36914 14.7598 8.31914 14.7598 9.50914L14.7698 9.49914Z" fill="#F9C7C7" stroke="#1F243C" stroke-miterlimit="10" stroke-linecap="round" stroke-linejoin="round"/>
<path d="M19.7402 9.50078C19.7402 6.90078 21.8402 4.80078 24.4402 4.80078H55.7202V14.2108H24.4502C23.2037 14.2108 22.0083 13.7156 21.1268 12.8342C20.2454 11.9528 19.7502 10.7573 19.7502 9.51078L19.7402 9.50078Z" fill="#FEFAE9" stroke="#1F243C" stroke-miterlimit="10" stroke-linecap="round" stroke-linejoin="round"/>
<path d="M56.1495 14.2208C58.7507 14.2208 60.8595 12.112 60.8595 9.51078C60.8595 6.90952 58.7507 4.80078 56.1495 4.80078C53.5482 4.80078 51.4395 6.90952 51.4395 9.51078C51.4395 12.112 53.5482 14.2208 56.1495 14.2208Z" fill="#FEFAE9" stroke="#1F243C" stroke-miterlimit="10" stroke-linecap="round" stroke-linejoin="round"/>
<path fill-rule="evenodd" clip-rule="evenodd" d="M56.5401 7.37023C56.2474 7.35019 55.9538 7.39054 55.6774 7.48876C55.401 7.58697 55.1477 7.74097 54.9333 7.94119C54.7189 8.14141 54.548 8.38356 54.4311 8.65262C54.3142 8.92168 54.2539 9.21189 54.2539 9.50523C54.2539 9.79858 54.3142 10.0888 54.4311 10.3579C54.548 10.6269 54.7189 10.8691 54.9333 11.0693C55.1477 11.2695 55.401 11.4235 55.6774 11.5217C55.9538 11.6199 56.2474 11.6603 56.5401 11.6402H61.0601C61.6011 11.6032 62.1078 11.3622 62.478 10.9658C62.8481 10.5695 63.0539 10.0475 63.0539 9.50523C63.0539 8.96298 62.8481 8.44094 62.478 8.04463C62.1078 7.64832 61.6011 7.40728 61.0601 7.37023H56.5401Z" fill="#F9C7C7"/>
<path d="M54.9004 9.49914C54.9004 8.59914 55.6304 7.86914 56.5404 7.86914V6.86914C55.8419 6.86914 55.172 7.1459 54.6772 7.63884C54.1823 8.13178 53.903 8.8007 53.9004 9.49914H54.9004ZM56.5404 11.1391C55.6404 11.1391 54.9004 10.4091 54.9004 9.50914H53.9004C53.903 10.2076 54.1823 10.8765 54.6772 11.3694C55.172 11.8624 55.8419 12.1391 56.5404 12.1391V11.1391ZM61.0604 11.1391H56.5404V12.1391H61.0604V11.1391ZM62.7004 9.50914C62.7004 10.4091 61.9704 11.1391 61.0604 11.1391V12.1391C61.7588 12.1391 62.4288 11.8624 62.9236 11.3694C63.4184 10.8765 63.6977 10.2076 63.7004 9.50914H62.7004ZM61.0604 7.86914C61.9604 7.86914 62.7004 8.59914 62.7004 9.50914H63.7004C63.7004 9.16245 63.6321 8.81916 63.4994 8.49886C63.3668 8.17856 63.1723 7.88753 62.9272 7.64238C62.682 7.39723 62.391 7.20277 62.0707 7.0701C61.7504 6.93743 61.4071 6.86914 61.0604 6.86914V7.86914ZM56.5404 7.86914H61.0604V6.86914H56.5404V7.86914Z" fill="#1F243C"/>
<path d="M0.800781 45.4991C0.800781 46.6891 1.76078 47.6391 2.94078 47.6391H8.07078V43.3691H2.94078C1.76078 43.3691 0.800781 44.3191 0.800781 45.5091V45.4991Z" fill="#F9C7C7" stroke="#1F243C" stroke-miterlimit="10" stroke-linecap="round" stroke-linejoin="round"/>
<path d="M5.76953 45.5008C5.76953 42.9008 7.86953 40.8008 10.4695 40.8008H40.9395V50.2108H10.4695C9.22301 50.2108 8.02755 49.7156 7.14613 48.8342C6.26471 47.9528 5.76953 46.7573 5.76953 45.5108V45.5008Z" fill="#FEFAE9" stroke="#1F243C" stroke-miterlimit="10" stroke-linecap="round" stroke-linejoin="round"/>
<path d="M41.2695 48.5508H49.9295V62.9208L45.5795 61.2208L41.2695 62.9208V48.5508Z" fill="#4F46E5" stroke="#1F243C" stroke-miterlimit="10" stroke-linecap="round" stroke-linejoin="round"/>
<path d="M35.1992 43.9992C35.1992 42.8892 35.9992 41.8992 36.2992 40.8692C36.6292 39.8192 36.5692 38.5492 37.1692 37.6592C37.7892 36.7592 38.9792 36.4492 39.8492 35.7992C40.6792 35.1492 41.3392 34.0692 42.3792 33.7192C43.3692 33.3792 44.4992 33.8492 45.5992 33.8492C46.6692 33.8492 47.8292 33.3792 48.8192 33.7192C49.8292 34.0692 50.4892 35.1492 51.3492 35.7992C52.2192 36.4492 53.4092 36.7592 54.0292 37.6592C54.6592 38.5192 54.5692 39.8192 54.8992 40.8692C55.2292 41.8992 55.9992 42.8992 55.9992 43.9992C55.9992 45.1092 55.1992 46.0992 54.8992 47.1292C54.5692 48.1792 54.6292 49.4492 54.0292 50.3392C53.4092 51.2392 52.2192 51.5492 51.3492 52.1992C50.5192 52.8492 49.8592 53.9292 48.8192 54.2792C47.8392 54.6192 46.6992 54.1492 45.5992 54.1492C44.5292 54.1492 43.3692 54.6192 42.3792 54.2792C41.3692 53.9292 40.7092 52.8492 39.8492 52.1992C38.9792 51.5492 37.7892 51.2392 37.1692 50.3392C36.5392 49.4792 36.6292 48.1792 36.2992 47.1292C35.9692 46.0992 35.1992 45.1092 35.1992 43.9992Z" fill="#F8E485" stroke="#1F243C" stroke-miterlimit="10" stroke-linecap="round" stroke-linejoin="round"/>
<mask id="mask0_852_778" style="mask-type:alpha" maskUnits="userSpaceOnUse" x="34" y="32" width="23" height="24">
<path d="M54.6008 49.2007C54.0508 50.1607 52.8608 50.6207 52.0908 51.3607C51.2808 52.1007 50.6908 53.2307 49.7308 53.7107C48.7408 54.1807 47.5508 53.8507 46.4808 53.9807C45.4308 54.1207 44.3208 54.7307 43.2508 54.5107C42.2308 54.3107 41.4808 53.3407 40.5208 52.7907C39.6008 52.2607 38.3608 52.0807 37.6808 51.2907C36.9708 50.4907 36.9408 49.2207 36.5208 48.2307C36.1008 47.2307 35.2208 46.3707 35.1208 45.2807C35.0208 44.2107 35.7408 43.1307 35.9908 42.0607C36.2108 41.0107 36.0408 39.7607 36.5908 38.8007C37.1508 37.8407 38.3408 37.3807 39.1108 36.6407C39.9208 35.9007 40.5108 34.7707 41.4708 34.2907C42.4608 33.8207 43.6508 34.1507 44.7208 34.0207C45.7708 33.8807 46.8808 33.2707 47.9508 33.4907C48.9708 33.6907 49.7208 34.6607 50.6808 35.2107C51.6008 35.7507 52.8408 35.9207 53.5208 36.7107C54.2308 37.5107 54.2608 38.7807 54.6808 39.7707C55.1108 40.7707 55.9808 41.6307 56.0808 42.7207C56.1808 43.7907 55.4608 44.8707 55.2108 45.9407C54.9908 46.9907 55.1608 48.2407 54.6108 49.2007H54.6008Z" fill="#F8E485" stroke="#1F243C" stroke-miterlimit="10" stroke-linecap="round" stroke-linejoin="round"/>
</mask>
<g mask="url(#mask0_852_778)">
<path d="M52.2616 29.9512L54.7516 32.4512L34.8516 52.3512L32.3516 49.8512L52.2616 29.9512ZM60.3316 37.4812L55.9816 33.1412L36.0816 53.0412L40.4316 57.3912L60.3316 37.4812Z" fill="#FEFAE9"/>
<path d="M35.2012 44.0011C35.2012 42.8911 36.0012 41.9011 36.3012 40.8711C36.6312 39.8211 36.5712 38.5511 37.1712 37.6611C37.7912 36.7611 38.9812 36.4511 39.8512 35.8011C40.6812 35.1511 41.3412 34.0711 42.3812 33.7211C43.3712 33.3811 44.5012 33.8511 45.6012 33.8511C46.6712 33.8511 47.8312 33.3811 48.8212 33.7211C49.8312 34.0711 50.4912 35.1511 51.3512 35.8011C52.2212 36.4511 53.4112 36.7611 54.0312 37.6611C54.6612 38.5211 54.5712 39.8211 54.9012 40.8711C55.2312 41.9011 56.0012 42.9011 56.0012 44.0011C56.0012 45.1111 55.2012 46.1011 54.9012 47.1311C54.5712 48.1811 54.6312 49.4511 54.0312 50.3411C53.4112 51.2411 52.2212 51.5511 51.3512 52.2011C50.5212 52.8511 49.8612 53.9311 48.8212 54.2811C47.8412 54.6211 46.7012 54.1511 45.6012 54.1511C44.5312 54.1511 43.3712 54.6211 42.3812 54.2811C41.3712 53.9311 40.7112 52.8511 39.8512 52.2011C38.9812 51.5511 37.7912 51.2411 37.1712 50.3411C36.5412 49.4811 36.6312 48.1811 36.3012 47.1311C35.9712 46.1011 35.2012 45.1111 35.2012 44.0011Z" stroke="#1F243C" stroke-miterlimit="10" stroke-linecap="round" stroke-linejoin="round"/>
</g>
</svg>
