<svg width="1131" height="761" viewBox="0 0 1131 761" fill="none" xmlns="http://www.w3.org/2000/svg">
<path d="M820.332 0.71292C806.332 4.31292 798.198 14.5796 792.998 34.5796L790.598 44.1796L776.865 44.9796C761.132 45.7796 754.865 48.1796 747.932 56.1796C744.065 60.4463 741.265 66.8463 742.598 68.1796C742.865 68.4463 780.332 69.1129 826.065 69.6463L908.998 70.5796V66.7129C908.998 59.9129 906.198 52.4463 902.198 48.4463C898.332 44.5796 897.932 44.5796 887.932 45.1129C880.732 45.6463 875.265 46.8463 869.798 49.3796C865.398 51.2463 861.798 52.7129 861.532 52.5796C861.398 52.3129 860.065 44.8463 858.465 35.9129C855.265 16.9796 851.398 7.77959 844.598 3.64625C839.532 0.579586 826.865 -1.02041 820.332 0.71292ZM841.665 7.51292C848.865 11.9129 853.132 24.8463 856.332 51.9129C856.865 57.1129 857.798 59.5129 858.732 58.9796C875.132 51.9129 880.732 50.0463 887.265 49.3796C894.332 48.5796 895.532 48.8463 898.865 51.6463C901.265 53.7796 902.732 56.5796 903.265 60.3129L903.932 65.7796L826.198 65.1129C783.398 64.8463 748.065 64.3129 747.798 64.0463C746.598 62.9796 754.998 55.2463 760.332 52.4463C764.732 50.0463 768.065 49.5129 779.398 49.3796C786.865 49.2463 793.398 48.9796 793.665 48.5796C794.065 48.3129 795.532 43.3796 796.865 37.9129C802.998 14.1796 811.798 4.97959 828.865 4.84625C835.132 4.84625 838.465 5.51292 841.665 7.51292Z" fill="black"/>
<path d="M832.332 20.1798C828.465 23.9132 828.199 26.4465 831.132 29.3798C836.065 34.3132 844.999 30.3132 844.999 23.1132C844.999 16.5798 837.532 14.8465 832.332 20.1798Z" fill="black"/>
<path d="M170.998 31.3797C170.198 32.0464 148.331 42.8464 122.331 55.3797C96.3315 67.9131 74.5981 79.1131 73.9315 80.1797C72.9981 81.9131 67.5315 82.1797 37.3981 82.0464C17.9315 82.0464 1.6648 82.4464 1.2648 82.8464C-0.201869 84.3131 -0.468536 110.713 0.864798 112.846C1.93146 114.446 2.59813 114.446 5.53146 112.98C8.33146 111.38 22.3315 111.246 83.6648 111.78C124.865 112.18 158.865 112.98 159.398 113.513C159.931 114.046 160.331 161.646 160.331 219.246V324.18L137.665 324.846L114.998 325.513L114.331 335.513L113.665 345.513L100.065 345.913C88.9981 346.18 86.3315 346.713 86.3315 348.18C86.3315 349.646 88.0648 350.18 93.5315 350.18C97.3981 350.18 103.398 350.58 106.731 350.98L112.865 351.913L113.265 360.046L113.665 368.18L137.398 368.58L160.998 368.846L160.598 446.58C160.465 489.246 160.065 552.58 159.931 587.113L159.665 650.18H132.998H106.198L108.198 647.246C110.865 643.38 110.865 639.513 108.331 639.513C105.931 639.513 99.6648 645.78 99.6648 648.18C99.6648 650.18 71.5315 651.513 30.7315 651.513C6.19813 651.513 2.33146 651.78 2.33146 653.513C2.33146 655.38 18.4648 655.513 151.665 654.713L300.998 653.78V668.58V683.513H399.798C493.398 683.513 498.598 683.646 497.665 685.78C497.265 687.113 492.865 699.38 488.065 713.113L479.265 738.18H458.465C434.198 738.18 433.132 738.58 428.198 749.646L424.998 756.846H213.665C26.7315 756.846 2.33146 757.113 2.33146 758.846C2.33146 760.58 65.9314 760.846 566.331 760.846C1066.73 760.846 1130.33 760.58 1130.33 758.846C1130.33 757.113 1105.13 756.846 911.398 756.846H692.331L689.665 750.446C684.598 738.046 685.131 738.18 652.731 738.18H624.331L617.131 713.113C613.265 699.38 609.798 687.113 609.398 685.913C608.731 683.646 614.731 683.513 717.131 683.246L825.665 682.846L826.065 668.446L826.465 654.18H978.331C1112.6 654.18 1130.33 653.913 1130.33 652.18C1130.33 650.58 1127.93 650.18 1116.33 650.18C1103.66 650.18 1099.93 649.246 1103.66 646.846C1104.46 646.446 1105 645.513 1105 644.713C1105 642.58 1101.53 643.38 1096.46 646.846C1093.8 648.713 1091.26 650.18 1091 650.18C1090.6 650.18 1089.53 648.046 1088.33 645.513C1087 642.18 1085 640.18 1081.53 638.713C1074.73 635.78 1073.53 637.913 1078.46 644.58L1082.6 650.18H1058.46H1034.33V611.646C1034.33 587.246 1033.8 572.713 1033 572.18C1032.33 571.78 1031.66 566.713 1031.66 560.98C1031.66 551.78 1031.93 550.446 1034.2 549.78C1036.06 549.38 1037 547.513 1037.66 543.113C1038.2 539.78 1038.2 536.446 1037.66 535.646C1037.26 534.846 1033.53 534.18 1029.53 534.18H1022.33V524.846C1022.33 518.446 1021.8 515.246 1020.73 514.846C1019.8 514.446 1013.93 514.713 1007.66 515.246L996.331 516.18L995.931 524.98L995.531 533.913L990.998 534.713C985.798 535.78 983.665 538.713 983.665 544.713C983.665 547.38 984.598 549.246 986.331 550.18C988.598 551.38 988.998 552.98 988.998 560.313C988.998 566.446 988.331 569.646 986.865 571.113C985.265 572.713 984.998 574.713 985.665 579.113L986.465 584.846H973.931C961.531 584.846 961.265 584.713 960.465 581.513C959.931 579.38 958.731 578.18 956.998 578.18C955.398 578.18 954.331 577.246 954.331 576.046C954.331 573.913 965.665 520.046 970.198 501.246C972.465 491.646 972.865 490.846 976.731 489.646C980.331 488.58 980.998 487.78 981.798 482.446C982.598 477.513 982.331 476.046 980.198 474.58C978.865 473.646 977.131 472.846 976.331 472.846C975.398 472.846 974.998 471.38 975.398 469.113C976.065 464.58 974.065 462.713 967.398 461.513C961.398 460.313 956.998 464.046 956.998 470.18V474.18L928.998 474.446C913.665 474.58 895.798 474.846 889.398 474.846H877.931L876.465 468.98C874.598 461.246 872.198 459.913 864.998 462.046C859.398 463.646 859.398 463.78 860.065 468.98C860.731 474.18 860.731 474.18 855.531 474.98L850.198 475.913L851.131 482.046C852.198 489.646 852.465 490.18 855.798 490.18C857.131 490.18 858.331 490.313 858.331 490.58C858.331 490.713 853.265 508.713 847.131 530.58C840.065 556.18 836.598 570.58 837.531 570.846C838.331 571.113 852.865 571.646 869.665 572.046C897.531 572.58 934.998 575.78 936.865 577.646C937.265 578.046 925.931 577.913 911.665 577.38C897.398 576.846 885.398 576.046 884.998 575.513C883.931 573.913 864.598 572.446 858.465 573.513C853.131 574.446 852.998 574.58 852.998 579.513C852.998 584.046 852.598 584.713 849.265 585.513C847.265 585.913 843.665 587.38 841.265 588.846L836.998 591.513V620.846V650.18H831.398H825.931L826.998 562.446C827.531 514.313 828.465 446.58 828.865 412.18C829.265 377.646 829.265 348.846 828.598 348.18C827.931 347.38 810.998 346.846 782.598 346.846H737.665L737.265 339.38L736.865 331.913L722.731 331.113C714.865 330.713 708.065 330.58 707.398 330.98C706.865 331.38 706.331 335.246 706.331 339.646V347.513H691.665H676.998V325.513V303.513H672.465C670.065 303.513 666.065 303.113 663.798 302.713C659.798 301.913 659.665 301.78 659.665 294.046C659.665 287.913 659.265 286.18 657.665 286.18C656.331 286.18 655.665 287.646 655.665 290.846C655.665 295.246 655.398 295.513 651.131 295.513C647.131 295.513 646.465 295.113 646.065 291.913C645.798 289.646 644.731 288.046 643.398 287.78C641.398 287.38 640.998 288.446 640.998 294.713V302.18H635.798C630.731 302.18 630.598 302.046 629.665 296.98C628.731 291.246 626.331 288.446 620.598 286.313C617.531 285.113 616.998 285.246 616.998 287.246C616.998 290.713 618.998 293.113 621.665 292.58C622.998 292.313 624.331 292.98 624.598 293.78C625.665 296.713 619.131 295.646 616.198 292.446C612.465 288.58 606.598 285.513 605.398 286.713C604.731 287.246 606.865 289.913 610.065 292.58C618.331 299.78 617.665 301.913 607.398 302.446L598.998 302.846L598.598 325.113L598.331 347.513H582.331H566.465L566.065 341.78L565.665 336.18H552.331H538.998L538.598 341.78L538.198 347.513H504.198C485.532 347.513 470.332 346.98 470.332 346.313C470.332 345.78 473.932 341.113 478.332 336.18C482.732 331.246 486.332 326.446 486.332 325.513C486.332 324.58 482.998 319.78 478.998 314.846C474.998 310.046 471.665 304.713 471.665 303.38C471.665 296.98 469.532 295.513 459.265 295.38C441.665 295.113 435.132 293.913 433.665 290.446C432.865 288.58 429.932 286.58 426.065 285.113C422.598 283.913 420.065 282.58 420.465 282.046C421.131 280.846 426.332 282.046 428.732 283.913C432.465 286.846 432.065 282.98 428.198 279.78C424.732 276.846 423.931 274.98 423.398 269.113C422.465 258.98 421.665 258.58 409.398 261.38C403.665 262.713 397.931 264.046 396.731 264.313C394.598 264.98 394.331 266.713 394.331 276.98C394.331 285.78 394.865 289.113 396.198 289.646C397.131 290.046 401.931 289.38 406.865 288.313C420.465 285.113 422.331 285.38 428.732 291.913C434.865 298.18 435.265 299.913 433.398 318.58L432.598 327.646L417.131 327.513C408.598 327.38 400.998 327.38 400.065 327.38C398.998 327.513 398.331 330.846 398.065 337.113L397.665 346.846L385.398 347.246L373.265 347.646L373.931 342.313C374.598 337.38 374.331 336.846 371.131 336.046C369.265 335.646 366.198 335.513 364.465 335.78L361.265 336.446L360.465 316.313C359.931 305.246 358.731 261.38 357.665 218.846C356.598 176.313 355.398 135.113 354.998 127.113L354.331 112.846H368.865C382.331 112.846 383.531 113.113 385.531 115.78C387.531 118.846 387.665 118.846 389.665 116.18C391.665 113.646 393.398 113.513 484.332 114.046L576.998 114.446L577.265 104.313C577.398 98.7131 577.531 92.5797 577.531 90.5797L577.665 86.8464L560.865 85.2464C532.198 82.5797 401.931 64.0464 205.931 34.8464C169.665 29.5131 172.598 29.7797 170.998 31.3797ZM292.998 52.1797C445.798 74.7131 504.732 83.2464 510.332 83.7797C512.865 84.0464 452.865 84.0464 376.998 83.7797C301.131 83.5131 237.398 82.8464 235.531 82.1797C233.665 81.6464 231.265 81.6464 230.198 82.3131C226.865 84.3131 205.531 83.7797 203.665 81.5131C202.198 79.7797 201.665 79.7797 198.331 81.5131C195.265 83.1131 191.131 83.2464 177.798 82.5797C163.131 81.9131 160.998 81.5131 160.998 79.5131C160.998 78.1797 163.665 71.9131 166.998 65.3797C170.331 58.9797 173.131 52.4464 173.131 50.9797C173.265 49.3797 174.865 54.7131 176.865 62.8464C179.531 73.7797 181.131 77.6464 182.731 77.9131C185.665 78.4464 185.665 76.8464 182.198 62.5797C177.265 41.3797 176.465 35.5131 178.731 35.5131C178.865 35.5131 230.331 42.9797 292.998 52.1797ZM166.465 50.9797C164.198 57.5131 160.731 66.9797 158.598 72.1797L154.731 81.5131L116.198 81.7797C79.2648 82.0464 77.7981 81.9131 82.3315 79.7797C113.531 64.8464 168.198 38.1797 168.731 37.5131C170.865 35.3797 170.065 40.1797 166.465 50.9797ZM18.5981 92.4464C15.6648 96.0464 11.3981 100.58 9.13147 102.713L4.99813 106.713V96.4464V86.1797H14.4648H23.9315L18.5981 92.4464ZM66.3315 86.9797C66.3315 88.4464 52.3315 104.846 50.9981 104.846C49.6648 104.846 46.4648 101.78 36.3315 90.4464L32.4648 86.1797H49.3981C58.7315 86.1797 66.3315 86.5797 66.3315 86.9797ZM94.3315 87.1131C94.3315 88.1797 83.5315 104.846 82.8648 104.846C82.5981 104.846 80.4648 101.113 78.1981 96.7131C74.9981 90.1797 74.4648 88.1797 75.9315 87.3797C78.0648 86.0464 94.3315 85.7797 94.3315 87.1131ZM120.865 89.1131C120.065 90.8464 117.798 94.8464 115.931 97.9131L112.598 103.78L107.665 95.9131C101.798 86.9797 102.198 86.4464 114.731 86.3131C122.331 86.1797 122.465 86.1797 120.865 89.1131ZM152.731 88.5797C151.398 92.1797 144.198 104.846 143.665 104.846C143.131 104.713 134.331 91.2464 133.265 88.5797C132.998 87.9131 137.398 87.5131 142.998 87.5131C148.598 87.5131 152.998 88.0464 152.731 88.5797ZM190.598 92.4464C184.731 99.9131 178.731 105.246 177.398 104.446C176.731 104.046 173.665 100.046 170.465 95.6464L164.865 87.5131H179.665H194.598L190.598 92.4464ZM224.465 90.8464C223.265 92.7131 221.398 95.6464 220.198 97.5131C218.998 99.3797 217.665 100.846 217.131 100.846C216.598 100.846 213.931 97.7797 211.265 94.1797L206.331 87.5131H216.465H226.598L224.465 90.8464ZM259.531 97.5131C254.998 102.98 250.331 107.513 249.131 107.513C247.398 107.513 240.331 96.3131 237.265 88.5797C236.998 88.0464 243.798 87.5131 252.331 87.5131H267.798L259.531 97.5131ZM309.398 88.3131C309.798 88.8464 306.598 93.3797 302.065 98.4464L293.798 107.646L285.931 99.9131C272.998 87.1131 272.865 87.5131 292.065 87.5131C301.131 87.5131 308.865 87.9131 309.398 88.3131ZM339.665 88.1797C339.665 90.0464 325.665 107.513 324.465 107.113C323.265 106.713 317.398 92.9797 317.131 89.9131C316.998 89.3797 321.398 88.7131 326.731 88.4464C331.931 88.3131 337.131 87.9131 338.065 87.7797C338.865 87.6464 339.665 87.7797 339.665 88.1797ZM166.598 98.1797L172.865 107.513H160.865C154.198 107.513 148.998 107.113 149.265 106.446C152.198 100.046 158.598 88.8464 159.398 88.8464C159.931 88.9797 163.131 93.1131 166.598 98.1797ZM208.065 98.1797L214.465 107.513H198.731C184.998 107.513 183.398 107.246 185.665 105.646C187.131 104.58 190.998 100.446 194.331 96.3131C197.665 92.1797 200.598 88.8464 200.998 88.8464C201.398 88.8464 204.598 93.1131 208.065 98.1797ZM363.531 95.5131C361.265 99.1131 358.998 102.446 358.465 102.713C357.931 103.113 355.665 100.046 353.265 96.0464L349.131 88.8464H358.331H367.665L363.531 95.5131ZM399.398 98.4464C394.598 103.78 389.798 108.313 388.598 108.58C386.998 108.98 379.798 100.18 373.931 90.4464C373.131 89.2464 376.731 88.8464 390.465 88.8464H408.065L399.398 98.4464ZM442.198 97.1131C438.332 101.78 434.732 106.046 434.198 106.713C432.865 108.313 430.598 106.446 422.198 96.7131L415.398 88.8464H432.332H449.265L442.198 97.1131ZM486.332 89.6464C486.332 90.4464 472.865 107.513 472.198 107.513C471.798 107.513 460.598 92.8464 459.132 90.4464C458.332 89.2464 461.398 88.8464 472.198 88.8464C479.932 88.8464 486.332 89.2464 486.332 89.6464ZM514.065 90.1797C520.065 90.1797 524.998 90.5797 524.998 91.1131C524.998 91.7797 521.798 95.6464 517.932 99.9131L510.998 107.78L503.932 99.5131C496.332 90.4464 495.398 88.0464 500.065 89.3797C501.665 89.7797 507.932 90.1797 514.065 90.1797ZM29.5315 107.246C20.9981 107.38 13.6648 107.246 13.2648 106.846C12.8648 106.446 16.0648 102.58 20.3315 98.1797L28.1981 90.1797L36.7315 98.4464L45.1315 106.846L29.5315 107.246ZM132.998 98.0464C135.931 102.446 138.331 106.313 138.331 106.713C138.331 107.246 133.531 107.513 127.665 107.513C121.798 107.513 116.998 107.113 116.998 106.713C116.998 105.646 126.331 90.1797 126.998 90.1797C127.265 90.1797 129.931 93.7797 132.998 98.0464ZM236.731 98.8464L240.998 107.513H230.331H219.665L225.265 98.8464C228.465 94.1797 231.265 90.1797 231.665 90.1797C232.065 90.1797 234.331 94.0464 236.731 98.8464ZM553.798 96.3131C553.398 99.7797 552.998 104.313 552.998 106.313C552.998 109.513 552.465 110.18 549.798 110.18C546.865 110.18 544.598 106.58 538.732 91.7797C538.198 90.5797 540.198 90.1797 546.331 90.1797H554.731L553.798 96.3131ZM572.998 100.18V110.18H565.665H558.331V102.446C558.331 93.3797 559.131 91.9131 564.331 91.1131C573.531 89.7797 572.998 89.2464 572.998 100.18ZM101.798 95.9131C103.265 98.1797 105.665 101.78 106.865 103.78L109.265 107.513H98.4648H87.7981L92.7315 99.5131C95.3981 95.2464 97.9315 91.6464 98.3315 91.6464C98.7315 91.5131 100.198 93.5131 101.798 95.9131ZM349.665 99.6464C352.465 104.046 354.331 107.913 353.931 108.313C353.665 108.713 348.465 108.846 342.331 108.58L331.398 108.18L337.931 99.9131C341.398 95.3797 344.465 91.6464 344.598 91.5131C344.731 91.5131 346.998 95.1131 349.665 99.6464ZM536.865 100.313C539.132 105.246 540.865 109.513 540.465 109.78C540.198 110.046 534.732 110.18 528.465 109.913L516.865 109.513L524.332 100.446C528.332 95.5131 531.932 91.5131 532.198 91.5131C532.465 91.5131 534.598 95.5131 536.865 100.313ZM75.7981 102.446L78.3315 107.513H67.3981H56.5981L59.7981 103.78C70.0648 92.0464 69.3981 92.4464 71.3981 95.1131C72.4648 96.4464 74.3315 99.7797 75.7981 102.446ZM279.665 100.18C283.531 104.18 286.598 107.646 286.198 107.913C285.931 108.18 279.531 108.046 272.065 107.646L258.465 106.846L264.065 99.9131C267.131 96.0464 270.331 92.9797 270.998 92.9797C271.798 92.8464 275.665 96.1797 279.665 100.18ZM419.665 101.113L426.732 108.846H411.531H396.465L404.331 100.846C408.598 96.4464 412.198 93.1131 412.331 93.2464C412.465 93.3797 415.665 96.9797 419.665 101.113ZM460.332 100.846L466.465 108.846H452.998H439.532L441.932 105.78C450.598 94.9797 452.465 92.8464 453.265 92.8464C453.798 92.8464 456.998 96.4464 460.332 100.846ZM504.998 109.113C504.998 110.446 485.532 110.313 481.398 109.113C478.732 108.18 478.865 107.78 484.732 100.446L490.998 92.7131L497.932 100.446C501.798 104.713 504.998 108.58 504.998 109.113ZM314.865 98.5797C319.265 109.246 319.531 108.846 309.798 108.846C304.998 108.846 300.998 108.446 300.998 108.046C300.998 107.38 311.931 94.3131 312.598 94.1797C312.865 94.1797 313.798 96.1797 314.865 98.5797ZM375.531 101.646C377.931 104.98 379.665 107.913 379.265 108.313C378.998 108.713 374.731 108.846 369.798 108.58L360.998 108.18L365.398 101.913C367.665 98.4464 370.065 95.5131 370.465 95.5131C370.865 95.5131 373.131 98.3131 375.531 101.646ZM184.331 119.113C182.465 132.313 182.065 132.846 170.731 132.846C164.998 132.846 164.998 132.846 164.998 127.78C164.998 125.113 164.598 120.58 164.198 117.78L163.265 112.846H174.331H185.265L184.331 119.113ZM204.998 121.38V129.78L200.065 130.713C197.265 131.113 193.265 131.513 191.265 131.513C187.798 131.513 187.531 131.113 188.198 127.78C188.598 125.78 189.265 121.646 189.665 118.446L190.598 112.846H197.798H204.998V121.38ZM277.531 135.113C277.931 147.513 279.265 190.846 280.331 231.513C281.398 272.18 282.598 312.18 282.998 320.313L283.665 335.113L279.265 336.446C274.865 337.646 274.065 340.046 276.331 345.38C277.398 347.78 276.998 347.913 270.198 347.113C266.198 346.58 250.465 346.18 235.131 346.18H207.265L208.198 307.78C208.598 286.713 208.998 234.313 208.998 191.113L209.131 112.846H242.865H276.598L277.531 135.113ZM320.465 114.846C320.998 115.913 322.198 116.846 323.131 116.846C324.198 116.846 325.398 115.913 325.798 114.846C326.465 113.246 329.131 112.846 338.465 112.846H350.331V117.78C350.331 120.58 351.531 163.913 352.998 214.18C356.198 327.113 356.331 336.846 353.798 336.846C350.465 336.846 347.931 340.446 348.598 344.046L349.265 347.513H324.598H299.931L300.598 341.646C301.265 336.58 300.998 335.646 298.598 334.98C297.131 334.446 294.331 334.446 292.465 334.98C290.198 335.513 288.865 335.246 288.465 334.046C288.065 332.98 286.598 288.313 285.131 234.846C283.665 181.246 282.065 131.913 281.798 125.113L281.131 112.846H300.465C316.331 112.846 319.931 113.246 320.465 114.846ZM204.998 140.58C204.998 145.513 204.731 145.78 195.131 151.246C189.798 154.313 184.598 156.846 183.798 156.846C182.865 156.846 178.598 154.446 174.198 151.513C167.131 146.713 166.331 145.646 166.331 141.513C166.331 137.246 166.598 136.98 171.398 136.446C174.065 136.18 182.731 135.913 190.731 135.78L204.998 135.513V140.58ZM204.998 162.18V172.98L196.998 167.513C192.598 164.58 188.998 161.646 188.998 161.113C188.998 160.446 202.465 152.313 204.731 151.646C204.865 151.513 204.998 156.313 204.998 162.18ZM172.865 156.713L178.598 160.58L173.531 164.046C165.931 169.113 164.998 168.713 164.998 160.18C164.998 156.18 165.398 152.846 166.065 152.846C166.598 152.846 169.665 154.58 172.865 156.713ZM193.265 171.113C204.465 178.713 205.531 179.913 204.465 183.78C203.798 186.313 190.065 198.046 182.865 202.446C181.931 203.113 178.331 201.113 173.665 197.38L166.198 191.246L166.598 182.446L166.998 173.646L174.331 169.246C178.331 166.846 182.198 164.846 182.865 164.846C183.531 164.846 188.198 167.646 193.265 171.113ZM204.465 204.446C204.065 210.046 203.665 216.313 203.665 218.446V222.446L195.398 215.513C190.731 211.646 186.998 207.913 186.998 207.38C186.998 205.646 201.265 194.313 203.531 194.18C204.998 194.18 205.265 196.18 204.465 204.446ZM173.531 203.913L177.398 206.98L171.931 211.246C168.998 213.646 166.198 215.513 165.798 215.513C165.398 215.513 164.998 211.646 164.998 206.846C164.998 197.113 165.265 197.113 173.531 203.913ZM195.398 222.046C202.465 228.046 203.665 229.78 203.665 233.513C203.665 237.246 202.598 238.58 196.731 243.113C192.865 246.046 188.865 248.846 187.931 249.38C186.865 250.046 183.131 247.78 177.531 242.713C162.198 229.246 161.665 225.78 173.931 216.18C181.398 210.446 181.665 210.313 184.331 212.58C185.798 213.913 190.731 218.18 195.398 222.046ZM174.331 246.846C182.465 255.113 182.865 253.38 170.731 262.18L164.998 266.313V252.98C164.998 245.513 165.531 239.513 166.065 239.513C166.598 239.513 170.331 242.846 174.331 246.846ZM202.998 265.913C202.598 266.313 199.531 263.913 196.198 260.58L190.065 254.58L196.465 249.513L202.998 244.58L203.398 254.846C203.665 260.58 203.398 265.513 202.998 265.913ZM195.265 266.446C206.331 277.38 206.331 279.78 195.931 286.446C191.665 289.246 187.398 291.513 186.465 291.513C184.465 291.513 164.998 275.78 164.998 274.313C164.998 272.846 183.798 258.18 185.665 258.18C186.331 258.18 190.731 261.913 195.265 266.446ZM416.865 268.58C416.865 270.046 416.465 270.18 416.065 269.113C414.998 266.58 411.665 267.246 411.665 270.18C411.665 272.046 412.331 272.58 413.931 271.913C415.398 271.38 415.798 271.513 415.131 272.58C413.531 275.113 410.331 274.446 409.131 271.113C408.198 268.713 408.598 267.913 411.531 266.713C415.531 264.98 416.998 265.513 416.865 268.58ZM406.331 268.846C406.331 270.58 404.865 270.58 402.331 268.846C400.731 267.78 400.865 267.513 403.398 267.513C404.998 267.513 406.331 268.046 406.331 268.846ZM403.665 275.513C402.598 276.18 401.265 276.313 400.465 275.913C399.798 275.38 400.331 274.58 401.798 274.18C404.998 272.98 406.331 273.913 403.665 275.513ZM173.798 289.113C177.798 292.313 180.998 295.113 180.998 295.513C180.998 296.313 166.998 304.846 165.798 304.846C165.398 304.846 164.998 300.046 164.998 294.18C164.998 288.313 165.398 283.513 165.798 283.513C166.198 283.513 169.798 286.046 173.798 289.113ZM203.398 301.646L202.998 306.58L197.398 302.046C194.331 299.513 191.798 297.113 191.798 296.58C191.665 296.046 194.198 293.913 197.398 291.78L202.998 287.78L203.398 292.313C203.665 294.846 203.665 298.98 203.398 301.646ZM195.665 307.113L203.665 313.513V322.18V330.846L195.665 335.913C191.265 338.58 187.398 340.846 186.865 340.846C186.465 340.846 181.398 337.38 175.531 333.246L164.998 325.513V318.713V311.913L174.731 305.78C179.931 302.446 185.131 299.913 185.931 300.18C186.865 300.58 191.265 303.646 195.665 307.113ZM475.532 317.78C478.598 321.38 480.998 324.713 480.998 325.513C480.865 326.18 478.465 329.513 475.665 332.713L470.332 338.58V333.646C470.332 329.246 469.932 328.713 466.198 327.913C462.332 327.246 462.198 326.846 462.998 322.58C464.332 315.246 466.065 311.513 468.198 311.513C469.265 311.513 472.598 314.313 475.532 317.78ZM144.998 339.513V350.18H152.331H159.665V354.713C159.665 357.246 160.065 360.18 160.465 361.246C161.531 364.046 147.398 365.38 130.198 364.046L116.865 363.113L117.665 359.646C118.198 357.78 118.598 350.58 118.465 343.78C118.331 336.846 118.598 330.713 119.131 330.046C119.531 329.38 125.531 328.846 132.465 328.846H144.998V339.513ZM159.665 337.513C159.665 342.313 159.131 346.18 158.465 346.18C157.798 346.18 155.398 345.78 153.131 345.38C149.131 344.58 148.998 344.446 148.998 336.713V328.846H154.331H159.665V337.513ZM664.998 331.38C664.998 334.846 662.731 336.18 660.331 334.18C657.931 332.18 659.265 328.846 662.465 328.846C664.065 328.846 664.998 329.78 664.998 331.38ZM648.731 332.446C649.131 333.78 645.131 334.18 631.798 334.18C615.931 334.18 611.531 333.38 613.931 330.98C615.665 329.246 648.065 330.713 648.731 332.446ZM180.998 344.313C180.998 344.58 177.398 344.846 172.998 344.846H164.998V338.046V331.38L172.998 337.513C177.398 340.846 180.998 343.913 180.998 344.313ZM733.531 334.98C735.131 335.513 735.665 337.646 735.665 342.18C735.665 352.846 735.531 352.846 722.331 352.846C711.398 352.846 710.598 352.713 709.798 349.78C708.731 345.78 708.731 336.18 709.931 335.113C710.998 333.913 730.731 333.913 733.531 334.98ZM203.665 341.513C203.665 346.046 203.531 346.18 198.331 346.18C195.398 346.18 192.998 345.646 192.998 344.98C192.998 344.18 201.665 337.38 203.398 336.98C203.531 336.846 203.665 338.98 203.665 341.513ZM564.731 344.58C565.265 352.713 563.665 354.18 553.665 354.18C541.798 354.18 540.998 353.646 540.998 346.313C540.998 342.846 541.398 339.513 541.932 338.98C542.465 338.446 547.665 338.313 553.665 338.446L564.331 338.846L564.731 344.58ZM296.198 342.846C294.465 347.113 282.731 346.846 281.265 342.446C280.865 341.246 282.998 340.846 288.865 340.846C295.531 340.846 296.731 341.246 296.198 342.846ZM368.998 342.713C368.998 344.98 366.065 346.18 360.331 346.18C355.665 346.18 353.531 344.58 354.998 342.18C356.331 340.046 368.998 340.446 368.998 342.713ZM167.665 351.513C167.665 352.18 166.731 352.846 165.665 352.846C164.598 352.846 163.665 352.18 163.665 351.513C163.665 350.713 164.598 350.18 165.665 350.18C166.731 350.18 167.665 350.713 167.665 351.513ZM197.665 355.513C203.398 359.38 204.865 362.446 202.598 365.646C201.131 367.78 182.598 380.846 180.865 380.846C180.065 380.846 176.198 378.846 172.198 376.58C165.131 372.313 164.998 372.046 164.998 366.18C164.998 360.846 165.531 359.78 169.665 356.98C176.065 352.58 183.665 350.046 188.065 350.846C190.065 351.246 194.465 353.246 197.665 355.513ZM304.331 352.18C305.531 352.446 304.865 404.313 301.131 643.113C300.998 649.913 300.865 650.18 297.265 650.18H293.398L292.598 631.913C292.065 621.913 291.665 593.78 291.665 569.246V524.846H272.198H252.598L253.265 587.513L253.798 650.18H229.798H205.931L206.731 539.913C207.265 479.38 207.665 411.913 207.665 390.046V350.313L255.398 350.98C281.531 351.38 303.665 351.913 304.331 352.18ZM439.665 354.18C441.665 357.913 436.732 362.846 432.998 360.846C430.065 359.246 429.532 355.513 431.932 353.113C434.332 350.713 438.065 351.246 439.665 354.18ZM203.665 385.78C203.665 391.113 203.265 395.513 202.731 395.513C200.998 395.513 186.331 385.513 186.731 384.58C186.865 383.913 190.331 381.246 194.331 378.313C199.398 374.713 201.931 373.513 202.598 374.58C203.131 375.513 203.665 380.58 203.665 385.78ZM396.998 376.713C396.998 378.98 397.665 381.113 398.465 381.646C400.998 383.113 465.532 384.713 467.398 383.246C468.198 382.446 468.998 379.913 468.998 377.646V373.513L567.931 373.78C622.465 373.913 695.398 374.446 730.065 374.98L792.998 375.78V447.646V519.513H770.598C758.198 519.513 721.931 519.913 689.798 520.446L631.665 521.246L631.931 552.046L632.331 582.846L712.731 583.246L792.998 583.513V589.913V596.446L736.731 597.246C642.998 598.713 329.131 601.38 328.465 600.713C328.198 600.446 328.731 552.713 329.798 494.846C330.731 436.846 331.531 385.78 331.665 381.113V372.846H364.331H396.998V376.713ZM170.998 381.78C173.531 382.98 175.665 384.446 175.665 384.98C175.665 386.046 167.398 391.513 165.798 391.513C165.398 391.513 164.998 388.846 164.998 385.513C164.998 382.18 165.265 379.513 165.665 379.513C165.931 379.513 168.331 380.58 170.998 381.78ZM191.931 394.846C201.798 400.98 203.131 402.846 203.531 411.513C203.665 414.046 201.931 416.18 196.465 420.58C192.465 423.646 188.465 426.18 187.398 426.18C186.465 426.18 180.998 422.446 175.398 418.046C165.398 410.313 164.998 409.78 164.998 404.313C164.998 399.113 165.398 398.446 172.065 393.913C175.798 391.246 179.665 389.113 180.598 388.98C181.398 388.98 186.465 391.513 191.931 394.846ZM175.798 424.58C179.265 427.246 182.198 429.913 182.331 430.313C182.331 431.246 166.998 443.513 165.798 443.513C165.398 443.513 164.998 437.78 164.998 430.713C164.998 416.046 164.865 416.18 175.798 424.58ZM202.331 431.646V439.78L196.865 435.38L191.398 430.98L195.798 427.246C198.331 425.246 200.731 423.513 201.398 423.513C201.931 423.513 202.331 427.113 202.331 431.646ZM198.598 442.98C202.065 445.38 202.198 446.046 202.331 457.113V468.713L192.865 476.18L183.265 483.513L179.131 480.846C176.865 479.38 172.731 476.846 170.065 475.246L164.998 472.313V462.18C164.998 450.713 164.865 450.98 178.998 440.313L186.998 434.313L190.998 437.38C193.131 438.98 196.598 441.513 198.598 442.98ZM872.331 468.98C873.931 476.18 866.998 478.046 864.598 470.98C863.665 468.18 863.798 466.98 865.131 466.046C868.865 463.646 871.398 464.713 872.331 468.98ZM970.198 466.046C971.798 467.113 971.931 467.913 970.598 470.713C969.398 473.38 968.065 474.18 964.998 474.18C961.665 474.18 960.998 473.646 960.998 471.113C960.998 465.78 965.665 463.246 970.198 466.046ZM201.798 493.78C200.731 494.846 188.731 487.513 189.265 486.18C189.531 485.513 192.331 482.98 195.665 480.446L201.665 475.913L202.065 484.446C202.331 489.246 202.198 493.513 201.798 493.78ZM970.065 481.113C969.398 484.313 952.331 560.846 950.598 568.846C949.398 574.18 951.665 574.046 923.665 570.846C898.198 568.046 871.931 566.18 856.065 566.18C848.465 566.18 842.331 565.913 842.331 565.513C842.331 565.246 845.665 553.38 849.531 539.246C853.531 525.113 858.731 505.913 861.131 496.58L865.265 479.513L899.531 479.113C918.331 478.98 941.931 478.713 952.198 478.446L970.598 478.18L970.065 481.113ZM172.331 483.113C175.665 485.246 178.331 487.113 178.331 487.513C178.331 488.046 172.998 491.913 166.731 495.913C165.398 496.713 164.998 494.98 164.998 488.18C164.998 483.38 165.265 479.513 165.665 479.513C165.931 479.513 168.998 481.113 172.331 483.113ZM859.665 482.98C859.665 484.046 859.131 484.58 858.331 484.18C857.665 483.78 856.998 482.846 856.998 482.046C856.998 481.38 857.665 480.846 858.331 480.846C859.131 480.846 859.665 481.78 859.665 482.98ZM192.865 495.646L202.331 501.113V511.513V521.913L192.198 530.046C186.598 534.58 181.531 538.18 181.131 538.18C180.598 538.18 176.731 535.113 172.598 531.38L164.998 524.58V514.313V503.913L174.065 497.113C178.998 493.38 183.131 490.313 183.265 490.18C183.398 490.18 187.665 492.58 192.865 495.646ZM1018.33 526.846V534.18H1008.86H999.265L1000.2 529.113C1000.6 526.446 1001 523.113 1001 521.78C1001 519.913 1002.33 519.513 1009.66 519.513H1018.33V526.846ZM792.731 551.78L792.331 578.846H714.331H636.331L635.931 551.78L635.665 524.846H714.331H792.998L792.731 551.78ZM202.331 542.846C202.331 550.58 201.931 556.846 201.398 556.846C200.731 556.713 196.865 553.513 192.598 549.513L184.865 542.446L193.265 535.646C197.798 531.913 201.798 528.846 201.931 528.846C202.198 528.846 202.331 535.113 202.331 542.846ZM287.665 533.513V536.846H272.331H256.998V533.513V530.18H272.331H287.665V533.513ZM172.065 537.38L177.131 541.913L171.398 546.046C168.331 548.313 165.531 550.18 165.131 550.18C164.598 550.18 164.598 546.313 164.731 541.513C164.998 536.713 165.665 532.846 166.065 532.846C166.598 532.98 169.265 534.98 172.065 537.38ZM1033.8 541.646C1033.4 542.846 1033 544.58 1033 545.646C1033 547.246 1029 547.513 1010.33 547.513H987.665V544.446C987.665 542.713 988.065 540.846 988.598 540.446C988.998 539.913 999.665 539.513 1012.06 539.513C1032.06 539.513 1034.46 539.78 1033.8 541.646ZM287.665 595.513V648.846H273.265H258.731L257.931 611.78C257.398 591.513 256.998 567.513 256.998 558.446V542.18H272.331H287.665V595.513ZM192.065 555.646C197.665 560.846 202.331 565.513 202.331 566.18C202.331 567.246 182.998 582.18 181.531 582.18C181.131 582.18 177.265 579.38 172.865 576.046C165.265 570.046 164.998 569.513 164.998 563.646C164.998 557.78 165.398 557.246 172.065 551.913C175.798 548.846 179.665 546.313 180.331 546.313C181.131 546.18 186.331 550.446 192.065 555.646ZM1010.33 556.313C1010.33 558.58 1005.26 567.513 1004.06 567.513C1003.26 567.513 1004.73 556.98 1005.8 555.246C1007 553.38 1010.33 554.046 1010.33 556.313ZM1023.66 555.513C1023.66 558.713 1017.66 568.846 1015.66 568.846C1013.8 568.846 1013.93 567.78 1016.86 561.646C1019.93 555.246 1023.66 551.78 1023.66 555.513ZM999.665 560.046C999.665 563.913 997.131 565.913 995.665 563.38C994.465 561.513 996.331 556.846 998.331 556.846C999.131 556.846 999.665 558.313 999.665 560.046ZM202.065 594.18L201.665 600.846L193.665 593.646C189.265 589.646 186.065 586.046 186.465 585.646C186.998 585.113 190.598 582.313 194.465 579.38L201.665 574.046L202.065 580.713C202.331 584.446 202.331 590.58 202.065 594.18ZM171.398 581.38L177.131 585.913L171.265 590.713C168.065 593.38 164.998 595.513 164.465 595.513C164.065 595.513 163.665 591.246 163.665 586.18C163.665 580.98 164.065 576.846 164.731 576.846C165.265 576.846 168.198 578.846 171.398 581.38ZM874.331 578.18C874.331 578.846 872.598 579.513 870.465 579.513C868.331 579.513 864.731 579.913 862.465 580.313C859.265 580.98 858.331 580.713 858.331 578.98C858.331 577.246 859.798 576.846 866.331 576.846C870.731 576.846 874.331 577.38 874.331 578.18ZM956.331 583.513C956.865 584.313 956.731 599.646 956.198 617.513L955.265 650.18H916.865H878.331V616.18V582.18H916.865C942.331 582.18 955.798 582.713 956.331 583.513ZM874.331 616.98V648.846H857.665H840.998V621.513V594.313L844.731 592.446C852.598 588.446 870.865 583.38 873.398 584.58C873.931 584.846 874.331 599.38 874.331 616.98ZM981.398 589.646C986.065 590.446 986.331 590.713 986.331 595.646V600.846H973.665H960.998V594.846V588.846H968.731C972.865 588.846 978.598 589.246 981.398 589.646ZM191.665 598.846C197.131 603.646 201.665 607.913 201.665 608.446C201.665 609.78 189.798 620.846 188.465 620.846C186.998 620.846 166.998 603.246 166.998 601.913C166.998 600.713 179.398 590.18 180.865 590.18C181.265 590.18 186.198 594.046 191.665 598.846ZM1021 592.713C1021 594.58 1017.4 595.513 1010.86 595.513C1005 595.513 1002.86 593.646 1007.4 592.446C1011.66 591.246 1021 591.513 1021 592.713ZM986.331 611.513V618.18H981.798C979.398 618.18 973.665 617.78 969.131 617.38L960.998 616.446V610.713V604.846H973.665H986.331V611.513ZM1018.73 606.313C1016.73 608.313 1005 609.646 1005 607.913C1005 605.513 1006.73 604.846 1013.53 604.846C1018.46 604.846 1019.8 605.246 1018.73 606.313ZM178.998 620.18L184.331 624.846L177.665 630.846C174.065 634.18 169.398 638.046 167.398 639.646L163.665 642.313V624.846V607.246L168.731 611.38C171.398 613.646 176.065 617.646 178.998 620.18ZM201.665 632.58C201.265 632.98 198.998 631.513 196.731 629.246L192.598 625.113L197.131 621.113L201.665 616.98L202.065 624.446C202.331 628.446 202.065 632.18 201.665 632.58ZM1021 619.38C1021 620.98 1016.2 622.18 1010.06 622.18C1005.13 622.18 1003.26 620.446 1006.73 619.113C1009.53 617.913 1021 618.18 1021 619.38ZM986.331 628.18V634.313L973.398 633.913L960.331 633.513L959.931 627.78L959.531 622.18H972.865H986.331V628.18ZM821.665 652.046C822.198 665.646 822.198 677.246 821.665 678.046C821.131 679.113 745.398 679.513 562.865 679.513H304.998V663.78C304.998 654.98 305.398 643.38 305.798 637.78L306.731 627.513H563.665H820.731L821.665 652.046ZM194.731 634.313C200.198 639.113 200.998 640.313 200.998 644.98V650.18H182.731L164.331 650.046L175.665 639.513C181.931 633.646 187.265 628.846 187.665 628.846C188.065 628.846 191.131 631.246 194.731 634.313ZM1020.33 631.513C1021.4 633.113 1019.66 633.646 1011.4 634.713C1006.46 635.246 1005 634.98 1005 633.513C1005 630.98 1018.86 629.113 1020.33 631.513ZM986.065 643.78L986.465 648.846H973.131H959.665V643.513V638.046L972.731 638.446L985.665 638.846L986.065 643.78ZM613.798 716.846C616.998 728.18 619.531 737.646 619.665 737.78C619.665 738.046 589.398 738.18 552.331 738.18C511.931 738.18 484.998 737.646 484.998 736.98C484.998 736.313 488.065 726.98 491.798 716.313L498.598 696.846L530.198 696.446C547.532 696.313 572.065 696.18 584.865 696.18H608.065L613.798 716.846ZM678.065 742.98C679.931 743.513 682.331 746.313 684.465 750.313L687.665 756.846H558.998H430.332L432.332 751.78C436.598 741.38 425.931 742.18 557.531 742.18C622.065 742.18 676.331 742.58 678.065 742.98Z" fill="black"/>
<path d="M245.264 469.113C243.131 471.247 243.264 473.513 245.531 475.38C248.464 477.78 253.264 474.847 252.731 471.113C252.331 467.78 247.798 466.58 245.264 469.113Z" fill="black"/>
<path d="M264.199 470.713C262.866 474.18 264.732 477.113 267.932 476.58C270.199 476.313 270.999 475.247 270.999 472.847C270.999 470.447 270.199 469.38 267.932 469.113C266.199 468.847 264.599 469.513 264.199 470.713Z" fill="black"/>
<path d="M238.732 489.113C235.932 492.046 235.132 494.313 235.532 497.913C235.532 498.846 238.332 500.846 241.665 502.313C246.465 504.446 249.932 504.846 259.799 504.58C268.199 504.313 272.332 503.646 272.732 502.446C273.132 501.246 270.465 500.846 262.065 500.846C250.732 500.846 241.799 499.113 240.199 496.713C239.799 495.913 240.599 493.913 242.199 492.313C243.799 490.713 244.999 488.58 244.999 487.78C244.999 485.246 241.665 485.913 238.732 489.113Z" fill="black"/>
<path d="M354.599 483.113L354.999 565.513L436.065 565.913L516.999 566.18V483.513V400.846H435.665H354.332L354.599 483.113ZM512.332 483.513V561.513L435.399 561.913L358.332 562.18V483.513V404.846L435.399 405.113L512.332 405.513V483.513Z" fill="black"/>
<path d="M379.265 418.98C376.731 421.513 381.931 422.18 403.531 422.18C440.065 422.18 487.665 423.78 487.665 425.113C487.665 425.646 464.065 426.18 435.131 426.18C394.331 426.18 382.465 426.58 382.065 427.78C381.798 428.713 381.931 443.646 382.331 460.846L382.998 492.18H436.998H490.998L491.398 456.046L491.665 419.913L480.731 419.113C466.331 417.913 380.331 417.913 379.265 418.98ZM430.998 456.18C433.665 460.18 436.465 463.513 437.131 463.513C437.798 463.513 440.198 460.846 442.598 457.513C446.865 451.913 450.331 449.78 450.331 453.113C450.331 455.913 439.531 468.846 437.131 468.846C434.465 468.846 421.798 452.046 422.998 450.18C424.465 447.78 425.931 448.846 430.998 456.18Z" fill="black"/>
<path d="M383.664 510.846C382.731 511.913 382.331 513.78 382.864 514.846C383.797 517.513 388.464 517.38 389.531 514.713C390.597 511.78 390.597 511.78 387.797 510.313C385.931 509.246 384.864 509.38 383.664 510.846Z" fill="black"/>
<path d="M417.665 511.513C399.932 512.713 400.999 512.58 400.999 514.18C400.999 515.113 410.065 515.38 427.399 515.246C449.665 514.846 453.665 514.58 453.665 512.846C453.665 510.446 441.132 510.046 417.665 511.513Z" fill="black"/>
<path d="M425.665 524.846C406.731 525.38 402.998 525.78 402.998 527.513C402.998 529.246 407.398 529.513 436.331 528.98C454.731 528.846 470.198 528.046 470.865 527.513C471.398 526.846 471.531 525.78 471.131 524.98C470.198 523.513 467.931 523.513 425.665 524.846Z" fill="black"/>
<path d="M381.531 526.846C380.998 528.046 381.265 529.646 382.065 530.446C384.198 532.58 388.331 531.113 388.331 528.18C388.331 524.713 382.731 523.646 381.531 526.846Z" fill="black"/>
<path d="M384.199 542.846C383.666 544.046 384.199 545.913 385.399 547.113C388.199 549.913 391.932 548.313 391.399 544.58C390.866 540.846 385.399 539.513 384.199 542.846Z" fill="black"/>
<path d="M424.997 542.046C415.131 542.58 406.064 543.38 404.997 544.046C401.131 546.713 410.731 547.38 439.131 546.58C465.664 545.78 467.664 545.646 467.664 543.246C467.664 540.58 462.997 540.446 424.997 542.046Z" fill="black"/>
<path d="M540.999 436.846V468.846L590.599 469.113C628.732 469.38 640.199 469.913 640.732 471.113C641.132 472.446 630.332 472.846 589.799 472.846C544.999 472.846 538.332 473.113 538.332 474.846C538.332 476.58 545.665 476.846 596.465 476.846C642.332 476.846 654.465 476.446 654.065 475.113C653.665 474.313 651.532 473.38 649.265 473.113L644.999 472.713L645.932 443.38L646.732 414.18H606.065C562.999 414.18 544.999 413.246 544.999 411.113C544.999 410.313 563.532 410.046 596.599 410.313C636.199 410.713 648.199 410.446 648.599 409.246C648.999 408.313 647.799 407.38 646.065 406.98C644.332 406.58 620.065 406.046 592.065 405.513L540.999 404.713V436.846ZM616.199 426.046C617.132 427.38 597.799 450.98 594.865 452.046C593.799 452.446 590.999 449.913 587.665 445.246C582.065 437.38 581.532 436.18 583.665 434.846C584.332 434.446 586.999 437.113 589.532 440.98L594.065 447.78L603.799 436.313C613.799 424.846 614.865 423.913 616.199 426.046Z" fill="black"/>
<path d="M676.731 439.78C676.997 457.647 677.397 472.98 677.664 473.78C678.064 475.113 688.597 475.513 724.064 475.513H769.931L770.864 470.447C771.264 467.78 771.664 452.447 771.664 436.447V407.513H723.931H676.197L676.731 439.78ZM767.664 413.38C767.664 414.713 761.531 415.247 737.264 415.78C700.064 416.713 682.331 415.913 682.331 413.38C682.331 411.78 689.931 411.513 724.997 411.513C759.931 411.513 767.664 411.78 767.664 413.38ZM718.197 434.847C720.597 438.18 722.997 440.847 723.531 440.847C724.064 440.847 725.931 439.38 727.664 437.513C733.664 431.113 734.997 434.313 729.531 441.647C727.531 444.18 724.997 446.18 723.797 446.18C721.264 446.18 710.064 431.78 711.131 429.913C712.464 427.913 713.931 428.847 718.197 434.847Z" fill="black"/>
<path d="M544.998 515.513V530.18H580.331H615.665V515.513V500.846H580.331H544.998V515.513ZM611.665 515.513V526.18H580.331H548.998V515.513V504.846H580.331H611.665V515.513Z" fill="black"/>
<path d="M555.664 513.513C555.664 515.113 557.664 515.513 565.664 515.513C573.664 515.513 575.664 515.113 575.664 513.513C575.664 511.913 573.664 511.513 565.664 511.513C557.664 511.513 555.664 511.913 555.664 513.513Z" fill="black"/>
<path d="M578.332 513.246C578.332 515.113 584.599 516.846 592.065 516.846C594.999 516.846 595.799 516.313 595.399 514.446C594.999 512.58 593.265 512.046 586.599 511.78C580.199 511.513 578.332 511.78 578.332 513.246Z" fill="black"/>
<path d="M601.932 512.313C599.665 514.713 601.132 516.98 604.732 516.58C606.865 516.313 608.332 515.38 608.332 514.18C608.332 512.047 603.532 510.713 601.932 512.313Z" fill="black"/>
<path d="M901.665 512.18C894.998 518.713 899.265 535.513 907.798 536.58C911.932 537.113 922.198 528.446 925.398 521.913C928.332 515.78 926.198 512.846 916.865 510.58C906.732 508.313 905.265 508.446 901.665 512.18ZM919.798 515.513C921.265 515.513 922.332 516.313 922.332 517.38C922.332 519.513 910.732 532.846 908.865 532.846C906.865 532.846 902.332 524.446 902.332 520.713C902.332 515.513 904.865 513.78 911.532 514.713C914.732 515.113 918.465 515.513 919.798 515.513Z" fill="black"/>
<path d="M673.797 542.18L667.531 554.18L658.997 549.38C651.131 545.113 647.664 544.446 647.664 547.513C647.664 548.18 652.197 551.113 657.664 554.18C665.797 558.58 668.197 559.38 669.664 558.18C672.064 556.18 683.664 534.58 683.664 532.046C683.664 527.113 679.531 531.38 673.797 542.18Z" fill="black"/>
<path d="M717.265 538.313C707.132 539.646 702.998 540.846 704.465 542.046C705.132 542.446 723.265 542.713 744.732 542.446C782.065 542.046 783.665 541.913 783.665 539.38C783.665 536.98 782.465 536.846 754.732 536.98C738.732 537.113 721.932 537.646 717.265 538.313Z" fill="black"/>
<path d="M702.998 554.046C705.798 556.713 721.398 558.18 748.598 558.18C767.264 558.18 776.998 557.646 776.998 556.846C776.998 556.046 776.198 555.246 775.398 554.98C771.264 553.646 701.798 552.846 702.998 554.046Z" fill="black"/>
<path d="M262.864 549.38C261.664 552.58 263.398 558.18 265.664 558.18C268.331 558.18 268.331 551.113 265.664 548.846C264.064 547.513 263.531 547.646 262.864 549.38Z" fill="black"/>
<path d="M275.132 554.447C273.932 559.113 274.065 559.513 276.999 559.513C279.132 559.513 279.665 558.58 279.665 555.513C279.665 550.713 276.332 550.047 275.132 554.447Z" fill="black"/>
<path d="M262.332 576.046C262.332 580.98 264.332 583.38 266.599 581.113C268.465 579.246 266.599 571.513 264.199 571.513C262.999 571.513 262.332 572.98 262.332 576.046Z" fill="black"/>
<path d="M272.998 574.046C271.131 577.78 271.264 580.446 273.664 581.38C275.264 581.913 275.664 580.98 275.664 576.846C275.664 570.846 275.131 570.313 272.998 574.046Z" fill="black"/>
<path d="M273.132 592.58C271.666 595.38 272.332 599.513 274.332 599.513C276.199 599.513 277.266 594.447 275.932 592.047C274.732 589.913 274.466 590.047 273.132 592.58Z" fill="black"/>
<path d="M263.664 598.98C263.664 604.98 266.864 604.58 267.397 598.446C267.664 595.246 267.264 594.18 265.797 594.18C264.197 594.18 263.664 595.513 263.664 598.98Z" fill="black"/>
<path d="M264.998 615.513C264.998 618.446 265.665 620.846 266.331 620.846C267.131 620.846 267.665 618.446 267.665 615.513C267.665 612.58 267.131 610.18 266.331 610.18C265.665 610.18 264.998 612.58 264.998 615.513Z" fill="black"/>
<path d="M272.998 618.713C272.998 622.18 273.531 623.513 275.131 623.513C276.598 623.513 276.998 622.447 276.731 619.247C276.198 613.113 272.998 612.713 272.998 618.713Z" fill="black"/>
<path d="M267.132 631.113C266.732 631.513 266.332 633.913 266.332 636.446C266.332 639.513 266.999 640.846 268.332 640.846C269.665 640.846 270.332 639.513 270.332 636.313C270.332 631.78 268.865 629.38 267.132 631.113Z" fill="black"/>
<path d="M901.532 590.58C901.132 591.647 900.999 595.38 901.266 598.98L901.666 605.513H909.666H917.666V597.513V589.513L909.932 589.113C904.332 588.847 902.066 589.247 901.532 590.58ZM913.666 597.513C913.666 601.113 913.266 601.513 909.666 601.513C906.866 601.513 905.532 600.847 905.266 599.113C904.466 594.713 906.066 592.58 909.932 593.113C913.132 593.513 913.666 594.18 913.666 597.513Z" fill="black"/>
<path d="M927.131 590.98C924.731 593.38 924.331 599.78 926.331 603.646C928.198 606.98 939.665 607.246 942.865 604.046C945.398 601.646 945.665 592.713 943.398 590.446C940.998 588.046 929.665 588.446 927.131 590.98ZM940.331 595.513C941.931 600.446 936.998 603.646 931.131 601.38C928.998 600.58 928.198 595.38 929.931 593.78C930.331 593.246 932.731 592.846 935.131 592.846C938.331 592.846 939.665 593.513 940.331 595.513Z" fill="black"/>
<path d="M891.265 591.113C890.065 593.246 891.932 606.313 893.532 605.78C895.532 605.113 895.532 591.246 893.398 590.58C892.598 590.313 891.665 590.58 891.265 591.113Z" fill="black"/>
<path d="M901.932 619.113C900.599 620.313 900.866 631.78 902.066 633.78C903.132 635.513 907.932 636.18 914.732 635.78C918.199 635.513 918.332 635.247 918.332 628.447C918.332 624.58 917.666 620.713 916.732 619.78C914.999 618.046 903.399 617.513 901.932 619.113ZM914.066 627.113C914.332 630.447 913.932 631.513 911.666 632.18C908.199 633.247 904.999 630.847 904.999 626.847C904.999 622.98 906.199 621.913 910.332 622.446C912.999 622.713 913.799 623.647 914.066 627.113Z" fill="black"/>
<path d="M925.798 620.18C924.731 622.98 924.731 630.713 925.798 633.38C926.465 634.98 928.465 635.513 933.665 635.513C942.998 635.513 945.265 633.38 944.731 624.98L944.331 618.847L935.531 618.447C928.331 618.18 926.465 618.447 925.798 620.18ZM940.331 626.847C940.331 630.58 940.065 630.847 934.998 630.847C929.931 630.847 929.665 630.58 929.265 626.447L928.865 622.047L934.598 622.447C939.931 622.847 940.331 623.113 940.331 626.847Z" fill="black"/>
<path d="M891.664 627.513C891.664 633.78 892.064 635.513 893.664 635.513C895.797 635.513 896.464 628.447 894.864 622.447C893.264 616.847 891.664 619.513 891.664 627.513Z" fill="black"/>
<path d="M860.599 593.913C860.199 594.446 860.199 597.78 860.599 601.246C861.532 609.646 864.199 608.713 864.732 599.78C864.999 594.313 864.732 592.846 863.132 592.846C862.065 592.846 860.865 593.246 860.599 593.913Z" fill="black"/>
<path d="M853.399 596.846C852.599 599.78 852.466 599.78 850.732 597.38C848.199 593.913 846.732 596.58 847.399 603.513C848.066 609.513 849.799 610.58 851.132 605.513C851.532 603.646 852.466 602.18 853.132 602.18C853.799 602.18 854.332 603.646 854.332 605.513C854.332 607.646 855.132 608.846 856.466 608.846C858.066 608.846 858.332 607.513 858.066 601.913C857.666 594.58 854.732 591.513 853.399 596.846Z" fill="black"/>
<path d="M856.597 619.113C855.131 620.58 855.531 629.913 857.131 630.98C859.797 632.58 861.131 629.38 860.197 623.78C859.397 618.313 858.464 617.246 856.597 619.113Z" fill="black"/>
<path d="M863.132 620.313C862.732 621.513 862.332 624.18 862.332 626.313C862.332 629.246 862.999 630.18 864.999 630.18C866.999 630.18 867.665 629.246 867.665 626.313C867.665 621.78 866.465 618.18 864.999 618.18C864.465 618.18 863.532 619.113 863.132 620.313Z" fill="black"/>
<path d="M842.865 621.246C841.398 625.246 842.865 632.18 845.398 632.58C847.531 632.98 847.798 632.18 847.398 626.713C846.998 620.446 844.465 617.38 842.865 621.246Z" fill="black"/>
<path d="M849.931 620.447C848.731 621.513 848.731 626.58 849.798 629.38C851.264 633.113 854.331 631.78 854.331 627.647C854.331 621.113 852.331 617.913 849.931 620.447Z" fill="black"/>
<path d="M550.999 646.313C544.199 650.18 542.865 658.313 548.065 663.246C554.199 669.113 564.199 665.78 565.799 657.38C567.265 649.913 557.532 642.713 550.999 646.313ZM559.399 651.78C562.199 654.58 561.265 659.38 557.665 661.113C554.732 662.446 553.799 662.313 551.399 659.78C548.865 657.38 548.732 656.446 550.065 653.513C551.799 649.913 556.599 648.98 559.399 651.78Z" fill="black"/>
<path d="M909.666 251.38C904.866 253.513 894.332 263.513 894.332 265.913C894.332 266.447 890.332 266.847 885.266 266.847C875.132 266.98 866.866 270.447 863.266 276.047C858.466 283.247 859.132 283.513 880.999 283.513C892.066 283.513 900.999 282.98 900.999 282.313C900.999 280.313 895.532 279.513 881.399 279.513C873.799 279.513 867.666 278.98 867.666 278.313C867.666 275.247 879.266 271.513 888.732 271.513C896.332 271.513 898.332 271.113 898.332 269.513C898.332 268.447 900.866 264.847 904.066 261.647C912.599 252.713 923.666 250.447 931.799 255.913C936.866 259.247 940.332 265.513 941.666 273.78L942.599 279.513H925.799C911.799 279.513 908.999 279.78 908.999 281.513C908.999 283.247 912.866 283.513 935.799 283.513C960.599 283.513 962.466 283.38 962.066 281.113C961.666 279.247 960.199 278.847 954.332 278.847H947.132L946.066 271.647C944.599 261.647 940.332 254.713 933.666 251.513C926.732 248.18 916.732 248.047 909.666 251.38Z" fill="black"/>
<path d="M446.464 253.38C442.998 255.246 439.798 260.18 439.664 263.646C439.664 264.846 438.464 266.18 436.998 266.58C433.531 267.513 433.531 270.18 436.864 270.18C438.331 270.18 440.598 272.18 442.331 274.846C443.931 277.38 446.731 279.913 448.598 280.313C453.131 281.513 458.064 278.98 459.131 274.846C459.798 272.18 460.731 271.513 463.798 271.513C467.798 271.513 470.998 267.513 467.931 266.446C466.998 266.18 466.331 265.113 466.331 264.18C466.331 254.98 454.864 248.713 446.464 253.38ZM460.731 261.913C461.131 263.113 460.464 263.646 458.864 263.246C457.664 263.113 456.331 262.046 455.931 261.113C455.531 259.913 456.198 259.38 457.798 259.78C458.998 259.913 460.331 260.98 460.731 261.913ZM451.398 272.313C454.864 273.246 455.264 274.846 452.198 276.046C449.931 276.846 446.331 274.846 446.331 272.713C446.331 271.38 447.264 271.246 451.398 272.313Z" fill="black"/>
<path d="M633.797 261.647C632.331 265.647 632.997 271.247 635.131 272.047C636.331 272.447 639.264 272.847 641.664 272.847C645.797 272.847 646.064 273.113 646.864 278.847C648.064 286.58 650.331 286.58 650.331 278.98C650.331 273.113 650.331 272.98 655.397 272.58C660.331 272.18 660.331 272.18 660.731 265.78L661.131 259.513H647.931C636.997 259.513 634.464 259.913 633.797 261.647ZM649.797 263.647C651.131 265.913 648.064 268.447 646.197 266.58C644.597 264.98 645.664 262.18 647.664 262.18C648.331 262.18 649.264 262.847 649.797 263.647Z" fill="black"/>
<path d="M594.198 265.78C585.398 273.78 580.998 285.647 585.265 289.913C592.065 296.713 608.998 281.38 608.998 268.447C608.998 259.513 602.465 258.313 594.198 265.78ZM596.331 272.18C596.331 275.913 592.465 275.513 591.931 271.78C591.531 269.247 591.931 268.713 593.931 269.113C595.265 269.38 596.331 270.713 596.331 272.18Z" fill="black"/>
<path d="M928.465 263.913C926.731 265.246 926.331 266.58 926.865 268.58C928.465 273.38 935.665 271.913 935.665 266.846C935.665 265.113 934.731 263.38 933.531 262.98C930.865 261.913 931.265 261.913 928.465 263.913Z" fill="black"/>
<path d="M627.664 282.846C627.664 284.446 629.397 284.846 635.664 284.846C641.931 284.846 643.664 284.446 643.664 282.846C643.664 281.246 641.931 280.846 635.664 280.846C629.397 280.846 627.664 281.246 627.664 282.846Z" fill="black"/>
<path d="M100.466 627.113C99.2656 628.447 99.5322 639.513 100.866 639.513C102.199 639.513 103.666 634.98 103.666 630.58C103.666 627.513 101.932 625.647 100.466 627.113Z" fill="black"/>
<path d="M86.9983 635.513C86.1983 636.713 89.2649 643.646 92.0649 647.246C92.9983 648.446 93.7983 648.446 95.1316 647.38C97.5316 645.38 96.1983 639.513 92.7316 636.446C89.6649 633.913 88.1983 633.646 86.9983 635.513Z" fill="black"/>
<path d="M1091.26 637.78C1089.53 641.513 1089.66 646.18 1091.53 646.18C1092.6 646.18 1097 637.513 1097 635.513C1097 632.713 1093 634.313 1091.26 637.78Z" fill="black"/>
<path d="M105.264 679.646C103.531 680.313 101.397 682.58 100.597 684.846C99.2641 688.446 98.4641 688.846 93.3974 688.846C89.1307 688.846 87.6641 689.38 87.6641 690.846C87.6641 692.58 90.8641 692.846 108.997 692.846C127.397 692.846 130.197 692.58 129.531 690.846C128.997 689.513 126.864 688.846 123.531 688.846C119.264 688.846 118.331 688.313 118.331 686.313C118.331 683.646 112.464 678.18 109.797 678.313C108.997 678.313 106.864 678.846 105.264 679.646Z" fill="black"/>
<path d="M336.598 697.113C335.398 698.046 333.798 700.446 333.132 702.446C331.932 705.646 330.998 706.18 326.198 706.18C322.465 706.18 320.998 706.713 321.265 707.78C321.798 709.113 328.332 709.646 346.732 709.913C368.065 710.18 371.665 709.913 371.665 708.313C371.665 706.713 369.398 706.18 361.398 705.913C351.798 705.513 350.998 705.246 350.598 702.58C349.798 696.846 341.398 693.513 336.598 697.113Z" fill="black"/>
<path d="M859.264 696.98C857.931 697.78 856.331 699.78 855.664 701.647C854.464 704.713 854.331 704.847 832.064 705.113C813.264 705.513 809.664 705.78 809.664 707.513C809.664 709.247 815.397 709.513 853.531 709.513C887.531 709.513 897.531 709.113 898.064 707.78C898.464 706.58 896.064 706.18 888.731 706.18C876.731 706.18 872.997 705.247 872.997 702.18C872.997 696.847 864.864 693.78 859.264 696.98Z" fill="black"/>
<path d="M64.7312 734.046C64.0645 735.913 63.6645 740.313 63.9312 744.046C64.3312 750.846 64.3312 750.846 69.6645 751.78C72.5979 752.313 102.865 752.713 136.731 752.713L198.598 752.846L202.465 748.713C204.598 746.446 206.331 743.78 206.331 742.98C206.331 742.046 204.198 739.246 201.531 736.713L196.865 732.18L167.265 731.913C150.998 731.646 121.531 731.38 101.798 731.246L66.0645 730.846L64.7312 734.046ZM82.3312 742.18V748.846H75.6645H68.9979V742.18V735.513H75.6645H82.3312V742.18ZM98.3312 742.18V748.846H92.9979H87.6645V742.18V735.513H92.9979H98.3312V742.18ZM173.398 736.846H192.998V742.846V748.846H160.598C142.731 748.846 122.598 748.446 115.931 748.046L103.665 747.113V741.113V735.113L128.731 735.913C142.465 736.446 162.465 736.846 173.398 736.846ZM199.798 745.78C198.598 747.913 198.465 747.646 198.331 744.18C198.331 741.38 198.731 740.713 199.798 741.78C200.865 742.846 200.865 743.913 199.798 745.78Z" fill="black"/>
</svg>
