<svg width="1054" height="972" viewBox="0 0 1054 972" fill="none" xmlns="http://www.w3.org/2000/svg">
<path d="M260.633 2.78638C247.3 6.25304 229.7 13.9864 218.367 21.3197C209.7 26.7864 203.3 32.9197 196.1 42.7864C191.567 48.9197 190.1 49.9864 185.167 50.7864C157.967 55.1864 144.9 78.5197 147.167 118.92C149.033 153.053 159.567 189.453 178.233 226.653L184.1 238.386L179.967 243.586C177.7 246.386 169.967 253.72 162.9 259.72C129.7 287.853 113.033 308.52 96.6333 341.586C79.0333 377.32 67.7 414.92 57.4333 472.253C47.9667 525.32 43.8333 559.32 35.3 653.586C32.1 690.253 27.8333 736.12 26.1 755.586C21.7 802.653 20.3667 830.253 22.5 831.453C23.5667 832.12 21.5667 834.12 17.0333 837.053C8.23333 842.786 3.03333 850.12 1.3 859.453C-0.433333 868.786 -0.433333 903.186 1.3 904.253C2.1 904.786 2.63333 917.586 2.63333 938.386C2.63333 967.053 2.9 971.586 4.63333 971.586C6.36667 971.586 6.63333 967.053 6.63333 938.52V905.32L31.7 898.786L56.6333 892.253L104.767 891.853L152.9 891.453L153.833 895.72C154.233 897.986 154.633 912.92 154.633 928.786C154.633 964.653 155.3 971.586 159.033 971.586C161.567 971.586 161.567 970.786 161.033 931.72L160.5 891.853L168.767 891.053C173.3 890.52 219.833 890.253 272.233 890.253C324.5 890.253 385.7 890.253 408.367 890.253H449.3V886.786V883.186L304.767 883.853L160.367 884.52L159.033 863.72C158.367 852.253 157.3 841.986 156.767 840.786C155.967 838.92 158.5 838.52 178.233 837.586C190.5 837.053 370.767 836.386 578.633 836.12C1109.43 835.72 1051.97 836.12 1051.97 832.92C1051.97 830.253 1051.03 830.253 957.033 830.253H862.233L865.433 826.786C870.633 821.186 893.167 801.986 905.3 792.786C942.367 764.653 983.167 749.186 1035.97 743.053C1044.9 741.986 1052.5 740.786 1052.9 740.386C1053.3 739.986 1053.3 738.653 1052.77 737.453C1052.1 735.586 1050.5 735.453 1041.57 736.12C971.033 742.386 924.1 763.72 868.767 814.653C850.1 831.853 856.5 830.253 806.367 830.253H762.767L772.9 813.72C782.767 797.32 782.9 797.186 786.9 798.253C795.567 800.786 841.967 781.453 871.167 763.32C884.5 754.92 906.5 738.653 932.367 717.986C944.767 708.12 953.3 702.253 955.3 702.253C963.433 702.253 983.3 707.32 1010.37 716.253C1026.77 721.72 1043.3 726.653 1047.03 727.053C1053.03 727.853 1053.7 727.72 1052.9 725.72C1052.37 724.386 1051.97 722.52 1051.97 721.586C1051.97 720.52 1049.7 719.453 1046.37 718.92C1043.17 718.386 1031.03 714.52 1019.3 710.253C1007.57 706.12 992.633 701.186 985.967 699.586C979.433 697.853 973.833 696.386 973.567 696.12C973.3 695.986 976.1 692.12 979.567 687.453C991.433 671.72 996.233 654.253 993.3 636.253C990.633 619.853 985.3 609.586 968.5 588.786C963.833 582.92 959.033 575.186 957.3 570.786C953.033 559.453 954.1 546.52 961.967 516.253C971.967 476.786 971.567 456.52 960.233 433.986C956.633 426.653 952.233 421.053 942.1 410.786C927.567 396.253 921.433 392.786 906.367 390.786C900.767 389.986 897.833 388.653 892.1 383.986C879.967 374.12 862.1 366.653 833.967 359.72C804.767 352.52 769.7 350.786 751.967 355.72C729.7 361.72 706.633 375.453 695.167 389.053C690.633 394.386 684.633 404.786 685.567 405.453C685.833 405.72 687.833 406.52 689.967 407.32C693.7 408.653 716.633 417.853 723.7 420.92L726.633 422.253L722.633 430.386C713.967 447.32 708.9 466.386 703.167 502.92C702.767 506.12 700.9 507.986 694.633 511.986C665.3 530.653 647.967 560.92 647.967 593.453C647.967 611.853 651.567 622.92 661.833 636.386L667.967 644.653L656.367 656.52C649.833 662.92 640.1 674.253 634.633 681.453L624.633 694.653L624.233 683.453C624.1 677.32 623.433 647.986 622.9 618.253L621.967 564.253L616.633 563.586L611.3 562.92L610.9 535.853C610.5 505.853 611.433 508.12 601.033 509.72L595.967 510.653V536.786V562.92L503.7 562.52C452.9 562.386 406.767 562.12 401.3 561.853L391.3 561.586L412.633 557.853C447.7 551.586 456.233 550.786 465.033 552.786C469.167 553.853 484.367 555.186 498.633 555.72C512.9 556.386 526.9 557.053 529.567 557.186C532.9 557.32 535.433 556.653 537.3 554.92C539.567 552.786 540.5 552.653 542.633 553.986C548.9 557.853 555.833 553.72 559.433 543.853C560.767 540.386 563.433 536.253 565.567 534.52C569.967 530.92 570.9 523.186 567.167 521.72C565.033 520.92 565.033 520.653 567.167 518.52C570.233 515.053 569.833 509.853 566.5 507.853C564.367 506.52 564.1 505.586 565.167 504.52C567.567 502.12 566.9 495.853 563.833 492.786C561.167 490.12 559.967 489.986 546.1 490.786C537.167 491.186 532.633 491.053 534.633 490.386C536.5 489.72 539.7 489.186 541.7 489.053C546.767 488.92 545.833 486.253 539.567 483.186C535.433 481.053 534.9 480.253 535.967 478.253C538.5 473.586 537.567 467.853 533.967 465.453C528.1 461.586 521.033 465.053 515.3 474.786C514.1 476.92 512.9 476.786 498.233 474.253C472.1 469.853 453.833 467.853 430.5 466.786C406.9 465.853 405.7 466.12 407.167 472.12C407.967 475.186 414.1 478.52 429.833 484.253C434.233 485.853 435.7 486.92 434.5 487.586C431.433 489.32 386.767 491.986 375.567 491.186C360.633 489.986 350.367 483.186 335.833 465.186C320.5 446.253 309.967 426.786 275.833 354.92C251.433 303.32 250.633 301.586 250.633 297.453C250.633 293.72 250.1 293.72 262.633 296.386C274.233 298.92 298.9 298.12 311.7 294.786C339.3 287.72 361.033 265.186 374.367 229.72C381.033 212.253 387.433 185.32 389.3 167.453C390.767 154.12 390.767 150.253 388.9 139.32C387.7 132.386 386.367 125.853 385.967 124.653C385.3 122.92 386.367 122.12 390.633 120.92C405.167 117.053 406.633 104.52 394.233 90.3864C388.233 83.453 386.633 78.253 386.633 65.3197C386.5 52.3864 384.767 45.9864 379.433 39.053C374.367 32.3864 361.167 26.253 348.367 24.653C330.233 22.253 324.9 20.253 315.7 12.253C305.7 3.45304 298.9 0.919708 283.967 0.119708C274.9 -0.280292 270.233 0.253042 260.633 2.78638ZM292.367 103.053C298.233 105.586 304.367 106.92 313.567 107.586C325.433 108.52 327.833 109.186 341.433 115.72C355.033 122.12 357.433 122.786 368.5 123.453L380.5 124.253L382.233 130.253C383.167 133.586 384.633 142.786 385.3 150.653C386.767 168.12 384.367 185.586 376.633 210.92C367.033 242.386 357.967 259.186 342.5 273.586C326.5 288.52 306.233 295.186 281.967 293.72C266.1 292.653 253.033 288.92 236.633 280.653L223.3 273.986L228.5 279.32C231.3 282.386 236.1 286.12 239.167 287.586L244.633 290.52L244.233 302.253C243.967 308.786 244.633 321.453 245.833 330.52C247.033 339.586 247.967 347.72 247.967 348.653C247.967 349.586 245.967 350.253 242.767 350.253C238.633 350.253 237.3 349.72 236.633 347.453C234.1 339.72 218.5 319.72 188.233 285.853L168.367 263.32L177.833 254.12C186.633 245.453 187.433 244.92 190.767 246.386C195.433 248.253 201.3 245.32 205.033 239.32C208.9 232.92 214.9 213.72 214.367 209.453C213.967 205.986 213.3 205.453 207.433 204.653C195.433 202.92 189.033 195.853 188.233 183.186C187.033 163.186 201.567 145.72 216.5 149.453C222.1 150.786 227.567 157.586 230.633 167.186C235.833 182.786 242.9 189.453 251.033 186.12C256.633 183.72 258.233 180.12 259.3 167.586C259.967 159.186 261.167 154.12 263.967 148.253C266.633 142.653 268.1 137.186 268.633 130.253C270.233 109.72 270.9 106.386 273.433 103.053C276.9 98.5197 281.7 98.653 292.367 103.053ZM178.767 285.32C209.567 321.32 222.5 337.32 221.833 338.386C221.433 339.053 210.1 339.586 196.767 339.586C174.5 339.586 172.1 339.32 169.033 336.92C163.833 332.92 162.5 325.186 161.7 295.186C161.033 271.053 161.167 267.586 162.9 268.253C164.1 268.786 171.167 276.386 178.767 285.32ZM153.833 295.853C155.567 329.586 157.967 339.186 166.233 344.52C169.433 346.653 172.9 346.92 197.433 346.653L225.033 346.52L225.967 355.053C226.5 359.853 226.633 368.653 226.5 374.786L226.1 385.853L237.3 397.986C249.433 411.32 256.1 420.12 258.633 426.253C260.367 430.386 264.9 431.72 265.967 428.52C266.367 427.72 264.9 419.853 262.767 411.186L259.033 395.586L262.1 389.186C263.833 385.72 266.233 379.053 267.433 374.386C269.833 365.986 269.7 363.986 265.967 352.253C264.233 346.653 272.9 363.853 283.967 388.253C297.567 417.986 311.967 445.32 321.7 459.453C325.567 465.053 333.7 474.52 339.833 480.52L350.9 491.586H328.9H306.767L306.367 486.653L305.967 481.586L292.633 476.786C277.433 471.453 273.833 469.72 259.833 460.786C239.567 447.853 228.633 432.786 223.3 410.52C222.1 405.32 220.767 400.92 220.633 400.92C220.367 400.92 219.3 401.32 218.1 401.72C211.967 404.12 219.167 430.253 230.1 445.053C234.367 451.053 246.1 461.72 251.7 464.786C254.5 466.386 252.767 470.386 226.5 521.853L205.167 563.453L197.033 558.786C162.1 539.053 150.1 525.586 122.633 475.186C118.767 468.12 115.3 462.52 115.033 462.786C114.767 463.053 115.433 467.053 116.633 471.72C119.433 482.386 128.367 501.72 136.5 514.253C145.7 528.386 163.833 546.52 178.633 556.253C192.633 565.453 237.3 589.586 243.033 590.92C248.5 592.386 252.233 589.053 259.567 576.92L265.967 566.12L266.767 589.186C267.3 601.853 267.7 648.386 267.833 692.52L267.967 772.786L262.367 773.586C259.167 774.12 252.767 774.52 247.967 774.653L239.3 774.92L237.833 757.586C236.9 747.986 235.567 726.786 234.633 710.253C233.7 693.72 232.5 679.72 231.833 679.053C230.633 677.72 150.9 677.853 145.7 679.053C143.967 679.586 141.833 681.453 141.167 683.186C139.7 687.32 139.7 722.653 141.3 758.253C141.967 773.186 142.367 785.586 142.233 785.853C141.433 786.653 124.767 783.586 123.7 782.52C122.9 781.72 121.167 773.453 119.833 763.853C116.233 738.92 113.967 734.253 105.433 734.253C98.5 734.253 79.4333 747.453 74.3667 755.586C66.5 768.386 66.3667 777.853 73.8333 815.853C75.4333 824.52 76.5 831.853 76.2333 832.253C75.0333 833.453 31.3 832.92 29.3 831.586C27.7 830.653 27.5667 826.653 29.0333 801.986C29.8333 786.386 32.3667 753.72 34.5 729.586C36.7667 705.32 40.1 668.12 41.9667 646.92C51.9667 533.186 64.3667 452.253 79.9667 399.586C91.0333 362.386 110.1 325.586 131.833 299.586C140.367 289.32 150.9 278.253 151.967 278.253C152.5 278.253 153.3 286.253 153.833 295.853ZM259.833 353.853C263.833 364.653 263.833 364.786 261.567 371.186L259.433 377.586L257.7 364.253C256.9 356.92 255.833 348.92 255.433 346.386C254.5 340.12 255.167 341.453 259.833 353.853ZM249.833 357.186C250.233 358.92 250.9 365.053 251.3 370.92L252.1 381.586L246.767 369.053C243.7 362.12 241.3 355.986 241.3 355.32C241.3 354.786 243.033 354.253 245.167 354.253C247.967 354.253 249.167 355.053 249.833 357.186ZM243.833 379.453C249.033 392.52 253.3 403.586 253.3 404.12C253.3 404.653 248.767 400.386 243.3 394.653L233.433 384.253L233.3 369.853C233.3 361.986 233.567 355.586 233.833 355.586C234.1 355.586 238.633 366.253 243.833 379.453ZM853.033 430.52C844.233 452.386 847.967 471.32 864.233 487.72C871.3 494.786 872.5 495.586 877.7 495.586C885.3 495.586 891.3 499.453 893.3 505.72C898.5 521.586 884.367 546.253 869.967 546.253C865.833 546.253 860.233 543.453 856.767 539.72L854.367 537.053L846.1 542.52C828.5 554.386 813.433 573.32 809.3 588.653C807.433 595.72 807.3 611.053 809.167 615.853C810.9 620.52 809.7 620.92 793.433 620.92C779.433 620.92 769.167 618.653 763.7 614.253L760.367 611.72L762.5 603.586C764.1 597.32 765.033 595.72 766.633 596.386C767.7 596.786 774.9 597.453 782.633 597.853C798.5 598.52 798.633 596.786 783.033 594.386C777.7 593.586 770.5 591.986 767.033 590.786C756.233 587.186 735.7 575.186 727.567 567.72C722.367 563.053 715.433 548.92 711.167 534.653C704.633 513.186 706.633 486.386 717.167 455.453C720.5 445.586 721.3 444.253 723.833 444.653C727.433 445.186 740.9 441.32 742.1 439.453C744.367 435.586 734.767 434.386 727.3 437.453C724.767 438.52 722.633 439.32 722.633 439.053C722.633 437.853 729.7 426.12 730.767 425.453C731.967 424.786 779.833 443.586 791.033 449.186C793.7 450.52 795.967 452.653 795.967 453.72C795.967 454.92 798.767 458.52 802.367 461.72C812.233 470.92 820.9 473.32 815.167 465.186C810.1 458.386 810.233 457.986 816.233 461.453C819.567 463.32 822.767 464.92 823.567 464.92C824.367 464.92 826.633 461.586 828.5 457.453C833.567 446.786 841.3 435.853 848.367 429.186C851.833 426.12 854.9 423.586 855.3 423.586C855.567 423.586 854.633 426.786 853.033 430.52ZM532.5 470.653C534.5 473.72 528.767 479.586 523.833 479.586C518.1 479.586 517.967 477.32 523.167 472.12C528.1 467.186 530.1 466.92 532.5 470.653ZM273.3 477.186C280.233 480.653 288.9 484.12 292.367 485.053C298.367 486.52 298.767 486.786 297.967 490.12C296.5 496.386 253.7 574.253 248.1 581.053L245.433 584.253L230.1 576.386C221.567 572.12 213.7 567.853 212.5 567.053C210.5 565.586 211.967 562.12 225.033 535.453C243.567 497.986 258.633 469.986 259.7 470.52C260.233 470.786 266.367 473.853 273.3 477.186ZM446.367 473.853L450.767 474.52L447.7 476.653C445.967 477.853 443.833 479.853 442.9 481.186C441.967 482.52 440.367 483.586 439.433 483.586C437.167 483.586 415.7 474.253 413.967 472.653C412.633 471.32 436.9 472.12 446.367 473.853ZM494.367 479.853C500.367 480.786 504.5 481.986 504.9 483.186C505.3 484.253 505.433 485.32 505.033 485.586C504.767 485.853 498.633 484.92 491.433 483.453C484.233 481.986 478.1 481.053 477.833 481.186C475.967 483.053 481.967 485.853 494.767 488.786L509.967 492.386L512.233 503.053C513.433 508.786 514.5 518.52 514.5 524.653L514.633 535.72L509.7 537.853C502.367 541.053 477.567 540.92 461.167 537.72C448.367 535.186 448.233 535.186 428.367 537.986C386.9 543.986 327.3 545.053 296.767 540.253C289.433 539.186 283.3 537.986 283.033 537.72C282.633 537.32 303.3 497.32 304.633 495.853C304.9 495.586 316.633 496.12 330.9 497.053C358.367 498.786 407.167 497.32 430.367 494.12C441.433 492.52 441.567 492.386 445.567 486.52C451.433 478.12 455.3 476.653 471.3 477.586C478.633 477.986 489.033 479.053 494.367 479.853ZM517.833 483.053C519.033 483.453 519.567 484.386 519.167 485.053C517.967 487.053 512.367 486.386 511.433 484.253C510.633 482.12 513.833 481.586 517.833 483.053ZM533.433 484.253C533.433 484.92 532.233 485.72 530.633 485.986C527.967 486.386 527.033 484.92 528.9 483.053C530.233 481.853 533.433 482.653 533.433 484.253ZM560.1 497.72C561.433 499.453 561.433 499.986 559.967 500.92C557.7 502.253 554.633 500.253 554.633 497.453C554.633 494.92 557.967 495.053 560.1 497.72ZM562.5 511.453C563.567 512.12 563.967 513.586 563.567 514.786C562.9 516.386 560.9 516.92 555.967 516.92C550.367 516.92 549.3 516.52 549.3 514.52C549.3 513.186 549.7 511.586 550.233 511.186C551.433 509.853 560.367 510.12 562.5 511.453ZM562.1 525.453C564.5 527.32 564.5 527.586 562.5 529.586C560.367 531.72 560.1 531.72 556.767 529.586C553.967 527.72 552.633 527.586 549.167 528.786C543.567 530.786 541.3 530.653 541.3 528.52C541.3 524.12 557.033 521.853 562.1 525.453ZM523.567 537.186C522.5 538.786 521.167 542.253 520.633 544.653C519.967 547.72 518.767 549.186 516.233 549.853C509.7 551.72 486.233 550.92 472.633 548.386L459.3 545.986L424.233 552.786C391.967 559.053 381.3 560.653 381.3 558.92C381.3 558.653 382.233 556.253 383.433 553.72C385.567 549.453 386.1 549.186 394.5 548.386C409.567 546.92 422.767 544.92 436.767 542.12C449.7 539.453 450.767 539.453 462.633 541.453C476.9 543.853 499.567 544.253 507.167 542.12C509.967 541.32 515.033 538.92 518.5 536.92C521.833 534.786 524.767 533.32 525.033 533.586C525.3 533.853 524.633 535.453 523.567 537.186ZM555.3 534.253C556.767 536.52 553.3 546.12 550.367 548.12C546.633 550.786 543.967 548.786 543.967 543.32C543.967 537.053 552.633 529.986 555.3 534.253ZM538.367 540.653C538.767 543.986 537.967 545.853 534.767 549.053C529.3 554.386 525.967 553.72 526.1 547.453C526.233 540.653 530.1 535.32 534.5 535.853C537.3 536.12 538.1 537.053 538.367 540.653ZM295.967 547.053C302.233 548.12 314.367 549.32 323.033 549.853C331.7 550.253 339.033 551.186 339.433 551.72C339.7 552.386 337.433 558.12 334.233 564.52C331.033 570.92 325.833 582.12 322.633 589.186C319.433 596.386 316.1 602.253 315.3 602.253C313.167 602.253 292.633 589.853 283.3 582.92L275.3 576.92L274.5 565.186C273.833 555.053 274.1 552.92 276.5 548.52C278.633 544.52 279.833 543.586 281.967 544.253C283.433 544.653 289.7 545.986 295.967 547.053ZM367.967 574.786C362.233 588.253 355.433 603.853 352.767 609.453C347.567 620.92 348.633 620.653 334.367 613.453C319.967 606.12 320.367 608.653 329.567 587.853C334.1 577.853 339.3 565.72 341.3 560.92C345.433 550.92 345.7 550.786 366.1 550.386L378.367 550.253L367.967 574.786ZM423.967 643.586V718.253H418.1C414.767 718.253 411.7 718.92 411.167 719.853C409.7 722.12 414.633 724.92 420.233 724.92H425.3V744.92V764.92H406.633H387.967V741.586C387.967 719.72 387.833 718.12 385.167 715.453C382.9 713.186 381.033 712.786 374.633 713.053C367.433 713.32 366.367 713.053 363.167 709.586L359.567 705.72L355.433 710.52C351.7 714.786 350.233 715.453 344.633 715.853C335.833 716.386 334.633 718.786 334.633 737.186C334.633 750.253 334.367 751.586 331.833 752.92C330.367 753.853 325.3 757.586 320.767 761.586L312.367 768.653L294.767 770.386C285.167 771.32 276.9 771.586 276.5 771.186C275.967 770.786 275.3 728.253 274.9 676.653L274.233 583.053L279.433 587.32C293.967 599.453 331.833 621.586 343.833 625.053C349.433 626.653 349.833 626.653 352.5 623.453C354.1 621.586 360.5 608.52 366.633 594.52L377.7 568.92H400.767H423.967V643.586ZM615.567 570.786C616.633 571.72 617.833 700.12 616.767 703.986C616.367 705.986 613.7 709.986 611.167 712.92L606.367 718.253H518.5H430.633V643.32V568.52L522.767 569.32C573.433 569.72 615.167 570.386 615.567 570.786ZM655.433 581.186C654.367 589.72 656.367 605.053 659.833 614.92C661.3 618.92 665.167 626.253 668.5 631.186C671.833 636.12 674.233 640.386 673.967 640.653C672.633 641.986 666.5 636.653 662.5 630.786C656.367 621.853 653.167 610.386 653.033 596.92C652.9 585.853 654.233 574.253 655.567 574.253C655.967 574.253 655.833 577.453 655.433 581.186ZM739.567 622.52C736.233 627.186 730.633 636.253 726.9 642.92C719.833 655.453 705.3 686.52 705.3 688.92C705.3 691.853 709.433 689.853 723.967 679.453C764.5 650.786 800.9 627.72 807.433 626.653C811.167 625.986 812.767 626.786 817.967 631.32C821.433 634.253 825.833 637.053 827.967 637.586C830.633 638.12 831.833 639.453 832.367 641.986C834.1 650.253 844.1 660.253 852.367 661.853C854.5 662.253 856.5 663.453 856.9 664.386C857.833 666.786 850.9 681.186 843.3 693.053C839.967 698.253 828.5 714.653 818.1 729.453C801.3 753.053 784.5 777.986 776.5 791.32L773.833 795.586L769.167 792.12C762.5 786.92 747.033 780.12 738.233 778.253C730.767 776.786 730.5 776.653 732.367 773.853C733.433 772.253 736.9 766.653 740.1 761.586C743.3 756.386 755.567 737.853 767.433 720.253C790.9 685.32 797.033 674.786 794.767 672.52C794.1 671.853 792.633 671.586 791.567 671.986C787.167 673.72 717.3 781.586 696.633 818.52L690.1 830.253H653.033C618.9 830.253 615.833 830.12 615.033 827.853C606.5 802.52 594.367 781.72 581.7 770.386L574.233 763.72L578.767 759.986C595.567 746.12 609.167 730.653 634.767 696.253C661.167 660.653 681.033 641.986 707.567 627.986C716.633 623.053 739.3 614.786 744.367 614.386C744.9 614.253 742.767 617.986 739.567 622.52ZM761.033 617.586C767.167 621.72 775.833 624.653 785.967 625.986L793.967 627.053L755.3 652.52C734.1 666.653 716.5 677.986 716.367 677.72C716.1 677.453 719.433 670.12 723.833 661.453C736.233 636.653 751.033 614.253 754.9 614.253C755.567 614.253 758.367 615.72 761.033 617.586ZM831.967 633.453C831.967 634.92 825.033 632.253 823.033 629.986C820.767 627.32 820.767 627.32 826.367 630.12C829.433 631.72 831.967 633.186 831.967 633.453ZM839.7 638.92C840.633 642.653 843.3 647.053 847.033 650.92C853.433 657.586 853.3 658.52 846.633 653.853C841.967 650.786 838.1 644.386 836.633 637.186C835.3 630.653 837.833 632.12 839.7 638.92ZM988.1 658.12C986.1 671.32 982.367 678.786 973.967 687.053C963.3 697.453 960.767 696.253 969.967 685.186C978.633 674.92 984.767 662.92 987.033 651.986C989.167 641.986 989.833 646.386 988.1 658.12ZM915.967 672.786C920.767 674.52 926.767 677.053 929.3 678.653C935.433 682.386 946.633 692.92 946.633 694.786C946.633 696.253 902.233 731.053 883.3 744.386C855.833 763.72 823.3 780.12 794.367 788.92C786.633 791.32 786.633 791.32 788.1 788.653C791.567 782.253 802.9 765.32 819.567 741.853C843.833 707.853 857.7 686.52 861.833 676.52L865.433 668.253L886.367 669.053C903.033 669.72 909.033 670.52 915.967 672.786ZM228.5 687.853C228.9 691.053 229.567 701.32 229.967 710.92C230.367 720.386 231.7 739.053 232.767 752.12C233.833 765.32 234.5 776.12 234.367 776.386C234.1 776.52 223.167 777.453 209.967 778.386C183.833 780.12 180.1 780.92 179.033 784.92C178.367 787.32 177.167 787.586 163.967 787.586H149.567L148.767 773.853C148.367 766.386 147.433 749.453 146.633 736.253C145.167 709.453 144.9 687.586 146.1 684.386C146.767 682.52 151.7 682.253 187.3 682.253H227.833L228.5 687.853ZM361.3 734.786C361.3 745.32 360.9 756.653 360.5 760.12C359.567 766.253 359.567 766.253 354.367 766.253H349.167L349.967 756.52C350.5 751.32 351.567 744.786 352.367 742.253C353.167 739.72 353.967 736.12 354.1 734.253C354.5 728.253 358.9 714.253 360.1 715.053C360.767 715.453 361.3 724.386 361.3 734.786ZM381.3 742.253V764.92H373.033H364.9L365.7 743.32C366.367 728.12 367.033 721.453 368.233 720.653C369.167 720.12 372.5 719.586 375.7 719.586H381.3V742.253ZM351.167 727.186C350.767 730.786 349.7 734.653 349.033 735.853C348.367 737.186 347.167 744.52 346.367 752.253C344.9 764.52 344.5 766.253 342.233 766.253C340.5 766.253 339.967 765.586 340.5 764.12C340.9 762.92 341.3 753.186 341.3 742.253C341.3 720.786 341.033 721.453 349.033 721.053C351.967 720.92 352.1 721.186 351.167 727.186ZM599.967 725.853C599.967 726.386 598.633 728.12 597.033 729.853L594.233 732.92H523.167C467.833 732.92 451.833 733.32 451.033 734.52C450.5 735.453 449.967 742.786 449.967 750.92V765.586L442.1 765.986C437.833 766.253 433.833 765.853 433.167 765.32C432.633 764.786 431.833 755.453 431.3 744.52L430.367 724.92H515.167C561.833 724.92 599.967 725.32 599.967 725.853ZM580.633 745.986C576.233 750.12 570.1 755.586 567.033 757.986L561.567 762.253L560.633 758.253C559.967 755.453 557.433 752.386 553.033 748.786L546.367 743.586L542.233 747.053C536.767 751.586 534.767 755.186 534.633 760.52C534.633 764.52 534.233 764.92 530.633 764.92C527.167 764.92 526.633 764.386 526.633 761.186C526.633 757.186 531.167 748.92 534.5 746.92C535.7 746.12 538.5 744.92 540.633 743.986L544.633 742.52L540.1 742.386C537.7 742.253 533.7 743.453 531.167 744.92C526.633 747.853 521.3 756.92 521.3 761.986V764.92L491.7 764.653L461.967 764.253L487.433 763.986C516.367 763.453 514.633 764.253 514.633 751.986C514.633 741.853 515.833 742.253 488.5 742.253C466.1 742.253 462.233 741.72 464.9 739.186C465.3 738.653 493.433 738.253 527.167 738.253L588.633 738.386L580.633 745.986ZM112.233 750.253C117.033 772.12 119.967 798.386 118.633 808.253C117.967 813.32 117.433 821.053 117.3 825.186C117.3 829.453 116.767 832.92 116.1 832.92C113.167 832.92 106.5 825.586 103.167 818.786C99.8333 811.853 99.5667 810.653 100.367 798.52C100.767 791.453 102.5 781.186 104.1 775.72C107.433 764.253 107.167 750.92 103.7 743.853L101.433 739.453L105.7 739.853C109.833 740.253 109.967 740.52 112.233 750.253ZM459.433 741.72C459.033 742.92 458.633 748.52 458.633 754.386C458.633 762.92 458.233 764.92 456.633 764.92C455.033 764.92 454.633 762.653 454.633 752.253C454.633 740.253 454.767 739.586 457.433 739.586C459.433 739.586 459.967 740.12 459.433 741.72ZM98.6333 747.053C98.6333 749.186 98.3667 749.186 95.4333 748.12C93.7 747.453 93.5667 746.92 94.7667 745.453C96.5 743.32 98.6333 744.253 98.6333 747.053ZM509.833 748.386C511.433 752.52 509.3 759.32 506.233 760.12C504.633 760.52 494.5 760.92 483.7 760.92H463.967V753.586V746.253H486.5C506.1 746.253 509.167 746.52 509.833 748.386ZM101.033 753.186C101.3 754.653 99.8333 755.453 95.8333 756.12C92.7667 756.653 90.1 756.786 89.7 756.52C88.3667 755.053 91.3 751.72 94.3667 751.186C99.3 750.52 100.633 750.786 101.033 753.186ZM83.4333 755.053C83.0333 756.253 82.6333 758.653 82.6333 760.386C82.6333 763.053 81.9667 763.586 79.0333 763.586L75.3 763.453L78.3667 760.92C80.1 759.453 81.1667 757.72 80.6333 756.92C79.5667 755.32 80.9 752.92 82.9 752.92C83.5667 752.92 83.8333 753.853 83.4333 755.053ZM554.367 758.52C554.9 764.12 552.233 765.72 545.3 764.253C542.1 763.586 541.3 762.653 541.3 759.72C541.3 754.786 543.833 752.786 549.3 753.186C553.567 753.586 553.967 753.986 554.367 758.52ZM334.233 767.186C333.833 767.453 331.033 767.586 327.967 767.32L322.5 766.92L328.233 762.52L333.967 758.12L334.367 762.253C334.633 764.653 334.5 766.786 334.233 767.186ZM100.9 765.053C100.1 771.32 97.0333 774.786 91.7 776.12C88.2333 776.92 87.9667 776.653 88.1 772.653C88.3667 762.386 89.3 761.453 100.5 759.72C101.167 759.72 101.3 762.12 100.9 765.053ZM82.6333 772.253C82.6333 776.653 82.3667 776.92 77.9667 776.92C74.3667 776.92 73.3 776.386 73.3 774.52C73.3 770.386 75.4333 768.653 81.7 767.72C82.2333 767.72 82.6333 769.72 82.6333 772.253ZM575.567 771.453C588.767 781.053 605.167 807.986 608.767 826.253C609.567 829.586 609.167 830.253 607.033 830.253C605.033 830.253 603.833 828.52 602.1 822.52C596.9 806.386 588.5 792.52 575.167 778.253C567.7 770.386 566.1 767.586 569.3 767.586C569.833 767.586 572.633 769.32 575.567 771.453ZM560.633 776.92C573.033 785.453 589.7 809.72 595.167 827.186L596.1 830.253H534.9H473.7L472.9 820.52C471.833 808.786 467.833 795.32 461.833 783.32L457.3 774.386L471.7 773.853C479.567 773.72 501.433 773.32 520.367 773.186L554.767 772.92L560.633 776.92ZM449.7 778.52C457.433 788.786 463.967 806.786 465.967 822.786L466.9 830.253L421.167 830.386C395.967 830.52 371.967 830.52 367.967 830.52C363.967 830.52 333.167 830.386 299.7 830.386L238.633 830.253V823.853C238.633 814.786 235.167 801.453 230.633 793.053C228.367 789.053 226.767 785.72 227.033 785.453C227.433 785.053 311.7 777.053 329.967 775.72C338.767 775.186 368.633 774.52 396.233 774.386L446.5 774.253L449.7 778.52ZM96.7667 782.52C94.9 788.52 94.3667 809.586 95.8333 815.053C96.6333 818.12 98.7667 822.786 100.767 825.586C102.633 828.253 103.967 830.786 103.7 830.92C103.433 831.186 100.633 831.586 97.3 831.72L91.3 832.253L90.5 825.586C89.9667 821.853 89.1667 810.386 88.6333 799.986L87.5667 781.186L91.4333 780.52C93.5667 780.253 95.8333 779.853 96.5 779.72C97.0333 779.72 97.1667 780.92 96.7667 782.52ZM81.8333 786.52C83.0333 793.32 85.1667 830.786 84.5 831.453C83.0333 832.92 81.4333 828.786 79.4333 818.92C77.3 808.653 73.4333 785.32 73.3 783.186C73.3 782.653 75.0333 782.253 77.3 782.253C80.6333 782.253 81.3 782.786 81.8333 786.52ZM744.233 787.586C752.9 790.253 769.3 799.72 769.3 802.12C769.3 803.453 755.3 827.32 753.433 829.32C752.9 829.853 740.367 830.12 725.567 829.986L698.633 829.586L710.1 810.253C726.1 782.92 724.633 784.92 730.5 784.92C733.3 784.92 739.567 786.12 744.233 787.586ZM223.3 790.786C228.1 797.186 231.433 806.253 233.3 818.653C234.1 824.386 234.633 829.32 234.367 829.586C234.1 829.72 225.167 830.253 214.5 830.52L194.9 831.186L194.367 816.386C193.833 805.853 192.9 799.586 191.033 794.653L188.233 787.72L194.5 787.186C197.833 786.92 204.9 786.653 210.233 786.52C219.7 786.253 219.833 786.253 223.3 790.786ZM159.967 793.986L181.967 794.92L184.367 799.986C186.1 803.32 187.167 809.32 187.567 818.253L188.367 831.586H155.3H122.233L123.033 825.186C123.567 821.72 124.233 812.52 124.767 804.786L125.7 790.653L131.833 791.853C135.167 792.653 147.833 793.586 159.967 793.986ZM150.9 841.853C151.7 843.986 152.633 854.386 153.033 865.053L153.567 884.653L103.833 885.32L53.9667 885.986L33.9667 891.32C23.0333 894.253 12.2333 897.053 10.1 897.453L6.36667 898.386L6.76667 878.653C7.3 859.986 7.56667 858.52 10.9 852.653C15.4333 845.186 21.8333 840.92 31.0333 839.586C34.9 839.053 63.0333 838.52 93.7 838.386L149.3 838.253L150.9 841.853Z" fill="black"/>
<path d="M310.233 138.253C305.833 139.587 302.633 141.987 302.633 143.987C302.633 144.787 305.833 145.053 311.699 144.52C322.099 143.72 325.299 142.653 325.299 140.253C325.299 136.92 317.833 135.987 310.233 138.253Z" fill="black"/>
<path d="M363.433 147.186C362.366 149.72 365.566 152.786 372.899 156.253C381.433 160.386 384.233 157.453 377.699 151.32C374.366 148.12 368.233 144.92 365.299 144.92C364.766 144.92 363.833 145.986 363.433 147.186Z" fill="black"/>
<path d="M204.766 159.72C199.7 163.72 195.833 172.253 195.033 180.786C194.5 187.053 194.766 188.786 197.3 191.853C199.3 194.386 201.433 195.586 204.1 195.586C209.033 195.586 209.033 194.386 203.966 189.986C198.233 184.92 199.166 174.52 206.233 166.12C209.433 162.386 209.966 162.253 211.433 164.12C212.233 165.32 213.3 168.653 213.833 171.586C214.766 177.586 216.766 178.52 218.5 173.72C219.966 170.253 218.5 161.853 215.966 158.92C213.566 156.12 208.9 156.386 204.766 159.72Z" fill="black"/>
<path d="M313.433 176.12C312.499 177.186 311.966 179.453 312.233 181.186C312.499 183.586 313.433 184.253 316.633 184.253C320.366 184.253 320.633 183.853 320.633 179.586C320.633 175.853 320.099 174.786 317.833 174.52C316.366 174.253 314.366 175.053 313.433 176.12Z" fill="black"/>
<path d="M349.967 180.92C348.9 182.52 350.1 193.186 352.9 209.453C354.633 219.453 354.633 221.453 353.167 222.386C350.1 224.253 345.567 223.72 338.367 220.653C332.9 218.386 331.567 218.12 330.633 219.586C329.033 222.253 330.1 223.453 336.5 226.386C343.967 229.72 353.3 229.72 357.833 226.12C361.967 222.786 362.1 220.12 358.767 206.52C357.3 200.786 355.833 193.586 355.3 190.253C353.833 179.853 352.233 177.186 349.967 180.92Z" fill="black"/>
<path d="M363.3 186.386C361.966 190.386 365.7 194.12 368.633 191.586C371.566 189.186 370.633 184.386 367.033 183.853C365.033 183.586 363.966 184.253 363.3 186.386Z" fill="black"/>
<path d="M308.9 224.52C307.433 225.987 307.833 230.12 309.967 234.12C313.033 240.253 323.967 243.187 323.967 237.72C323.967 236.787 322.367 235.453 320.5 235.053C318.1 234.387 316.367 232.52 315.033 228.92C313.033 223.853 310.9 222.387 308.9 224.52Z" fill="black"/>
<path d="M725.301 468.253C723.834 469.986 723.834 470.786 725.701 472.52C728.501 475.32 732.234 473.72 731.701 469.986C731.167 466.253 727.701 465.32 725.301 468.253Z" fill="black"/>
<path d="M748.767 478.52C741.7 489.586 737.033 499.32 737.567 501.72C738.1 504.92 743.833 508.653 749.7 509.72C753.7 510.386 754.633 510.12 754.633 508.386C754.633 506.12 753.967 505.72 747.7 504.386C745.567 503.853 743.967 502.653 743.967 501.586C743.967 500.386 746.633 494.12 749.967 487.586C753.3 481.053 755.967 474.786 755.967 473.586C755.967 469.72 753.3 471.586 748.767 478.52Z" fill="black"/>
<path d="M790.767 483.453C789.833 484.12 789.3 485.987 789.567 487.72C790.1 492.12 796.5 492.387 797.033 487.987C797.567 484.653 793.433 481.853 790.767 483.453Z" fill="black"/>
<path d="M875.301 503.453C870.101 506.653 865.701 511.587 865.034 514.92C864.367 519.187 868.501 518.787 871.034 514.253C879.034 500.787 888.101 507.187 881.434 521.587C877.967 529.32 872.234 535.587 868.767 535.587C865.034 535.587 863.967 536.653 864.901 539.053C865.301 540.12 867.301 540.92 869.301 540.92C874.767 540.92 884.634 529.587 887.434 520.12C889.834 511.853 888.367 504.653 883.967 502.253C880.634 500.387 879.967 500.52 875.301 503.453Z" fill="black"/>
<path d="M757.567 528.52C751.567 529.053 750.634 529.32 751.967 531.053C753.7 532.92 760.634 533.586 764.5 532.12C766.634 531.32 767.567 527.32 765.7 527.853C765.034 527.986 761.434 528.253 757.567 528.52Z" fill="black"/>
<path d="M448.901 647.32C448.368 671.453 448.368 693.053 448.768 695.32L449.701 699.586H524.634C606.634 699.586 602.501 699.986 600.501 692.12C599.968 690.386 599.301 670.12 598.768 647.186L597.968 605.586L577.301 604.786C565.968 604.253 532.634 603.853 503.168 603.72L449.701 603.586L448.901 647.32ZM457.968 651.32C457.968 677.986 457.434 693.053 456.634 693.186C455.834 693.453 455.168 678.653 454.901 651.186C454.634 617.453 454.901 608.786 456.234 609.186C457.568 609.72 457.968 619.053 457.968 651.32ZM591.568 610.653C592.101 611.32 592.768 630.386 593.034 653.053L593.434 694.253H588.634C584.101 694.253 583.834 693.986 584.501 690.52C587.301 675.853 586.634 658.253 583.301 658.253C582.101 658.253 581.434 662.52 581.034 673.853C580.501 690.253 578.901 695.586 574.768 695.586C572.368 695.586 572.234 694.653 572.901 682.52C573.434 672.52 573.168 668.52 571.568 664.52C567.834 655.72 565.034 659.053 567.968 668.92C569.434 673.72 568.634 689.72 566.768 692.786C566.234 693.586 564.101 694.52 562.101 694.653L558.634 694.92L558.234 677.986C558.101 666.52 557.434 660.52 556.368 659.32C553.568 656.653 551.834 659.72 553.168 664.653C553.834 666.92 554.101 674.52 553.701 681.453C552.901 693.72 552.768 693.986 549.434 694.653C547.568 695.053 545.434 695.053 544.901 694.653C544.234 694.253 544.234 690.12 544.634 685.453C545.968 673.053 544.368 659.586 541.568 659.586C539.568 659.586 539.301 661.453 539.834 676.92L540.234 694.253H536.768H533.301L533.168 680.52C533.034 665.453 532.101 660.253 529.434 660.253C528.101 660.253 527.701 663.986 527.834 677.186L528.101 694.253H524.768C521.434 694.253 521.301 693.986 521.301 685.72C521.301 670.786 519.834 661.186 517.434 660.52C515.568 660.12 515.301 661.853 515.834 677.186L516.234 694.253H511.434H506.768L506.368 677.32C505.968 662.386 505.701 660.253 503.701 659.853C501.568 659.453 501.301 660.92 501.301 676.786V694.253H497.301H493.301V681.053C493.301 664.52 492.368 659.586 489.301 659.586C487.168 659.586 487.034 660.386 487.701 665.186C488.634 671.32 488.634 674.386 488.234 686.52C487.968 694.253 487.968 694.253 483.834 694.253H479.701L480.501 683.853C481.034 678.253 480.901 670.52 480.368 666.92C479.434 661.32 478.768 660.12 476.101 659.853C473.434 659.453 473.168 659.72 474.101 661.853C474.768 663.186 475.434 671.053 475.701 679.186L476.101 694.253H470.234C465.034 694.253 464.234 693.853 463.834 691.186C463.568 689.586 463.434 670.386 463.701 648.386L464.101 608.653L527.301 609.186C561.968 609.453 590.901 610.12 591.568 610.653Z" fill="black"/>
<path d="M564.5 616.12C552.634 621.32 549.967 638.653 559.834 648.12C570.767 658.52 589.3 649.186 589.3 633.32C589.3 625.586 585.967 620.12 579.3 616.92C572.9 613.853 570.234 613.72 564.5 616.12ZM576.367 621.32C582.234 623.853 584.234 626.653 584.5 632.786C584.634 639.053 582.1 644.12 577.7 646.12C570.767 649.32 563.834 646.786 560.634 639.986C557.567 633.72 558.9 627.32 564.1 623.053C568.767 619.053 570.367 618.92 576.367 621.32Z" fill="black"/>
<path d="M469.034 619.053C466.901 619.72 466.634 621.586 466.634 634.386C466.634 655.853 463.568 654.386 508.368 653.986L544.634 653.586L544.501 637.853C544.501 629.186 543.834 621.586 543.168 620.92C541.834 619.586 472.901 617.853 469.034 619.053Z" fill="black"/>
<path d="M544.9 295.72C530.366 299.187 521.433 308.12 517.433 323.187C516.233 327.72 515.166 329.053 512.233 329.72C493.166 333.72 478.9 345.987 473.966 362.653C472.766 366.52 471.566 374.92 471.033 381.587C469.833 399.987 466.766 398.787 518.366 398.653C541.566 398.52 563.3 397.987 566.633 397.32L572.633 396.12L573.033 384.52C573.966 357.187 562.766 339.32 539.7 331.453C531.833 328.787 531.166 326.787 535.7 319.187C539.833 312.12 544.5 309.72 555.033 309.187C563.433 308.787 565.566 309.187 571.966 312.52C586.633 319.987 592.5 333.453 594.633 364.12C595.3 374.52 595.966 410.387 595.966 443.853V504.92H602.5C606.5 504.92 609.3 505.587 609.7 506.52C611.033 509.72 610.633 378.92 609.3 360.52C606.9 327.187 598.233 309.72 579.3 300.52C567.833 294.92 555.7 293.187 544.9 295.72ZM540.9 340.92C555.833 347.453 563.833 360.52 565.033 379.72L565.7 391.187L561.3 391.987C555.7 393.187 514.366 393.187 495.033 391.987L479.966 391.187V381.587C479.966 359.187 489.566 345.32 509.7 338.787C517.433 336.253 532.633 337.32 540.9 340.92Z" fill="black"/>
<path d="M1037.17 882.786C1036.9 883.053 904.766 883.453 743.699 883.72L450.633 884.253V887.186V890.253L487.033 890.386C506.899 890.52 554.233 890.386 591.966 890.12C629.699 889.853 672.899 889.72 687.966 889.986C703.033 890.12 791.033 889.853 883.7 889.453C1042.63 888.653 1051.97 888.52 1051.97 886.253C1051.97 884.653 1050.5 883.72 1047.03 883.053C1041.17 882.12 1037.97 881.986 1037.17 882.786Z" fill="black"/>
<path d="M134.233 908.653C131.699 911.453 131.299 917.187 133.299 921.053C135.033 924.253 140.233 924.387 143.033 921.187C145.699 918.253 145.966 910.12 143.699 907.853C141.299 905.453 136.633 905.853 134.233 908.653ZM141.299 912.787C142.899 915.853 141.699 919.587 139.299 919.587C136.633 919.587 135.566 917.187 136.499 913.453C137.566 909.587 139.433 909.32 141.299 912.787Z" fill="black"/>
<path d="M172.766 911.053C169.832 913.853 170.099 919.987 173.299 922.92C176.899 926.12 181.832 924.653 183.966 919.587C185.299 916.253 185.299 915.053 183.432 912.253C180.899 908.387 175.966 907.853 172.766 911.053ZM179.966 914.12C181.566 917.187 180.366 920.92 177.832 920.92C175.166 920.92 174.099 917.587 175.966 914.387C177.699 910.92 178.232 910.92 179.966 914.12Z" fill="black"/>
<path d="M850.634 930.253C687.301 931.453 703.167 931.053 699.967 934.253C697.701 936.52 697.301 938.653 697.301 950.12C697.301 965.586 698.234 971.586 700.767 971.586C702.101 971.586 702.634 969.72 702.634 965.186C702.634 961.586 703.034 954.12 703.434 948.52L704.367 938.52L712.634 937.986C720.634 937.586 721.034 937.72 722.367 941.186L723.701 944.92L738.901 944.786C747.167 944.653 760.901 944.253 769.301 943.72C783.434 942.92 784.634 942.653 784.634 940.253C784.634 938.12 785.834 937.453 791.301 936.653C799.967 935.586 895.034 935.32 903.034 936.386C908.367 937.186 909.167 937.72 909.567 940.786L909.967 944.253L939.967 944.52C956.501 944.653 971.301 944.52 973.034 944.12C976.234 943.453 977.034 939.853 974.367 937.186C973.167 935.986 975.567 935.586 985.434 935.32C1021.17 934.52 1024.37 936.386 1026.1 960.12C1026.9 970.386 1027.3 971.586 1029.7 971.586C1032.1 971.586 1032.23 970.786 1031.7 959.186C1031.17 944.786 1027.57 936.786 1019.97 932.386C1014.23 928.92 1018.63 929.053 850.634 930.253Z" fill="black"/>
</svg>
