<svg width="3556" height="3556" viewBox="0 0 3556 3556" fill="none" xmlns="http://www.w3.org/2000/svg">
<path d="M3527.14 2714.33C3541.6 2802.44 3540.23 2887.67 3518.74 2972.38C3511.84 2999.6 3498.07 3019.8 3475.3 3037.25C3303.99 3168.55 3111.66 3249.19 2898.14 3278.67C2794.18 3293.02 2689.83 3294.56 2585.6 3279.59C2556.69 3275.43 2552.04 3266.32 2567.97 3241.49C2632.93 3140.2 2697.9 3038.91 2763.54 2938.06C2775.68 2919.41 2780.07 2904.67 2759.79 2888.38C2749.03 2879.73 2745.17 2865.12 2742.72 2851.16C2736.02 2813.09 2718.04 2781.87 2687.09 2758.18C2669.67 2744.86 2659.08 2727.63 2653.28 2705.76C2645.4 2676.06 2623.02 2655.33 2600.61 2635.8C2556.03 2596.96 2507.34 2561.81 2487.91 2498.61C2448.74 2519.04 2409.63 2534.38 2376.3 2557.91C2314.18 2601.75 2243.48 2610.38 2171.67 2619.12C2137.48 2623.28 2103.82 2626.75 2069.76 2618.94C2004.1 2603.89 1953.06 2572.64 1936.75 2501.7C1933.54 2487.71 1926.75 2475.19 1914.72 2467.38C1874.42 2441.21 1856.72 2401.34 1846.71 2356.91C1840.62 2329.87 1835.57 2302.58 1830.82 2275.26C1827.45 2255.93 1820.34 2247.96 1798.9 2255.84C1774.21 2264.91 1761.7 2281.03 1757.08 2306.04C1728.69 2459.49 1646.77 2586.59 1549.46 2702.59C1437.88 2835.61 1291.34 2861.54 1128.41 2815.67C1061.25 2796.76 998.433 2767.44 935.708 2737.68C924.016 2732.13 911.947 2717.85 898.243 2730.31C884.906 2742.45 875.912 2760.04 881.259 2777.9C892.55 2815.61 877.644 2843.86 855.57 2872.25C829.217 2906.14 824.083 2946.92 824.085 2988.5C824.085 2996.8 827.76 3006.05 825.186 3013.24C813.326 3046.36 830.065 3072.12 844.675 3098.77C872.266 3149.11 898.132 3200.33 920.937 3253C925.581 3263.72 935.733 3275.57 918.586 3294.16C880.409 3219.89 847.169 3146.04 805.853 3077.03C586.846 3255.91 363.823 3270 131.433 3105.8C115.972 3166.02 136.906 3224.72 136.473 3283.9C118.822 3284.57 119.807 3271.26 117.719 3262.83C104.14 3207.99 91.2146 3152.97 103.446 3095.84C106.725 3080.52 101.466 3067.42 94.1749 3053.75C73.2782 3014.55 80.3894 2978.52 113.949 2949.37C120.959 2943.28 125.249 2938.59 122.515 2928.6C115.808 2904.08 123.98 2882.04 139.475 2863.98C174.019 2823.74 187.12 2775.36 198.415 2725.25C241.35 2534.76 308.997 2354.89 429.7 2198.44C432.527 2194.78 435.257 2191.03 438.167 2187.44C494.548 2117.74 535.941 2106.09 620.437 2137.72C662.025 2153.29 702.768 2171.2 746.749 2179.41C753.824 2180.73 760.881 2184.02 772.155 2178.72C710.623 2140.55 642.58 2121.48 581.633 2087.74C660.048 2092.29 728.469 2125.86 800.209 2159.69C814.802 2125.51 845.001 2106.31 870.196 2082.31C909.002 2045.34 928.226 1999.25 932.121 1946.73C937.62 1872.59 929.621 1798.95 922.187 1725.29C920.205 1705.65 910.647 1700.82 892.853 1701.76C873.69 1702.76 874.05 1715.39 873.51 1728.86C871.954 1767.68 870.06 1806.48 868.32 1845.29C867.911 1854.42 869.628 1864.67 858.869 1869.34C848.634 1873.79 844.129 1865.08 838.405 1859.32C828.961 1849.83 818.583 1840.89 804.317 1848.03C790.59 1854.91 790.257 1868.56 790.6 1881.88C791.107 1901.5 799.356 1917.67 813.299 1930.92C820.551 1937.81 828.735 1943.72 837.179 1950.63C821.471 1968.81 808.327 1982.92 796.411 1998.01C741.769 2067.16 625.859 2066.5 558.655 2008.99C530.191 1984.64 499.643 1959.76 458.339 1954.14C424.881 1949.59 408.208 1922.81 413.34 1889.44C415.167 1877.56 414.661 1867.53 406.767 1858.35C406.17 1857.65 405.39 1856.83 405.316 1856.01C401.9 1818.48 379.571 1779.71 385.98 1746.71C392.918 1710.98 407.286 1673.64 420.705 1637.89C427.495 1619.8 446.793 1611.57 466.029 1610.22C480.953 1609.17 488.611 1603.83 494.375 1589.47C512.509 1544.27 530.876 1533.31 581.002 1535.5C589.975 1535.89 594.567 1531.84 599.597 1526.21C620.547 1502.76 643.815 1484.09 678.019 1485.92C691.751 1486.66 698.292 1474.15 707.369 1466.81C741.587 1439.13 757.035 1436.83 794.354 1458.04C803.63 1463.31 809.482 1460.99 816.956 1456.5C833.159 1446.77 850.554 1441.34 869.795 1442.83C896.939 1444.94 911.97 1461.02 916.819 1486.14C919.439 1499.7 924.602 1506.93 938.266 1510.91C959.722 1517.16 966.252 1533.69 961.581 1554.63C959.538 1563.79 957.257 1571.2 964.922 1580.06C997.12 1617.31 997.366 1632.61 969.445 1672.36C965.839 1677.5 959.946 1681.52 960.405 1690.66C975.48 1705.32 993.063 1717.81 1015.68 1725.08C1030.66 1706.45 1026.75 1683.76 1029.92 1663.65C1045 1568.19 1074.95 1480.38 1154.99 1411.38C1118.85 1406.23 1088.36 1401.72 1057.82 1397.58C1011.62 1391.32 967.515 1378.15 925.322 1358.39C912.703 1352.48 899.433 1348.92 885.761 1345.93C847.768 1337.63 842.76 1324.23 845.837 1286C849.849 1236.15 854.628 1186.64 865.783 1137.95C868.386 1126.59 866.281 1111.9 882.641 1102.41C885.185 1134.61 876.103 1162.96 871.714 1191.27C866.034 1227.89 864.421 1264.23 864.794 1301.03C864.931 1314.46 873.556 1319.46 883.357 1321.68C946.331 1335.93 1004.11 1368.4 1069.33 1374.58C1076.69 1375.28 1084.09 1375.54 1091.45 1376.22C1107.93 1377.76 1116.42 1371.01 1114.21 1353.87C1111.78 1335.07 1117.45 1318.88 1130.16 1305.44C1180.38 1252.38 1201.27 1189.74 1193.18 1117.14C1192.16 1108.06 1193.3 1098.68 1194.02 1089.48C1194.2 1087.16 1196.61 1085.01 1198.38 1082.18C1201.09 1083.51 1205.22 1084.43 1205.37 1085.78C1213.39 1157.82 1223.36 1230.28 1172.48 1292.95C1162.65 1305.06 1164.22 1316.52 1168.36 1331.42C1183.09 1384.55 1221.62 1397.89 1269.98 1397.23C1275.3 1397.16 1281.38 1396.32 1285.76 1393.63C1318.04 1373.91 1349.98 1353.63 1382.07 1333.49C1382.07 1331.35 1382.84 1328.7 1381.96 1327.92C1329.47 1281.78 1322.73 1215.18 1304.15 1153.95C1283.75 1086.7 1264.31 1019.14 1243.48 952.019C1235.45 926.113 1222.41 902.698 1199.46 886.201C1188.96 878.658 1179.85 873.515 1167.85 884.939C1157.29 894.982 1147.47 902.582 1155.42 919.806C1172.34 956.463 1178.64 995.849 1178.78 1035.89C1178.87 1060.59 1174.39 1090.68 1148.28 1095.51C1120.79 1100.6 1098.46 1115.11 1073.04 1121.94C1039.5 1130.94 1010.73 1116.81 989.401 1090.58C944.797 1035.74 922.893 971.036 916.049 901.895C913.156 872.677 899.839 863.884 874.054 862.49C811.118 859.085 765.616 888.919 731.856 938.396C705.417 977.143 693.655 1022.18 683.005 1067.47C657.156 1177.4 631.145 1287.24 635.31 1401.43C635.479 1406.06 633.97 1411.38 635.756 1415.21C654.226 1454.8 622.856 1478.28 606.424 1506.31C595.396 1525.12 584.018 1511.65 572.975 1508.99C573.21 1498.17 579.35 1496.7 583.472 1493.34C607.537 1473.75 619.786 1452.61 613.858 1417.65C602.637 1351.49 613.191 1284.69 622.872 1218.85C633.104 1149.26 652.022 1081.53 674.191 1014.74C695.609 950.206 724.9 891.495 789.644 855.284C777.333 846.747 766.519 840.166 756.743 832.295C727.808 808.998 709.414 779.703 713.227 741.304C717.175 701.54 742.575 680.735 782.587 681.116C791.642 681.203 800.981 683.991 809.86 679.359C789.402 651.517 766.56 657.151 711.777 703.308C706.738 677.763 735.099 646.67 767.143 643.012C774.47 642.176 781.942 642.433 789.346 642.485C803.634 642.587 811.376 637.707 811.249 621.354C810.589 536.545 852.154 477.648 925.859 439.811C938.647 433.246 941.163 423.809 943.444 411.221C948.428 383.708 959.684 359.518 990.039 347.974C965.465 376.489 965.391 411.763 958.766 445.121C957.363 452.186 951.455 455.015 944.636 456.711C906.215 466.265 881.164 492.469 861.587 525.823C892.48 495.368 929.106 475.555 970.927 465.791C983.186 462.93 985.494 453.132 989.684 443.92C1012.98 392.712 1059.5 369.569 1114.45 380.425C1149.93 387.433 1180.24 404.836 1209.13 425.125C1240.19 446.932 1270.79 469.405 1301.1 492.234C1325.86 510.877 1330.73 529.292 1318.92 557.892C1307.62 585.245 1289.99 609.747 1263.19 621.04C1238.07 631.623 1239.33 648.464 1241.74 667.961C1247.2 712.053 1239.53 754.538 1227.4 796.575C1221.23 817.966 1207.93 836.044 1196.44 857.198C1248.5 883.727 1263.74 932.6 1278.52 981.756C1304.07 1066.75 1330.59 1151.48 1354.62 1236.9C1363.4 1268.09 1384.92 1290.88 1399.02 1321.39C1426.76 1309.89 1449.78 1292.95 1473.5 1277.49C1497.53 1261.82 1519.82 1243.16 1544.86 1229.46C1570.54 1215.42 1571.99 1197.57 1561.51 1174.32C1557 1164.31 1553.76 1153.57 1545.6 1146C1533.55 1145.37 1530.37 1156.58 1522.57 1160.8C1515.32 1164.72 1508.11 1171.55 1500.32 1163.46C1492.7 1155.55 1495.1 1146.31 1500.44 1137.92C1502.39 1134.85 1504.8 1130.84 1507.83 1129.87C1554.98 1114.78 1545.65 1076.57 1542 1042.65C1539.36 1018.06 1528.7 995.311 1510.46 974.177C1490.27 1000.35 1467.65 1019.83 1434.6 1002.94C1418.13 994.523 1413.26 978.083 1418.36 959.826C1425.74 933.37 1442.54 926.264 1497.72 927.487C1504.53 819.347 1451.08 746.876 1359.09 695.844C1374.21 685.597 1382.9 693.462 1390.95 697.962C1471.94 743.259 1514.68 812.892 1518.04 905.287C1518.96 930.808 1522.37 953.072 1535.85 975.889C1560.93 1018.37 1572.78 1064.62 1557.07 1114.29C1555.75 1118.48 1554.37 1124.94 1556.49 1127.58C1571.63 1146.49 1576.76 1170.63 1590.37 1193.64C1664.93 1143.3 1737.02 1093.77 1767.85 1004.68C1779.37 971.377 1782.49 970.835 1810.69 992.559C1878.25 1044.59 1948.07 1093.14 2023.71 1133.07C2042.06 1142.76 2051.87 1142.16 2067.92 1126C2093.48 1100.29 2104.49 1068.83 2117.07 1037.2C2127.67 1010.55 2140.02 984.413 2148.3 957.052C2169.33 887.587 2210.35 842.109 2292.72 836.608C2227.74 768.134 2224.89 682.996 2211.15 598.829C2156.94 612.437 2146.31 569.921 2129.09 537.346C2120.69 521.451 2127.52 506.089 2141.88 495.965C2226.03 436.602 2319.54 404.41 2422.71 407.336C2452.23 408.173 2482.03 418.131 2511.65 423.995C2540.74 429.753 2562.32 449.676 2580.1 473.165C2571.09 437.316 2543.67 419.763 2511.51 410.422C2484.37 402.541 2477.68 383.29 2472.23 360.462C2475.51 359.324 2478.21 357.856 2478.61 358.328C2498.25 381.604 2527.19 389.16 2552.39 403.268C2599.84 429.823 2616.4 475.446 2605.83 540.647C2595.14 606.561 2575.83 670.317 2556.58 734.045C2549.47 757.587 2540.44 760.233 2520.58 745.959C2505.81 735.345 2497.14 718.179 2480.53 710.469C2483.61 694.957 2497.64 692.079 2504.87 682.938C2513.37 672.193 2526.08 661.142 2513.96 647.019C2503.78 635.151 2490.59 639.608 2479.06 648.106C2475.49 650.739 2471.42 652.686 2467.04 655.259C2435.84 608.033 2404.34 562.539 2394.65 506.402C2392.11 491.693 2383.9 488.811 2370.63 493.067C2326.55 507.204 2282.74 521.997 2241.01 542.295C2233.36 546.017 2226.68 549.926 2228.02 560.869C2236.11 626.846 2240.94 693.512 2267.31 755.709C2286.07 799.96 2316.96 833.593 2360.44 854.469C2377.16 862.496 2388.46 872.632 2395.01 891.026C2400.45 906.287 2411.97 919.508 2421.46 933.172C2439.59 959.285 2444.29 960.237 2464.82 937.002C2489.94 908.584 2513.4 878.711 2537.64 849.522C2544.56 841.198 2549.43 830.412 2562.03 828.339C2571.95 832.152 2572.24 840.525 2571.88 848.94C2568.86 919.295 2545.37 982.699 2506.2 1040.64C2499.54 1050.5 2492.96 1062.12 2478.93 1061.66C2463.38 1061.16 2462.21 1046.39 2457.05 1036.15C2451.41 1024.93 2450.47 1011.3 2438.84 1001.12C2430.6 1012.97 2423.14 1024.43 2414.9 1035.3C2408.49 1043.77 2404.47 1057.74 2391.1 1055.32C2378.59 1053.06 2377.04 1039.06 2373.31 1029.06C2358.7 989.898 2356.23 949.512 2366.13 909.028C2370.1 892.789 2366.83 884.71 2351.45 876.426C2285.75 841.046 2211.95 865.105 2183.34 934.068C2164.9 978.495 2148.65 1023.83 2131.6 1068.83C2130.71 1071.17 2131.48 1074.15 2131.48 1084.04C2175.26 1058.03 2218.53 1056.96 2261.73 1081.94C2269.35 1054.41 2259.58 1028.67 2280.16 1003.15C2287.35 1041.44 2281.46 1077.11 2298.82 1111.96C2233.78 1088.82 2171.05 1072.68 2112.22 1121.11C2093.95 1136.16 2078.29 1152.87 2069.95 1175.07C2061.02 1198.86 2050.4 1222.54 2052.23 1251.44C2073.74 1247.57 2078 1231.1 2084.29 1217.81C2095.75 1193.59 2110.58 1173.05 2136.17 1162.55C2144.51 1159.13 2155.18 1153.92 2160.47 1165.31C2165.53 1176.22 2154.49 1179.39 2147.1 1182.14C2124.45 1190.57 2111.73 1208.16 2102.29 1228.92C2096.51 1241.62 2090.69 1254.27 2080.33 1263.98C2068.88 1274.7 2055.93 1282.05 2040.34 1273.35C2025.92 1265.29 2024.69 1251.16 2027.57 1236.83C2030.66 1221.43 2034.49 1206.13 2038.99 1191.08C2042.1 1180.71 2041.26 1173.39 2030.37 1168.44C1948.87 1131.41 1876.01 1080.8 1806.25 1025.35C1804.19 1023.71 1801.21 1023.25 1798.25 1022.08C1796.02 1023.53 1792.66 1024.47 1791.76 1026.5C1756.49 1105.82 1692.94 1159.38 1624.96 1208.5C1603.76 1223.83 1587.74 1238.92 1588.42 1268.43C1588.86 1287.26 1581.65 1306.47 1576.52 1325.14C1574.3 1333.25 1572.63 1344.06 1555.94 1343.93C1553.2 1313.83 1576.55 1286.76 1567.65 1252.19C1496.08 1297.52 1427.75 1343.93 1351.83 1386.39C1370.77 1390.35 1383.47 1384.22 1396.66 1382.64C1413.27 1380.65 1430.81 1377.98 1440.96 1396.4C1451.25 1415.06 1447.98 1433.96 1433.25 1447.25C1418.48 1460.6 1419.72 1470.84 1430.78 1484.42C1445.09 1502 1450.9 1525.74 1469.68 1540.7C1484.23 1532.58 1490.47 1518.35 1500.65 1507.88C1560.96 1445.8 1637.28 1417.22 1720.38 1405C1864.94 1383.75 1995.9 1415.81 2110.41 1509.06C2212.25 1591.98 2221.53 1712.81 2132.83 1810.66C2084.43 1864.05 2025.98 1901.25 1956.33 1921.08C1934.88 1927.18 1909.77 1925.62 1894.82 1948.16C1891.18 1953.64 1882.71 1950.54 1876.41 1949.02C1859.07 1944.83 1841.54 1944.54 1823.99 1946.96C1815.06 1948.18 1804.59 1953.38 1800.31 1940.95C1796.39 1929.55 1806.92 1924.98 1813.97 1919.4C1830.65 1906.18 1847.82 1893.55 1864.09 1879.84C1871.31 1873.77 1882.13 1868.91 1878.19 1851.42C1837.09 1861.03 1805.31 1884.49 1775.62 1911.97C1745.67 1939.7 1728.05 1976.75 1706.08 2009.93C1689.93 2001.61 1696.63 1991.18 1699.42 1983.98C1708.1 1961.56 1700.25 1942.18 1690.95 1922.8C1687.77 1916.17 1683.76 1908.76 1675.21 1908.77C1664.6 1908.77 1661.6 1918.13 1659.95 1925.95C1652.54 1961.2 1646.02 1996.63 1639.09 2031.98C1632.71 2064.55 1626.22 2097.09 1619.3 2132.02C1645.22 2139.63 1671.33 2145.42 1694.85 2157.89C1716.19 2169.2 1737.03 2181.87 1753.02 2200.07C1765.21 2213.93 1775.75 2211.94 1788.87 2202.86C1821.98 2179.93 1851.03 2152.96 1871.82 2118.24C1883.05 2099.48 1893.28 2083.4 1913.37 2108.49C1927.09 2099.18 1929.91 2086.61 1931.45 2073.68C1934.02 2052.04 1925.63 2040.21 1902.27 2040.42C1889.23 2040.54 1875.07 2044.42 1862.16 2035.16C1883.74 2015.98 1917.91 2010.29 1936.64 2023.45C1960.09 2039.93 1959.33 2064.24 1953.73 2088.71C1947.8 2114.61 1936.56 2137.3 1905.49 2136.86C1892.66 2136.67 1887.25 2143 1881.01 2151.09C1869.99 2165.39 1858.84 2179.59 1847.55 2194.1C1861.3 2204.28 1871.29 2196.47 1880.79 2192.39C2068.6 2111.83 2245.56 2011.69 2414.34 1896.72C2429.14 1886.64 2432.36 1878.2 2421.5 1863.39C2394.6 1826.7 2380.12 1785.14 2376.15 1739.91C2375.56 1733.13 2373.14 1727.53 2368.64 1722.49C2351.85 1703.71 2351.68 1687.07 2369.03 1666.4C2387.31 1644.64 2381.97 1615.66 2381.24 1589.14C2381 1580.23 2371.37 1579.15 2365.07 1575.74C2298.02 1539.4 2292.5 1497.8 2336.44 1436.23C2385.16 1367.96 2461.8 1354.8 2530.88 1326.94C2587.54 1304.09 2647.16 1299.88 2707.91 1314.39C2782.37 1332.17 2834.44 1376.78 2870.35 1442.61C2872.97 1447.42 2875.45 1452.3 2878.14 1457.07C2878.35 1457.44 2879.68 1457.2 2880.48 1457.24C2868 1376.79 2781.23 1299.3 2695.07 1284.56C2631.2 1273.64 2574.68 1295.58 2516.28 1312.17C2500.36 1316.7 2483.94 1322.85 2471.54 1298.67C2502.61 1307.16 2526.57 1292.3 2549.6 1281.19C2646.38 1234.52 2796.09 1263.85 2863.31 1362.77C2865.82 1366.46 2868.18 1370.75 2877.12 1370.74C2883.82 1341.81 2889.6 1312.19 2877.47 1282.9C2864.06 1250.55 2860.04 1217.22 2859.43 1182.65C2858.37 1121.71 2866.83 1060.46 2854.36 999.852C2845.85 958.526 2831.69 919.793 2802.45 888.003C2761.9 843.918 2713.14 823.607 2652.95 835.45C2644.87 837.039 2636.67 837.972 2628.5 839.064C2627.8 839.158 2626.96 838.153 2624.76 836.761C2625.57 824.315 2636.41 823.11 2645.18 819.965C2705.81 798.216 2772.69 816.966 2819.06 867.776C2861.67 914.472 2880.1 971.112 2884.5 1032.28C2887.82 1078.38 2887.25 1124.86 2881.44 1170.96C2878.11 1197.35 2880.41 1224.18 2891.6 1247.08C2913.55 1292 2908.82 1336.97 2899.48 1382.6C2895.42 1402.49 2897.18 1420.49 2904.3 1439.46C2921.02 1484.03 2929.77 1530.05 2924.71 1578.09C2919.08 1631.59 2940.17 1677.75 2966.03 1722.28C2998.72 1778.58 3039.13 1829.35 3081.92 1878.03C3120.66 1922.09 3136.69 1967.64 3102.51 2021.42C3088.62 2043.26 3104.61 2059.03 3115.97 2073.5C3144.57 2109.92 3175.78 2144.72 3195.38 2186.98C3243.04 2289.74 3318.66 2368.27 3406.03 2437.51C3445.16 2468.52 3469.83 2507.07 3458.86 2560.23C3456.78 2570.36 3460.73 2577.96 3467.18 2585.38C3499 2621.92 3516.9 2665.07 3527.14 2714.33ZM3207 2251.61C3174.02 2183.85 3129.03 2124.27 3081.43 2065.96C3078.49 2067.5 3075.6 2068.25 3073.86 2070.08C3070.04 2074.07 3066.58 2078.46 3063.35 2082.96C3000.91 2170 2919.16 2230.97 2817.25 2264.25C2761.88 2282.34 2706.32 2302.24 2646.61 2292.97C2596.16 2285.14 2579.85 2260.73 2593.27 2211.2C2600.26 2185.43 2595.43 2165.9 2576.56 2148.79C2551.58 2126.14 2538.83 2098.53 2543.12 2064.65C2546.37 2038.98 2534.68 2032.57 2511.18 2034.5C2428.28 2041.32 2364.76 2083.29 2312.76 2144.49C2279.69 2183.4 2244.56 2219.87 2206.83 2254.22C2185.12 2273.99 2158.25 2279.94 2132.28 2289.08C2127.61 2290.72 2123 2289.87 2119.86 2285.67C2115.87 2280.35 2117.62 2275.17 2121.23 2270.49C2126.62 2263.49 2134.06 2260.66 2142.68 2259.17C2154.02 2257.21 2166.58 2256.6 2174.44 2240.83C2143.8 2232.69 2136.16 2209.45 2130.62 2182.76C2127.34 2166.95 2116.73 2152.73 2109.94 2137.56C2104.13 2124.59 2096.03 2122.16 2083.38 2128.66C2011.74 2165.48 1939.16 2200.34 1864.45 2230.56C1848.63 2236.96 1844.08 2247.43 1847.94 2263.47C1855.49 2294.91 1861.56 2326.74 1869.93 2357.95C1879.66 2394.22 1894.49 2427.68 1927.75 2449.7C1943.09 2459.86 1949.59 2476.7 1955.88 2493.33C1981.44 2560.91 2033.35 2597.22 2106.27 2598.72C2156.45 2599.75 2206.39 2593.38 2254.88 2583.27C2348.52 2563.73 2429.89 2515.51 2508.72 2463.11C2517.42 2457.33 2524.3 2444.7 2538.11 2450.22C2539.05 2460.15 2532.74 2463.92 2527.67 2467.04C2503.32 2482.04 2506.42 2499.13 2520.07 2520.38C2539.46 2550.54 2565.07 2573.98 2592.21 2596.62C2630.7 2628.72 2669.12 2661.26 2680.88 2713.86C2682.98 2723.26 2690 2729.89 2697.26 2735.75C2731.67 2763.51 2752.95 2799.15 2763.77 2841.93C2774.53 2884.46 2805.76 2901.03 2853.62 2889.05C2842.91 2861.57 2846.69 2828.76 2816.31 2809.62C2809.16 2805.13 2802.64 2795.66 2800.82 2787.39C2793.89 2755.8 2774.35 2733.61 2752.33 2711.65C2739.19 2698.54 2723.16 2685.07 2724.77 2662.23C2752.33 2701.64 2803 2722.12 2814.11 2774.82C2815.71 2782.4 2820.9 2791.67 2827.22 2795.35C2851.18 2809.32 2858.46 2832.21 2866.32 2856.43C2878.09 2892.67 2888.29 2899.26 2922.94 2891.92C3047.67 2865.47 3168.41 2827.21 3276.46 2757.54C3346.97 2712.08 3404.15 2653.78 3433.51 2572.44C3446.89 2535.38 3438.6 2502.99 3413.37 2474.71C3402.41 2462.41 3389.16 2451.76 3375.63 2442.22C3305.52 2392.75 3250.18 2330.33 3207 2251.61ZM1368.51 1940.75C1342.87 1924.17 1316.7 1908.37 1291.74 1890.83C1260.64 1868.96 1259.78 1846.88 1287.47 1820.33C1307.24 1801.39 1331.71 1789.88 1356.37 1779.48C1404.28 1759.26 1440.48 1731.88 1433 1672.18C1432.01 1664.28 1434.44 1655.49 1437 1647.67C1448.82 1611.5 1432.59 1588.92 1402 1572.91C1392.42 1588.39 1403.26 1614.46 1377.2 1622.93C1375.04 1619.26 1372.27 1616.76 1372.59 1614.76C1377.77 1582.52 1381.59 1550.65 1362.14 1520.99C1358.88 1516.01 1361.53 1510.09 1367.39 1507.15C1373.25 1504.21 1378.65 1506.23 1382.14 1510.95C1388.17 1519.1 1392.39 1528.76 1399.11 1536.21C1413.18 1551.79 1421.35 1573.97 1451.07 1583.88C1444.22 1531.51 1414.3 1498.96 1385.33 1466.59C1352.31 1429.71 1303.67 1446.09 1259.71 1438.55C1270.94 1422.73 1286.03 1428.52 1296.09 1418.34C1264.34 1415.41 1231.98 1400.23 1204.86 1413.17C1149.57 1439.57 1116.04 1488.36 1090.39 1546C1147.18 1563.68 1178.16 1624.9 1241.27 1617.35C1245.44 1632.96 1231.36 1638.94 1233.88 1649.87C1258.93 1661.07 1273.71 1653.55 1276.28 1628.59C1278.38 1608.17 1271.53 1586.99 1280.17 1565.61C1297.35 1587.17 1302.94 1639.38 1290.15 1657.25C1276.99 1675.65 1257.29 1680.33 1236.05 1678.9C1221.83 1677.93 1210.02 1670.29 1208.54 1655.81C1205.72 1628.17 1181.4 1626.56 1164.48 1621.71C1145.62 1616.3 1144.2 1639.56 1138.38 1651.31C1119.35 1689.71 1097.42 1726.02 1068.27 1757.45C1048.46 1778.81 1036.73 1777.82 1014.47 1759.44C996.418 1744.54 978.928 1727.74 952.712 1722.57C947.972 1762.58 958.903 1799.81 958.388 1837.51C958.339 1841.16 962.212 1846.11 965.64 1848.36C989.825 1864.24 985.408 1884.16 972.208 1903.33C963.92 1915.38 959.075 1927.85 958.241 1941.77C956.621 1968.82 951.411 1995.05 940.855 2019.89C935.285 2033 938.635 2040.54 950.698 2046.64C969.683 2056.23 988.446 2066.29 1007.07 2076.56C1137.48 2148.51 1267.97 2220.33 1398.04 2292.91C1414.06 2301.85 1423.42 2300.23 1435.11 2285.95C1464.52 2250.07 1498.96 2220.03 1537.41 2193.14C1561.78 2176.1 1587.28 2150.6 1596.11 2123.6C1611.89 2075.36 1615.45 2023.12 1624.44 1970.71C1600.46 1974.23 1587.34 1989.57 1572.1 2000.82C1548.39 2018.32 1525.11 2022.53 1497.3 2008.59C1455.09 1987.46 1412.83 1966.55 1368.51 1940.75ZM2097.24 1528.17C2030.42 1471.94 1954.24 1435.77 1867.18 1426.35C1774.79 1416.35 1683.97 1422.7 1599.08 1465.45C1516.38 1507.11 1462.25 1571.42 1458.17 1666.27C1455.82 1720.85 1442.01 1763.91 1391.67 1790.27C1390.68 1790.79 1390.87 1793.56 1390.37 1795.98C1403.13 1806 1415.83 1821.79 1433.56 1814.43C1467.94 1800.15 1497.04 1776.65 1525.2 1752.56C1541.29 1738.79 1523.33 1723.19 1525.69 1708.17C1527.73 1695.19 1531.98 1684.83 1544.25 1679.56C1553.99 1675.38 1564.42 1674.23 1572.84 1682.38C1583.03 1692.25 1585.57 1704.02 1580.77 1717.95C1578.2 1725.43 1570.1 1731.41 1573.57 1740.76C1614.91 1750.54 1624.75 1744.09 1629.08 1706.14C1631.08 1688.63 1634.22 1670.78 1647.38 1657.66C1663.48 1641.59 1683.32 1636.33 1702.68 1649.63C1722.85 1663.48 1714.34 1681.91 1705.39 1699C1697.33 1714.4 1683 1724.94 1670.09 1739.57C1693.53 1747.61 1707.92 1743.46 1720.31 1724.9C1737.96 1698.47 1760.7 1676.62 1790.47 1663.57C1803.34 1657.93 1817.4 1651.67 1828.73 1664.97C1840.94 1679.29 1832.89 1693.04 1823.38 1705.04C1802.91 1730.89 1774.82 1744.29 1743.51 1751.8C1731.99 1754.57 1721.02 1759.1 1720.55 1772.21C1720.03 1786.84 1733.75 1785.03 1742.97 1787.13C1761.29 1791.29 1772.63 1802.04 1775.04 1820.67C1777.12 1836.69 1768.49 1846.84 1754.4 1853.12C1736.25 1861.22 1721.58 1854.23 1709.58 1841.25C1702.3 1833.37 1697.36 1823.32 1690.06 1812.28C1640.33 1832.26 1598.07 1861.72 1556.89 1892.76C1565.69 1909.2 1576.88 1916.18 1587.22 1923.74C1621.61 1948.86 1621.67 1948.68 1638.26 1909.65C1644.81 1894.26 1654.81 1883.23 1672.98 1881.92C1691.59 1880.58 1701.78 1891.04 1710.07 1905.76C1714.3 1913.29 1714.68 1923.96 1726.74 1927.71C1761.94 1885.44 1803.57 1850.82 1855.74 1830.63C1873.17 1823.88 1891.33 1821.43 1902.89 1839.85C1914.19 1857.88 1904.62 1873.24 1892.11 1887.15C1885.35 1894.67 1872.66 1897.96 1872.78 1915.36C1991.45 1897.11 2090.31 1852.14 2150.29 1743.59C2162.47 1721.53 2169.98 1697.88 2170.72 1672.29C2172.44 1612.46 2142.19 1568.72 2097.24 1528.17ZM1105.96 1017.97C1112.61 987.768 1109.5 957.078 1109.44 926.666C1109.4 907.183 1114.93 893.621 1131.39 882.554C1178.52 850.884 1204.09 805.187 1215.1 750.181C1225.96 695.962 1218.29 641.297 1220.21 586.874C1220.75 571.354 1212.23 566.689 1197.79 569.179C1198.46 579.999 1209.03 586.847 1202.92 597.173C1191.86 605.293 1182.33 590.524 1168.47 596.04C1158.9 620.88 1163.84 648.396 1163.45 674.963C1163.41 677.811 1163.24 688.5 1163.24 688.5L1163 704C1157.43 715.283 1157.34 728.718 1165.67 735.233C1175.86 743.203 1177.33 751.522 1169.52 761.194C1161.78 770.773 1152.87 777.82 1144.75 772.829C1143.89 698.14 1136.05 627.106 1164.97 559.298C1148.07 551.421 1130.93 544.47 1114.84 535.613C1101.57 528.308 1095.13 531.616 1085.38 543.144C1046.4 589.213 1007.73 634.841 1003.77 699.044C1003.74 699.618 1002.38 700.111 1001.63 700.682C996.876 702.329 992.68 701.051 988.546 698.499C974.945 690.1 959.262 683.975 950.373 701.72C941.864 718.706 957.554 728.089 969.438 736.716C978.017 742.943 991.004 743.677 994.604 758.401C975.535 774.643 958.317 799.715 934.317 803.171C906.985 807.107 899.684 823.832 884.982 844.008C923.765 851.804 929.342 878.138 932.78 909.746C938.952 966.488 959.265 1019.09 991.158 1066.89C1003.99 1086.12 1020.96 1099.9 1043.14 1106.31C1062.92 1112.02 1081.36 1106.46 1092.18 1089.75C1103.47 1072.29 1083.23 1065.8 1074.41 1057.63C1026.45 1013.19 986.067 963.032 954.768 905.618C942.532 883.173 942.25 880.254 949.774 862.685C986.129 933.206 1032.87 993.564 1093.55 1041.54C1102.96 1035.14 1103.5 1028.46 1105.96 1017.97ZM2529.55 1949.87C2550 1957.95 2562.78 1950.51 2559.94 1930.59C2558.3 1919.03 2552.93 1907.75 2547.9 1896.97C2534.62 1868.55 2518.56 1841.24 2507.47 1812.03C2496.99 1784.39 2495.31 1757.21 2524.42 1735.31C2542.67 1721.59 2549.2 1698.84 2547.69 1675.54C2547.02 1665.32 2543.06 1655.24 2532.94 1650.33C2521.76 1644.91 2513.74 1652.66 2505.63 1658.69C2499.15 1663.51 2496.25 1672.85 2483.59 1674.13C2462.58 1646.05 2451.39 1612.59 2442.22 1577.82C2433.03 1542.95 2431.53 1507.18 2428.8 1471.38C2410.23 1542.04 2410.39 1614.31 2402.09 1685.59C2392.11 1771.39 2425.05 1840.66 2485.32 1899.3C2500.52 1914.09 2516.6 1928.19 2529.55 1949.87ZM2215.45 2212.56C2231.62 2196.11 2248.83 2180.53 2263.76 2163.01C2292.51 2129.24 2320.39 2094.95 2356.84 2068.63C2409.15 2030.84 2408.88 2030.41 2386.55 1970.8C2385.33 1967.55 2382.74 1964.83 2381.13 1962.38C2378.95 1962.38 2377.83 1962.03 2377.14 1962.43C2296.35 2008.79 2215.6 2055.21 2134.83 2101.6C2123.28 2108.23 2125.24 2117.37 2128.64 2127.95C2136.24 2151.57 2149.64 2172.72 2154.04 2197.98C2157.38 2217.1 2194.87 2226.39 2215.45 2212.56ZM1210.03 2381.95C1238.4 2395.2 1266.85 2408.29 1295.07 2421.85C1301.62 2425 1307.3 2425.65 1313 2421C1345.04 2394.85 1373.9 2365.88 1398.28 2328.05C1327.65 2288.72 1259.7 2250.89 1191.37 2212.84C1180.72 2228.82 1182.54 2244.23 1178.48 2257.99C1174.35 2271.99 1165.36 2284.73 1162.41 2298.84C1151.05 2353.2 1140.99 2339.8 1192.11 2371.61C1196.8 2374.53 1201.66 2377.2 1210.03 2381.95ZM903.25 2083.76C883.674 2100.52 863.241 2116.41 844.797 2134.34C830.401 2148.34 814.592 2164.17 828.621 2187.15C841.592 2208.4 896.363 2210.29 912.226 2191.18C932.877 2166.3 941.374 2136.34 950.5 2106.27C955.391 2090.16 955.245 2078.53 939.175 2068.69C921.598 2057.93 914.268 2069.53 903.25 2083.76ZM2510.08 1960.23C2501.95 1943.93 2487.17 1933.94 2474.14 1922.29C2464.57 1913.73 2455.84 1902.31 2441.27 1914.43C2425.75 1927.36 2399.43 1934.95 2409.78 1962.52C2417.36 1982.74 2425.91 2002.43 2427 2026.89C2465.84 2016.54 2501.6 2010.02 2538.9 2014.3C2557.16 2016.4 2558.32 2002.88 2553.9 1988.17C2535.64 1986.55 2525.84 2007.24 2507 2003.97C2505.97 1989.41 2521.31 1977.78 2510.08 1960.23ZM1553.39 1823.06C1537.42 1836.12 1516.84 1843.49 1503.62 1861.23C1522.65 1880.75 1539.77 1880.7 1560.32 1865.25C1582.37 1848.67 1606.39 1834.56 1630.24 1820.56C1647.72 1810.29 1666.29 1801.9 1684.4 1792.73C1692.41 1788.67 1698.1 1782.66 1697.59 1773.34C1696.92 1761.16 1686.19 1764.69 1679.03 1761.79C1653.05 1751.27 1634.14 1761.69 1614.86 1778.44C1596.82 1794.11 1576.18 1806.79 1553.39 1823.06ZM1463.16 1841.87C1471.39 1845.91 1479.95 1852.22 1489.09 1846.61C1527.74 1822.85 1565.36 1797.61 1598.72 1765.67C1579.55 1767.27 1561.97 1748.12 1545.06 1760.72C1516.99 1781.64 1489.67 1803.41 1458.77 1820.22C1446.26 1827.02 1449.23 1834.04 1463.16 1841.87ZM1154.86 981.39C1150.33 959.462 1147.46 936.906 1132.03 916.772C1123.09 928.446 1124.64 939.7 1124.39 950.448C1123.63 984.491 1125.49 1018.66 1120.33 1052.49C1118.51 1064.45 1118.03 1076.32 1132.05 1079.1C1145.45 1081.77 1151.65 1070.3 1155.16 1059.68C1163.2 1035.38 1160.47 1010.65 1154.86 981.39ZM1650.35 1686.59C1646.14 1698.83 1643 1710.99 1652.52 1724.2C1670.92 1717.49 1682.35 1704.83 1690.83 1689.17C1694.6 1682.2 1701.19 1674.17 1693.33 1666.56C1684.9 1658.39 1673.98 1659.68 1665.22 1665.63C1659.54 1669.49 1656.26 1676.89 1650.35 1686.59ZM1490.22 961.712C1488.77 941.433 1473.02 945.589 1461.17 946.069C1447.81 946.609 1439.28 955.557 1436.34 968.524C1434.2 977.945 1439.03 984.499 1447.61 988.385C1462.47 995.121 1472.29 986.304 1481.54 976.884C1484.69 973.68 1486.5 969.171 1490.22 961.712ZM1790.95 1710.77C1799.51 1702.47 1811.6 1696.41 1811.94 1677.96C1780.92 1687.27 1761.25 1704.43 1742.91 1730.71C1763.7 1729.76 1775.62 1721.14 1790.95 1710.77ZM1397.28 1407.62C1383.77 1409.16 1369.75 1408.99 1356.46 1420.02C1369.29 1426.1 1380.33 1432.58 1392.21 1436.61C1404.87 1440.91 1414.88 1433.86 1418.3 1422.36C1422.26 1409 1411.32 1407.8 1397.28 1407.62ZM1137.77 1366.5C1139.07 1385.5 1149.95 1382.25 1163.24 1377.87C1160.12 1360.81 1156.38 1345.66 1145.89 1332.54C1131.57 1341.17 1136.79 1352.49 1137.77 1366.5ZM1748 1832.71C1756.03 1825.95 1756.2 1817.98 1748.35 1812.06C1739.3 1805.24 1728.89 1802.54 1719 1813.8C1722.7 1827.03 1728.01 1837.49 1748 1832.71ZM1541.97 1717.02C1543.44 1722.43 1545.97 1730.02 1552.2 1725.78C1561.36 1719.57 1567.84 1710.18 1559.26 1698.6C1546.55 1697.14 1544.82 1705.98 1541.97 1717.02Z" fill="black"/>
<path d="M2531.74 1151.63C2568.3 1171.53 2603.06 1190.43 2639.13 1210.05C2665.04 1171.45 2624.23 1131.21 2645.94 1092.09C2667.85 1144.18 2657.77 1199.61 2680.1 1248.12C2673.67 1253.57 2668.08 1249.35 2662.44 1246.41C2609.12 1218.62 2555.21 1191.87 2502.76 1162.53C2477.79 1148.56 2453.99 1141.88 2426.27 1151.34C2407.73 1157.67 2388.42 1159.44 2364.2 1153.48C2382.78 1217.93 2371.45 1272.73 2321.75 1315.25C2337.98 1352.73 2338.97 1352.75 2373.35 1334.63C2400.41 1320.38 2428.34 1309.54 2461.19 1326.95C2394.11 1337.89 2343.68 1373.89 2302.68 1434.38C2298.62 1410.35 2308.63 1400.9 2314.97 1390.48C2326.86 1370.9 2318.4 1337.56 2296.18 1333C2277.46 1329.15 2257.39 1320.99 2236.97 1331.13C2218.95 1340.08 2202.55 1333.62 2188.77 1320.64C2174.02 1306.76 2173.01 1289.71 2180.71 1272.18C2194.12 1241.6 2212.51 1215.85 2247.57 1203.9C2250.4 1220.22 2240.36 1224.38 2234.57 1230.82C2220.24 1246.74 2207.41 1263.42 2200.05 1283.94C2196.19 1294.73 2199.51 1302.5 2208.78 1307.19C2220.17 1312.95 2224.72 1307.18 2227.78 1295.75C2231.91 1280.32 2242.16 1283.07 2250.16 1292.42C2269.73 1315.28 2287.92 1308.62 2307.38 1292.25C2354.67 1252.49 2362.33 1189.14 2325.66 1137.88C2320.11 1130.13 2307.76 1122.43 2316.84 1111.97C2325.33 1102.18 2339.82 1106.32 2347.57 1112.76C2376.24 1136.6 2406.78 1133.72 2439.27 1124.46C2474.56 1114.41 2501.09 1137.09 2531.74 1151.63Z" fill="black"/>
<path d="M989.877 406.862C983.467 415.686 988.268 427.825 975.764 433.061C963.884 417.564 972.499 403.714 980.069 391.09C1009.19 342.531 1073.48 319.841 1136.84 337.74C1194.2 353.945 1238.46 393.576 1286.1 426.83C1288.52 428.519 1289.05 432.916 1291.09 437.443C1275.8 442.509 1266.89 432.561 1257.52 426.613C1231.73 410.254 1207.01 392.204 1181.06 376.126C1133.6 346.727 1083.71 342.824 1032.62 365.962C1014.61 374.119 999.939 386.918 989.877 406.862Z" fill="black"/>
<path d="M2149.45 447.087C2230.79 381.929 2321.31 352.371 2423.86 365.073C2449.74 368.279 2457.6 375.788 2467.46 396.483C2466.16 397.625 2464.28 399.985 2463.59 399.677C2363.36 355.017 2275.31 395.904 2187.65 438.949C2177.74 443.814 2168.79 450.605 2158.96 455.655C2152.45 458.999 2145.68 460.084 2149.45 447.087Z" fill="black"/>
<path d="M2325.57 687.196C2314.45 668.48 2328.45 665.991 2339.99 662.479C2352.63 704.012 2363.57 663.76 2362.36 707.846C2361.94 722.951 2362.42 735.685 2380.91 739.185C2386.73 740.286 2391.13 744.706 2389.52 751.247C2387.66 758.804 2381.02 760.918 2374.26 760.285C2352.45 758.245 2339.97 747.62 2342.89 724.012C2344.77 708.816 2344.97 694.495 2325.57 687.196Z" fill="black"/>
<path d="M349.505 1753.54C349.317 1743.93 348.412 1736.3 350.083 1729.29C356.743 1701.32 386.528 1682.95 378.83 1648.84C393.511 1671.44 392.777 1687.41 380.516 1704.54C358.47 1735.34 358.394 1749.35 380.476 1781.97C383.569 1786.53 389.905 1791.95 386.877 1796.3C373.807 1815.07 384.752 1835.37 383.185 1856.68C362.929 1850.84 358.84 1833.17 361.83 1821.68C368.349 1796.64 357.975 1776.95 349.505 1753.54Z" fill="black"/>
<path d="M503.029 1531.3C487.529 1549.04 481.168 1569.2 474.395 1591.78C436.448 1574.9 427.028 1611.05 407.033 1630.28C401.278 1607.06 414.298 1582.13 439.291 1573.28C458.483 1566.48 469.136 1554.99 478.68 1538.2C487.208 1523.2 497.497 1506.93 519.559 1506.51C519.979 1519.56 508.85 1522.37 503.029 1531.3Z" fill="black"/>
<path d="M1826.7 1267.95C1843.47 1278.41 1861.17 1284.34 1873.42 1300.64C1847.43 1305.89 1736.35 1237.99 1717.28 1202.56C1757.26 1226.44 1791.11 1246.67 1826.7 1267.95Z" fill="black"/>
<path d="M1778.35 1199.19C1771.83 1175.88 1780.21 1161.31 1799.96 1151.64C1808.11 1161.49 1795.78 1168.34 1798.67 1174.65C1830.82 1200.24 1862.35 1224.35 1896.98 1244.81C1854.02 1239.32 1822.36 1205.25 1778.35 1199.19Z" fill="black"/>
<path d="M2161.6 1223.85C2154.08 1238.17 2151.97 1251.73 2150.48 1265.51C2149.87 1271.21 2146.96 1276.44 2140.83 1277.56C2134.29 1278.76 2130.98 1274.1 2128.76 1268.64C2116.21 1237.75 2160.46 1178.71 2195.09 1182.39C2189.78 1200.57 2170.38 1206.76 2161.6 1223.85Z" fill="black"/>
<path d="M2309.8 548.248C2322.24 518.387 2345.92 534.465 2364.62 533.859C2378.29 533.416 2392.01 539.876 2390.28 563.531C2363.56 555.761 2334.72 573.894 2309.8 548.248Z" fill="black"/>
<path d="M1747.83 1308.19C1723.53 1295.61 1701.2 1283.81 1687.78 1260.08C1727.24 1278.26 1765.52 1298.14 1804.23 1329.96C1776.54 1333.6 1764.63 1317.56 1747.83 1308.19Z" fill="black"/>
<path d="M1918.67 1986.36C1890.26 1987.77 1863.6 1987.77 1834.69 1987.77C1850.74 1963.82 1902.71 1956.26 1919.49 1972.35C1923.16 1975.88 1923.1 1980.53 1918.67 1986.36Z" fill="black"/>
<path d="M713.014 1441.07C708.529 1445.78 704.273 1448.66 702.549 1452.65C690.456 1480.57 673.048 1475.9 647.013 1457.83C679.537 1448.7 701.554 1429.14 729.933 1414.23C731.245 1432.02 719.042 1432.99 713.014 1441.07Z" fill="black"/>
<path d="M754.009 1365.01C775.601 1344.31 796.22 1325.66 822.958 1316.7C824.524 1318.81 826.09 1320.93 827.657 1323.04C797.017 1348.35 766.378 1373.65 732.053 1402C731.531 1381.14 745.292 1375.8 754.009 1365.01Z" fill="black"/>
<path d="M2373.48 800.995C2362.03 798.788 2353.63 795.706 2354.47 781.6C2370.94 780.883 2391.48 785.275 2392.87 758.952C2393.16 753.508 2398.65 752.183 2403.57 753.709C2409.73 755.616 2412.84 760.249 2410.65 766.457C2404.63 783.568 2396.48 798.863 2373.48 800.995Z" fill="black"/>
<path d="M755.206 1331.95C748.41 1336.34 743.862 1341.42 736.474 1340C744.448 1315.85 777.966 1295.74 814.969 1294.65C799.071 1315.89 773.742 1317.07 755.206 1331.95Z" fill="black"/>
<path d="M1098.8 1163.58C1105.64 1169.55 1106.89 1175.76 1106.33 1182.34C1105.55 1191.65 1100.11 1197.74 1091.31 1199.79C1083.21 1201.68 1076.64 1197.7 1073.34 1190.39C1069.48 1181.87 1072.36 1174.28 1079.26 1168.23C1084.29 1163.81 1089.99 1161.26 1098.8 1163.58Z" fill="black"/>
<path d="M1994.58 411.02C1986.39 398.516 1990.41 391.769 2002.02 396.693C2020.21 404.404 2035.94 416.716 2054.27 437.782C2024.8 438.672 2012.4 420.863 1994.58 411.02Z" fill="black"/>
<path d="M1070.58 1270.47C1056.41 1269.6 1049.67 1262.99 1051.64 1250.62C1053.24 1240.52 1060.46 1234.5 1070.59 1232.97C1076.42 1232.08 1082.12 1233.58 1083.75 1240.19C1086.8 1252.5 1087.96 1264.48 1070.58 1270.47Z" fill="black"/>
<path d="M1989.67 528.762C1980.93 531.647 1973.92 535.665 1965.69 524.499C1986 507.766 2008.03 501.814 2039.63 502.923C2023.53 521.519 2004.86 519.469 1989.67 528.762Z" fill="black"/>
<path d="M1041.84 1340.66C1027.67 1332.14 1029.11 1322.1 1036.35 1311.76C1041.04 1305.05 1048.36 1302.58 1056 1304.74C1066.58 1307.74 1065.51 1318.22 1065.24 1325.57C1064.78 1338.17 1055.47 1342.23 1041.84 1340.66Z" fill="black"/>
<path d="M1249.75 1345.16C1251.37 1322.77 1283.17 1302.29 1313.79 1307.48C1290.55 1321.57 1271.03 1333.41 1249.75 1345.16Z" fill="black"/>
<path d="M2013.06 632.944C2017.84 605.649 2042.77 598.591 2060.37 583.919C2051.09 606.279 2037.79 624.8 2013.06 632.944Z" fill="black"/>
<path d="M1318.13 1329.49C1324.28 1327.65 1328.72 1325.75 1335.62 1332.76C1319.41 1346.73 1301.11 1355.36 1280.19 1360.55C1286.32 1343.47 1301.79 1337.39 1318.13 1329.49Z" fill="black"/>
<path d="M3138.78 2467.13C3108.04 2427.04 3089.13 2382.77 3069.48 2338.99C3049.3 2294.04 3026.61 2250.95 2989.73 2216.98C2985.89 2213.44 2980.89 2209.7 2984.86 2200.67C3000.23 2202.95 3008.75 2215.23 3017.91 2225.61C3052.65 2264.96 3073.15 2312.82 3095.51 2359.35C3120.5 2411.35 3148.65 2460.69 3192.3 2499.8C3201.09 2507.67 3208.1 2517.92 3214.49 2527.98C3231.8 2555.22 3234.02 2592.13 3270.45 2607.55C3246.7 2615.04 3233.5 2601.2 3228.81 2587.26C3212.05 2537.46 3173.14 2505.49 3138.78 2467.13Z" fill="black"/>
<path d="M2704.43 2610.04C2653.14 2572.73 2594.29 2545.87 2563.02 2487.71C2559.09 2480.41 2548.62 2474.79 2555.29 2463.86C2557.38 2464.08 2560.09 2463.6 2560.72 2464.53C2594.87 2515.12 2640.32 2552.98 2692.4 2583.95C2700.31 2588.66 2712.28 2595.6 2704.43 2610.04Z" fill="black"/>
<path d="M2018.94 2379.98C2010.35 2401.94 2009.95 2425.01 1994.03 2443.45C1982.21 2399.1 2026.24 2310.18 2066.11 2303.57C2044.04 2324.65 2028.46 2349.4 2018.94 2379.98Z" fill="black"/>
<path d="M1991.21 2313.4C1980 2335.25 1969.86 2355.4 1958.4 2378.16C1950.56 2335.24 2005.35 2253.5 2045.98 2252.2C2022 2270.75 2005.07 2289.56 1991.21 2313.4Z" fill="black"/>
<path d="M1247.58 1993.85C1246.25 1997.24 1245.42 1999.15 1243.96 2000.06C1227.58 2010.32 1212.29 2021.95 1219.53 2044.24C1224.84 2060.57 1238.33 2069.63 1255.44 2070.14C1277.77 2070.8 1297.7 2064.02 1310.01 2043.83C1317.82 2031.03 1309.74 2021.21 1301.51 2011.88C1295.19 2004.73 1282.31 2003.33 1282.3 1988.69C1299.73 1980.78 1309.22 1992.83 1317.94 2003.85C1329.61 2018.59 1333.58 2035.12 1323.99 2052.88C1307.11 2084.13 1252.17 2096.49 1223.97 2075.18C1204.7 2060.62 1198.23 2040.28 1206.4 2018.61C1212.83 2001.57 1224.97 1986.73 1247.58 1993.85Z" fill="black"/>
<path d="M1114.07 1966.76C1110.15 1954.68 1103.79 1952.65 1094.21 1957.1C1087.16 1960.38 1080.17 1967.27 1067.27 1956.49C1101.83 1942.3 1113.24 1917.43 1092.11 1877.73C1119.25 1889.64 1112.58 1909.88 1123.09 1921.4C1135.61 1925.27 1147.51 1918.4 1159.98 1916.57C1165.71 1915.72 1171.37 1916.34 1173.3 1923.12C1174.81 1928.45 1171.57 1933.51 1167.19 1933.82C1121.07 1937.14 1128.15 1966.85 1134.9 1997.02C1136.02 2002.05 1136.09 2008.18 1128.72 2012.88C1114.91 2001.19 1117.35 1983.98 1114.07 1966.76Z" fill="black"/>
<path d="M1333.11 1635.15C1323.18 1605.02 1323.25 1574.97 1321.79 1541.8C1349.63 1561.25 1354.66 1610.7 1333.11 1635.15Z" fill="black"/>
<path d="M1398.69 2164.13C1380.97 2136.33 1382.72 2130.86 1410.43 2124.68C1414.35 2136.11 1413.79 2149.27 1422.09 2158.25C1416.4 2169.13 1408.79 2168.45 1398.69 2164.13Z" fill="black"/>
<path d="M1759.98 1560.17C1769.55 1554.57 1777.47 1549.28 1788.89 1560.44C1774.88 1581.93 1752.85 1593.51 1730.59 1615.27C1726.84 1582.71 1745.95 1574 1759.98 1560.17Z" fill="black"/>
<path d="M1684.34 1558.16C1686.65 1580.14 1665.99 1591.7 1666.77 1613.78C1648.57 1606.72 1646.92 1594.7 1651.21 1582.07C1656.14 1567.56 1660.88 1550.61 1684.34 1558.16Z" fill="black"/>
<path d="M1839 1592.2C1850.38 1587.78 1859.82 1584.46 1871.85 1594.61C1857.82 1613.75 1836.43 1617.12 1815.1 1627.66C1813.02 1605.65 1826.02 1600.03 1839 1592.2Z" fill="black"/>
<path d="M1591.39 1593.18C1608.23 1603.95 1608.23 1603.95 1603.97 1630.72C1582.86 1624.39 1580.67 1618.83 1591.39 1593.18Z" fill="black"/>
<path d="M1900.04 1659.84C1909.57 1661.34 1916.82 1662.7 1915.54 1674.27C1903.26 1680.86 1891.45 1679.96 1879.5 1672.84C1881.18 1659.99 1889.87 1660.49 1900.04 1659.84Z" fill="black"/>
<path d="M1135 805.231C1114.15 825.991 1096.89 827.516 1083.73 809.159C1074.58 796.404 1064.97 780.926 1085.72 769.41C1094.03 772.07 1094.22 777.888 1095.55 783.177C1099.42 798.503 1107.24 806.214 1123.11 796.427C1132.03 790.922 1136.99 791.483 1135 805.231Z" fill="black"/>
<path d="M1069.3 584.368C1083.8 565.997 1100.39 556.406 1122.63 559.858C1128.39 560.751 1133.07 563.227 1133.45 569.948C1133.75 575.246 1130.53 578.452 1126.1 580.25C1110.08 586.742 1094.27 593.96 1077.81 599.057C1066.2 602.653 1062.25 597.047 1069.3 584.368Z" fill="black"/>
<path d="M2501.63 1690.19C2508.76 1683.55 2514 1676.81 2525.73 1680.03C2520 1696.52 2512.94 1709.5 2497.54 1716.77C2487.66 1705.77 2495.76 1698.98 2501.63 1690.19Z" fill="black"/>
<circle cx="1088" cy="656" r="11" fill="black"/>
<circle cx="1197" cy="656" r="11" fill="black"/>
<path d="M1073.5 629.5C1079.5 626 1094.5 621.4 1106.5 631" stroke="black" stroke-width="8" stroke-linecap="round"/>
<path d="M1181 635.228C1187 631.728 1202 627.128 1214 636.728" stroke="black" stroke-width="8" stroke-linecap="round"/>
<circle cx="2390" cy="632" r="11" fill="black"/>
<circle cx="2273" cy="653" r="11" fill="black"/>
<path d="M2360 612.393C2370.33 606.059 2397 597.193 2421 612.393" stroke="black" stroke-width="8" stroke-linecap="round"/>
<path d="M2243 632.393C2253.33 626.059 2280 617.193 2304 632.393" stroke="black" stroke-width="8" stroke-linecap="round"/>
</svg>