<svg width="1366" height="1192" viewBox="0 0 1366 1192" fill="none" xmlns="http://www.w3.org/2000/svg">
<path d="M1015.87 186.933L1015.47 374L1007.2 374.4L998.933 374.8L998 383.6C997.6 388.4 997.466 400.133 998 409.6L998.933 426.666L994.133 432.666C982.8 446.4 983.466 464.666 995.733 476.266C1007.73 487.733 1031.33 486.533 1040.8 474.133C1050.93 460.8 1050.4 442 1039.6 432.133L1036.13 428.933V401.733V374.666H1028.13H1020.13L1019.87 296.266C1019.6 253.2 1019.73 168.933 1020 108.933C1020.53 8.26641 1020.4 -0.000253117 1018.4 -0.000253117C1016.27 -0.000253117 1016.13 13.9997 1015.87 186.933ZM1032.4 422.533C1032.93 427.6 1034.13 430.4 1037.33 434.133C1042.93 440.4 1044.13 443.866 1044.13 452.8C1044.13 469.866 1033.2 481.333 1017.07 481.333C1002.53 481.333 991.333 471.333 989.866 456.933C988.933 447.733 991.6 439.6 997.466 434C1000.8 430.8 1001.47 429.066 1001.47 423.733V417.333H1007.2C1012 417.333 1013.2 417.866 1015.07 421.066C1016.4 423.333 1016.93 425.466 1016.13 426.133C1014.8 427.466 1015.87 434.666 1017.47 434.666C1019.07 434.666 1020.4 429.333 1020.4 423.333C1020.4 416.266 1020.8 416 1026.67 416H1031.73L1032.4 422.533Z" fill="black"/>
<path d="M546.533 207.6L546.133 374L537.467 374.667L528.8 375.333L528.4 401.867L528.133 428.267L523.6 433.6C513.2 445.734 514.4 464.934 526.4 476.267C535.6 485.067 551.067 486.934 562.533 480.667C570 476.667 574 471.867 576.933 463.734C580.8 452.534 578.133 439.334 570.267 432.134L566.8 428.934V401.733V374.667H558.8H550.8L550.533 208.4C550.267 77.2001 549.733 42.1335 548.533 41.7335C547.2 41.2001 546.8 75.3335 546.533 207.6ZM562.8 422C562.8 426.534 563.6 428.934 566.667 432.267C572.667 439.2 574.8 444.534 574.8 452.667C574.8 469.6 563.867 481.334 548.133 481.334C531.467 481.334 520.267 470.134 520.133 453.6C520.133 445.067 522.4 439.334 528 434.134C531.467 430.8 532.133 429.2 532.133 423.734V417.334H538.533C544 417.334 545.067 417.734 546.533 420.934C547.333 422.934 547.6 425.067 547.067 425.6C545.333 427.334 546.933 434.667 548.933 434.667C550 434.667 550.933 433.334 551.067 431.6C551.2 430 551.333 427.2 551.467 425.334C552.133 415.467 551.733 416 557.467 416H562.8V422Z" fill="black"/>
<path d="M926.533 403.334C920.533 406.667 920.267 416 925.6 434.934C926.933 440.134 929.467 441.867 929.467 437.6C929.467 436.4 931.333 430.267 933.467 424C938.533 409.734 938.667 404.4 934 402.667C930 401.067 930.933 401.067 926.533 403.334Z" fill="black"/>
<path d="M938.399 439.6L943.999 440.133L944.799 447.067C945.199 450.933 945.733 456.933 945.866 460.667L946.133 467.333L932.666 467.733C916.799 468.133 917.866 469.2 916.533 451.733C916.133 444.8 915.199 440.4 914.533 441.067C913.199 442.4 915.333 466.933 916.933 469.467C917.599 470.533 922.399 470.8 932.399 470.4C948.666 469.733 949.866 469.067 948.799 461.333C948.533 458.8 947.866 452.667 947.333 447.6L946.533 438.667L939.599 438.933C933.066 439.067 933.066 439.2 938.399 439.6Z" fill="black"/>
<path d="M9.73333 443.333C4.13333 448 2.8 455.067 2.8 481.2C2.8 494.8 2.26667 504.133 1.46667 504.667C0.666667 505.067 0.133333 506.4 0.133333 507.467C0.133333 509.067 3.73333 509.333 21.2 509.333C32.6667 509.333 43.0667 510 44.1333 510.667C45.7333 511.6 46.2667 516.133 46.5333 534.667L46.9333 557.333H24.2667C3.86667 557.333 1.6 557.067 1.06667 554.933C0.666667 553.733 0.4 555.333 0.266667 558.533L0.133333 564.4L11.8667 563.467C18.2667 563.067 47.3333 562.267 76.4 561.867L129.467 560.933V563.867V566.667H87.0667C27.8667 566.667 0.133333 567.867 0.133333 570.4C0.133333 572 8 572.133 59.2 571.467C91.6 570.933 120.533 570.267 123.6 569.867L129.067 569.2L129.867 580.267C130.4 586.4 130.8 597.2 130.8 604.4C130.8 612.4 131.333 617.2 132.133 616.667C133.2 616 132.933 593.867 131.467 570.267C131.067 562.267 131.2 561.333 133.333 561.333C136.667 561.333 137.067 568 138.933 641.2C140.133 689.333 140.133 699.2 138.533 700.133C136.4 701.467 135.467 690.933 133.6 646.667L132.4 618L132.533 648.267C132.667 665.067 132.4 678.667 131.867 678.667C131.2 678.667 128.667 678.667 126 678.667H121.067L122 670C122.8 661.867 122.667 661.333 120.133 661.333C118 661.333 117.467 660.4 117.467 656.667C117.467 652.533 117.867 652 120.933 652H124.533L123.6 641.6C122 624.667 122.533 625.333 112.667 625.333C106.267 625.333 104.133 624.8 104.133 623.467C104.133 622.533 106.267 615.867 108.8 608.8C113.2 596.533 113.333 596 110.8 594.667C109.467 594 107.733 593.333 107.067 593.333C106.4 593.333 103.6 600.133 100.667 608.4L95.6 623.6L69.7333 624.533C55.4667 624.933 43.4667 625.2 43.2 624.8C42.9333 624.533 42.2667 620 41.8667 614.8L41.0667 605.333H36.6667C32.8 605.333 32.1333 604.933 32.1333 602.133C32.1333 596 30.8 594.667 24.8 594.667C17.8667 594.667 16.5333 597.067 18.6667 604.933C20.2667 610.667 20.5333 620 19.3333 623.333C18.8 624.533 16.9333 626.133 15.0667 626.8L11.7333 628.133L12.5333 654.667L13.3333 681.333H6.66667C1.46667 681.333 0.133333 681.733 0.133333 683.6C0.133333 685.6 3.33333 685.733 38.5333 684.933C106.933 683.333 132.8 683.467 133.2 685.733C133.467 687.2 126.4 687.733 88.5333 688.4C63.7333 688.933 33.7333 689.333 21.8667 689.333C3.46667 689.333 0.133333 689.6 0.133333 691.333C0.133333 693.067 5.46667 693.333 41.2 693.2C63.7333 693.067 93.6 692.667 107.733 692.133L133.2 691.333L134.133 708L135.067 724.667L130.933 732.533C125.467 742.667 125.467 748.267 130.933 753.6L134.933 757.733L135.733 779.6L136.533 801.467L132.933 805.2L129.2 809.067H100.533H71.8667L72.8 786.133C73.3333 773.6 73.8667 763.2 74 763.067C74 763.067 80.8 764 88.8 765.333C106.8 768.4 108.133 768.533 108.133 766.133C108.133 763.733 104.8 762.4 100.933 763.467C99.3333 763.867 87.7333 762.667 75.0667 760.8C59.3333 758.4 46.6667 757.333 34.4 757.333C14.6667 757.333 0.133333 758.533 0.133333 760C0.133333 760.667 3.73333 760.8 8.13333 760.4L16.1333 759.6V766.267C16.1333 769.867 15.7333 781.067 15.2 791.067L14.4 809.333H7.2C1.6 809.333 0.133333 809.733 0.133333 811.467C0.133333 813.467 5.73333 813.6 64.1333 813.067C121.467 812.667 128.133 812.8 127.867 814.667C127.467 816.4 123.067 816.8 97.4667 817.467C80.9333 818 52.2667 818.4 33.8667 818.533C10.2667 818.667 0.133333 819.067 0.133333 820.133C0.133333 821.2 4.93333 821.333 16.5333 820.8C25.4667 820.4 53.8667 819.733 79.6 819.2L126.533 818.4L118.4 846.533L110.267 874.667H93.8667C79.3333 874.667 77.4667 874.933 76.2667 877.067C75.4667 878.533 75.3333 881.333 76 883.467L76.9333 887.333L92.5333 887.733C105.067 888 108.133 888.4 108.133 890C108.133 891.6 104.667 892 89.8667 892.267L71.4667 892.667L71.0667 896.933L70.6667 901.333H59.3333H48.1333V914V926.667H27.4667C4.4 926.667 5.6 926 8.13333 936.667C8.8 939.6 10.2667 951.333 11.4667 962.667C12.5333 974 13.8667 985.067 14.1333 987.2L14.8 991.067L7.46667 990.133C0.666667 989.333 0.133333 989.467 0.133333 992C0.133333 994.533 0.933333 994.667 25.4667 994.667C47.0667 994.667 50.8 994.933 50.8 996.667C50.8 998.4 47.0667 998.667 25.4667 998.667C3.86667 998.667 0.133333 998.933 0.133333 1000.67C0.133333 1002.4 3.86667 1002.67 25.4667 1002.67H50.8V1025.07C50.8 1037.47 51.2 1056.8 51.7333 1068L52.5333 1088.27L33.3333 1088C7.33333 1087.47 0.133333 1087.73 0.133333 1089.33C0.133333 1090 2.66667 1090.67 5.86667 1090.67H11.4667L5.73333 1095.73L0 1100.67L0.4 1113.33L0.8 1126L8.8 1109.73C13.2 1100.8 17.2 1093.47 17.7333 1093.47C18.1333 1093.33 20.1333 1096.13 22.2667 1099.6C24.2667 1103.07 32.1333 1112.27 39.7333 1120.13L53.4667 1134.4V1147.73C53.4667 1162.67 53.4667 1162.67 64.5333 1162.67C69.0667 1162.67 69.4667 1162.93 68.1333 1165.2C65.7333 1169.87 66.5333 1176.8 70.2667 1181.2L73.7333 1185.33L37.8667 1185.6L2.13333 1185.87L28.8 1186.67C43.4667 1187.2 86.4 1187.73 124.133 1187.87C161.867 1188 197.333 1188.67 202.8 1189.2C208.267 1189.73 213.467 1189.87 214.133 1189.33C214.933 1188.8 284 1187.87 367.867 1187.33L520.267 1186.4L521.067 1189.2C522 1192.8 524.133 1192.8 525.067 1189.33C525.733 1186.67 526.533 1186.53 551.333 1187.2C641.067 1189.33 1190.8 1191.87 1286 1190.53C1329.2 1190 1364.8 1189.07 1365.2 1188.67C1365.6 1188.27 1365.6 1187.6 1365.2 1187.2C1364.8 1186.8 1337.07 1186.13 1303.6 1185.73C1270.13 1185.33 1242.8 1184.67 1242.8 1184.27C1242.8 1184 1240.4 1170.67 1237.47 1154.67C1234.53 1138.67 1231.6 1122.13 1230.93 1117.87C1230.27 1113.47 1226.67 1093.87 1222.93 1074.13C1216.8 1042.53 1216.27 1038 1218.13 1037.07C1219.2 1036.4 1220.13 1034.93 1220.13 1034C1220.13 1032.4 1217.87 1032 1209.2 1032H1198.27L1204.27 1028.27C1215.33 1021.2 1222.13 1010.13 1226.27 992.133C1228.4 983.467 1228.4 980 1226.4 940.933L1225.87 929.333H1258.8H1291.87L1292.67 942.933C1293.07 950.533 1294 1002.27 1294.8 1058C1295.6 1113.73 1296.53 1159.47 1296.93 1159.87C1297.2 1160.13 1300.8 1160.67 1304.93 1161.07C1311.07 1161.6 1312.13 1162 1311.33 1163.87C1306.8 1174.67 1311.6 1184 1321.73 1184C1329.07 1184 1333.47 1179.33 1333.47 1171.73C1333.47 1168.53 1332.8 1165.07 1332.13 1164C1331.07 1162.4 1332 1161.87 1337.2 1161.33L1343.47 1160.67L1345.07 1030C1345.87 958.133 1346.27 899.067 1345.87 898.667C1345.6 898.267 1339.87 897.733 1333.2 897.467L1321.2 897.067L1322 892.133C1322.4 889.467 1323.2 880.667 1323.6 872.4C1324.27 861.733 1325.07 857.333 1326.27 856.8C1327.47 856.267 1328.13 853.733 1328.13 849.333V842.667H1318.67C1307.73 842.667 1307.87 842.933 1315.87 830.933C1323.6 819.467 1324.67 817.333 1322.13 817.333C1321.07 817.333 1316.4 823.067 1311.87 830C1307.2 836.933 1302.8 842.667 1301.87 842.667C1299.73 842.667 1299.2 840.267 1297.47 822.267L1296 806.4L1307.33 795.6C1319.2 784.133 1324 776.267 1324.13 768.267C1324.13 760.4 1315.33 759.867 1307.33 767.333C1301.33 773.067 1301.6 770.533 1308 762.133C1316.4 750.933 1318.13 746 1314.27 742.8C1311.73 740.667 1308.93 742.133 1306.4 747.067C1304.27 751.2 1304.27 751.067 1304.93 739.867C1305.73 730.267 1305.47 728.133 1303.6 726.267C1300.4 723.067 1293.33 723.467 1288.13 726.933C1274.53 736.133 1274 761.333 1286.8 778.4L1292 785.2L1293.47 810.267C1294.27 824 1295.07 837.067 1295.2 839.333L1295.47 843.333L1286.13 844L1276.8 844.667L1276.4 850.533C1276.13 854.133 1276.53 856.8 1277.6 857.467C1278.53 858 1284.53 858.133 1290.8 857.733C1297.07 857.333 1306.27 857.333 1311.2 857.867L1320.13 858.933V867.067C1320.13 871.6 1319.73 880.267 1319.2 886.267L1318.4 897.333H1302.67H1286.93L1286.13 892.267C1284.67 883.6 1284.27 883.067 1284.53 890.4L1284.8 897.333H1252.67H1220.53L1218.93 886.267C1217.2 874.133 1212.4 847.2 1211.33 843.867C1210.93 842.133 1213.33 841.333 1224.4 839.467C1258.67 833.467 1274.53 824.4 1278.8 808.133C1282 796.133 1276.67 780.533 1266.27 770.933C1262.93 767.867 1255.47 763.067 1249.47 760C1229.33 749.867 1223.07 741.467 1216.13 714.8C1214 706.533 1210.27 696.133 1207.87 691.867C1202.4 681.467 1191.6 671.733 1181.87 668C1164.67 661.6 1139.2 661.6 1124.27 668.133C1116.27 671.467 1107.73 680 1104.13 688.267C1100.27 697.067 1097.73 714.933 1099.87 718.933C1100.67 720.667 1101.47 723.467 1101.73 725.333C1102 727.867 1102.8 728.533 1104.93 728.267C1108.53 727.733 1109.47 730.8 1109.47 742.8C1109.47 749.333 1107.87 756.933 1103.2 772.8C1097.33 792.667 1096.93 795.067 1096.93 810C1096.8 828.267 1098.8 836.133 1105.73 844.533C1110.13 850 1121.2 856 1126.8 856C1133.07 856.133 1133.87 857.467 1132.8 867.867L1131.87 877.333H1124.67C1119.73 877.333 1117.2 878 1116.53 879.333C1115.47 881.067 1114 881.067 1104.27 878.533C1090.4 875.067 1086 875.733 1079.2 882.667C1076.4 885.467 1072.93 888 1071.6 888.267C1068.53 888.8 1069.6 892.4 1058.67 841.6L1050.4 802.667H1014H977.6L978.4 806.933C978.933 809.333 983.2 830.667 988.133 854.267L996.933 897.333H985.2H973.467L976.533 891.6C978.933 887.067 979.467 883.333 979.867 871.333C980.133 862.933 979.733 855.067 978.933 852.933C977.6 849.467 977.2 849.333 968.267 849.333H958.933L961.2 845.333C963.067 842.133 963.2 841.2 961.733 839.733C960.267 838.267 959.733 838.533 958.4 840.667C956.933 843.067 956.667 842.667 956.133 837.333C955.2 829.467 952.133 829.333 949.733 836.8C948.267 841.467 947.467 842.267 945.2 841.6C942.667 840.933 942.667 841.067 944.667 845.2L946.933 849.333H940.533C936.933 849.333 933.333 849.867 932.4 850.533C927.733 853.467 929.467 883.867 934.933 893.067C936.267 895.467 937.467 897.733 937.467 898.133C937.467 898.4 921.067 898.667 900.933 898.667H864.4L866.4 894.533C870.267 886.933 868.4 870 860.533 837.333C854.667 813.067 850.133 807.067 835.2 804.133C830.8 803.333 826.533 801.867 825.733 801.067C822.667 798 823.867 791.467 828.267 787.2C830.533 785.067 834.133 780 836.533 776C838.8 772 842.667 765.733 845.2 762C848.8 756.667 849.467 754.667 848.8 751.067C848.4 748.533 848.933 744.133 850.133 740.267C852.8 732.133 851.333 724.933 845.067 716.267C841.2 710.933 841.067 710.267 843.2 709.2C846.267 707.467 846.133 702.667 843.067 702.667C841.733 702.667 840 703.333 839.067 704.267C838 705.333 837.733 704.667 838.267 701.067C839.333 695.067 836.933 693.467 832.8 697.333L829.733 700.267L824 696.133C811.6 687.067 780.8 681.067 761.6 683.733C750.133 685.333 743.067 688.267 737.067 693.867C735.067 695.733 733.067 697.333 732.8 697.333C732.533 697.333 732.667 684.533 733.067 668.933C733.467 653.467 733.333 631.333 732.8 619.867L731.867 599.067L693.2 598C672 597.467 640.8 597.467 624 598L593.467 599.067V684.667V770.267L643.733 771.067C671.333 771.6 702.533 772 712.933 772H732L732.933 766C733.333 762.667 733.333 753.067 732.8 744.533L731.867 729.2L737.733 733.333C742.267 736.533 745.6 737.733 751.733 738.267L759.733 739.067L760.4 754.533C761.333 778 767.467 788.133 782.667 792.133C788.667 793.6 789.467 794.267 789.467 797.333C789.467 802 787.6 804.133 777.733 809.867C766.933 816.4 764 821.6 758.8 843.333C756.533 852.933 754.133 862.4 753.2 864.667C750.933 870.533 745.6 875.867 740.133 877.467C737.467 878.267 733.867 880 732.133 881.333L728.933 883.733L731.333 891.333C733.733 899.2 733.333 903.2 730.667 896.533C725.6 883.333 725.467 882.8 728.267 882C731.733 880.8 731.467 878.667 727.733 878.667C725.067 878.667 724.4 877.467 722.267 869.333C720.933 864.267 719.067 860 718.267 860C717.467 860 714.133 860.667 710.933 861.467C706.933 862.4 704.667 862.4 703.6 861.333C701.733 859.467 700.133 859.6 700.133 861.867C700.133 863.067 697.2 864.667 692.533 866C688.267 867.2 683.867 868.4 682.533 868.8C680.133 869.467 676.933 865.6 671.6 854.933C669.2 850.267 667.467 848.267 666.4 848.933C665.467 849.467 660.133 853.067 654.533 856.933C648.8 860.933 644.133 863.867 644.133 863.6C644.133 863.333 641.733 851.2 638.8 836.667C635.867 822.133 633.733 810 634 809.733C634.8 808.933 719.067 806.533 719.733 807.2C720.133 807.6 722.533 821.6 725.067 838.267C730.4 872.933 731.6 878.667 733.6 878.667C734.4 878.667 734.8 877.867 734.4 876.933C734.133 876.133 731.2 858.667 728 838.267L722.267 801.333H676H629.867L630.4 804.933C630.8 807.067 633.733 822.667 637.067 839.733C640.267 856.933 642.667 871.333 642.133 871.733C641.2 872.667 601.333 874.667 600 873.867C599.467 873.6 598.8 870.933 598.267 868C596.933 859.467 586.267 828.267 581.6 818.933C573.867 803.733 564.667 796.4 549.867 794C546.667 793.467 544.133 792.4 544.133 791.6C544.267 786.533 546 784.267 550.933 782.8C561.333 779.6 570.8 768 570.8 758.267C570.8 755.333 571.867 752.533 574.133 750.133C580.533 743.2 579.733 731.867 572.4 728.667C568.667 727.067 568.667 726.4 572.933 719.2C576 714 576.4 712.133 575.733 706.133C574.933 697.867 568.667 682.133 562.133 671.867L557.6 664.667L557.467 621.333V578L583.067 564C618.533 544.533 642.4 530.267 640.667 529.733C639.733 529.467 633.467 532.667 626.667 536.8C619.733 540.933 601.6 551.467 586.133 560.133L558.133 576L557.733 559.067C557.467 547.467 556.8 541.733 555.733 541.067C554.8 540.533 554.133 538.4 554.133 536.4C554.133 534.133 553.333 532.533 552 532.267C550.4 532 550 532.8 550.533 535.867C551.067 539.733 547.333 558.4 545.6 560.267C544.933 561.067 522 555.733 520.933 554.533C520.4 554 524.533 532.933 526.133 528C526.667 526.133 526.533 525.333 525.733 525.867C525.067 526.267 523.733 529.6 522.8 533.333L521.2 540H472.667H424.133V612.133V684.267L449.467 683.733C463.467 683.467 474.8 683.467 474.8 683.733C474.8 684 473.6 688 472 692.667C468 704.933 464.667 709.2 455.2 713.867C443.067 719.867 440.133 723.2 440.133 730.533C440.133 739.467 445.467 744.4 459.867 748.8C472.8 752.8 475.2 754.667 484.533 768C489.733 775.333 493.067 778.8 497.467 781.067C501.333 782.933 504 785.467 505.2 788L506.8 792H497.467C483.6 792 474.8 797.2 470.267 808C468.533 812.267 461.467 854.667 457.2 886.667L455.467 899.333L435.067 899.733C416 900 414.667 899.867 415.333 897.733C420.267 881.333 440.133 794 440.133 788.8V785.333H385.733H331.2L317.067 837.6C309.2 866.4 302.8 890.4 302.8 890.933C302.8 891.6 305.867 892 309.467 892C316.267 892 317.2 892.933 315.333 897.867C314.667 899.733 310.8 900 286.4 900H258.267L263.067 894.933C268.667 889.2 270.533 884.933 276.8 864.267C279.6 855.2 282.8 847.467 284.8 845.067C288.533 840.667 288.4 837.867 284.133 831.733C282.133 828.933 281.733 826.8 282.4 821.6C283.6 810.667 279.333 810.933 275.6 822.133C273.733 827.867 272.667 829.2 269.067 830.133C262.933 832 260.4 837.067 262.667 843.333C264.133 847.6 264 849.467 261.333 859.2L258.133 870.267L250.4 856.8C246 849.333 238.267 835.467 233.2 826C228 816.4 222 806.667 219.733 804.4C216.267 800.8 210 797.6 201.867 795.333C201.067 795.067 202.133 792.8 204.667 790.267C207.067 787.733 209.6 783.733 210.267 781.333C211.333 777.6 212.533 776.667 218.4 774.8C227.067 772.133 231.067 768.667 235.333 760.133C237.733 755.6 239.733 753.333 241.733 753.067C245.867 752.533 248.533 746.533 248.4 738C248.4 730.267 246.133 724.933 240.933 720.133C237.333 716.8 236.133 711.2 239.2 712.4C252.267 717.2 256.267 716.933 258.8 710.8C260.8 705.733 259.733 700.533 254.667 692.8C250.667 686.267 250 684 252 681.867C252.667 681.2 253.6 679.333 254 677.733C255.467 673.2 250.933 669.733 242.267 668.667C234.933 667.733 234.8 667.6 233.333 662.133C229.467 648.4 221.333 647.333 194.133 657.333C188.133 659.6 183.467 660.267 175.467 660.133C157.2 660 152.8 663.067 153.6 675.867C154 681.2 153.733 682.533 152.4 682C151.333 681.6 149.2 680.933 147.467 680.533C143.333 679.467 143.067 677.067 142.133 621.333C141.733 596.8 141.067 573.2 140.533 568.933C139.867 562.533 140.133 561.333 141.867 561.333C145.067 561.333 146.133 558.533 143.733 556.667C140.933 554.667 140.8 547.6 143.467 545.333C146.667 542.667 145.733 541.333 140.8 541.333C136.4 541.333 136.133 541.067 136.133 536.8C136.133 533.067 136.667 532.133 139.067 531.733C140.667 531.467 142.133 530.667 142.4 529.733C143.2 527.467 135.733 527.2 97.4667 528L64.8 528.667L64.4 535.2C64.1333 539.2 63.2 542.4 61.8667 543.333C60.5333 544.267 59.7333 547.2 59.6 551.467L59.4667 558L54.5333 558.4C48.5333 558.933 48.9333 561.333 50.8 532.667C52.5333 508.4 52 505.333 46.6667 505.333H42.8V492.933C42.6667 472 40.5333 455.067 37.2 448.933C33.4667 442.133 29.4667 440 20.5333 440C15.2 440 12.8 440.667 9.73333 443.333ZM19.6 446.8C19.2 449.067 18.8 463.2 18.8 478.133V505.333H15.4667H12.1333V483.2C12.1333 467.333 12.6667 458.8 14.2667 452.933C16.6667 443.6 17.0667 442.667 19.0667 442.667C19.8667 442.667 20.1333 444.267 19.6 446.8ZM33.6 447.6C34.8 448.933 36.5333 452.133 37.3333 454.667C38.9333 459.2 41.7333 502.267 40.5333 504.267C38.6667 507.733 37.7333 503.067 37.0667 484.933C36 461.733 33.8667 450.667 29.3333 445.733C26.5333 442.8 26.5333 442.533 28.8 443.733C30.2667 444.4 32.4 446.133 33.6 447.6ZM10.6667 449.6C9.46667 451.733 8.8 461.067 8.4 479.067C8 497.467 7.33333 505.333 6.4 504.933C4.8 504.4 4.93333 462.8 6.4 456C7.46667 451.467 10.8 444.933 11.7333 445.733C12 446.133 11.6 447.867 10.6667 449.6ZM30.6667 450.267C33.2 455.733 34.9333 474 34.5333 490C34.1333 503.6 34 504.667 31.4667 504.667C28.9333 504.667 28.8 503.467 28 479.333C27.4667 465.333 26.6667 452 26.1333 449.6C25.3333 446.133 25.4667 445.467 27.0667 446C28.2667 446.533 29.8667 448.4 30.6667 450.267ZM24.6667 452.8C25.0667 456.267 25.4667 469.467 25.4667 482.133C25.4667 501.867 25.2 505.333 23.4667 505.333C21.7333 505.333 21.4667 501.2 21.4667 476C21.4667 448.267 22.6667 439.067 24.6667 452.8ZM128 532.8C131.6 533.6 132 534.133 131.333 536.533C130.8 538 129.733 539.733 128.933 540.267C128.133 540.8 114.533 541.333 98.6667 541.333C67.7333 541.333 68.1333 541.467 68.1333 534.533C68.1333 532.133 69.4667 532 96 532C111.333 532 125.733 532.4 128 532.8ZM462.533 543.467C474.8 544.4 478.267 546.667 467.333 546.667C462.133 546.667 461.467 547.067 461.467 549.6C461.467 551.333 461.867 554 462.267 555.6C463.067 558.667 463.467 558.667 485.6 558.667H508.133L508.933 554.933C509.333 552.933 510 550.267 510.4 548.933C510.933 547.067 510 546.667 504.267 546.667C500.533 546.667 497.467 546 497.467 545.333C497.467 544.533 502.133 544 508.667 544H519.867L519.2 549.867L518.533 555.733L524.933 557.733C538.4 562.133 546.8 563.733 547.6 562.4C548.133 561.6 549.467 556.933 550.667 552.133C551.867 547.333 553.467 543.467 554.133 543.6C554.933 543.867 555.6 550.933 555.867 560.4L556.267 576.933L550.8 579.333C547.733 580.667 545.067 582.4 544.533 583.067C544.133 583.733 545.733 583.333 547.867 582.133C556.533 577.6 556.133 575.733 556.133 622.267V664.667L549.333 664.133C543.467 663.733 540.667 664.533 530.533 669.333C519.067 674.8 518 675.067 501.733 676C489.733 676.533 483.6 677.467 480.533 679.067C476.933 680.933 472.267 681.333 451.467 681.333H426.8V612V542.667H438.533C445.067 542.667 455.867 543.067 462.533 543.467ZM496.133 546.267C496.133 549.067 496.8 549.333 502 549.333C507.467 549.333 507.733 549.467 507.067 552.667L506.533 556H485.333C473.333 556 464.133 555.467 464.133 554.8C464.133 554.133 463.733 552.667 463.333 551.467C462.667 549.733 463.6 549.333 468.667 549.333C473.867 549.333 474.8 548.933 475.467 546.267C476.267 543.467 477.067 543.2 486.267 543.2C495.733 543.067 496.133 543.2 496.133 546.267ZM119.2 546.267L137.467 547.067V551.333V555.6L125.2 556.533C118.533 556.933 102 557.333 88.5333 557.333H64.1333V551.333V545.333H82.5333C92.8 545.333 109.2 545.733 119.2 546.267ZM29.2 602.267C29.4667 604.8 29.0667 606.667 28.2667 606.667C27.3333 606.667 26.8 610.667 26.8 617.333C26.8 625.867 26.4 628 24.8 628C23.2 628 22.8 625.333 22.8 612.533C22.8 597.333 22.8 597.2 25.8667 597.6C28.1333 597.867 28.9333 599.067 29.2 602.267ZM106.933 605.467C105.467 609.467 102.933 617.067 101.467 622.4C99.8667 627.733 98.1333 631.733 97.4667 631.333C96.5333 630.667 105.067 602.533 107.467 598.667C109.6 595.2 109.333 598.8 106.933 605.467ZM650.533 603.6C650.8 604.8 649.2 605.333 644.933 605.333C639.467 605.333 638.8 605.6 638.8 608.267C638.8 610 639.2 612.667 639.6 614.267C640.4 617.333 640.8 617.333 662.933 617.333H685.467V613.467C685.467 611.333 685.867 608.667 686.267 607.467C686.933 605.733 686 605.333 680.933 605.333C677.6 605.333 674.8 604.8 674.8 604C674.8 601.867 682.8 601.2 706.133 601.6L728.8 602V684.667V767.333L662.533 767.733L596.133 768V684.667V601.333L623.067 601.6C643.067 601.867 650 602.4 650.533 603.6ZM672.133 604.933C672.133 607.733 672.8 608 678.267 608C683.333 608 684.267 608.4 683.6 610.133C683.2 611.333 682.8 612.667 682.8 613.333C682.8 614 673.467 614.4 662.133 614.4H641.467V611.2C641.467 608.4 642 608 646.8 608C651.2 608 652.267 607.467 652.8 604.933C653.467 602.267 654.4 602 662.8 601.867C671.733 601.867 672.133 602 672.133 604.933ZM40.1333 618V628H34.8H29.4667V618.933C29.4667 613.867 29.8667 609.333 30.4 608.933C30.8 608.4 33.2 608 35.7333 608H40.1333V618ZM119.333 629.6C119.733 631.333 120.267 635.867 120.8 639.6L121.6 646.667H84.1333C52.4 646.667 46.8 646.4 46.8 644.667C46.8 641.6 54.5333 640.933 82.9333 641.6C97.6 642 109.467 641.867 109.467 641.2C109.467 640.667 108.267 640.533 106.933 640.933C105.467 641.333 99.8667 640.8 94.5333 640C84.1333 638.133 55.8667 637.733 51.0667 639.2C48.4 640.133 48.1333 639.733 48.1333 634.933V629.733L61.3333 628.8C78.4 627.6 85.3333 628.667 89.2 633.2C91.7333 636.133 92 636.267 90.9333 633.733C89.0667 630 89.0667 628 90.9333 628C91.7333 628 93.0667 629.867 93.8667 632C96 637.467 100.267 636.933 102.133 630.933C103.333 626.8 103.467 626.667 111.067 626.667C118 626.667 118.8 626.933 119.333 629.6ZM19.4667 681.067C19.0667 681.467 18.4 681.467 18 681.067C16.6667 679.733 15.6 633.867 16.8 631.2C17.6 629.6 18.4 638.533 19.0667 654.533C19.7333 668.667 19.8667 680.667 19.4667 681.067ZM44.5333 646.933C45.0667 655.733 45.4667 666.8 45.4667 671.333C45.4667 679.6 45.4667 679.733 41.3333 680.533C39.0667 680.933 34.2667 681.333 30.6667 681.333H24.1333V672.8V664.267L30.8 663.333L37.4667 662.4V655.467C37.4667 647.067 36 645.333 28.5333 645.333H22.8V638.667V632.133L31.2 631.6C35.7333 631.333 40.4 631.067 41.6 630.933C43.4667 630.667 43.8667 633.067 44.5333 646.933ZM34.8 653.867C34.8 660.4 32.4 662.4 26 660.8C23.2 660 22.8 659.2 22.8 654V648H28.8H34.8V653.867ZM114.8 657.333V661.333H84.2667C58.4 661.333 53.6 661.067 52.9333 659.333C52.5333 658.267 52.5333 656.4 52.9333 655.333C53.6 653.6 58.4 653.333 84.2667 653.333H114.8V657.333ZM120.133 670.933V678.133H111.867C107.2 678 91.3333 678.533 76.5333 679.2L49.4667 680.4V672.533V664.667L84.8 664.133L120.133 663.733V670.933ZM138.8 720C138.8 721.333 138.267 722.933 137.467 723.333C136.667 723.867 136.133 722.4 136.133 720C136.133 717.6 136.667 716.133 137.467 716.667C138.267 717.067 138.8 718.667 138.8 720ZM177.467 742.133C178.933 743.867 178.933 744.267 177.6 743.467C173.2 740.8 170.8 728 173.2 720C173.867 717.733 174.4 720.267 174.8 728.133C175.2 735.467 176.267 740.533 177.467 742.133ZM1181.47 724.667C1184.53 731.733 1186.8 733.067 1191.07 730.133C1198.13 725.2 1206.8 729.467 1206.8 737.733C1206.8 742 1202.93 748 1200.13 748C1199.33 748 1198.8 744.4 1198.8 739.867C1198.8 734 1198.4 732 1197.2 732.4C1196 732.8 1195.47 735.733 1195.6 741.2L1195.73 749.467L1191.87 749.067C1188.27 748.667 1187.87 749.2 1185.6 755.733C1184 760.4 1180.93 765.067 1176.93 769.2C1171.87 774.267 1170.8 776.267 1170.8 780.267C1170.8 785.067 1170.67 785.2 1163.47 787.333C1159.47 788.4 1154 789.6 1151.33 789.733C1147.07 790 1146.4 789.6 1145.07 785.6C1143.73 782 1141.6 780.133 1134.13 776.267C1119.33 768.4 1114.93 759.467 1112.53 732.4L1111.33 720.133L1116.13 719.6C1118.67 719.333 1133.87 719.067 1149.87 718.933L1178.93 718.667L1181.47 724.667ZM242 727.2C244.8 731.6 245.733 738.533 244.533 744.667C243.467 749.067 242.667 750.133 239.6 750.667C236.533 751.2 235.333 752.4 233.867 756.667C230.533 766.4 221.333 773.333 211.867 773.333C207.867 773.333 207.467 773.733 207.333 777.467C207.067 782.667 203.2 788 197.333 790.933C193.333 792.933 191.067 793.2 182.933 792.133C177.6 791.467 172.933 790.533 172.533 790.267C172.133 789.867 172.267 787.067 172.8 784C173.6 779.2 174.4 778.133 178.667 776.533C188.8 772.533 192.4 770 195.6 764.667C200.4 756.4 199.867 753.2 192.133 744.667C184.933 736.667 183.733 732.267 187.6 726.933C191.2 721.733 193.467 723.2 193.467 730.667C193.467 736.133 194 737.6 196.667 739.333C201.067 742.267 205.733 740.133 210.267 733.333C212.267 730.4 214 728 214.267 728C214.533 728 216.933 729.467 219.6 731.333C222.267 733.2 225.733 734.667 227.333 734.667C232 734.667 236.133 730.933 236.133 726.667C236.133 722.133 238.8 722.4 242 727.2ZM565.467 729.333C565.467 730.667 564.8 733.333 564 735.2C562.667 738 562.933 739.733 565.333 745.333C567.6 750.533 568.133 753.467 567.333 758C566.133 766.8 560.267 775.067 552.8 778.667C546.4 781.733 542.8 781.6 532.8 778C530.533 777.2 530.533 777.467 533.333 779.867C535.067 781.467 537.867 782.667 539.6 782.667C542.133 782.667 542.8 783.333 542.8 786C542.8 790.533 537.6 795.6 531.6 796.667C522.533 798.4 506.8 792.4 506.8 787.2C506.8 786.133 508.8 785.067 512.133 784.533C522.133 782.933 526.667 774.8 524.267 762.267L523.2 756H527.6C532.133 756 532.133 756 532.133 749.467C532.133 742.267 534.133 739.6 539.067 740.267C541.467 740.533 542.533 742.133 544 746.933C545.067 750.533 546.4 753.333 546.933 753.333C549.467 753.333 554.8 744.667 556.133 738C557.733 730.533 560.133 726.667 563.6 726.667C564.667 726.667 565.467 727.867 565.467 729.333ZM572.667 732.8C575.067 733.733 575.6 742.133 573.467 745.333C572.267 747.067 571.733 746.8 569.467 744C566.533 740.267 566 736 568.4 733.6C570.267 731.733 570 731.733 572.667 732.8ZM782.133 744.267C781.6 747.467 779.733 753.2 778 757.2C774 766 774 767.467 777.867 768.4C779.467 768.667 781.867 769.467 783.2 770C784.8 770.667 785.467 770.4 785.467 768.8C785.467 767.6 784.667 766.667 783.867 766.667C779.2 766.533 778.933 764.533 782.267 756.133C784.8 750 785.467 746.4 784.8 743.2L784 738.667H799.067H814.133L817.867 743.333C821.867 748.4 825.333 749.067 830.8 746C832.667 744.933 835.467 744.133 836.933 744C841.067 744 846.8 748.933 846.8 752.533C846.8 756.533 842 762.667 838.8 762.667C836.533 762.667 836.4 761.867 837.067 755.867C837.733 750.267 837.467 749.067 836 749.6C834.8 750 834 752.533 833.733 756.4L833.333 762.533L828.667 761.733C826.267 761.333 824.133 761.467 824.133 762.133C824.133 762.8 826 767.067 828.4 771.6L832.667 779.867L826.4 785.733C820.533 791.067 820.133 792 820.133 798.133C820.133 801.867 819.467 805.467 818.533 806.4C816.533 808.4 818.133 808.533 821.6 806.667C823.333 805.733 824.133 805.733 824.133 806.533C824.133 807.867 817.333 812 815.333 812C814.933 812 814.933 811.067 815.333 809.867C816 808.267 815.6 808 813.067 808.933C802.4 812.8 791.6 807.6 792.4 798.8C792.8 794.667 793.333 794.133 798.933 792.533C802.4 791.467 805.867 789.733 806.8 788.667C808.933 786.133 807.467 786.133 799.6 788.8C792 791.467 784.133 790.533 777.2 786.267C766.8 780 764.133 773.067 764.133 753.2V738.667H773.6H783.067L782.133 744.267ZM141.867 766.933C143.2 783.467 142.933 795.733 141.333 796.667C140.533 797.2 139.733 797.333 139.467 797.2C139.333 796.933 138.667 787.467 138.133 776.267C137.333 758.933 137.467 756 139.067 756C140.667 756 141.333 758.667 141.867 766.933ZM160.267 776.667C163.467 779.2 166.933 781.333 168 781.333C169.2 781.333 169.467 782.4 168.8 784.933C168.267 787.067 167.733 788.8 167.6 789.067C167.333 789.2 162.533 790.267 156.933 791.2L146.8 792.933V782.533V772H150.667C152.933 772 156.667 773.733 160.267 776.667ZM423.733 788C435.333 788 437.467 788.267 437.467 790.133C437.467 795.2 419.6 873.6 414.133 892.933L412 900H400.667H389.333L387.333 895.333L385.467 890.667H345.467C318.8 890.667 305.467 890.267 305.467 889.333C305.467 887.867 331.467 791.733 332.8 788.133C333.467 786.533 339.467 786.4 371.733 787.067C392.667 787.6 416.133 788 423.733 788ZM1166.53 804.667L1154.13 816.933L1152.67 813.467C1151.87 811.6 1150.8 806.267 1150.27 801.733L1149.33 793.467L1159.07 790.667C1164.4 789.067 1169.47 787.6 1170.13 787.467C1170.93 787.2 1173.2 788.267 1175.2 789.733L1178.93 792.267L1166.53 804.667ZM1146.13 793.2C1147.07 794.8 1141.73 809.333 1139.2 812C1137.6 813.733 1137.47 813.2 1138.27 808C1139.73 797.467 1141.47 792 1143.47 792C1144.53 792 1145.6 792.533 1146.13 793.2ZM515.733 796.8C520.667 798.267 525.333 798.667 530.533 798C549.2 796 560.533 798.267 569.067 805.733C578.267 813.867 591.867 848.8 597.067 878C599.2 890 599.2 890.533 596.667 894.8C593.333 900.4 589.2 902.667 581.867 902.667C573.467 902.667 569.6 900.4 568.667 894.8C566.667 883.333 564.4 874.267 564.267 876.933C564.133 881.2 571.867 950.4 574.133 964.933C575.2 971.733 576.133 978.8 576.133 980.667V984H544.267H512.533L511.6 976.933C511.2 973.2 510.4 959.067 510 945.6L509.067 921.333H517.067C521.467 921.333 525.333 921.067 525.733 920.667C526.267 920 524.933 906.133 523.467 897.6C522.8 894 522.133 893.333 518.933 893.333C511.867 893.333 502.8 895.067 503.6 896.133C504.533 897.733 503.2 897.6 498.133 895.867C495.333 894.8 490 894.667 482.4 895.333L470.8 896.267V906.4C470.8 919.733 471.733 922.667 475.467 922.667C478.267 922.667 478.4 923.067 479.2 943.6C479.733 955.2 480.133 969.067 480.133 974.267V984H465.867H451.733L452.533 969.2C454.267 940.267 468.933 827.867 472.8 813.867C475.067 806.133 482.667 798 489.067 796.533C491.2 796.133 493.467 795.6 494.133 795.333C497.733 794.133 509.2 794.933 515.733 796.8ZM1188 798.267C1190.67 800.267 1193.6 802.8 1194.53 804C1198.67 808.667 1204.13 823.067 1207.33 837.333C1210.4 851.467 1217.47 891.6 1217.47 895.6C1217.47 896.933 1213.47 897.333 1200.53 897.333H1183.6L1188.53 892.8C1191.2 890.267 1194.27 886.267 1195.33 883.867C1198.27 876.667 1198.93 828 1196.13 828C1195.33 828 1194.93 837.467 1195.07 853.6C1195.47 881.333 1194.93 883.733 1187.87 890.133C1180.93 896.533 1177.47 897.333 1155.47 897.333H1134.8V891.6C1134.8 880.667 1134.93 880.533 1148.53 878.933C1167.6 876.533 1168.93 874.933 1170.4 850.133C1171.07 838 1170.93 835.733 1169.33 836.267C1167.87 836.8 1167.33 840.933 1166.8 853.867C1166.27 868.4 1165.73 871.2 1163.6 872.667C1160.4 875.067 1149.73 877.333 1141.87 877.333H1135.87L1136.8 849.6L1137.73 822L1142.53 812.667C1146.53 804.8 1147.47 803.867 1147.87 806.667C1148.53 812.267 1150.8 818.4 1152.67 819.867C1154 820.933 1157.47 818.267 1167.6 808C1174.8 800.667 1181.2 794.667 1182 794.667C1182.67 794.667 1185.33 796.267 1188 798.267ZM282.8 836C284.267 839.6 284.267 840.4 281.867 842.533C280.4 843.867 275.733 855.067 271.467 867.467C267.2 879.867 262.533 891.467 260.933 893.067C257.067 897.467 251.733 900 246.267 900C241.867 900 241.6 899.733 238.933 891.6L236 883.333L239.733 880.4C244.8 876.267 250.8 874.267 250.8 876.533C250.8 877.6 251.6 879.067 252.533 879.867C255.333 882.133 258.4 877.867 263.067 865.067C267.2 854 267.867 848.267 266.133 840.533C265.467 837.6 265.867 836 267.333 834.8C269.2 833.2 269.467 833.467 269.467 836.533C269.467 841.733 275.067 841.333 277.067 836C278.933 830.933 280.667 830.933 282.8 836ZM1025.33 847.2C1028.93 850.933 1028.8 858.267 1025.07 860.533C1022 862.533 1016.13 859.2 1013.6 854.133C1009.47 845.6 1018.67 840.133 1025.33 847.2ZM1324.13 850.533C1324.13 853.867 1319.47 854.667 1298.13 854.667C1280.13 854.667 1278.8 854.267 1278.8 849.2C1278.8 848.533 1288.53 848 1301.47 848C1322.8 848 1324.13 848.133 1324.13 850.533ZM672.8 862.133L677.6 870.933L674.533 873.2C667.733 878.133 667.067 877.867 662.133 868L657.467 858.8L661.2 856.133C663.2 854.667 665.467 853.333 666.4 853.333C667.2 853.333 670.133 857.333 672.8 862.133ZM970.267 855.333C973.867 856.133 974.8 859.467 974.8 872.533C974.8 880.667 974.133 884.533 972 888.933C968.4 896.4 963.867 898.667 952.8 898.667C944.533 898.667 943.6 898.4 940.133 894.667C935.333 889.467 933.2 879.867 933.733 865.867L934.133 855.333L942.133 854.533C949.867 853.733 964.533 854.133 970.267 855.333ZM656.933 874.533L657.867 884H653.6C649.067 884 647.467 881.733 646 872.133C645.2 867.467 645.467 866.933 649.6 864.4C655.2 861.067 655.733 861.867 656.933 874.533ZM838.8 872.4C840.4 877.467 841.467 881.867 841.067 882.133C840.4 882.933 835.733 871.2 834.267 864.667C832.533 857.6 835.6 862.8 838.8 872.4ZM211.6 874.267C210.8 875.067 206.8 865.733 206.933 863.467C206.933 862.667 208.267 864.667 209.733 867.733C211.2 870.933 212 873.867 211.6 874.267ZM135.6 889.733L132.667 914.667L148 913.733C156.533 913.333 168.667 913.333 175.2 914C184.8 914.8 186.8 915.333 186.667 917.067C186.667 918.533 186.4 918.667 185.867 917.6C185.467 916.4 178.533 916 158 916H130.667L131.333 911.6C131.733 909.333 132.667 901.333 133.467 894C134.267 886.667 135.6 876.933 136.4 872.267C139.067 856.4 138.667 864.8 135.6 889.733ZM660.8 870.267C662.133 875.867 665.2 880 668 880C669.467 880 672.4 878.4 674.667 876.533C676.933 874.667 678.8 873.6 678.8 874.133C678.8 874.667 676 880.8 672.667 887.6L666.667 900H632H597.467L599.6 896.667C601.2 894.133 601.6 891.2 601.2 885.333C600.8 880 601.067 877.333 602.133 877.333C602.933 877.333 611.333 879.2 620.933 881.333C630.4 883.6 643.333 885.733 649.867 886.267C663.2 887.2 662.667 887.867 659.6 873.733C657.867 865.733 658.933 862.8 660.8 870.267ZM713.467 872.933C714.8 876.667 715.467 880.133 715.067 880.533C714.667 880.933 707.333 881.333 698.667 881.333H682.933L684.8 876.933C687.467 870.533 692.133 869.333 697.467 873.733C702.667 878.133 706.133 876.933 707.333 870C708.533 863.6 710.533 864.533 713.467 872.933ZM705.2 869.733C705.867 873.067 701.867 874 698.667 871.2C696.133 868.933 696.133 868.667 698.4 867.733C702 866.4 704.667 867.067 705.2 869.733ZM257.467 874C257.467 875.2 256.267 876 254.533 876C251.6 875.867 251.467 875.867 254 874C257.333 871.467 257.467 871.467 257.467 874ZM644.133 878.133C646.8 885.067 646.4 885.067 623.467 879.6L611.467 876.667L622.133 875.867C643.467 874.4 642.8 874.267 644.133 878.133ZM108.8 881.333C108.8 882.933 106.267 883.333 94.1333 883.333C81.2 883.333 79.4667 883.067 79.0667 880.933C78.6667 878.8 79.8667 878.667 93.7333 878.933C106 879.2 108.8 879.733 108.8 881.333ZM1108.13 882.4C1113.87 884.267 1115.6 885.467 1115.87 887.733C1116.27 890.533 1115.87 890.667 1108.53 890.667C1104.27 890.667 1098.67 891.2 1096.13 891.733C1093.6 892.4 1090 892.4 1088.13 891.867L1084.8 890.933L1088.13 890.667C1090.4 890.4 1089.47 889.867 1084.93 888.8L1078.4 887.2L1082.67 883.6C1086.27 880.667 1088.27 880 1093.87 880.133C1097.73 880.133 1104.13 881.2 1108.13 882.4ZM1132.13 887.333V893.333H1124.67H1117.2L1118 889.2C1118.4 886.933 1118.8 884.133 1118.8 883.2C1118.8 881.867 1120.67 881.333 1125.47 881.333H1132.13V887.333ZM720.667 891.467C722.533 895.6 724.133 899.2 724.133 899.467C724.133 899.733 713.067 900 699.467 900C685.867 900 674.8 899.733 674.8 899.467C674.8 899.2 676 896.133 677.467 892.8L680 886.667L689.067 886.533C696.533 886.4 712.8 885.067 716.4 884.267C716.8 884.133 718.8 887.333 720.667 891.467ZM787.733 890.267C789.067 893.6 786.4 894.667 780.933 893.2C773.733 891.2 767.067 892.667 765.2 896.667C763.6 900.267 761.467 899.867 761.467 896.133C761.467 892.4 764.667 889.2 769.2 888.267C776.133 886.8 786.933 888 787.733 890.267ZM127.867 891.867C128.933 892.4 129.467 894.4 129.2 896.133C128.8 898.933 128.133 899.333 123.867 899.2C118.667 899.067 115.6 897.2 113.333 893.067C112.133 890.933 112.667 890.667 119.067 890.667C122.933 890.667 126.933 891.2 127.867 891.867ZM225.733 893.6C224.933 894.4 223.733 894.667 223.2 894.133C222.667 893.6 223.067 892.667 224.133 892C226.667 890.4 227.733 891.6 225.733 893.6ZM236.667 897.6C236.267 898.267 232.533 898.667 228.4 898.667C220.933 898.533 220.8 898.533 224.8 896.8C227.067 895.733 230 894 231.467 892.933C233.867 891.067 234.267 891.067 235.733 893.733C236.533 895.333 236.933 897.067 236.667 897.6ZM1080 891.2C1078.4 892.533 1069.47 893.333 1069.47 892C1069.47 891.333 1072 890.667 1075.07 890.667C1078.13 890.667 1080.27 890.933 1080 891.2ZM372.533 896.267C375.333 897.733 375.333 897.733 372.8 898.8C368.533 900.4 334.533 900.267 335.467 898.533C336 897.733 337.733 896.667 339.333 896C343.6 894.267 369.2 894.4 372.533 896.267ZM1130.8 896C1130.8 896.667 1130.13 897.333 1129.33 897.333C1128.67 897.333 1128.4 896.667 1128.8 896C1129.2 895.2 1129.87 894.667 1130.27 894.667C1130.53 894.667 1130.8 895.2 1130.8 896ZM112.133 898C113.6 899.733 111.467 900 94.2667 900C77.8667 900 74.8 899.733 74.8 898C74.8 896.267 77.7333 896 92.6667 896C106.8 896 110.8 896.4 112.133 898ZM1342.8 912.267V923.6L1332.53 924.533C1326.93 924.933 1226.8 925.333 1109.87 925.333H897.467V914V902.8L917.2 902.4C928 902.133 1028.13 901.733 1139.87 901.467L1342.8 900.933V912.267ZM454.533 904.667C455.2 905.333 452.4 925.467 451.467 926.4C450.933 926.933 400 927.6 338.267 927.733L226 928.267L222.533 916.533C220.533 910 219.2 904.4 219.467 903.867C220 903.067 453.6 903.867 454.533 904.667ZM707.867 903.867C782.4 903.6 854.933 903.333 868.8 903.333H894.133V914.667V926L732.667 926.4L571.2 926.667L570.267 918.533C569.067 906.533 569.2 902.4 570.933 903.333C571.733 903.867 633.333 904.133 707.867 903.867ZM128.933 907.067C128.533 908.8 127.733 914.667 127.333 920L126.4 929.733L101.6 928.933C88 928.4 71.2 928 64.5333 928H52.1333V916V904H90.9333H129.733L128.933 907.067ZM505.867 946.267C506.4 959.333 507.2 973.2 507.6 976.933L508.533 984H496.267H484.133V953.333V922.8L493.867 922.4C499.067 922.133 503.867 922.133 504.267 922.267C504.667 922.4 505.467 933.2 505.867 946.267ZM1342 1030.27C1341.73 1086.67 1341.07 1138.27 1340.67 1145.07L1339.87 1157.47L1319.73 1157.07L1299.47 1156.67L1298 1069.33C1295.6 937.333 1295.6 929.6 1298.53 928.933C1299.73 928.533 1310.27 928.267 1321.73 928.133L1342.67 928L1342 1030.27ZM41.2 930.667C48.5333 930.667 49.4667 930.933 49.4667 933.333C49.4667 935.867 48.5333 936 29.4667 936C10.5333 936 9.46667 935.867 9.46667 933.467C9.46667 930.133 12.9333 929.333 24.1333 930.133C28.9333 930.4 36.5333 930.667 41.2 930.667ZM895.333 960.267C895.733 977.333 896.667 1029.07 897.333 1075.2C898.267 1143.07 898.933 1159.2 900.267 1160.13C901.333 1160.8 905.067 1161.33 908.667 1161.33C914.933 1161.33 915.067 1161.47 913.067 1163.73C909.467 1167.6 910.133 1176.8 914.133 1180.67L917.333 1184H890.133H862.8V1178.27C862.8 1175.2 862.133 1168.8 861.467 1164C858.533 1142.93 849.333 1057.2 849.2 1050C849.2 1039.6 851.6 1033.33 861.333 1018.53C872.667 1001.6 875.867 988.267 872.133 974.667C871.2 971.067 865.467 932.933 865.467 929.867C865.467 929.6 872 929.333 880 929.333H894.533L895.333 960.267ZM943.6 1042.93C943.067 1105.47 942.533 1156.67 942.4 1156.8C942.267 1156.93 933.067 1157.47 922 1157.87L901.733 1158.8L900.8 1111.73C899.333 1041.6 898 930.533 898.667 929.867C898.933 929.6 909.467 929.333 921.867 929.333H944.533L943.6 1042.93ZM1126.8 939.333V949.333H1132.13C1136.67 949.333 1137.47 949.733 1138.27 952.8C1138.8 954.667 1138.67 956.667 1138 957.2C1137.33 957.867 1131.2 959.867 1124.4 961.867C1097.47 969.467 1069.6 981.733 1054 992.667C1030.53 1009.33 1017.47 1033.6 1017.47 1060.13C1017.47 1070.13 1018.27 1073.6 1024.8 1093.07C1032.13 1114.53 1044.67 1145.2 1048.8 1151.47C1051.07 1154.93 1054 1155.47 1059.33 1153.33C1063.33 1151.87 1063.6 1152.13 1064.8 1160.8L1065.6 1167.6L1053.33 1169.07C1041.87 1170.53 1037.2 1172.13 1039.07 1174.13C1039.47 1174.53 1042.13 1174.27 1045.07 1173.47C1051.07 1171.73 1068.13 1171.47 1068.13 1173.2C1068.13 1173.73 1064.13 1174.27 1059.2 1174.27C1047.73 1174.13 1044.53 1175.2 1042.13 1180.13L1040 1184H986.4C956.933 1184 931.333 1184.4 929.467 1184.8C926.267 1185.6 926.4 1185.33 930.4 1182.13C935.733 1177.73 937.2 1171.33 934.267 1165.6L932.133 1161.47L939.2 1161.07L946.133 1160.67L946.933 1059.33C947.333 1003.6 947.867 951.6 948 943.6L948.133 929.333H1037.47H1126.8V939.333ZM1222 933.467C1223.87 943.2 1223.73 943.6 1213.87 944.4C1208.8 944.933 1187.73 945.6 1166.93 946.133L1129.07 947.067L1129.87 940.667C1130.4 937.2 1130.8 933.2 1130.8 931.867C1130.8 929.467 1132.8 929.333 1176 929.333H1221.2L1222 933.467ZM451.6 934.267C451.2 936.4 450.267 945.467 449.467 954.667C448.8 963.867 447.867 974.533 447.467 978.4C446.933 983.333 447.333 985.6 448.4 986C449.6 986.533 450.133 989.733 450.267 995.733C450.533 1006.67 454.267 1016.27 462.4 1026.13L468 1033.07L464.667 1033.87C460.133 1035.07 461.333 1037.87 466.667 1038.4C469.867 1038.8 470.8 1039.33 470.267 1041.07C469.867 1042.27 465.067 1065.47 459.467 1092.67C454 1119.73 447.6 1151.2 445.2 1162.27L441.067 1182.67H386C333.867 1182.67 330.933 1182.53 330.267 1180.27C328.667 1175.33 322 1170.53 315.333 1169.6L308.933 1168.67L312.533 1166.27C314.533 1164.93 316.133 1162.8 316.133 1161.33C316.133 1157.47 310 1157.87 303.867 1162L299.067 1165.33L298.133 1156.93C297.6 1152.4 297.467 1145.6 297.733 1142L298.133 1135.33L305.867 1134.93L313.467 1134.53V1128C313.467 1115.07 309.333 1041.73 308.133 1032C305.2 1009.47 298.933 998.933 284.533 991.733C276 987.6 274.667 987.333 258.667 986.933L241.733 986.4L238.267 975.333C236.4 969.333 234.8 963.2 234.8 961.867C234.8 960.4 232.933 953.333 230.8 946C228.667 938.667 226.8 932.533 226.8 932.4C226.8 932 285.467 931.467 391.2 930.933L452.4 930.667L451.6 934.267ZM754.267 937.6C751.333 960.8 751.467 960.4 739.867 971.6C722 988.933 707.333 1008.8 704 1020.27C702.267 1026.53 704.8 1057.73 709.867 1093.6L714.267 1123.33L719.2 1124.13C722 1124.53 724.8 1125.47 725.467 1126.13C726.8 1127.6 728.8 1166.67 727.6 1166.67C727.067 1166.67 725.333 1166 723.867 1165.2C721.6 1164 720.8 1164.13 719.867 1165.87C719.2 1167.07 717.867 1168 716.8 1168C710.667 1168 704.133 1174.8 704.133 1181.33C704.133 1183.87 703.333 1184 689.733 1184H675.467L672.933 1179.33C670.4 1174.8 661.867 1169.33 657.067 1169.33C655.2 1169.33 654.933 1170.13 655.6 1172.67C656.133 1174.67 655.867 1176 654.933 1176C654.133 1176 653.467 1174.8 653.467 1173.33C653.467 1171.87 652.933 1170.67 652.133 1170.67C651.467 1170.67 650.8 1172.13 650.8 1174C650.8 1176.67 651.467 1177.33 654.133 1177.33C656.533 1177.33 657.467 1176.67 657.467 1174.8C657.467 1171.07 662 1172.67 667.867 1178.53L672.8 1183.33L644.267 1183.73C628.533 1183.87 615.6 1183.87 615.333 1183.73C615.2 1183.47 615.333 1181.6 615.733 1179.6L616.533 1175.73L632.933 1176.67C649.867 1177.73 650.533 1177.47 648.533 1172.53C647.733 1170.27 647.6 1170.27 646.8 1172.53C646.133 1174.53 645.733 1174.4 644.4 1171.47C642.933 1168 642.933 1168 648.533 1168C658.133 1168 663.2 1162 658 1156.8C654 1152.67 638.8 1155.33 637.067 1160.27C636.8 1161.2 636.133 1156.53 635.6 1150C634.4 1134.53 634.8 1133.33 642.267 1133.33H648.133V1125.6C647.867 1090.67 645.333 1034.4 643.6 1028.53C639.6 1013.47 626.8 997.467 613.6 990.8C607.2 987.467 589.6 982.667 584 982.667C582 982.667 580 982.133 579.6 981.6C578.8 980.4 574.267 951.467 572.8 938.267L572 930.667H663.6H755.2L754.267 937.6ZM98.8 999.067C98.8 1036 98.4 1086.93 97.8667 1112.4L97.0667 1158.53L77.6 1158.93C66.9333 1159.2 57.7333 1159.07 57.2 1158.67C56.4 1158.13 52.1333 976.4 52.1333 943.6V932H75.4667H98.8V999.067ZM125.467 934.667C125.467 937.067 124.533 937.333 114.133 937.333C103.733 937.333 102.8 937.067 102.8 934.667C102.8 932.267 103.733 932 114.133 932C124.533 932 125.467 932.267 125.467 934.667ZM44.9333 941.333H49.4667V954.667V968L35.3333 967.067L21.2 966.267L22.1333 974.133C23.7333 989.2 22.4 988 37.6 988C46.1333 988 50.6667 988.533 50.1333 989.333C49.6 990.133 42.4 990.667 32.9333 990.667H16.6667L15.0667 968.933C14.1333 957.067 13.0667 946 12.6667 944.4C11.8667 941.6 12.4 941.467 20.2667 940.933C24.9333 940.667 31.4667 940.533 34.6667 940.8C37.8667 941.067 42.5333 941.333 44.9333 941.333ZM124.133 948C124.133 955.6 121.867 980.133 120.667 986.267C120.133 989.067 119.333 989.333 111.467 989.333H102.8V978V966.667H110.8C115.2 966.667 118.8 966.133 118.8 965.333C118.8 964.533 118 964 116.933 964C116 964 114.8 962.8 114.4 961.467C114 959.6 112.267 958.667 108.667 958.267C105.333 957.867 105.867 957.867 110 958C114.533 958.267 117.067 959.067 118.4 960.8C120 962.933 120.133 962.8 120.133 958.933V954.667H111.467H102.8V947.333V940H113.467H124.133V948ZM154 946.667H167.467L170.667 978.933C172.267 996.8 174 1013.73 174.4 1016.67C174.8 1019.6 174.8 1021.73 174.4 1021.33C173.867 1020.93 172.933 1016.13 172.133 1010.67C169.6 993.067 170.933 994.667 158.4 994.533L147.467 994.267L158.667 992.933L169.867 991.733L168.933 982.8C168.533 978 167.733 968.133 167.2 960.933L166.4 948H155.467H144.667L145.2 982.267C145.6 1014.8 146.667 1029.73 148.8 1037.33C149.6 1040 149.467 1040.4 148.133 1039.07C144.933 1036.13 144 1025.73 143.2 986.933L142.533 948H135.333C130.8 948 128.133 947.467 128.133 946.533C128.133 945.467 130.133 945.2 134.267 945.867C137.733 946.267 146.533 946.667 154 946.667ZM1152.13 972.8C1152.13 974.4 1146.8 969.733 1144.93 966.533C1141.47 960.667 1142.53 960.667 1147.47 966.667C1150 969.733 1152.13 972.533 1152.13 972.8ZM775.467 966.267C791.067 968.8 843.867 969.733 859.067 967.733L866.533 966.667L868 970.8C872.8 984.8 870.267 998.4 859.733 1014.53C846.267 1035.07 846.133 1035.6 846.4 1066C846.4 1080.67 847.467 1099.87 848.533 1108.67C849.6 1117.47 850.267 1124.93 850 1125.07C849.333 1126 812.267 1126 811.333 1125.07C810.133 1123.73 798.133 1052.27 796.8 1038.67C795.6 1025.47 798.133 1018.13 812.133 995.2C818 985.6 822.8 977.2 822.8 976.8C822.8 974.533 819.467 978.533 810.8 991.2L801.467 1004.93L791.6 1005.6C781.2 1006.27 779.2 1007.2 766.667 1017.6C756.4 1026.13 755.467 1029.73 755.467 1059.33C755.467 1073.2 755.733 1093.07 756.133 1103.33L756.8 1122L738.133 1121.6C727.867 1121.33 719.067 1120.67 718.667 1120.27C717.2 1118.67 709.333 1052.27 708.533 1035.07L707.733 1018.93L712.8 1009.73C718.667 998.933 727.867 987.2 737.733 977.867C750.8 965.467 754.8 962.667 757.867 963.333C759.467 963.6 767.467 964.933 775.467 966.267ZM48.1333 970.8C49.6 971.867 46.6667 972 37.7333 971.6L25.3333 970.933L26.1333 976.533C26.6667 979.467 27.3333 982.267 27.6 982.533C27.8667 982.8 32.8 982.933 38.8 982.933C44.9333 982.933 49.2 983.467 48.6667 984.133C48.2667 984.8 42.9333 985.333 36.9333 985.333H25.8667L24.9333 981.2C24.5333 978.933 24.1333 975.333 24.1333 973.2V969.333H35.2C41.2 969.333 47.0667 970 48.1333 970.8ZM45.0667 978.267C42.4 978.533 38.1333 978.533 35.7333 978.267C33.4667 978 35.7333 977.733 40.8 977.733C46 977.733 47.8667 978 45.0667 978.267ZM594 988.667C614.267 992.933 628.8 1003.47 636.667 1019.47L640.533 1027.33L641.6 1063.33C642.133 1083.07 642.8 1106.53 643.067 1115.33L643.467 1131.33L623.867 1131.73L604.4 1132.13L603.6 1121.07C600.667 1079.73 598.533 1039.87 599.2 1039.2C599.6 1038.67 602.667 1038 606.133 1037.73C609.467 1037.33 612.133 1036.53 612.133 1036C612.133 1034.4 599.333 1033.33 577.467 1033.2C566.133 1033.07 548.667 1032.67 538.8 1032.13L520.933 1031.33L518.533 1024.93C517.2 1021.47 515.333 1012 514.4 1003.87L512.533 989.333L524 989.2C533.6 989.067 565.2 987.733 580.8 986.933C583.067 986.8 588.933 987.6 594 988.667ZM508.667 991.6C509.067 993.733 510 1000 510.667 1005.6C512.4 1018 514.4 1027.47 516.267 1030.8C517.467 1033.2 516.933 1033.33 507.6 1033.33C494.933 1033.33 491.467 1032 489.6 1026.4C488 1021.33 484.133 997.2 484.133 991.6V988H496H507.867L508.667 991.6ZM480.667 999.6C481.2 1005.33 482.533 1014.4 483.6 1019.87C484.667 1025.2 485.333 1029.87 485.067 1030.13C484.667 1030.53 481.733 1030.13 478.4 1029.2C465.2 1026 454.8 1011.73 454.8 996.933V989.333H467.333H479.733L480.667 999.6ZM132.267 993.333C134.667 993.333 136 993.867 135.467 994.667C135.067 995.333 132.933 996 130.667 996C127.467 996 126.8 995.467 126.933 992.933C126.933 991.333 127.333 990.8 127.733 991.6C128 992.533 130.133 993.333 132.267 993.333ZM120.133 995.333C120.133 996.933 118.267 997.333 111.467 997.333C104.667 997.333 102.8 996.933 102.8 995.333C102.8 993.733 104.667 993.333 111.467 993.333C118.267 993.333 120.133 993.733 120.133 995.333ZM122.8 1008.67C126.4 1019.2 130 1025.47 136.8 1032.67L143.2 1039.33L138 1039.73C130.533 1040.27 126.8 1041.2 126.8 1042.67C126.8 1043.47 128 1044 129.467 1044C131.067 1044 132.133 1044.93 132.133 1046.27C132.133 1048.67 126.667 1085.87 126.267 1086.13C126.267 1086.27 120.533 1086.67 113.867 1087.07L101.467 1087.87V1055.47C101.467 1037.6 101.867 1018.53 102.267 1012.93L103.2 1002.8L108.667 1002.27C119.867 1001.2 120.4 1001.47 122.8 1008.67ZM791.333 1011.47C794 1011.87 796.133 1012.53 796.133 1012.67C796.133 1012.93 795.2 1016.93 794 1021.47C791.733 1030.4 792 1037.33 795.467 1061.2L797.333 1073.87L789.467 1113.2C785.2 1134.93 780 1159.73 778 1168.27L774.267 1184H761.2C748.933 1184 748.133 1183.87 749.333 1181.6C750.133 1180.13 750.4 1168.8 749.867 1152.27L749.067 1125.33H755.467H761.867L761.067 1115.6C760.667 1110.4 759.6 1091.87 758.667 1074.67C756.667 1036.8 757.6 1030.4 765.2 1023.2C772.133 1016.8 783.2 1009.33 785.067 1010C785.867 1010.27 788.8 1010.93 791.333 1011.47ZM281.467 1026C281.467 1026.27 276.667 1030 270.8 1034.13L260 1041.6L260.8 1049.2C261.2 1053.33 262.133 1066.8 262.8 1079.33C263.6 1091.73 264.8 1108.27 265.467 1116C266.267 1123.73 266.8 1131.33 266.8 1132.93C266.8 1135.47 267.467 1136 271.2 1136H275.467L275.6 1159.33L275.733 1182.67H265.333C255.333 1182.67 254.8 1182.53 254 1179.47C252.8 1174.4 247.6 1170.53 239.867 1168.67C233.2 1166.93 233.067 1166.93 237.733 1166.8C243.6 1166.67 246.8 1165.6 246.8 1163.6C246.8 1162.8 243.2 1162.53 236.133 1163.07C229.2 1163.6 225.467 1163.47 225.467 1162.53C225.467 1161.73 226.133 1155.47 227.067 1148.53L228.533 1136H239.067C246.533 1136 249.467 1135.47 249.467 1134.27C249.467 1123.33 252.267 1052.67 252.8 1048.67C253.467 1043.6 254.267 1042.8 267.2 1034.4C281.333 1025.07 281.467 1024.93 281.467 1026ZM578.533 1036.8C587.6 1037.33 593.867 1038.27 594.133 1039.2C594.4 1040 595.6 1057.2 596.8 1077.33C598 1097.47 599.333 1118.53 599.867 1124L600.8 1134L606.4 1134.4L612 1134.8L612.4 1153.73C612.667 1164.13 612.533 1175.07 612.133 1178L611.467 1183.33L596.4 1183.73L581.467 1184.13L580.133 1180.53C578.533 1176.4 546.8 1043.47 546.8 1040.93C546.8 1038 553.867 1034.8 558.8 1035.33C561.333 1035.6 570.267 1036.27 578.533 1036.8ZM1157.73 1041.47C1157.47 1043.2 1150.93 1073.73 1143.33 1109.33C1135.6 1144.93 1128.93 1175.73 1128.53 1178C1127.6 1183.47 1124.67 1185.33 1117.73 1185.33C1111.07 1185.33 1111.2 1183.33 1118 1182.13C1127.73 1180.27 1127.6 1175.6 1116.8 1152.67C1111.6 1141.47 1110.13 1137.33 1111.6 1137.33C1112.67 1137.33 1113.87 1136.53 1114.13 1135.6C1114.53 1134.8 1110.93 1123.73 1106.27 1111.33C1087.07 1060 1085.6 1050.53 1096.4 1046.13C1102.8 1043.47 1151.47 1036.93 1156.8 1038C1157.6 1038.13 1158 1039.73 1157.73 1041.47ZM1187.87 1069.6L1188.13 1101.33H1169.47C1159.2 1101.33 1150.8 1101.07 1150.8 1100.67C1150.8 1098.8 1164.27 1039.6 1164.93 1038.53C1165.33 1037.87 1170.53 1037.33 1176.53 1037.6L1187.47 1038L1187.87 1069.6ZM1216.8 1071.6C1220.27 1090.53 1223.47 1106.67 1223.73 1107.6C1224.13 1108.67 1220.27 1109.33 1209.6 1109.6L1194.8 1110V1088.67C1194.8 1076.93 1194.4 1060.53 1193.87 1052.27L1193.07 1037.33H1201.73H1210.27L1216.8 1071.6ZM516.667 1040.13C516.933 1040.4 517.733 1055.73 518.267 1074.13L519.2 1107.6L490.667 1108.27C474.933 1108.67 462 1108.93 461.867 1108.8C461.733 1108.67 464.667 1094.53 468.267 1077.33C471.867 1060.13 475.333 1044.27 475.733 1042.13L476.533 1038.27L496.4 1038.93C507.2 1039.33 516.4 1039.87 516.667 1040.13ZM547.733 1070.67C552.133 1088.13 555.467 1102.93 555.067 1103.33C554.667 1103.73 547.6 1104 539.467 1104H524.533L523.733 1086.93C523.2 1077.6 522.8 1063.33 522.8 1055.07V1040.13L527.867 1039.6C541.067 1038.27 538.8 1034.67 547.733 1070.67ZM152.133 1074.27C152.133 1090.8 151.867 1104.13 151.6 1103.87C151.333 1103.6 150.667 1090 150.267 1073.6C149.6 1052.8 149.733 1044 150.667 1044C151.733 1044 152.133 1053.47 152.133 1074.27ZM180.533 1048.27C180.933 1050.67 183.467 1063.87 186 1077.47C188.667 1091.2 190.8 1103.07 190.8 1103.87C190.8 1104.8 185.467 1105.33 174.133 1105.33H157.467V1075.6C157.467 1059.2 157.867 1045.33 158.4 1044.93C158.8 1044.4 163.867 1044 169.467 1044H179.733L180.533 1048.27ZM206.8 1046.93C206.8 1050.53 197.867 1104.13 197.067 1104.8C196.8 1105.07 194.4 1092.53 191.6 1076.93C188.8 1061.47 186.267 1047.6 185.867 1046.27C185.333 1044.27 186.4 1044 196 1044C206.267 1044 206.8 1044.13 206.8 1046.93ZM146 1054.93C146.4 1060.27 146.933 1069.6 147.2 1075.6L147.733 1086.67H139.867C135.6 1086.67 132.133 1086.13 132.133 1085.47C132.133 1083.47 137.6 1048.93 138.133 1046.93C138.533 1046.13 140.133 1045.33 142 1045.33C145.067 1045.33 145.333 1045.87 146 1054.93ZM213.733 1115.07C214 1125.87 213.733 1134.67 213.2 1134.67C212.533 1134.67 212.267 1123.07 212.4 1108.93C212.667 1081.2 213.2 1083.73 213.733 1115.07ZM52.1333 1100.13C52.1333 1106.8 51.7333 1109.2 50.5333 1108.53C49.7333 1108 44.6667 1104.53 39.4667 1100.8C34.1333 1097.07 28.6667 1093.33 27.3333 1092.4C25.3333 1091.07 27.3333 1090.8 38.5333 1090.8L52.1333 1090.67V1100.13ZM125.467 1092.27C125.467 1093.2 123.467 1106.53 120.933 1122C118.4 1137.33 115.333 1157.6 114 1166.93L111.6 1184H99.8667C93.4667 1184 88.1333 1183.73 88.1333 1183.33C88.1333 1182.93 89.0667 1181.07 90.2667 1179.33C92.4 1176.13 92.4 1170 90.2667 1165.07C89.4667 1163.2 90.1333 1162.8 95.0667 1162.4L100.8 1162L101.2 1126.27L101.467 1090.67H113.467C122.133 1090.67 125.467 1091.07 125.467 1092.27ZM148.133 1101.33V1112H138C128.133 1112 127.867 1111.87 128.533 1108.93C128.933 1107.33 129.733 1102.53 130.133 1098.27L131.067 1090.67H139.6H148.133V1101.33ZM800.533 1094.67C800.933 1096.13 800.667 1097.73 800 1098.13C799.333 1098.53 798.8 1097.33 798.8 1095.47C798.8 1091.33 799.6 1090.93 800.533 1094.67ZM804.8 1115.87L807.067 1127.73L813.467 1128.67C817.067 1129.2 820.267 1130.4 820.667 1131.33C820.933 1132.27 821.733 1140.93 822.267 1150.53L823.2 1168L818.667 1167.2L814.133 1166.27L817.467 1169.07L820.8 1171.87L815.867 1170.4C809.467 1168.53 804.667 1171.33 801.733 1178.8L799.733 1184H790.8H781.867L783.6 1176.27C784.533 1172.13 787.733 1155.47 790.667 1139.33C797.6 1102.13 797.067 1104 800 1104C802 1104 802.8 1106 804.8 1115.87ZM1189.47 1146V1185.33H1160.8C1145.07 1185.33 1132.13 1185.2 1132.13 1184.93C1132.13 1184.53 1147.33 1115.6 1148.8 1109.6C1149.47 1106.67 1149.87 1106.67 1169.47 1106.67H1189.47V1146ZM553.2 1108.8L557.2 1109.6L566 1144.8C570.8 1164.13 574.8 1180.67 574.8 1181.6C574.8 1182.93 569.333 1183.2 550.4 1182.93L525.867 1182.53L525.067 1165.6C524.533 1156.27 524.133 1139.47 524.133 1128.27V1108H536.667C543.467 1108 550.933 1108.4 553.2 1108.8ZM193.2 1112.93C194.4 1116.13 194.4 1126.53 193.067 1130.93C192.267 1133.87 192.533 1134.67 194.133 1134.67C196.533 1134.67 196.533 1134.13 194.533 1160.93L192.933 1182.67H175.2H157.467V1146.67V1110.67H174.8C190.133 1110.67 192.267 1110.93 193.2 1112.93ZM519.333 1121.47C519.733 1126 520.133 1141.6 520.133 1156.13V1182.67H483.467C460.8 1182.67 446.8 1182.13 446.8 1181.33C446.8 1180.67 449.867 1165.6 453.467 1147.87C457.2 1130.13 460.133 1115.47 460.133 1115.2C460.133 1114.67 478.133 1114 501.6 1113.6L518.4 1113.33L519.333 1121.47ZM1224.8 1116.27C1225.6 1118.53 1237.47 1181.47 1237.47 1183.6C1237.47 1184.93 1232.27 1185.33 1216.13 1185.33H1194.8V1150V1114.67H1209.47C1220 1114.67 1224.4 1115.2 1224.8 1116.27ZM149.2 1129.33C149.467 1136.27 150.133 1142.53 150.8 1143.2C151.6 1144 152.133 1153.47 152.133 1164.27V1184H134C115.867 1184 115.867 1184 116.533 1180.93C116.933 1179.33 119.6 1164 122.4 1146.93L127.467 1115.87L138.133 1116.27L148.8 1116.67L149.2 1129.33ZM746 1128.27C746.4 1130 746.8 1135.07 746.8 1139.6V1148H739.6C731.6 1148 732.133 1148.93 730 1132.27L729.067 1125.33H737.2C744.267 1125.33 745.2 1125.6 746 1128.27ZM850.8 1128.93C850.8 1131.33 854.8 1171.87 855.6 1177.6L856.4 1184H851.067H845.867L845.067 1170C844.533 1162.27 843.733 1149.73 843.2 1142L842.4 1128H846.533C848.933 1128 850.8 1128.4 850.8 1128.93ZM839.333 1134.27C839.733 1137.07 840.133 1141.6 840.133 1144.27V1149.33H833.6C826.133 1149.33 825.733 1148.93 824.533 1137.07L823.733 1129.33H831.067H838.4L839.333 1134.27ZM633.467 1152.67C633.467 1169.2 633.733 1170.67 635.867 1170.67C637.2 1170.67 639.467 1171.47 640.933 1172.53C643.733 1174.67 645.067 1174.67 625.333 1172.67L617.733 1171.87L617.067 1165.6C616.667 1162.13 615.867 1153.73 615.333 1146.93L614.4 1134.67H624H633.467V1152.67ZM209.467 1153.6C209.467 1163.2 209.2 1170.8 208.933 1170.53C208.4 1170 202.8 1139.2 202.8 1136.8C202.8 1136.4 204.267 1136 206.133 1136H209.467V1153.6ZM224.533 1142.93C222.667 1160.53 222.533 1160.67 217.067 1161.07L212.133 1161.47V1149.6C212.133 1143.07 212.533 1137.33 213.067 1136.93C213.467 1136.4 216.533 1136 219.6 1136H225.333L224.533 1142.93ZM294.8 1150.27V1164.67L287.467 1164.27L280.133 1163.73V1156C280.133 1151.87 279.733 1145.6 279.333 1142.13L278.4 1136H286.667H294.8V1150.27ZM1113.2 1152.13L1118.67 1164.13L1114.13 1166.13C1111.6 1167.2 1109.07 1168 1108.4 1168C1107.33 1168 1096 1144.53 1096.13 1142.4C1096.13 1141.33 1099.6 1140.4 1104.27 1140.13C1107.2 1140 1108.27 1141.33 1113.2 1152.13ZM1096.53 1153.73C1098.67 1158.67 1100.27 1163.07 1099.87 1163.47C1099.47 1163.87 1095.73 1164.27 1091.47 1164.4L1083.73 1164.67L1080.67 1156.27L1077.47 1147.87L1080.53 1146.8C1090.8 1142.93 1091.87 1143.33 1096.53 1153.73ZM1078.53 1159.6C1080.8 1165.33 1082.93 1171.07 1083.47 1172.27C1084.27 1174.27 1083.73 1174.67 1080 1174.67C1073.73 1174.67 1072.8 1173.73 1069.73 1164.67C1068.13 1160.27 1066.53 1155.6 1066.13 1154.4C1065.47 1152.67 1066.13 1151.6 1068.27 1150.8C1073.87 1148.53 1074.53 1149.07 1078.53 1159.6ZM202.267 1161.47C203.467 1170 203.467 1170.67 201.2 1170.67C199.067 1170.67 198.8 1169.47 198.8 1160.4C198.8 1148.27 200.267 1148.67 202.267 1161.47ZM746.8 1160V1169.33H740.133H733.467V1162.13C733.467 1158.13 733.067 1154 732.667 1152.8C732 1151.07 733.067 1150.67 739.333 1150.67H746.8V1160ZM840.8 1158.53C842.133 1168.4 840.933 1170.67 834.933 1170.67C829.867 1170.67 829.867 1170.67 828.933 1164.53C827.333 1152.27 827.467 1152 834 1152H839.867L840.8 1158.53ZM655.6 1159.2C659.467 1162.13 656.533 1164.13 646.933 1164.93C637.6 1165.87 636.267 1164.13 643.2 1160C648.267 1156.8 652 1156.67 655.6 1159.2ZM306.8 1166C305.067 1167.87 303.2 1169.33 302.533 1169.33C301.333 1169.33 308.133 1162.8 309.333 1162.67C309.733 1162.67 308.533 1164.13 306.8 1166ZM1102.13 1169.2C1100.4 1170.67 1084.67 1172.27 1086.27 1170.67C1087.47 1169.47 1092.53 1168.53 1099.47 1168.13C1101.73 1168.13 1102.8 1168.53 1102.13 1169.2ZM246.533 1174.27C248.533 1175.73 250.267 1178.13 250.533 1179.47C250.8 1181.2 250.267 1180.93 248.8 1178.4C247.333 1175.87 245.333 1174.53 241.733 1173.87C239.067 1173.47 235.067 1172.53 232.8 1171.87C229.6 1170.93 230.133 1170.8 235.867 1171.2C240.267 1171.47 244.4 1172.67 246.533 1174.27Z" fill="black"/>
<path d="M502.666 575.867C497.066 581.467 497.199 590 502.799 596.533L506.933 601.067L501.866 611.067C497.866 619.333 497.333 621.467 498.666 623.067C500.533 625.333 507.199 628.667 512.533 630C515.733 630.8 516.133 630.533 516.133 627.867C516.133 623.333 517.733 621.2 520.133 622.667C521.199 623.467 522.533 624 523.066 624C524.799 624 532.266 612 531.333 610.533C530.933 609.733 527.066 606.933 522.933 604.4C518.799 601.733 515.199 599.467 515.066 599.2C514.799 599.067 516.533 597.067 518.933 594.933C522.666 591.6 523.466 590 523.466 585.333C523.466 580.667 522.666 579.067 519.066 575.867C513.333 570.667 507.866 570.8 502.666 575.867ZM516.266 578.533C520.933 583.333 521.199 587.067 516.799 591.333C512.933 595.333 510.799 595.467 506.266 591.867C500.799 587.6 501.866 577.867 508.133 575.6C511.599 574.4 512.266 574.533 516.266 578.533ZM522.399 607.6C525.599 609.467 528.399 611.333 528.666 611.867C529.066 612.4 527.999 614.533 526.266 616.667L523.199 620.4L520.399 617.6C516.533 613.733 515.733 613.867 511.199 619.467C507.733 623.733 506.933 624.133 504.399 622.8C501.199 621.067 501.333 620.8 507.199 609.6C511.333 601.6 511.999 601.6 522.399 607.6ZM512.933 626.267C511.599 627.6 510.399 625.6 511.599 623.867C512.399 622.4 512.666 622.4 513.199 623.867C513.466 624.8 513.333 625.867 512.933 626.267Z" fill="black"/>
<path d="M457.466 576.267C452.399 578.134 449.599 581.334 448.666 586.267C447.066 594.667 452.799 602.667 460.266 602.667C464.933 602.667 471.466 596.267 472.533 590.8C474.533 581.2 465.999 573.067 457.466 576.267ZM466.799 581.334C470.399 584.934 470.266 591.6 466.533 595.6C462.933 599.467 459.199 599.467 455.199 595.734C449.066 590 452.799 578.667 460.799 578.667C462.666 578.667 465.333 579.867 466.799 581.334Z" fill="black"/>
<path d="M457.601 612C455.334 615.6 452.534 620.933 451.467 623.6L449.334 628.667L453.601 632.533L458.001 636.4L460.401 633.333C461.734 631.733 462.801 629.733 462.801 628.8C462.801 628 463.734 626.133 464.801 624.8C466.801 622.267 466.934 622.267 471.601 626.8L476.401 631.333L480.934 626C483.334 623.067 485.467 620.267 485.467 619.867C485.467 618.8 464.534 605.333 462.934 605.333C462.267 605.333 459.867 608.267 457.601 612ZM473.067 613.467C481.201 618.133 482.401 619.867 480.134 623.867C478.134 627.733 476.001 627.333 471.467 622.667C469.334 620.4 467.201 618.667 466.667 618.667C466.001 618.667 464.001 621.333 462.001 624.667C458.267 631.2 457.334 631.733 454.934 628.8C453.334 626.933 455.601 620.8 461.201 612.267C463.734 608.4 464.401 608.533 473.067 613.467Z" fill="black"/>
<path d="M632.133 634.267C622.4 635.2 622.267 635.6 623.333 655.2C623.733 664.533 624.4 672.667 624.667 673.2C624.933 673.6 634.4 673.333 645.733 672.4C656.933 671.6 666.933 670.8 668 670.8C670 670.667 669.6 663.467 666.533 642.933L665.2 633.333L651.6 633.6C644.267 633.733 635.467 634 632.133 634.267ZM665.2 650.933C666 659.867 666.4 667.467 666.133 667.733C665.467 668.533 628 671.067 627.467 670.4C627.2 670.133 626.8 662.4 626.533 653.333L626.133 636.667L637.467 635.867C643.733 635.467 652.133 635.067 656.267 634.933L663.6 634.667L665.2 650.933Z" fill="black"/>
<path d="M655.2 639.467C654.8 640.534 655.066 642.134 656 643.067C657.066 644.134 657.466 643.6 657.466 640.934C657.466 636.934 656.533 636.267 655.2 639.467Z" fill="black"/>
<path d="M658.801 640.667C658.801 642.667 659.334 643.867 660.134 643.333C660.934 642.933 661.467 641.733 661.467 640.667C661.467 639.6 660.934 638.4 660.134 638C659.334 637.467 658.801 638.667 658.801 640.667Z" fill="black"/>
<path d="M638.801 641.333C638.801 642.8 639.334 644 640.001 644C640.667 644 640.934 642.8 640.534 641.333C640.134 639.867 639.601 638.667 639.334 638.667C639.067 638.667 638.801 639.867 638.801 641.333Z" fill="black"/>
<path d="M642.801 641.2C642.801 642.8 643.467 644 644.134 644C644.934 644 645.467 643.2 645.467 642.133C645.467 641.067 644.934 639.733 644.134 639.333C643.467 638.933 642.801 639.733 642.801 641.2Z" fill="black"/>
<path d="M650.4 640.533C649.866 641.867 649.733 643.333 650.133 643.733C651.333 644.933 652.4 642.933 651.866 640.4C651.466 638.133 651.333 638.133 650.4 640.533Z" fill="black"/>
<path d="M637.467 718.667V742.667H670.133H702.8V718.667V694.667H670.133H637.467V718.667ZM654.8 701.867C654.8 705.467 652.667 706.667 646 706.667C641.867 706.667 641.467 706.267 641.467 702.667C641.467 698.8 641.6 698.667 648.133 698.667C654.267 698.667 654.8 698.934 654.8 701.867ZM669.467 702.667C669.467 706.534 669.2 706.667 663.733 706.667C656.8 706.667 656.267 706.267 657.2 702C657.733 699.067 658.4 698.667 663.6 698.667C669.2 698.667 669.467 698.8 669.467 702.667ZM681.467 702.667C681.467 706.4 681.067 706.667 676.8 706.667C672.533 706.667 672.133 706.4 672.133 702.667C672.133 698.934 672.533 698.667 676.8 698.667C681.067 698.667 681.467 698.934 681.467 702.667ZM698.8 702.667C698.8 706.534 698.667 706.667 692.133 706.667C685.6 706.667 685.467 706.534 685.467 702.667C685.467 698.8 685.6 698.667 692.133 698.667C698.667 698.667 698.8 698.8 698.8 702.667ZM653.467 713.467C653.467 717.334 653.333 717.467 647.867 717.067C642.667 716.667 642.133 716.267 641.733 712.934C641.333 709.467 641.467 709.334 647.333 709.334C653.333 709.334 653.467 709.467 653.467 713.467ZM669.467 713.334C669.467 717.2 669.333 717.334 662.8 717.334C656.267 717.334 656.133 717.2 656.133 713.334C656.133 709.467 656.267 709.334 662.8 709.334C669.333 709.334 669.467 709.467 669.467 713.334ZM682.533 712.934C682.133 716.134 681.467 716.667 677.2 717.067C672.4 717.467 672.133 717.334 672.133 713.467C672.133 709.467 672.4 709.334 677.6 709.334C682.667 709.334 682.933 709.467 682.533 712.934ZM698.8 713.334C698.8 717.2 698.667 717.334 692.133 717.334C685.6 717.334 685.467 717.2 685.467 713.334C685.467 709.467 685.6 709.334 692.133 709.334C698.667 709.334 698.8 709.467 698.8 713.334ZM653.467 723.467C653.467 726.667 653.2 726.8 647.2 726.4C641.733 726 640.8 725.6 640.4 722.934C640 720.267 640.4 720 646.667 720C653.067 720 653.467 720.267 653.467 723.467ZM669.467 724.134C669.467 727.334 669.067 728.134 667.333 727.467C666.133 727.067 663.2 726.667 660.667 726.667C656.667 726.667 656.133 726.267 656.133 723.334C656.133 720.267 656.533 720 662.8 720C669.333 720 669.467 720 669.467 724.134ZM682.8 724.134C682.8 728 682.533 728.134 677.867 727.734C673.467 727.334 672.8 726.8 672.4 723.6C672 720.134 672.267 720 677.333 720C682.533 720 682.8 720.134 682.8 724.134ZM698.8 724C698.8 727.867 698.667 728 692.133 728C685.6 728 685.467 727.867 685.467 724C685.467 720.134 685.6 720 692.133 720C698.667 720 698.8 720.134 698.8 724ZM649.6 730.667C653.067 730.667 653.467 731.067 653.467 734.8C653.467 738.8 653.333 738.8 647.2 738.4C642.267 738.134 640.667 737.467 640.4 735.6C639.6 731.867 641.2 728.934 643.6 729.867C644.8 730.267 647.467 730.667 649.6 730.667ZM670.533 734.267L670.933 738.667H663.6C656.267 738.667 656.133 738.667 656.133 734.8C656.133 730.267 657.6 729.334 664.8 729.734C669.733 730 670.133 730.267 670.533 734.267ZM682.8 734.8C682.8 738.667 682.533 738.8 677.867 738.4C673.467 738 672.8 737.467 672.4 734.267C672 730.8 672.267 730.667 677.333 730.667C682.533 730.667 682.8 730.8 682.8 734.8ZM698.8 734.667C698.8 738.534 698.667 738.667 692.133 738.667C685.6 738.667 685.467 738.534 685.467 734.667C685.467 730.8 685.6 730.667 692.133 730.667C698.667 730.667 698.8 730.8 698.8 734.667Z" fill="black"/>
<path d="M1147.47 732C1146.53 733.6 1147.73 736 1149.6 736C1150.27 736 1150.8 734.8 1150.8 733.333C1150.8 730.533 1148.8 729.733 1147.47 732Z" fill="black"/>
<path d="M1121.47 734C1121.47 735.067 1122.4 736 1123.47 736C1124.53 736 1125.47 735.067 1125.47 734C1125.47 732.933 1124.53 732 1123.47 732C1122.4 732 1121.47 732.933 1121.47 734Z" fill="black"/>
<path d="M1131.73 738.933C1131.2 742.133 1130.53 746.267 1130 748.267C1129.33 751.333 1129.73 752.133 1132.67 753.333C1134.53 754 1136.13 755.6 1136.13 756.933C1136.27 758.933 1136.67 758.8 1139.07 756L1141.73 752.667L1137.33 752C1133.73 751.467 1132.93 750.8 1133.2 748.667C1134.8 738.133 1134.93 733.333 1133.87 733.333C1133.07 733.333 1132.13 735.867 1131.73 738.933Z" fill="black"/>
<path d="M538.666 750.267C539.732 754.133 542.799 756.133 542.799 752.933C542.799 749.467 541.332 746.667 539.466 746.667C538.266 746.667 537.999 747.733 538.666 750.267Z" fill="black"/>
<path d="M792.8 746.667C791.867 748.267 793.067 750.667 794.934 750.667C796.534 750.667 796.534 747.067 794.934 746C794.267 745.6 793.334 745.867 792.8 746.667Z" fill="black"/>
<path d="M770.399 747.6C768.799 749.067 769.332 750.667 771.466 750.667C772.532 750.667 773.466 749.734 773.466 748.667C773.466 746.534 771.866 746 770.399 747.6Z" fill="black"/>
<path d="M378.266 829.467C373.866 832.934 371.2 841.2 373.333 845.2C376 850 383.066 848.667 386.133 842.534C391.333 832.667 385.733 823.6 378.266 829.467Z" fill="black"/>
<path d="M402.267 878.133C398.8 885.867 396.267 892.533 396.667 893.067C398 894.267 399.333 892 405.2 878.4C411.2 864.8 411.333 864 409.733 864C409.2 864 405.867 870.4 402.267 878.133Z" fill="black"/>
<path d="M824.934 447.467C822.267 450.134 822.267 451.334 824.934 454C827.067 456 827.334 456 829.734 453.6C832 451.467 832.134 450.534 830.934 448.134C829.067 444.8 827.734 444.667 824.934 447.467ZM829.467 450.667C829.467 453.467 827.467 454.267 826.134 452C825.2 450.4 826.4 448 828.267 448C828.934 448 829.467 449.2 829.467 450.667Z" fill="black"/>
<path d="M240.933 461.2C240.533 461.733 241.733 462 243.466 461.6C245.333 461.333 246.799 460.8 246.799 460.533C246.799 459.467 241.599 460 240.933 461.2Z" fill="black"/>
<path d="M259.068 460.934C264.801 461.2 269.734 462.134 270.534 463.067C271.334 464 272.134 471.067 272.401 478.934C272.668 490 272.401 493.467 271.068 494C270.001 494.4 263.334 494.667 256.134 494.667H242.934L242.268 488.934C241.868 485.867 241.201 481.467 240.934 479.334C240.668 477.067 240.534 480.134 240.668 486L240.801 496.667L249.468 497.067C254.268 497.334 261.868 497.2 266.534 496.667L274.801 495.734V480.934C274.801 458.8 275.468 460 260.934 460.267L248.801 460.534L259.068 460.934Z" fill="black"/>
<path d="M764.133 544.533V628.933L774.133 629.6C779.733 630 808.666 630 838.666 629.6L893.066 628.933L893.733 546.8C893.999 501.6 894.133 463.6 893.733 462.267C893.199 460.133 888.933 460 828.666 460H764.133V544.533ZM810.799 465.333C810.799 466 809.599 466.667 808.133 466.667C805.866 466.667 805.466 467.6 805.466 473.333V480H827.333H849.066L849.866 474.4C850.799 467.333 850.399 466.667 844.666 466.667C842.133 466.667 840.133 466 840.133 465.333C840.133 464.533 849.333 464 865.199 464H890.399L891.199 480.933C891.733 490.4 892.133 526.933 892.133 562.267V626.667H829.466H766.799V545.333V464H788.799C802.533 464 810.799 464.533 810.799 465.333ZM837.466 468C837.466 470.133 838.399 470.667 842.133 470.667C845.866 470.667 846.799 471.2 846.799 473.333C846.799 475.867 845.866 476 827.466 476C809.066 476 808.133 475.867 808.133 473.333C808.133 471.2 809.066 470.667 812.666 470.667C816.133 470.667 817.466 470 818.133 468C818.933 465.733 820.133 465.333 828.266 465.333C836.533 465.333 837.466 465.6 837.466 468Z" fill="black"/>
<path d="M842.267 516.667C832.134 518.4 823.334 520.267 822.8 520.934C821.734 522 823.467 551.6 824.8 556C825.467 558.134 826.267 558.134 837.867 555.867C844.534 554.534 854.534 553.067 859.867 552.534C869.467 551.6 869.6 551.6 868.934 548.134C868.534 546.267 866.934 537.6 865.334 528.934C863.867 520.4 862.134 513.334 861.6 513.467C861.2 513.6 852.534 515.067 842.267 516.667ZM861.467 516.934C861.467 517.6 862.4 523.734 863.467 530.667C866.534 550.534 867.867 548.534 849.867 551.2C841.334 552.4 832.667 553.867 830.667 554.267L827.067 554.934L826.267 543.2C825.734 536.667 825.2 529.067 824.934 526.4C824.4 521.067 824.267 521.067 840.134 519.334C843.467 518.934 848.8 518.134 852.134 517.467C860.4 515.867 861.467 515.867 861.467 516.934Z" fill="black"/>
<path d="M850.801 521.2C850.801 524.267 852.534 526.667 854.801 526.667C857.601 526.667 859.467 522.8 857.467 520.8C856.534 519.867 856.134 520.4 856.134 522.4C856.134 524 855.601 525.334 854.801 525.334C854.134 525.334 853.467 524.534 853.467 523.467C853.467 522.4 852.934 521.067 852.134 520.667C851.467 520.267 850.801 520.4 850.801 521.2Z" fill="black"/>
<path d="M837.6 524.933C837.467 526.8 838.267 528 839.334 528C842.134 528 843.334 525.333 841.6 523.6C840.534 522.533 840.134 522.8 840 524.667C840 527.2 839.867 527.2 838.8 524.667C837.734 522.133 837.6 522.133 837.6 524.933Z" fill="black"/>
<path d="M845.467 524.667C845.467 525.734 846.133 526.667 846.8 526.667C847.6 526.667 848.133 525.734 848.133 524.667C848.133 523.6 847.6 522.667 846.8 522.667C846.133 522.667 845.467 523.6 845.467 524.667Z" fill="black"/>
<path d="M780.267 517.733C779.467 519.6 777.734 527.2 776.401 534.667L773.867 548.267L776.667 549.467C778.134 550.133 787.201 552.4 796.801 554.667C809.601 557.467 814.267 558.133 815.067 556.933C816.267 554.933 818.001 540 818.001 530.133L818.134 522.267L803.467 519.067C795.467 517.333 787.201 515.6 785.201 515.2C782.134 514.533 781.334 514.933 780.267 517.733ZM791.601 518.133C796.667 519.6 798.801 520.933 798.801 522.4C798.801 524.133 799.067 524.267 800.001 522.8C800.801 521.6 802.667 521.333 806.534 522C811.734 522.8 811.867 523.067 810.667 526.267C810.001 528.133 809.734 530 810.001 530.4C810.401 530.8 811.334 529.467 812.001 527.467C814.134 522.267 816.134 523.333 816.134 529.6C816.134 536.133 813.734 553.467 812.801 554.533C811.467 555.733 778.534 547.467 777.867 545.867C777.201 544 782.667 516 783.734 516C784.134 516 787.601 516.933 791.601 518.133Z" fill="black"/>
<path d="M793.601 523.733C793.468 525.867 794.534 527.067 796.934 528C801.334 529.733 802.801 529.733 802.801 527.867C802.801 527.2 802.268 526.8 801.601 527.333C800.934 527.733 800.001 527.467 799.468 526.8C799.068 526 797.868 525.733 796.801 526.133C795.734 526.667 794.801 525.733 794.401 523.733L793.868 520.667L793.601 523.733Z" fill="black"/>
<path d="M805.734 527.333C805.734 529.466 806.001 530.266 806.401 528.933C806.668 527.733 806.668 525.866 806.401 524.933C806.001 524.133 805.734 525.066 805.734 527.333Z" fill="black"/>
<path d="M821.734 580.933C799.868 581.333 793.334 581.733 793.868 583.067C794.134 583.867 796.268 584.667 798.534 584.533C800.934 584.533 816.268 584.4 832.801 584.267C858.401 584 862.801 583.733 862.801 582C862.801 580.4 861.334 580.133 856.534 580.267C852.934 580.533 837.334 580.8 821.734 580.933Z" fill="black"/>
<path d="M799.066 590.267C797.466 590.534 796.399 591.467 796.799 592.134C797.866 593.6 859.733 593.734 860.666 592.134C861.066 591.6 857.733 590.667 853.199 590.134C844.399 589.2 803.999 589.334 799.066 590.267Z" fill="black"/>
<path d="M816.4 599.6C812.534 599.867 809.734 600.667 810.134 601.467C811.2 603.067 845.067 603.067 846.134 601.333C846.667 600.533 844.667 600 841.067 600C837.867 600 832.534 599.733 829.334 599.467C826.134 599.2 820.267 599.333 816.4 599.6Z" fill="black"/>
<path d="M819.468 609.334C819.868 610 824.534 610.667 829.601 610.667C835.468 610.667 838.668 610.134 838.134 609.334C837.734 608.534 833.068 608 828.001 608C822.134 608 818.934 608.534 819.468 609.334Z" fill="black"/>
<path d="M722.533 462.133C721.867 462.667 721.467 464.667 721.467 466.533C721.467 468.933 721.867 469.467 722.933 468.4C723.733 467.6 724.133 465.6 723.867 464C723.733 462.4 723.067 461.6 722.533 462.133Z" fill="black"/>
<path d="M689.067 464.933C688.133 466.4 691.6 472 693.6 472C695.467 472 695.067 469.867 692.4 466.533C690.933 464.933 689.6 464.133 689.067 464.933Z" fill="black"/>
<path d="M362.533 472.933C354.533 473.2 348.133 473.867 348.133 474.4C348.133 474.933 355.199 475.333 363.733 475.333H379.466L380.266 490.667C380.666 499.067 380.799 506.267 380.533 506.667C380.133 507.067 373.333 507.6 365.466 507.733C349.199 508.267 350.266 508.933 349.066 497.333C348.666 494.4 348.533 495.333 348.399 500.267C348.266 505.067 348.799 508.267 349.866 508.933C351.999 510.267 380.399 509.467 381.999 508C383.466 506.533 382.933 477.467 381.333 474.4C380.666 473.067 379.333 472.133 378.399 472.267C377.466 472.4 370.399 472.8 362.533 472.933Z" fill="black"/>
<path d="M707.467 481.2C702.667 481.867 702.133 482.4 701.733 486.267C701.333 490.267 700.933 490.667 696.933 490.667C688.133 490.667 687.467 492.267 687.467 513.733C687.467 534.933 688.267 537.333 694.933 537.333C698.267 537.333 698.8 537.867 698.8 541.067C698.8 547.067 700.8 548 714.133 547.867C732.4 547.6 734 547.067 734.8 540.667C735.333 536.533 736.133 535.2 738.267 534.933C739.867 534.667 742.267 533.333 743.467 532C745.467 529.733 745.6 528 744.267 514.4C741.6 488.933 740.267 486.533 728.8 488.4C724.533 489.067 724.267 488.933 723.867 484.933C723.467 480.933 723.067 480.667 718.133 480.533C715.2 480.4 710.4 480.667 707.467 481.2ZM720.133 488C720.133 492 720 492 712.8 492C708.8 492 705.467 491.467 705.467 490.8C705.467 490.133 705.067 488.667 704.667 487.6C703.867 485.467 706.667 484.667 715.867 484.133C719.733 484 720.133 484.4 720.133 488ZM729.467 499.2C729.467 503.067 729.867 509.067 730.267 512.4L731.067 518.4L716.933 519.333C709.067 519.867 702.533 520.133 702.267 519.867C702 519.6 701.333 513.467 700.8 506.267L699.867 493.333L703.733 494.8C705.733 495.467 708.667 497.2 710.133 498.533C713.867 501.867 716.133 503.067 716.133 501.6C716.133 500.933 714.667 499.733 712.8 498.933C707.6 496.533 708.667 494.267 714.533 494.933C717.2 495.333 721.333 494.8 723.467 493.867C729.333 491.333 729.467 491.333 729.467 499.2ZM738 495.6C740 505.333 741.2 527.333 739.867 528.933C736.8 532.667 735.2 530.667 734.4 521.6C732.8 505.2 733.2 492 735.333 492C736.4 492 737.6 493.6 738 495.6ZM697.467 513.467C697.467 527.6 697.067 532.133 695.867 531.733C693.2 530.8 692.4 525.733 692.267 509.6C692.133 495.467 692.267 494.667 694.8 494.667C697.333 494.667 697.467 495.6 697.467 513.467ZM730.8 527.867C730.8 529.867 729.333 530.4 721.867 531.067C707.067 532.533 701.467 532.267 701.467 530.133C701.467 528.8 703.733 528 709.2 527.333C713.333 526.933 718 526.4 719.467 526.133C727.6 524.8 730.8 525.333 730.8 527.867ZM730.8 536C730.8 538.4 729.867 538.667 722.533 538.667C717.867 538.8 711.6 539.333 708.533 539.867C703.467 540.8 702.8 540.667 702.8 538.533C702.8 536.667 704.267 536 709.867 535.467C713.6 535.067 718.667 534.4 720.8 534.267C730 533.067 730.8 533.2 730.8 536Z" fill="black"/>
<path d="M668.133 488C668.133 489.733 671.866 491.333 673.199 490.133C673.599 489.6 673.199 488.667 672.133 488C669.466 486.267 668.133 486.4 668.133 488Z" fill="black"/>
<path d="M986.534 520.134C983.468 521.867 983.468 526.267 986.534 527.867C989.334 529.334 992.134 527.467 992.134 524C992.001 522.4 991.868 522.4 990.668 524.267C990.001 525.6 988.801 526.667 988.134 526.667C986.001 526.667 986.668 522.667 988.801 521.867C990.801 521.067 991.601 518.667 989.868 518.667C989.201 518.667 987.734 519.334 986.534 520.134Z" fill="black"/>
<path d="M481.999 527.333C480.799 530.4 482.399 533.333 485.333 533.333C487.999 533.333 490.266 529.067 488.799 526.667C487.599 524.667 482.799 525.067 481.999 527.333ZM487.466 529.467C487.466 530.4 486.399 531.467 485.199 531.733C482.799 532.133 481.866 529.333 483.733 527.467C485.066 526.133 487.466 527.333 487.466 529.467Z" fill="black"/>
<path d="M946.534 532.933L922.801 533.333V622.667V711.867L989.201 712.267C1025.6 712.533 1055.87 712.533 1056.53 712.267C1057.07 712 1057.47 671.733 1057.47 622.533V533.333H1022.53C1003.2 533.333 983.601 533.067 978.801 532.933C974.001 532.667 959.467 532.667 946.534 532.933ZM1053.47 622.667V709.333H989.467H925.467V623.333V537.333H946.134H966.801L966.534 540.933C966.401 543.067 966.401 546.667 966.534 548.933L966.801 553.333H989.467H1012.13V547.333C1012.13 542.267 1011.73 541.333 1009.6 541.333C1008.13 541.333 1006.13 540.933 1004.93 540.533C999.201 538.267 1004.8 537.333 1025.2 536.933C1037.47 536.8 1048.8 536.4 1050.53 536.267L1053.47 536V622.667ZM1000.13 541.333C1000.13 543.467 1001.07 544 1004.8 544C1008.53 544 1009.47 544.533 1009.47 546.667C1009.47 549.2 1008.53 549.333 989.601 549.333C973.601 549.333 969.601 548.933 969.067 547.467C968.534 546 969.601 545.333 973.201 545.067C976.801 544.8 978.534 543.867 979.467 541.6C980.667 538.933 981.734 538.667 990.401 538.667C999.201 538.667 1000.13 538.933 1000.13 541.333Z" fill="black"/>
<path d="M1018.8 575.733C1018.8 577.333 1021.33 579.2 1022.27 578.267C1022.53 578 1022 576.933 1020.8 576C1019.6 574.933 1018.8 574.933 1018.8 575.733Z" fill="black"/>
<path d="M1016.13 586.667C1016.13 587.333 1016.8 588 1017.6 588C1018.27 588 1018.53 587.333 1018.13 586.667C1017.73 585.867 1017.07 585.333 1016.67 585.333C1016.4 585.333 1016.13 585.867 1016.13 586.667Z" fill="black"/>
<path d="M980.133 590.8C980.133 591.334 981.066 593.467 982.133 595.467C983.199 597.6 984.133 598.4 984.133 597.2C984.133 595.334 980.266 589.067 980.133 590.8Z" fill="black"/>
<path d="M990.801 592.533C990.801 592.8 991.734 593.733 992.801 594.667C994.534 596.133 994.667 596 994.001 594.133C993.334 592.267 990.801 591.067 990.801 592.533Z" fill="black"/>
<path d="M1026.8 594.533C1026.8 596 1027.47 597.6 1028.13 598C1028.93 598.4 1029.47 597.6 1029.47 596.133C1029.47 594.667 1028.93 593.067 1028.13 592.667C1027.47 592.267 1026.8 593.067 1026.8 594.533Z" fill="black"/>
<path d="M1008.13 594.533C1008.13 595.333 1008.8 596.267 1009.47 596.667C1010.27 597.2 1010.53 598 1010.13 598.667C1009.73 599.2 1010.4 600.4 1011.47 601.333C1014 603.467 1014 602.267 1011.47 597.333C1009.33 593.333 1008.13 592.267 1008.13 594.533Z" fill="black"/>
<path d="M1017.47 595.867C1017.47 596.533 1018.4 597.733 1019.47 598.667C1021.6 600.533 1021.87 600 1020.67 596.8C1019.87 594.533 1017.47 593.867 1017.47 595.867Z" fill="black"/>
<path d="M968.934 599.733C968.401 600.533 967.067 600.8 965.734 600.4C963.734 599.6 963.734 599.733 965.334 601.733C966.267 602.933 967.734 603.6 968.401 603.2C969.201 602.666 970.267 603.2 970.934 604.133C971.867 605.733 972.134 605.6 972.134 604C972.134 600.933 970.001 598.133 968.934 599.733Z" fill="black"/>
<path d="M1001.47 600.267C1001.47 602.667 1003.87 604.8 1005.2 603.467C1005.6 602.934 1004.93 601.6 1003.73 600.4C1001.6 598.267 1001.47 598.267 1001.47 600.267Z" fill="black"/>
<path d="M958.801 601.6C958.801 602.8 959.467 604.267 960.134 604.667C961.867 605.733 961.867 604 960.134 601.333C959.067 599.6 958.801 599.6 958.801 601.6Z" fill="black"/>
<path d="M984.133 601.867C984.133 602.934 984.799 604.267 985.466 604.667C986.266 605.067 986.799 604.534 986.799 603.467C986.799 602.4 986.266 601.067 985.466 600.667C984.799 600.267 984.133 600.8 984.133 601.867Z" fill="black"/>
<path d="M993.466 602.667C994.266 604.133 995.466 605.067 996.266 604.533C997.066 604 997.066 603.067 995.999 601.867C993.733 599.067 991.866 599.6 993.466 602.667Z" fill="black"/>
<path d="M953.467 616.533C953.467 616.933 955.067 618.933 957.067 620.933C959.467 623.467 960.267 623.867 959.733 622.267C959.2 620.933 958.8 619.6 958.8 619.333C958.8 618.933 957.6 618.133 956.133 617.333C954.667 616.533 953.467 616.133 953.467 616.533Z" fill="black"/>
<path d="M989.201 618.134C990.934 621.467 994.801 624.8 994.801 623.067C994.801 622.4 993.201 620.4 991.334 618.534C988.134 615.734 987.868 615.6 989.201 618.134Z" fill="black"/>
<path d="M973.467 619.067C973.467 620.133 974.267 621.733 975.333 622.533C976.933 623.867 977.067 623.6 976.533 621.333C975.6 618 973.467 616.4 973.467 619.067Z" fill="black"/>
<path d="M1016.13 618.8C1016.13 619.733 1014.8 620 1012.8 619.467C1010.93 618.933 1009.47 619.067 1009.47 619.6C1009.47 621.333 1012.13 624.8 1012.13 623.2C1012.13 622.267 1013.87 621.867 1016.13 622.133C1019.87 622.533 1020.13 622.4 1018.8 620C1017.2 617.067 1016.13 616.533 1016.13 618.8Z" fill="black"/>
<path d="M1025.47 620.133C1026.4 621.6 1027.33 622.667 1027.6 622.267C1028.53 621.333 1026.67 617.333 1025.33 617.333C1024.53 617.333 1024.67 618.533 1025.47 620.133Z" fill="black"/>
<path d="M962.934 620C962.934 621.067 963.467 622.934 964.134 624C965.734 626.4 965.734 624.267 964.134 620.667C963.334 618.934 962.934 618.667 962.934 620Z" fill="black"/>
<path d="M998.801 619.467C998.934 621.6 1002.67 625.6 1004.13 625.067C1004.93 624.8 1004.13 623.2 1002.27 621.467C1000.4 619.6 998.801 618.8 998.801 619.467Z" fill="black"/>
<path d="M1016.27 633.867C1015.2 635.2 1015.2 636 1016.67 637.2C1018.13 638.4 1018.67 638.133 1019.2 636C1020 632.667 1018.27 631.333 1016.27 633.867Z" fill="black"/>
<path d="M1024.4 633.467C1024.67 634.4 1025.73 635.467 1026.67 635.733C1027.73 636.133 1028.27 635.6 1027.87 634.533C1027.6 633.6 1026.53 632.533 1025.6 632.267C1024.53 631.867 1024 632.4 1024.4 633.467Z" fill="black"/>
<path d="M948.133 635.2C948.133 636.4 948.799 637.333 949.466 637.333C950.266 637.333 950.799 636.8 950.799 636.133C950.799 635.333 950.266 634.4 949.466 634C948.799 633.6 948.133 634.133 948.133 635.2Z" fill="black"/>
<path d="M954.801 634.933C954.801 635.866 956.001 637.466 957.601 638.4C960.134 640 960.134 639.866 958.934 637.466C957.067 634 954.801 632.666 954.801 634.933Z" fill="black"/>
<path d="M965.467 634.134C965.467 634.8 966.4 636.667 967.467 638.134C968.533 639.467 969.467 640 969.467 639.2C969.467 638.534 968.533 636.667 967.467 635.2C966.4 633.867 965.467 633.334 965.467 634.134Z" fill="black"/>
<path d="M977.467 635.6C977.467 637.2 978.133 638.934 978.933 639.334C981.2 640.8 981.333 639.6 979.467 636C977.6 632.8 977.6 632.8 977.467 635.6Z" fill="black"/>
<path d="M997.332 637.2C999.332 640.8 1001.47 642 1001.47 639.467C1001.47 638.4 1000.27 636.8 998.666 636C996.132 634.533 995.999 634.667 997.332 637.2Z" fill="black"/>
<path d="M1008.13 636.267C1008.13 637.467 1008.8 638.933 1009.47 639.333C1011.2 640.4 1011.2 638.667 1009.47 636C1008.4 634.267 1008.13 634.267 1008.13 636.267Z" fill="black"/>
<path d="M987.066 637.6C987.332 638.4 988.399 639.466 989.199 639.733C990.132 640 990.532 639.466 989.999 638.133C989.066 635.733 986.266 635.2 987.066 637.6Z" fill="black"/>
<path d="M1009.47 647.2C1009.47 648.267 1010.13 649.6 1010.8 650C1011.6 650.4 1012.13 649.6 1012.13 648.133C1012.13 646.533 1011.6 645.333 1010.8 645.333C1010.13 645.333 1009.47 646.133 1009.47 647.2Z" fill="black"/>
<path d="M1024.4 646.8C1024.67 647.734 1025.73 648.8 1026.67 649.067C1027.73 649.467 1028.27 648.934 1027.87 647.867C1027.6 646.934 1026.53 645.867 1025.6 645.6C1024.53 645.2 1024 645.734 1024.4 646.8Z" fill="black"/>
<path d="M960.933 648.667C961.466 649.734 962.266 650.667 962.933 650.667C963.466 650.667 963.733 649.734 963.333 648.667C962.799 647.6 961.999 646.667 961.333 646.667C960.799 646.667 960.533 647.6 960.933 648.667Z" fill="black"/>
<path d="M969.734 648.267C970 649.067 971.067 650.133 971.867 650.4C972.8 650.667 973.2 650.133 972.667 648.8C971.734 646.4 968.934 645.867 969.734 648.267Z" fill="black"/>
<path d="M981.467 648.667C981.467 649.734 982.133 650.667 982.8 650.667C983.6 650.667 984.133 649.734 984.133 648.667C984.133 647.6 983.6 646.667 982.8 646.667C982.133 646.667 981.467 647.6 981.467 648.667Z" fill="black"/>
<path d="M991.601 648.667C992.134 649.734 992.934 650.667 993.601 650.667C994.134 650.667 994.401 649.734 994.001 648.667C993.467 647.6 992.667 646.667 992.001 646.667C991.467 646.667 991.201 647.6 991.601 648.667Z" fill="black"/>
<path d="M1000.4 648.133C1000.67 649.067 1001.73 650.133 1002.67 650.4C1003.73 650.8 1004.27 650.267 1003.87 649.2C1003.6 648.267 1002.53 647.2 1001.6 646.933C1000.53 646.533 1000 647.067 1000.4 648.133Z" fill="black"/>
<path d="M1017.47 648.667C1017.47 649.734 1018 650.667 1018.8 650.667C1019.47 650.667 1019.73 649.734 1019.33 648.667C1018.8 647.6 1018.27 646.667 1018 646.667C1017.73 646.667 1017.47 647.6 1017.47 648.667Z" fill="black"/>
<path d="M956.133 657.334C956.133 658 956.799 658.667 957.466 658.667C958.266 658.667 958.799 658 958.799 657.334C958.799 656.534 958.266 656 957.466 656C956.799 656 956.133 656.534 956.133 657.334Z" fill="black"/>
<path d="M964.533 658.267C965.733 659.467 967.066 660.133 967.6 659.733C968.933 658.4 966.8 656 964.4 656C962.4 656 962.4 656.133 964.533 658.267Z" fill="black"/>
<path d="M972.133 657.867C972.133 659.067 973.066 660 974.266 660C976.533 660 976.133 657.067 973.733 656.267C972.799 656 972.133 656.667 972.133 657.867Z" fill="black"/>
<path d="M984.4 657.467C984.667 658.4 985.734 659.467 986.667 659.733C987.734 660.133 988.267 659.6 987.867 658.533C987.6 657.6 986.534 656.533 985.6 656.267C984.534 655.867 984 656.4 984.4 657.467Z" fill="black"/>
<path d="M994.266 658C994.799 659.067 995.999 660 997.066 660C998.799 660 998.799 659.6 997.466 658C996.533 656.933 995.333 656 994.666 656C993.999 656 993.866 656.933 994.266 658Z" fill="black"/>
<path d="M1002.8 658C1003.73 659.2 1004.8 659.734 1005.07 659.467C1006 658.534 1004.13 656 1002.53 656C1001.73 656 1001.73 656.8 1002.8 658Z" fill="black"/>
<path d="M1010.8 657.334C1010.8 658 1011.47 658.667 1012.27 658.667C1012.93 658.667 1013.2 658 1012.8 657.334C1012.4 656.534 1011.73 656 1011.33 656C1011.07 656 1010.8 656.534 1010.8 657.334Z" fill="black"/>
<path d="M1018.13 657.334C1018.53 658 1019.87 658.667 1020.93 658.667C1022 658.667 1022.53 658 1022.13 657.334C1021.73 656.534 1020.4 656 1019.33 656C1018.27 656 1017.73 656.534 1018.13 657.334Z" fill="black"/>
<path d="M1025.47 657.867C1025.47 659.867 1027.87 662 1028.93 660.933C1029.87 660 1028 656 1026.67 656C1026 656 1025.47 656.8 1025.47 657.867Z" fill="black"/>
<path d="M1001.47 670.667C1002.27 672.133 1003.6 673.333 1004.4 673.333C1005.2 673.333 1004.8 672.133 1003.47 670.667C1002.13 669.2 1000.8 668 1000.53 668C1000.27 668 1000.67 669.2 1001.47 670.667Z" fill="black"/>
<path d="M945.467 671.6C945.467 672.267 946.667 674 948.133 675.333C949.6 676.667 950.8 677.2 950.8 676.4C950.8 675.733 949.6 674 948.133 672.667C946.667 671.333 945.467 670.8 945.467 671.6Z" fill="black"/>
<path d="M949.734 672.267C950.001 673.067 951.734 674.667 953.601 675.867L956.801 677.867L953.601 674.267C950.134 670.4 948.934 669.733 949.734 672.267Z" fill="black"/>
<path d="M969.2 673.6C970.8 675.2 972.533 676.134 972.933 675.6C973.467 675.067 972.8 673.734 971.333 672.667C967.467 669.734 965.867 670.267 969.2 673.6Z" fill="black"/>
<path d="M976.133 671.733C976.133 672.4 977.333 674 978.799 675.333C980.933 677.2 981.466 677.333 981.466 675.866C981.466 673.733 978.933 670.666 977.199 670.666C976.666 670.666 976.133 671.2 976.133 671.733Z" fill="black"/>
<path d="M1012.13 671.734C1012.13 672.4 1013.07 673.734 1014.13 674.667C1015.2 675.6 1016.13 675.734 1016.13 674.934C1016.13 674.267 1015.2 672.934 1014.13 672C1013.07 671.067 1012.13 670.934 1012.13 671.734Z" fill="black"/>
<path d="M1022.8 675.333C1023.73 676.4 1025.07 677.333 1025.73 677.333C1026.53 677.333 1026.4 676.4 1025.47 675.333C1024.53 674.267 1023.2 673.333 1022.53 673.333C1021.73 673.333 1021.87 674.267 1022.8 675.333Z" fill="black"/>
<path d="M174.801 558.267C174.801 558.933 181.201 559.2 188.934 558.933C196.801 558.667 203.601 558.933 204.267 559.6C204.934 560.267 205.734 567.467 206.267 575.6L207.201 590.533L204.001 591.333C202.267 591.733 195.467 592 188.801 591.733L176.801 591.333L176.001 584.667L175.201 578L175.334 586L175.467 594L191.467 593.467C200.267 593.333 208.001 592.533 208.534 592C209.201 591.467 209.201 583.467 208.667 574.133L207.734 557.333H191.334C182.267 557.333 174.801 557.733 174.801 558.267Z" fill="black"/>
<path d="M658.133 585.333C656.533 588 658.933 592.133 661.867 591.733C666 591.2 666 584.8 661.867 584.267C660.4 584 658.667 584.533 658.133 585.333ZM663.467 588C663.467 588.933 662.667 590 661.867 590.267C660.8 590.667 660.133 589.733 660.133 588C660.133 586.267 660.8 585.333 661.867 585.6C662.667 586 663.467 587.067 663.467 588Z" fill="black"/>
<path d="M10.4009 592.933C9.86758 593.333 9.46758 594.8 9.46758 596C9.46758 597.067 8.26758 600.4 6.93424 603.2L4.26758 608.267L7.60091 607.6C10.8009 607.067 10.8009 607.2 10.8009 617.067C10.8009 632.133 11.6009 628.267 12.5342 608.933C13.3342 593.467 12.9342 590.4 10.4009 592.933Z" fill="black"/>
<path d="M0.132812 606.667C0.132812 607.333 0.799479 608 1.46615 608C2.26615 608 2.79948 607.333 2.79948 606.667C2.79948 605.867 2.26615 605.333 1.46615 605.333C0.799479 605.333 0.132812 605.867 0.132812 606.667Z" fill="black"/>
<path d="M0.800895 610.533C0.400895 611.467 1.06756 612 2.66756 612C5.06756 612 5.46756 612.8 5.46756 617.733C5.46756 620.8 4.53423 624.8 3.33423 626.4C1.33423 629.333 1.46756 629.333 6.13423 629.333C9.73423 629.333 10.6676 628.933 9.86756 627.6C9.33423 626.8 8.8009 622.4 8.8009 618C8.8009 610.4 8.66756 610 5.20089 609.6C3.33423 609.333 1.33423 609.867 0.800895 610.533Z" fill="black"/>
<path d="M0.132812 646.667C0.132812 647.333 0.799479 648 1.73281 648C2.53281 648 4.39948 648.933 5.73281 650.267C7.86615 652.267 8.13281 652.267 8.13281 650.267C8.13281 649.067 6.93281 647.467 5.59948 646.667C2.26615 644.933 0.132812 644.933 0.132812 646.667Z" fill="black"/>
<path d="M6.13281 656C5.73281 656.667 4.13281 657.333 2.66615 657.333C1.33281 657.333 0.132812 657.867 0.132812 658.667C0.132812 659.333 1.86615 660 4.13281 660C7.19948 660 8.13281 659.467 8.13281 657.333C8.13281 654.4 7.46615 653.867 6.13281 656Z" fill="black"/>
<path d="M103.2 735.333C102.8 736.533 102.8 737.733 103.2 738.133C104.134 739.2 109.467 736.133 109.467 734.667C109.467 732.533 104.134 733.2 103.2 735.333Z" fill="black"/>
<path d="M49.3328 743.334C48.5328 744.134 7.59948 750.667 3.46615 750.667C1.59948 750.667 0.132812 751.2 0.132812 752C0.132812 753.867 0.399479 753.734 25.4661 750C37.5995 748.134 49.4661 746.667 51.8661 746.667C54.2661 746.667 65.5995 750.267 77.0661 754.667C88.3995 759.067 98.3995 762.667 99.1995 762.667C102.666 762.667 96.7995 760 77.4661 752.667C66.1328 748.4 56.2661 744.4 55.5995 743.867C54.1328 742.534 50.2661 742.267 49.3328 743.334Z" fill="black"/>
<path d="M924.533 754C917.733 756.8 917.067 763.2 921.733 780.8L924.667 791.867L934 792.267L943.467 792.667L944.667 805.067C945.333 811.867 945.6 817.733 945.2 818C944.933 818.4 938.533 819.067 931.2 819.467L917.733 820.4L916.933 814.533C913.733 791.6 913.6 790.8 914.133 806C914.533 814 915.2 820.933 915.867 821.467C916.4 822 923.733 822 932.133 821.467L947.467 820.667L947.067 808.267C946.933 801.6 946.133 794.4 945.333 792.267C944 788.933 944.4 788.267 950.8 782.667C957.333 776.8 959.2 773.333 955.867 773.333C952.667 773.333 940.533 781.2 936.4 785.867C932.133 790.8 928.533 792 927.333 788.933C926.933 787.867 928.533 781.6 930.8 774.933C937.067 756.8 934.933 749.6 924.533 754ZM954.8 776.533C954.8 777.6 937.333 790.933 936.8 790.4C935.6 789.2 940.8 783.6 946.533 779.867C952.267 776.267 954.8 775.2 954.8 776.533Z" fill="black"/>
<path d="M676.4 844.267C674.4 846.267 674.266 851.333 676.133 854.8C678.133 858.267 686.133 858.267 688.133 854.8C691.733 848 681.733 838.933 676.4 844.267Z" fill="black"/>
<path d="M28.1328 898.4C28.1328 899.067 29.0661 900.534 30.2661 901.467C32.1328 903.067 32.3995 902.934 31.9995 900.8C31.4661 898.134 28.1328 896.134 28.1328 898.4Z" fill="black"/>
<path d="M24.4004 902.8C24.6671 903.734 25.7337 904.8 26.6671 905.067C27.7337 905.467 28.2671 904.934 27.8671 903.867C27.6004 902.934 26.5337 901.867 25.6004 901.6C24.5337 901.2 24.0004 901.734 24.4004 902.8Z" fill="black"/>
</svg>
